<svg id="Capa_1" data-name="Capa 1" xmlns="http://www.w3.org/2000/svg" viewBox="0 0 478.59 163.75">
  <defs>
    <style>
      .cls-1 {
        fill: #dcdcdc;
      }

      .cls-2, .cls-3 {
        fill: none;
        stroke: #dcdcdc;
        stroke-miterlimit: 10;
      }

      .cls-2 {
        opacity: 0.7;
      }

      .cls-3 {
        stroke-width: 0.82px;
      }

      .cls-4, .cls-5 {
        fill: #cb7e42;
      }

      .cls-4 {
        opacity: 0.5;
      }
    </style>
  </defs>
  <title>1</title>
  <g>
    <g>
      <path class="cls-1" d="M8.53,82.58v1.66H.67V82.38L3.94,80.2a7.16,7.16,0,0,0,2-1.8A2.64,2.64,0,0,0,6.51,77,1.85,1.85,0,0,0,6,75.63a1.79,1.79,0,0,0-1.35-.54c-1.22,0-1.92.75-2.11,2.23L.67,76.86a4.11,4.11,0,0,1,1.26-2.43,3.79,3.79,0,0,1,2.76-1,3.92,3.92,0,0,1,2.82,1A3.38,3.38,0,0,1,8.56,77a3.62,3.62,0,0,1-.93,2.44A20.92,20.92,0,0,1,3,82.58Z" transform="translate(-0.67 -1.81)"/>
      <path class="cls-1" d="M14.06,84.41a3.49,3.49,0,0,1-3-1.52A6.57,6.57,0,0,1,10,79,6.83,6.83,0,0,1,11.08,75a3.51,3.51,0,0,1,3-1.53,3.66,3.66,0,0,1,2.29.72,4.31,4.31,0,0,1,1.39,2,7.28,7.28,0,0,1,.45,2.41,9.31,9.31,0,0,1-.43,3.09,4.46,4.46,0,0,1-1.36,2A3.56,3.56,0,0,1,14.06,84.41Zm0-1.51a1.78,1.78,0,0,0,1.31-.5A2.68,2.68,0,0,0,16,81a13.33,13.33,0,0,0,.18-2.48,7.19,7.19,0,0,0-.44-2.5,1.68,1.68,0,0,0-1.69-1.18q-2.17,0-2.18,4a7.7,7.7,0,0,0,.47,2.93A1.66,1.66,0,0,0,14.05,82.9Z" transform="translate(-0.67 -1.81)"/>
      <path class="cls-1" d="M27.3,82.58v1.66H19.44V82.38L22.7,80.2a7.23,7.23,0,0,0,2.05-1.8A2.62,2.62,0,0,0,25.27,77a1.84,1.84,0,0,0-.52-1.33,1.81,1.81,0,0,0-1.36-.54c-1.22,0-1.92.75-2.1,2.23l-1.85-.46a4.11,4.11,0,0,1,1.26-2.43,3.78,3.78,0,0,1,2.75-1,3.91,3.91,0,0,1,2.82,1A3.35,3.35,0,0,1,27.33,77a3.58,3.58,0,0,1-.94,2.44,20.41,20.41,0,0,1-4.65,3.17Z" transform="translate(-0.67 -1.81)"/>
      <path class="cls-1" d="M32.82,84.41a3.47,3.47,0,0,1-3-1.52A6.58,6.58,0,0,1,28.73,79,6.83,6.83,0,0,1,29.85,75a3.51,3.51,0,0,1,3-1.53,3.61,3.61,0,0,1,2.28.72,4.24,4.24,0,0,1,1.39,2A7.06,7.06,0,0,1,37,78.56a9.31,9.31,0,0,1-.43,3.09,4.48,4.48,0,0,1-1.37,2A3.54,3.54,0,0,1,32.82,84.41Zm0-1.51a1.82,1.82,0,0,0,1.32-.5,2.68,2.68,0,0,0,.68-1.4A13.47,13.47,0,0,0,35,78.52a7,7,0,0,0-.44-2.5,1.66,1.66,0,0,0-1.69-1.18q-2.18,0-2.17,4a7.72,7.72,0,0,0,.46,2.93A1.68,1.68,0,0,0,32.81,82.9Z" transform="translate(-0.67 -1.81)"/>
    </g>
    <g>
      <path class="cls-1" d="M8.53,159.39v1.67H.67v-1.87L3.94,157a7.48,7.48,0,0,0,2-1.8,2.7,2.7,0,0,0,.53-1.44A1.83,1.83,0,0,0,6,152.45a1.79,1.79,0,0,0-1.35-.54c-1.22,0-1.92.74-2.11,2.23l-1.85-.46a4.16,4.16,0,0,1,1.26-2.44,3.83,3.83,0,0,1,2.76-1,3.94,3.94,0,0,1,2.82,1,3.38,3.38,0,0,1,1.05,2.55,3.64,3.64,0,0,1-.93,2.45A21,21,0,0,1,3,159.39Z" transform="translate(-0.67 -1.81)"/>
      <path class="cls-1" d="M14.05,161.22a3.46,3.46,0,0,1-3-1.52A6.56,6.56,0,0,1,10,155.84a6.81,6.81,0,0,1,1.11-4.07,3.5,3.5,0,0,1,3-1.54,3.66,3.66,0,0,1,2.29.72,4.36,4.36,0,0,1,1.39,2,7.33,7.33,0,0,1,.45,2.41,9.23,9.23,0,0,1-.43,3.09,4.36,4.36,0,0,1-1.36,2A3.57,3.57,0,0,1,14.05,161.22Zm0-1.51a1.74,1.74,0,0,0,1.31-.5,2.64,2.64,0,0,0,.68-1.39,13.37,13.37,0,0,0,.18-2.49,7.17,7.17,0,0,0-.44-2.49,1.67,1.67,0,0,0-1.69-1.18q-2.17,0-2.18,4a7.61,7.61,0,0,0,.47,2.92A1.65,1.65,0,0,0,14.05,159.71Z" transform="translate(-0.67 -1.81)"/>
      <path class="cls-1" d="M23.44,161.22a3.46,3.46,0,0,1-3-1.52,6.64,6.64,0,0,1-1.06-3.86,6.81,6.81,0,0,1,1.11-4.07,3.51,3.51,0,0,1,3-1.54,3.64,3.64,0,0,1,2.29.72,4.36,4.36,0,0,1,1.39,2,7.35,7.35,0,0,1,.46,2.41,9.49,9.49,0,0,1-.43,3.09,4.45,4.45,0,0,1-1.37,2A3.56,3.56,0,0,1,23.44,161.22Zm0-1.51a1.74,1.74,0,0,0,1.31-.5,2.57,2.57,0,0,0,.68-1.39,13.37,13.37,0,0,0,.18-2.49,7.17,7.17,0,0,0-.44-2.49,1.66,1.66,0,0,0-1.69-1.18q-2.17,0-2.17,4a7.63,7.63,0,0,0,.46,2.92A1.66,1.66,0,0,0,23.43,159.71Z" transform="translate(-0.67 -1.81)"/>
      <path class="cls-1" d="M29.09,159.13l1.61-.46a2,2,0,0,0,1.8,1.11,2,2,0,0,0,1.86-1.12,6.35,6.35,0,0,0,.66-3.12,2.89,2.89,0,0,1-1.29,1.39,3.7,3.7,0,0,1-1.5.31,3.58,3.58,0,0,1-2.5-.94,3.26,3.26,0,0,1-1-2.48,3.45,3.45,0,0,1,1-2.57,3.8,3.8,0,0,1,2.77-1,4,4,0,0,1,3.15,1.35,5.6,5.6,0,0,1,1.2,3.85,7,7,0,0,1-1.15,4.17,4.16,4.16,0,0,1-5.48,1A3,3,0,0,1,29.09,159.13Zm3.49-3.45a2.23,2.23,0,0,0,1.48-.54,2,2,0,0,0,.64-1.58,1.81,1.81,0,0,0-.56-1.29,2.23,2.23,0,0,0-3,0,1.94,1.94,0,0,0-.57,1.43,2.09,2.09,0,0,0,.53,1.37A1.89,1.89,0,0,0,32.58,155.68Z" transform="translate(-0.67 -1.81)"/>
    </g>
    <path class="cls-2" d="M354.71,63.38s20,2.58,31.22,13.25c9.63,9.13,6.06,26.61,6.06,26.61" transform="translate(-0.67 -1.81)"/>
    <g>
      <path class="cls-1" d="M265.47,12.17v1.17h-6.9V2.68h6.75V3.85h-5.41V7.24h4.29V8.32h-4.29v3.85Z" transform="translate(-0.67 -1.81)"/>
      <path class="cls-1" d="M268.45,13.34h-1.22V2.68h1.22Z" transform="translate(-0.67 -1.81)"/>
      <path class="cls-1" d="M281.08,13.34h-1.21a11.86,11.86,0,0,1-.14-1.42A2.86,2.86,0,0,1,277,13.56a2.78,2.78,0,0,1-2-.71,2.3,2.3,0,0,1-.71-1.69,2.36,2.36,0,0,1,1-2,5.78,5.78,0,0,1,3.45-.77l1.05,0a4.4,4.4,0,0,0-.15-1.36,1.23,1.23,0,0,0-.61-.67,2.73,2.73,0,0,0-1.24-.25c-1.24,0-2,.48-2.17,1.43l-1.13-.2c.28-1.45,1.44-2.18,3.48-2.18a3.11,3.11,0,0,1,2.32.72,3.63,3.63,0,0,1,.68,2.51v3.35A6.57,6.57,0,0,0,281.08,13.34Zm-1.35-3.95c-.5,0-.88,0-1.14,0a4.42,4.42,0,0,0-2.26.48,1.51,1.51,0,0,0-.81,1.39,1.32,1.32,0,0,0,.44,1,1.76,1.76,0,0,0,1.25.4,2.33,2.33,0,0,0,1.82-.8,2.76,2.76,0,0,0,.72-1.9C279.75,9.77,279.74,9.59,279.73,9.39Z" transform="translate(-0.67 -1.81)"/>
      <path class="cls-1" d="M289.59,13.34h-1.15V8.27A2,2,0,0,0,288,6.73a1.62,1.62,0,0,0-1.16-.44,2,2,0,0,0-1.57.75,3,3,0,0,0-.64,2v4.33h-1.22V5.45h1.14V6.9A2.84,2.84,0,0,1,287,5.23a2.41,2.41,0,0,1,1.5.46,2.31,2.31,0,0,1,.85,1,6.08,6.08,0,0,1,.24,2.07Zm-1-10.78.6.56a2.34,2.34,0,0,1-1.57.79,2.72,2.72,0,0,1-1-.27,2.84,2.84,0,0,0-1.05-.3,1.29,1.29,0,0,0-1.05.52l-.66-.46a2.07,2.07,0,0,1,1.75-1,2.82,2.82,0,0,1,1,.27,3.15,3.15,0,0,0,1,.29A1.57,1.57,0,0,0,288.59,2.56Z" transform="translate(-0.67 -1.81)"/>
      <path class="cls-1" d="M294.87,13.56a3,3,0,0,1-2.54-1.21,4.82,4.82,0,0,1-.91-3,4.3,4.3,0,0,1,1-3A3.33,3.33,0,0,1,295,5.23a3.13,3.13,0,0,1,2.58,1.19,4.64,4.64,0,0,1,.94,3,4.41,4.41,0,0,1-1,3A3.31,3.31,0,0,1,294.87,13.56Zm.09-1a1.93,1.93,0,0,0,1.57-.77,3.8,3.8,0,0,0,.63-2.41A3.54,3.54,0,0,0,296.5,7a2,2,0,0,0-1.56-.73A2,2,0,0,0,293.4,7a3.65,3.65,0,0,0-.63,2.37,3.74,3.74,0,0,0,.63,2.44A2,2,0,0,0,295,12.54Z" transform="translate(-0.67 -1.81)"/>
      <path class="cls-1" d="M309,10.57l1.1.2a3.56,3.56,0,0,1-1,2.05,2.88,2.88,0,0,1-2,.74,2.85,2.85,0,0,1-2.49-1.21,4.94,4.94,0,0,1-.86-2.94,4.77,4.77,0,0,1,.91-3,2.92,2.92,0,0,1,2.45-1.19,2.83,2.83,0,0,1,2.07.77,3.41,3.41,0,0,1,1,2L309,8.2q-.31-1.95-1.89-1.95a1.72,1.72,0,0,0-1.56.86A4.09,4.09,0,0,0,305,9.35a4.32,4.32,0,0,0,.54,2.35,1.73,1.73,0,0,0,1.53.84C308.1,12.54,308.74,11.89,309,10.57Z" transform="translate(-0.67 -1.81)"/>
      <path class="cls-1" d="M314.63,13.56a3,3,0,0,1-2.53-1.21,4.76,4.76,0,0,1-.91-3,4.3,4.3,0,0,1,1-3,3.3,3.3,0,0,1,2.55-1.13,3.11,3.11,0,0,1,2.57,1.19,4.58,4.58,0,0,1,.94,3,4.45,4.45,0,0,1-1,3A3.32,3.32,0,0,1,314.63,13.56Zm.1-1a2,2,0,0,0,1.57-.77,3.8,3.8,0,0,0,.63-2.41A3.54,3.54,0,0,0,316.27,7a2.06,2.06,0,0,0-1.56-.73,2,2,0,0,0-1.55.74,3.65,3.65,0,0,0-.63,2.37,3.74,3.74,0,0,0,.63,2.44A2,2,0,0,0,314.73,12.54Z" transform="translate(-0.67 -1.81)"/>
      <path class="cls-1" d="M326.34,13.34h-1.15V8.27a2,2,0,0,0-.48-1.54,1.62,1.62,0,0,0-1.16-.44A2,2,0,0,0,322,7a3,3,0,0,0-.64,2v4.33h-1.22V5.45h1.14V6.9a2.84,2.84,0,0,1,2.49-1.67,2.41,2.41,0,0,1,1.5.46,2.31,2.31,0,0,1,.85,1,6.08,6.08,0,0,1,.24,2.07Z" transform="translate(-0.67 -1.81)"/>
      <path class="cls-1" d="M343.36,13.34h-1.2V8.43a4.57,4.57,0,0,0-.1-1.13,1.34,1.34,0,0,0-.51-.7,1.46,1.46,0,0,0-.92-.31,1.9,1.9,0,0,0-1.35.64,2.62,2.62,0,0,0-.66,2v4.45h-1.18V8.14a1.84,1.84,0,0,0-.5-1.46,1.56,1.56,0,0,0-1-.43,1.73,1.73,0,0,0-1.36.67,2.49,2.49,0,0,0-.58,1.7v4.72h-1.17V5.45h1V7a2.7,2.7,0,0,1,2.43-1.73,2.06,2.06,0,0,1,1.45.56,2.52,2.52,0,0,1,.76,1.33A2.67,2.67,0,0,1,341,5.23a2.27,2.27,0,0,1,1.41.46,2.2,2.2,0,0,1,.79,1.06,6.12,6.12,0,0,1,.18,1.68Z" transform="translate(-0.67 -1.81)"/>
      <path class="cls-1" d="M352,13.34h-1.21c0-.25-.09-.72-.14-1.42a2.84,2.84,0,0,1-2.76,1.64,2.76,2.76,0,0,1-2-.71,2.27,2.27,0,0,1-.71-1.69,2.37,2.37,0,0,1,1-2,5.83,5.83,0,0,1,3.46-.77l1,0a4.82,4.82,0,0,0-.14-1.36,1.22,1.22,0,0,0-.62-.67,2.68,2.68,0,0,0-1.23-.25c-1.24,0-2,.48-2.17,1.43l-1.13-.2c.27-1.45,1.43-2.18,3.48-2.18a3.11,3.11,0,0,1,2.32.72,3.68,3.68,0,0,1,.68,2.51v3.35A6.59,6.59,0,0,0,352,13.34Zm-1.35-3.95c-.5,0-.88,0-1.14,0a4.44,4.44,0,0,0-2.26.48,1.52,1.52,0,0,0-.8,1.39,1.31,1.31,0,0,0,.43,1,1.78,1.78,0,0,0,1.26.4,2.34,2.34,0,0,0,1.82-.8,2.76,2.76,0,0,0,.72-1.9C350.66,9.77,350.65,9.59,350.63,9.39Zm.46-6.64-3.23,1.47-.34-.63,3.1-1.78Z" transform="translate(-0.67 -1.81)"/>
      <path class="cls-1" d="M353.21,11.29l1.17-.24c.26,1,1.09,1.49,2.47,1.49a2.35,2.35,0,0,0,1.3-.34,1.1,1.1,0,0,0,.53-1c0-.62-.45-1-1.35-1.18l-1.67-.31A3,3,0,0,1,354.11,9a1.86,1.86,0,0,1-.58-1.44,2.07,2.07,0,0,1,.79-1.66,3.15,3.15,0,0,1,2.12-.67q2.58,0,3.18,2l-1.13.24a1.92,1.92,0,0,0-2-1.23,2.29,2.29,0,0,0-1.23.3,1,1,0,0,0-.48.87c0,.58.41.95,1.23,1.1l1.53.27c1.61.29,2.42,1.08,2.42,2.34a2.09,2.09,0,0,1-.9,1.76,3.89,3.89,0,0,1-2.39.67C354.81,13.56,353.65,12.8,353.21,11.29Z" transform="translate(-0.67 -1.81)"/>
      <path class="cls-1" d="M364.63,11.29l1.17-.24c.26,1,1.09,1.49,2.47,1.49a2.33,2.33,0,0,0,1.3-.34,1.1,1.1,0,0,0,.53-1c0-.62-.45-1-1.35-1.18l-1.66-.31A3,3,0,0,1,365.53,9,1.9,1.9,0,0,1,365,7.56a2.1,2.1,0,0,1,.79-1.66,3.18,3.18,0,0,1,2.13-.67c1.71,0,2.77.67,3.17,2l-1.13.24a1.92,1.92,0,0,0-2-1.23,2.29,2.29,0,0,0-1.23.3,1,1,0,0,0-.48.87c0,.58.41.95,1.23,1.1l1.54.27c1.61.29,2.41,1.08,2.41,2.34a2.09,2.09,0,0,1-.9,1.76,3.87,3.87,0,0,1-2.39.67C366.23,13.56,365.07,12.8,364.63,11.29Z" transform="translate(-0.67 -1.81)"/>
      <path class="cls-1" d="M379.29,13.34h-1.21a11.86,11.86,0,0,1-.14-1.42,2.85,2.85,0,0,1-2.77,1.64,2.8,2.8,0,0,1-2-.71,2.3,2.3,0,0,1-.71-1.69,2.36,2.36,0,0,1,1-2,5.8,5.8,0,0,1,3.45-.77l1.05,0a4.4,4.4,0,0,0-.15-1.36,1.2,1.2,0,0,0-.61-.67,2.7,2.7,0,0,0-1.24-.25c-1.24,0-2,.48-2.17,1.43l-1.13-.2c.28-1.45,1.44-2.18,3.48-2.18a3.11,3.11,0,0,1,2.32.72,3.63,3.63,0,0,1,.68,2.51v3.35A6.57,6.57,0,0,0,379.29,13.34Zm-1.35-3.95c-.5,0-.88,0-1.14,0a4.42,4.42,0,0,0-2.26.48,1.51,1.51,0,0,0-.81,1.39,1.32,1.32,0,0,0,.44,1,1.76,1.76,0,0,0,1.25.4,2.36,2.36,0,0,0,1.83-.8,2.8,2.8,0,0,0,.71-1.9C378,9.77,378,9.59,377.94,9.39Z" transform="translate(-0.67 -1.81)"/>
      <path class="cls-1" d="M382.8,13.34h-1.22V2.68h1.22Z" transform="translate(-0.67 -1.81)"/>
      <path class="cls-1" d="M386.52,2.68V4H385.2V2.68Zm0,2.77v7.89h-1.22V5.45Z" transform="translate(-0.67 -1.81)"/>
      <path class="cls-1" d="M395.09,2.68V13.34H394V12a2.66,2.66,0,0,1-2.49,1.57,2.77,2.77,0,0,1-2.28-1.16,4.74,4.74,0,0,1-.89-2.94,5,5,0,0,1,.88-3,2.76,2.76,0,0,1,2.35-1.21,2.72,2.72,0,0,1,2.32,1.3V2.68ZM393.87,8.5a2.22,2.22,0,0,0-.64-1.67,2,2,0,0,0-1.47-.62,1.81,1.81,0,0,0-1.51.81,3.84,3.84,0,0,0-.59,2.28,4.32,4.32,0,0,0,.55,2.41,1.66,1.66,0,0,0,1.48.83,2,2,0,0,0,1.52-.72,2.39,2.39,0,0,0,.66-1.68Z" transform="translate(-0.67 -1.81)"/>
      <path class="cls-1" d="M403.72,13.34h-1.21a11.86,11.86,0,0,1-.14-1.42,2.86,2.86,0,0,1-2.77,1.64,2.8,2.8,0,0,1-2-.71,2.3,2.3,0,0,1-.71-1.69,2.36,2.36,0,0,1,1-2,5.78,5.78,0,0,1,3.45-.77l1.05,0a4.4,4.4,0,0,0-.15-1.36,1.2,1.2,0,0,0-.61-.67,2.7,2.7,0,0,0-1.24-.25c-1.24,0-2,.48-2.17,1.43l-1.13-.2c.28-1.45,1.44-2.18,3.48-2.18a3.11,3.11,0,0,1,2.32.72,3.63,3.63,0,0,1,.68,2.51v3.35A6.57,6.57,0,0,0,403.72,13.34Zm-1.35-3.95c-.5,0-.88,0-1.14,0a4.42,4.42,0,0,0-2.26.48,1.51,1.51,0,0,0-.81,1.39,1.32,1.32,0,0,0,.44,1,1.76,1.76,0,0,0,1.25.4,2.36,2.36,0,0,0,1.83-.8,2.8,2.8,0,0,0,.71-1.9C402.39,9.77,402.38,9.59,402.37,9.39Z" transform="translate(-0.67 -1.81)"/>
      <path class="cls-1" d="M404.94,11.29l1.18-.24c.26,1,1.08,1.49,2.47,1.49a2.3,2.3,0,0,0,1.29-.34,1.08,1.08,0,0,0,.53-1c0-.62-.45-1-1.35-1.18l-1.66-.31A3.08,3.08,0,0,1,405.84,9a1.89,1.89,0,0,1-.57-1.44,2.09,2.09,0,0,1,.78-1.66,3.18,3.18,0,0,1,2.13-.67c1.71,0,2.77.67,3.17,2l-1.12.24a1.94,1.94,0,0,0-2-1.23,2.29,2.29,0,0,0-1.23.3,1,1,0,0,0-.48.87c0,.58.41.95,1.23,1.1l1.54.27c1.61.29,2.41,1.08,2.41,2.34a2.09,2.09,0,0,1-.9,1.76,3.85,3.85,0,0,1-2.39.67C406.54,13.56,405.39,12.8,404.94,11.29Z" transform="translate(-0.67 -1.81)"/>
      <path class="cls-1" d="M423.6,13.34h-1.21c-.05-.25-.09-.72-.14-1.42a2.84,2.84,0,0,1-2.77,1.64,2.8,2.8,0,0,1-2-.71,2.3,2.3,0,0,1-.71-1.69,2.36,2.36,0,0,1,1-2,5.82,5.82,0,0,1,3.45-.77l1.05,0a4.4,4.4,0,0,0-.15-1.36,1.2,1.2,0,0,0-.61-.67,2.68,2.68,0,0,0-1.23-.25c-1.25,0-2,.48-2.17,1.43L417,7.41c.28-1.45,1.44-2.18,3.49-2.18a3.07,3.07,0,0,1,2.31.72,3.62,3.62,0,0,1,.69,2.51v3.35A6.59,6.59,0,0,0,423.6,13.34Zm-1.35-3.95c-.5,0-.88,0-1.14,0a4.44,4.44,0,0,0-2.26.48,1.5,1.5,0,0,0-.8,1.39,1.31,1.31,0,0,0,.43,1,1.77,1.77,0,0,0,1.25.4,2.36,2.36,0,0,0,1.83-.8,2.8,2.8,0,0,0,.71-1.9A5.07,5.07,0,0,0,422.25,9.39Z" transform="translate(-0.67 -1.81)"/>
      <path class="cls-1" d="M427.12,13.34h-1.23V2.68h1.23Z" transform="translate(-0.67 -1.81)"/>
      <path class="cls-1" d="M438.43,10.82,440,11a3.37,3.37,0,0,1-1.22,1.77,3.63,3.63,0,0,1-2.27.69,3.36,3.36,0,0,1-2.64-1.1,4.25,4.25,0,0,1-1-3,4.38,4.38,0,0,1,1-3,3.45,3.45,0,0,1,2.74-1.17,3.16,3.16,0,0,1,2.61,1.15,4.64,4.64,0,0,1,.92,3v.2h-5.41a4.47,4.47,0,0,0,.15,1.29,1.68,1.68,0,0,0,.61.85,1.9,1.9,0,0,0,2.91-.93Zm-.11-2.36a2,2,0,0,0-.51-1.39,1.63,1.63,0,0,0-1.25-.53,1.6,1.6,0,0,0-1.22.5,2.23,2.23,0,0,0-.58,1.42Z" transform="translate(-0.67 -1.81)"/>
      <path class="cls-1" d="M447.6,13.34h-2l-1.67-2.88-1.83,2.88h-1.53l2.62-4.06-2.27-3.83h2l1.3,2.32,1.47-2.32h1.49L445,8.87Z" transform="translate(-0.67 -1.81)"/>
      <path class="cls-1" d="M452.33,12v1.39a6.59,6.59,0,0,1-1.24.17,2.49,2.49,0,0,1-1.23-.28,1.79,1.79,0,0,1-.76-.78,3.92,3.92,0,0,1-.23-1.53V6.83h-1V5.45H449l.16-2.06,1.46-.13V5.45h1.59V6.83h-1.59v3.85a1.45,1.45,0,0,0,.27,1,1.46,1.46,0,0,0,1,.26Z" transform="translate(-0.67 -1.81)"/>
      <path class="cls-1" d="M455.61,13.34h-1.78V5.45h1.61V7.33a3.4,3.4,0,0,1,.94-1.61,1.89,1.89,0,0,1,1.24-.51h.23V7.14a1.82,1.82,0,0,0-1.8.86,3.76,3.76,0,0,0-.44,1.68Z" transform="translate(-0.67 -1.81)"/>
      <path class="cls-1" d="M465.88,13.34h-1.69a6.43,6.43,0,0,1-.28-1.59,2.63,2.63,0,0,1-2.67,1.75,2.6,2.6,0,0,1-1.89-.69,2.31,2.31,0,0,1-.72-1.74q0-2.71,4.78-2.71h.5V7.77c0-.82-.55-1.23-1.67-1.23s-1.7.41-1.84,1.23l-1.52-.23a2.33,2.33,0,0,1,1-1.62,4.43,4.43,0,0,1,2.58-.63,6.11,6.11,0,0,1,1.49.15,2.26,2.26,0,0,1,1,.51,2.14,2.14,0,0,1,.56.79,4.88,4.88,0,0,1,.15,1.44v3.57A6,6,0,0,0,465.88,13.34Zm-2-4q-3.45,0-3.45,1.65a1.15,1.15,0,0,0,.35.84,1.43,1.43,0,0,0,1.05.35,1.83,1.83,0,0,0,1.53-.64,2.26,2.26,0,0,0,.52-1.47Z" transform="translate(-0.67 -1.81)"/>
      <path class="cls-1" d="M474.31,13.34h-1.78V8.41a1.72,1.72,0,0,0-.36-1.18,1.14,1.14,0,0,0-.87-.39,1.53,1.53,0,0,0-1.21.61,2.77,2.77,0,0,0-.53,1.84v4.05h-1.78V5.45h1.63V7.28c.56-1.33,1.36-2,2.39-2a2.55,2.55,0,0,1,1.77.65,3,3,0,0,1,.74,2.31Z" transform="translate(-0.67 -1.81)"/>
      <path class="cls-1" d="M479.26,8.55V10h-3.92V8.55Z" transform="translate(-0.67 -1.81)"/>
      <path class="cls-1" d="M260.08,24.65v7.76c0,2-.91,3-2.71,3a4.52,4.52,0,0,1-.92-.1v-1.5c.23,0,.42,0,.57,0a1.37,1.37,0,0,0,1-.29,1.62,1.62,0,0,0,.27-1.11V24.65Zm0-.92H258.3V21.88h1.78Z" transform="translate(-0.67 -1.81)"/>
      <path class="cls-1" d="M267.23,30l1.61.22A3.3,3.3,0,0,1,267.62,32a3.63,3.63,0,0,1-2.27.69,3.38,3.38,0,0,1-2.64-1.1,4.25,4.25,0,0,1-1-3,4.39,4.39,0,0,1,1-3,3.42,3.42,0,0,1,2.73-1.18,3.14,3.14,0,0,1,2.61,1.16,4.58,4.58,0,0,1,.92,3v.2h-5.42a4.47,4.47,0,0,0,.15,1.29,1.8,1.8,0,0,0,.61.85,1.9,1.9,0,0,0,2.91-.93Zm-.11-2.36a2,2,0,0,0-.51-1.39,1.62,1.62,0,0,0-1.24-.54,1.64,1.64,0,0,0-1.23.51,2.26,2.26,0,0,0-.58,1.42Z" transform="translate(-0.67 -1.81)"/>
      <path class="cls-1" d="M272.39,32.54h-1.78V24.65h1.61v1.88a3.4,3.4,0,0,1,.94-1.61,1.91,1.91,0,0,1,1.24-.51h.23v1.92a1.84,1.84,0,0,0-1.8.86,3.76,3.76,0,0,0-.44,1.68Z" transform="translate(-0.67 -1.81)"/>
      <path class="cls-1" d="M278.91,32.7a3.14,3.14,0,0,1-2.68-1.25,4.79,4.79,0,0,1-.92-2.89,4.27,4.27,0,0,1,1-2.91A3.4,3.4,0,0,1,279,24.48a3.35,3.35,0,0,1,2.61,1.14,4.21,4.21,0,0,1,1,2.94,4.22,4.22,0,0,1-1.06,3A3.53,3.53,0,0,1,278.91,32.7Zm.06-1.47q1.8,0,1.8-2.67a3.68,3.68,0,0,0-.43-1.91A1.44,1.44,0,0,0,279,26a1.49,1.49,0,0,0-1.37.72,3.59,3.59,0,0,0-.45,1.92,3.41,3.41,0,0,0,.48,2A1.48,1.48,0,0,0,279,31.23Z" transform="translate(-0.67 -1.81)"/>
      <path class="cls-1" d="M291.71,24.65v1h-1.87v6.93h-1.23V25.61h-1.34v-1h1.34a3.16,3.16,0,0,1,.73-2.45,2.71,2.71,0,0,1,1.71-.54,6,6,0,0,1,1.12.11v1a3.45,3.45,0,0,0-.76-.1,1.71,1.71,0,0,0-1.19.36,1.76,1.76,0,0,0-.38,1.33v.32Z" transform="translate(-0.67 -1.81)"/>
      <path class="cls-1" d="M299.44,32.54h-1.1V31a2.7,2.7,0,0,1-2.52,1.73,2.4,2.4,0,0,1-1.9-.8,3.37,3.37,0,0,1-.69-2.27v-5h1.23v5A2.09,2.09,0,0,0,295,31.3a1.52,1.52,0,0,0,1.07.44,1.86,1.86,0,0,0,1.08-.33,2.74,2.74,0,0,0,.8-1,3,3,0,0,0,.32-1.36V24.65h1.22Z" transform="translate(-0.67 -1.81)"/>
      <path class="cls-1" d="M307.11,30.19l1.14.23A3.22,3.22,0,0,1,307,32.1a3.5,3.5,0,0,1-2.13.66,3.32,3.32,0,0,1-2.62-1.14,4.33,4.33,0,0,1-1-3,4.42,4.42,0,0,1,1-3.05,3.36,3.36,0,0,1,2.61-1.16,3.17,3.17,0,0,1,2.49,1.07,4.76,4.76,0,0,1,1,3.2h-5.73a3.07,3.07,0,0,0,.75,2.42,2.47,2.47,0,0,0,1.58.62A2.17,2.17,0,0,0,307.11,30.19Zm-.07-2.4a3.31,3.31,0,0,0-.22-1.18,2,2,0,0,0-.69-.88,1.88,1.88,0,0,0-1.16-.36,2.09,2.09,0,0,0-1.55.65,2.7,2.7,0,0,0-.72,1.77Z" transform="translate(-0.67 -1.81)"/>
      <path class="cls-1" d="M321.53,30.88v1.66h-7.86V30.67l3.27-2.17a7.48,7.48,0,0,0,2-1.8,2.64,2.64,0,0,0,.53-1.44,1.83,1.83,0,0,0-.53-1.33,1.79,1.79,0,0,0-1.36-.54c-1.21,0-1.91.74-2.1,2.23l-1.85-.46a4.16,4.16,0,0,1,1.26-2.44,3.83,3.83,0,0,1,2.76-1,3.94,3.94,0,0,1,2.82,1,3.35,3.35,0,0,1,1.05,2.55,3.6,3.6,0,0,1-.94,2.44A20.86,20.86,0,0,1,316,30.88Z" transform="translate(-0.67 -1.81)"/>
      <path class="cls-1" d="M327.05,32.7a3.46,3.46,0,0,1-3-1.52A6.56,6.56,0,0,1,323,27.32a6.81,6.81,0,0,1,1.11-4.07,3.5,3.5,0,0,1,3-1.54,3.61,3.61,0,0,1,2.28.72,4.35,4.35,0,0,1,1.4,2,7.33,7.33,0,0,1,.45,2.41,9.23,9.23,0,0,1-.43,3.09,4.44,4.44,0,0,1-1.36,2A3.62,3.62,0,0,1,327.05,32.7Zm0-1.5a1.78,1.78,0,0,0,1.31-.5,2.71,2.71,0,0,0,.68-1.4,13.37,13.37,0,0,0,.18-2.49,7.17,7.17,0,0,0-.44-2.49,1.67,1.67,0,0,0-1.69-1.18q-2.18,0-2.18,4a7.92,7.92,0,0,0,.46,2.93A1.68,1.68,0,0,0,327.05,31.2Z" transform="translate(-0.67 -1.81)"/>
      <path class="cls-1" d="M340.62,32.54h-8.16V31h3.21V24.23a10.62,10.62,0,0,1-2.91,1.93V24.23a10.17,10.17,0,0,0,1.67-.72,9.27,9.27,0,0,0,1-.79,4.52,4.52,0,0,0,.92-1.06h1.28V31h3Z" transform="translate(-0.67 -1.81)"/>
      <path class="cls-1" d="M342.44,21.88h6.64l-.17,1.64h-5.06l-.3,3.1a3,3,0,0,1,2.51-1.23,3.56,3.56,0,0,1,2.6,1.06A3.45,3.45,0,0,1,349.72,29a3.56,3.56,0,0,1-1.11,2.62,4.12,4.12,0,0,1-3.05,1.1,5,5,0,0,1-2.69-.71,3.33,3.33,0,0,1-1.5-2.21l1.85-.27a2.16,2.16,0,0,0,2.24,1.63,2,2,0,0,0,1.61-.63,2.2,2.2,0,0,0,.57-1.53,2.17,2.17,0,0,0-.56-1.51,1.89,1.89,0,0,0-1.46-.61,2.24,2.24,0,0,0-2.07,1.24l-1.71-.33Z" transform="translate(-0.67 -1.81)"/>
      <path class="cls-1" d="M353,30.76v1.6l-1.16,2.19h-.66l.92-2h-.8V30.76Z" transform="translate(-0.67 -1.81)"/>
      <path class="cls-1" d="M364,29.77l1.11.2a3.51,3.51,0,0,1-1,2.05,3.13,3.13,0,0,1-4.49-.47,4.94,4.94,0,0,1-.86-2.94,4.83,4.83,0,0,1,.9-3,2.94,2.94,0,0,1,2.46-1.19,2.83,2.83,0,0,1,2.07.77,3.41,3.41,0,0,1,1,2L364,27.4c-.21-1.3-.83-1.95-1.88-1.95a1.72,1.72,0,0,0-1.56.86,4.06,4.06,0,0,0-.55,2.24,4.32,4.32,0,0,0,.54,2.35,1.72,1.72,0,0,0,1.53.84C363.11,31.74,363.75,31.09,364,29.77Z" transform="translate(-0.67 -1.81)"/>
      <path class="cls-1" d="M369.64,32.76a3,3,0,0,1-2.54-1.21,4.82,4.82,0,0,1-.91-3,4.31,4.31,0,0,1,1-3,3.3,3.3,0,0,1,2.55-1.13,3.14,3.14,0,0,1,2.57,1.18,4.6,4.6,0,0,1,.94,3,4.46,4.46,0,0,1-1,3A3.33,3.33,0,0,1,369.64,32.76Zm.09-1A2,2,0,0,0,371.3,31a3.73,3.73,0,0,0,.64-2.41,3.49,3.49,0,0,0-.67-2.38,2,2,0,0,0-1.55-.73,1.94,1.94,0,0,0-1.55.74,3.65,3.65,0,0,0-.63,2.37,3.74,3.74,0,0,0,.63,2.44A2,2,0,0,0,369.73,31.74Z" transform="translate(-0.67 -1.81)"/>
      <path class="cls-1" d="M381.34,32.54h-1.15V27.47a2,2,0,0,0-.47-1.54,1.62,1.62,0,0,0-1.16-.45,2,2,0,0,0-1.57.75,2.93,2.93,0,0,0-.64,2v4.33h-1.23V24.65h1.15V26.1a2.84,2.84,0,0,1,2.49-1.67,2.41,2.41,0,0,1,1.5.46,2.31,2.31,0,0,1,.85,1,6.11,6.11,0,0,1,.23,2.07Z" transform="translate(-0.67 -1.81)"/>
      <path class="cls-1" d="M394,32.54H392.9V31a2.69,2.69,0,0,1-2.51,1.73,2.38,2.38,0,0,1-1.9-.8,3.37,3.37,0,0,1-.69-2.27v-5H389v5a2.13,2.13,0,0,0,.49,1.61,1.55,1.55,0,0,0,1.08.44,1.85,1.85,0,0,0,1.07-.33,2.64,2.64,0,0,0,.8-1,3,3,0,0,0,.32-1.36V24.65H394Z" transform="translate(-0.67 -1.81)"/>
      <path class="cls-1" d="M402.68,32.54h-1.15V27.47a2,2,0,0,0-.48-1.54,1.6,1.6,0,0,0-1.15-.45,2,2,0,0,0-1.58.75,3,3,0,0,0-.63,2v4.33h-1.23V24.65h1.14V26.1a2.84,2.84,0,0,1,2.49-1.67,2.46,2.46,0,0,1,1.51.46,2.38,2.38,0,0,1,.85,1,6.38,6.38,0,0,1,.23,2.07Z" transform="translate(-0.67 -1.81)"/>
      <path class="cls-1" d="M412.71,31.7v1a8.34,8.34,0,0,1-1.12.09c-1.53,0-2.29-.8-2.29-2.39V25.61h-1.4v-1h1.4l.05-2,1.14-.1v2.09h1.77v1h-1.77v5c0,.81.42,1.22,1.27,1.22A5.7,5.7,0,0,0,412.71,31.7Z" transform="translate(-0.67 -1.81)"/>
      <path class="cls-1" d="M416.64,32.76a3,3,0,0,1-2.54-1.21,4.82,4.82,0,0,1-.91-3,4.31,4.31,0,0,1,1-3,3.3,3.3,0,0,1,2.55-1.13,3.14,3.14,0,0,1,2.57,1.18,4.6,4.6,0,0,1,.94,3,4.46,4.46,0,0,1-1,3A3.33,3.33,0,0,1,416.64,32.76Zm.09-1A2,2,0,0,0,418.3,31a3.73,3.73,0,0,0,.64-2.41,3.49,3.49,0,0,0-.67-2.38,2,2,0,0,0-1.55-.73,1.94,1.94,0,0,0-1.55.74,3.65,3.65,0,0,0-.63,2.37,3.74,3.74,0,0,0,.63,2.44A2,2,0,0,0,416.73,31.74Z" transform="translate(-0.67 -1.81)"/>
      <path class="cls-1" d="M425.58,31.7v1a8.35,8.35,0,0,1-1.13.09c-1.52,0-2.29-.8-2.29-2.39V25.61h-1.39v-1h1.39l.06-2,1.14-.1v2.09h1.76v1h-1.76v5a1.1,1.1,0,0,0,1.26,1.22A5.81,5.81,0,0,0,425.58,31.7Z" transform="translate(-0.67 -1.81)"/>
      <path class="cls-1" d="M433.09,32.54h-1.21c0-.25-.09-.72-.14-1.42A2.84,2.84,0,0,1,429,32.76a2.76,2.76,0,0,1-2-.71,2.27,2.27,0,0,1-.71-1.69,2.35,2.35,0,0,1,1-2,5.82,5.82,0,0,1,3.45-.77l1.05,0a4.82,4.82,0,0,0-.14-1.36,1.22,1.22,0,0,0-.62-.67,2.68,2.68,0,0,0-1.23-.25c-1.25,0-2,.48-2.17,1.43l-1.14-.2c.28-1.45,1.44-2.18,3.49-2.18a3.11,3.11,0,0,1,2.32.72,3.66,3.66,0,0,1,.68,2.51V31A6.59,6.59,0,0,0,433.09,32.54Zm-1.35-3.95c-.5,0-.88,0-1.14,0a4.56,4.56,0,0,0-2.26.47,1.55,1.55,0,0,0-.8,1.4,1.31,1.31,0,0,0,.43,1,1.78,1.78,0,0,0,1.26.4,2.34,2.34,0,0,0,1.82-.8,2.76,2.76,0,0,0,.72-1.9C431.77,29,431.76,28.79,431.74,28.59Z" transform="translate(-0.67 -1.81)"/>
      <path class="cls-1" d="M436.61,32.54h-1.23V21.88h1.23Z" transform="translate(-0.67 -1.81)"/>
      <path class="cls-1" d="M449.23,21.88V32.54h-1.11V31.19a2.69,2.69,0,0,1-2.5,1.57,2.78,2.78,0,0,1-2.28-1.16,4.74,4.74,0,0,1-.89-2.94,5,5,0,0,1,.89-3,2.74,2.74,0,0,1,2.34-1.21,2.71,2.71,0,0,1,2.32,1.3V21.88ZM448,27.7a2.25,2.25,0,0,0-.63-1.67,2.08,2.08,0,0,0-1.48-.62,1.78,1.78,0,0,0-1.5.81,3.77,3.77,0,0,0-.59,2.28,4.41,4.41,0,0,0,.54,2.41,1.68,1.68,0,0,0,1.49.83,2,2,0,0,0,1.51-.72,2.41,2.41,0,0,0,.66-1.68Z" transform="translate(-0.67 -1.81)"/>
      <path class="cls-1" d="M456.89,30.19l1.14.23a3.22,3.22,0,0,1-1.22,1.68,3.5,3.5,0,0,1-2.13.66,3.32,3.32,0,0,1-2.62-1.14,4.38,4.38,0,0,1-1-3,4.42,4.42,0,0,1,1-3.05,3.36,3.36,0,0,1,2.61-1.16,3.17,3.17,0,0,1,2.49,1.07,4.76,4.76,0,0,1,1,3.2h-5.73a3.07,3.07,0,0,0,.75,2.42,2.48,2.48,0,0,0,1.59.62A2.17,2.17,0,0,0,456.89,30.19Zm-.07-2.4a3.31,3.31,0,0,0-.22-1.18,1.94,1.94,0,0,0-.69-.88,1.88,1.88,0,0,0-1.16-.36,2.09,2.09,0,0,0-1.55.65,2.75,2.75,0,0,0-.72,1.77Z" transform="translate(-0.67 -1.81)"/>
      <path class="cls-1" d="M266.49,51.74h-8.16V50.17h3.21V43.44a10.67,10.67,0,0,1-2.92,1.92V43.44a11.12,11.12,0,0,0,1.68-.73,9.27,9.27,0,0,0,1-.79,4.44,4.44,0,0,0,.91-1.06h1.29v9.31h3Z" transform="translate(-0.67 -1.81)"/>
      <path class="cls-1" d="M267.56,49.81l1.61-.46a2,2,0,0,0,1.8,1.11,2,2,0,0,0,1.86-1.12,6.35,6.35,0,0,0,.66-3.12,2.86,2.86,0,0,1-1.3,1.39,3.62,3.62,0,0,1-1.49.31,3.52,3.52,0,0,1-2.5-.94,3.22,3.22,0,0,1-1-2.48,3.43,3.43,0,0,1,1-2.57,3.8,3.8,0,0,1,2.77-1,4,4,0,0,1,3.15,1.35,5.6,5.6,0,0,1,1.2,3.85,7,7,0,0,1-1.16,4.18,3.78,3.78,0,0,1-3.26,1.61,3.71,3.71,0,0,1-2.22-.62A3,3,0,0,1,267.56,49.81Zm3.49-3.45a2.23,2.23,0,0,0,1.48-.54,2,2,0,0,0,.63-1.58,1.81,1.81,0,0,0-.55-1.29,2.23,2.23,0,0,0-3,0,1.94,1.94,0,0,0-.57,1.43,2,2,0,0,0,.53,1.37A1.89,1.89,0,0,0,271.05,46.36Z" transform="translate(-0.67 -1.81)"/>
      <path class="cls-1" d="M278.89,49.69v2.05H277V49.69Z" transform="translate(-0.67 -1.81)"/>
      <path class="cls-1" d="M282.56,46.47a2.73,2.73,0,0,1-1.87-2.55,2.65,2.65,0,0,1,1-2.16,5.31,5.31,0,0,1,5.62-.09,2.38,2.38,0,0,1,1,2c0,1-.64,1.78-1.9,2.31,1.55.66,2.32,1.6,2.32,2.8A2.7,2.7,0,0,1,287.63,51a5.06,5.06,0,0,1-3.13.88,5.12,5.12,0,0,1-3.14-.81A2.52,2.52,0,0,1,280.3,49C280.3,47.86,281.06,47,282.56,46.47Zm1.32.64a3.17,3.17,0,0,0-1.26.77,1.57,1.57,0,0,0-.47,1.06,1.37,1.37,0,0,0,.6,1.07,3.52,3.52,0,0,0,3.46.09,1.17,1.17,0,0,0,.11-2A9.19,9.19,0,0,0,283.88,47.11Zm1.26-1.67c1-.41,1.48-1,1.48-1.7a1.24,1.24,0,0,0-.6-1.1,2.54,2.54,0,0,0-1.4-.39,2.68,2.68,0,0,0-1.41.35,1.12,1.12,0,0,0-.59,1,1.17,1.17,0,0,0,.65,1.07A10.2,10.2,0,0,0,285.14,45.44Z" transform="translate(-0.67 -1.81)"/>
      <path class="cls-1" d="M292.6,47V45.51h1a2.58,2.58,0,0,0,1.46-.39,1.3,1.3,0,0,0,.58-1.16,1.34,1.34,0,0,0-.49-1.14,2,2,0,0,0-1.28-.38A2.13,2.13,0,0,0,291.7,44l-1.76-.3a3.35,3.35,0,0,1,1.38-2,4.66,4.66,0,0,1,5.16,0,2.45,2.45,0,0,1,1.07,2.08,2.52,2.52,0,0,1-.58,1.66,2,2,0,0,1-1.42.75,2.73,2.73,0,0,1,1.69.86,2.52,2.52,0,0,1,.63,1.72,2.77,2.77,0,0,1-1.1,2.26,4.58,4.58,0,0,1-2.94.88A4.37,4.37,0,0,1,291,51a3.64,3.64,0,0,1-1.4-2l1.82-.45a2.5,2.5,0,0,0,3.87,1.31,1.45,1.45,0,0,0,.58-1.16,1.71,1.71,0,0,0-.5-1.21,2,2,0,0,0-1.49-.52Z" transform="translate(-0.67 -1.81)"/>
      <path class="cls-1" d="M303.29,51.9a3.44,3.44,0,0,1-3-1.52,6.57,6.57,0,0,1-1.07-3.86,6.74,6.74,0,0,1,1.12-4.07,3.48,3.48,0,0,1,3-1.54,3.62,3.62,0,0,1,2.29.72,4.34,4.34,0,0,1,1.39,2,7.35,7.35,0,0,1,.46,2.41,9.49,9.49,0,0,1-.43,3.09,4.46,4.46,0,0,1-1.37,2A3.54,3.54,0,0,1,303.29,51.9Zm0-1.5a1.78,1.78,0,0,0,1.31-.5,2.64,2.64,0,0,0,.68-1.4,13.37,13.37,0,0,0,.18-2.49,7,7,0,0,0-.44-2.49,1.66,1.66,0,0,0-1.69-1.18q-2.18,0-2.17,4a7.72,7.72,0,0,0,.46,2.93A1.67,1.67,0,0,0,303.28,50.4Z" transform="translate(-0.67 -1.81)"/>
      <path class="cls-1" d="M314.45,54.4h-1.22V43.85h1.11v1.53a2.69,2.69,0,0,1,4.74-.58,4.9,4.9,0,0,1,.86,3,4.82,4.82,0,0,1-.89,3.06A2.72,2.72,0,0,1,316.79,52a2.61,2.61,0,0,1-2.34-1.42Zm0-7.75v2.23a2.34,2.34,0,0,0,.76,1.48,2,2,0,0,0,1.34.58,1.85,1.85,0,0,0,1.42-.7,3.66,3.66,0,0,0,.62-2.43,4,4,0,0,0-.56-2.3,1.73,1.73,0,0,0-1.49-.81,1.85,1.85,0,0,0-1.32.57A2.79,2.79,0,0,0,314.45,46.65Z" transform="translate(-0.67 -1.81)"/>
      <path class="cls-1" d="M327,49.39l1.14.23a3.2,3.2,0,0,1-1.21,1.68,3.55,3.55,0,0,1-2.14.66,3.29,3.29,0,0,1-2.61-1.14,4.33,4.33,0,0,1-1-3,4.42,4.42,0,0,1,1-3.05,3.39,3.39,0,0,1,2.61-1.16,3.16,3.16,0,0,1,2.49,1.07,4.81,4.81,0,0,1,1,3.2h-5.74a3.07,3.07,0,0,0,.75,2.42,2.48,2.48,0,0,0,1.59.62A2.17,2.17,0,0,0,327,49.39Zm-.07-2.4a3.31,3.31,0,0,0-.22-1.18,2,2,0,0,0-.68-.88,1.91,1.91,0,0,0-1.17-.36,2.11,2.11,0,0,0-1.55.65,2.74,2.74,0,0,0-.71,1.77Z" transform="translate(-0.67 -1.81)"/>
      <path class="cls-1" d="M331.33,51.74H330.1V43.85h1.08v1.84A4,4,0,0,1,332.32,44a2.1,2.1,0,0,1,1.18-.39l.48,0v1.17h-.25a2.13,2.13,0,0,0-1.68.76,3,3,0,0,0-.72,2Z" transform="translate(-0.67 -1.81)"/>
      <path class="cls-1" d="M334.41,49.69l1.17-.24c.26,1,1.08,1.49,2.47,1.49a2.3,2.3,0,0,0,1.29-.34,1.08,1.08,0,0,0,.53-1c0-.62-.45-1-1.35-1.18l-1.66-.31a3.08,3.08,0,0,1-1.56-.74,1.89,1.89,0,0,1-.57-1.44,2.07,2.07,0,0,1,.79-1.66,3.13,3.13,0,0,1,2.12-.67c1.71,0,2.77.67,3.17,2l-1.12.24a1.94,1.94,0,0,0-2-1.23,2.29,2.29,0,0,0-1.23.3,1,1,0,0,0-.48.87c0,.58.41,1,1.23,1.1l1.54.27c1.61.29,2.41,1.08,2.41,2.34a2.11,2.11,0,0,1-.89,1.76,3.9,3.9,0,0,1-2.4.67C336,52,334.85,51.2,334.41,49.69Z" transform="translate(-0.67 -1.81)"/>
      <path class="cls-1" d="M345.72,52a3,3,0,0,1-2.54-1.21,4.82,4.82,0,0,1-.91-3,4.26,4.26,0,0,1,1-3,3.3,3.3,0,0,1,2.54-1.13,3.15,3.15,0,0,1,2.58,1.18,4.6,4.6,0,0,1,.94,3,4.42,4.42,0,0,1-1,3A3.3,3.3,0,0,1,345.72,52Zm.09-1a1.93,1.93,0,0,0,1.57-.77,3.79,3.79,0,0,0,.64-2.41,3.54,3.54,0,0,0-.67-2.38,2,2,0,0,0-1.55-.73,2,2,0,0,0-1.55.74,3.65,3.65,0,0,0-.63,2.37,3.74,3.74,0,0,0,.63,2.44A2,2,0,0,0,345.81,50.94Z" transform="translate(-0.67 -1.81)"/>
      <path class="cls-1" d="M357.42,51.74h-1.15V46.67a2.08,2.08,0,0,0-.47-1.54,1.63,1.63,0,0,0-1.16-.44,2,2,0,0,0-1.57.75,2.9,2.9,0,0,0-.64,2v4.33H351.2V43.85h1.14V45.3a2.85,2.85,0,0,1,2.5-1.67,2.43,2.43,0,0,1,1.5.46,2.38,2.38,0,0,1,.85,1,6.42,6.42,0,0,1,.23,2.07Z" transform="translate(-0.67 -1.81)"/>
      <path class="cls-1" d="M366.05,51.74h-1.21a13.59,13.59,0,0,1-.15-1.42A2.84,2.84,0,0,1,361.93,52a2.76,2.76,0,0,1-2-.71,2.3,2.3,0,0,1-.71-1.69,2.37,2.37,0,0,1,1-2,5.83,5.83,0,0,1,3.46-.77l1,0a4.47,4.47,0,0,0-.14-1.36,1.23,1.23,0,0,0-.61-.67,2.76,2.76,0,0,0-1.24-.25c-1.24,0-2,.48-2.17,1.43l-1.13-.2c.27-1.45,1.44-2.18,3.48-2.18a3.11,3.11,0,0,1,2.32.72,3.66,3.66,0,0,1,.68,2.51v3.35A6.57,6.57,0,0,0,366.05,51.74Zm-1.36-4c-.5,0-.88,0-1.14,0a4.4,4.4,0,0,0-2.25.48,1.51,1.51,0,0,0-.81,1.39,1.32,1.32,0,0,0,.44,1,1.74,1.74,0,0,0,1.25.4,2.33,2.33,0,0,0,1.82-.8,2.76,2.76,0,0,0,.72-1.9C364.72,48.17,364.71,48,364.69,47.79Z" transform="translate(-0.67 -1.81)"/>
      <path class="cls-1" d="M367.27,49.69l1.17-.24c.27,1,1.09,1.49,2.47,1.49a2.33,2.33,0,0,0,1.3-.34,1.1,1.1,0,0,0,.53-1c0-.62-.45-1-1.35-1.18l-1.66-.31a3,3,0,0,1-1.56-.74,1.9,1.9,0,0,1-.58-1.44,2.1,2.1,0,0,1,.79-1.66,3.18,3.18,0,0,1,2.13-.67c1.71,0,2.77.67,3.17,2l-1.13.24a1.92,1.92,0,0,0-2-1.23,2.29,2.29,0,0,0-1.23.3,1,1,0,0,0-.48.87c0,.58.41,1,1.23,1.1l1.54.27c1.61.29,2.41,1.08,2.41,2.34a2.09,2.09,0,0,1-.9,1.76,3.87,3.87,0,0,1-2.39.67C368.87,52,367.72,51.2,367.27,49.69Z" transform="translate(-0.67 -1.81)"/>
    </g>
    <g>
      <path class="cls-1" d="M8.77,121v1.66H.92v-1.87l3.26-2.17a7.39,7.39,0,0,0,2.05-1.8,2.62,2.62,0,0,0,.52-1.44,1.81,1.81,0,0,0-1.88-1.87c-1.22,0-1.92.74-2.1,2.23l-1.85-.46a4.16,4.16,0,0,1,1.26-2.44,3.82,3.82,0,0,1,2.75-1,3.91,3.91,0,0,1,2.82,1,3.39,3.39,0,0,1,1.06,2.55,3.64,3.64,0,0,1-.94,2.44A20.92,20.92,0,0,1,3.22,121Z" transform="translate(-0.67 -1.81)"/>
      <path class="cls-1" d="M14.3,122.81a3.48,3.48,0,0,1-3-1.51,7.78,7.78,0,0,1,.06-7.94,3.5,3.5,0,0,1,3-1.54,3.57,3.57,0,0,1,2.29.73,4.26,4.26,0,0,1,1.39,2,7.35,7.35,0,0,1,.46,2.41,9.49,9.49,0,0,1-.43,3.09,4.54,4.54,0,0,1-1.37,2A3.56,3.56,0,0,1,14.3,122.81Zm0-1.5a1.78,1.78,0,0,0,1.31-.5,2.64,2.64,0,0,0,.68-1.4,13.37,13.37,0,0,0,.18-2.49,7.17,7.17,0,0,0-.44-2.49,1.67,1.67,0,0,0-1.69-1.18q-2.17,0-2.17,4a7.72,7.72,0,0,0,.46,2.93A1.67,1.67,0,0,0,14.29,121.31Z" transform="translate(-0.67 -1.81)"/>
      <path class="cls-1" d="M27.87,122.65H19.7v-1.57h3.22v-6.73A10.67,10.67,0,0,1,20,116.27v-1.92a10.82,10.82,0,0,0,1.67-.73,7.32,7.32,0,0,0,1-.79,4.26,4.26,0,0,0,.91-1.06h1.28v9.31h3Z" transform="translate(-0.67 -1.81)"/>
      <path class="cls-1" d="M29.69,112h6.63l-.17,1.65h-5l-.3,3.09a3,3,0,0,1,2.51-1.23,3.54,3.54,0,0,1,2.59,1.06A3.45,3.45,0,0,1,37,119.09a3.56,3.56,0,0,1-1.11,2.62,4.1,4.1,0,0,1-3,1.1,5,5,0,0,1-2.7-.71,3.35,3.35,0,0,1-1.49-2.21l1.84-.27a2.17,2.17,0,0,0,2.24,1.63,2.07,2.07,0,0,0,1.62-.63,2.19,2.19,0,0,0,.56-1.53,2.13,2.13,0,0,0-.56-1.51,1.91,1.91,0,0,0-1.46-.61,2.25,2.25,0,0,0-2.06,1.24l-1.72-.33Z" transform="translate(-0.67 -1.81)"/>
    </g>
    <line class="cls-3" x1="51.52" y1="79.15" x2="45.62" y2="79.15"/>
    <line class="cls-3" x1="419.35" y1="79.15" x2="332.86" y2="79.15"/>
    <rect class="cls-4" x="125.84" y="72.61" width="19.3" height="166.6" transform="translate(290.73 18.61) rotate(90)"/>
    <g>
      <line class="cls-3" x1="419.35" y1="116.63" x2="45.62" y2="116.63"/>
      <rect class="cls-5" x="221.53" y="-60.56" width="19.3" height="357.99" transform="translate(348.95 -114.55) rotate(90)"/>
    </g>
    <line class="cls-3" x1="51.52" y1="154.14" x2="45.62" y2="154.14"/>
    <line class="cls-3" x1="419.35" y1="154.14" x2="218.12" y2="154.14"/>
    <rect class="cls-4" x="183.21" y="-59.71" width="19.3" height="281.35" transform="translate(273.15 -113.71) rotate(90)"/>
  </g>
</svg>
