<?xml version="1.0" encoding="utf-8"?>
<!-- Generator: Adobe Illustrator 24.0.2, SVG Export Plug-In . SVG Version: 6.00 Build 0)  -->
<svg version="1.1" id="Capa_1" xmlns="http://www.w3.org/2000/svg" xmlns:xlink="http://www.w3.org/1999/xlink" x="0px" y="0px"
	 viewBox="0 0 490.1 166" style="enable-background:new 0 0 490.1 166;" xml:space="preserve">
<style type="text/css">
	.st0{fill:#DCDCDC;}
	.st1{opacity:0.7;fill:none;stroke:#DCDCDC;stroke-miterlimit:10;enable-background:new    ;}
	.st2{fill:none;}
	.st3{fill:none;stroke:#DCDCDC;stroke-width:0.8178;stroke-miterlimit:10;}
	.st4{fill:#F6F4CD;}
	.st5{fill:#CB7E42;}
</style>
<g>
	<g>
		<path class="st0" d="M8.5,82.6v1.7H0.7v-1.9L4,80.2c1-0.7,1.7-1.3,2-1.8s0.5-1,0.5-1.4c0-0.5-0.2-1-0.5-1.3s-0.8-0.5-1.4-0.5
			c-1.2,0-1.9,0.7-2.1,2.2l-1.9-0.5c0.1-0.9,0.6-1.8,1.3-2.4c0.7-0.7,1.6-1,2.8-1s2.1,0.3,2.8,1s1.1,1.5,1.1,2.6
			c0,0.9-0.3,1.7-0.9,2.4C7,80.1,5.5,81.2,3,82.6H8.5z"/>
		<path class="st0" d="M14.1,84.4c-1.3,0-2.3-0.5-3-1.5S10,80.6,10,79c0-1.7,0.4-3,1.1-4.1c0.7-1,1.7-1.5,3-1.5
			c0.9,0,1.7,0.2,2.3,0.7c0.6,0.5,1.1,1.2,1.4,2c0.3,0.9,0.5,1.7,0.5,2.4c0,1.3-0.1,2.3-0.4,3.1s-0.7,1.5-1.4,2
			C15.8,84.1,15,84.4,14.1,84.4z M14,82.9c0.5,0,1-0.2,1.3-0.5s0.6-0.8,0.7-1.4c0.1-0.6,0.2-1.4,0.2-2.5c0-0.9-0.1-1.7-0.4-2.5
			c-0.3-0.8-0.9-1.2-1.7-1.2c-1.4,0-2.2,1.3-2.2,4c0,1.2,0.2,2.2,0.5,2.9C12.7,82.5,13.2,82.9,14,82.9z"/>
		<path class="st0" d="M27.3,82.6v1.7h-7.9v-1.9l3.3-2.2c1-0.7,1.7-1.3,2-1.8s0.5-1,0.5-1.4c0-0.5-0.2-1-0.5-1.3s-0.8-0.5-1.4-0.5
			c-1.2,0-1.9,0.7-2.1,2.2l-1.9-0.5c0.1-0.9,0.6-1.8,1.3-2.4c0.7-0.7,1.6-1,2.8-1c1.2,0,2.1,0.3,2.8,1c0.7,0.7,1.1,1.5,1.1,2.6
			c0,0.9-0.3,1.7-0.9,2.4c-0.6,0.7-2.2,1.8-4.6,3.2L27.3,82.6L27.3,82.6z"/>
		<path class="st0" d="M32.8,84.4c-1.3,0-2.3-0.5-3-1.5s-1.1-2.3-1.1-3.9c0-1.7,0.4-3,1.1-4.1c0.7-1,1.7-1.5,3-1.5
			c0.9,0,1.7,0.2,2.3,0.7s1.1,1.2,1.4,2c0.3,0.9,0.5,1.7,0.5,2.4c0,1.3-0.1,2.3-0.4,3.1s-0.7,1.5-1.4,2
			C34.5,84.1,33.8,84.4,32.8,84.4z M32.8,82.9c0.5,0,1-0.2,1.3-0.5s0.6-0.8,0.7-1.4c0.1-0.6,0.2-1.4,0.2-2.5c0-0.9-0.1-1.7-0.4-2.5
			c-0.3-0.8-0.9-1.2-1.7-1.2c-1.4,0-2.2,1.3-2.2,4c0,1.2,0.2,2.2,0.5,2.9C31.4,82.5,32,82.9,32.8,82.9z"/>
	</g>
	<g>
		<path class="st0" d="M8.5,159.4v1.7H0.7v-1.9L4,157c1-0.7,1.7-1.3,2-1.8s0.5-1,0.5-1.4c0-0.5-0.2-1-0.5-1.3S5.2,152,4.6,152
			c-1.2,0-1.9,0.7-2.1,2.2l-1.9-0.5c0.1-0.9,0.6-1.8,1.3-2.4c0.7-0.7,1.6-1,2.8-1s2.1,0.3,2.8,1s1.1,1.5,1.1,2.6
			c0,0.9-0.3,1.7-0.9,2.4C7,156.9,5.5,158,3,159.4H8.5z"/>
		<path class="st0" d="M14.1,161.2c-1.3,0-2.3-0.5-3-1.5s-1.1-2.3-1.1-3.9c0-1.7,0.4-3,1.1-4.1c0.7-1,1.7-1.5,3-1.5
			c0.9,0,1.7,0.2,2.3,0.7c0.6,0.5,1.1,1.2,1.4,2c0.3,0.9,0.5,1.7,0.5,2.4c0,1.3-0.1,2.3-0.4,3.1s-0.7,1.5-1.4,2
			C15.8,161,15,161.2,14.1,161.2z M14,159.7c0.5,0,1-0.2,1.3-0.5s0.6-0.8,0.7-1.4c0.1-0.6,0.2-1.4,0.2-2.5c0-0.9-0.1-1.7-0.4-2.5
			c-0.3-0.8-0.9-1.2-1.7-1.2c-1.4,0-2.2,1.3-2.2,4c0,1.2,0.2,2.2,0.5,2.9C12.7,159.3,13.2,159.7,14,159.7z"/>
		<path class="st0" d="M23.4,161.2c-1.3,0-2.3-0.5-3-1.5s-1.1-2.3-1.1-3.9c0-1.7,0.4-3,1.1-4.1c0.7-1,1.7-1.5,3-1.5
			c0.9,0,1.7,0.2,2.3,0.7c0.6,0.5,1.1,1.2,1.4,2c0.3,0.9,0.5,1.7,0.5,2.4c0,1.3-0.1,2.3-0.4,3.1s-0.7,1.5-1.4,2
			C25.2,161,24.4,161.2,23.4,161.2z M23.4,159.7c0.5,0,1-0.2,1.3-0.5s0.6-0.8,0.7-1.4c0.1-0.6,0.2-1.4,0.2-2.5
			c0-0.9-0.1-1.7-0.4-2.5s-0.9-1.2-1.7-1.2c-1.4,0-2.2,1.3-2.2,4c0,1.2,0.2,2.2,0.5,2.9C22.1,159.3,22.6,159.7,23.4,159.7z"/>
		<path class="st0" d="M29.1,159.1l1.6-0.5c0.4,0.7,1,1.1,1.8,1.1s1.4-0.4,1.9-1.1c0.4-0.7,0.7-1.8,0.7-3.1
			c-0.4,0.7-0.8,1.2-1.3,1.4s-1,0.3-1.5,0.3c-1,0-1.8-0.3-2.5-0.9c-0.7-0.6-1-1.5-1-2.5s0.3-1.9,1-2.6s1.6-1,2.8-1
			c1.3,0,2.4,0.4,3.2,1.3s1.2,2.2,1.2,3.9s-0.4,3.1-1.2,4.2s-1.9,1.6-3.3,1.6c-0.9,0-1.6-0.2-2.2-0.6
			C29.7,160.2,29.3,159.7,29.1,159.1z M32.6,155.7c0.6,0,1.1-0.2,1.5-0.5c0.4-0.4,0.6-0.9,0.6-1.6c0-0.5-0.2-0.9-0.6-1.3
			c-0.4-0.4-0.9-0.6-1.5-0.6c-0.6,0-1.1,0.2-1.5,0.6c-0.4,0.4-0.6,0.9-0.6,1.4s0.2,1,0.5,1.4C31.4,155.5,31.9,155.7,32.6,155.7z"/>
	</g>
	<path class="st1" d="M354.7,63.4c0,0,19.9,2.6,31.2,13.3c9.6,9.1,6.1,26.6,6.1,26.6"/>
	<g>
		<rect x="257.2" y="2.7" class="st2" width="232.9" height="60.7"/>
		<path class="st0" d="M265.5,12.2v1.2h-6.9V2.7h6.8v1.2H260v3.4h4.3v1.1H260v3.8C260,12.2,265.5,12.2,265.5,12.2z"/>
		<path class="st0" d="M268.5,13.3h-1.2V2.7h1.2V13.3z"/>
		<path class="st0" d="M281.1,13.3h-1.2c0-0.3-0.1-0.7-0.1-1.4c-0.5,1.1-1.5,1.6-2.8,1.6c-0.9,0-1.6-0.2-2-0.7
			c-0.5-0.5-0.7-1-0.7-1.7c0-0.8,0.3-1.5,1-2s1.8-0.8,3.5-0.8c0.2,0,0.6,0,1,0c0-0.6,0-1.1-0.1-1.4s-0.3-0.5-0.6-0.7
			c-0.3-0.2-0.7-0.3-1.2-0.3c-1.2,0-2,0.5-2.2,1.4l-1.1-0.2c0.3-1.5,1.4-2.2,3.5-2.2c1.1,0,1.9,0.2,2.3,0.7c0.5,0.5,0.7,1.3,0.7,2.5
			v3.4C280.9,12.4,281,12.9,281.1,13.3z M279.7,9.4c-0.5,0-0.9,0-1.1,0c-1,0-1.7,0.2-2.3,0.5s-0.8,0.8-0.8,1.4c0,0.4,0.1,0.7,0.4,1
			s0.7,0.4,1.3,0.4c0.7,0,1.3-0.3,1.8-0.8s0.7-1.2,0.7-1.9C279.7,9.8,279.7,9.6,279.7,9.4z"/>
		<path class="st0" d="M289.6,13.3h-1.1v-5c0-0.7-0.2-1.2-0.5-1.5s-0.7-0.4-1.2-0.4c-0.6,0-1.1,0.3-1.6,0.8s-0.6,1.2-0.6,2v4.3h-1.2
			V5.4h1.1v1.5c0.6-1.1,1.5-1.7,2.5-1.7c0.6,0,1.1,0.2,1.5,0.5s0.7,0.6,0.9,1c0.2,0.4,0.2,1.1,0.2,2.1L289.6,13.3L289.6,13.3z
			 M288.6,2.6l0.6,0.6c-0.6,0.5-1.1,0.8-1.6,0.8c-0.3,0-0.6-0.1-1-0.3c-0.5-0.2-0.8-0.3-1-0.3c-0.4,0-0.8,0.2-1.1,0.5l-0.7-0.5
			c0.5-0.7,1-1,1.8-1c0.2,0,0.6,0.1,1,0.3c0.5,0.2,0.8,0.3,1,0.3C287.9,3,288.3,2.8,288.6,2.6z"/>
		<path class="st0" d="M294.9,13.6c-1.1,0-1.9-0.4-2.5-1.2s-0.9-1.8-0.9-3c0-1.3,0.3-2.3,1-3c0.7-0.8,1.5-1.1,2.5-1.1
			c1.1,0,1.9,0.4,2.6,1.2c0.6,0.8,0.9,1.8,0.9,3s-0.3,2.2-1,3S295.9,13.6,294.9,13.6z M295,12.5c0.6,0,1.1-0.3,1.6-0.8
			s0.6-1.3,0.6-2.4s-0.2-1.9-0.7-2.4s-1-0.7-1.6-0.7s-1.1,0.2-1.5,0.7s-0.6,1.3-0.6,2.4s0.2,2,0.6,2.4S294.3,12.5,295,12.5z"/>
		<path class="st0" d="M309,10.6l1.1,0.2c-0.2,0.9-0.5,1.6-1,2s-1.2,0.7-2,0.7c-1.1,0-1.9-0.4-2.5-1.2s-0.9-1.8-0.9-2.9
			c0-1.2,0.3-2.2,0.9-3s1.4-1.2,2.5-1.2c0.9,0,1.5,0.3,2.1,0.8c0.5,0.5,0.8,1.2,1,2L309,8.2c-0.2-1.3-0.8-2-1.9-2
			c-0.7,0-1.2,0.3-1.6,0.9S305,8.4,305,9.3c0,1,0.2,1.8,0.5,2.4c0.4,0.6,0.9,0.8,1.5,0.8C308.1,12.5,308.7,11.9,309,10.6z"/>
		<path class="st0" d="M314.6,13.6c-1.1,0-1.9-0.4-2.5-1.2s-0.9-1.8-0.9-3c0-1.3,0.3-2.3,1-3c0.7-0.8,1.5-1.1,2.5-1.1
			c1.1,0,1.9,0.4,2.6,1.2c0.6,0.8,0.9,1.8,0.9,3s-0.3,2.2-1,3S315.7,13.6,314.6,13.6z M314.7,12.5c0.6,0,1.1-0.3,1.6-0.8
			s0.6-1.3,0.6-2.4s-0.2-1.9-0.7-2.4s-1-0.7-1.6-0.7s-1.1,0.2-1.5,0.7s-0.6,1.3-0.6,2.4s0.2,2,0.6,2.4S314.1,12.5,314.7,12.5z"/>
		<path class="st0" d="M326.3,13.3h-1.1v-5c0-0.7-0.2-1.2-0.5-1.5s-0.7-0.4-1.2-0.4c-0.6,0-1.1,0.3-1.6,0.8s-0.6,1.2-0.6,2v4.3h-1.2
			V5.4h1.1v1.5c0.6-1.1,1.5-1.7,2.5-1.7c0.6,0,1.1,0.2,1.5,0.5s0.7,0.6,0.9,1c0.2,0.4,0.2,1.1,0.2,2.1L326.3,13.3L326.3,13.3z"/>
		<path class="st0" d="M343.4,13.3h-1.2V8.4c0-0.5,0-0.9-0.1-1.1c-0.1-0.3-0.2-0.5-0.5-0.7s-0.6-0.3-0.9-0.3c-0.5,0-0.9,0.2-1.4,0.6
			s-0.7,1.1-0.7,2v4.4h-1.2V8.1c0-0.7-0.2-1.2-0.5-1.5s-0.7-0.4-1-0.4c-0.5,0-1,0.2-1.4,0.7c-0.4,0.4-0.6,1-0.6,1.7v4.7h-1.2V5.4
			h1.1V7c0.6-1.2,1.4-1.7,2.4-1.7c0.6,0,1,0.2,1.4,0.6s0.7,0.8,0.8,1.3c0.5-1.3,1.4-1.9,2.5-1.9c0.5,0,1,0.2,1.4,0.5
			s0.7,0.7,0.8,1.1s0.2,1,0.2,1.7v4.7H343.4z"/>
		<path class="st0" d="M352,13.3h-1.2c0-0.3-0.1-0.7-0.1-1.4c-0.5,1.1-1.5,1.6-2.8,1.6c-0.9,0-1.6-0.2-2-0.7c-0.5-0.5-0.7-1-0.7-1.7
			c0-0.8,0.3-1.5,1-2s1.8-0.8,3.5-0.8c0.2,0,0.6,0,1,0c0-0.6,0-1.1-0.1-1.4s-0.3-0.5-0.6-0.7c-0.3-0.2-0.7-0.3-1.2-0.3
			c-1.2,0-2,0.5-2.2,1.4l-1.1-0.2c0.3-1.5,1.4-2.2,3.5-2.2c1.1,0,1.9,0.2,2.3,0.7c0.5,0.5,0.7,1.3,0.7,2.5v3.4
			C351.8,12.4,351.9,12.9,352,13.3z M350.6,9.4c-0.5,0-0.9,0-1.1,0c-1,0-1.7,0.2-2.3,0.5s-0.8,0.8-0.8,1.4c0,0.4,0.1,0.7,0.4,1
			s0.7,0.4,1.3,0.4c0.7,0,1.3-0.3,1.8-0.8s0.7-1.2,0.7-1.9C350.7,9.8,350.6,9.6,350.6,9.4z M351.1,2.7l-3.2,1.5l-0.3-0.6l3.1-1.8
			L351.1,2.7z"/>
		<path class="st0" d="M353.2,11.3l1.2-0.2c0.3,1,1.1,1.5,2.5,1.5c0.5,0,0.9-0.1,1.3-0.3s0.5-0.6,0.5-1c0-0.6-0.5-1-1.4-1.2
			l-1.7-0.3c-0.7-0.1-1.2-0.4-1.6-0.7c-0.4-0.4-0.6-0.8-0.6-1.4c0-0.7,0.3-1.2,0.8-1.7s1.2-0.7,2.1-0.7c1.7,0,2.8,0.7,3.2,2
			l-1.1,0.2c-0.3-0.8-1-1.2-2-1.2c-0.5,0-0.9,0.1-1.2,0.3s-0.5,0.5-0.5,0.9c0,0.6,0.4,0.9,1.2,1.1l1.5,0.3c1.6,0.3,2.4,1.1,2.4,2.3
			c0,0.7-0.3,1.3-0.9,1.8c-0.6,0.4-1.4,0.7-2.4,0.7C354.8,13.6,353.7,12.8,353.2,11.3z"/>
		<path class="st0" d="M364.6,11.3l1.2-0.2c0.3,1,1.1,1.5,2.5,1.5c0.5,0,0.9-0.1,1.3-0.3s0.5-0.6,0.5-1c0-0.6-0.5-1-1.4-1.2L367,9.8
			c-0.7-0.1-1.2-0.4-1.6-0.7c-0.4-0.4-0.6-0.8-0.6-1.4c0-0.7,0.3-1.2,0.8-1.7s1.2-0.7,2.1-0.7c1.7,0,2.8,0.7,3.2,2l-1.1,0.2
			c-0.3-0.8-1-1.2-2-1.2c-0.5,0-0.9,0.1-1.2,0.3s-0.5,0.5-0.5,0.9c0,0.6,0.4,0.9,1.2,1.1l1.5,0.3c1.6,0.3,2.4,1.1,2.4,2.3
			c0,0.7-0.3,1.3-0.9,1.8c-0.6,0.4-1.4,0.7-2.4,0.7C366.2,13.6,365.1,12.8,364.6,11.3z"/>
		<path class="st0" d="M379.3,13.3h-1.2c0-0.3-0.1-0.7-0.1-1.4c-0.5,1.1-1.5,1.6-2.8,1.6c-0.9,0-1.6-0.2-2-0.7
			c-0.5-0.5-0.7-1-0.7-1.7c0-0.8,0.3-1.5,1-2s1.8-0.8,3.5-0.8c0.2,0,0.6,0,1,0c0-0.6,0-1.1-0.1-1.4s-0.3-0.5-0.6-0.7
			c-0.3-0.2-0.7-0.3-1.2-0.3c-1.2,0-2,0.5-2.2,1.4l-1.1-0.2c0.3-1.5,1.4-2.2,3.5-2.2c1.1,0,1.9,0.2,2.3,0.7c0.5,0.5,0.7,1.3,0.7,2.5
			v3.4C379.1,12.4,379.2,12.9,379.3,13.3z M377.9,9.4c-0.5,0-0.9,0-1.1,0c-1,0-1.7,0.2-2.3,0.5s-0.8,0.8-0.8,1.4
			c0,0.4,0.1,0.7,0.4,1s0.7,0.4,1.3,0.4c0.7,0,1.3-0.3,1.8-0.8s0.7-1.2,0.7-1.9C378,9.8,378,9.6,377.9,9.4z"/>
		<path class="st0" d="M382.8,13.3h-1.2V2.7h1.2V13.3z"/>
		<path class="st0" d="M386.5,2.7V4h-1.3V2.7H386.5z M386.5,5.4v7.9h-1.2V5.4H386.5z"/>
		<path class="st0" d="M395.1,2.7v10.7H394V12c-0.6,1-1.4,1.6-2.5,1.6c-0.9,0-1.7-0.4-2.3-1.2c-0.6-0.8-0.9-1.8-0.9-2.9
			c0-1.2,0.3-2.2,0.9-3s1.4-1.2,2.3-1.2s1.7,0.4,2.3,1.3V2.7H395.1z M393.9,8.5c0-0.7-0.2-1.2-0.6-1.7c-0.4-0.4-0.9-0.6-1.5-0.6
			s-1.1,0.3-1.5,0.8s-0.6,1.3-0.6,2.3c0,1.1,0.2,1.9,0.5,2.4c0.4,0.6,0.9,0.8,1.5,0.8s1.1-0.2,1.5-0.7s0.7-1,0.7-1.7V8.5z"/>
		<path class="st0" d="M403.7,13.3h-1.2c0-0.3-0.1-0.7-0.1-1.4c-0.5,1.1-1.5,1.6-2.8,1.6c-0.9,0-1.6-0.2-2-0.7
			c-0.5-0.5-0.7-1-0.7-1.7c0-0.8,0.3-1.5,1-2s1.8-0.8,3.5-0.8c0.2,0,0.6,0,1,0c0-0.6,0-1.1-0.1-1.4s-0.3-0.5-0.6-0.7
			c-0.3-0.2-0.7-0.3-1.2-0.3c-1.2,0-2,0.5-2.2,1.4l-1.1-0.2c0.3-1.5,1.4-2.2,3.5-2.2c1.1,0,1.9,0.2,2.3,0.7c0.5,0.5,0.7,1.3,0.7,2.5
			v3.4C403.6,12.4,403.6,12.9,403.7,13.3z M402.4,9.4c-0.5,0-0.9,0-1.1,0c-1,0-1.7,0.2-2.3,0.5s-0.8,0.8-0.8,1.4
			c0,0.4,0.1,0.7,0.4,1s0.7,0.4,1.3,0.4c0.7,0,1.3-0.3,1.8-0.8s0.7-1.2,0.7-1.9C402.4,9.8,402.4,9.6,402.4,9.4z"/>
		<path class="st0" d="M404.9,11.3l1.2-0.2c0.3,1,1.1,1.5,2.5,1.5c0.5,0,0.9-0.1,1.3-0.3s0.5-0.6,0.5-1c0-0.6-0.5-1-1.4-1.2
			l-1.7-0.3c-0.7-0.1-1.2-0.4-1.6-0.7c-0.4-0.4-0.6-0.8-0.6-1.4c0-0.7,0.3-1.2,0.8-1.7s1.2-0.7,2.1-0.7c1.7,0,2.8,0.7,3.2,2
			l-1.1,0.2c-0.3-0.8-1-1.2-2-1.2c-0.5,0-0.9,0.1-1.2,0.3s-0.5,0.5-0.5,0.9c0,0.6,0.4,0.9,1.2,1.1l1.5,0.3c1.6,0.3,2.4,1.1,2.4,2.3
			c0,0.7-0.3,1.3-0.9,1.8c-0.6,0.4-1.4,0.7-2.4,0.7C406.5,13.6,405.4,12.8,404.9,11.3z"/>
		<path class="st0" d="M423.6,13.3h-1.2c0-0.3-0.1-0.7-0.1-1.4c-0.5,1.1-1.5,1.6-2.8,1.6c-0.9,0-1.6-0.2-2-0.7
			c-0.5-0.5-0.7-1-0.7-1.7c0-0.8,0.3-1.5,1-2s1.8-0.8,3.5-0.8c0.2,0,0.6,0,1,0c0-0.6,0-1.1-0.1-1.4s-0.3-0.5-0.6-0.7
			c-0.3-0.2-0.7-0.3-1.2-0.3c-1.2,0-2,0.5-2.2,1.4L417,7.4c0.3-1.5,1.4-2.2,3.5-2.2c1.1,0,1.9,0.2,2.3,0.7c0.5,0.5,0.7,1.3,0.7,2.5
			v3.4C423.4,12.4,423.5,12.9,423.6,13.3z M422.2,9.4c-0.5,0-0.9,0-1.1,0c-1,0-1.7,0.2-2.3,0.5s-0.8,0.8-0.8,1.4
			c0,0.4,0.1,0.7,0.4,1s0.7,0.4,1.3,0.4c0.7,0,1.3-0.3,1.8-0.8s0.7-1.2,0.7-1.9C422.3,9.8,422.3,9.6,422.2,9.4z"/>
		<path class="st0" d="M427.1,13.3h-1.2V2.7h1.2V13.3z"/>
		<path class="st0" d="M438.4,10.8L440,11c-0.2,0.7-0.6,1.3-1.2,1.8s-1.4,0.7-2.3,0.7c-1.1,0-2-0.4-2.6-1.1s-1-1.7-1-3
			c0-1.2,0.3-2.2,1-3s1.6-1.2,2.7-1.2s2,0.4,2.6,1.2s0.9,1.8,0.9,3v0.2h-5.4c0,0.5,0.1,1,0.2,1.3s0.3,0.6,0.6,0.8
			c0.3,0.2,0.7,0.4,1.1,0.4C437.5,12.1,438.1,11.7,438.4,10.8z M438.3,8.5c0-0.6-0.2-1-0.5-1.4s-0.8-0.5-1.2-0.5
			c-0.5,0-0.9,0.2-1.2,0.5s-0.5,0.8-0.6,1.4H438.3z"/>
		<path class="st0" d="M447.6,13.3h-2l-1.7-2.9l-1.8,2.9h-1.5l2.6-4.1l-2.3-3.8h2l1.3,2.3l1.5-2.3h1.5L445,8.9L447.6,13.3z"/>
		<path class="st0" d="M452.3,11.9v1.4c-0.5,0.1-0.9,0.2-1.2,0.2c-0.5,0-0.9-0.1-1.2-0.3s-0.6-0.5-0.8-0.8c-0.2-0.3-0.2-0.8-0.2-1.5
			V6.8h-1V5.4h1.1l0.2-2.1l1.5-0.1v2.2h1.6v1.4h-1.6v3.9c0,0.5,0.1,0.8,0.3,1s0.5,0.3,1,0.3C452,12,452.2,12,452.3,11.9z"/>
		<path class="st0" d="M455.6,13.3h-1.8V5.4h1.6v1.9c0.2-0.7,0.5-1.3,0.9-1.6c0.4-0.3,0.8-0.5,1.2-0.5c0.1,0,0.1,0,0.2,0v1.9
			c-0.9,0-1.5,0.3-1.8,0.9s-0.4,1.1-0.4,1.7L455.6,13.3L455.6,13.3z"/>
		<path class="st0" d="M465.9,13.3h-1.7c-0.2-0.5-0.2-1-0.3-1.6c-0.5,1.2-1.4,1.8-2.7,1.8c-0.8,0-1.4-0.2-1.9-0.7s-0.7-1-0.7-1.7
			c0-1.8,1.6-2.7,4.8-2.7c0.1,0,0.3,0,0.5,0V7.8c0-0.8-0.6-1.2-1.7-1.2s-1.7,0.4-1.8,1.2l-1.5-0.2c0.1-0.7,0.4-1.2,1-1.6
			s1.5-0.6,2.6-0.6c0.6,0,1.1,0.1,1.5,0.2s0.7,0.3,1,0.5s0.4,0.5,0.6,0.8c0.1,0.3,0.2,0.8,0.2,1.4v3.6
			C465.6,12.3,465.7,12.8,465.9,13.3z M463.9,9.3c-2.3,0-3.5,0.5-3.5,1.6c0,0.3,0.1,0.6,0.3,0.8c0.2,0.2,0.6,0.3,1.1,0.3
			c0.7,0,1.2-0.2,1.5-0.6s0.5-0.9,0.5-1.5V9.3H463.9z"/>
		<path class="st0" d="M474.3,13.3h-1.8V8.4c0-0.5-0.1-0.9-0.4-1.2c-0.2-0.3-0.5-0.4-0.9-0.4c-0.5,0-0.9,0.2-1.2,0.6s-0.5,1-0.5,1.8
			v4.1h-1.8V5.4h1.6v1.8c0.6-1.3,1.4-2,2.4-2c0.7,0,1.3,0.2,1.8,0.7s0.7,1.2,0.7,2.3L474.3,13.3L474.3,13.3z"/>
		<path class="st0" d="M479.3,8.6V10h-3.9V8.6H479.3z"/>
		<path class="st0" d="M260.1,24.6v7.8c0,2-0.9,3-2.7,3c-0.3,0-0.6,0-0.9-0.1v-1.5c0.2,0,0.4,0,0.6,0c0.5,0,0.8-0.1,1-0.3
			s0.3-0.6,0.3-1.1v-7.8C258.4,24.6,260.1,24.6,260.1,24.6z M260.1,23.7h-1.8v-1.9h1.8V23.7z"/>
		<path class="st0" d="M267.2,30l1.6,0.2c-0.2,0.7-0.6,1.3-1.2,1.8s-1.4,0.7-2.3,0.7c-1.1,0-2-0.4-2.6-1.1s-1-1.7-1-3
			c0-1.2,0.3-2.2,1-3s1.6-1.2,2.7-1.2s2,0.4,2.6,1.2c0.6,0.8,0.9,1.8,0.9,3v0.2h-5.4c0,0.5,0.1,1,0.2,1.3s0.3,0.6,0.6,0.8
			c0.3,0.2,0.7,0.4,1.1,0.4C266.3,31.3,266.9,30.9,267.2,30z M267.1,27.7c0-0.6-0.2-1-0.5-1.4s-0.8-0.5-1.2-0.5
			c-0.5,0-0.9,0.2-1.2,0.5s-0.5,0.8-0.6,1.4H267.1z"/>
		<path class="st0" d="M272.4,32.5h-1.8v-7.9h1.6v1.9c0.2-0.7,0.5-1.3,0.9-1.6c0.4-0.3,0.8-0.5,1.2-0.5c0.1,0,0.1,0,0.2,0v1.9
			c-0.9,0-1.5,0.3-1.8,0.9s-0.4,1.1-0.4,1.7L272.4,32.5L272.4,32.5z"/>
		<path class="st0" d="M278.9,32.7c-1.2,0-2.1-0.4-2.7-1.3c-0.6-0.8-0.9-1.8-0.9-2.9c0-1.2,0.3-2.1,1-2.9s1.6-1.2,2.7-1.2
			s1.9,0.4,2.6,1.1c0.7,0.8,1,1.7,1,2.9c0,1.2-0.4,2.2-1.1,3S280,32.7,278.9,32.7z M279,31.2c1.2,0,1.8-0.9,1.8-2.7
			c0-0.8-0.1-1.4-0.4-1.9s-0.7-0.7-1.3-0.7c-0.6,0-1.1,0.2-1.4,0.7s-0.4,1.1-0.4,1.9c0,0.9,0.2,1.5,0.5,2S278.4,31.2,279,31.2z"/>
		<path class="st0" d="M291.7,24.6v1h-1.9v6.9h-1.2v-6.9h-1.3v-1h1.3c0-1.3,0.3-2.1,0.7-2.4c0.5-0.4,1-0.5,1.7-0.5
			c0.3,0,0.7,0,1.1,0.1v1c-0.3-0.1-0.5-0.1-0.8-0.1c-0.5,0-0.9,0.1-1.2,0.4c-0.3,0.2-0.4,0.7-0.4,1.3v0.3L291.7,24.6L291.7,24.6z"/>
		<path class="st0" d="M299.4,32.5h-1.1V31c-0.6,1.2-1.4,1.7-2.5,1.7c-0.8,0-1.4-0.3-1.9-0.8s-0.7-1.3-0.7-2.3v-5h1.2v5
			c0,0.8,0.2,1.3,0.5,1.6c0.3,0.3,0.7,0.4,1.1,0.4s0.8-0.1,1.1-0.3c0.3-0.2,0.6-0.5,0.8-1s0.3-0.9,0.3-1.4v-4.4h1.2V32.5z"/>
		<path class="st0" d="M307.1,30.2l1.1,0.2c-0.2,0.7-0.6,1.2-1.2,1.7c-0.6,0.4-1.3,0.7-2.1,0.7c-1.1,0-2-0.4-2.6-1.1s-1-1.8-1-3
			c0-1.3,0.3-2.3,1-3c0.7-0.8,1.6-1.2,2.6-1.2s1.9,0.4,2.5,1.1s0.9,1.8,1,3.2h-5.7c0,1.2,0.3,2,0.8,2.4s1,0.6,1.6,0.6
			C306,31.7,306.7,31.2,307.1,30.2z M307,27.8c0-0.4-0.1-0.8-0.2-1.2s-0.4-0.6-0.7-0.9s-0.7-0.4-1.2-0.4c-0.6,0-1.1,0.2-1.6,0.7
			s-0.7,1-0.7,1.8H307z"/>
		<path class="st0" d="M321.5,30.9v1.7h-7.9v-1.9l3.3-2.2c1-0.7,1.7-1.3,2-1.8s0.5-1,0.5-1.4c0-0.5-0.2-1-0.5-1.3s-0.8-0.5-1.4-0.5
			c-1.2,0-1.9,0.7-2.1,2.2l-1.9-0.5c0.1-0.9,0.6-1.8,1.3-2.4c0.7-0.7,1.6-1,2.8-1c1.2,0,2.1,0.3,2.8,1c0.7,0.7,1.1,1.5,1.1,2.6
			c0,0.9-0.3,1.7-0.9,2.4c-0.6,0.7-2.2,1.8-4.6,3.2h5.5V30.9z"/>
		<path class="st0" d="M327.1,32.7c-1.3,0-2.3-0.5-3-1.5s-1.1-2.3-1.1-3.9c0-1.7,0.4-3,1.1-4.1c0.7-1,1.7-1.5,3-1.5
			c0.9,0,1.7,0.2,2.3,0.7c0.6,0.5,1.1,1.2,1.4,2c0.3,0.9,0.5,1.7,0.5,2.4c0,1.3-0.1,2.3-0.4,3.1s-0.7,1.5-1.4,2
			C328.8,32.4,328,32.7,327.1,32.7z M327,31.2c0.5,0,1-0.2,1.3-0.5s0.6-0.8,0.7-1.4s0.2-1.4,0.2-2.5c0-0.9-0.1-1.7-0.4-2.5
			s-0.9-1.2-1.7-1.2c-1.4,0-2.2,1.3-2.2,4c0,1.2,0.2,2.2,0.5,2.9C325.7,30.8,326.2,31.2,327,31.2z"/>
		<path class="st0" d="M340.6,32.5h-8.2V31h3.2v-6.7c-1.1,0.9-2,1.6-2.9,1.9v-1.9c0.9-0.3,1.4-0.6,1.7-0.7c0.2-0.1,0.6-0.4,1-0.8
			s0.7-0.7,0.9-1.1h1.3V31h3V32.5z"/>
		<path class="st0" d="M342.4,21.9h6.6l-0.2,1.6h-5.1l-0.3,3.1c0.6-0.8,1.5-1.2,2.5-1.2s1.9,0.4,2.6,1.1s1.1,1.5,1.1,2.5
			s-0.4,1.9-1.1,2.6c-0.7,0.7-1.8,1.1-3,1.1c-1,0-1.9-0.2-2.7-0.7c-0.8-0.5-1.3-1.2-1.5-2.2l1.8-0.3c0.4,1.1,1.1,1.6,2.2,1.6
			c0.7,0,1.2-0.2,1.6-0.6s0.6-0.9,0.6-1.5s-0.2-1.1-0.6-1.5s-0.9-0.6-1.5-0.6c-0.9,0-1.6,0.4-2.1,1.2l-1.7-0.3L342.4,21.9z"/>
		<path class="st0" d="M353,30.8v1.6l-1.2,2.2h-0.7l0.9-2h-0.8v-1.8H353z"/>
		<path class="st0" d="M364,29.8l1.1,0.2c-0.2,0.9-0.5,1.6-1,2c-0.5,0.4-1.2,0.7-2,0.7c-1.1,0-1.9-0.4-2.5-1.2s-0.9-1.8-0.9-2.9
			c0-1.2,0.3-2.2,0.9-3s1.4-1.2,2.5-1.2c0.9,0,1.5,0.3,2.1,0.8c0.5,0.5,0.8,1.2,1,2l-1.1,0.2c-0.2-1.3-0.8-2-1.9-2
			c-0.7,0-1.2,0.3-1.6,0.9s-0.5,1.3-0.5,2.2c0,1,0.2,1.8,0.5,2.4c0.4,0.6,0.9,0.8,1.5,0.8C363.1,31.7,363.8,31.1,364,29.8z"/>
		<path class="st0" d="M369.6,32.8c-1.1,0-1.9-0.4-2.5-1.2s-0.9-1.8-0.9-3c0-1.3,0.3-2.3,1-3c0.7-0.8,1.5-1.1,2.5-1.1
			c1.1,0,1.9,0.4,2.6,1.2c0.6,0.8,0.9,1.8,0.9,3s-0.3,2.2-1,3C371.5,32.5,370.7,32.8,369.6,32.8z M369.7,31.7c0.6,0,1.1-0.3,1.6-0.8
			s0.6-1.3,0.6-2.4s-0.2-1.9-0.7-2.4s-1-0.7-1.6-0.7s-1.1,0.2-1.5,0.7s-0.6,1.3-0.6,2.4s0.2,2,0.6,2.4S369.1,31.7,369.7,31.7z"/>
		<path class="st0" d="M381.3,32.5h-1.1v-5.1c0-0.7-0.2-1.2-0.5-1.5s-0.7-0.4-1.2-0.4c-0.6,0-1.1,0.3-1.6,0.8s-0.6,1.2-0.6,2v4.3
			h-1.2v-7.9h1.1v1.5c0.6-1.1,1.5-1.7,2.5-1.7c0.6,0,1.1,0.2,1.5,0.5s0.7,0.6,0.9,1c0.2,0.4,0.2,1.1,0.2,2.1L381.3,32.5L381.3,32.5z
			"/>
		<path class="st0" d="M394,32.5h-1.1V31c-0.6,1.2-1.4,1.7-2.5,1.7c-0.8,0-1.4-0.3-1.9-0.8s-0.7-1.3-0.7-2.3v-5h1.2v5
			c0,0.8,0.2,1.3,0.5,1.6c0.3,0.3,0.7,0.4,1.1,0.4s0.8-0.1,1.1-0.3c0.3-0.2,0.6-0.5,0.8-1s0.3-0.9,0.3-1.4v-4.4h1.2V32.5z"/>
		<path class="st0" d="M402.7,32.5h-1.1v-5.1c0-0.7-0.2-1.2-0.5-1.5s-0.7-0.4-1.2-0.4c-0.6,0-1.1,0.3-1.6,0.8s-0.6,1.2-0.6,2v4.3
			h-1.2v-7.9h1.1v1.5c0.6-1.1,1.5-1.7,2.5-1.7c0.6,0,1.1,0.2,1.5,0.5s0.7,0.6,0.9,1c0.2,0.4,0.2,1.1,0.2,2.1L402.7,32.5L402.7,32.5z
			"/>
		<path class="st0" d="M412.7,31.7v1c-0.4,0.1-0.8,0.1-1.1,0.1c-1.5,0-2.3-0.8-2.3-2.4v-4.8h-1.4v-1h1.4l0.1-2l1.1-0.1v2.1h1.8v1
			h-1.8v5c0,0.8,0.4,1.2,1.3,1.2C412,31.8,412.4,31.8,412.7,31.7z"/>
		<path class="st0" d="M416.6,32.8c-1.1,0-1.9-0.4-2.5-1.2s-0.9-1.8-0.9-3c0-1.3,0.3-2.3,1-3c0.7-0.8,1.5-1.1,2.5-1.1
			c1.1,0,1.9,0.4,2.6,1.2c0.6,0.8,0.9,1.8,0.9,3s-0.3,2.2-1,3C418.5,32.5,417.7,32.8,416.6,32.8z M416.7,31.7c0.6,0,1.1-0.3,1.6-0.8
			s0.6-1.3,0.6-2.4s-0.2-1.9-0.7-2.4s-1-0.7-1.6-0.7s-1.1,0.2-1.5,0.7s-0.6,1.3-0.6,2.4s0.2,2,0.6,2.4S416.1,31.7,416.7,31.7z"/>
		<path class="st0" d="M425.6,31.7v1c-0.4,0.1-0.8,0.1-1.1,0.1c-1.5,0-2.3-0.8-2.3-2.4v-4.8h-1.4v-1h1.4l0.1-2l1.1-0.1v2.1h1.8v1
			h-1.8v5c0,0.8,0.4,1.2,1.3,1.2C424.9,31.8,425.2,31.8,425.6,31.7z"/>
		<path class="st0" d="M433.1,32.5h-1.2c0-0.3-0.1-0.7-0.1-1.4c-0.5,1.1-1.5,1.6-2.8,1.6c-0.9,0-1.6-0.2-2-0.7
			c-0.5-0.5-0.7-1-0.7-1.7c0-0.8,0.3-1.5,1-2s1.8-0.8,3.5-0.8c0.2,0,0.6,0,1,0c0-0.6,0-1.1-0.1-1.4s-0.3-0.5-0.6-0.7
			c-0.3-0.2-0.7-0.3-1.2-0.3c-1.2,0-2,0.5-2.2,1.4l-1.1-0.2c0.3-1.5,1.4-2.2,3.5-2.2c1.1,0,1.9,0.2,2.3,0.7c0.5,0.5,0.7,1.3,0.7,2.5
			V31C432.9,31.6,433,32.1,433.1,32.5z M431.7,28.6c-0.5,0-0.9,0-1.1,0c-1,0-1.7,0.2-2.3,0.5s-0.8,0.8-0.8,1.4c0,0.4,0.1,0.7,0.4,1
			s0.7,0.4,1.3,0.4c0.7,0,1.3-0.3,1.8-0.8s0.7-1.2,0.7-1.9C431.8,29,431.8,28.8,431.7,28.6z"/>
		<path class="st0" d="M436.6,32.5h-1.2V21.9h1.2V32.5z"/>
		<path class="st0" d="M449.2,21.9v10.7h-1.1v-1.4c-0.6,1-1.4,1.6-2.5,1.6c-0.9,0-1.7-0.4-2.3-1.2c-0.6-0.8-0.9-1.8-0.9-2.9
			c0-1.2,0.3-2.2,0.9-3s1.4-1.2,2.3-1.2s1.7,0.4,2.3,1.3v-3.9C447.9,21.9,449.2,21.9,449.2,21.9z M448,27.7c0-0.7-0.2-1.2-0.6-1.7
			c-0.4-0.4-0.9-0.6-1.5-0.6s-1.1,0.3-1.5,0.8s-0.6,1.3-0.6,2.3c0,1.1,0.2,1.9,0.5,2.4c0.4,0.6,0.9,0.8,1.5,0.8s1.1-0.2,1.5-0.7
			s0.7-1,0.7-1.7V27.7z"/>
		<path class="st0" d="M456.9,30.2l1.1,0.2c-0.2,0.7-0.6,1.2-1.2,1.7c-0.6,0.4-1.3,0.7-2.1,0.7c-1.1,0-2-0.4-2.6-1.1s-1-1.8-1-3
			c0-1.3,0.3-2.3,1-3c0.7-0.8,1.6-1.2,2.6-1.2s1.9,0.4,2.5,1.1s0.9,1.8,1,3.2h-5.7c0,1.2,0.3,2,0.8,2.4s1,0.6,1.6,0.6
			C455.8,31.7,456.5,31.2,456.9,30.2z M456.8,27.8c0-0.4-0.1-0.8-0.2-1.2s-0.4-0.6-0.7-0.9s-0.7-0.4-1.2-0.4c-0.6,0-1.1,0.2-1.6,0.7
			s-0.7,1-0.7,1.8H456.8z"/>
		<path class="st0" d="M266.5,51.7h-8.2v-1.6h3.2v-6.7c-1.1,0.9-2,1.6-2.9,1.9v-1.9c0.9-0.3,1.4-0.6,1.7-0.7c0.2-0.1,0.6-0.4,1-0.8
			c0.4-0.4,0.7-0.7,0.9-1.1h1.3v9.3h3V51.7z"/>
		<path class="st0" d="M267.6,49.8l1.6-0.5c0.4,0.7,1,1.1,1.8,1.1s1.4-0.4,1.9-1.1c0.4-0.7,0.7-1.8,0.7-3.1
			c-0.4,0.7-0.8,1.2-1.3,1.4s-1,0.3-1.5,0.3c-1,0-1.8-0.3-2.5-0.9c-0.7-0.6-1-1.5-1-2.5s0.3-1.9,1-2.6s1.6-1,2.8-1
			c1.3,0,2.4,0.4,3.2,1.3s1.2,2.2,1.2,3.9s-0.4,3.1-1.2,4.2s-1.9,1.6-3.3,1.6c-0.9,0-1.6-0.2-2.2-0.6
			C268.1,50.9,267.7,50.4,267.6,49.8z M271,46.4c0.6,0,1.1-0.2,1.5-0.5c0.4-0.4,0.6-0.9,0.6-1.6c0-0.5-0.2-0.9-0.6-1.3
			c-0.4-0.4-0.9-0.6-1.5-0.6s-1.1,0.2-1.5,0.6c-0.4,0.4-0.6,0.9-0.6,1.4s0.2,1,0.5,1.4C269.9,46.2,270.4,46.4,271,46.4z"/>
		<path class="st0" d="M278.9,49.7v2H277v-2H278.9z"/>
		<path class="st0" d="M282.6,46.5c-1.3-0.6-1.9-1.4-1.9-2.6c0-0.9,0.3-1.6,1-2.2c0.7-0.6,1.7-0.8,2.9-0.8c1.1,0,2,0.3,2.7,0.8
			s1,1.2,1,2c0,1-0.6,1.8-1.9,2.3c1.5,0.7,2.3,1.6,2.3,2.8c0,0.9-0.4,1.6-1.2,2.2c-0.8,0.6-1.8,0.9-3.1,0.9c-1.4,0-2.4-0.3-3.1-0.8
			s-1.1-1.2-1.1-2.1C280.3,47.9,281.1,47,282.6,46.5z M283.9,47.1c-0.5,0.2-0.9,0.4-1.3,0.8c-0.3,0.3-0.5,0.7-0.5,1.1
			c0,0.4,0.2,0.7,0.6,1.1s1,0.5,1.8,0.5c0.7,0,1.2-0.1,1.6-0.4c0.4-0.3,0.6-0.6,0.6-1s-0.2-0.7-0.5-0.9
			C286,47.9,285.2,47.5,283.9,47.1z M285.1,45.4c1-0.4,1.5-1,1.5-1.7c0-0.5-0.2-0.8-0.6-1.1s-0.9-0.4-1.4-0.4s-1,0.1-1.4,0.4
			s-0.6,0.6-0.6,1c0,0.5,0.2,0.8,0.6,1.1C283.7,44.9,284.3,45.2,285.1,45.4z"/>
		<path class="st0" d="M292.6,47v-1.5h1c0.6,0,1.1-0.1,1.5-0.4c0.4-0.3,0.6-0.6,0.6-1.2c0-0.5-0.2-0.9-0.5-1.1
			c-0.3-0.3-0.8-0.4-1.3-0.4c-1.1,0-1.8,0.5-2.1,1.5l-1.8-0.3c0.2-0.8,0.7-1.5,1.4-2s1.6-0.8,2.6-0.8s1.9,0.3,2.6,0.8
			s1.1,1.2,1.1,2.1c0,0.6-0.2,1.2-0.6,1.7s-0.9,0.7-1.4,0.8c0.7,0.1,1.3,0.4,1.7,0.9c0.4,0.5,0.6,1,0.6,1.7c0,0.9-0.4,1.7-1.1,2.3
			S295.2,52,294,52c-1.1,0-2.1-0.3-2.8-0.9c-0.7-0.6-1.2-1.2-1.4-2l1.8-0.4c0.4,1.2,1.2,1.8,2.4,1.8c0.6,0,1.1-0.2,1.5-0.5
			s0.6-0.7,0.6-1.2s-0.2-0.9-0.5-1.2s-0.8-0.5-1.5-0.5L292.6,47L292.6,47z"/>
		<path class="st0" d="M303.3,51.9c-1.3,0-2.3-0.5-3-1.5s-1.1-2.3-1.1-3.9c0-1.7,0.4-3,1.1-4.1c0.7-1,1.7-1.5,3-1.5
			c0.9,0,1.7,0.2,2.3,0.7c0.6,0.5,1.1,1.2,1.4,2c0.3,0.9,0.5,1.7,0.5,2.4c0,1.3-0.1,2.3-0.4,3.1s-0.7,1.5-1.4,2
			C305,51.6,304.2,51.9,303.3,51.9z M303.3,50.4c0.5,0,1-0.2,1.3-0.5s0.6-0.8,0.7-1.4c0.1-0.6,0.2-1.4,0.2-2.5
			c0-0.9-0.1-1.7-0.4-2.5s-0.9-1.2-1.7-1.2c-1.4,0-2.2,1.3-2.2,4c0,1.2,0.2,2.2,0.5,2.9C301.9,50,302.5,50.4,303.3,50.4z"/>
		<path class="st0" d="M314.5,54.4h-1.2V43.8h1.1v1.5c0.6-1.2,1.4-1.8,2.5-1.8c0.9,0,1.7,0.4,2.3,1.2s0.9,1.8,0.9,3
			c0,1.3-0.3,2.3-0.9,3.1s-1.3,1.1-2.3,1.1s-1.8-0.5-2.3-1.4v3.9H314.5z M314.5,46.7v2.2c0.1,0.6,0.3,1.1,0.8,1.5
			c0.4,0.4,0.9,0.6,1.3,0.6c0.5,0,1-0.2,1.4-0.7s0.6-1.3,0.6-2.4c0-1-0.2-1.8-0.6-2.3s-0.9-0.8-1.5-0.8c-0.5,0-0.9,0.2-1.3,0.6
			C314.8,45.7,314.6,46.1,314.5,46.7z"/>
		<path class="st0" d="M327,49.4l1.1,0.2c-0.2,0.7-0.6,1.2-1.2,1.7c-0.6,0.4-1.3,0.7-2.1,0.7c-1.1,0-2-0.4-2.6-1.1s-1-1.8-1-3
			c0-1.3,0.3-2.3,1-3c0.7-0.8,1.6-1.2,2.6-1.2s1.9,0.4,2.5,1.1c0.6,0.7,0.9,1.8,1,3.2h-5.7c0,1.2,0.3,2,0.8,2.4s1,0.6,1.6,0.6
			C325.9,50.9,326.6,50.4,327,49.4z M326.9,47c0-0.4-0.1-0.8-0.2-1.2s-0.4-0.6-0.7-0.9s-0.7-0.4-1.2-0.4c-0.6,0-1.1,0.2-1.6,0.7
			s-0.7,1-0.7,1.8C322.5,47,326.9,47,326.9,47z"/>
		<path class="st0" d="M331.3,51.7h-1.2v-7.9h1.1v1.8c0.4-0.9,0.8-1.4,1.1-1.7s0.8-0.4,1.2-0.4c0.1,0,0.3,0,0.5,0v1.2h-0.3
			c-0.7,0-1.2,0.3-1.7,0.8c-0.4,0.5-0.7,1.2-0.7,2V51.7z"/>
		<path class="st0" d="M334.4,49.7l1.2-0.2c0.3,1,1.1,1.5,2.5,1.5c0.5,0,0.9-0.1,1.3-0.3s0.5-0.6,0.5-1c0-0.6-0.5-1-1.4-1.2
			l-1.7-0.3c-0.7-0.1-1.2-0.4-1.6-0.7c-0.4-0.4-0.6-0.8-0.6-1.4c0-0.7,0.3-1.2,0.8-1.7s1.2-0.7,2.1-0.7c1.7,0,2.8,0.7,3.2,2
			l-1.1,0.2c-0.3-0.8-1-1.2-2-1.2c-0.5,0-0.9,0.1-1.2,0.3s-0.5,0.5-0.5,0.9c0,0.6,0.4,0.9,1.2,1.1l1.5,0.3c1.6,0.3,2.4,1.1,2.4,2.3
			c0,0.7-0.3,1.3-0.9,1.8c-0.6,0.4-1.4,0.7-2.4,0.7C336,52,334.8,51.2,334.4,49.7z"/>
		<path class="st0" d="M345.7,52c-1.1,0-1.9-0.4-2.5-1.2s-0.9-1.8-0.9-3c0-1.3,0.3-2.3,1-3c0.7-0.8,1.5-1.1,2.5-1.1
			c1.1,0,1.9,0.4,2.6,1.2c0.6,0.8,0.9,1.8,0.9,3s-0.3,2.2-1,3S346.8,52,345.7,52z M345.8,50.9c0.6,0,1.1-0.3,1.6-0.8
			s0.6-1.3,0.6-2.4c0-1.1-0.2-1.9-0.7-2.4s-1-0.7-1.6-0.7s-1.1,0.2-1.5,0.7s-0.6,1.3-0.6,2.4c0,1.1,0.2,2,0.6,2.4
			S345.2,50.9,345.8,50.9z"/>
		<path class="st0" d="M357.4,51.7h-1.1v-5.1c0-0.7-0.2-1.2-0.5-1.5s-0.7-0.4-1.2-0.4c-0.6,0-1.1,0.3-1.6,0.8s-0.6,1.2-0.6,2v4.3
			h-1.2v-7.9h1.1v1.5c0.6-1.1,1.5-1.7,2.5-1.7c0.6,0,1.1,0.2,1.5,0.5s0.7,0.6,0.9,1c0.2,0.4,0.2,1.1,0.2,2.1L357.4,51.7L357.4,51.7z
			"/>
		<path class="st0" d="M366,51.7h-1.2c0-0.3-0.1-0.7-0.1-1.4c-0.5,1.1-1.5,1.6-2.8,1.6c-0.9,0-1.6-0.2-2-0.7c-0.5-0.5-0.7-1-0.7-1.7
			c0-0.8,0.3-1.5,1-2s1.8-0.8,3.5-0.8c0.2,0,0.6,0,1,0c0-0.6,0-1.1-0.1-1.4c-0.1-0.3-0.3-0.5-0.6-0.7c-0.3-0.2-0.7-0.3-1.2-0.3
			c-1.2,0-2,0.5-2.2,1.4l-1.1-0.2c0.3-1.5,1.4-2.2,3.5-2.2c1.1,0,1.9,0.2,2.3,0.7c0.5,0.5,0.7,1.3,0.7,2.5v3.4
			C365.9,50.8,365.9,51.3,366,51.7z M364.7,47.8c-0.5,0-0.9,0-1.1,0c-1,0-1.7,0.2-2.3,0.5s-0.8,0.8-0.8,1.4c0,0.4,0.1,0.7,0.4,1
			s0.7,0.4,1.3,0.4c0.7,0,1.3-0.3,1.8-0.8s0.7-1.2,0.7-1.9C364.7,48.2,364.7,48,364.7,47.8z"/>
		<path class="st0" d="M367.3,49.7l1.2-0.2c0.3,1,1.1,1.5,2.5,1.5c0.5,0,0.9-0.1,1.3-0.3s0.5-0.6,0.5-1c0-0.6-0.5-1-1.4-1.2
			l-1.7-0.3c-0.7-0.1-1.2-0.4-1.6-0.7c-0.4-0.4-0.6-0.8-0.6-1.4c0-0.7,0.3-1.2,0.8-1.7s1.2-0.7,2.1-0.7c1.7,0,2.8,0.7,3.2,2
			l-1.1,0.2c-0.3-0.8-1-1.2-2-1.2c-0.5,0-0.9,0.1-1.2,0.3s-0.5,0.5-0.5,0.9c0,0.6,0.4,0.9,1.2,1.1l1.5,0.3c1.6,0.3,2.4,1.1,2.4,2.3
			c0,0.7-0.3,1.3-0.9,1.8c-0.6,0.4-1.4,0.7-2.4,0.7C368.9,52,367.7,51.2,367.3,49.7z"/>
	</g>
	<g>
		<path class="st0" d="M8.8,121v1.7H0.9v-1.9l3.3-2.2c1-0.7,1.7-1.3,2-1.8s0.5-1,0.5-1.4c0-0.5-0.2-1-0.5-1.3s-0.8-0.5-1.4-0.5
			c-1.2,0-1.9,0.7-2.1,2.2l-1.9-0.5c0.1-0.9,0.6-1.8,1.3-2.4s1.6-1,2.8-1s2.1,0.3,2.8,1s1.1,1.5,1.1,2.6c0,0.9-0.3,1.7-0.9,2.4
			s-2.2,1.8-4.6,3.2L8.8,121L8.8,121z"/>
		<path class="st0" d="M14.3,122.8c-1.3,0-2.3-0.5-3-1.5s-1.1-2.3-1.1-3.9c0-1.7,0.4-3,1.1-4.1s1.7-1.5,3-1.5c0.9,0,1.7,0.2,2.3,0.7
			s1.1,1.2,1.4,2s0.5,1.7,0.5,2.4c0,1.3-0.1,2.3-0.4,3.1s-0.7,1.5-1.4,2S15.2,122.8,14.3,122.8z M14.3,121.3c0.5,0,1-0.2,1.3-0.5
			s0.6-0.8,0.7-1.4s0.2-1.4,0.2-2.5c0-0.9-0.1-1.7-0.4-2.5s-0.9-1.2-1.7-1.2c-1.4,0-2.2,1.3-2.2,4c0,1.2,0.2,2.2,0.5,2.9
			S13.5,121.3,14.3,121.3z"/>
		<path class="st0" d="M27.9,122.7h-8.2v-1.6h3.2v-6.7c-1.1,0.9-2,1.6-2.9,1.9v-1.9c0.9-0.3,1.4-0.6,1.7-0.7s0.6-0.4,1-0.8
			s0.7-0.7,0.9-1.1h1.3v9.3h3C27.9,121.1,27.9,122.7,27.9,122.7z"/>
		<path class="st0" d="M29.7,112h6.6l-0.2,1.6H31l-0.3,3.1c0.6-0.8,1.5-1.2,2.5-1.2s1.9,0.4,2.6,1.1s1.1,1.5,1.1,2.5
			s-0.4,1.9-1.1,2.6s-1.8,1.1-3,1.1c-1,0-1.9-0.2-2.7-0.7s-1.3-1.2-1.5-2.2l1.8-0.3c0.4,1.1,1.1,1.6,2.2,1.6c0.7,0,1.2-0.2,1.6-0.6
			s0.6-0.9,0.6-1.5s-0.2-1.1-0.6-1.5s-0.9-0.6-1.5-0.6c-0.9,0-1.6,0.4-2.1,1.2l-1.7-0.3L29.7,112z"/>
	</g>
	<line class="st3" x1="420" y1="81" x2="46.3" y2="81"/>
	<rect x="52.2" y="146.2" class="st4" width="166.6" height="19.3"/>
	<g>
		<line class="st3" x1="420" y1="118.4" x2="46.3" y2="118.4"/>
		<rect x="52.2" y="108.8" class="st5" width="358" height="19.3"/>
	</g>
	<line class="st3" x1="420" y1="155.9" x2="46.3" y2="155.9"/>
	<rect x="52.2" y="71.3" class="st4" width="281.3" height="19.3"/>
</g>
</svg>
