<svg id="Capa_1" data-name="Capa 1" xmlns="http://www.w3.org/2000/svg" viewBox="0 0 166.36 157.1"><defs><style>.cls-1,.cls-2{fill:#cb7e42;}.cls-1{opacity:0.9;}.cls-2{opacity:0.3;}.cls-3{opacity:0.8;}.cls-4{fill:#15202b;}.cls-5{font-size:18px;fill:#ddd;font-family:FranklinGothic-Medium, Franklin Gothic Medium;font-weight:500;}</style></defs><title>3b</title><circle class="cls-1" cx="6.83" cy="6.83" r="6.83"/><circle class="cls-1" cx="23.8" cy="6.83" r="6.83"/><circle class="cls-1" cx="40.76" cy="6.83" r="6.83"/><circle class="cls-1" cx="57.73" cy="6.83" r="6.83"/><circle class="cls-1" cx="74.7" cy="6.83" r="6.83"/><circle class="cls-1" cx="91.66" cy="6.83" r="6.83"/><circle class="cls-1" cx="108.63" cy="6.83" r="6.83"/><circle class="cls-1" cx="125.59" cy="6.83" r="6.83"/><circle class="cls-1" cx="142.56" cy="6.83" r="6.83"/><circle class="cls-1" cx="159.52" cy="6.83" r="6.83"/><circle class="cls-1" cx="6.83" cy="22.77" r="6.83"/><circle class="cls-1" cx="23.8" cy="22.77" r="6.83"/><circle class="cls-1" cx="40.76" cy="22.77" r="6.83"/><circle class="cls-1" cx="57.73" cy="22.77" r="6.83"/><circle class="cls-1" cx="74.7" cy="22.77" r="6.83"/><circle class="cls-1" cx="91.66" cy="22.77" r="6.83"/><circle class="cls-1" cx="108.63" cy="22.77" r="6.83"/><circle class="cls-1" cx="125.59" cy="22.77" r="6.83"/><circle class="cls-1" cx="142.56" cy="22.77" r="6.83"/><circle class="cls-1" cx="159.52" cy="22.77" r="6.83"/><circle class="cls-1" cx="6.83" cy="38.71" r="6.83"/><circle class="cls-1" cx="23.8" cy="38.71" r="6.83"/><circle class="cls-1" cx="40.76" cy="38.71" r="6.83"/><circle class="cls-1" cx="57.73" cy="38.71" r="6.83"/><circle class="cls-1" cx="74.7" cy="38.71" r="6.83"/><circle class="cls-1" cx="91.66" cy="38.71" r="6.83"/><circle class="cls-1" cx="108.63" cy="38.71" r="6.83"/><circle class="cls-1" cx="125.59" cy="38.71" r="6.83"/><circle class="cls-1" cx="142.56" cy="38.71" r="6.83"/><circle class="cls-1" cx="159.52" cy="38.71" r="6.83"/><circle class="cls-1" cx="6.83" cy="54.65" r="6.83"/><circle class="cls-1" cx="23.8" cy="54.65" r="6.83"/><circle class="cls-1" cx="40.76" cy="54.65" r="6.83"/><circle class="cls-1" cx="57.73" cy="54.65" r="6.83"/><circle class="cls-1" cx="74.7" cy="54.65" r="6.83"/><circle class="cls-1" cx="91.66" cy="54.65" r="6.83"/><circle class="cls-1" cx="108.63" cy="54.65" r="6.83"/><circle class="cls-1" cx="125.59" cy="54.65" r="6.83"/><circle class="cls-1" cx="142.56" cy="54.65" r="6.83"/><circle class="cls-1" cx="159.52" cy="54.65" r="6.83"/><circle class="cls-1" cx="6.83" cy="70.58" r="6.83"/><circle class="cls-1" cx="23.8" cy="70.58" r="6.83"/><circle class="cls-1" cx="40.76" cy="70.58" r="6.83"/><circle class="cls-1" cx="57.73" cy="70.58" r="6.83"/><circle class="cls-1" cx="74.7" cy="70.58" r="6.83"/><circle class="cls-1" cx="91.66" cy="70.58" r="6.83"/><circle class="cls-2" cx="108.63" cy="70.58" r="6.83"/><circle class="cls-2" cx="125.59" cy="70.58" r="6.83"/><circle class="cls-2" cx="142.56" cy="70.58" r="6.83"/><circle class="cls-2" cx="159.52" cy="70.58" r="6.83"/><circle class="cls-2" cx="6.83" cy="86.52" r="6.83"/><circle class="cls-2" cx="23.8" cy="86.52" r="6.83"/><circle class="cls-2" cx="40.76" cy="86.52" r="6.83"/><circle class="cls-2" cx="57.73" cy="86.52" r="6.83"/><circle class="cls-2" cx="74.7" cy="86.52" r="6.83"/><circle class="cls-2" cx="91.66" cy="86.52" r="6.83"/><circle class="cls-2" cx="108.63" cy="86.52" r="6.83"/><circle class="cls-2" cx="125.59" cy="86.52" r="6.83"/><circle class="cls-2" cx="142.56" cy="86.52" r="6.83"/><circle class="cls-2" cx="159.52" cy="86.52" r="6.83"/><circle class="cls-2" cx="6.83" cy="102.46" r="6.83"/><circle class="cls-2" cx="23.8" cy="102.46" r="6.83"/><circle class="cls-2" cx="40.76" cy="102.46" r="6.83"/><circle class="cls-2" cx="57.73" cy="102.46" r="6.83"/><circle class="cls-2" cx="74.7" cy="102.46" r="6.83"/><circle class="cls-2" cx="91.66" cy="102.46" r="6.83"/><circle class="cls-2" cx="108.63" cy="102.46" r="6.83"/><circle class="cls-2" cx="125.59" cy="102.46" r="6.83"/><circle class="cls-2" cx="142.56" cy="102.46" r="6.83"/><circle class="cls-2" cx="159.52" cy="102.46" r="6.83"/><circle class="cls-2" cx="6.83" cy="118.39" r="6.83"/><circle class="cls-2" cx="23.8" cy="118.39" r="6.83"/><circle class="cls-2" cx="40.76" cy="118.39" r="6.83"/><circle class="cls-2" cx="57.73" cy="118.39" r="6.83"/><circle class="cls-2" cx="74.7" cy="118.39" r="6.83"/><circle class="cls-2" cx="91.66" cy="118.39" r="6.83"/><circle class="cls-2" cx="108.63" cy="118.39" r="6.83"/><circle class="cls-2" cx="125.59" cy="118.39" r="6.83"/><circle class="cls-2" cx="142.56" cy="118.39" r="6.83"/><circle class="cls-2" cx="159.52" cy="118.39" r="6.83"/><circle class="cls-2" cx="6.83" cy="134.33" r="6.83"/><circle class="cls-2" cx="23.8" cy="134.33" r="6.83"/><circle class="cls-2" cx="40.76" cy="134.33" r="6.83"/><circle class="cls-2" cx="57.73" cy="134.33" r="6.83"/><circle class="cls-2" cx="74.7" cy="134.33" r="6.83"/><circle class="cls-2" cx="91.66" cy="134.33" r="6.83"/><circle class="cls-2" cx="108.63" cy="134.33" r="6.83"/><circle class="cls-2" cx="125.59" cy="134.33" r="6.83"/><circle class="cls-2" cx="142.56" cy="134.33" r="6.83"/><circle class="cls-2" cx="159.52" cy="134.33" r="6.83"/><circle class="cls-2" cx="6.83" cy="150.27" r="6.83"/><circle class="cls-2" cx="23.8" cy="150.27" r="6.83"/><circle class="cls-2" cx="40.76" cy="150.27" r="6.83"/><circle class="cls-2" cx="57.73" cy="150.27" r="6.83"/><circle class="cls-2" cx="74.7" cy="150.27" r="6.83"/><circle class="cls-2" cx="91.66" cy="150.27" r="6.83"/><circle class="cls-2" cx="108.63" cy="150.27" r="6.83"/><circle class="cls-2" cx="125.59" cy="150.27" r="6.83"/><circle class="cls-2" cx="142.56" cy="150.27" r="6.83"/><circle class="cls-2" cx="159.52" cy="150.27" r="6.83"/><g class="cls-3"><rect class="cls-4" x="47.36" y="26.33" width="71.81" height="25.53"/></g><text class="cls-5" transform="translate(70.96 45.03)">46</text></svg>