<?xml version="1.0" encoding="utf-8"?>
<!-- Generator: Adobe Illustrator 24.0.2, SVG Export Plug-In . SVG Version: 6.00 Build 0)  -->
<svg version="1.1" id="Capa_1" xmlns="http://www.w3.org/2000/svg" xmlns:xlink="http://www.w3.org/1999/xlink" x="0px" y="0px"
	 viewBox="0 0 166.4 157.1" style="enable-background:new 0 0 166.4 157.1;" xml:space="preserve">
<style type="text/css">
	.st0{opacity:0.9;fill:#CB7E42;enable-background:new    ;}
	.st1{opacity:0.3;fill:#CB7E42;enable-background:new    ;}
	.st2{opacity:0.8;}
	.st3{fill:#15202B;}
	.st4{enable-background:new    ;}
	.st5{fill:#DDDDDD;}
</style>
<title>3c</title>
<circle class="st0" cx="6.8" cy="6.8" r="6.8"/>
<circle class="st0" cx="23.8" cy="6.8" r="6.8"/>
<circle class="st0" cx="40.8" cy="6.8" r="6.8"/>
<circle class="st0" cx="57.7" cy="6.8" r="6.8"/>
<circle class="st0" cx="74.7" cy="6.8" r="6.8"/>
<circle class="st0" cx="91.7" cy="6.8" r="6.8"/>
<circle class="st0" cx="108.6" cy="6.8" r="6.8"/>
<circle class="st0" cx="125.6" cy="6.8" r="6.8"/>
<circle class="st0" cx="142.6" cy="6.8" r="6.8"/>
<circle class="st0" cx="159.5" cy="6.8" r="6.8"/>
<circle class="st0" cx="6.8" cy="22.8" r="6.8"/>
<circle class="st0" cx="23.8" cy="22.8" r="6.8"/>
<circle class="st1" cx="40.8" cy="22.8" r="6.8"/>
<circle class="st1" cx="57.7" cy="22.8" r="6.8"/>
<circle class="st1" cx="74.7" cy="22.8" r="6.8"/>
<circle class="st1" cx="91.7" cy="22.8" r="6.8"/>
<circle class="st1" cx="108.6" cy="22.8" r="6.8"/>
<circle class="st1" cx="125.6" cy="22.8" r="6.8"/>
<circle class="st1" cx="142.6" cy="22.8" r="6.8"/>
<circle class="st1" cx="159.5" cy="22.8" r="6.8"/>
<circle class="st1" cx="6.8" cy="38.7" r="6.8"/>
<circle class="st1" cx="23.8" cy="38.7" r="6.8"/>
<circle class="st1" cx="40.8" cy="38.7" r="6.8"/>
<circle class="st1" cx="57.7" cy="38.7" r="6.8"/>
<circle class="st1" cx="74.7" cy="38.7" r="6.8"/>
<circle class="st1" cx="91.7" cy="38.7" r="6.8"/>
<circle class="st1" cx="108.6" cy="38.7" r="6.8"/>
<circle class="st1" cx="125.6" cy="38.7" r="6.8"/>
<circle class="st1" cx="142.6" cy="38.7" r="6.8"/>
<circle class="st1" cx="159.5" cy="38.7" r="6.8"/>
<circle class="st1" cx="6.8" cy="54.7" r="6.8"/>
<circle class="st1" cx="23.8" cy="54.7" r="6.8"/>
<circle class="st1" cx="40.8" cy="54.7" r="6.8"/>
<circle class="st1" cx="57.7" cy="54.7" r="6.8"/>
<circle class="st1" cx="74.7" cy="54.7" r="6.8"/>
<circle class="st1" cx="91.7" cy="54.7" r="6.8"/>
<circle class="st1" cx="108.6" cy="54.7" r="6.8"/>
<circle class="st1" cx="125.6" cy="54.7" r="6.8"/>
<circle class="st1" cx="142.6" cy="54.7" r="6.8"/>
<circle class="st1" cx="159.5" cy="54.7" r="6.8"/>
<circle class="st1" cx="6.8" cy="70.6" r="6.8"/>
<circle class="st1" cx="23.8" cy="70.6" r="6.8"/>
<circle class="st1" cx="40.8" cy="70.6" r="6.8"/>
<circle class="st1" cx="57.7" cy="70.6" r="6.8"/>
<circle class="st1" cx="74.7" cy="70.6" r="6.8"/>
<circle class="st1" cx="91.7" cy="70.6" r="6.8"/>
<circle class="st1" cx="108.6" cy="70.6" r="6.8"/>
<circle class="st1" cx="125.6" cy="70.6" r="6.8"/>
<circle class="st1" cx="142.6" cy="70.6" r="6.8"/>
<circle class="st1" cx="159.5" cy="70.6" r="6.8"/>
<circle class="st1" cx="6.8" cy="86.5" r="6.8"/>
<circle class="st1" cx="23.8" cy="86.5" r="6.8"/>
<circle class="st1" cx="40.8" cy="86.5" r="6.8"/>
<circle class="st1" cx="57.7" cy="86.5" r="6.8"/>
<circle class="st1" cx="74.7" cy="86.5" r="6.8"/>
<circle class="st1" cx="91.7" cy="86.5" r="6.8"/>
<circle class="st1" cx="108.6" cy="86.5" r="6.8"/>
<circle class="st1" cx="125.6" cy="86.5" r="6.8"/>
<circle class="st1" cx="142.6" cy="86.5" r="6.8"/>
<circle class="st1" cx="159.5" cy="86.5" r="6.8"/>
<circle class="st1" cx="6.8" cy="102.5" r="6.8"/>
<circle class="st1" cx="23.8" cy="102.5" r="6.8"/>
<circle class="st1" cx="40.8" cy="102.5" r="6.8"/>
<circle class="st1" cx="57.7" cy="102.5" r="6.8"/>
<circle class="st1" cx="74.7" cy="102.5" r="6.8"/>
<circle class="st1" cx="91.7" cy="102.5" r="6.8"/>
<circle class="st1" cx="108.6" cy="102.5" r="6.8"/>
<circle class="st1" cx="125.6" cy="102.5" r="6.8"/>
<circle class="st1" cx="142.6" cy="102.5" r="6.8"/>
<circle class="st1" cx="159.5" cy="102.5" r="6.8"/>
<circle class="st1" cx="6.8" cy="118.4" r="6.8"/>
<circle class="st1" cx="23.8" cy="118.4" r="6.8"/>
<circle class="st1" cx="40.8" cy="118.4" r="6.8"/>
<circle class="st1" cx="57.7" cy="118.4" r="6.8"/>
<circle class="st1" cx="74.7" cy="118.4" r="6.8"/>
<circle class="st1" cx="91.7" cy="118.4" r="6.8"/>
<circle class="st1" cx="108.6" cy="118.4" r="6.8"/>
<circle class="st1" cx="125.6" cy="118.4" r="6.8"/>
<circle class="st1" cx="142.6" cy="118.4" r="6.8"/>
<circle class="st1" cx="159.5" cy="118.4" r="6.8"/>
<circle class="st1" cx="6.8" cy="134.3" r="6.8"/>
<circle class="st1" cx="23.8" cy="134.3" r="6.8"/>
<circle class="st1" cx="40.8" cy="134.3" r="6.8"/>
<circle class="st1" cx="57.7" cy="134.3" r="6.8"/>
<circle class="st1" cx="74.7" cy="134.3" r="6.8"/>
<circle class="st1" cx="91.7" cy="134.3" r="6.8"/>
<circle class="st1" cx="108.6" cy="134.3" r="6.8"/>
<circle class="st1" cx="125.6" cy="134.3" r="6.8"/>
<circle class="st1" cx="142.6" cy="134.3" r="6.8"/>
<circle class="st1" cx="159.5" cy="134.3" r="6.8"/>
<circle class="st1" cx="6.8" cy="150.3" r="6.8"/>
<circle class="st1" cx="23.8" cy="150.3" r="6.8"/>
<circle class="st1" cx="40.8" cy="150.3" r="6.8"/>
<circle class="st1" cx="57.7" cy="150.3" r="6.8"/>
<circle class="st1" cx="74.7" cy="150.3" r="6.8"/>
<circle class="st1" cx="91.7" cy="150.3" r="6.8"/>
<circle class="st1" cx="108.6" cy="150.3" r="6.8"/>
<circle class="st1" cx="125.6" cy="150.3" r="6.8"/>
<circle class="st1" cx="142.6" cy="150.3" r="6.8"/>
<circle class="st1" cx="159.5" cy="150.3" r="6.8"/>
<g class="st2">
	<rect x="47.4" y="26.3" class="st3" width="71.8" height="25.5"/>
</g>
<g class="st4">
	<path class="st5" d="M81.4,45h-9.2v-1.8h3.6v-7.6c-1.2,1-2.3,1.8-3.3,2.2v-2.2c1-0.4,1.6-0.7,1.9-0.8c0.3-0.2,0.6-0.5,1.1-0.9
		c0.5-0.4,0.8-0.8,1-1.2H78v10.5h3.4V45z"/>
</g>
<g class="st4">
	<path class="st5" d="M91.3,43.2V45h-8.8v-2.1l3.7-2.4c1.1-0.8,1.9-1.4,2.3-2c0.4-0.6,0.6-1.1,0.6-1.6c0-0.6-0.2-1.1-0.6-1.5
		s-0.9-0.6-1.5-0.6c-1.4,0-2.2,0.8-2.4,2.5l-2.1-0.5c0.2-1.1,0.6-2,1.4-2.7s1.8-1.1,3.1-1.1c1.3,0,2.4,0.4,3.2,1.1
		c0.8,0.8,1.2,1.7,1.2,2.9c0,1-0.4,1.9-1.1,2.7s-2.4,2-5.2,3.6H91.3z"/>
</g>
</svg>
