<svg id="Capa_1" data-name="Capa 1" xmlns="http://www.w3.org/2000/svg" viewBox="0 0 166.36 157.1">
  <defs>
    <style>
      .cls-1, .cls-2 {
        fill: #cb7e42;
      }

      .cls-1 {
        opacity: 0.9;
      }

      .cls-2 {
        opacity: 0.3;
      }

      .cls-3 {
        opacity: 0.8;
      }

      .cls-4 {
        fill: #15202b;
      }

      .cls-5 {
        fill: #ddd;
      }
    </style>
  </defs>
  <title>3c</title>
  <g>
    <g>
      <circle class="cls-1" cx="6.83" cy="6.83" r="6.83"/>
      <circle class="cls-1" cx="23.8" cy="6.83" r="6.83"/>
      <circle class="cls-1" cx="40.76" cy="6.83" r="6.83"/>
      <circle class="cls-1" cx="57.73" cy="6.83" r="6.83"/>
      <circle class="cls-1" cx="74.7" cy="6.83" r="6.83"/>
      <circle class="cls-1" cx="91.66" cy="6.83" r="6.83"/>
      <circle class="cls-1" cx="108.63" cy="6.83" r="6.83"/>
      <circle class="cls-1" cx="125.59" cy="6.83" r="6.83"/>
      <circle class="cls-1" cx="142.56" cy="6.83" r="6.83"/>
      <circle class="cls-1" cx="159.52" cy="6.83" r="6.83"/>
      <circle class="cls-1" cx="6.83" cy="22.77" r="6.83"/>
      <circle class="cls-1" cx="23.8" cy="22.77" r="6.83"/>
      <circle class="cls-2" cx="40.76" cy="22.77" r="6.83"/>
      <circle class="cls-2" cx="57.73" cy="22.77" r="6.83"/>
      <circle class="cls-2" cx="74.7" cy="22.77" r="6.83"/>
      <circle class="cls-2" cx="91.66" cy="22.77" r="6.83"/>
      <circle class="cls-2" cx="108.63" cy="22.77" r="6.83"/>
      <circle class="cls-2" cx="125.59" cy="22.77" r="6.83"/>
      <circle class="cls-2" cx="142.56" cy="22.77" r="6.83"/>
      <circle class="cls-2" cx="159.52" cy="22.77" r="6.83"/>
      <circle class="cls-2" cx="6.83" cy="38.71" r="6.83"/>
      <circle class="cls-2" cx="23.8" cy="38.71" r="6.83"/>
      <circle class="cls-2" cx="40.76" cy="38.71" r="6.83"/>
      <circle class="cls-2" cx="57.73" cy="38.71" r="6.83"/>
      <circle class="cls-2" cx="74.7" cy="38.71" r="6.83"/>
      <circle class="cls-2" cx="91.66" cy="38.71" r="6.83"/>
      <circle class="cls-2" cx="108.63" cy="38.71" r="6.83"/>
      <circle class="cls-2" cx="125.59" cy="38.71" r="6.83"/>
      <circle class="cls-2" cx="142.56" cy="38.71" r="6.83"/>
      <circle class="cls-2" cx="159.52" cy="38.71" r="6.83"/>
      <circle class="cls-2" cx="6.83" cy="54.65" r="6.83"/>
      <circle class="cls-2" cx="23.8" cy="54.65" r="6.83"/>
      <circle class="cls-2" cx="40.76" cy="54.65" r="6.83"/>
      <circle class="cls-2" cx="57.73" cy="54.65" r="6.83"/>
      <circle class="cls-2" cx="74.7" cy="54.65" r="6.83"/>
      <circle class="cls-2" cx="91.66" cy="54.65" r="6.83"/>
      <circle class="cls-2" cx="108.63" cy="54.65" r="6.83"/>
      <circle class="cls-2" cx="125.59" cy="54.65" r="6.83"/>
      <circle class="cls-2" cx="142.56" cy="54.65" r="6.83"/>
      <circle class="cls-2" cx="159.52" cy="54.65" r="6.83"/>
      <circle class="cls-2" cx="6.83" cy="70.58" r="6.83"/>
      <circle class="cls-2" cx="23.8" cy="70.58" r="6.83"/>
      <circle class="cls-2" cx="40.76" cy="70.58" r="6.83"/>
      <circle class="cls-2" cx="57.73" cy="70.58" r="6.83"/>
      <circle class="cls-2" cx="74.7" cy="70.58" r="6.83"/>
      <circle class="cls-2" cx="91.66" cy="70.58" r="6.83"/>
      <circle class="cls-2" cx="108.63" cy="70.58" r="6.83"/>
      <circle class="cls-2" cx="125.59" cy="70.58" r="6.83"/>
      <circle class="cls-2" cx="142.56" cy="70.58" r="6.83"/>
      <circle class="cls-2" cx="159.52" cy="70.58" r="6.83"/>
      <circle class="cls-2" cx="6.83" cy="86.52" r="6.83"/>
      <circle class="cls-2" cx="23.8" cy="86.52" r="6.83"/>
      <circle class="cls-2" cx="40.76" cy="86.52" r="6.83"/>
      <circle class="cls-2" cx="57.73" cy="86.52" r="6.83"/>
      <circle class="cls-2" cx="74.7" cy="86.52" r="6.83"/>
      <circle class="cls-2" cx="91.66" cy="86.52" r="6.83"/>
      <circle class="cls-2" cx="108.63" cy="86.52" r="6.83"/>
      <circle class="cls-2" cx="125.59" cy="86.52" r="6.83"/>
      <circle class="cls-2" cx="142.56" cy="86.52" r="6.83"/>
      <circle class="cls-2" cx="159.52" cy="86.52" r="6.83"/>
      <circle class="cls-2" cx="6.83" cy="102.46" r="6.83"/>
      <circle class="cls-2" cx="23.8" cy="102.46" r="6.83"/>
      <circle class="cls-2" cx="40.76" cy="102.46" r="6.83"/>
      <circle class="cls-2" cx="57.73" cy="102.46" r="6.83"/>
      <circle class="cls-2" cx="74.7" cy="102.46" r="6.83"/>
      <circle class="cls-2" cx="91.66" cy="102.46" r="6.83"/>
      <circle class="cls-2" cx="108.63" cy="102.46" r="6.83"/>
      <circle class="cls-2" cx="125.59" cy="102.46" r="6.83"/>
      <circle class="cls-2" cx="142.56" cy="102.46" r="6.83"/>
      <circle class="cls-2" cx="159.52" cy="102.46" r="6.83"/>
      <circle class="cls-2" cx="6.83" cy="118.39" r="6.83"/>
      <circle class="cls-2" cx="23.8" cy="118.39" r="6.83"/>
      <circle class="cls-2" cx="40.76" cy="118.39" r="6.83"/>
      <circle class="cls-2" cx="57.73" cy="118.39" r="6.83"/>
      <circle class="cls-2" cx="74.7" cy="118.39" r="6.83"/>
      <circle class="cls-2" cx="91.66" cy="118.39" r="6.83"/>
      <circle class="cls-2" cx="108.63" cy="118.39" r="6.83"/>
      <circle class="cls-2" cx="125.59" cy="118.39" r="6.83"/>
      <circle class="cls-2" cx="142.56" cy="118.39" r="6.83"/>
      <circle class="cls-2" cx="159.52" cy="118.39" r="6.83"/>
      <circle class="cls-2" cx="6.83" cy="134.33" r="6.83"/>
      <circle class="cls-2" cx="23.8" cy="134.33" r="6.83"/>
      <circle class="cls-2" cx="40.76" cy="134.33" r="6.83"/>
      <circle class="cls-2" cx="57.73" cy="134.33" r="6.83"/>
      <circle class="cls-2" cx="74.7" cy="134.33" r="6.83"/>
      <circle class="cls-2" cx="91.66" cy="134.33" r="6.83"/>
      <circle class="cls-2" cx="108.63" cy="134.33" r="6.83"/>
      <circle class="cls-2" cx="125.59" cy="134.33" r="6.83"/>
      <circle class="cls-2" cx="142.56" cy="134.33" r="6.83"/>
      <circle class="cls-2" cx="159.52" cy="134.33" r="6.83"/>
      <circle class="cls-2" cx="6.83" cy="150.27" r="6.83"/>
      <circle class="cls-2" cx="23.8" cy="150.27" r="6.83"/>
      <circle class="cls-2" cx="40.76" cy="150.27" r="6.83"/>
      <circle class="cls-2" cx="57.73" cy="150.27" r="6.83"/>
      <circle class="cls-2" cx="74.7" cy="150.27" r="6.83"/>
      <circle class="cls-2" cx="91.66" cy="150.27" r="6.83"/>
      <circle class="cls-2" cx="108.63" cy="150.27" r="6.83"/>
      <circle class="cls-2" cx="125.59" cy="150.27" r="6.83"/>
      <circle class="cls-2" cx="142.56" cy="150.27" r="6.83"/>
      <circle class="cls-2" cx="159.52" cy="150.27" r="6.83"/>
    </g>
    <g>
      <g class="cls-3">
        <rect class="cls-4" x="47.27" y="26.33" width="71.81" height="25.53"/>
      </g>
      <g>
        <path class="cls-5" d="M76,45H66.8V43.26h3.61V35.68a12.05,12.05,0,0,1-3.28,2.17V35.68A13,13,0,0,0,69,34.87a8.35,8.35,0,0,0,1.11-.9,4.73,4.73,0,0,0,1-1.19h1.44V43.26H76Z"/>
        <path class="cls-5" d="M85.94,43.16V45H77.1v-2.1l3.67-2.45a8.42,8.42,0,0,0,2.31-2,3,3,0,0,0,.59-1.62,2,2,0,0,0-2.12-2.1c-1.37,0-2.16.83-2.37,2.5l-2.08-.52A4.68,4.68,0,0,1,78.52,34a4.31,4.31,0,0,1,3.1-1.13A4.42,4.42,0,0,1,84.79,34,3.81,3.81,0,0,1,86,36.84a4,4,0,0,1-1.06,2.75,22.81,22.81,0,0,1-5.23,3.57Z"/>
        <path class="cls-5" d="M90.26,39.6a2.42,2.42,0,0,1-2-1,3.84,3.84,0,0,1-.76-2.42,3.6,3.6,0,0,1,.77-2.34,2.49,2.49,0,0,1,2-.94,2.42,2.42,0,0,1,2.13,1,3.88,3.88,0,0,1,.69,2.27,3.61,3.61,0,0,1-.83,2.5A2.58,2.58,0,0,1,90.26,39.6Zm0-1.3c.8,0,1.21-.7,1.21-2.11s-.39-2-1.17-2-1.19.67-1.19,2S89.5,38.3,90.27,38.3Zm8-5.27L90.8,45H89.47l7.46-12Zm-.88,12.1a2.42,2.42,0,0,1-2-.92,3.44,3.44,0,0,1-.78-2.31,3.62,3.62,0,0,1,.86-2.54,2.68,2.68,0,0,1,2-.92,2.58,2.58,0,0,1,1.91.86,3.58,3.58,0,0,1,.85,2.6,3.38,3.38,0,0,1-.82,2.35A2.65,2.65,0,0,1,97.35,45.13Zm.07-1.27a1,1,0,0,0,.91-.6,3.23,3.23,0,0,0,.29-1.39,3.56,3.56,0,0,0-.28-1.62.93.93,0,0,0-.85-.49c-.83,0-1.25.69-1.25,2.05S96.63,43.86,97.42,43.86Z"/>
      </g>
    </g>
  </g>
</svg>
