<svg id="Capa_1" data-name="Capa 1" xmlns="http://www.w3.org/2000/svg" viewBox="0 0 166.36 157.1">
  <defs>
    <style>
      .cls-1, .cls-2 {
        fill: #cb7e42;
      }

      .cls-1 {
        opacity: 0.9;
      }

      .cls-2 {
        opacity: 0.3;
      }

      .cls-3 {
        opacity: 0.8;
      }

      .cls-4 {
        fill: #15202b;
      }

      .cls-5 {
        fill: #ddd;
      }
    </style>
  </defs>
  <title>3d</title>
  <g>
    <circle class="cls-1" cx="6.83" cy="6.83" r="6.83"/>
    <circle class="cls-1" cx="23.8" cy="6.83" r="6.83"/>
    <circle class="cls-1" cx="40.76" cy="6.83" r="6.83"/>
    <circle class="cls-1" cx="57.73" cy="6.83" r="6.83"/>
    <circle class="cls-1" cx="74.7" cy="6.83" r="6.83"/>
    <circle class="cls-1" cx="91.66" cy="6.83" r="6.83"/>
    <circle class="cls-1" cx="108.63" cy="6.83" r="6.83"/>
    <circle class="cls-1" cx="125.59" cy="6.83" r="6.83"/>
    <circle class="cls-1" cx="142.56" cy="6.83" r="6.83"/>
    <circle class="cls-1" cx="159.52" cy="6.83" r="6.83"/>
    <circle class="cls-1" cx="6.83" cy="22.77" r="6.83"/>
    <circle class="cls-1" cx="23.8" cy="22.77" r="6.83"/>
    <circle class="cls-1" cx="40.76" cy="22.77" r="6.83"/>
    <circle class="cls-1" cx="57.73" cy="22.77" r="6.83"/>
    <circle class="cls-1" cx="74.7" cy="22.77" r="6.83"/>
    <circle class="cls-1" cx="91.66" cy="22.77" r="6.83"/>
    <circle class="cls-1" cx="108.63" cy="22.77" r="6.83"/>
    <circle class="cls-1" cx="125.59" cy="22.77" r="6.83"/>
    <circle class="cls-1" cx="142.56" cy="22.77" r="6.83"/>
    <circle class="cls-1" cx="159.52" cy="22.77" r="6.83"/>
    <circle class="cls-1" cx="6.83" cy="38.71" r="6.83"/>
    <circle class="cls-1" cx="23.8" cy="38.71" r="6.83"/>
    <circle class="cls-1" cx="40.76" cy="38.71" r="6.83"/>
    <circle class="cls-1" cx="57.73" cy="38.71" r="6.83"/>
    <circle class="cls-1" cx="74.7" cy="38.71" r="6.83"/>
    <circle class="cls-1" cx="91.66" cy="38.71" r="6.83"/>
    <circle class="cls-1" cx="108.63" cy="38.71" r="6.83"/>
    <circle class="cls-1" cx="125.59" cy="38.71" r="6.83"/>
    <circle class="cls-1" cx="142.56" cy="38.71" r="6.83"/>
    <circle class="cls-1" cx="159.52" cy="38.71" r="6.83"/>
    <circle class="cls-1" cx="6.83" cy="54.65" r="6.83"/>
    <circle class="cls-1" cx="23.8" cy="54.65" r="6.83"/>
    <circle class="cls-1" cx="40.76" cy="54.65" r="6.83"/>
    <circle class="cls-1" cx="57.73" cy="54.65" r="6.83"/>
    <circle class="cls-1" cx="74.7" cy="54.65" r="6.83"/>
    <circle class="cls-2" cx="91.66" cy="54.65" r="6.83"/>
    <circle class="cls-2" cx="108.63" cy="54.65" r="6.83"/>
    <circle class="cls-2" cx="125.59" cy="54.65" r="6.83"/>
    <circle class="cls-2" cx="142.56" cy="54.65" r="6.83"/>
    <circle class="cls-2" cx="159.52" cy="54.65" r="6.83"/>
    <circle class="cls-2" cx="6.83" cy="70.58" r="6.83"/>
    <circle class="cls-2" cx="23.8" cy="70.58" r="6.83"/>
    <circle class="cls-2" cx="40.76" cy="70.58" r="6.83"/>
    <circle class="cls-2" cx="57.73" cy="70.58" r="6.83"/>
    <circle class="cls-2" cx="74.7" cy="70.58" r="6.83"/>
    <circle class="cls-2" cx="91.66" cy="70.58" r="6.83"/>
    <circle class="cls-2" cx="108.63" cy="70.58" r="6.83"/>
    <circle class="cls-2" cx="125.59" cy="70.58" r="6.83"/>
    <circle class="cls-2" cx="142.56" cy="70.58" r="6.83"/>
    <circle class="cls-2" cx="159.52" cy="70.58" r="6.83"/>
    <circle class="cls-2" cx="6.83" cy="86.52" r="6.83"/>
    <circle class="cls-2" cx="23.8" cy="86.52" r="6.83"/>
    <circle class="cls-2" cx="40.76" cy="86.52" r="6.83"/>
    <circle class="cls-2" cx="57.73" cy="86.52" r="6.83"/>
    <circle class="cls-2" cx="74.7" cy="86.52" r="6.83"/>
    <circle class="cls-2" cx="91.66" cy="86.52" r="6.83"/>
    <circle class="cls-2" cx="108.63" cy="86.52" r="6.83"/>
    <circle class="cls-2" cx="125.59" cy="86.52" r="6.83"/>
    <circle class="cls-2" cx="142.56" cy="86.52" r="6.83"/>
    <circle class="cls-2" cx="159.52" cy="86.52" r="6.83"/>
    <circle class="cls-2" cx="6.83" cy="102.46" r="6.83"/>
    <circle class="cls-2" cx="23.8" cy="102.46" r="6.83"/>
    <circle class="cls-2" cx="40.76" cy="102.46" r="6.83"/>
    <circle class="cls-2" cx="57.73" cy="102.46" r="6.83"/>
    <circle class="cls-2" cx="74.7" cy="102.46" r="6.83"/>
    <circle class="cls-2" cx="91.66" cy="102.46" r="6.83"/>
    <circle class="cls-2" cx="108.63" cy="102.46" r="6.83"/>
    <circle class="cls-2" cx="125.59" cy="102.46" r="6.83"/>
    <circle class="cls-2" cx="142.56" cy="102.46" r="6.83"/>
    <circle class="cls-2" cx="159.52" cy="102.46" r="6.83"/>
    <circle class="cls-2" cx="6.83" cy="118.39" r="6.83"/>
    <circle class="cls-2" cx="23.8" cy="118.39" r="6.83"/>
    <circle class="cls-2" cx="40.76" cy="118.39" r="6.83"/>
    <circle class="cls-2" cx="57.73" cy="118.39" r="6.83"/>
    <circle class="cls-2" cx="74.7" cy="118.39" r="6.83"/>
    <circle class="cls-2" cx="91.66" cy="118.39" r="6.83"/>
    <circle class="cls-2" cx="108.63" cy="118.39" r="6.83"/>
    <circle class="cls-2" cx="125.59" cy="118.39" r="6.83"/>
    <circle class="cls-2" cx="142.56" cy="118.39" r="6.83"/>
    <circle class="cls-2" cx="159.52" cy="118.39" r="6.83"/>
    <circle class="cls-2" cx="6.83" cy="134.33" r="6.83"/>
    <circle class="cls-2" cx="23.8" cy="134.33" r="6.83"/>
    <circle class="cls-2" cx="40.76" cy="134.33" r="6.83"/>
    <circle class="cls-2" cx="57.73" cy="134.33" r="6.83"/>
    <circle class="cls-2" cx="74.7" cy="134.33" r="6.83"/>
    <circle class="cls-2" cx="91.66" cy="134.33" r="6.83"/>
    <circle class="cls-2" cx="108.63" cy="134.33" r="6.83"/>
    <circle class="cls-2" cx="125.59" cy="134.33" r="6.83"/>
    <circle class="cls-2" cx="142.56" cy="134.33" r="6.83"/>
    <circle class="cls-2" cx="159.52" cy="134.33" r="6.83"/>
    <circle class="cls-2" cx="6.83" cy="150.27" r="6.83"/>
    <circle class="cls-2" cx="23.8" cy="150.27" r="6.83"/>
    <circle class="cls-2" cx="40.76" cy="150.27" r="6.83"/>
    <circle class="cls-2" cx="57.73" cy="150.27" r="6.83"/>
    <circle class="cls-2" cx="74.7" cy="150.27" r="6.83"/>
    <circle class="cls-2" cx="91.66" cy="150.27" r="6.83"/>
    <circle class="cls-2" cx="108.63" cy="150.27" r="6.83"/>
    <circle class="cls-2" cx="125.59" cy="150.27" r="6.83"/>
    <circle class="cls-2" cx="142.56" cy="150.27" r="6.83"/>
    <circle class="cls-2" cx="159.52" cy="150.27" r="6.83"/>
  </g>
  <g>
    <g class="cls-3">
      <rect class="cls-4" x="47.27" y="26.33" width="71.81" height="25.53"/>
    </g>
    <g>
      <path class="cls-5" d="M69.47,39.73V38h1.1a2.85,2.85,0,0,0,1.64-.44,1.47,1.47,0,0,0,.66-1.31A1.54,1.54,0,0,0,72.31,35a2.26,2.26,0,0,0-1.44-.43,2.39,2.39,0,0,0-2.41,1.74l-2-.34A3.8,3.8,0,0,1,68,33.72a4.87,4.87,0,0,1,2.91-.87,4.79,4.79,0,0,1,2.9.87A2.76,2.76,0,0,1,75,36.06a2.79,2.79,0,0,1-.65,1.87,2.25,2.25,0,0,1-1.59.84,3,3,0,0,1,1.89,1,2.76,2.76,0,0,1,.72,1.92,3.16,3.16,0,0,1-1.24,2.55,5.18,5.18,0,0,1-3.31,1,4.93,4.93,0,0,1-3.15-1A4.13,4.13,0,0,1,66.13,42l2.05-.5A2.81,2.81,0,0,0,72.53,43a1.66,1.66,0,0,0,.65-1.31,1.93,1.93,0,0,0-.56-1.36,2.24,2.24,0,0,0-1.69-.58Z"/>
      <path class="cls-5" d="M78.14,33H85.6l-.19,1.86H79.72l-.33,3.48A3.41,3.41,0,0,1,82.21,37a3.93,3.93,0,0,1,2.92,1.19A3.86,3.86,0,0,1,86.32,41,4,4,0,0,1,85.08,44a4.66,4.66,0,0,1-3.43,1.24,5.57,5.57,0,0,1-3-.8,3.76,3.76,0,0,1-1.68-2.48L79,41.62a2.45,2.45,0,0,0,2.52,1.84,2.31,2.31,0,0,0,1.82-.72A2.51,2.51,0,0,0,84,41a2.37,2.37,0,0,0-.64-1.69,2.12,2.12,0,0,0-1.64-.69A2.51,2.51,0,0,0,79.39,40l-1.93-.38Z"/>
      <path class="cls-5" d="M90.15,39.61a2.43,2.43,0,0,1-2-1,3.84,3.84,0,0,1-.76-2.42,3.6,3.6,0,0,1,.77-2.34,2.49,2.49,0,0,1,2-.94,2.42,2.42,0,0,1,2.13,1A3.88,3.88,0,0,1,93,36.18a3.61,3.61,0,0,1-.83,2.5A2.59,2.59,0,0,1,90.15,39.61Zm0-1.31c.81,0,1.21-.7,1.21-2.1s-.39-2-1.17-2-1.19.67-1.19,2S89.39,38.3,90.16,38.3Zm8-5.27L90.69,45H89.37l7.45-12Zm-.88,12.1a2.44,2.44,0,0,1-2-.91,3.48,3.48,0,0,1-.78-2.32,3.62,3.62,0,0,1,.86-2.54,2.68,2.68,0,0,1,2-.92,2.58,2.58,0,0,1,1.91.86,3.58,3.58,0,0,1,.85,2.6,3.38,3.38,0,0,1-.82,2.35A2.65,2.65,0,0,1,97.24,45.13Zm.07-1.27a1,1,0,0,0,.91-.6,3.23,3.23,0,0,0,.29-1.39,3.56,3.56,0,0,0-.28-1.62.93.93,0,0,0-.85-.49c-.83,0-1.25.69-1.25,2.05S96.53,43.86,97.31,43.86Z"/>
    </g>
  </g>
</svg>
