<svg id="Capa_1" data-name="Capa 1" xmlns="http://www.w3.org/2000/svg" viewBox="0 0 166.36 157.1">
  <defs>
    <style>
      .cls-1, .cls-2 {
        fill: #cb7e42;
      }

      .cls-1 {
        opacity: 0.9;
      }

      .cls-2 {
        opacity: 0.3;
      }

      .cls-3 {
        opacity: 0.8;
      }

      .cls-4 {
        fill: #15202b;
      }

      .cls-5 {
        fill: #ddd;
      }
    </style>
  </defs>
  <title>4a</title>
  <circle class="cls-1" cx="89.76" cy="38.71" r="6.83"/>
  <g>
    <circle class="cls-1" cx="6.83" cy="6.83" r="6.83"/>
    <circle class="cls-1" cx="23.8" cy="6.83" r="6.83"/>
    <circle class="cls-1" cx="40.76" cy="6.83" r="6.83"/>
    <circle class="cls-1" cx="57.73" cy="6.83" r="6.83"/>
    <circle class="cls-1" cx="74.7" cy="6.83" r="6.83"/>
    <circle class="cls-1" cx="91.66" cy="6.83" r="6.83"/>
    <circle class="cls-1" cx="108.63" cy="6.83" r="6.83"/>
    <circle class="cls-1" cx="125.59" cy="6.83" r="6.83"/>
    <circle class="cls-1" cx="142.56" cy="6.83" r="6.83"/>
    <circle class="cls-1" cx="159.52" cy="6.83" r="6.83"/>
    <circle class="cls-1" cx="6.83" cy="22.77" r="6.83"/>
    <circle class="cls-1" cx="23.8" cy="22.77" r="6.83"/>
    <circle class="cls-1" cx="40.76" cy="22.77" r="6.83"/>
    <circle class="cls-1" cx="57.73" cy="22.77" r="6.83"/>
    <circle class="cls-1" cx="74.7" cy="22.77" r="6.83"/>
    <circle class="cls-1" cx="91.66" cy="22.77" r="6.83"/>
    <circle class="cls-1" cx="108.63" cy="22.77" r="6.83"/>
    <circle class="cls-1" cx="125.59" cy="22.77" r="6.83"/>
    <circle class="cls-1" cx="142.56" cy="22.77" r="6.83"/>
    <circle class="cls-1" cx="159.52" cy="22.77" r="6.83"/>
    <circle class="cls-1" cx="6.83" cy="38.71" r="6.83"/>
    <circle class="cls-1" cx="23.8" cy="38.71" r="6.83"/>
    <circle class="cls-1" cx="40.76" cy="38.71" r="6.83"/>
    <circle class="cls-1" cx="57.73" cy="38.71" r="6.83"/>
    <circle class="cls-1" cx="74.7" cy="38.71" r="6.83"/>
    <circle class="cls-1" cx="108.63" cy="38.71" r="6.83"/>
    <circle class="cls-1" cx="125.59" cy="38.71" r="6.83"/>
    <circle class="cls-1" cx="142.56" cy="38.71" r="6.83"/>
    <circle class="cls-1" cx="159.52" cy="38.71" r="6.83"/>
    <circle class="cls-1" cx="6.83" cy="54.65" r="6.83"/>
    <circle class="cls-1" cx="23.8" cy="54.65" r="6.83"/>
    <circle class="cls-1" cx="40.76" cy="54.65" r="6.83"/>
    <circle class="cls-1" cx="57.73" cy="54.65" r="6.83"/>
    <circle class="cls-1" cx="74.7" cy="54.65" r="6.83"/>
    <circle class="cls-1" cx="91.66" cy="54.65" r="6.83"/>
    <circle class="cls-1" cx="108.63" cy="54.65" r="6.83"/>
    <circle class="cls-1" cx="125.59" cy="54.65" r="6.83"/>
    <circle class="cls-1" cx="142.56" cy="54.65" r="6.83"/>
    <circle class="cls-1" cx="159.52" cy="54.65" r="6.83"/>
    <circle class="cls-1" cx="6.83" cy="70.58" r="6.83"/>
    <circle class="cls-1" cx="23.8" cy="70.58" r="6.83"/>
    <circle class="cls-1" cx="40.76" cy="70.58" r="6.83"/>
    <circle class="cls-1" cx="57.73" cy="70.58" r="6.83"/>
    <circle class="cls-1" cx="74.7" cy="70.58" r="6.83"/>
    <circle class="cls-1" cx="91.66" cy="70.58" r="6.83"/>
    <circle class="cls-1" cx="108.63" cy="70.58" r="6.83"/>
    <circle class="cls-1" cx="125.59" cy="70.58" r="6.83"/>
    <circle class="cls-1" cx="142.56" cy="70.58" r="6.83"/>
    <circle class="cls-1" cx="159.52" cy="70.58" r="6.83"/>
    <circle class="cls-1" cx="6.83" cy="86.52" r="6.83"/>
    <circle class="cls-1" cx="23.8" cy="86.52" r="6.83"/>
    <circle class="cls-1" cx="40.76" cy="86.52" r="6.83"/>
    <circle class="cls-1" cx="57.73" cy="86.52" r="6.83"/>
    <circle class="cls-1" cx="74.7" cy="86.52" r="6.83"/>
    <circle class="cls-1" cx="91.66" cy="86.52" r="6.83"/>
    <circle class="cls-1" cx="108.63" cy="86.52" r="6.83"/>
    <circle class="cls-1" cx="125.59" cy="86.52" r="6.83"/>
    <circle class="cls-1" cx="142.56" cy="86.52" r="6.83"/>
    <circle class="cls-1" cx="159.52" cy="86.52" r="6.83"/>
    <circle class="cls-1" cx="6.83" cy="102.46" r="6.83"/>
    <circle class="cls-1" cx="23.8" cy="102.46" r="6.83"/>
    <circle class="cls-1" cx="40.76" cy="102.46" r="6.83"/>
    <circle class="cls-2" cx="57.73" cy="102.46" r="6.83"/>
    <circle class="cls-2" cx="74.7" cy="102.46" r="6.83"/>
    <circle class="cls-2" cx="91.66" cy="102.46" r="6.83"/>
    <circle class="cls-2" cx="108.63" cy="102.46" r="6.83"/>
    <circle class="cls-2" cx="125.59" cy="102.46" r="6.83"/>
    <circle class="cls-2" cx="142.56" cy="102.46" r="6.83"/>
    <circle class="cls-2" cx="159.52" cy="102.46" r="6.83"/>
    <circle class="cls-2" cx="6.83" cy="118.39" r="6.83"/>
    <circle class="cls-2" cx="23.8" cy="118.39" r="6.83"/>
    <circle class="cls-2" cx="40.76" cy="118.39" r="6.83"/>
    <circle class="cls-2" cx="57.73" cy="118.39" r="6.83"/>
    <circle class="cls-2" cx="74.7" cy="118.39" r="6.83"/>
    <circle class="cls-2" cx="91.66" cy="118.39" r="6.83"/>
    <circle class="cls-2" cx="108.63" cy="118.39" r="6.83"/>
    <circle class="cls-2" cx="125.59" cy="118.39" r="6.83"/>
    <circle class="cls-2" cx="142.56" cy="118.39" r="6.83"/>
    <circle class="cls-2" cx="159.52" cy="118.39" r="6.83"/>
    <circle class="cls-2" cx="6.83" cy="134.33" r="6.83"/>
    <circle class="cls-2" cx="23.8" cy="134.33" r="6.83"/>
    <circle class="cls-2" cx="40.76" cy="134.33" r="6.83"/>
    <circle class="cls-2" cx="57.73" cy="134.33" r="6.83"/>
    <circle class="cls-2" cx="74.7" cy="134.33" r="6.83"/>
    <circle class="cls-2" cx="91.66" cy="134.33" r="6.83"/>
    <circle class="cls-2" cx="108.63" cy="134.33" r="6.83"/>
    <circle class="cls-2" cx="125.59" cy="134.33" r="6.83"/>
    <circle class="cls-2" cx="142.56" cy="134.33" r="6.83"/>
    <circle class="cls-2" cx="159.52" cy="134.33" r="6.83"/>
    <circle class="cls-2" cx="6.83" cy="150.27" r="6.83"/>
    <circle class="cls-2" cx="23.8" cy="150.27" r="6.83"/>
    <circle class="cls-2" cx="40.76" cy="150.27" r="6.83"/>
    <circle class="cls-2" cx="57.73" cy="150.27" r="6.83"/>
    <circle class="cls-2" cx="74.7" cy="150.27" r="6.83"/>
    <circle class="cls-2" cx="91.66" cy="150.27" r="6.83"/>
    <circle class="cls-2" cx="108.63" cy="150.27" r="6.83"/>
    <circle class="cls-2" cx="125.59" cy="150.27" r="6.83"/>
    <circle class="cls-2" cx="142.56" cy="150.27" r="6.83"/>
    <circle class="cls-2" cx="159.52" cy="150.27" r="6.83"/>
  </g>
  <g>
    <g class="cls-3">
      <rect class="cls-4" x="47.27" y="26.33" width="71.81" height="25.53"/>
    </g>
    <g>
      <path class="cls-5" d="M73,35.76l-1.83.36a2.07,2.07,0,0,0-2.1-1.69,2.16,2.16,0,0,0-2.14,1.32,6.53,6.53,0,0,0-.62,2.79c0,.2,0,.39,0,.58a3.18,3.18,0,0,1,3.1-1.8,4,4,0,0,1,2.84,1.08,3.57,3.57,0,0,1,1.15,2.73A3.88,3.88,0,0,1,72.17,44a4.28,4.28,0,0,1-3.08,1.17,4.44,4.44,0,0,1-3.64-1.63,6.88,6.88,0,0,1-1.32-4.47,7.34,7.34,0,0,1,1.3-4.52,4.1,4.1,0,0,1,3.47-1.74A3.77,3.77,0,0,1,73,35.76Zm-4,7.86A2.38,2.38,0,0,0,70.64,43a2.47,2.47,0,0,0,0-3.32A2.22,2.22,0,0,0,68.93,39a2.11,2.11,0,0,0-1.64.67,2.38,2.38,0,0,0-.63,1.67A2.24,2.24,0,0,0,67.3,43,2.31,2.31,0,0,0,69,43.62Z"/>
      <path class="cls-5" d="M77.77,39.73V38h1.1a2.81,2.81,0,0,0,1.64-.44,1.47,1.47,0,0,0,.66-1.31A1.53,1.53,0,0,0,80.62,35a2.3,2.3,0,0,0-1.44-.43,2.4,2.4,0,0,0-2.42,1.74l-2-.34a3.81,3.81,0,0,1,1.55-2.24,5.29,5.29,0,0,1,5.81,0,2.76,2.76,0,0,1,1.2,2.34,2.84,2.84,0,0,1-.65,1.87,2.25,2.25,0,0,1-1.6.84,3.05,3.05,0,0,1,1.9,1,2.76,2.76,0,0,1,.72,1.92,3.14,3.14,0,0,1-1.25,2.55,5.16,5.16,0,0,1-3.31,1,5,5,0,0,1-3.15-1A4.18,4.18,0,0,1,74.43,42l2-.5A2.82,2.82,0,0,0,80.84,43a1.65,1.65,0,0,0,.64-1.31,1.89,1.89,0,0,0-.56-1.36,2.21,2.21,0,0,0-1.68-.58Z"/>
      <path class="cls-5" d="M87.9,39.61a2.43,2.43,0,0,1-2-1,3.9,3.9,0,0,1-.76-2.42,3.6,3.6,0,0,1,.77-2.34,2.49,2.49,0,0,1,2-.94,2.42,2.42,0,0,1,2.13,1,3.88,3.88,0,0,1,.69,2.27,3.61,3.61,0,0,1-.83,2.5A2.59,2.59,0,0,1,87.9,39.61Zm0-1.31c.81,0,1.21-.7,1.21-2.1s-.39-2-1.17-2-1.19.67-1.19,2S87.14,38.3,87.91,38.3Zm8-5.27L88.44,45H87.12l7.45-12ZM95,45.13a2.46,2.46,0,0,1-2-.91,3.48,3.48,0,0,1-.78-2.32,3.62,3.62,0,0,1,.86-2.54,2.68,2.68,0,0,1,2-.92A2.58,2.58,0,0,1,97,39.3a3.58,3.58,0,0,1,.85,2.6A3.33,3.33,0,0,1,97,44.25,2.65,2.65,0,0,1,95,45.13Zm.07-1.27a1,1,0,0,0,.91-.6,3.23,3.23,0,0,0,.29-1.39A3.56,3.56,0,0,0,96,40.25a.92.92,0,0,0-.85-.49c-.83,0-1.25.69-1.25,2.05S94.28,43.86,95.06,43.86Z"/>
    </g>
  </g>
</svg>
