<?xml version="1.0" encoding="utf-8"?>
<!-- Generator: Adobe Illustrator 24.0.2, SVG Export Plug-In . SVG Version: 6.00 Build 0)  -->
<svg version="1.1" id="Capa_1" xmlns="http://www.w3.org/2000/svg" xmlns:xlink="http://www.w3.org/1999/xlink" x="0px" y="0px"
	 viewBox="0 0 166.4 157.1" style="enable-background:new 0 0 166.4 157.1;" xml:space="preserve">
<style type="text/css">
	.st0{opacity:0.9;fill:#FBD59A;enable-background:new    ;}
	.st1{opacity:0.3;fill:#FBD59A;enable-background:new    ;}
	.st2{opacity:0.8;}
	.st3{fill:#15202B;}
	.st4{enable-background:new    ;}
	.st5{fill:#DDDDDD;}
</style>
<title>4b</title>
<circle class="st0" cx="6.8" cy="6.8" r="6.8"/>
<circle class="st0" cx="23.8" cy="6.8" r="6.8"/>
<circle class="st0" cx="40.8" cy="6.8" r="6.8"/>
<circle class="st0" cx="57.7" cy="6.8" r="6.8"/>
<circle class="st0" cx="74.7" cy="6.8" r="6.8"/>
<circle class="st0" cx="91.7" cy="6.8" r="6.8"/>
<circle class="st0" cx="108.6" cy="6.8" r="6.8"/>
<circle class="st0" cx="125.6" cy="6.8" r="6.8"/>
<circle class="st0" cx="142.6" cy="6.8" r="6.8"/>
<circle class="st0" cx="159.5" cy="6.8" r="6.8"/>
<circle class="st0" cx="6.8" cy="22.8" r="6.8"/>
<circle class="st0" cx="23.8" cy="22.8" r="6.8"/>
<circle class="st0" cx="40.8" cy="22.8" r="6.8"/>
<circle class="st0" cx="57.7" cy="22.8" r="6.8"/>
<circle class="st0" cx="74.7" cy="22.8" r="6.8"/>
<circle class="st0" cx="91.7" cy="22.8" r="6.8"/>
<circle class="st0" cx="108.6" cy="22.8" r="6.8"/>
<circle class="st0" cx="125.6" cy="22.8" r="6.8"/>
<circle class="st0" cx="142.6" cy="22.8" r="6.8"/>
<circle class="st0" cx="159.5" cy="22.8" r="6.8"/>
<circle class="st0" cx="6.8" cy="38.7" r="6.8"/>
<circle class="st0" cx="23.8" cy="38.7" r="6.8"/>
<circle class="st0" cx="40.8" cy="38.7" r="6.8"/>
<circle class="st0" cx="57.7" cy="38.7" r="6.8"/>
<circle class="st0" cx="74.7" cy="38.7" r="6.8"/>
<circle class="st0" cx="91.7" cy="38.7" r="6.8"/>
<circle class="st0" cx="108.6" cy="38.7" r="6.8"/>
<circle class="st0" cx="125.6" cy="38.7" r="6.8"/>
<circle class="st0" cx="142.6" cy="38.7" r="6.8"/>
<circle class="st0" cx="159.5" cy="38.7" r="6.8"/>
<circle class="st0" cx="6.8" cy="54.7" r="6.8"/>
<circle class="st0" cx="23.8" cy="54.7" r="6.8"/>
<circle class="st0" cx="40.8" cy="54.7" r="6.8"/>
<circle class="st0" cx="57.7" cy="54.7" r="6.8"/>
<circle class="st0" cx="74.7" cy="54.7" r="6.8"/>
<circle class="st0" cx="91.7" cy="54.7" r="6.8"/>
<circle class="st0" cx="108.6" cy="54.7" r="6.8"/>
<circle class="st0" cx="125.6" cy="54.7" r="6.8"/>
<circle class="st0" cx="142.6" cy="54.7" r="6.8"/>
<circle class="st0" cx="159.5" cy="54.7" r="6.8"/>
<circle class="st0" cx="6.8" cy="70.6" r="6.8"/>
<circle class="st0" cx="23.8" cy="70.6" r="6.8"/>
<circle class="st0" cx="40.8" cy="70.6" r="6.8"/>
<circle class="st0" cx="57.7" cy="70.6" r="6.8"/>
<circle class="st1" cx="74.7" cy="70.6" r="6.8"/>
<circle class="st1" cx="91.7" cy="70.6" r="6.8"/>
<circle class="st1" cx="108.6" cy="70.6" r="6.8"/>
<circle class="st1" cx="125.6" cy="70.6" r="6.8"/>
<circle class="st1" cx="142.6" cy="70.6" r="6.8"/>
<circle class="st1" cx="159.5" cy="70.6" r="6.8"/>
<circle class="st1" cx="6.8" cy="86.5" r="6.8"/>
<circle class="st1" cx="23.8" cy="86.5" r="6.8"/>
<circle class="st1" cx="40.8" cy="86.5" r="6.8"/>
<circle class="st1" cx="57.7" cy="86.5" r="6.8"/>
<circle class="st1" cx="74.7" cy="86.5" r="6.8"/>
<circle class="st1" cx="91.7" cy="86.5" r="6.8"/>
<circle class="st1" cx="108.6" cy="86.5" r="6.8"/>
<circle class="st1" cx="125.6" cy="86.5" r="6.8"/>
<circle class="st1" cx="142.6" cy="86.5" r="6.8"/>
<circle class="st1" cx="159.5" cy="86.5" r="6.8"/>
<circle class="st1" cx="6.8" cy="102.5" r="6.8"/>
<circle class="st1" cx="23.8" cy="102.5" r="6.8"/>
<circle class="st1" cx="40.8" cy="102.5" r="6.8"/>
<circle class="st1" cx="57.7" cy="102.5" r="6.8"/>
<circle class="st1" cx="74.7" cy="102.5" r="6.8"/>
<circle class="st1" cx="91.7" cy="102.5" r="6.8"/>
<circle class="st1" cx="108.6" cy="102.5" r="6.8"/>
<circle class="st1" cx="125.6" cy="102.5" r="6.8"/>
<circle class="st1" cx="142.6" cy="102.5" r="6.8"/>
<circle class="st1" cx="159.5" cy="102.5" r="6.8"/>
<circle class="st1" cx="6.8" cy="118.4" r="6.8"/>
<circle class="st1" cx="23.8" cy="118.4" r="6.8"/>
<circle class="st1" cx="40.8" cy="118.4" r="6.8"/>
<circle class="st1" cx="57.7" cy="118.4" r="6.8"/>
<circle class="st1" cx="74.7" cy="118.4" r="6.8"/>
<circle class="st1" cx="91.7" cy="118.4" r="6.8"/>
<circle class="st1" cx="108.6" cy="118.4" r="6.8"/>
<circle class="st1" cx="125.6" cy="118.4" r="6.8"/>
<circle class="st1" cx="142.6" cy="118.4" r="6.8"/>
<circle class="st1" cx="159.5" cy="118.4" r="6.8"/>
<circle class="st1" cx="6.8" cy="134.3" r="6.8"/>
<circle class="st1" cx="23.8" cy="134.3" r="6.8"/>
<circle class="st1" cx="40.8" cy="134.3" r="6.8"/>
<circle class="st1" cx="57.7" cy="134.3" r="6.8"/>
<circle class="st1" cx="74.7" cy="134.3" r="6.8"/>
<circle class="st1" cx="91.7" cy="134.3" r="6.8"/>
<circle class="st1" cx="108.6" cy="134.3" r="6.8"/>
<circle class="st1" cx="125.6" cy="134.3" r="6.8"/>
<circle class="st1" cx="142.6" cy="134.3" r="6.8"/>
<circle class="st1" cx="159.5" cy="134.3" r="6.8"/>
<circle class="st1" cx="6.8" cy="150.3" r="6.8"/>
<circle class="st1" cx="23.8" cy="150.3" r="6.8"/>
<circle class="st1" cx="40.8" cy="150.3" r="6.8"/>
<circle class="st1" cx="57.7" cy="150.3" r="6.8"/>
<circle class="st1" cx="74.7" cy="150.3" r="6.8"/>
<circle class="st1" cx="91.7" cy="150.3" r="6.8"/>
<circle class="st1" cx="108.6" cy="150.3" r="6.8"/>
<circle class="st1" cx="125.6" cy="150.3" r="6.8"/>
<circle class="st1" cx="142.6" cy="150.3" r="6.8"/>
<circle class="st1" cx="159.5" cy="150.3" r="6.8"/>
<g class="st2">
	<rect x="47.4" y="26.3" class="st3" width="71.8" height="25.5"/>
</g>
<g class="st4">
	<path class="st5" d="M79.1,45h-2.2v-2.7h-5.3v-1.6l5.3-7.9h2.2v7.7h1.8v1.8h-1.8V45z M77.1,35l-3.4,5.4h3.2v-3.3
		c0-0.4,0-0.7,0.1-0.9L77.1,35z"/>
	<path class="st5" d="M89.7,45h-2.2v-2.7h-5.3v-1.6l5.3-7.9h2.2v7.7h1.8v1.8h-1.8V45z M87.6,35l-3.4,5.4h3.2v-3.3
		c0-0.4,0-0.7,0.1-0.9L87.6,35z"/>
</g>
</svg>
