<svg id="Capa_1" data-name="Capa 1" xmlns="http://www.w3.org/2000/svg" viewBox="0 0 166.36 157.1">
  <defs>
    <style>
      .cls-1, .cls-2 {
        fill: #cb7e42;
      }

      .cls-1 {
        opacity: 0.9;
      }

      .cls-2 {
        opacity: 0.3;
      }

      .cls-3 {
        opacity: 0.8;
      }

      .cls-4 {
        fill: #15202b;
      }

      .cls-5 {
        fill: #ddd;
      }
    </style>
  </defs>
  <title>4c</title>
  <g>
    <circle class="cls-1" cx="6.83" cy="6.83" r="6.83"/>
    <circle class="cls-1" cx="23.8" cy="6.83" r="6.83"/>
    <circle class="cls-1" cx="40.76" cy="6.83" r="6.83"/>
    <circle class="cls-1" cx="57.73" cy="6.83" r="6.83"/>
    <circle class="cls-1" cx="74.7" cy="6.83" r="6.83"/>
    <circle class="cls-1" cx="91.66" cy="6.83" r="6.83"/>
    <circle class="cls-1" cx="108.63" cy="6.83" r="6.83"/>
    <circle class="cls-1" cx="125.59" cy="6.83" r="6.83"/>
    <circle class="cls-1" cx="142.56" cy="6.83" r="6.83"/>
    <circle class="cls-1" cx="159.52" cy="6.83" r="6.83"/>
    <circle class="cls-1" cx="6.83" cy="22.77" r="6.83"/>
    <circle class="cls-1" cx="23.8" cy="22.77" r="6.83"/>
    <circle class="cls-1" cx="40.76" cy="22.77" r="6.83"/>
    <circle class="cls-1" cx="57.73" cy="22.77" r="6.83"/>
    <circle class="cls-1" cx="74.7" cy="22.77" r="6.83"/>
    <circle class="cls-1" cx="91.66" cy="22.77" r="6.83"/>
    <circle class="cls-1" cx="108.63" cy="22.77" r="6.83"/>
    <circle class="cls-1" cx="125.59" cy="22.77" r="6.83"/>
    <circle class="cls-1" cx="142.56" cy="22.77" r="6.83"/>
    <circle class="cls-1" cx="159.52" cy="22.77" r="6.83"/>
    <circle class="cls-1" cx="6.83" cy="38.71" r="6.83"/>
    <circle class="cls-1" cx="23.8" cy="38.71" r="6.83"/>
    <circle class="cls-1" cx="40.76" cy="38.71" r="6.83"/>
    <circle class="cls-1" cx="57.73" cy="38.71" r="6.83"/>
    <circle class="cls-1" cx="74.7" cy="38.71" r="6.83"/>
    <circle class="cls-1" cx="91.66" cy="38.71" r="6.83"/>
    <circle class="cls-1" cx="108.63" cy="38.71" r="6.83"/>
    <circle class="cls-1" cx="125.59" cy="38.71" r="6.83"/>
    <circle class="cls-1" cx="142.56" cy="38.71" r="6.83"/>
    <circle class="cls-1" cx="159.52" cy="38.71" r="6.83"/>
    <circle class="cls-1" cx="6.83" cy="54.65" r="6.83"/>
    <circle class="cls-1" cx="23.8" cy="54.65" r="6.83"/>
    <circle class="cls-1" cx="40.76" cy="54.65" r="6.83"/>
    <circle class="cls-1" cx="57.73" cy="54.65" r="6.83"/>
    <circle class="cls-1" cx="74.7" cy="54.65" r="6.83"/>
    <circle class="cls-1" cx="91.66" cy="54.65" r="6.83"/>
    <circle class="cls-1" cx="108.63" cy="54.65" r="6.83"/>
    <circle class="cls-1" cx="125.59" cy="54.65" r="6.83"/>
    <circle class="cls-1" cx="142.56" cy="54.65" r="6.83"/>
    <circle class="cls-2" cx="159.52" cy="54.65" r="6.83"/>
    <circle class="cls-2" cx="6.83" cy="70.58" r="6.83"/>
    <circle class="cls-2" cx="23.8" cy="70.58" r="6.83"/>
    <circle class="cls-2" cx="40.76" cy="70.58" r="6.83"/>
    <circle class="cls-2" cx="57.73" cy="70.58" r="6.83"/>
    <circle class="cls-2" cx="74.7" cy="70.58" r="6.83"/>
    <circle class="cls-2" cx="91.66" cy="70.58" r="6.83"/>
    <circle class="cls-2" cx="108.63" cy="70.58" r="6.83"/>
    <circle class="cls-2" cx="125.59" cy="70.58" r="6.83"/>
    <circle class="cls-2" cx="142.56" cy="70.58" r="6.83"/>
    <circle class="cls-2" cx="159.52" cy="70.58" r="6.83"/>
    <circle class="cls-2" cx="6.83" cy="86.52" r="6.83"/>
    <circle class="cls-2" cx="23.8" cy="86.52" r="6.83"/>
    <circle class="cls-2" cx="40.76" cy="86.52" r="6.83"/>
    <circle class="cls-2" cx="57.73" cy="86.52" r="6.83"/>
    <circle class="cls-2" cx="74.7" cy="86.52" r="6.83"/>
    <circle class="cls-2" cx="91.66" cy="86.52" r="6.83"/>
    <circle class="cls-2" cx="108.63" cy="86.52" r="6.83"/>
    <circle class="cls-2" cx="125.59" cy="86.52" r="6.83"/>
    <circle class="cls-2" cx="142.56" cy="86.52" r="6.83"/>
    <circle class="cls-2" cx="159.52" cy="86.52" r="6.83"/>
    <circle class="cls-2" cx="6.83" cy="102.46" r="6.83"/>
    <circle class="cls-2" cx="23.8" cy="102.46" r="6.83"/>
    <circle class="cls-2" cx="40.76" cy="102.46" r="6.83"/>
    <circle class="cls-2" cx="57.73" cy="102.46" r="6.83"/>
    <circle class="cls-2" cx="74.7" cy="102.46" r="6.83"/>
    <circle class="cls-2" cx="91.66" cy="102.46" r="6.83"/>
    <circle class="cls-2" cx="108.63" cy="102.46" r="6.83"/>
    <circle class="cls-2" cx="125.59" cy="102.46" r="6.83"/>
    <circle class="cls-2" cx="142.56" cy="102.46" r="6.83"/>
    <circle class="cls-2" cx="159.52" cy="102.46" r="6.83"/>
    <circle class="cls-2" cx="6.83" cy="118.39" r="6.83"/>
    <circle class="cls-2" cx="23.8" cy="118.39" r="6.83"/>
    <circle class="cls-2" cx="40.76" cy="118.39" r="6.83"/>
    <circle class="cls-2" cx="57.73" cy="118.39" r="6.83"/>
    <circle class="cls-2" cx="74.7" cy="118.39" r="6.83"/>
    <circle class="cls-2" cx="91.66" cy="118.39" r="6.83"/>
    <circle class="cls-2" cx="108.63" cy="118.39" r="6.83"/>
    <circle class="cls-2" cx="125.59" cy="118.39" r="6.83"/>
    <circle class="cls-2" cx="142.56" cy="118.39" r="6.83"/>
    <circle class="cls-2" cx="159.52" cy="118.39" r="6.83"/>
    <circle class="cls-2" cx="6.83" cy="134.33" r="6.83"/>
    <circle class="cls-2" cx="23.8" cy="134.33" r="6.83"/>
    <circle class="cls-2" cx="40.76" cy="134.33" r="6.83"/>
    <circle class="cls-2" cx="57.73" cy="134.33" r="6.83"/>
    <circle class="cls-2" cx="74.7" cy="134.33" r="6.83"/>
    <circle class="cls-2" cx="91.66" cy="134.33" r="6.83"/>
    <circle class="cls-2" cx="108.63" cy="134.33" r="6.83"/>
    <circle class="cls-2" cx="125.59" cy="134.33" r="6.83"/>
    <circle class="cls-2" cx="142.56" cy="134.33" r="6.83"/>
    <circle class="cls-2" cx="159.52" cy="134.33" r="6.83"/>
    <circle class="cls-2" cx="6.83" cy="150.27" r="6.83"/>
    <circle class="cls-2" cx="23.8" cy="150.27" r="6.83"/>
    <circle class="cls-2" cx="40.76" cy="150.27" r="6.83"/>
    <circle class="cls-2" cx="57.73" cy="150.27" r="6.83"/>
    <circle class="cls-2" cx="74.7" cy="150.27" r="6.83"/>
    <circle class="cls-2" cx="91.66" cy="150.27" r="6.83"/>
    <circle class="cls-2" cx="108.63" cy="150.27" r="6.83"/>
    <circle class="cls-2" cx="125.59" cy="150.27" r="6.83"/>
    <circle class="cls-2" cx="142.56" cy="150.27" r="6.83"/>
    <circle class="cls-2" cx="159.52" cy="150.27" r="6.83"/>
  </g>
  <g>
    <g class="cls-3">
      <rect class="cls-4" x="47.27" y="26.33" width="71.81" height="25.53"/>
    </g>
    <g>
      <path class="cls-5" d="M69.47,39.73V38h1.1a2.85,2.85,0,0,0,1.64-.44,1.47,1.47,0,0,0,.66-1.31A1.54,1.54,0,0,0,72.31,35a2.26,2.26,0,0,0-1.44-.43,2.39,2.39,0,0,0-2.41,1.74l-2-.34A3.8,3.8,0,0,1,68,33.72a4.87,4.87,0,0,1,2.91-.87,4.79,4.79,0,0,1,2.9.87A2.76,2.76,0,0,1,75,36.06a2.79,2.79,0,0,1-.65,1.87,2.25,2.25,0,0,1-1.59.84,3,3,0,0,1,1.89,1,2.76,2.76,0,0,1,.72,1.92,3.13,3.13,0,0,1-1.24,2.55,5.18,5.18,0,0,1-3.31,1,5,5,0,0,1-3.15-1A4.13,4.13,0,0,1,66.13,42l2.05-.5A2.81,2.81,0,0,0,72.53,43a1.66,1.66,0,0,0,.65-1.31,1.93,1.93,0,0,0-.56-1.36,2.24,2.24,0,0,0-1.69-.58Z"/>
      <path class="cls-5" d="M77.3,42.86l1.81-.52a2.2,2.2,0,0,0,2,1.25,2.28,2.28,0,0,0,2.09-1.26A7.1,7.1,0,0,0,84,38.82a3.24,3.24,0,0,1-1.46,1.56,4.08,4.08,0,0,1-1.68.35A4,4,0,0,1,78,39.67a3.64,3.64,0,0,1-1.13-2.79A3.89,3.89,0,0,1,78.05,34a4.28,4.28,0,0,1,3.12-1.14,4.51,4.51,0,0,1,3.54,1.51,6.32,6.32,0,0,1,1.35,4.34,7.84,7.84,0,0,1-1.3,4.69,4.68,4.68,0,0,1-6.17,1.12A3.36,3.36,0,0,1,77.3,42.86ZM81.22,39a2.45,2.45,0,0,0,1.66-.61,2.22,2.22,0,0,0,.72-1.78A2.07,2.07,0,0,0,83,35.14a2.27,2.27,0,0,0-1.73-.66,2.24,2.24,0,0,0-1.67.66,2.19,2.19,0,0,0-.65,1.61,2.32,2.32,0,0,0,.6,1.54A2.14,2.14,0,0,0,81.22,39Z"/>
      <path class="cls-5" d="M90.15,39.61a2.43,2.43,0,0,1-2-1,3.9,3.9,0,0,1-.76-2.42,3.6,3.6,0,0,1,.77-2.34,2.49,2.49,0,0,1,2-.94,2.42,2.42,0,0,1,2.13,1A3.88,3.88,0,0,1,93,36.18a3.61,3.61,0,0,1-.83,2.5A2.59,2.59,0,0,1,90.15,39.61Zm0-1.31c.81,0,1.21-.7,1.21-2.1s-.39-2-1.17-2-1.19.67-1.19,2S89.39,38.3,90.16,38.3Zm8-5.27L90.69,45H89.37l7.45-12Zm-.88,12.1a2.46,2.46,0,0,1-2-.91,3.48,3.48,0,0,1-.78-2.32,3.62,3.62,0,0,1,.86-2.54,2.68,2.68,0,0,1,2-.92,2.58,2.58,0,0,1,1.91.86,3.58,3.58,0,0,1,.85,2.6,3.33,3.33,0,0,1-.82,2.35A2.65,2.65,0,0,1,97.24,45.13Zm.07-1.27a1,1,0,0,0,.91-.6,3.23,3.23,0,0,0,.29-1.39,3.56,3.56,0,0,0-.28-1.62.92.92,0,0,0-.85-.49c-.83,0-1.25.69-1.25,2.05S96.53,43.86,97.31,43.86Z"/>
    </g>
  </g>
</svg>
