<?xml version="1.0" encoding="utf-8"?>
<!-- Generator: Adobe Illustrator 24.0.2, SVG Export Plug-In . SVG Version: 6.00 Build 0)  -->
<svg version="1.1" id="Capa_1" xmlns="http://www.w3.org/2000/svg" xmlns:xlink="http://www.w3.org/1999/xlink" x="0px" y="0px"
	 viewBox="0 0 166.4 157.1" style="enable-background:new 0 0 166.4 157.1;" xml:space="preserve">
<style type="text/css">
	.st0{opacity:0.9;fill:#CB7E42;enable-background:new    ;}
	.st1{opacity:0.3;fill:#CB7E42;enable-background:new    ;}
	.st2{opacity:0.8;}
	.st3{fill:#15202B;}
	.st4{enable-background:new    ;}
	.st5{fill:#DDDDDD;}
</style>
<title>4c</title>
<circle class="st0" cx="6.8" cy="6.8" r="6.8"/>
<circle class="st0" cx="23.8" cy="6.8" r="6.8"/>
<circle class="st0" cx="40.8" cy="6.8" r="6.8"/>
<circle class="st0" cx="57.7" cy="6.8" r="6.8"/>
<circle class="st0" cx="74.7" cy="6.8" r="6.8"/>
<circle class="st0" cx="91.7" cy="6.8" r="6.8"/>
<circle class="st0" cx="108.6" cy="6.8" r="6.8"/>
<circle class="st0" cx="125.6" cy="6.8" r="6.8"/>
<circle class="st0" cx="142.6" cy="6.8" r="6.8"/>
<circle class="st0" cx="159.5" cy="6.8" r="6.8"/>
<circle class="st0" cx="6.8" cy="22.8" r="6.8"/>
<circle class="st0" cx="23.8" cy="22.8" r="6.8"/>
<circle class="st0" cx="40.8" cy="22.8" r="6.8"/>
<circle class="st0" cx="57.7" cy="22.8" r="6.8"/>
<circle class="st0" cx="74.7" cy="22.8" r="6.8"/>
<circle class="st0" cx="91.7" cy="22.8" r="6.8"/>
<circle class="st0" cx="108.6" cy="22.8" r="6.8"/>
<circle class="st0" cx="125.6" cy="22.8" r="6.8"/>
<circle class="st0" cx="142.6" cy="22.8" r="6.8"/>
<circle class="st0" cx="159.5" cy="22.8" r="6.8"/>
<circle class="st0" cx="6.8" cy="38.7" r="6.8"/>
<circle class="st0" cx="23.8" cy="38.7" r="6.8"/>
<circle class="st0" cx="40.8" cy="38.7" r="6.8"/>
<circle class="st0" cx="57.7" cy="38.7" r="6.8"/>
<circle class="st0" cx="74.7" cy="38.7" r="6.8"/>
<circle class="st0" cx="91.7" cy="38.7" r="6.8"/>
<circle class="st0" cx="108.6" cy="38.7" r="6.8"/>
<circle class="st0" cx="125.6" cy="38.7" r="6.8"/>
<circle class="st0" cx="142.6" cy="38.7" r="6.8"/>
<circle class="st0" cx="159.5" cy="38.7" r="6.8"/>
<circle class="st0" cx="6.8" cy="54.7" r="6.8"/>
<circle class="st0" cx="23.8" cy="54.7" r="6.8"/>
<circle class="st0" cx="40.8" cy="54.7" r="6.8"/>
<circle class="st0" cx="57.7" cy="54.7" r="6.8"/>
<circle class="st0" cx="74.7" cy="54.7" r="6.8"/>
<circle class="st0" cx="91.7" cy="54.7" r="6.8"/>
<circle class="st0" cx="108.6" cy="54.7" r="6.8"/>
<circle class="st0" cx="125.6" cy="54.7" r="6.8"/>
<circle class="st0" cx="142.6" cy="54.7" r="6.8"/>
<circle class="st1" cx="159.5" cy="54.7" r="6.8"/>
<circle class="st1" cx="6.8" cy="70.6" r="6.8"/>
<circle class="st1" cx="23.8" cy="70.6" r="6.8"/>
<circle class="st1" cx="40.8" cy="70.6" r="6.8"/>
<circle class="st1" cx="57.7" cy="70.6" r="6.8"/>
<circle class="st1" cx="74.7" cy="70.6" r="6.8"/>
<circle class="st1" cx="91.7" cy="70.6" r="6.8"/>
<circle class="st1" cx="108.6" cy="70.6" r="6.8"/>
<circle class="st1" cx="125.6" cy="70.6" r="6.8"/>
<circle class="st1" cx="142.6" cy="70.6" r="6.8"/>
<circle class="st1" cx="159.5" cy="70.6" r="6.8"/>
<circle class="st1" cx="6.8" cy="86.5" r="6.8"/>
<circle class="st1" cx="23.8" cy="86.5" r="6.8"/>
<circle class="st1" cx="40.8" cy="86.5" r="6.8"/>
<circle class="st1" cx="57.7" cy="86.5" r="6.8"/>
<circle class="st1" cx="74.7" cy="86.5" r="6.8"/>
<circle class="st1" cx="91.7" cy="86.5" r="6.8"/>
<circle class="st1" cx="108.6" cy="86.5" r="6.8"/>
<circle class="st1" cx="125.6" cy="86.5" r="6.8"/>
<circle class="st1" cx="142.6" cy="86.5" r="6.8"/>
<circle class="st1" cx="159.5" cy="86.5" r="6.8"/>
<circle class="st1" cx="6.8" cy="102.5" r="6.8"/>
<circle class="st1" cx="23.8" cy="102.5" r="6.8"/>
<circle class="st1" cx="40.8" cy="102.5" r="6.8"/>
<circle class="st1" cx="57.7" cy="102.5" r="6.8"/>
<circle class="st1" cx="74.7" cy="102.5" r="6.8"/>
<circle class="st1" cx="91.7" cy="102.5" r="6.8"/>
<circle class="st1" cx="108.6" cy="102.5" r="6.8"/>
<circle class="st1" cx="125.6" cy="102.5" r="6.8"/>
<circle class="st1" cx="142.6" cy="102.5" r="6.8"/>
<circle class="st1" cx="159.5" cy="102.5" r="6.8"/>
<circle class="st1" cx="6.8" cy="118.4" r="6.8"/>
<circle class="st1" cx="23.8" cy="118.4" r="6.8"/>
<circle class="st1" cx="40.8" cy="118.4" r="6.8"/>
<circle class="st1" cx="57.7" cy="118.4" r="6.8"/>
<circle class="st1" cx="74.7" cy="118.4" r="6.8"/>
<circle class="st1" cx="91.7" cy="118.4" r="6.8"/>
<circle class="st1" cx="108.6" cy="118.4" r="6.8"/>
<circle class="st1" cx="125.6" cy="118.4" r="6.8"/>
<circle class="st1" cx="142.6" cy="118.4" r="6.8"/>
<circle class="st1" cx="159.5" cy="118.4" r="6.8"/>
<circle class="st1" cx="6.8" cy="134.3" r="6.8"/>
<circle class="st1" cx="23.8" cy="134.3" r="6.8"/>
<circle class="st1" cx="40.8" cy="134.3" r="6.8"/>
<circle class="st1" cx="57.7" cy="134.3" r="6.8"/>
<circle class="st1" cx="74.7" cy="134.3" r="6.8"/>
<circle class="st1" cx="91.7" cy="134.3" r="6.8"/>
<circle class="st1" cx="108.6" cy="134.3" r="6.8"/>
<circle class="st1" cx="125.6" cy="134.3" r="6.8"/>
<circle class="st1" cx="142.6" cy="134.3" r="6.8"/>
<circle class="st1" cx="159.5" cy="134.3" r="6.8"/>
<circle class="st1" cx="6.8" cy="150.3" r="6.8"/>
<circle class="st1" cx="23.8" cy="150.3" r="6.8"/>
<circle class="st1" cx="40.8" cy="150.3" r="6.8"/>
<circle class="st1" cx="57.7" cy="150.3" r="6.8"/>
<circle class="st1" cx="74.7" cy="150.3" r="6.8"/>
<circle class="st1" cx="91.7" cy="150.3" r="6.8"/>
<circle class="st1" cx="108.6" cy="150.3" r="6.8"/>
<circle class="st1" cx="125.6" cy="150.3" r="6.8"/>
<circle class="st1" cx="142.6" cy="150.3" r="6.8"/>
<circle class="st1" cx="159.5" cy="150.3" r="6.8"/>
<g class="st2">
	<rect x="47.4" y="26.3" class="st3" width="71.8" height="25.5"/>
</g>
<g class="st4">
	<path class="st5" d="M74.7,39.7V38h1.1c0.7,0,1.2-0.1,1.6-0.4s0.7-0.7,0.7-1.3c0-0.6-0.2-1-0.6-1.3s-0.9-0.4-1.4-0.4
		c-1.2,0-2,0.6-2.4,1.7l-2-0.3c0.2-0.9,0.7-1.7,1.5-2.2s1.8-0.9,2.9-0.9c1.1,0,2.1,0.3,2.9,0.9s1.2,1.4,1.2,2.3
		c0,0.7-0.2,1.3-0.6,1.9s-1,0.8-1.6,0.8c0.8,0.1,1.4,0.4,1.9,1s0.7,1.2,0.7,1.9c0,1-0.4,1.9-1.2,2.5s-1.9,1-3.3,1
		c-1.3,0-2.3-0.3-3.2-1c-0.8-0.6-1.4-1.4-1.6-2.2l2-0.5c0.4,1.3,1.3,2,2.7,2c0.7,0,1.3-0.2,1.7-0.5c0.4-0.4,0.6-0.8,0.6-1.3
		c0-0.5-0.2-1-0.6-1.4s-0.9-0.6-1.7-0.6H74.7z"/>
	<path class="st5" d="M82.6,42.9l1.8-0.5c0.5,0.8,1.1,1.2,2,1.2c0.9,0,1.6-0.4,2.1-1.3s0.7-2,0.7-3.5c-0.4,0.8-0.9,1.3-1.5,1.6
		s-1.1,0.3-1.7,0.3c-1.1,0-2.1-0.4-2.8-1.1c-0.8-0.7-1.1-1.6-1.1-2.8c0-1.2,0.4-2.1,1.2-2.9c0.8-0.8,1.8-1.1,3.1-1.1
		c1.5,0,2.6,0.5,3.5,1.5c0.9,1,1.3,2.5,1.3,4.3c0,1.9-0.4,3.5-1.3,4.7s-2.1,1.8-3.7,1.8c-1,0-1.8-0.2-2.5-0.7
		C83.2,44,82.8,43.5,82.6,42.9z M86.5,39c0.6,0,1.2-0.2,1.7-0.6s0.7-1,0.7-1.8c0-0.5-0.2-1-0.6-1.5c-0.4-0.4-1-0.7-1.7-0.7
		c-0.7,0-1.2,0.2-1.7,0.7c-0.4,0.4-0.6,1-0.6,1.6c0,0.6,0.2,1.1,0.6,1.5S85.8,39,86.5,39z"/>
</g>
</svg>
