<?xml version="1.0" encoding="utf-8"?>
<!-- Generator: Adobe Illustrator 24.0.2, SVG Export Plug-In . SVG Version: 6.00 Build 0)  -->
<svg version="1.1" id="Capa_1" xmlns="http://www.w3.org/2000/svg" xmlns:xlink="http://www.w3.org/1999/xlink" x="0px" y="0px"
	 viewBox="0 0 166.4 157.1" style="enable-background:new 0 0 166.4 157.1;" xml:space="preserve">
<style type="text/css">
	.st0{opacity:0.9;}
	.st1{opacity:0.9;fill:#FBD59A;enable-background:new    ;}
	.st2{opacity:0.3;fill:#FBD59A;enable-background:new    ;}
	.st3{opacity:0.8;}
	.st4{fill:#15202B;}
	.st5{enable-background:new    ;}
	.st6{fill:#DDDDDD;}
</style>
<title>4d</title>
<g class="st0">
	<circle class="st1" cx="6.8" cy="6.8" r="6.8"/>
	<circle class="st1" cx="23.8" cy="6.8" r="6.8"/>
	<circle class="st1" cx="40.8" cy="6.8" r="6.8"/>
	<circle class="st1" cx="57.7" cy="6.8" r="6.8"/>
	<circle class="st1" cx="74.7" cy="6.8" r="6.8"/>
	<circle class="st1" cx="91.7" cy="6.8" r="6.8"/>
	<circle class="st1" cx="108.6" cy="6.8" r="6.8"/>
	<circle class="st1" cx="125.6" cy="6.8" r="6.8"/>
	<circle class="st1" cx="142.6" cy="6.8" r="6.8"/>
	<circle class="st1" cx="159.5" cy="6.8" r="6.8"/>
	<circle class="st1" cx="6.8" cy="22.8" r="6.8"/>
	<circle class="st1" cx="23.8" cy="22.8" r="6.8"/>
	<circle class="st1" cx="40.8" cy="22.8" r="6.8"/>
	<circle class="st1" cx="57.7" cy="22.8" r="6.8"/>
	<circle class="st1" cx="74.7" cy="22.8" r="6.8"/>
	<circle class="st1" cx="91.7" cy="22.8" r="6.8"/>
	<circle class="st1" cx="108.6" cy="22.8" r="6.8"/>
	<circle class="st1" cx="125.6" cy="22.8" r="6.8"/>
	<circle class="st1" cx="142.6" cy="22.8" r="6.8"/>
	<circle class="st1" cx="159.5" cy="22.8" r="6.8"/>
	<circle class="st1" cx="6.8" cy="38.7" r="6.8"/>
	<circle class="st1" cx="23.8" cy="38.7" r="6.8"/>
	<circle class="st1" cx="40.8" cy="38.7" r="6.8"/>
	<circle class="st1" cx="57.7" cy="38.7" r="6.8"/>
	<circle class="st1" cx="74.7" cy="38.7" r="6.8"/>
	<circle class="st1" cx="91.7" cy="38.7" r="6.8"/>
	<circle class="st1" cx="108.6" cy="38.7" r="6.8"/>
	<circle class="st1" cx="125.6" cy="38.7" r="6.8"/>
	<circle class="st2" cx="142.6" cy="38.7" r="6.8"/>
	<circle class="st2" cx="159.5" cy="38.7" r="6.8"/>
	<circle class="st2" cx="6.8" cy="54.7" r="6.8"/>
	<circle class="st2" cx="23.8" cy="54.7" r="6.8"/>
	<circle class="st2" cx="40.8" cy="54.7" r="6.8"/>
	<circle class="st2" cx="57.7" cy="54.7" r="6.8"/>
	<circle class="st2" cx="74.7" cy="54.7" r="6.8"/>
	<circle class="st2" cx="91.7" cy="54.7" r="6.8"/>
	<circle class="st2" cx="108.6" cy="54.7" r="6.8"/>
	<circle class="st2" cx="125.6" cy="54.7" r="6.8"/>
	<circle class="st2" cx="142.6" cy="54.7" r="6.8"/>
	<circle class="st2" cx="159.5" cy="54.7" r="6.8"/>
	<circle class="st2" cx="6.8" cy="70.6" r="6.8"/>
	<circle class="st2" cx="23.8" cy="70.6" r="6.8"/>
	<circle class="st2" cx="40.8" cy="70.6" r="6.8"/>
	<circle class="st2" cx="57.7" cy="70.6" r="6.8"/>
	<circle class="st2" cx="74.7" cy="70.6" r="6.8"/>
	<circle class="st2" cx="91.7" cy="70.6" r="6.8"/>
	<circle class="st2" cx="108.6" cy="70.6" r="6.8"/>
	<circle class="st2" cx="125.6" cy="70.6" r="6.8"/>
	<circle class="st2" cx="142.6" cy="70.6" r="6.8"/>
	<circle class="st2" cx="159.5" cy="70.6" r="6.8"/>
	<circle class="st2" cx="6.8" cy="86.5" r="6.8"/>
	<circle class="st2" cx="23.8" cy="86.5" r="6.8"/>
	<circle class="st2" cx="40.8" cy="86.5" r="6.8"/>
	<circle class="st2" cx="57.7" cy="86.5" r="6.8"/>
	<circle class="st2" cx="74.7" cy="86.5" r="6.8"/>
	<circle class="st2" cx="91.7" cy="86.5" r="6.8"/>
	<circle class="st2" cx="108.6" cy="86.5" r="6.8"/>
	<circle class="st2" cx="125.6" cy="86.5" r="6.8"/>
	<circle class="st2" cx="142.6" cy="86.5" r="6.8"/>
	<circle class="st2" cx="159.5" cy="86.5" r="6.8"/>
	<circle class="st2" cx="6.8" cy="102.5" r="6.8"/>
	<circle class="st2" cx="23.8" cy="102.5" r="6.8"/>
	<circle class="st2" cx="40.8" cy="102.5" r="6.8"/>
	<circle class="st2" cx="57.7" cy="102.5" r="6.8"/>
	<circle class="st2" cx="74.7" cy="102.5" r="6.8"/>
	<circle class="st2" cx="91.7" cy="102.5" r="6.8"/>
	<circle class="st2" cx="108.6" cy="102.5" r="6.8"/>
	<circle class="st2" cx="125.6" cy="102.5" r="6.8"/>
	<circle class="st2" cx="142.6" cy="102.5" r="6.8"/>
	<circle class="st2" cx="159.5" cy="102.5" r="6.8"/>
	<circle class="st2" cx="6.8" cy="118.4" r="6.8"/>
	<circle class="st2" cx="23.8" cy="118.4" r="6.8"/>
	<circle class="st2" cx="40.8" cy="118.4" r="6.8"/>
	<circle class="st2" cx="57.7" cy="118.4" r="6.8"/>
	<circle class="st2" cx="74.7" cy="118.4" r="6.8"/>
	<circle class="st2" cx="91.7" cy="118.4" r="6.8"/>
	<circle class="st2" cx="108.6" cy="118.4" r="6.8"/>
	<circle class="st2" cx="125.6" cy="118.4" r="6.8"/>
	<circle class="st2" cx="142.6" cy="118.4" r="6.8"/>
	<circle class="st2" cx="159.5" cy="118.4" r="6.8"/>
	<circle class="st2" cx="6.8" cy="134.3" r="6.8"/>
	<circle class="st2" cx="23.8" cy="134.3" r="6.8"/>
	<circle class="st2" cx="40.8" cy="134.3" r="6.8"/>
	<circle class="st2" cx="57.7" cy="134.3" r="6.8"/>
	<circle class="st2" cx="74.7" cy="134.3" r="6.8"/>
	<circle class="st2" cx="91.7" cy="134.3" r="6.8"/>
	<circle class="st2" cx="108.6" cy="134.3" r="6.8"/>
	<circle class="st2" cx="125.6" cy="134.3" r="6.8"/>
	<circle class="st2" cx="142.6" cy="134.3" r="6.8"/>
	<circle class="st2" cx="159.5" cy="134.3" r="6.8"/>
	<circle class="st2" cx="6.8" cy="150.3" r="6.8"/>
	<circle class="st2" cx="23.8" cy="150.3" r="6.8"/>
	<circle class="st2" cx="40.8" cy="150.3" r="6.8"/>
	<circle class="st2" cx="57.7" cy="150.3" r="6.8"/>
	<circle class="st2" cx="74.7" cy="150.3" r="6.8"/>
	<circle class="st2" cx="91.7" cy="150.3" r="6.8"/>
	<circle class="st2" cx="108.6" cy="150.3" r="6.8"/>
	<circle class="st2" cx="125.6" cy="150.3" r="6.8"/>
	<circle class="st2" cx="142.6" cy="150.3" r="6.8"/>
	<circle class="st2" cx="159.5" cy="150.3" r="6.8"/>
</g>
<g class="st3">
	<rect x="47.4" y="26.3" class="st4" width="71.8" height="25.5"/>
</g>
<g class="st5">
	<path class="st6" d="M80.6,43.2V45h-8.8v-2.1l3.7-2.4c1.1-0.8,1.9-1.4,2.3-2c0.4-0.6,0.6-1.1,0.6-1.6c0-0.6-0.2-1.1-0.6-1.5
		s-0.9-0.6-1.5-0.6c-1.4,0-2.2,0.8-2.4,2.5l-2.1-0.5c0.2-1.1,0.6-2,1.4-2.7s1.8-1.1,3.1-1.1c1.3,0,2.4,0.4,3.2,1.1
		c0.8,0.8,1.2,1.7,1.2,2.9c0,1-0.4,1.9-1.1,2.7s-2.4,2-5.2,3.6H80.6z"/>
	<path class="st6" d="M84.6,39.1c-1.4-0.6-2.1-1.6-2.1-2.9c0-1,0.4-1.8,1.2-2.4c0.8-0.6,1.9-1,3.3-1c1.3,0,2.3,0.3,3.1,0.9
		s1.2,1.3,1.2,2.3c0,1.1-0.7,2-2.1,2.6c1.7,0.7,2.6,1.8,2.6,3.2c0,1-0.4,1.8-1.3,2.5s-2,1-3.5,1c-1.6,0-2.7-0.3-3.5-0.9
		C82.4,43.7,82,42.9,82,42C82,40.7,82.9,39.7,84.6,39.1z M86.1,39.8c-0.6,0.2-1.1,0.5-1.4,0.9c-0.4,0.4-0.5,0.8-0.5,1.2
		c0,0.4,0.2,0.8,0.7,1.2s1.1,0.6,2.1,0.6c0.8,0,1.4-0.2,1.8-0.5c0.4-0.3,0.7-0.7,0.7-1.2c0-0.4-0.2-0.8-0.6-1.1S87.5,40.3,86.1,39.8
		z M87.5,37.9c1.1-0.5,1.7-1.1,1.7-1.9c0-0.5-0.2-0.9-0.7-1.2s-1-0.4-1.6-0.4c-0.6,0-1.1,0.1-1.6,0.4s-0.7,0.6-0.7,1.2
		c0,0.5,0.2,0.9,0.7,1.2S86.5,37.7,87.5,37.9z"/>
</g>
</svg>
