<svg id="Capa_1" data-name="Capa 1" xmlns="http://www.w3.org/2000/svg" viewBox="0 0 166.36 157.1">
  <defs>
    <style>
      .cls-1, .cls-2 {
        opacity: 0.9;
      }

      .cls-2, .cls-3 {
        fill: #fbd59a;
      }

      .cls-3 {
        opacity: 0.3;
      }

      .cls-4 {
        opacity: 0.8;
      }

      .cls-5 {
        fill: #15202b;
      }

      .cls-6 {
        fill: #ddd;
      }
    </style>
  </defs>
  <title>4d</title>
  <g class="cls-1">
    <circle class="cls-2" cx="6.83" cy="6.83" r="6.83"/>
    <circle class="cls-2" cx="23.8" cy="6.83" r="6.83"/>
    <circle class="cls-2" cx="40.76" cy="6.83" r="6.83"/>
    <circle class="cls-2" cx="57.73" cy="6.83" r="6.83"/>
    <circle class="cls-2" cx="74.7" cy="6.83" r="6.83"/>
    <circle class="cls-2" cx="91.66" cy="6.83" r="6.83"/>
    <circle class="cls-2" cx="108.63" cy="6.83" r="6.83"/>
    <circle class="cls-2" cx="125.59" cy="6.83" r="6.83"/>
    <circle class="cls-2" cx="142.56" cy="6.83" r="6.83"/>
    <circle class="cls-2" cx="159.52" cy="6.83" r="6.83"/>
    <circle class="cls-2" cx="6.83" cy="22.77" r="6.83"/>
    <circle class="cls-2" cx="23.8" cy="22.77" r="6.83"/>
    <circle class="cls-2" cx="40.76" cy="22.77" r="6.83"/>
    <circle class="cls-2" cx="57.73" cy="22.77" r="6.83"/>
    <circle class="cls-2" cx="74.7" cy="22.77" r="6.83"/>
    <circle class="cls-2" cx="91.66" cy="22.77" r="6.83"/>
    <circle class="cls-2" cx="108.63" cy="22.77" r="6.83"/>
    <circle class="cls-2" cx="125.59" cy="22.77" r="6.83"/>
    <circle class="cls-2" cx="142.56" cy="22.77" r="6.83"/>
    <circle class="cls-2" cx="159.52" cy="22.77" r="6.83"/>
    <circle class="cls-2" cx="6.83" cy="38.71" r="6.83"/>
    <circle class="cls-2" cx="23.8" cy="38.71" r="6.83"/>
    <circle class="cls-2" cx="40.76" cy="38.71" r="6.83"/>
    <circle class="cls-2" cx="57.73" cy="38.71" r="6.83"/>
    <circle class="cls-2" cx="74.7" cy="38.71" r="6.83"/>
    <circle class="cls-2" cx="91.66" cy="38.71" r="6.83"/>
    <circle class="cls-2" cx="108.63" cy="38.71" r="6.83"/>
    <circle class="cls-2" cx="125.59" cy="38.71" r="6.83"/>
    <circle class="cls-3" cx="142.56" cy="38.71" r="6.83"/>
    <circle class="cls-3" cx="159.52" cy="38.71" r="6.83"/>
    <circle class="cls-3" cx="6.83" cy="54.65" r="6.83"/>
    <circle class="cls-3" cx="23.8" cy="54.65" r="6.83"/>
    <circle class="cls-3" cx="40.76" cy="54.65" r="6.83"/>
    <circle class="cls-3" cx="57.73" cy="54.65" r="6.83"/>
    <circle class="cls-3" cx="74.7" cy="54.65" r="6.83"/>
    <circle class="cls-3" cx="91.66" cy="54.65" r="6.83"/>
    <circle class="cls-3" cx="108.63" cy="54.65" r="6.83"/>
    <circle class="cls-3" cx="125.59" cy="54.65" r="6.83"/>
    <circle class="cls-3" cx="142.56" cy="54.65" r="6.83"/>
    <circle class="cls-3" cx="159.52" cy="54.65" r="6.83"/>
    <circle class="cls-3" cx="6.83" cy="70.58" r="6.83"/>
    <circle class="cls-3" cx="23.8" cy="70.58" r="6.83"/>
    <circle class="cls-3" cx="40.76" cy="70.58" r="6.83"/>
    <circle class="cls-3" cx="57.73" cy="70.58" r="6.83"/>
    <circle class="cls-3" cx="74.7" cy="70.58" r="6.83"/>
    <circle class="cls-3" cx="91.66" cy="70.58" r="6.83"/>
    <circle class="cls-3" cx="108.63" cy="70.58" r="6.83"/>
    <circle class="cls-3" cx="125.59" cy="70.58" r="6.83"/>
    <circle class="cls-3" cx="142.56" cy="70.58" r="6.83"/>
    <circle class="cls-3" cx="159.52" cy="70.58" r="6.83"/>
    <circle class="cls-3" cx="6.83" cy="86.52" r="6.83"/>
    <circle class="cls-3" cx="23.8" cy="86.52" r="6.83"/>
    <circle class="cls-3" cx="40.76" cy="86.52" r="6.83"/>
    <circle class="cls-3" cx="57.73" cy="86.52" r="6.83"/>
    <circle class="cls-3" cx="74.7" cy="86.52" r="6.83"/>
    <circle class="cls-3" cx="91.66" cy="86.52" r="6.83"/>
    <circle class="cls-3" cx="108.63" cy="86.52" r="6.83"/>
    <circle class="cls-3" cx="125.59" cy="86.52" r="6.83"/>
    <circle class="cls-3" cx="142.56" cy="86.52" r="6.83"/>
    <circle class="cls-3" cx="159.52" cy="86.52" r="6.83"/>
    <circle class="cls-3" cx="6.83" cy="102.46" r="6.83"/>
    <circle class="cls-3" cx="23.8" cy="102.46" r="6.83"/>
    <circle class="cls-3" cx="40.76" cy="102.46" r="6.83"/>
    <circle class="cls-3" cx="57.73" cy="102.46" r="6.83"/>
    <circle class="cls-3" cx="74.7" cy="102.46" r="6.83"/>
    <circle class="cls-3" cx="91.66" cy="102.46" r="6.83"/>
    <circle class="cls-3" cx="108.63" cy="102.46" r="6.83"/>
    <circle class="cls-3" cx="125.59" cy="102.46" r="6.83"/>
    <circle class="cls-3" cx="142.56" cy="102.46" r="6.83"/>
    <circle class="cls-3" cx="159.52" cy="102.46" r="6.83"/>
    <circle class="cls-3" cx="6.83" cy="118.39" r="6.83"/>
    <circle class="cls-3" cx="23.8" cy="118.39" r="6.83"/>
    <circle class="cls-3" cx="40.76" cy="118.39" r="6.83"/>
    <circle class="cls-3" cx="57.73" cy="118.39" r="6.83"/>
    <circle class="cls-3" cx="74.7" cy="118.39" r="6.83"/>
    <circle class="cls-3" cx="91.66" cy="118.39" r="6.83"/>
    <circle class="cls-3" cx="108.63" cy="118.39" r="6.83"/>
    <circle class="cls-3" cx="125.59" cy="118.39" r="6.83"/>
    <circle class="cls-3" cx="142.56" cy="118.39" r="6.83"/>
    <circle class="cls-3" cx="159.52" cy="118.39" r="6.83"/>
    <circle class="cls-3" cx="6.83" cy="134.33" r="6.83"/>
    <circle class="cls-3" cx="23.8" cy="134.33" r="6.83"/>
    <circle class="cls-3" cx="40.76" cy="134.33" r="6.83"/>
    <circle class="cls-3" cx="57.73" cy="134.33" r="6.83"/>
    <circle class="cls-3" cx="74.7" cy="134.33" r="6.83"/>
    <circle class="cls-3" cx="91.66" cy="134.33" r="6.83"/>
    <circle class="cls-3" cx="108.63" cy="134.33" r="6.83"/>
    <circle class="cls-3" cx="125.59" cy="134.33" r="6.83"/>
    <circle class="cls-3" cx="142.56" cy="134.33" r="6.83"/>
    <circle class="cls-3" cx="159.52" cy="134.33" r="6.83"/>
    <circle class="cls-3" cx="6.83" cy="150.27" r="6.83"/>
    <circle class="cls-3" cx="23.8" cy="150.27" r="6.83"/>
    <circle class="cls-3" cx="40.76" cy="150.27" r="6.83"/>
    <circle class="cls-3" cx="57.73" cy="150.27" r="6.83"/>
    <circle class="cls-3" cx="74.7" cy="150.27" r="6.83"/>
    <circle class="cls-3" cx="91.66" cy="150.27" r="6.83"/>
    <circle class="cls-3" cx="108.63" cy="150.27" r="6.83"/>
    <circle class="cls-3" cx="125.59" cy="150.27" r="6.83"/>
    <circle class="cls-3" cx="142.56" cy="150.27" r="6.83"/>
    <circle class="cls-3" cx="159.52" cy="150.27" r="6.83"/>
  </g>
  <g>
    <g class="cls-4">
      <rect class="cls-5" x="47.27" y="26.33" width="71.81" height="25.53"/>
    </g>
    <g>
      <path class="cls-6" d="M75.28,43.16V45H66.43v-2.1l3.68-2.45a8.35,8.35,0,0,0,2.3-2A3,3,0,0,0,73,36.84a2.1,2.1,0,0,0-.59-1.5,2,2,0,0,0-1.53-.6c-1.37,0-2.16.83-2.36,2.5l-2.09-.52A4.68,4.68,0,0,1,67.85,34,4.3,4.3,0,0,1,71,32.85,4.4,4.4,0,0,1,74.13,34a3.79,3.79,0,0,1,1.18,2.87,4.06,4.06,0,0,1-1,2.74A23.31,23.31,0,0,1,69,43.16Z"/>
      <path class="cls-6" d="M79.28,39.1a3.08,3.08,0,0,1-2.1-2.87,3,3,0,0,1,1.16-2.43,6,6,0,0,1,6.32-.1A2.67,2.67,0,0,1,85.81,36c0,1.14-.71,2-2.13,2.6,1.74.74,2.61,1.8,2.61,3.15A3,3,0,0,1,85,44.22a7,7,0,0,1-7,.07,2.79,2.79,0,0,1-1.2-2.3C76.74,40.67,77.59,39.71,79.28,39.1Zm1.49.72a3.64,3.64,0,0,0-1.42.87,1.72,1.72,0,0,0-.53,1.19,1.56,1.56,0,0,0,.67,1.21,4.06,4.06,0,0,0,3.9.1A1.31,1.31,0,0,0,83.51,41,10,10,0,0,0,80.77,39.82Zm1.41-1.88c1.11-.46,1.67-1.1,1.67-1.91a1.4,1.4,0,0,0-.68-1.24,2.83,2.83,0,0,0-1.57-.44,3,3,0,0,0-1.58.4,1.26,1.26,0,0,0-.67,1.15,1.29,1.29,0,0,0,.73,1.19A10.81,10.81,0,0,0,82.18,37.94Z"/>
      <path class="cls-6" d="M90.15,39.61a2.43,2.43,0,0,1-2-1,3.84,3.84,0,0,1-.76-2.42,3.6,3.6,0,0,1,.77-2.34,2.49,2.49,0,0,1,2-.94,2.42,2.42,0,0,1,2.13,1A3.88,3.88,0,0,1,93,36.18a3.61,3.61,0,0,1-.83,2.5A2.59,2.59,0,0,1,90.15,39.61Zm0-1.31c.81,0,1.21-.7,1.21-2.1s-.39-2-1.17-2-1.19.67-1.19,2S89.39,38.3,90.16,38.3Zm8-5.27L90.69,45H89.37l7.45-12Zm-.88,12.1a2.44,2.44,0,0,1-2-.91,3.48,3.48,0,0,1-.78-2.32,3.62,3.62,0,0,1,.86-2.54,2.68,2.68,0,0,1,2-.92,2.58,2.58,0,0,1,1.91.86,3.58,3.58,0,0,1,.85,2.6,3.38,3.38,0,0,1-.82,2.35A2.65,2.65,0,0,1,97.24,45.13Zm.07-1.27a1,1,0,0,0,.91-.6,3.23,3.23,0,0,0,.29-1.39,3.56,3.56,0,0,0-.28-1.62.93.93,0,0,0-.85-.49c-.83,0-1.25.69-1.25,2.05S96.53,43.86,97.31,43.86Z"/>
    </g>
  </g>
</svg>
