<?xml version="1.0" encoding="utf-8"?>
<!-- Generator: Adobe Illustrator 24.0.2, SVG Export Plug-In . SVG Version: 6.00 Build 0)  -->
<svg version="1.1" id="Capa_1" xmlns="http://www.w3.org/2000/svg" xmlns:xlink="http://www.w3.org/1999/xlink" x="0px" y="0px"
	 viewBox="0 0 634.6 94.9" style="enable-background:new 0 0 634.6 94.9;" xml:space="preserve">
<style type="text/css">
	.st0{fill:none;stroke:#DDDDDD;stroke-width:0.5;stroke-miterlimit:10;}
	.st1{opacity:0.9;fill:#FBD59A;enable-background:new    ;}
	.st2{opacity:0.9;fill:#CB7E42;enable-background:new    ;}
	.st3{enable-background:new    ;}
	.st4{fill:#DCDCDC;}
	.st5{fill:none;stroke:#DCDCDC;stroke-width:0.5;stroke-miterlimit:10;}
	.st6{fill:#DDDDDD;}
</style>
<title>5a</title>
<line class="st0" x1="25.4" y1="65.5" x2="554.9" y2="65.5"/>
<circle class="st1" cx="474.6" cy="65.5" r="8.6"/>
<ellipse transform="matrix(0.2298 -0.9732 0.9732 0.2298 342.5326 563.9561)" class="st2" cx="527.6" cy="65.6" rx="8.6" ry="8.6"/>
<line class="st0" x1="31.9" y1="59" x2="31.9" y2="73"/>
<line class="st0" x1="548.9" y1="59" x2="548.9" y2="73"/>
<g class="st3">
	<path class="st4" d="M464.8,93.1v1.7h-7.9v-1.9l3.3-2.2c1-0.7,1.7-1.3,2-1.8s0.5-1,0.5-1.4c0-0.5-0.2-1-0.5-1.3
		c-0.3-0.4-0.8-0.5-1.4-0.5c-1.2,0-1.9,0.7-2.1,2.2l-1.9-0.5c0.1-0.9,0.6-1.8,1.3-2.4c0.7-0.7,1.6-1,2.8-1c1.2,0,2.1,0.3,2.8,1
		s1.1,1.5,1.1,2.6c0,0.9-0.3,1.7-0.9,2.4s-2.2,1.8-4.6,3.2L464.8,93.1L464.8,93.1z"/>
	<path class="st4" d="M470.4,94.9c-1.3,0-2.3-0.5-3-1.5s-1.1-2.3-1.1-3.9c0-1.7,0.4-3,1.1-4.1s1.7-1.5,3-1.5c0.9,0,1.7,0.2,2.3,0.7
		c0.6,0.5,1.1,1.2,1.4,2s0.5,1.7,0.5,2.4c0,1.3-0.1,2.3-0.4,3.1c-0.3,0.8-0.7,1.5-1.4,2S471.3,94.9,470.4,94.9z M470.3,93.4
		c0.5,0,1-0.2,1.3-0.5s0.6-0.8,0.7-1.4s0.2-1.4,0.2-2.5c0-0.9-0.1-1.7-0.4-2.5s-0.9-1.2-1.7-1.2c-1.4,0-2.2,1.3-2.2,4
		c0,1.2,0.2,2.2,0.5,2.9C469,93,469.5,93.4,470.3,93.4z"/>
	<path class="st4" d="M479.7,94.9c-1.3,0-2.3-0.5-3-1.5s-1.1-2.3-1.1-3.9c0-1.7,0.4-3,1.1-4.1s1.7-1.5,3-1.5c0.9,0,1.7,0.2,2.3,0.7
		c0.6,0.5,1.1,1.2,1.4,2s0.5,1.7,0.5,2.4c0,1.3-0.1,2.3-0.4,3.1c-0.3,0.8-0.7,1.5-1.4,2S480.7,94.9,479.7,94.9z M479.7,93.4
		c0.5,0,1-0.2,1.3-0.5s0.6-0.8,0.7-1.4s0.2-1.4,0.2-2.5c0-0.9-0.1-1.7-0.4-2.5s-0.9-1.2-1.7-1.2c-1.4,0-2.2,1.3-2.2,4
		c0,1.2,0.2,2.2,0.5,2.9C478.4,93,478.9,93.4,479.7,93.4z"/>
	<path class="st4" d="M487.2,89.5c-1.3-0.6-1.9-1.4-1.9-2.6c0-0.9,0.3-1.6,1-2.2s1.7-0.8,2.9-0.8c1.1,0,2,0.3,2.7,0.8s1,1.2,1,2
		c0,1-0.6,1.8-1.9,2.3c1.5,0.7,2.3,1.6,2.3,2.8c0,0.9-0.4,1.6-1.2,2.2s-1.8,0.9-3.1,0.9c-1.4,0-2.4-0.3-3.1-0.8s-1.1-1.2-1.1-2.1
		C484.9,90.9,485.7,90,487.2,89.5z M488.5,90.1c-0.5,0.2-0.9,0.4-1.3,0.8c-0.3,0.3-0.5,0.7-0.5,1.1s0.2,0.7,0.6,1.1s1,0.5,1.8,0.5
		c0.7,0,1.2-0.1,1.6-0.4s0.6-0.6,0.6-1s-0.2-0.7-0.5-0.9C490.6,90.9,489.8,90.5,488.5,90.1z M489.7,88.5c1-0.4,1.5-1,1.5-1.7
		c0-0.5-0.2-0.8-0.6-1.1c-0.4-0.3-0.9-0.4-1.4-0.4s-1,0.1-1.4,0.4c-0.4,0.2-0.6,0.6-0.6,1c0,0.5,0.2,0.8,0.6,1.1
		C488.3,88,488.9,88.2,489.7,88.5z"/>
</g>
<g class="st3">
	<path class="st4" d="M517.8,93.1v1.7h-7.9v-1.9l3.3-2.2c1-0.7,1.7-1.3,2-1.8s0.5-1,0.5-1.4c0-0.5-0.2-1-0.5-1.3
		c-0.3-0.4-0.8-0.5-1.4-0.5c-1.2,0-1.9,0.7-2.1,2.2l-1.9-0.5c0.1-0.9,0.6-1.8,1.3-2.4c0.7-0.7,1.6-1,2.8-1c1.2,0,2.1,0.3,2.8,1
		c0.7,0.7,1.1,1.5,1.1,2.6c0,0.9-0.3,1.7-0.9,2.4c-0.6,0.7-2.2,1.8-4.6,3.2L517.8,93.1L517.8,93.1z"/>
	<path class="st4" d="M523.4,94.9c-1.3,0-2.3-0.5-3-1.5s-1.1-2.3-1.1-3.9c0-1.7,0.4-3,1.1-4.1s1.7-1.5,3-1.5c0.9,0,1.7,0.2,2.3,0.7
		s1.1,1.2,1.4,2s0.5,1.7,0.5,2.4c0,1.3-0.1,2.3-0.4,3.1c-0.3,0.8-0.7,1.5-1.4,2S524.3,94.9,523.4,94.9z M523.3,93.4
		c0.5,0,1-0.2,1.3-0.5s0.6-0.8,0.7-1.4c0.1-0.6,0.2-1.4,0.2-2.5c0-0.9-0.1-1.7-0.4-2.5c-0.3-0.8-0.9-1.2-1.7-1.2
		c-1.4,0-2.2,1.3-2.2,4c0,1.2,0.2,2.2,0.5,2.9C522,93,522.5,93.4,523.3,93.4z"/>
	<path class="st4" d="M536.6,93.1v1.7h-7.9v-1.9l3.3-2.2c1-0.7,1.7-1.3,2-1.8s0.5-1,0.5-1.4c0-0.5-0.2-1-0.5-1.3
		c-0.3-0.4-0.8-0.5-1.4-0.5c-1.2,0-1.9,0.7-2.1,2.2l-1.9-0.5c0.1-0.9,0.6-1.8,1.3-2.4c0.7-0.7,1.6-1,2.8-1s2.1,0.3,2.8,1
		s1.1,1.5,1.1,2.6c0,0.9-0.3,1.7-0.9,2.4s-2.2,1.8-4.6,3.2L536.6,93.1L536.6,93.1z"/>
	<path class="st4" d="M542.1,94.9c-1.3,0-2.3-0.5-3-1.5s-1.1-2.3-1.1-3.9c0-1.7,0.4-3,1.1-4.1s1.7-1.5,3-1.5c0.9,0,1.7,0.2,2.3,0.7
		s1.1,1.2,1.4,2s0.5,1.7,0.5,2.4c0,1.3-0.1,2.3-0.4,3.1c-0.3,0.8-0.7,1.5-1.4,2S543.1,94.9,542.1,94.9z M542.1,93.4
		c0.5,0,1-0.2,1.3-0.5s0.6-0.8,0.7-1.4c0.1-0.6,0.2-1.4,0.2-2.5c0-0.9-0.1-1.7-0.4-2.5c-0.3-0.8-0.9-1.2-1.7-1.2
		c-1.4,0-2.2,1.3-2.2,4c0,1.2,0.2,2.2,0.5,2.9C540.7,93,541.3,93.4,542.1,93.4z"/>
</g>
<polyline class="st5" points="528.1,52.1 528.1,45.3 473.9,45.3 473.9,52.1 "/>
<g class="st3">
	<path class="st6" d="M365.8,11.9v1.5h-7.9V0h1.7v11.9H365.8z"/>
	<path class="st6" d="M371.1,13.6c-1.4,0-2.4-0.5-3.2-1.5c-0.8-1-1.1-2.2-1.1-3.7c0-1.6,0.4-2.8,1.3-3.8c0.9-0.9,1.9-1.4,3.2-1.4
		c1.4,0,2.4,0.5,3.2,1.5c0.8,1,1.2,2.2,1.2,3.7s-0.4,2.8-1.3,3.8S372.5,13.6,371.1,13.6z M371.2,12.4c0.8,0,1.4-0.3,2-1
		s0.8-1.6,0.8-3s-0.3-2.4-0.8-3c-0.6-0.6-1.2-0.9-1.9-0.9c-0.8,0-1.4,0.3-1.9,0.9s-0.8,1.6-0.8,3s0.3,2.4,0.8,3.1
		S370.5,12.4,371.2,12.4z"/>
	<path class="st6" d="M376.6,10.8l1.5-0.3c0.3,1.2,1.4,1.9,3.1,1.9c0.6,0,1.2-0.1,1.6-0.4c0.4-0.3,0.7-0.7,0.7-1.2
		c0-0.8-0.6-1.3-1.7-1.5l-2.1-0.4c-0.8-0.2-1.5-0.5-1.9-0.9c-0.5-0.5-0.7-1.1-0.7-1.8c0-0.8,0.3-1.5,1-2.1s1.5-0.8,2.7-0.8
		c2.1,0,3.5,0.8,4,2.5l-1.4,0.3c-0.4-1-1.2-1.5-2.5-1.5c-0.6,0-1.1,0.1-1.5,0.4s-0.6,0.6-0.6,1.1c0,0.7,0.5,1.2,1.5,1.4l1.9,0.3
		c2,0.4,3,1.3,3,2.9c0,0.9-0.4,1.6-1.1,2.2s-1.7,0.8-3,0.8C378.6,13.6,377.2,12.7,376.6,10.8z"/>
	<path class="st6" d="M390.9,10.8l1.5-0.3c0.3,1.2,1.4,1.9,3.1,1.9c0.6,0,1.2-0.1,1.6-0.4c0.4-0.3,0.7-0.7,0.7-1.2
		c0-0.8-0.6-1.3-1.7-1.5L394,8.9c-0.8-0.2-1.5-0.5-1.9-0.9c-0.5-0.5-0.7-1.1-0.7-1.8c0-0.8,0.3-1.5,1-2.1s1.5-0.8,2.7-0.8
		c2.1,0,3.5,0.8,4,2.5l-1.4,0.3c-0.4-1-1.2-1.5-2.5-1.5c-0.6,0-1.1,0.1-1.5,0.4s-0.6,0.6-0.6,1.1c0,0.7,0.5,1.2,1.5,1.4l1.7,0.2
		c2,0.4,3,1.3,3,2.9c0,0.9-0.4,1.6-1.1,2.2s-1.7,0.8-3,0.8C392.9,13.6,391.5,12.7,390.9,10.8z"/>
	<path class="st6" d="M409.2,13.4h-1.5c-0.1-0.3-0.1-0.9-0.2-1.8c-0.7,1.4-1.8,2.1-3.5,2.1c-1.1,0-2-0.3-2.5-0.9
		c-0.6-0.6-0.9-1.3-0.9-2.1c0-1,0.4-1.8,1.3-2.5c0.8-0.6,2.3-1,4.3-1c0.3,0,0.7,0,1.3,0c0-0.8-0.1-1.3-0.2-1.7
		c-0.1-0.3-0.4-0.6-0.8-0.8s-0.9-0.3-1.5-0.3c-1.6,0-2.5,0.6-2.7,1.8L400.9,6c0.3-1.8,1.8-2.7,4.4-2.7c1.4,0,2.3,0.3,2.9,0.9
		s0.9,1.6,0.9,3.1v4.2C409,12.2,409.1,12.8,409.2,13.4z M407.5,8.4c-0.6,0-1.1-0.1-1.4-0.1c-1.2,0-2.2,0.2-2.8,0.6
		c-0.7,0.4-1,1-1,1.7c0,0.5,0.2,0.9,0.5,1.2c0.4,0.3,0.9,0.5,1.6,0.5c0.9,0,1.7-0.3,2.3-1c0.6-0.7,0.9-1.5,0.9-2.4
		C407.6,8.9,407.6,8.7,407.5,8.4z"/>
	<path class="st6" d="M413.6,13.4h-1.5V0h1.5V13.4z"/>
	<path class="st6" d="M424.4,13.4h-1.5c-0.1-0.3-0.1-0.9-0.2-1.8c-0.7,1.4-1.8,2.1-3.5,2.1c-1.1,0-2-0.3-2.5-0.9
		c-0.6-0.6-0.9-1.3-0.9-2.1c0-1,0.4-1.8,1.3-2.5c0.8-0.6,2.3-1,4.3-1c0.3,0,0.7,0,1.3,0c0-0.8-0.1-1.3-0.2-1.7
		c-0.1-0.3-0.4-0.6-0.8-0.8s-0.9-0.3-1.5-0.3c-1.6,0-2.5,0.6-2.7,1.8L416.1,6c0.3-1.8,1.8-2.7,4.4-2.7c1.4,0,2.3,0.3,2.9,0.9
		s0.9,1.6,0.9,3.1v4.2C424.2,12.2,424.3,12.8,424.4,13.4z M422.7,8.4c-0.6,0-1.1-0.1-1.4-0.1c-1.2,0-2.2,0.2-2.8,0.6
		c-0.7,0.4-1,1-1,1.7c0,0.5,0.2,0.9,0.5,1.2c0.4,0.3,0.9,0.5,1.6,0.5c0.9,0,1.7-0.3,2.3-1c0.6-0.7,0.9-1.5,0.9-2.4
		C422.8,8.9,422.7,8.7,422.7,8.4z"/>
	<path class="st6" d="M428.8,13.4h-1.5V3.5h1.3v2.3c0.5-1.1,1-1.8,1.4-2.1s1-0.5,1.5-0.5c0.2,0,0.4,0,0.6,0v1.5h-0.3
		c-0.8,0-1.5,0.3-2.1,0.9s-0.9,1.5-0.9,2.5V13.4z"/>
	<path class="st6" d="M435.4,0v1.7h-1.7V0H435.4z M435.4,3.5v9.9h-1.5V3.5H435.4z"/>
	<path class="st6" d="M442,13.6c-1.4,0-2.4-0.5-3.2-1.5c-0.8-1-1.1-2.2-1.1-3.7c0-1.6,0.4-2.8,1.3-3.8c0.9-0.9,1.9-1.4,3.2-1.4
		c1.4,0,2.4,0.5,3.2,1.5c0.8,1,1.2,2.2,1.2,3.7s-0.4,2.8-1.3,3.8C444.4,13.2,443.3,13.6,442,13.6z M442.1,12.4c0.8,0,1.4-0.3,2-1
		s0.8-1.6,0.8-3s-0.3-2.4-0.8-3c-0.6-0.6-1.2-0.9-1.9-0.9c-0.8,0-1.4,0.3-1.9,0.9s-0.8,1.6-0.8,3s0.3,2.4,0.8,3.1
		S441.3,12.4,442.1,12.4z"/>
	<path class="st6" d="M447.5,10.8l1.5-0.3c0.3,1.2,1.4,1.9,3.1,1.9c0.6,0,1.2-0.1,1.6-0.4c0.4-0.3,0.7-0.7,0.7-1.2
		c0-0.8-0.6-1.3-1.7-1.5l-2.1-0.4c-0.8-0.2-1.5-0.5-1.9-0.9c-0.5-0.5-0.7-1.1-0.7-1.8c0-0.8,0.3-1.5,1-2.1s1.5-0.8,2.7-0.8
		c2.1,0,3.5,0.8,4,2.5l-1.4,0.3c-0.4-1-1.2-1.5-2.5-1.5c-0.6,0-1.1,0.1-1.5,0.4s-0.6,0.6-0.6,1.1c0,0.7,0.5,1.2,1.5,1.4l1.9,0.3
		c2,0.4,3,1.3,3,2.9c0,0.9-0.4,1.6-1.1,2.2s-1.7,0.8-3,0.8C449.5,13.6,448.1,12.7,447.5,10.8z"/>
	<path class="st6" d="M461.8,10.8l1.5-0.3c0.3,1.2,1.4,1.9,3.1,1.9c0.6,0,1.2-0.1,1.6-0.4c0.4-0.3,0.7-0.7,0.7-1.2
		c0-0.8-0.6-1.3-1.7-1.5l-2.1-0.4c-0.8-0.2-1.5-0.5-1.9-0.9c-0.5-0.5-0.7-1.1-0.7-1.8c0-0.8,0.3-1.5,1-2.1s1.5-0.8,2.7-0.8
		c2.1,0,3.5,0.8,4,2.5l-1.4,0.3c-0.4-1-1.2-1.5-2.5-1.5c-0.6,0-1.1,0.1-1.5,0.4S464,5.6,464,6.1c0,0.7,0.5,1.2,1.5,1.4l1.9,0.3
		c2,0.4,3,1.3,3,2.9c0,0.9-0.4,1.6-1.1,2.2s-1.7,0.8-3,0.8C463.8,13.6,462.3,12.7,461.8,10.8z"/>
	<path class="st6" d="M478.9,10.4l1.4,0.3c-0.3,0.8-0.8,1.5-1.5,2.1c-0.8,0.6-1.6,0.8-2.7,0.8c-1.3,0-2.4-0.5-3.3-1.4
		c-0.8-0.9-1.3-2.2-1.3-3.7c0-1.6,0.4-2.8,1.3-3.8s2-1.5,3.3-1.5s2.3,0.4,3.1,1.3c0.8,0.9,1.2,2.2,1.2,4h-7.1c0,1.5,0.3,2.5,0.9,3
		s1.3,0.8,2,0.8C477.5,12.4,478.4,11.7,478.9,10.4z M478.8,7.4c0-0.6-0.1-1-0.3-1.5c-0.2-0.4-0.5-0.8-0.9-1.1s-0.9-0.5-1.5-0.5
		c-0.8,0-1.4,0.3-1.9,0.8s-0.8,1.3-0.9,2.2L478.8,7.4L478.8,7.4L478.8,7.4z"/>
	<path class="st6" d="M489.4,0v1.7h-1.7V0H489.4z M489.3,3.5v9.9h-1.5V3.5H489.3z"/>
	<path class="st6" d="M500.2,13.4h-1.4V7.1c0-0.9-0.2-1.6-0.6-1.9c-0.4-0.4-0.9-0.6-1.4-0.6c-0.8,0-1.4,0.3-2,0.9
		C494.3,6.1,494,6.9,494,8v5.4h-1.5V3.5h1.4v1.8c0.8-1.4,1.8-2.1,3.1-2.1c0.7,0,1.4,0.2,1.9,0.6s0.9,0.8,1.1,1.3s0.3,1.3,0.3,2.6
		L500.2,13.4L500.2,13.4z"/>
	<path class="st6" d="M509.1,9.9l1.4,0.2c-0.2,1.1-0.6,1.9-1.3,2.6c-0.7,0.6-1.5,0.9-2.5,0.9c-1.4,0-2.4-0.5-3.1-1.5
		s-1.1-2.2-1.1-3.7s0.4-2.7,1.1-3.7c0.8-1,1.8-1.5,3.1-1.5c1.1,0,1.9,0.3,2.6,1c0.6,0.6,1,1.5,1.2,2.5L509.1,7
		c-0.3-1.6-1-2.4-2.4-2.4c-0.8,0-1.5,0.4-1.9,1.1c-0.5,0.7-0.7,1.7-0.7,2.8c0,1.3,0.2,2.2,0.7,2.9s1.1,1,1.9,1
		C507.9,12.4,508.7,11.6,509.1,9.9z"/>
	<path class="st6" d="M514.1,13.4h-1.5V3.5h1.3v2.3c0.5-1.1,1-1.8,1.4-2.1c0.4-0.3,1-0.5,1.5-0.5c0.2,0,0.4,0,0.6,0v1.5h-0.3
		c-0.8,0-1.5,0.3-2.1,0.9c-0.6,0.6-0.9,1.5-0.9,2.5L514.1,13.4L514.1,13.4z"/>
	<path class="st6" d="M525.7,10.4l1.4,0.3c-0.3,0.8-0.8,1.5-1.5,2.1c-0.8,0.6-1.6,0.8-2.7,0.8c-1.3,0-2.4-0.5-3.3-1.4
		c-0.8-0.9-1.3-2.2-1.3-3.7c0-1.6,0.4-2.8,1.3-3.8c0.9-1,2-1.5,3.3-1.5s2.3,0.4,3.1,1.3s1.2,2.2,1.2,4H520c0,1.5,0.3,2.5,0.9,3
		c0.6,0.5,1.3,0.8,2,0.8C524.3,12.4,525.1,11.7,525.7,10.4z M525.6,7.4c0-0.6-0.1-1-0.3-1.5c-0.2-0.4-0.5-0.8-0.9-1.1
		s-0.9-0.5-1.5-0.5c-0.8,0-1.4,0.3-1.9,0.8s-0.8,1.3-0.9,2.2L525.6,7.4L525.6,7.4L525.6,7.4z"/>
	<path class="st6" d="M542.8,13.4h-1.5V7.3c0-0.6,0-1.1-0.1-1.4s-0.3-0.6-0.6-0.9s-0.7-0.4-1.1-0.4c-0.6,0-1.2,0.3-1.7,0.8
		S537,6.8,537,7.9v5.6h-1.5V7c0-0.9-0.2-1.5-0.6-1.8c-0.4-0.4-0.8-0.5-1.3-0.5c-0.7,0-1.2,0.3-1.7,0.8c-0.5,0.6-0.7,1.3-0.7,2.1v5.9
		h-1.5v-10h1.3v1.9c0.7-1.4,1.7-2.2,3-2.2c0.7,0,1.3,0.2,1.8,0.7s0.8,1,1,1.7c0.7-1.6,1.7-2.4,3.1-2.4c0.7,0,1.3,0.2,1.8,0.6
		s0.8,0.8,1,1.3s0.2,1.2,0.2,2.1L542.8,13.4L542.8,13.4z"/>
	<path class="st6" d="M552.4,10.4l1.4,0.3c-0.3,0.8-0.8,1.5-1.5,2.1c-0.8,0.6-1.6,0.8-2.7,0.8c-1.3,0-2.4-0.5-3.3-1.4
		c-0.8-0.9-1.3-2.2-1.3-3.7c0-1.6,0.4-2.8,1.3-3.8c0.9-1,2-1.5,3.3-1.5s2.3,0.4,3.1,1.3s1.2,2.2,1.2,4h-7.2c0,1.5,0.3,2.5,0.9,3
		s1.3,0.8,2,0.8C551,12.4,551.8,11.7,552.4,10.4z M552.3,7.4c0-0.6-0.1-1-0.3-1.5c-0.2-0.4-0.5-0.8-0.9-1.1s-0.9-0.5-1.5-0.5
		c-0.8,0-1.4,0.3-1.9,0.8s-0.8,1.3-0.9,2.2L552.3,7.4L552.3,7.4L552.3,7.4z"/>
	<path class="st6" d="M564,13.4h-1.4V7.1c0-0.9-0.2-1.6-0.6-1.9c-0.4-0.4-0.9-0.6-1.4-0.6c-0.8,0-1.4,0.3-2,0.9
		c-0.5,0.6-0.8,1.4-0.8,2.5v5.4h-1.5V3.5h1.4v1.8c0.8-1.4,1.8-2.1,3.1-2.1c0.7,0,1.4,0.2,1.9,0.6s0.9,0.8,1.1,1.3
		c0.2,0.5,0.3,1.3,0.3,2.6L564,13.4L564,13.4z"/>
	<path class="st6" d="M571.6,12.3v1.2c-0.5,0.1-1,0.1-1.4,0.1c-1.9,0-2.9-1-2.9-3V4.7h-1.7V3.5h1.7l0.1-2.5l1.4-0.1v2.6h2.2v1.2
		h-2.2v6.2c0,1,0.5,1.5,1.6,1.5C570.7,12.4,571.1,12.4,571.6,12.3z"/>
	<path class="st6" d="M581,13.4h-1.5c-0.1-0.3-0.1-0.9-0.2-1.8c-0.7,1.4-1.8,2.1-3.5,2.1c-1.1,0-2-0.3-2.5-0.9
		c-0.6-0.6-0.9-1.3-0.9-2.1c0-1,0.4-1.8,1.3-2.5c0.8-0.6,2.3-1,4.3-1c0.3,0,0.7,0,1.3,0c0-0.8-0.1-1.3-0.2-1.7
		c-0.1-0.3-0.4-0.6-0.8-0.8s-0.9-0.3-1.5-0.3c-1.6,0-2.5,0.6-2.7,1.8L572.7,6c0.3-1.8,1.8-2.7,4.4-2.7c1.4,0,2.3,0.3,2.9,0.9
		c0.6,0.6,0.9,1.6,0.9,3.1v4.2C580.8,12.2,580.8,12.8,581,13.4z M579.3,8.4c-0.6,0-1.1-0.1-1.4-0.1c-1.2,0-2.2,0.2-2.8,0.6
		c-0.7,0.4-1,1-1,1.7c0,0.5,0.2,0.9,0.5,1.2c0.4,0.3,0.9,0.5,1.6,0.5c0.9,0,1.7-0.3,2.3-1s0.9-1.5,0.9-2.4
		C579.3,8.9,579.3,8.7,579.3,8.4z"/>
</g>
<g class="st3">
	<path class="st6" d="M585.4,13.4h-1.5V3.5h1.3v2.3c0.5-1.1,1-1.8,1.4-2.1s1-0.5,1.5-0.5c0.2,0,0.4,0,0.6,0v1.5h-0.3
		c-0.8,0-1.5,0.3-2.1,0.9s-0.9,1.5-0.9,2.5V13.4z"/>
</g>
<g class="st3">
	<path class="st6" d="M593.6,13.6c-1.4,0-2.4-0.5-3.2-1.5s-1.1-2.2-1.1-3.7c0-1.6,0.4-2.8,1.3-3.8c0.9-0.9,1.9-1.4,3.2-1.4
		c1.4,0,2.4,0.5,3.2,1.5s1.2,2.2,1.2,3.7s-0.4,2.8-1.3,3.8C596,13.2,594.9,13.6,593.6,13.6z M593.7,12.4c0.8,0,1.4-0.3,2-1
		s0.8-1.6,0.8-3s-0.3-2.4-0.8-3c-0.6-0.6-1.2-0.9-1.9-0.9c-0.8,0-1.4,0.3-1.9,0.9s-0.8,1.6-0.8,3s0.3,2.4,0.8,3.1
		S592.9,12.4,593.7,12.4z"/>
	<path class="st6" d="M608.2,13.4h-1.4V7.1c0-0.9-0.2-1.6-0.6-1.9c-0.4-0.4-0.9-0.6-1.4-0.6c-0.8,0-1.4,0.3-2,0.9
		C602.3,6.1,602,6.9,602,8v5.4h-1.5V3.5h1.4v1.8c0.8-1.4,1.8-2.1,3.1-2.1c0.7,0,1.4,0.2,1.9,0.6s0.9,0.8,1.1,1.3
		c0.2,0.5,0.3,1.3,0.3,2.6L608.2,13.4L608.2,13.4z"/>
	<path class="st6" d="M622.8,10.4l1.4,0.3c-0.3,0.8-0.8,1.5-1.5,2.1c-0.8,0.6-1.6,0.8-2.7,0.8c-1.3,0-2.4-0.5-3.3-1.4
		c-0.8-0.9-1.3-2.2-1.3-3.7c0-1.6,0.4-2.8,1.3-3.8c0.9-1,2-1.5,3.3-1.5s2.3,0.4,3.1,1.3s1.2,2.2,1.2,4h-7.2c0,1.5,0.3,2.5,0.9,3
		s1.3,0.8,2,0.8C621.4,12.4,622.3,11.7,622.8,10.4z M622.7,7.4c0-0.6-0.1-1-0.3-1.5c-0.2-0.4-0.5-0.8-0.9-1.1s-0.9-0.5-1.5-0.5
		c-0.8,0-1.4,0.3-1.9,0.8s-0.8,1.3-0.9,2.2L622.7,7.4L622.7,7.4L622.7,7.4z"/>
	<path class="st6" d="M634.5,13.4h-1.4V7.1c0-0.9-0.2-1.6-0.6-1.9c-0.4-0.4-0.9-0.6-1.4-0.6c-0.8,0-1.4,0.3-2,0.9
		c-0.5,0.6-0.8,1.4-0.8,2.5v5.4h-1.5V3.5h1.4v1.8c0.8-1.4,1.8-2.1,3.1-2.1c0.7,0,1.4,0.2,1.9,0.6s0.9,0.8,1.1,1.3
		c0.2,0.5,0.3,1.3,0.3,2.6L634.5,13.4L634.5,13.4z"/>
</g>
<g class="st3">
	<path class="st6" d="M367.8,37.4h-10.2v-2h4V27c-1.3,1.2-2.5,2-3.6,2.4V27c1.1-0.4,1.8-0.7,2.1-0.9c0.3-0.2,0.7-0.5,1.2-1
		s0.9-0.9,1.1-1.3h1.6v11.6h3.8V37.4z"/>
</g>
<g class="st3">
	<path class="st6" d="M379.6,37.4h-10.3v-2h4V27c-1.3,1.2-2.5,2-3.6,2.4V27c1.1-0.4,1.8-0.7,2.1-0.9c0.3-0.2,0.7-0.5,1.2-1
		s0.9-0.9,1.1-1.3h1.6v11.6h3.8L379.6,37.4L379.6,37.4z"/>
</g>
<g class="st3">
	<path class="st6" d="M383.8,34.9v2.2l-1.6,3.1h-0.9l1.2-2.9h-1.2v-2.5h2.5V34.9z"/>
	<path class="st6" d="M386.2,24h9.5v1.7c-1.6,2.1-2.7,4-3.3,5.5s-0.9,3.6-1,6.1h-2.7c0.2-4.3,1.9-8.1,4.9-11.3H386L386.2,24z"/>
	<path class="st6" d="M405.3,40.7H403V27.5h2.1v1.7c0.7-1.3,1.7-1.9,3-1.9c1.1,0,2,0.5,2.6,1.4c0.7,1,1,2.2,1,3.6
		c0,1.4-0.3,2.6-0.9,3.7c-0.6,1-1.5,1.6-2.8,1.6s-2.2-0.5-2.8-1.6L405.3,40.7L405.3,40.7z M405.3,33.3c0,0.7,0.2,1.3,0.6,1.8
		s0.9,0.7,1.4,0.7c0.7,0,1.2-0.3,1.6-0.9c0.3-0.6,0.5-1.4,0.5-2.4s-0.2-1.8-0.5-2.4s-0.8-0.9-1.5-0.9c-0.6,0-1.1,0.3-1.5,0.8
		s-0.6,1.2-0.6,2V33.3z"/>
	<path class="st6" d="M421.9,37.4h-2.1v-2.1c-0.6,1.6-1.6,2.3-3.1,2.3c-0.9,0-1.6-0.3-2.1-0.8s-0.8-1.3-0.8-2.3v-6.9h2.3V34
		c0,0.7,0.2,1.2,0.5,1.4s0.6,0.3,0.9,0.3c0.5,0,1-0.2,1.5-0.6c0.5-0.4,0.8-1.4,0.8-2.8v-4.7h2.2L421.9,37.4L421.9,37.4z"/>
	<path class="st6" d="M432.8,37.4h-2.2v-6.2c0-0.7-0.2-1.1-0.4-1.5c-0.3-0.3-0.7-0.5-1.1-0.5c-0.6,0-1.1,0.3-1.5,0.8
		s-0.7,1.3-0.7,2.3v5.1h-2.2v-9.9h2v2.3c0.7-1.7,1.7-2.5,3-2.5c0.9,0,1.6,0.3,2.2,0.8s0.9,1.5,0.9,2.9L432.8,37.4L432.8,37.4z"/>
</g>
<g class="st3">
	<path class="st6" d="M440,35.6v1.7c-0.7,0.1-1.2,0.2-1.5,0.2c-0.6,0-1.1-0.1-1.5-0.4s-0.7-0.6-0.9-1c-0.2-0.4-0.3-1-0.3-1.9v-5.1
		h-1.2v-1.7h1.4l0.2-2.6l1.8-0.2v2.7h2V29h-2v4.8c0,0.6,0.1,1,0.3,1.3s0.6,0.3,1.3,0.3C439.6,35.7,439.8,35.6,440,35.6z"/>
</g>
<g class="st3">
	<path class="st6" d="M445.4,37.6c-1.5,0-2.6-0.5-3.3-1.6c-0.8-1-1.2-2.2-1.2-3.6c0-1.5,0.4-2.7,1.3-3.6s2-1.5,3.4-1.5
		c1.3,0,2.4,0.5,3.3,1.4s1.3,2.2,1.3,3.7c0,1.6-0.4,2.8-1.3,3.8C447.9,37.1,446.7,37.6,445.4,37.6z M445.5,35.7
		c1.5,0,2.2-1.1,2.2-3.3c0-1-0.2-1.8-0.5-2.4c-0.4-0.6-0.9-0.9-1.7-0.9c-0.8,0-1.3,0.3-1.7,0.9s-0.6,1.4-0.6,2.4
		c0,1.1,0.2,1.9,0.6,2.5S444.8,35.7,445.5,35.7z"/>
	<path class="st6" d="M450.9,35.1l2.1-0.4c0.3,0.8,1,1.2,2.1,1.2c1.4,0,2.1-0.4,2.1-1.2c0-0.3-0.1-0.5-0.3-0.6s-0.5-0.3-0.8-0.3
		l-1.8-0.3c-2-0.4-3-1.4-3-2.9c0-0.9,0.3-1.6,0.9-2.2s1.6-0.9,2.8-0.9c2.1,0,3.4,0.8,3.8,2.3l-2,0.4c-0.2-0.7-0.8-1.1-1.8-1.1
		c-1.2,0-1.8,0.4-1.8,1.1c0,0.5,0.5,0.9,1.4,1.1l2.1,0.4c1.6,0.3,2.5,1.3,2.5,2.8c0,1.1-0.4,1.9-1.3,2.4c-0.8,0.5-1.9,0.8-3,0.8
		c-1,0-1.9-0.2-2.7-0.6C451.6,36.6,451.1,35.9,450.9,35.1z"/>
</g>
<g class="st3">
	<path class="st6" d="M472.9,34.4l1.4,0.3c-0.3,0.8-0.8,1.5-1.5,2.1c-0.8,0.6-1.6,0.8-2.7,0.8c-1.3,0-2.4-0.5-3.3-1.4
		s-1.3-2.2-1.3-3.7c0-1.6,0.4-2.8,1.3-3.8s2-1.5,3.3-1.5s2.3,0.4,3.1,1.3c0.8,0.9,1.2,2.2,1.2,4h-7.1c0,1.5,0.3,2.5,0.9,3
		s1.3,0.8,2,0.8C471.5,36.4,472.4,35.7,472.9,34.4z M472.8,31.4c0-0.6-0.1-1-0.3-1.5s-0.5-0.8-0.9-1.1s-0.9-0.5-1.5-0.5
		c-0.8,0-1.4,0.3-1.9,0.8s-0.8,1.3-0.9,2.2L472.8,31.4L472.8,31.4z"/>
	<path class="st6" d="M484.6,37.4h-1.4v-6.3c0-0.9-0.2-1.6-0.6-1.9s-0.9-0.6-1.4-0.6c-0.8,0-1.4,0.3-2,0.9s-0.8,1.4-0.8,2.5v5.4
		h-1.5v-9.9h1.4v1.8c0.8-1.4,1.8-2.1,3.1-2.1c0.7,0,1.4,0.2,1.9,0.6s0.9,0.8,1.1,1.3s0.3,1.3,0.3,2.6v5.7H484.6z"/>
	<path class="st6" d="M492.1,36.3v1.2c-0.5,0.1-1,0.1-1.4,0.1c-1.9,0-2.9-1-2.9-3v-5.9h-1.7v-1.2h1.7l0.1-2.5l1.4-0.1v2.6h2.2v1.2
		h-2.2v6.2c0,1,0.5,1.5,1.6,1.5C491.3,36.4,491.7,36.4,492.1,36.3z"/>
	<path class="st6" d="M495.3,37.4h-1.5v-9.9h1.3v2.3c0.5-1.1,1-1.8,1.4-2.1s1-0.5,1.5-0.5c0.2,0,0.4,0,0.6,0v1.5h-0.3
		c-0.8,0-1.5,0.3-2.1,0.9s-0.9,1.5-0.9,2.5V37.4z"/>
	<path class="st6" d="M506.9,34.4l1.4,0.3c-0.3,0.8-0.8,1.5-1.5,2.1c-0.8,0.6-1.6,0.8-2.7,0.8c-1.3,0-2.4-0.5-3.3-1.4
		s-1.3-2.2-1.3-3.7c0-1.6,0.4-2.8,1.3-3.8s2-1.5,3.3-1.5s2.3,0.4,3.1,1.3c0.8,0.9,1.2,2.2,1.2,4h-7.1c0,1.5,0.3,2.5,0.9,3
		s1.3,0.8,2,0.8C505.5,36.4,506.4,35.7,506.9,34.4z M506.8,31.4c0-0.6-0.1-1-0.3-1.5s-0.5-0.8-0.9-1.1s-0.9-0.5-1.5-0.5
		c-0.8,0-1.4,0.3-1.9,0.8s-0.8,1.3-0.9,2.2L506.8,31.4L506.8,31.4z"/>
	<path class="st6" d="M524.7,36v1.4h-9.4V36c3.7-2.8,6-4.6,6.7-5.5s1.1-1.8,1.1-2.6c0-0.8-0.3-1.5-0.9-2c-0.6-0.5-1.3-0.8-2.1-0.8
		s-1.5,0.3-2.2,0.8s-1,1.3-1.1,2.2l-1.5-0.4c0.7-2.6,2.2-3.9,4.8-3.9c1.4,0,2.5,0.4,3.3,1.2s1.3,1.7,1.3,2.9c0,0.8-0.2,1.5-0.6,2.2
		s-1.2,1.6-2.3,2.6c-1.1,1-2.6,2.1-4.4,3.4h7.3L524.7,36L524.7,36z"/>
	<path class="st6" d="M531.9,37.6c-1.5,0-2.8-0.7-3.7-2s-1.4-3-1.4-5c0-1.9,0.4-3.6,1.3-4.9c0.9-1.3,2.1-2,3.7-2
		c1.7,0,2.9,0.7,3.8,2.1c0.9,1.4,1.3,3,1.3,4.9c0,1.8-0.4,3.4-1.3,4.8C534.7,37,533.4,37.6,531.9,37.6z M531.9,36.3
		c1.1,0,2-0.5,2.5-1.5s0.8-2.3,0.8-3.8c0-1.7-0.3-3.1-0.8-4.2s-1.4-1.7-2.6-1.7c-1.1,0-1.9,0.5-2.5,1.5s-0.8,2.4-0.8,4
		c0,1.7,0.3,3.1,0.9,4.1S530.8,36.3,531.9,36.3z"/>
	<path class="st6" d="M543.6,37.6c-1.5,0-2.8-0.7-3.7-2s-1.4-3-1.4-5c0-1.9,0.4-3.6,1.3-4.9c0.9-1.3,2.1-2,3.7-2
		c1.7,0,2.9,0.7,3.8,2.1c0.9,1.4,1.3,3,1.3,4.9c0,1.8-0.4,3.4-1.3,4.8C546.4,37,545.2,37.6,543.6,37.6z M543.6,36.3
		c1.1,0,2-0.5,2.5-1.5s0.8-2.3,0.8-3.8c0-1.7-0.3-3.1-0.8-4.2s-1.4-1.7-2.6-1.7c-1.1,0-1.9,0.5-2.5,1.5s-0.8,2.4-0.8,4
		c0,1.7,0.3,3.1,0.9,4.1S542.5,36.3,543.6,36.3z"/>
	<path class="st6" d="M553.3,30.5c-1.7-0.7-2.5-1.8-2.5-3.2c0-1,0.4-1.8,1.3-2.5c0.8-0.7,2-1,3.3-1c1.4,0,2.5,0.3,3.3,0.9
		s1.2,1.4,1.2,2.5c0,1.4-0.9,2.4-2.6,3c1.4,0.6,2.3,1.3,2.6,1.9c0.4,0.6,0.5,1.2,0.5,1.8c0,1.1-0.5,2-1.4,2.7s-2.1,1.1-3.7,1.1
		c-1.7,0-2.9-0.4-3.9-1.1c-0.9-0.7-1.4-1.6-1.4-2.6C550.2,32.4,551.2,31.3,553.3,30.5z M555.2,31.2c-2.3,0.5-3.4,1.5-3.4,2.8
		c0,0.7,0.3,1.3,0.9,1.7c0.6,0.4,1.5,0.7,2.7,0.7c1,0,1.8-0.2,2.5-0.7c0.6-0.4,0.9-1,0.9-1.7C558.8,32.8,557.6,31.8,555.2,31.2z
		 M555.3,29.6c1.1-0.3,1.9-0.6,2.4-1s0.7-0.9,0.7-1.5c0-0.7-0.3-1.2-0.8-1.6s-1.3-0.5-2.2-0.5s-1.6,0.2-2.1,0.6s-0.8,0.9-0.8,1.5
		s0.3,1.2,0.9,1.6S554.7,29.5,555.3,29.6z"/>
	<path class="st6" d="M574.5,27.5l-4,11c-0.6,1.6-1.5,2.4-2.7,2.4c-0.4,0-0.8-0.1-1.3-0.2v-1.2c0.4,0.1,0.7,0.1,1,0.1
		c0.5,0,0.9-0.1,1.2-0.4c0.3-0.3,0.7-1,1-2l-3.4-9.7h1.6l2.6,7.4l2.7-7.4C573.2,27.5,574.5,27.5,574.5,27.5z"/>
	<path class="st6" d="M590,36v1.4h-9.5V36c3.7-2.8,6-4.6,6.7-5.5s1.1-1.8,1.1-2.6c0-0.8-0.3-1.5-0.9-2s-1.3-0.8-2.1-0.8
		s-1.5,0.3-2.2,0.8s-1,1.3-1.1,2.2l-1.6-0.5c0.7-2.6,2.2-3.9,4.8-3.9c1.4,0,2.5,0.4,3.3,1.2s1.3,1.7,1.3,2.9c0,0.8-0.2,1.5-0.6,2.2
		s-1.2,1.6-2.3,2.6s-2.6,2.1-4.4,3.4C582.5,36,590,36,590,36z"/>
	<path class="st6" d="M597.1,37.6c-1.5,0-2.8-0.7-3.7-2s-1.4-3-1.4-5c0-1.9,0.4-3.6,1.3-4.9c0.9-1.3,2.1-2,3.7-2
		c1.7,0,2.9,0.7,3.8,2.1c0.9,1.4,1.3,3,1.3,4.9c0,1.8-0.4,3.4-1.3,4.8C599.9,37,598.7,37.6,597.1,37.6z M597.1,36.3
		c1.1,0,2-0.5,2.5-1.5s0.8-2.3,0.8-3.8c0-1.7-0.3-3.1-0.8-4.2s-1.4-1.7-2.6-1.7c-1.1,0-1.9,0.5-2.5,1.5s-0.8,2.4-0.8,4
		c0,1.7,0.3,3.1,0.9,4.1S596,36.3,597.1,36.3z"/>
	<path class="st6" d="M613.4,36v1.4h-9.5V36c3.7-2.8,6-4.6,6.7-5.5s1.1-1.8,1.1-2.6c0-0.8-0.3-1.5-0.9-2s-1.3-0.8-2.1-0.8
		s-1.5,0.3-2.2,0.8s-1,1.3-1.1,2.2l-1.6-0.5c0.7-2.6,2.2-3.9,4.8-3.9c1.4,0,2.5,0.4,3.3,1.2s1.3,1.7,1.3,2.9c0,0.8-0.2,1.5-0.6,2.2
		s-1.2,1.6-2.3,2.6s-2.6,2.1-4.4,3.4C605.9,36,613.4,36,613.4,36z"/>
	<path class="st6" d="M620.5,37.6c-1.5,0-2.8-0.7-3.7-2s-1.4-3-1.4-5c0-1.9,0.4-3.6,1.3-4.9c0.9-1.3,2.1-2,3.7-2
		c1.7,0,2.9,0.7,3.8,2.1c0.9,1.4,1.3,3,1.3,4.9c0,1.8-0.4,3.4-1.3,4.8C623.3,37,622.1,37.6,620.5,37.6z M620.5,36.3
		c1.1,0,2-0.5,2.5-1.5s0.8-2.3,0.8-3.8c0-1.7-0.3-3.1-0.8-4.2s-1.4-1.7-2.6-1.7c-1.1,0-1.9,0.5-2.5,1.5s-0.8,2.4-0.8,4
		c0,1.7,0.3,3.1,0.9,4.1S619.4,36.3,620.5,36.3z"/>
</g>
<g class="st3">
	<path class="st4" d="M568.5,71.1h-8.2v-1.6h3.2v-6.7c-1.1,0.9-2,1.6-2.9,1.9v-1.9c0.9-0.3,1.4-0.6,1.7-0.7c0.2-0.1,0.6-0.4,1-0.8
		s0.7-0.7,0.9-1.1h1.3v9.3h3V71.1z"/>
</g>
<g class="st3">
	<path class="st4" d="M571.5,65.8c-1.3-0.6-1.9-1.4-1.9-2.6c0-0.9,0.3-1.6,1-2.2s1.7-0.8,2.9-0.8c1.1,0,2,0.3,2.7,0.8s1,1.2,1,2
		c0,1-0.6,1.8-1.9,2.3c1.5,0.7,2.3,1.6,2.3,2.8c0,0.9-0.4,1.6-1.2,2.2s-1.8,0.9-3.1,0.9c-1.4,0-2.4-0.3-3.1-0.8
		c-0.7-0.5-1.1-1.2-1.1-2.1C569.2,67.2,570,66.3,571.5,65.8z M572.8,66.4c-0.5,0.2-0.9,0.4-1.3,0.8c-0.3,0.3-0.5,0.7-0.5,1.1
		s0.2,0.7,0.6,1.1s1,0.5,1.8,0.5c0.7,0,1.2-0.1,1.6-0.4s0.6-0.6,0.6-1s-0.2-0.7-0.5-0.9C574.9,67.2,574.1,66.8,572.8,66.4z
		 M574.1,64.8c1-0.4,1.5-1,1.5-1.7c0-0.5-0.2-0.8-0.6-1.1c-0.4-0.3-0.9-0.4-1.4-0.4s-1,0.1-1.4,0.4c-0.4,0.2-0.6,0.6-0.6,1
		c0,0.5,0.2,0.8,0.6,1.1C572.6,64.3,573.2,64.5,574.1,64.8z"/>
	<path class="st4" d="M582.8,71.2c-1.3,0-2.3-0.5-3-1.5s-1.1-2.3-1.1-3.9c0-1.7,0.4-3,1.1-4.1s1.7-1.5,3-1.5c0.9,0,1.7,0.2,2.3,0.7
		s1.1,1.2,1.4,2s0.5,1.7,0.5,2.4c0,1.3-0.1,2.3-0.4,3.1c-0.3,0.8-0.7,1.5-1.4,2S583.8,71.2,582.8,71.2z M582.8,69.7
		c0.5,0,1-0.2,1.3-0.5s0.6-0.8,0.7-1.4c0.1-0.6,0.2-1.4,0.2-2.5c0-0.9-0.1-1.7-0.4-2.5c-0.3-0.8-0.9-1.2-1.7-1.2
		c-1.4,0-2.2,1.3-2.2,4c0,1.2,0.2,2.2,0.5,2.9C581.5,69.3,582,69.7,582.8,69.7z"/>
	<path class="st4" d="M592.2,71.2c-1.3,0-2.3-0.5-3-1.5s-1.1-2.3-1.1-3.9c0-1.7,0.4-3,1.1-4.1s1.7-1.5,3-1.5c0.9,0,1.7,0.2,2.3,0.7
		s1.1,1.2,1.4,2s0.5,1.7,0.5,2.4c0,1.3-0.1,2.3-0.4,3.1c-0.3,0.8-0.7,1.5-1.4,2S593.2,71.2,592.2,71.2z M592.2,69.7
		c0.5,0,1-0.2,1.3-0.5s0.6-0.8,0.7-1.4c0.1-0.6,0.2-1.4,0.2-2.5c0-0.9-0.1-1.7-0.4-2.5c-0.3-0.8-0.9-1.2-1.7-1.2
		c-1.4,0-2.2,1.3-2.2,4c0,1.2,0.2,2.2,0.5,2.9C590.8,69.3,591.4,69.7,592.2,69.7z"/>
</g>
<g class="st3">
	<path class="st6" d="M608.6,67.6c-0.2,1.2-0.6,2-1.3,2.6s-1.6,0.9-2.6,0.9c-1.2,0-2.1-0.4-2.8-1.2s-1.1-1.7-1.3-2.9h-0.9v-1h0.8
		c0-0.1,0-0.2,0-0.4c0-0.2,0-0.4,0-0.5h-0.8v-1h0.9c0.2-1.3,0.7-2.3,1.5-3s1.7-1,2.6-1c1.1,0,1.9,0.3,2.6,0.9s1.1,1.4,1.3,2.4
		l-1.8,0.2c-0.3-1.4-1-2-2.1-2c-0.5,0-0.9,0.2-1.4,0.6s-0.7,1.1-0.8,1.9h2.4v1h-2.5v0.5v0.5h2.5v1h-2.4c0.1,0.9,0.4,1.5,0.9,1.9
		s0.9,0.6,1.4,0.6s0.9-0.2,1.3-0.6s0.6-0.9,0.6-1.5L608.6,67.6z"/>
</g>
<g>
	<g class="st3">
		<path class="st4" d="M4.1,71.4c-1.3,0-2.3-0.5-3-1.5S0,67.6,0,66c0-1.7,0.4-3,1.1-4.1s1.7-1.5,3-1.5c0.9,0,1.7,0.2,2.3,0.7
			s1.1,1.2,1.4,2c0.3,0.8,0.5,1.7,0.5,2.4c0,1.3-0.1,2.3-0.4,3.1c-0.3,0.8-0.7,1.5-1.4,2S5,71.4,4.1,71.4z M4.1,69.9
			c0.5,0,1-0.2,1.3-0.5S6,68.6,6.1,68s0.2-1.4,0.2-2.5c0-0.9-0.1-1.7-0.4-2.5S5,61.8,4.2,61.8c-1.4,0-2.2,1.3-2.2,4
			C2,67,2.2,68,2.5,68.7C2.7,69.5,3.3,69.9,4.1,69.9z"/>
	</g>
	<g class="st3">
		<path class="st6" d="M19.4,67.6c-0.2,1.2-0.6,2-1.3,2.6c-0.7,0.6-1.6,0.9-2.6,0.9c-1.2,0-2.1-0.4-2.8-1.2
			c-0.7-0.8-1.1-1.7-1.3-2.9h-0.9v-1h0.8c0-0.1,0-0.2,0-0.4c0-0.2,0-0.4,0-0.5h-0.8v-1h0.9c0.2-1.3,0.7-2.3,1.5-3s1.7-1,2.6-1
			c1.1,0,1.9,0.3,2.6,0.9c0.7,0.6,1.1,1.4,1.3,2.4l-1.8,0.2c-0.3-1.4-1-2-2.1-2c-0.5,0-0.9,0.2-1.4,0.6c-0.4,0.4-0.7,1.1-0.8,1.9
			h2.4v1h-2.5v0.5v0.5h2.5v1h-2.4c0.1,0.9,0.4,1.5,0.9,1.9s0.9,0.6,1.4,0.6s0.9-0.2,1.3-0.6s0.6-0.9,0.6-1.5L19.4,67.6z"/>
	</g>
</g>
</svg>
