<?xml version="1.0" encoding="utf-8"?>
<!-- Generator: Adobe Illustrator 24.0.2, SVG Export Plug-In . SVG Version: 6.00 Build 0)  -->
<svg version="1.1" id="Capa_1" xmlns="http://www.w3.org/2000/svg" xmlns:xlink="http://www.w3.org/1999/xlink" x="0px" y="0px"
	 viewBox="0 0 634.4 103" style="enable-background:new 0 0 634.4 103;" xml:space="preserve">
<style type="text/css">
	.st0{fill:none;stroke:#DDDDDD;stroke-width:0.5;stroke-miterlimit:10;}
	.st1{opacity:0.9;fill:#FBD59A;enable-background:new    ;}
	.st2{opacity:0.9;fill:#CB7E42;enable-background:new    ;}
	.st3{enable-background:new    ;}
	.st4{fill:#DCDCDC;}
	.st5{fill:none;stroke:#DCDCDC;stroke-width:0.5;stroke-miterlimit:10;}
	.st6{fill:#DDDDDD;}
</style>
<title>5a</title>
<line class="st0" x1="14.1" y1="68.8" x2="543.6" y2="68.8"/>
<circle class="st1" cx="463.3" cy="68.8" r="8.6"/>
<circle class="st2" cx="516.3" cy="68.8" r="8.6"/>
<line class="st0" x1="20.6" y1="62.3" x2="20.6" y2="76.3"/>
<line class="st0" x1="537.6" y1="62.3" x2="537.6" y2="76.3"/>
<g class="st3">
	<path class="st4" d="M453.5,96.4v1.7h-7.9v-1.9l3.3-2.2c1-0.7,1.7-1.3,2-1.8c0.3-0.5,0.5-1,0.5-1.4c0-0.5-0.2-1-0.5-1.3
		c-0.3-0.4-0.8-0.5-1.4-0.5c-1.2,0-1.9,0.7-2.1,2.2l-1.9-0.5c0.1-0.9,0.6-1.8,1.3-2.4c0.7-0.7,1.6-1,2.8-1c1.2,0,2.1,0.3,2.8,1
		s1.1,1.5,1.1,2.6c0,0.9-0.3,1.7-0.9,2.4s-2.2,1.8-4.6,3.2H453.5z"/>
	<path class="st4" d="M459.1,98.2c-1.3,0-2.3-0.5-3-1.5c-0.7-1-1.1-2.3-1.1-3.9c0-1.7,0.4-3,1.1-4.1s1.7-1.5,3-1.5
		c0.9,0,1.7,0.2,2.3,0.7c0.6,0.5,1.1,1.2,1.4,2s0.5,1.7,0.5,2.4c0,1.3-0.1,2.3-0.4,3.1c-0.3,0.8-0.7,1.5-1.4,2S460,98.2,459.1,98.2z
		 M459,96.7c0.5,0,1-0.2,1.3-0.5c0.3-0.3,0.6-0.8,0.7-1.4c0.1-0.6,0.2-1.4,0.2-2.5c0-0.9-0.1-1.7-0.4-2.5c-0.3-0.8-0.9-1.2-1.7-1.2
		c-1.4,0-2.2,1.3-2.2,4c0,1.2,0.2,2.2,0.5,2.9C457.7,96.3,458.2,96.7,459,96.7z"/>
	<path class="st4" d="M468.4,98.2c-1.3,0-2.3-0.5-3-1.5c-0.7-1-1.1-2.3-1.1-3.9c0-1.7,0.4-3,1.1-4.1s1.7-1.5,3-1.5
		c0.9,0,1.7,0.2,2.3,0.7c0.6,0.5,1.1,1.2,1.4,2s0.5,1.7,0.5,2.4c0,1.3-0.1,2.3-0.4,3.1c-0.3,0.8-0.7,1.5-1.4,2
		S469.4,98.2,468.4,98.2z M468.4,96.7c0.5,0,1-0.2,1.3-0.5c0.3-0.3,0.6-0.8,0.7-1.4c0.1-0.6,0.2-1.4,0.2-2.5c0-0.9-0.1-1.7-0.4-2.5
		c-0.3-0.8-0.9-1.2-1.7-1.2c-1.4,0-2.2,1.3-2.2,4c0,1.2,0.2,2.2,0.5,2.9C467.1,96.3,467.6,96.7,468.4,96.7z"/>
	<path class="st4" d="M475.9,92.8c-1.3-0.6-1.9-1.4-1.9-2.6c0-0.9,0.3-1.6,1-2.2c0.7-0.6,1.7-0.8,2.9-0.8c1.1,0,2,0.3,2.7,0.8
		c0.7,0.5,1,1.2,1,2c0,1-0.6,1.8-1.9,2.3c1.5,0.7,2.3,1.6,2.3,2.8c0,0.9-0.4,1.6-1.2,2.2s-1.8,0.9-3.1,0.9c-1.4,0-2.4-0.3-3.1-0.8
		c-0.7-0.5-1.1-1.2-1.1-2.1C473.6,94.2,474.4,93.3,475.9,92.8z M477.2,93.4c-0.5,0.2-0.9,0.4-1.3,0.8c-0.3,0.3-0.5,0.7-0.5,1.1
		c0,0.4,0.2,0.7,0.6,1.1s1,0.5,1.8,0.5c0.7,0,1.2-0.1,1.6-0.4s0.6-0.6,0.6-1c0-0.4-0.2-0.7-0.5-0.9
		C479.3,94.2,478.5,93.8,477.2,93.4z M478.4,91.8c1-0.4,1.5-1,1.5-1.7c0-0.5-0.2-0.8-0.6-1.1c-0.4-0.3-0.9-0.4-1.4-0.4
		c-0.5,0-1,0.1-1.4,0.4c-0.4,0.2-0.6,0.6-0.6,1c0,0.5,0.2,0.8,0.6,1.1C477,91.3,477.6,91.5,478.4,91.8z"/>
</g>
<g class="st3">
	<path class="st4" d="M506.5,96.4v1.7h-7.9v-1.9l3.3-2.2c1-0.7,1.7-1.3,2-1.8c0.3-0.5,0.5-1,0.5-1.4c0-0.5-0.2-1-0.5-1.3
		c-0.3-0.4-0.8-0.5-1.4-0.5c-1.2,0-1.9,0.7-2.1,2.2l-1.9-0.5c0.1-0.9,0.6-1.8,1.3-2.4c0.7-0.7,1.6-1,2.8-1c1.2,0,2.1,0.3,2.8,1
		s1.1,1.5,1.1,2.6c0,0.9-0.3,1.7-0.9,2.4s-2.2,1.8-4.6,3.2H506.5z"/>
	<path class="st4" d="M512.1,98.2c-1.3,0-2.3-0.5-3-1.5c-0.7-1-1.1-2.3-1.1-3.9c0-1.7,0.4-3,1.1-4.1s1.7-1.5,3-1.5
		c0.9,0,1.7,0.2,2.3,0.7c0.6,0.5,1.1,1.2,1.4,2s0.5,1.7,0.5,2.4c0,1.3-0.1,2.3-0.4,3.1c-0.3,0.8-0.7,1.5-1.4,2S513,98.2,512.1,98.2z
		 M512,96.7c0.5,0,1-0.2,1.3-0.5c0.3-0.3,0.6-0.8,0.7-1.4c0.1-0.6,0.2-1.4,0.2-2.5c0-0.9-0.1-1.7-0.4-2.5c-0.3-0.8-0.9-1.2-1.7-1.2
		c-1.4,0-2.2,1.3-2.2,4c0,1.2,0.2,2.2,0.5,2.9C510.7,96.3,511.2,96.7,512,96.7z"/>
	<path class="st4" d="M525.3,96.4v1.7h-7.9v-1.9l3.3-2.2c1-0.7,1.7-1.3,2-1.8c0.3-0.5,0.5-1,0.5-1.4c0-0.5-0.2-1-0.5-1.3
		c-0.3-0.4-0.8-0.5-1.4-0.5c-1.2,0-1.9,0.7-2.1,2.2l-1.9-0.5c0.1-0.9,0.6-1.8,1.3-2.4c0.7-0.7,1.6-1,2.8-1c1.2,0,2.1,0.3,2.8,1
		s1.1,1.5,1.1,2.6c0,0.9-0.3,1.7-0.9,2.4s-2.2,1.8-4.6,3.2H525.3z"/>
	<path class="st4" d="M530.8,98.2c-1.3,0-2.3-0.5-3-1.5c-0.7-1-1.1-2.3-1.1-3.9c0-1.7,0.4-3,1.1-4.1s1.7-1.5,3-1.5
		c0.9,0,1.7,0.2,2.3,0.7c0.6,0.5,1.1,1.2,1.4,2s0.5,1.7,0.5,2.4c0,1.3-0.1,2.3-0.4,3.1c-0.3,0.8-0.7,1.5-1.4,2
		S531.8,98.2,530.8,98.2z M530.8,96.7c0.5,0,1-0.2,1.3-0.5c0.3-0.3,0.6-0.8,0.7-1.4c0.1-0.6,0.2-1.4,0.2-2.5c0-0.9-0.1-1.7-0.4-2.5
		c-0.3-0.8-0.9-1.2-1.7-1.2c-1.4,0-2.2,1.3-2.2,4c0,1.2,0.2,2.2,0.5,2.9C529.4,96.3,530,96.7,530.8,96.7z"/>
</g>
<g class="st3">
	<path class="st4" d="M557.2,74.1H549v-1.6h3.2v-6.7c-1.1,0.9-2,1.6-2.9,1.9v-1.9c0.9-0.3,1.4-0.6,1.7-0.7c0.2-0.1,0.6-0.4,1-0.8
		c0.4-0.4,0.7-0.7,0.9-1.1h1.3v9.3h3V74.1z"/>
</g>
<g class="st3">
	<path class="st4" d="M560.2,68.8c-1.3-0.6-1.9-1.4-1.9-2.6c0-0.9,0.3-1.6,1-2.2c0.7-0.6,1.7-0.8,2.9-0.8c1.1,0,2,0.3,2.7,0.8
		c0.7,0.5,1,1.2,1,2c0,1-0.6,1.8-1.9,2.3c1.5,0.7,2.3,1.6,2.3,2.8c0,0.9-0.4,1.6-1.2,2.2s-1.8,0.9-3.1,0.9c-1.4,0-2.4-0.3-3.1-0.8
		c-0.7-0.5-1.1-1.2-1.1-2.1C557.9,70.2,558.7,69.3,560.2,68.8z M561.5,69.4c-0.5,0.2-0.9,0.4-1.3,0.8c-0.3,0.3-0.5,0.7-0.5,1.1
		c0,0.4,0.2,0.7,0.6,1.1s1,0.5,1.8,0.5c0.7,0,1.2-0.1,1.6-0.4s0.6-0.6,0.6-1c0-0.4-0.2-0.7-0.5-0.9
		C563.6,70.2,562.8,69.8,561.5,69.4z M562.8,67.8c1-0.4,1.5-1,1.5-1.7c0-0.5-0.2-0.8-0.6-1.1c-0.4-0.3-0.9-0.4-1.4-0.4
		c-0.5,0-1,0.1-1.4,0.4c-0.4,0.2-0.6,0.6-0.6,1c0,0.5,0.2,0.8,0.6,1.1C561.3,67.3,561.9,67.5,562.8,67.8z"/>
	<path class="st4" d="M571.5,74.2c-1.3,0-2.3-0.5-3-1.5c-0.7-1-1.1-2.3-1.1-3.9c0-1.7,0.4-3,1.1-4.1s1.7-1.5,3-1.5
		c0.9,0,1.7,0.2,2.3,0.7c0.6,0.5,1.1,1.2,1.4,2s0.5,1.7,0.5,2.4c0,1.3-0.1,2.3-0.4,3.1c-0.3,0.8-0.7,1.5-1.4,2
		S572.5,74.2,571.5,74.2z M571.5,72.7c0.5,0,1-0.2,1.3-0.5c0.3-0.3,0.6-0.8,0.7-1.4c0.1-0.6,0.2-1.4,0.2-2.5c0-0.9-0.1-1.7-0.4-2.5
		c-0.3-0.8-0.9-1.2-1.7-1.2c-1.4,0-2.2,1.3-2.2,4c0,1.2,0.2,2.2,0.5,2.9C570.2,72.3,570.7,72.7,571.5,72.7z"/>
	<path class="st4" d="M580.9,74.2c-1.3,0-2.3-0.5-3-1.5c-0.7-1-1.1-2.3-1.1-3.9c0-1.7,0.4-3,1.1-4.1s1.7-1.5,3-1.5
		c0.9,0,1.7,0.2,2.3,0.7c0.6,0.5,1.1,1.2,1.4,2s0.5,1.7,0.5,2.4c0,1.3-0.1,2.3-0.4,3.1c-0.3,0.8-0.7,1.5-1.4,2
		S581.9,74.2,580.9,74.2z M580.9,72.7c0.5,0,1-0.2,1.3-0.5c0.3-0.3,0.6-0.8,0.7-1.4c0.1-0.6,0.2-1.4,0.2-2.5c0-0.9-0.1-1.7-0.4-2.5
		c-0.3-0.8-0.9-1.2-1.7-1.2c-1.4,0-2.2,1.3-2.2,4c0,1.2,0.2,2.2,0.5,2.9C579.5,72.3,580.1,72.7,580.9,72.7z"/>
</g>
<g class="st3">
	<path class="st4" d="M4.7,72.2c-1.3,0-2.3-0.5-3-1.5c-0.7-1-1.1-2.3-1.1-3.9c0-1.7,0.4-3,1.1-4.1s1.7-1.5,3-1.5
		c0.9,0,1.7,0.2,2.3,0.7c0.6,0.5,1.1,1.2,1.4,2s0.5,1.7,0.5,2.4c0,1.3-0.1,2.3-0.4,3.1c-0.3,0.8-0.7,1.5-1.4,2S5.6,72.2,4.7,72.2z
		 M4.7,70.7c0.5,0,1-0.2,1.3-0.5c0.3-0.3,0.6-0.8,0.7-1.4c0.1-0.6,0.2-1.4,0.2-2.5c0-0.9-0.1-1.7-0.4-2.5c-0.3-0.8-0.9-1.2-1.7-1.2
		c-1.4,0-2.2,1.3-2.2,4c0,1.2,0.2,2.2,0.5,2.9C3.3,70.3,3.9,70.7,4.7,70.7z"/>
</g>
<polyline class="st5" points="516.8,55.4 516.8,48.6 462.6,48.6 462.6,55.4 "/>
<g class="st3">
	<path class="st6" d="M354.5,15.2v1.5h-7.9V3.3h1.7v11.9H354.5z"/>
	<path class="st6" d="M359.8,16.9c-1.4,0-2.4-0.5-3.2-1.5c-0.8-1-1.1-2.2-1.1-3.7c0-1.6,0.4-2.8,1.3-3.8c0.9-0.9,1.9-1.4,3.2-1.4
		c1.4,0,2.4,0.5,3.2,1.5c0.8,1,1.2,2.2,1.2,3.7c0,1.5-0.4,2.8-1.3,3.8C362.2,16.5,361.2,16.9,359.8,16.9z M359.9,15.7
		c0.8,0,1.4-0.3,2-1s0.8-1.6,0.8-3c0-1.4-0.3-2.4-0.8-3c-0.6-0.6-1.2-0.9-1.9-0.9c-0.8,0-1.4,0.3-1.9,0.9s-0.8,1.6-0.8,3
		c0,1.4,0.3,2.4,0.8,3.1S359.2,15.7,359.9,15.7z"/>
	<path class="st6" d="M365.3,14.1l1.5-0.3c0.3,1.2,1.4,1.9,3.1,1.9c0.6,0,1.2-0.1,1.6-0.4c0.4-0.3,0.7-0.7,0.7-1.2
		c0-0.8-0.6-1.3-1.7-1.5l-2.1-0.4c-0.8-0.2-1.5-0.5-1.9-0.9c-0.5-0.5-0.7-1.1-0.7-1.8c0-0.8,0.3-1.5,1-2.1c0.7-0.6,1.5-0.8,2.7-0.8
		c2.1,0,3.5,0.8,4,2.5l-1.4,0.3c-0.4-1-1.2-1.5-2.5-1.5c-0.6,0-1.1,0.1-1.5,0.4s-0.6,0.6-0.6,1.1c0,0.7,0.5,1.2,1.5,1.4l1.9,0.3
		c2,0.4,3,1.3,3,2.9c0,0.9-0.4,1.6-1.1,2.2c-0.7,0.6-1.7,0.8-3,0.8C367.3,16.9,365.9,16,365.3,14.1z"/>
	<path class="st6" d="M379.6,14.1l1.5-0.3c0.3,1.2,1.4,1.9,3.1,1.9c0.6,0,1.2-0.1,1.6-0.4c0.4-0.3,0.7-0.7,0.7-1.2
		c0-0.8-0.6-1.3-1.7-1.5l-2.1-0.4c-0.8-0.2-1.5-0.5-1.9-0.9c-0.5-0.5-0.7-1.1-0.7-1.8c0-0.8,0.3-1.5,1-2.1c0.7-0.6,1.5-0.8,2.7-0.8
		c2.1,0,3.5,0.8,4,2.5l-1.4,0.3c-0.4-1-1.2-1.5-2.5-1.5c-0.6,0-1.1,0.1-1.5,0.4s-0.6,0.6-0.6,1.1c0,0.7,0.5,1.2,1.5,1.4L385,11
		c2,0.4,3,1.3,3,2.9c0,0.9-0.4,1.6-1.1,2.2c-0.7,0.6-1.7,0.8-3,0.8C381.6,16.9,380.2,16,379.6,14.1z"/>
	<path class="st6" d="M397.9,16.7h-1.5c-0.1-0.3-0.1-0.9-0.2-1.8c-0.7,1.4-1.8,2.1-3.5,2.1c-1.1,0-2-0.3-2.5-0.9
		c-0.6-0.6-0.9-1.3-0.9-2.1c0-1,0.4-1.8,1.3-2.5c0.8-0.6,2.3-1,4.3-1c0.3,0,0.7,0,1.3,0c0-0.8-0.1-1.3-0.2-1.7
		c-0.1-0.3-0.4-0.6-0.8-0.8s-0.9-0.3-1.5-0.3c-1.6,0-2.5,0.6-2.7,1.8l-1.4-0.2c0.3-1.8,1.8-2.7,4.4-2.7c1.4,0,2.3,0.3,2.9,0.9
		c0.6,0.6,0.9,1.6,0.9,3.1v4.2C397.7,15.5,397.8,16.1,397.9,16.7z M396.2,11.7c-0.6,0-1.1-0.1-1.4-0.1c-1.2,0-2.2,0.2-2.8,0.6
		c-0.7,0.4-1,1-1,1.7c0,0.5,0.2,0.9,0.5,1.2c0.4,0.3,0.9,0.5,1.6,0.5c0.9,0,1.7-0.3,2.3-1c0.6-0.7,0.9-1.5,0.9-2.4
		C396.3,12.2,396.3,12,396.2,11.7z"/>
	<path class="st6" d="M402.3,16.7h-1.5V3.3h1.5V16.7z"/>
	<path class="st6" d="M413.1,16.7h-1.5c-0.1-0.3-0.1-0.9-0.2-1.8c-0.7,1.4-1.8,2.1-3.5,2.1c-1.1,0-2-0.3-2.5-0.9
		c-0.6-0.6-0.9-1.3-0.9-2.1c0-1,0.4-1.8,1.3-2.5c0.8-0.6,2.3-1,4.3-1c0.3,0,0.7,0,1.3,0c0-0.8-0.1-1.3-0.2-1.7
		c-0.1-0.3-0.4-0.6-0.8-0.8s-0.9-0.3-1.5-0.3c-1.6,0-2.5,0.6-2.7,1.8l-1.4-0.2c0.3-1.8,1.8-2.7,4.4-2.7c1.4,0,2.3,0.3,2.9,0.9
		c0.6,0.6,0.9,1.6,0.9,3.1v4.2C412.9,15.5,413,16.1,413.1,16.7z M411.4,11.7c-0.6,0-1.1-0.1-1.4-0.1c-1.2,0-2.2,0.2-2.8,0.6
		c-0.7,0.4-1,1-1,1.7c0,0.5,0.2,0.9,0.5,1.2c0.4,0.3,0.9,0.5,1.6,0.5c0.9,0,1.7-0.3,2.3-1c0.6-0.7,0.9-1.5,0.9-2.4
		C411.5,12.2,411.4,12,411.4,11.7z"/>
	<path class="st6" d="M417.5,16.7H416V6.8h1.3v2.3c0.5-1.1,1-1.8,1.4-2.1s1-0.5,1.5-0.5c0.2,0,0.4,0,0.6,0V8h-0.3
		c-0.8,0-1.5,0.3-2.1,0.9c-0.6,0.6-0.9,1.5-0.9,2.5V16.7z"/>
	<path class="st6" d="M424.1,3.3V5h-1.7V3.3H424.1z M424.1,6.8v9.9h-1.5V6.8H424.1z"/>
	<path class="st6" d="M430.7,16.9c-1.4,0-2.4-0.5-3.2-1.5c-0.8-1-1.1-2.2-1.1-3.7c0-1.6,0.4-2.8,1.3-3.8c0.9-0.9,1.9-1.4,3.2-1.4
		c1.4,0,2.4,0.5,3.2,1.5c0.8,1,1.2,2.2,1.2,3.7c0,1.5-0.4,2.8-1.3,3.8C433.1,16.5,432,16.9,430.7,16.9z M430.8,15.7
		c0.8,0,1.4-0.3,2-1s0.8-1.6,0.8-3c0-1.4-0.3-2.4-0.8-3c-0.6-0.6-1.2-0.9-1.9-0.9c-0.8,0-1.4,0.3-1.9,0.9s-0.8,1.6-0.8,3
		c0,1.4,0.3,2.4,0.8,3.1S430,15.7,430.8,15.7z"/>
	<path class="st6" d="M436.2,14.1l1.5-0.3c0.3,1.2,1.4,1.9,3.1,1.9c0.6,0,1.2-0.1,1.6-0.4c0.4-0.3,0.7-0.7,0.7-1.2
		c0-0.8-0.6-1.3-1.7-1.5l-2.1-0.4c-0.8-0.2-1.5-0.5-1.9-0.9c-0.5-0.5-0.7-1.1-0.7-1.8c0-0.8,0.3-1.5,1-2.1c0.7-0.6,1.5-0.8,2.7-0.8
		c2.1,0,3.5,0.8,4,2.5l-1.4,0.3c-0.4-1-1.2-1.5-2.5-1.5c-0.6,0-1.1,0.1-1.5,0.4s-0.6,0.6-0.6,1.1c0,0.7,0.5,1.2,1.5,1.4l1.9,0.3
		c2,0.4,3,1.3,3,2.9c0,0.9-0.4,1.6-1.1,2.2c-0.7,0.6-1.7,0.8-3,0.8C438.2,16.9,436.8,16,436.2,14.1z"/>
	<path class="st6" d="M450.5,14.1l1.5-0.3c0.3,1.2,1.4,1.9,3.1,1.9c0.6,0,1.2-0.1,1.6-0.4c0.4-0.3,0.7-0.7,0.7-1.2
		c0-0.8-0.6-1.3-1.7-1.5l-2.1-0.4c-0.8-0.2-1.5-0.5-1.9-0.9c-0.5-0.5-0.7-1.1-0.7-1.8c0-0.8,0.3-1.5,1-2.1c0.7-0.6,1.5-0.8,2.7-0.8
		c2.1,0,3.5,0.8,4,2.5l-1.4,0.3c-0.4-1-1.2-1.5-2.5-1.5c-0.6,0-1.1,0.1-1.5,0.4s-0.6,0.6-0.6,1.1c0,0.7,0.5,1.2,1.5,1.4l1.9,0.3
		c2,0.4,3,1.3,3,2.9c0,0.9-0.4,1.6-1.1,2.2c-0.7,0.6-1.7,0.8-3,0.8C452.5,16.9,451,16,450.5,14.1z"/>
	<path class="st6" d="M467.6,13.7L469,14c-0.3,0.8-0.8,1.5-1.5,2.1c-0.8,0.6-1.6,0.8-2.7,0.8c-1.3,0-2.4-0.5-3.3-1.4
		c-0.8-0.9-1.3-2.2-1.3-3.7c0-1.6,0.4-2.8,1.3-3.8c0.9-1,2-1.5,3.3-1.5c1.3,0,2.3,0.4,3.1,1.3c0.8,0.9,1.2,2.2,1.2,4H462
		c0,1.5,0.3,2.5,0.9,3s1.3,0.8,2,0.8C466.2,15.7,467.1,15,467.6,13.7z M467.5,10.7c0-0.6-0.1-1-0.3-1.5c-0.2-0.4-0.5-0.8-0.9-1.1
		c-0.4-0.3-0.9-0.5-1.5-0.5c-0.8,0-1.4,0.3-1.9,0.8c-0.5,0.5-0.8,1.3-0.9,2.2H467.5z"/>
	<path class="st6" d="M478.1,3.3V5h-1.7V3.3H478.1z M478,6.8v9.9h-1.5V6.8H478z"/>
	<path class="st6" d="M488.9,16.7h-1.4v-6.3c0-0.9-0.2-1.6-0.6-1.9c-0.4-0.4-0.9-0.6-1.4-0.6c-0.8,0-1.4,0.3-2,0.9
		c-0.5,0.6-0.8,1.4-0.8,2.5v5.4h-1.5V6.8h1.4v1.8c0.8-1.4,1.8-2.1,3.1-2.1c0.7,0,1.4,0.2,1.9,0.6s0.9,0.8,1.1,1.3
		c0.2,0.5,0.3,1.3,0.3,2.6V16.7z"/>
	<path class="st6" d="M497.8,13.2l1.4,0.2c-0.2,1.1-0.6,1.9-1.3,2.6c-0.7,0.6-1.5,0.9-2.5,0.9c-1.4,0-2.4-0.5-3.1-1.5
		c-0.7-1-1.1-2.2-1.1-3.7c0-1.5,0.4-2.7,1.1-3.7c0.8-1,1.8-1.5,3.1-1.5c1.1,0,1.9,0.3,2.6,1c0.6,0.6,1,1.5,1.2,2.5l-1.4,0.3
		c-0.3-1.6-1-2.4-2.4-2.4c-0.8,0-1.5,0.4-1.9,1.1c-0.5,0.7-0.7,1.7-0.7,2.8c0,1.3,0.2,2.2,0.7,2.9c0.5,0.7,1.1,1,1.9,1
		C496.6,15.7,497.4,14.9,497.8,13.2z"/>
	<path class="st6" d="M502.8,16.7h-1.5V6.8h1.3v2.3c0.5-1.1,1-1.8,1.4-2.1s1-0.5,1.5-0.5c0.2,0,0.4,0,0.6,0V8h-0.3
		c-0.8,0-1.5,0.3-2.1,0.9c-0.6,0.6-0.9,1.5-0.9,2.5V16.7z"/>
	<path class="st6" d="M514.4,13.7l1.4,0.3c-0.3,0.8-0.8,1.5-1.5,2.1c-0.8,0.6-1.6,0.8-2.7,0.8c-1.3,0-2.4-0.5-3.3-1.4
		c-0.8-0.9-1.3-2.2-1.3-3.7c0-1.6,0.4-2.8,1.3-3.8c0.9-1,2-1.5,3.3-1.5c1.3,0,2.3,0.4,3.1,1.3c0.8,0.9,1.2,2.2,1.2,4h-7.2
		c0,1.5,0.3,2.5,0.9,3s1.3,0.8,2,0.8C513,15.7,513.8,15,514.4,13.7z M514.3,10.7c0-0.6-0.1-1-0.3-1.5c-0.2-0.4-0.5-0.8-0.9-1.1
		c-0.4-0.3-0.9-0.5-1.5-0.5c-0.8,0-1.4,0.3-1.9,0.8c-0.5,0.5-0.8,1.3-0.9,2.2H514.3z"/>
	<path class="st6" d="M531.5,16.7H530v-6.1c0-0.6,0-1.1-0.1-1.4s-0.3-0.6-0.6-0.9c-0.3-0.3-0.7-0.4-1.1-0.4c-0.6,0-1.2,0.3-1.7,0.8
		c-0.5,0.5-0.8,1.4-0.8,2.5v5.6h-1.5v-6.5c0-0.9-0.2-1.5-0.6-1.8c-0.4-0.4-0.8-0.5-1.3-0.5c-0.7,0-1.2,0.3-1.7,0.8
		c-0.5,0.6-0.7,1.3-0.7,2.1v5.9h-1.5V6.8h1.3v1.9c0.7-1.4,1.7-2.2,3-2.2c0.7,0,1.3,0.2,1.8,0.7c0.5,0.5,0.8,1,1,1.7
		c0.7-1.6,1.7-2.4,3.1-2.4c0.7,0,1.3,0.2,1.8,0.6c0.5,0.4,0.8,0.8,1,1.3c0.2,0.5,0.2,1.2,0.2,2.1V16.7z"/>
	<path class="st6" d="M541.1,13.7l1.4,0.3c-0.3,0.8-0.8,1.5-1.5,2.1c-0.8,0.6-1.6,0.8-2.7,0.8c-1.3,0-2.4-0.5-3.3-1.4
		c-0.8-0.9-1.3-2.2-1.3-3.7c0-1.6,0.4-2.8,1.3-3.8c0.9-1,2-1.5,3.3-1.5c1.3,0,2.3,0.4,3.1,1.3c0.8,0.9,1.2,2.2,1.2,4h-7.2
		c0,1.5,0.3,2.5,0.9,3s1.3,0.8,2,0.8C539.7,15.7,540.5,15,541.1,13.7z M541,10.7c0-0.6-0.1-1-0.3-1.5c-0.2-0.4-0.5-0.8-0.9-1.1
		c-0.4-0.3-0.9-0.5-1.5-0.5c-0.8,0-1.4,0.3-1.9,0.8c-0.5,0.5-0.8,1.3-0.9,2.2H541z"/>
	<path class="st6" d="M552.7,16.7h-1.4v-6.3c0-0.9-0.2-1.6-0.6-1.9c-0.4-0.4-0.9-0.6-1.4-0.6c-0.8,0-1.4,0.3-2,0.9
		c-0.5,0.6-0.8,1.4-0.8,2.5v5.4H545V6.8h1.4v1.8c0.8-1.4,1.8-2.1,3.1-2.1c0.7,0,1.4,0.2,1.9,0.6s0.9,0.8,1.1,1.3
		c0.2,0.5,0.3,1.3,0.3,2.6V16.7z"/>
	<path class="st6" d="M560.3,15.6v1.2c-0.5,0.1-1,0.1-1.4,0.1c-1.9,0-2.9-1-2.9-3V8h-1.7V6.8h1.7l0.1-2.5l1.4-0.1v2.6h2.2V8h-2.2
		v6.2c0,1,0.5,1.5,1.6,1.5C559.4,15.7,559.8,15.7,560.3,15.6z"/>
	<path class="st6" d="M569.7,16.7h-1.5c-0.1-0.3-0.1-0.9-0.2-1.8c-0.7,1.4-1.8,2.1-3.5,2.1c-1.1,0-2-0.3-2.5-0.9
		c-0.6-0.6-0.9-1.3-0.9-2.1c0-1,0.4-1.8,1.3-2.5c0.8-0.6,2.3-1,4.3-1c0.3,0,0.7,0,1.3,0c0-0.8-0.1-1.3-0.2-1.7
		c-0.1-0.3-0.4-0.6-0.8-0.8s-0.9-0.3-1.5-0.3c-1.6,0-2.5,0.6-2.7,1.8l-1.4-0.2c0.3-1.8,1.8-2.7,4.4-2.7c1.4,0,2.3,0.3,2.9,0.9
		c0.6,0.6,0.9,1.6,0.9,3.1v4.2C569.5,15.5,569.5,16.1,569.7,16.7z M568,11.7c-0.6,0-1.1-0.1-1.4-0.1c-1.2,0-2.2,0.2-2.8,0.6
		c-0.7,0.4-1,1-1,1.7c0,0.5,0.2,0.9,0.5,1.2c0.4,0.3,0.9,0.5,1.6,0.5c0.9,0,1.7-0.3,2.3-1c0.6-0.7,0.9-1.5,0.9-2.4
		C568,12.2,568,12,568,11.7z"/>
</g>
<g class="st3">
	<path class="st6" d="M574.1,16.7h-1.5V6.8h1.3v2.3c0.5-1.1,1-1.8,1.4-2.1s1-0.5,1.5-0.5c0.2,0,0.4,0,0.6,0V8h-0.3
		c-0.8,0-1.5,0.3-2.1,0.9c-0.6,0.6-0.9,1.5-0.9,2.5V16.7z"/>
</g>
<g class="st3">
	<path class="st6" d="M582.3,16.9c-1.4,0-2.4-0.5-3.2-1.5c-0.8-1-1.1-2.2-1.1-3.7c0-1.6,0.4-2.8,1.3-3.8c0.9-0.9,1.9-1.4,3.2-1.4
		c1.4,0,2.4,0.5,3.2,1.5c0.8,1,1.2,2.2,1.2,3.7c0,1.5-0.4,2.8-1.3,3.8C584.7,16.5,583.6,16.9,582.3,16.9z M582.4,15.7
		c0.8,0,1.4-0.3,2-1s0.8-1.6,0.8-3c0-1.4-0.3-2.4-0.8-3c-0.6-0.6-1.2-0.9-1.9-0.9c-0.8,0-1.4,0.3-1.9,0.9s-0.8,1.6-0.8,3
		c0,1.4,0.3,2.4,0.8,3.1S581.6,15.7,582.4,15.7z"/>
	<path class="st6" d="M596.9,16.7h-1.4v-6.3c0-0.9-0.2-1.6-0.6-1.9c-0.4-0.4-0.9-0.6-1.4-0.6c-0.8,0-1.4,0.3-2,0.9
		c-0.5,0.6-0.8,1.4-0.8,2.5v5.4h-1.5V6.8h1.4v1.8c0.8-1.4,1.8-2.1,3.1-2.1c0.7,0,1.4,0.2,1.9,0.6s0.9,0.8,1.1,1.3
		c0.2,0.5,0.3,1.3,0.3,2.6V16.7z"/>
	<path class="st6" d="M611.5,13.7l1.4,0.3c-0.3,0.8-0.8,1.5-1.5,2.1c-0.8,0.6-1.6,0.8-2.7,0.8c-1.3,0-2.4-0.5-3.3-1.4
		c-0.8-0.9-1.3-2.2-1.3-3.7c0-1.6,0.4-2.8,1.3-3.8c0.9-1,2-1.5,3.3-1.5c1.3,0,2.3,0.4,3.1,1.3c0.8,0.9,1.2,2.2,1.2,4h-7.2
		c0,1.5,0.3,2.5,0.9,3s1.3,0.8,2,0.8C610.1,15.7,611,15,611.5,13.7z M611.4,10.7c0-0.6-0.1-1-0.3-1.5c-0.2-0.4-0.5-0.8-0.9-1.1
		c-0.4-0.3-0.9-0.5-1.5-0.5c-0.8,0-1.4,0.3-1.9,0.8c-0.5,0.5-0.8,1.3-0.9,2.2H611.4z"/>
	<path class="st6" d="M623.2,16.7h-1.4v-6.3c0-0.9-0.2-1.6-0.6-1.9c-0.4-0.4-0.9-0.6-1.4-0.6c-0.8,0-1.4,0.3-2,0.9
		c-0.5,0.6-0.8,1.4-0.8,2.5v5.4h-1.5V6.8h1.4v1.8c0.8-1.4,1.8-2.1,3.1-2.1c0.7,0,1.4,0.2,1.9,0.6s0.9,0.8,1.1,1.3
		c0.2,0.5,0.3,1.3,0.3,2.6V16.7z"/>
</g>
<g class="st3">
	<path class="st6" d="M356.5,40.7h-10.2v-2h4v-8.4c-1.3,1.2-2.5,2-3.6,2.4v-2.4c1.1-0.4,1.8-0.7,2.1-0.9c0.3-0.2,0.7-0.5,1.2-1
		c0.5-0.5,0.9-0.9,1.1-1.3h1.6v11.6h3.8V40.7z"/>
</g>
<g class="st3">
	<path class="st6" d="M368.3,40.7H358v-2h4v-8.4c-1.3,1.2-2.5,2-3.6,2.4v-2.4c1.1-0.4,1.8-0.7,2.1-0.9c0.3-0.2,0.7-0.5,1.2-1
		c0.5-0.5,0.9-0.9,1.1-1.3h1.6v11.6h3.8V40.7z"/>
</g>
<g class="st3">
	<path class="st6" d="M372.5,38.2v2.2l-1.6,3.1h-0.9l1.2-2.9h-1.2v-2.5H372.5z"/>
	<path class="st6" d="M374.9,27.3h9.5V29c-1.6,2.1-2.7,4-3.3,5.5s-0.9,3.6-1,6.1h-2.7c0.2-4.3,1.9-8.1,4.9-11.3h-7.6L374.9,27.3z"/>
	<path class="st6" d="M394,44h-2.3V30.8h2.1v1.7c0.7-1.3,1.7-1.9,3-1.9c1.1,0,2,0.5,2.6,1.4c0.7,1,1,2.2,1,3.6
		c0,1.4-0.3,2.6-0.9,3.7c-0.6,1-1.5,1.6-2.8,1.6c-1.3,0-2.2-0.5-2.8-1.6V44z M394,36.6c0,0.7,0.2,1.3,0.6,1.8
		c0.4,0.5,0.9,0.7,1.4,0.7c0.7,0,1.2-0.3,1.6-0.9c0.3-0.6,0.5-1.4,0.5-2.4c0-1-0.2-1.8-0.5-2.4s-0.8-0.9-1.5-0.9
		c-0.6,0-1.1,0.3-1.5,0.8c-0.4,0.5-0.6,1.2-0.6,2V36.6z"/>
	<path class="st6" d="M410.6,40.7h-2.1v-2.1c-0.6,1.6-1.6,2.3-3.1,2.3c-0.9,0-1.6-0.3-2.1-0.8s-0.8-1.3-0.8-2.3v-6.9h2.3v6.4
		c0,0.7,0.2,1.2,0.5,1.4s0.6,0.3,0.9,0.3c0.5,0,1-0.2,1.5-0.6c0.5-0.4,0.8-1.4,0.8-2.8v-4.7h2.2V40.7z"/>
	<path class="st6" d="M421.5,40.7h-2.2v-6.2c0-0.7-0.2-1.1-0.4-1.5c-0.3-0.3-0.7-0.5-1.1-0.5c-0.6,0-1.1,0.3-1.5,0.8
		c-0.4,0.5-0.7,1.3-0.7,2.3v5.1h-2.2v-9.9h2v2.3c0.7-1.7,1.7-2.5,3-2.5c0.9,0,1.6,0.3,2.2,0.8s0.9,1.5,0.9,2.9V40.7z"/>
</g>
<g class="st3">
	<path class="st6" d="M428.7,38.9v1.7c-0.7,0.1-1.2,0.2-1.5,0.2c-0.6,0-1.1-0.1-1.5-0.4s-0.7-0.6-0.9-1c-0.2-0.4-0.3-1-0.3-1.9v-5.1
		h-1.2v-1.7h1.4l0.2-2.6l1.8-0.2v2.7h2v1.7h-2v4.8c0,0.6,0.1,1,0.3,1.3s0.6,0.3,1.3,0.3C428.3,39,428.5,38.9,428.7,38.9z"/>
</g>
<g class="st3">
	<path class="st6" d="M434.1,40.9c-1.5,0-2.6-0.5-3.3-1.6c-0.8-1-1.2-2.2-1.2-3.6c0-1.5,0.4-2.7,1.3-3.6s2-1.5,3.4-1.5
		c1.3,0,2.4,0.5,3.3,1.4s1.3,2.2,1.3,3.7c0,1.6-0.4,2.8-1.3,3.8C436.6,40.4,435.4,40.9,434.1,40.9z M434.2,39c1.5,0,2.2-1.1,2.2-3.3
		c0-1-0.2-1.8-0.5-2.4c-0.4-0.6-0.9-0.9-1.7-0.9c-0.8,0-1.3,0.3-1.7,0.9s-0.6,1.4-0.6,2.4c0,1.1,0.2,1.9,0.6,2.5
		C432.9,38.8,433.5,39,434.2,39z"/>
	<path class="st6" d="M439.6,38.4l2.1-0.4c0.3,0.8,1,1.2,2.1,1.2c1.4,0,2.1-0.4,2.1-1.2c0-0.3-0.1-0.5-0.3-0.6s-0.5-0.3-0.8-0.3
		l-1.8-0.3c-2-0.4-3-1.4-3-2.9c0-0.9,0.3-1.6,0.9-2.2c0.6-0.6,1.6-0.9,2.8-0.9c2.1,0,3.4,0.8,3.8,2.3l-2,0.4
		c-0.2-0.7-0.8-1.1-1.8-1.1c-1.2,0-1.8,0.4-1.8,1.1c0,0.5,0.5,0.9,1.4,1.1l2.1,0.4c1.6,0.3,2.5,1.3,2.5,2.8c0,1.1-0.4,1.9-1.3,2.4
		c-0.8,0.5-1.9,0.8-3,0.8c-1,0-1.9-0.2-2.7-0.6C440.3,39.9,439.8,39.2,439.6,38.4z"/>
</g>
<g class="st3">
	<path class="st6" d="M461.6,37.7L463,38c-0.3,0.8-0.8,1.5-1.5,2.1c-0.8,0.6-1.6,0.8-2.7,0.8c-1.3,0-2.4-0.5-3.3-1.4
		s-1.3-2.2-1.3-3.7c0-1.6,0.4-2.8,1.3-3.8s2-1.5,3.3-1.5c1.3,0,2.3,0.4,3.1,1.3s1.2,2.2,1.2,4H456c0,1.5,0.3,2.5,0.9,3
		s1.3,0.8,2,0.8C460.2,39.7,461.1,39,461.6,37.7z M461.5,34.7c0-0.6-0.1-1-0.3-1.5s-0.5-0.8-0.9-1.1s-0.9-0.5-1.5-0.5
		c-0.8,0-1.4,0.3-1.9,0.8s-0.8,1.3-0.9,2.2H461.5z"/>
	<path class="st6" d="M473.3,40.7h-1.4v-6.3c0-0.9-0.2-1.6-0.6-1.9s-0.9-0.6-1.4-0.6c-0.8,0-1.4,0.3-2,0.9s-0.8,1.4-0.8,2.5v5.4
		h-1.5v-9.9h1.4v1.8c0.8-1.4,1.8-2.1,3.1-2.1c0.7,0,1.4,0.2,1.9,0.6s0.9,0.8,1.1,1.3s0.3,1.3,0.3,2.6V40.7z"/>
	<path class="st6" d="M480.8,39.6v1.2c-0.5,0.1-1,0.1-1.4,0.1c-1.9,0-2.9-1-2.9-3V32h-1.7v-1.2h1.7l0.1-2.5l1.4-0.1v2.6h2.2V32H478
		v6.2c0,1,0.5,1.5,1.6,1.5C480,39.7,480.4,39.7,480.8,39.6z"/>
	<path class="st6" d="M484,40.7h-1.5v-9.9h1.3v2.3c0.5-1.1,1-1.8,1.4-2.1s1-0.5,1.5-0.5c0.2,0,0.4,0,0.6,0V32H487
		c-0.8,0-1.5,0.3-2.1,0.9s-0.9,1.5-0.9,2.5V40.7z"/>
	<path class="st6" d="M495.6,37.7L497,38c-0.3,0.8-0.8,1.5-1.5,2.1c-0.8,0.6-1.6,0.8-2.7,0.8c-1.3,0-2.4-0.5-3.3-1.4
		s-1.3-2.2-1.3-3.7c0-1.6,0.4-2.8,1.3-3.8s2-1.5,3.3-1.5c1.3,0,2.3,0.4,3.1,1.3s1.2,2.2,1.2,4H490c0,1.5,0.3,2.5,0.9,3
		s1.3,0.8,2,0.8C494.2,39.7,495.1,39,495.6,37.7z M495.5,34.7c0-0.6-0.1-1-0.3-1.5s-0.5-0.8-0.9-1.1s-0.9-0.5-1.5-0.5
		c-0.8,0-1.4,0.3-1.9,0.8s-0.8,1.3-0.9,2.2H495.5z"/>
	<path class="st6" d="M513.4,39.3v1.4H504v-1.4c3.7-2.8,6-4.6,6.7-5.5s1.1-1.8,1.1-2.6c0-0.8-0.3-1.5-0.9-2s-1.3-0.8-2.1-0.8
		c-0.8,0-1.5,0.3-2.2,0.8s-1,1.3-1.1,2.2L504,31c0.7-2.6,2.2-3.9,4.8-3.9c1.4,0,2.5,0.4,3.3,1.2s1.3,1.7,1.3,2.9
		c0,0.8-0.2,1.5-0.6,2.2s-1.2,1.6-2.3,2.6s-2.6,2.1-4.4,3.4H513.4z"/>
	<path class="st6" d="M520.6,40.9c-1.5,0-2.8-0.7-3.7-2c-0.9-1.3-1.4-3-1.4-5c0-1.9,0.4-3.6,1.3-4.9c0.9-1.3,2.1-2,3.7-2
		c1.7,0,2.9,0.7,3.8,2.1c0.9,1.4,1.3,3,1.3,4.9c0,1.8-0.4,3.4-1.3,4.8C523.4,40.3,522.1,40.9,520.6,40.9z M520.6,39.6
		c1.1,0,2-0.5,2.5-1.5s0.8-2.3,0.8-3.8c0-1.7-0.3-3.1-0.8-4.2s-1.4-1.7-2.6-1.7c-1.1,0-1.9,0.5-2.5,1.5s-0.8,2.4-0.8,4
		c0,1.7,0.3,3.1,0.9,4.1S519.5,39.6,520.6,39.6z"/>
	<path class="st6" d="M532.3,40.9c-1.5,0-2.8-0.7-3.7-2c-0.9-1.3-1.4-3-1.4-5c0-1.9,0.4-3.6,1.3-4.9c0.9-1.3,2.1-2,3.7-2
		c1.7,0,2.9,0.7,3.8,2.1c0.9,1.4,1.3,3,1.3,4.9c0,1.8-0.4,3.4-1.3,4.8C535.1,40.3,533.9,40.9,532.3,40.9z M532.3,39.6
		c1.1,0,2-0.5,2.5-1.5s0.8-2.3,0.8-3.8c0-1.7-0.3-3.1-0.8-4.2s-1.4-1.7-2.6-1.7c-1.1,0-1.9,0.5-2.5,1.5s-0.8,2.4-0.8,4
		c0,1.7,0.3,3.1,0.9,4.1S531.2,39.6,532.3,39.6z"/>
	<path class="st6" d="M542,33.8c-1.7-0.7-2.5-1.8-2.5-3.2c0-1,0.4-1.8,1.3-2.5c0.8-0.7,2-1,3.3-1c1.4,0,2.5,0.3,3.3,0.9
		c0.8,0.6,1.2,1.4,1.2,2.5c0,1.4-0.9,2.4-2.6,3c1.4,0.6,2.3,1.3,2.6,1.9c0.4,0.6,0.5,1.2,0.5,1.8c0,1.1-0.5,2-1.4,2.7
		s-2.1,1.1-3.7,1.1c-1.7,0-2.9-0.4-3.9-1.1c-0.9-0.7-1.4-1.6-1.4-2.6C538.9,35.7,539.9,34.6,542,33.8z M543.9,34.5
		c-2.3,0.5-3.4,1.5-3.4,2.8c0,0.7,0.3,1.3,0.9,1.7c0.6,0.4,1.5,0.7,2.7,0.7c1,0,1.8-0.2,2.5-0.7c0.6-0.4,0.9-1,0.9-1.7
		C547.5,36.1,546.3,35.1,543.9,34.5z M544,32.9c1.1-0.3,1.9-0.6,2.4-1s0.7-0.9,0.7-1.5c0-0.7-0.3-1.2-0.8-1.6s-1.3-0.5-2.2-0.5
		c-0.9,0-1.6,0.2-2.1,0.6s-0.8,0.9-0.8,1.5c0,0.6,0.3,1.2,0.9,1.6S543.4,32.8,544,32.9z"/>
	<path class="st6" d="M563.2,30.8l-4,11c-0.6,1.6-1.5,2.4-2.7,2.4c-0.4,0-0.8-0.1-1.3-0.2v-1.2c0.4,0.1,0.7,0.1,1,0.1
		c0.5,0,0.9-0.1,1.2-0.4c0.3-0.3,0.7-1,1-2l-3.4-9.7h1.6l2.6,7.4l2.7-7.4H563.2z"/>
	<path class="st6" d="M578.7,39.3v1.4h-9.5v-1.4c3.7-2.8,6-4.6,6.7-5.5s1.1-1.8,1.1-2.6c0-0.8-0.3-1.5-0.9-2s-1.3-0.8-2.1-0.8
		c-0.8,0-1.5,0.3-2.2,0.8s-1,1.3-1.1,2.2l-1.6-0.5c0.7-2.6,2.2-3.9,4.8-3.9c1.4,0,2.5,0.4,3.3,1.2s1.3,1.7,1.3,2.9
		c0,0.8-0.2,1.5-0.6,2.2s-1.2,1.6-2.3,2.6s-2.6,2.1-4.4,3.4H578.7z"/>
	<path class="st6" d="M585.8,40.9c-1.5,0-2.8-0.7-3.7-2c-0.9-1.3-1.4-3-1.4-5c0-1.9,0.4-3.6,1.3-4.9c0.9-1.3,2.1-2,3.7-2
		c1.7,0,2.9,0.7,3.8,2.1c0.9,1.4,1.3,3,1.3,4.9c0,1.8-0.4,3.4-1.3,4.8C588.6,40.3,587.4,40.9,585.8,40.9z M585.8,39.6
		c1.1,0,2-0.5,2.5-1.5s0.8-2.3,0.8-3.8c0-1.7-0.3-3.1-0.8-4.2s-1.4-1.7-2.6-1.7c-1.1,0-1.9,0.5-2.5,1.5s-0.8,2.4-0.8,4
		c0,1.7,0.3,3.1,0.9,4.1S584.7,39.6,585.8,39.6z"/>
	<path class="st6" d="M602.1,39.3v1.4h-9.5v-1.4c3.7-2.8,6-4.6,6.7-5.5s1.1-1.8,1.1-2.6c0-0.8-0.3-1.5-0.9-2s-1.3-0.8-2.1-0.8
		c-0.8,0-1.5,0.3-2.2,0.8s-1,1.3-1.1,2.2l-1.6-0.5c0.7-2.6,2.2-3.9,4.8-3.9c1.4,0,2.5,0.4,3.3,1.2s1.3,1.7,1.3,2.9
		c0,0.8-0.2,1.5-0.6,2.2s-1.2,1.6-2.3,2.6s-2.6,2.1-4.4,3.4H602.1z"/>
	<path class="st6" d="M609.2,40.9c-1.5,0-2.8-0.7-3.7-2c-0.9-1.3-1.4-3-1.4-5c0-1.9,0.4-3.6,1.3-4.9c0.9-1.3,2.1-2,3.7-2
		c1.7,0,2.9,0.7,3.8,2.1c0.9,1.4,1.3,3,1.3,4.9c0,1.8-0.4,3.4-1.3,4.8C612,40.3,610.8,40.9,609.2,40.9z M609.2,39.6
		c1.1,0,2-0.5,2.5-1.5s0.8-2.3,0.8-3.8c0-1.7-0.3-3.1-0.8-4.2s-1.4-1.7-2.6-1.7c-1.1,0-1.9,0.5-2.5,1.5s-0.8,2.4-0.8,4
		c0,1.7,0.3,3.1,0.9,4.1S608.1,39.6,609.2,39.6z"/>
</g>
</svg>
