<?xml version="1.0" encoding="utf-8"?>
<!-- Generator: Adobe Illustrator 24.0.2, SVG Export Plug-In . SVG Version: 6.00 Build 0)  -->
<svg version="1.1" id="Capa_1" xmlns="http://www.w3.org/2000/svg" xmlns:xlink="http://www.w3.org/1999/xlink" x="0px" y="0px"
	 viewBox="0 0 609.7 91" style="enable-background:new 0 0 609.7 91;" xml:space="preserve">
<style type="text/css">
	.st0{opacity:0.9;fill:#CB7E42;enable-background:new    ;}
	.st1{fill:none;stroke:#DDDDDD;stroke-width:0.5;stroke-miterlimit:10;}
	.st2{enable-background:new    ;}
	.st3{fill:#DCDCDC;}
	.st4{fill:none;stroke:#DCDCDC;stroke-width:0.5;stroke-miterlimit:10;}
	.st5{fill:#DDDDDD;}
	.st6{opacity:0.9;fill:#FBD59A;enable-background:new    ;}
</style>
<title>5b</title>
<ellipse transform="matrix(0.2298 -0.9732 0.9732 0.2298 340.5347 559.6734)" class="st0" cx="523.9" cy="64.7" rx="8.6" ry="8.6"/>
<line class="st1" x1="23.7" y1="64.6" x2="553.2" y2="64.6"/>
<line class="st1" x1="30.2" y1="58.1" x2="30.2" y2="72.1"/>
<line class="st1" x1="547.2" y1="58.1" x2="547.2" y2="72.1"/>
<g class="st2">
	<path class="st3" d="M449.1,89.2v1.6h-7.9v-1.9l3.3-2.2c1-0.7,1.7-1.3,2-1.8s0.5-1,0.5-1.4c0-0.5-0.2-1-0.5-1.3
		c-0.3-0.4-0.8-0.5-1.4-0.5c-1.2,0-1.9,0.7-2.1,2.2l-1.9-0.5c0.1-0.9,0.6-1.8,1.3-2.4c0.7-0.7,1.6-1,2.8-1c1.2,0,2.1,0.3,2.8,1
		s1.1,1.5,1.1,2.6c0,0.9-0.3,1.7-0.9,2.4s-2.2,1.8-4.6,3.2L449.1,89.2L449.1,89.2z"/>
	<path class="st3" d="M454.7,91c-1.3,0-2.3-0.5-3-1.5s-1.1-2.3-1.1-3.9c0-1.7,0.4-3,1.1-4.1s1.7-1.5,3-1.5c0.9,0,1.7,0.2,2.3,0.7
		c0.6,0.5,1.1,1.2,1.4,2s0.5,1.7,0.5,2.4c0,1.3-0.1,2.3-0.4,3.1c-0.3,0.8-0.7,1.5-1.4,2S455.6,91,454.7,91z M454.6,89.5
		c0.5,0,1-0.2,1.3-0.5s0.6-0.8,0.7-1.4s0.2-1.4,0.2-2.5c0-0.9-0.1-1.7-0.4-2.5s-0.9-1.2-1.7-1.2c-1.4,0-2.2,1.3-2.2,4
		c0,1.2,0.2,2.2,0.5,2.9C453.3,89.1,453.8,89.5,454.6,89.5z"/>
	<path class="st3" d="M464,91c-1.3,0-2.3-0.5-3-1.5s-1.1-2.3-1.1-3.9c0-1.7,0.4-3,1.1-4.1s1.7-1.5,3-1.5c0.9,0,1.7,0.2,2.3,0.7
		c0.6,0.5,1.1,1.2,1.4,2s0.5,1.7,0.5,2.4c0,1.3-0.1,2.3-0.4,3.1c-0.3,0.8-0.7,1.5-1.4,2S465,91,464,91z M464,89.5
		c0.5,0,1-0.2,1.3-0.5s0.6-0.8,0.7-1.4s0.2-1.4,0.2-2.5c0-0.9-0.1-1.7-0.4-2.5s-0.9-1.2-1.7-1.2c-1.4,0-2.2,1.3-2.2,4
		c0,1.2,0.2,2.2,0.5,2.9C462.7,89.1,463.2,89.5,464,89.5z"/>
	<path class="st3" d="M471.5,85.6c-1.3-0.6-1.9-1.4-1.9-2.6c0-0.9,0.3-1.6,1-2.2s1.7-0.8,2.9-0.8c1.1,0,2,0.3,2.7,0.8s1,1.2,1,2
		c0,1-0.6,1.8-1.9,2.3c1.5,0.7,2.3,1.6,2.3,2.8c0,0.9-0.4,1.6-1.2,2.2s-1.8,0.9-3.1,0.9c-1.4,0-2.4-0.3-3.1-0.8s-1.1-1.2-1.1-2.1
		C469.2,87,470,86.1,471.5,85.6z M472.8,86.2c-0.5,0.2-0.9,0.4-1.3,0.8c-0.3,0.3-0.5,0.7-0.5,1.1s0.2,0.7,0.6,1.1s1,0.5,1.8,0.5
		c0.7,0,1.2-0.1,1.6-0.4s0.6-0.6,0.6-1s-0.2-0.7-0.5-0.9C474.9,87,474.1,86.6,472.8,86.2z M474,84.5c1-0.4,1.5-1,1.5-1.7
		c0-0.5-0.2-0.8-0.6-1.1c-0.4-0.3-0.9-0.4-1.4-0.4s-1,0.1-1.4,0.4c-0.4,0.2-0.6,0.6-0.6,1c0,0.5,0.2,0.8,0.6,1.1
		C472.6,84,473.2,84.3,474,84.5z"/>
</g>
<g class="st2">
	<path class="st3" d="M516.1,89.2v1.6h-7.9v-1.9l3.3-2.2c1-0.7,1.7-1.3,2-1.8s0.5-1,0.5-1.4c0-0.5-0.2-1-0.5-1.3
		c-0.3-0.4-0.8-0.5-1.4-0.5c-1.2,0-1.9,0.7-2.1,2.2l-1.9-0.5c0.1-0.9,0.6-1.8,1.3-2.4c0.7-0.7,1.6-1,2.8-1c1.2,0,2.1,0.3,2.8,1
		s1.1,1.5,1.1,2.6c0,0.9-0.3,1.7-0.9,2.4c-0.6,0.7-2.2,1.8-4.6,3.2L516.1,89.2L516.1,89.2z"/>
	<path class="st3" d="M521.7,91c-1.3,0-2.3-0.5-3-1.5s-1.1-2.3-1.1-3.9c0-1.7,0.4-3,1.1-4.1s1.7-1.5,3-1.5c0.9,0,1.7,0.2,2.3,0.7
		s1.1,1.2,1.4,2s0.5,1.7,0.5,2.4c0,1.3-0.1,2.3-0.4,3.1c-0.3,0.8-0.7,1.5-1.4,2S522.6,91,521.7,91z M521.6,89.5c0.5,0,1-0.2,1.3-0.5
		s0.6-0.8,0.7-1.4c0.1-0.6,0.2-1.4,0.2-2.5c0-0.9-0.1-1.7-0.4-2.5c-0.3-0.8-0.9-1.2-1.7-1.2c-1.4,0-2.2,1.3-2.2,4
		c0,1.2,0.2,2.2,0.5,2.9C520.3,89.1,520.8,89.5,521.6,89.5z"/>
	<path class="st3" d="M534.9,89.2v1.6H527v-1.9l3.3-2.2c1-0.7,1.7-1.3,2-1.8s0.5-1,0.5-1.4c0-0.5-0.2-1-0.5-1.3
		c-0.3-0.4-0.8-0.5-1.4-0.5c-1.2,0-1.9,0.7-2.1,2.2l-1.9-0.5c0.1-0.9,0.6-1.8,1.3-2.4c0.7-0.7,1.6-1,2.8-1s2.1,0.3,2.8,1
		s1.1,1.5,1.1,2.6c0,0.9-0.3,1.7-0.9,2.4s-2.2,1.8-4.6,3.2L534.9,89.2L534.9,89.2z"/>
	<path class="st3" d="M540.4,91c-1.3,0-2.3-0.5-3-1.5s-1.1-2.3-1.1-3.9c0-1.7,0.4-3,1.1-4.1s1.7-1.5,3-1.5c0.9,0,1.7,0.2,2.3,0.7
		s1.1,1.2,1.4,2s0.5,1.7,0.5,2.4c0,1.3-0.1,2.3-0.4,3.1c-0.3,0.8-0.7,1.5-1.4,2S541.4,91,540.4,91z M540.4,89.5c0.5,0,1-0.2,1.3-0.5
		s0.6-0.8,0.7-1.4c0.1-0.6,0.2-1.4,0.2-2.5c0-0.9-0.1-1.7-0.4-2.5c-0.3-0.8-0.9-1.2-1.7-1.2c-1.4,0-2.2,1.3-2.2,4
		c0,1.2,0.2,2.2,0.5,2.9C539,89.1,539.6,89.5,540.4,89.5z"/>
</g>
<polyline class="st4" points="524.8,50.2 524.8,43.4 460,43.4 460,50.2 "/>
<g class="st2">
	<path class="st5" d="M376,13v1.5h-8.6V1.1h8.4v1.5H369v4.2h5.4v1.4H369V13H376z"/>
	<path class="st5" d="M379.8,14.5h-1.5V1.1h1.5V14.5z"/>
	<path class="st5" d="M389.6,14.5h-1.7V1.1h1.7V14.5z"/>
	<path class="st5" d="M394.6,14.5h-1.7V1.1h4.7c1.5,0,2.6,0.4,3.3,1.2S402,4,402,5c0,1.1-0.4,2.1-1.1,2.8c-0.8,0.7-1.8,1.1-3,1.1
		h-3.3V14.5z M394.6,7.7h3.1c0.8,0,1.4-0.2,1.9-0.7s0.7-1.1,0.7-1.9c0-0.7-0.2-1.3-0.6-1.8s-1.1-0.8-1.9-0.8h-3.2V7.7z"/>
	<path class="st5" d="M412.1,10l1.5,0.3c-0.7,2.9-2.4,4.4-4.9,4.4c-1.7,0-3-0.7-4-2c-1-1.4-1.4-3-1.4-5c0-2.1,0.5-3.7,1.5-4.9
		s2.3-1.9,4-1.9c2.5,0,4.1,1.4,4.8,4.3L412,5.5c-0.6-2.1-1.7-3.2-3.3-3.2c-1.2,0-2.1,0.5-2.7,1.5s-1,2.4-1,4.2c0,1.6,0.3,2.9,1,3.9
		s1.5,1.5,2.6,1.5C410.5,13.3,411.6,12.2,412.1,10z"/>
	<path class="st5" d="M419.3,11.9l1.5-0.3c0.3,1.2,1.4,1.9,3.1,1.9c0.6,0,1.2-0.1,1.6-0.4c0.4-0.3,0.7-0.7,0.7-1.2
		c0-0.8-0.6-1.3-1.7-1.5l-2.1-0.4c-0.8-0.2-1.5-0.5-1.9-0.9c-0.5-0.5-0.7-1.1-0.7-1.8c0-0.8,0.3-1.5,1-2.1s1.5-0.8,2.7-0.8
		c2.1,0,3.5,0.8,4,2.5l-1.4,0.3c-0.4-1-1.2-1.5-2.5-1.5c-0.6,0-1.1,0.1-1.5,0.4s-0.6,0.6-0.6,1.1c0,0.7,0.5,1.2,1.5,1.4l1.9,0.3
		c2,0.4,3,1.3,3,2.9c0,0.9-0.4,1.6-1.1,2.2s-1.7,0.8-3,0.8C421.3,14.7,419.8,13.8,419.3,11.9z"/>
	<path class="st5" d="M436.4,11.5l1.4,0.3c-0.3,0.8-0.8,1.5-1.5,2.1c-0.8,0.6-1.6,0.8-2.7,0.8c-1.3,0-2.4-0.5-3.3-1.4
		c-0.8-0.9-1.3-2.2-1.3-3.7c0-1.6,0.4-2.8,1.3-3.8s2-1.5,3.3-1.5s2.3,0.4,3.1,1.3c0.8,0.9,1.2,2.2,1.2,4h-7.2c0,1.5,0.3,2.5,0.9,3
		s1.3,0.8,2,0.8C435,13.5,435.9,12.8,436.4,11.5z M436.3,8.5c0-0.6-0.1-1-0.3-1.5c-0.2-0.4-0.5-0.8-0.9-1.1s-0.9-0.5-1.5-0.5
		c-0.8,0-1.4,0.3-1.9,0.8s-0.8,1.3-0.9,2.2L436.3,8.5L436.3,8.5L436.3,8.5z"/>
	<path class="st5" d="M446.9,1.1v1.7h-1.7V1.1H446.9z M446.8,4.6v9.9h-1.5V4.6H446.8z"/>
	<path class="st5" d="M457.7,14.5h-1.4V8.2c0-0.9-0.2-1.6-0.6-1.9c-0.4-0.4-0.9-0.6-1.4-0.6c-0.8,0-1.4,0.3-2,0.9
		c-0.5,0.6-0.8,1.4-0.8,2.5v5.4H450V4.6h1.4v1.8c0.8-1.4,1.8-2.1,3.1-2.1c0.7,0,1.4,0.2,1.9,0.6s0.9,0.8,1.1,1.3s0.3,1.3,0.3,2.6
		L457.7,14.5C457.8,14.5,457.7,14.5,457.7,14.5z"/>
	<path class="st5" d="M466.6,11l1.4,0.2c-0.2,1.1-0.6,1.9-1.3,2.6c-0.7,0.6-1.5,0.9-2.5,0.9c-1.4,0-2.4-0.5-3.1-1.5S460,11,460,9.5
		s0.4-2.7,1.1-3.7c0.8-1,1.8-1.5,3.1-1.5c1.1,0,1.9,0.3,2.6,1c0.6,0.6,1,1.5,1.2,2.5l-1.4,0.3c-0.3-1.6-1-2.4-2.4-2.4
		c-0.8,0-1.5,0.4-1.9,1.1c-0.5,0.7-0.7,1.7-0.7,2.8c0,1.3,0.2,2.2,0.7,2.9s1.1,1,1.9,1C465.4,13.5,466.2,12.7,466.6,11z"/>
	<path class="st5" d="M471.6,14.5h-1.5V4.6h1.3v2.3c0.5-1.1,1-1.8,1.4-2.1c0.4-0.3,1-0.5,1.5-0.5c0.2,0,0.4,0,0.6,0v1.5h-0.3
		c-0.8,0-1.5,0.3-2.1,0.9s-0.9,1.5-0.9,2.5V14.5z"/>
	<path class="st5" d="M483.1,11.5l1.5,0.3c-0.3,0.8-0.8,1.5-1.5,2.1c-0.8,0.6-1.6,0.8-2.7,0.8c-1.3,0-2.4-0.5-3.3-1.4
		c-0.8-0.9-1.3-2.2-1.3-3.7c0-1.6,0.4-2.8,1.3-3.8s2-1.5,3.3-1.5s2.3,0.4,3.1,1.3c0.8,0.9,1.2,2.2,1.2,4h-7.1c0,1.5,0.3,2.5,0.9,3
		s1.3,0.8,2,0.8C481.7,13.5,482.6,12.8,483.1,11.5z M483.1,8.5c0-0.6-0.1-1-0.3-1.5c-0.2-0.4-0.5-0.8-0.9-1.1s-0.9-0.5-1.5-0.5
		c-0.8,0-1.4,0.3-1.9,0.8s-0.8,1.3-0.9,2.2L483.1,8.5L483.1,8.5L483.1,8.5z"/>
	<path class="st5" d="M500.3,14.5h-1.5V8.4c0-0.6,0-1.1-0.1-1.4s-0.3-0.6-0.6-0.9c-0.3-0.3-0.7-0.4-1.1-0.4c-0.6,0-1.2,0.3-1.7,0.8
		s-0.8,1.4-0.8,2.5v5.6H493V8.1c0-0.9-0.2-1.5-0.6-1.8c-0.4-0.4-0.8-0.5-1.3-0.5c-0.7,0-1.2,0.3-1.7,0.8c-0.5,0.6-0.7,1.3-0.7,2.1
		v5.9h-1.5v-10h1.3v1.9c0.7-1.4,1.7-2.2,3-2.2c0.7,0,1.3,0.2,1.8,0.7s0.8,1,1,1.7c0.7-1.6,1.7-2.4,3.1-2.4c0.7,0,1.3,0.2,1.8,0.6
		s0.8,0.8,1,1.3s0.2,1.2,0.2,2.1L500.3,14.5L500.3,14.5z"/>
	<path class="st5" d="M509.8,11.5l1.4,0.3c-0.3,0.8-0.8,1.5-1.5,2.1c-0.8,0.6-1.6,0.8-2.7,0.8c-1.3,0-2.4-0.5-3.3-1.4
		c-0.8-0.9-1.3-2.2-1.3-3.7c0-1.6,0.4-2.8,1.3-3.8s2-1.5,3.3-1.5s2.3,0.4,3.1,1.3c0.8,0.9,1.2,2.2,1.2,4h-7.2c0,1.5,0.3,2.5,0.9,3
		s1.3,0.8,2,0.8C508.4,13.5,509.3,12.8,509.8,11.5z M509.7,8.5c0-0.6-0.1-1-0.3-1.5c-0.2-0.4-0.5-0.8-0.9-1.1s-0.9-0.5-1.5-0.5
		c-0.8,0-1.4,0.3-1.9,0.8s-0.8,1.3-0.9,2.2L509.7,8.5L509.7,8.5L509.7,8.5z"/>
	<path class="st5" d="M521.5,14.5h-1.4V8.2c0-0.9-0.2-1.6-0.6-1.9c-0.4-0.4-0.9-0.6-1.4-0.6c-0.8,0-1.4,0.3-2,0.9
		c-0.5,0.6-0.8,1.4-0.8,2.5v5.4h-1.5V4.6h1.4v1.8c0.8-1.4,1.8-2.1,3.1-2.1c0.7,0,1.4,0.2,1.9,0.6s0.9,0.8,1.1,1.3s0.3,1.3,0.3,2.6
		L521.5,14.5L521.5,14.5z"/>
	<path class="st5" d="M529,13.4v1.2c-0.5,0.1-1,0.1-1.4,0.1c-1.9,0-2.9-1-2.9-3V5.8H523V4.6h1.7l0.1-2.5l1.4-0.1v2.6h2.2v1.2h-2.2
		V12c0,1,0.5,1.5,1.6,1.5C528.2,13.5,528.6,13.5,529,13.4z"/>
	<path class="st5" d="M534.3,14.7c-1.4,0-2.4-0.5-3.2-1.5S530,11,530,9.5c0-1.6,0.4-2.8,1.3-3.8c0.9-0.9,1.9-1.4,3.2-1.4
		c1.4,0,2.4,0.5,3.2,1.5s1.2,2.2,1.2,3.7s-0.4,2.8-1.3,3.8C536.7,14.3,535.6,14.7,534.3,14.7z M534.4,13.5c0.8,0,1.4-0.3,2-1
		s0.8-1.6,0.8-3s-0.3-2.4-0.8-3c-0.6-0.6-1.2-0.9-1.9-0.9c-0.8,0-1.4,0.3-1.9,0.9s-0.8,1.6-0.8,3s0.3,2.4,0.8,3.1
		S533.6,13.5,534.4,13.5z M537.3,1.2l-4,1.8l-0.4-0.8l3.9-2.2L537.3,1.2z"/>
	<path class="st5" d="M552.6,11.5l1.4,0.3c-0.3,0.8-0.8,1.5-1.5,2.1c-0.8,0.6-1.6,0.8-2.7,0.8c-1.3,0-2.4-0.5-3.3-1.4
		c-0.8-0.9-1.3-2.2-1.3-3.7c0-1.6,0.4-2.8,1.3-3.8c0.9-1,2-1.5,3.3-1.5s2.3,0.4,3.1,1.3s1.2,2.2,1.2,4h-7.2c0,1.5,0.3,2.5,0.9,3
		s1.3,0.8,2,0.8C551.2,13.5,552.1,12.8,552.6,11.5z M552.5,8.5c0-0.6-0.1-1-0.3-1.5c-0.2-0.4-0.5-0.8-0.9-1.1s-0.9-0.5-1.5-0.5
		c-0.8,0-1.4,0.3-1.9,0.8s-0.8,1.3-0.9,2.2L552.5,8.5L552.5,8.5L552.5,8.5z"/>
	<path class="st5" d="M564.3,14.5h-1.4V8.2c0-0.9-0.2-1.6-0.6-1.9c-0.4-0.4-0.9-0.6-1.4-0.6c-0.8,0-1.4,0.3-2,0.9
		c-0.5,0.6-0.8,1.4-0.8,2.5v5.4h-1.5V4.6h1.4v1.8c0.8-1.4,1.8-2.1,3.1-2.1c0.7,0,1.4,0.2,1.9,0.6s0.9,0.8,1.1,1.3
		c0.2,0.5,0.3,1.3,0.3,2.6L564.3,14.5L564.3,14.5z"/>
</g>
<g class="st2">
	<path class="st5" d="M582.4,14.5h-10.2v-2h4V4.1c-1.3,1.2-2.5,2-3.6,2.4V4.1c1.1-0.4,1.8-0.7,2.1-0.9s0.7-0.5,1.2-1
		s0.9-0.9,1.1-1.3h1.6v11.6h3.8L582.4,14.5L582.4,14.5z"/>
	<path class="st5" d="M584.7,1.1h8.3l-0.2,2.1h-6.3l-0.4,3.9c0.8-1,1.8-1.5,3.1-1.5s2.4,0.4,3.2,1.3c0.9,0.9,1.3,1.9,1.3,3.2
		s-0.5,2.4-1.4,3.3s-2.2,1.4-3.8,1.4c-1.3,0-2.4-0.3-3.4-0.9s-1.6-1.5-1.9-2.8l2.3-0.3c0.4,1.4,1.4,2,2.8,2c0.9,0,1.5-0.3,2-0.8
		s0.7-1.2,0.7-1.9s-0.2-1.4-0.7-1.9s-1.1-0.8-1.8-0.8c-1.1,0-2,0.5-2.6,1.6l-2.1-0.4L584.7,1.1z"/>
	<path class="st5" d="M597.9,12v2.2l-1.6,3.1h-0.9l1.2-2.9h-1.2v-2.5L597.9,12L597.9,12z"/>
	<path class="st5" d="M603.3,8.6V6.7h1.2c0.7,0,1.3-0.2,1.8-0.5s0.7-0.8,0.7-1.5c0-0.6-0.2-1.1-0.6-1.4c-0.4-0.3-0.9-0.5-1.6-0.5
		c-1.3,0-2.2,0.6-2.7,1.9l-2.2-0.4c0.2-1,0.8-1.8,1.7-2.5c0.9-0.6,2-1,3.2-1c1.3,0,2.3,0.3,3.2,1s1.3,1.5,1.3,2.6
		c0,0.8-0.2,1.5-0.7,2.1s-1.1,0.9-1.8,0.9c0.9,0.1,1.6,0.5,2.1,1.1s0.8,1.3,0.8,2.1c0,1.1-0.5,2.1-1.4,2.8s-2.1,1.1-3.7,1.1
		c-1.4,0-2.6-0.4-3.5-1.1c-0.9-0.7-1.5-1.5-1.7-2.5l2.3-0.6c0.5,1.5,1.4,2.2,2.9,2.2c0.8,0,1.4-0.2,1.9-0.6s0.7-0.9,0.7-1.5
		s-0.2-1.1-0.6-1.5c-0.4-0.4-1-0.6-1.9-0.6h-1.4V8.6z"/>
</g>
<g class="st2">
	<path class="st5" d="M369.4,41.8h-2.3V28.6h2.1v1.7c0.7-1.3,1.7-1.9,3-1.9c1.1,0,2,0.5,2.6,1.4c0.7,1,1,2.2,1,3.6s-0.3,2.6-0.9,3.7
		c-0.6,1-1.5,1.6-2.8,1.6s-2.2-0.5-2.8-1.6L369.4,41.8L369.4,41.8z M369.4,34.4c0,0.7,0.2,1.3,0.6,1.8s0.9,0.7,1.4,0.7
		c0.7,0,1.2-0.3,1.6-0.9c0.3-0.6,0.5-1.4,0.5-2.4s-0.2-1.8-0.5-2.4s-0.8-0.9-1.5-0.9c-0.6,0-1.1,0.3-1.5,0.8s-0.6,1.2-0.6,2V34.4z"
		/>
	<path class="st5" d="M386,38.5h-2.1v-2.1c-0.6,1.6-1.6,2.3-3.1,2.3c-0.9,0-1.6-0.3-2.1-0.8s-0.8-1.3-0.8-2.3v-6.9h2.3v6.4
		c0,0.7,0.2,1.2,0.5,1.4s0.6,0.3,0.9,0.3c0.5,0,1-0.2,1.5-0.6c0.5-0.4,0.8-1.4,0.8-2.8v-4.7h2.2L386,38.5L386,38.5z"/>
	<path class="st5" d="M396.8,38.5h-2.2v-6.2c0-0.7-0.2-1.1-0.4-1.5c-0.3-0.3-0.7-0.5-1.1-0.5c-0.6,0-1.1,0.3-1.5,0.8
		s-0.7,1.3-0.7,2.3v5.1h-2.2v-9.9h2v2.3c0.7-1.7,1.7-2.5,3-2.5c0.9,0,1.6,0.3,2.2,0.8s0.9,1.5,0.9,2.9L396.8,38.5L396.8,38.5z"/>
</g>
<g class="st2">
	<path class="st5" d="M404,36.7v1.7c-0.7,0.1-1.2,0.2-1.5,0.2c-0.6,0-1.1-0.1-1.5-0.4s-0.7-0.6-0.9-1c-0.2-0.4-0.3-1-0.3-1.9v-5.1
		h-1.2v-1.7h1.4l0.2-2.6l1.8-0.2v2.7h2v1.7h-2v4.8c0,0.6,0.1,1,0.3,1.3s0.6,0.3,1.3,0.3C403.7,36.8,403.9,36.7,404,36.7z"/>
</g>
<g class="st2">
	<path class="st5" d="M409.4,38.7c-1.5,0-2.6-0.5-3.3-1.6c-0.8-1-1.2-2.2-1.2-3.6c0-1.5,0.4-2.7,1.3-3.6s2-1.5,3.4-1.5
		c1.3,0,2.4,0.5,3.3,1.4s1.3,2.2,1.3,3.7c0,1.6-0.4,2.8-1.3,3.8C411.9,38.2,410.8,38.7,409.4,38.7z M409.5,36.8
		c1.5,0,2.2-1.1,2.2-3.3c0-1-0.2-1.8-0.5-2.4c-0.4-0.6-0.9-0.9-1.7-0.9c-0.8,0-1.3,0.3-1.7,0.9s-0.6,1.4-0.6,2.4
		c0,1.1,0.2,1.9,0.6,2.5C408.3,36.6,408.8,36.8,409.5,36.8z"/>
	<path class="st5" d="M414.9,36.2l2.1-0.4c0.3,0.8,1,1.2,2.1,1.2c1.4,0,2.1-0.4,2.1-1.2c0-0.3-0.1-0.5-0.3-0.6s-0.5-0.3-0.8-0.3
		l-1.8-0.3c-2-0.4-3-1.4-3-2.9c0-0.9,0.3-1.6,0.9-2.2s1.6-0.9,2.8-0.9c2.1,0,3.4,0.8,3.8,2.3l-2,0.4c-0.2-0.7-0.8-1.1-1.8-1.1
		c-1.2,0-1.8,0.4-1.8,1.1c0,0.5,0.5,0.9,1.4,1.1l2.1,0.4c1.6,0.3,2.5,1.3,2.5,2.8c0,1.1-0.4,1.9-1.3,2.4c-0.8,0.5-1.9,0.8-3,0.8
		c-1,0-1.9-0.2-2.7-0.6C415.7,37.7,415.2,37,414.9,36.2z"/>
</g>
<g class="st2">
	<path class="st5" d="M436.9,35.5l1.4,0.3c-0.3,0.8-0.8,1.5-1.5,2.1c-0.8,0.6-1.6,0.8-2.7,0.8c-1.3,0-2.4-0.5-3.3-1.4
		c-0.8-0.9-1.3-2.2-1.3-3.7c0-1.6,0.4-2.8,1.3-3.8s2-1.5,3.3-1.5s2.3,0.4,3.1,1.3c0.8,0.9,1.2,2.2,1.2,4h-7.2c0,1.5,0.3,2.5,0.9,3
		s1.3,0.8,2,0.8C435.5,37.5,436.4,36.8,436.9,35.5z M436.8,32.5c0-0.6-0.1-1-0.3-1.5c-0.2-0.4-0.5-0.8-0.9-1.1s-0.9-0.5-1.5-0.5
		c-0.8,0-1.4,0.3-1.9,0.8s-0.8,1.3-0.9,2.2L436.8,32.5L436.8,32.5z"/>
	<path class="st5" d="M448.6,38.5h-1.4v-6.3c0-0.9-0.2-1.6-0.6-1.9c-0.4-0.4-0.9-0.6-1.4-0.6c-0.8,0-1.4,0.3-2,0.9
		c-0.5,0.6-0.8,1.4-0.8,2.5v5.4h-1.5v-9.9h1.4v1.8c0.8-1.4,1.8-2.1,3.1-2.1c0.7,0,1.4,0.2,1.9,0.6s0.9,0.8,1.1,1.3s0.3,1.3,0.3,2.6
		v5.7H448.6z"/>
	<path class="st5" d="M456.1,37.4v1.2c-0.5,0.1-1,0.1-1.4,0.1c-1.9,0-2.9-1-2.9-3v-5.9h-1.7v-1.2h1.7l0.1-2.5l1.4-0.1v2.6h2.2v1.2
		h-2.2V36c0,1,0.5,1.5,1.6,1.5C455.3,37.5,455.7,37.5,456.1,37.4z"/>
	<path class="st5" d="M459.3,38.5h-1.5v-9.9h1.3v2.3c0.5-1.1,1-1.8,1.4-2.1s1-0.5,1.5-0.5c0.2,0,0.4,0,0.6,0v1.5h-0.3
		c-0.8,0-1.5,0.3-2.1,0.9s-0.9,1.5-0.9,2.5V38.5z"/>
	<path class="st5" d="M470.9,35.5l1.4,0.3c-0.3,0.8-0.8,1.5-1.5,2.1c-0.8,0.6-1.6,0.8-2.7,0.8c-1.3,0-2.4-0.5-3.3-1.4
		c-0.8-0.9-1.3-2.2-1.3-3.7c0-1.6,0.4-2.8,1.3-3.8s2-1.5,3.3-1.5s2.3,0.4,3.1,1.3c0.8,0.9,1.2,2.2,1.2,4h-7.2c0,1.5,0.3,2.5,0.9,3
		s1.3,0.8,2,0.8C469.5,37.5,470.4,36.8,470.9,35.5z M470.8,32.5c0-0.6-0.1-1-0.3-1.5c-0.2-0.4-0.5-0.8-0.9-1.1s-0.9-0.5-1.5-0.5
		c-0.8,0-1.4,0.3-1.9,0.8s-0.8,1.3-0.9,2.2L470.8,32.5L470.8,32.5z"/>
	<path class="st5" d="M488.8,37.1v1.4h-9.5v-1.4c3.7-2.8,6-4.6,6.7-5.5c0.7-0.9,1.1-1.8,1.1-2.6c0-0.8-0.3-1.5-0.9-2
		s-1.3-0.8-2.1-0.8c-0.8,0-1.5,0.3-2.2,0.8s-1,1.3-1.1,2.2l-1.6-0.5c0.7-2.6,2.2-3.9,4.8-3.9c1.4,0,2.5,0.4,3.3,1.2s1.3,1.7,1.3,2.9
		c0,0.8-0.2,1.5-0.6,2.2s-1.2,1.6-2.3,2.6s-2.6,2.1-4.4,3.4C481.3,37.1,488.8,37.1,488.8,37.1z"/>
	<path class="st5" d="M495.9,38.7c-1.5,0-2.8-0.7-3.7-2c-0.9-1.3-1.4-3-1.4-5c0-1.9,0.4-3.6,1.3-4.9s2.1-2,3.7-2
		c1.7,0,2.9,0.7,3.8,2.1s1.3,3,1.3,4.9c0,1.8-0.4,3.4-1.3,4.8C498.7,38.1,497.5,38.7,495.9,38.7z M495.9,37.4c1.1,0,2-0.5,2.5-1.5
		s0.8-2.3,0.8-3.8c0-1.7-0.3-3.1-0.8-4.2c-0.6-1.1-1.4-1.7-2.6-1.7c-1.1,0-1.9,0.5-2.5,1.5c-0.5,1-0.8,2.4-0.8,4
		c0,1.7,0.3,3.1,0.9,4.1C494,36.9,494.8,37.4,495.9,37.4z"/>
	<path class="st5" d="M507.6,38.7c-1.5,0-2.8-0.7-3.7-2c-0.9-1.3-1.4-3-1.4-5c0-1.9,0.4-3.6,1.3-4.9s2.1-2,3.7-2
		c1.7,0,2.9,0.7,3.8,2.1c0.9,1.4,1.3,3,1.3,4.9c0,1.8-0.4,3.4-1.3,4.8C510.4,38.1,509.2,38.7,507.6,38.7z M507.6,37.4
		c1.1,0,2-0.5,2.5-1.5s0.8-2.3,0.8-3.8c0-1.7-0.3-3.1-0.8-4.2c-0.6-1.1-1.4-1.7-2.6-1.7c-1.1,0-1.9,0.5-2.5,1.5
		c-0.5,1-0.8,2.4-0.8,4c0,1.7,0.3,3.1,0.9,4.1C505.7,36.9,506.5,37.4,507.6,37.4z"/>
	<path class="st5" d="M517.4,31.6c-1.7-0.7-2.5-1.8-2.5-3.2c0-1,0.4-1.8,1.3-2.5c0.8-0.7,2-1,3.3-1c1.4,0,2.5,0.3,3.3,0.9
		s1.2,1.4,1.2,2.5c0,1.4-0.9,2.4-2.6,3c1.4,0.6,2.3,1.3,2.6,1.9c0.4,0.6,0.5,1.2,0.5,1.8c0,1.1-0.5,2-1.4,2.7s-2.1,1.1-3.7,1.1
		c-1.7,0-2.9-0.4-3.9-1.1c-0.9-0.7-1.4-1.6-1.4-2.6C514.2,33.5,515.3,32.4,517.4,31.6z M519.2,32.3c-2.3,0.5-3.4,1.5-3.4,2.8
		c0,0.7,0.3,1.3,0.9,1.7c0.6,0.4,1.5,0.7,2.7,0.7c1,0,1.8-0.2,2.5-0.7c0.6-0.4,0.9-1,0.9-1.7C522.8,33.9,521.6,32.9,519.2,32.3z
		 M519.4,30.7c1.1-0.3,1.9-0.6,2.4-1s0.7-0.9,0.7-1.5c0-0.7-0.3-1.2-0.8-1.6c-0.6-0.4-1.3-0.5-2.2-0.5s-1.6,0.2-2.1,0.6
		s-0.8,0.9-0.8,1.5s0.3,1.2,0.9,1.6C518,30.3,518.7,30.6,519.4,30.7z"/>
	<path class="st5" d="M538.5,28.6l-4,11c-0.6,1.6-1.5,2.4-2.7,2.4c-0.4,0-0.8-0.1-1.3-0.2v-1.2c0.4,0.1,0.7,0.1,1,0.1
		c0.5,0,0.9-0.1,1.2-0.4c0.3-0.3,0.7-1,1-2l-3.4-9.7h1.6l2.6,7.4l2.7-7.4C537.2,28.6,538.5,28.6,538.5,28.6z"/>
	<path class="st5" d="M554,37.1v1.4h-9.5v-1.4c3.7-2.8,6-4.6,6.7-5.5c0.7-0.9,1.1-1.8,1.1-2.6c0-0.8-0.3-1.5-0.9-2s-1.3-0.8-2.1-0.8
		s-1.5,0.3-2.2,0.8s-1,1.3-1.1,2.2l-1.6-0.5c0.7-2.6,2.2-3.9,4.8-3.9c1.4,0,2.5,0.4,3.3,1.2s1.3,1.7,1.3,2.9c0,0.8-0.2,1.5-0.6,2.2
		c-0.4,0.7-1.2,1.6-2.3,2.6s-2.6,2.1-4.4,3.4C546.5,37.1,554,37.1,554,37.1z"/>
	<path class="st5" d="M561.1,38.7c-1.5,0-2.8-0.7-3.7-2s-1.4-3-1.4-5c0-1.9,0.4-3.6,1.3-4.9c0.9-1.3,2.1-2,3.7-2
		c1.7,0,2.9,0.7,3.8,2.1c0.9,1.4,1.3,3,1.3,4.9c0,1.8-0.4,3.4-1.3,4.8C563.9,38.1,562.7,38.7,561.1,38.7z M561.1,37.4
		c1.1,0,2-0.5,2.5-1.5s0.8-2.3,0.8-3.8c0-1.7-0.3-3.1-0.8-4.2c-0.6-1.1-1.4-1.7-2.6-1.7c-1.1,0-1.9,0.5-2.5,1.5
		c-0.5,1-0.8,2.4-0.8,4c0,1.7,0.3,3.1,0.9,4.1C559.2,36.9,560,37.4,561.1,37.4z"/>
	<path class="st5" d="M577.5,37.1v1.4H568v-1.4c3.7-2.8,6-4.6,6.7-5.5c0.7-0.9,1.1-1.8,1.1-2.6c0-0.8-0.3-1.5-0.9-2
		s-1.3-0.8-2.1-0.8s-1.5,0.3-2.2,0.8s-1,1.3-1.1,2.2l-1.6-0.5c0.7-2.6,2.2-3.9,4.8-3.9c1.4,0,2.5,0.4,3.3,1.2s1.3,1.7,1.3,2.9
		c0,0.8-0.2,1.5-0.6,2.2c-0.4,0.7-1.2,1.6-2.3,2.6s-2.6,2.1-4.4,3.4C570,37.1,577.5,37.1,577.5,37.1z"/>
	<path class="st5" d="M584.6,38.7c-1.5,0-2.8-0.7-3.7-2s-1.4-3-1.4-5c0-1.9,0.4-3.6,1.3-4.9c0.9-1.3,2.1-2,3.7-2
		c1.7,0,2.9,0.7,3.8,2.1c0.9,1.4,1.3,3,1.3,4.9c0,1.8-0.4,3.4-1.3,4.8C587.4,38.1,586.2,38.7,584.6,38.7z M584.6,37.4
		c1.1,0,2-0.5,2.5-1.5s0.8-2.3,0.8-3.8c0-1.7-0.3-3.1-0.8-4.2c-0.6-1.1-1.4-1.7-2.6-1.7c-1.1,0-1.9,0.5-2.5,1.5
		c-0.5,1-0.8,2.4-0.8,4c0,1.7,0.3,3.1,0.9,4.1C582.6,36.9,583.5,37.4,584.6,37.4z"/>
</g>
<circle class="st6" cx="458.9" cy="64.6" r="8.6"/>
<g class="st2">
	<path class="st3" d="M569.5,69.2h-8.2v-1.6h3.2v-6.7c-1.1,0.9-2,1.6-2.9,1.9v-1.9c0.9-0.3,1.4-0.6,1.7-0.7c0.2-0.1,0.6-0.4,1-0.8
		c0.4-0.4,0.7-0.7,0.9-1.1h1.3v9.3h3V69.2z"/>
</g>
<g class="st2">
	<path class="st3" d="M574.1,69.3c-1.3,0-2.3-0.5-3-1.5s-1.1-2.3-1.1-3.9c0-1.7,0.4-3,1.1-4.1s1.7-1.5,3-1.5c0.9,0,1.7,0.2,2.3,0.7
		s1.1,1.2,1.4,2s0.5,1.7,0.5,2.4c0,1.3-0.1,2.3-0.4,3.1s-0.7,1.5-1.4,2S575.1,69.3,574.1,69.3z M574.1,67.8c0.5,0,1-0.2,1.3-0.5
		s0.6-0.8,0.7-1.4s0.2-1.4,0.2-2.5c0-0.9-0.1-1.7-0.4-2.5s-0.9-1.2-1.7-1.2c-1.4,0-2.2,1.3-2.2,4c0,1.2,0.2,2.2,0.5,2.9
		S573.3,67.8,574.1,67.8z"/>
	<path class="st3" d="M583.5,69.3c-1.3,0-2.3-0.5-3-1.5s-1.1-2.3-1.1-3.9c0-1.7,0.4-3,1.1-4.1s1.7-1.5,3-1.5c0.9,0,1.7,0.2,2.3,0.7
		s1.1,1.2,1.4,2s0.5,1.7,0.5,2.4c0,1.3-0.1,2.3-0.4,3.1s-0.7,1.5-1.4,2S584.4,69.3,583.5,69.3z M583.5,67.8c0.5,0,1-0.2,1.3-0.5
		s0.6-0.8,0.7-1.4s0.2-1.4,0.2-2.5c0-0.9-0.1-1.7-0.4-2.5s-0.9-1.2-1.7-1.2c-1.4,0-2.2,1.3-2.2,4c0,1.2,0.2,2.2,0.5,2.9
		S582.7,67.8,583.5,67.8z"/>
</g>
<g class="st2">
	<path class="st5" d="M599.2,65.7c-0.2,1.2-0.6,2-1.3,2.6s-1.6,0.9-2.6,0.9c-1.2,0-2.1-0.4-2.8-1.2s-1.1-1.7-1.3-2.9h-0.9v-1h0.8
		c0-0.1,0-0.2,0-0.4s0-0.4,0-0.5h-0.8v-1h0.9c0.2-1.3,0.7-2.3,1.5-3s1.7-1,2.6-1c1.1,0,1.9,0.3,2.6,0.9s1.1,1.4,1.3,2.4l-1.8,0.2
		c-0.3-1.4-1-2-2.1-2c-0.5,0-0.9,0.2-1.4,0.6s-0.7,1.1-0.8,1.9h2.4v1H593v0.5v0.5h2.5v1h-2.4c0.1,0.9,0.4,1.5,0.9,1.9
		s0.9,0.6,1.4,0.6s0.9-0.2,1.3-0.6s0.6-0.9,0.6-1.5L599.2,65.7z"/>
</g>
<g class="st2">
	<path class="st3" d="M4.1,69.3c-1.3,0-2.3-0.5-3-1.5S0,65.5,0,63.9c0-1.7,0.4-3,1.1-4.1s1.7-1.5,3-1.5c0.9,0,1.7,0.2,2.3,0.7
		s1.1,1.2,1.4,2c0.3,0.8,0.5,1.7,0.5,2.4c0,1.3-0.1,2.3-0.4,3.1c-0.3,0.8-0.7,1.5-1.4,2S5,69.3,4.1,69.3z M4.1,67.8
		c0.5,0,1-0.2,1.3-0.5s0.6-0.8,0.7-1.4s0.2-1.4,0.2-2.5c0-0.9-0.1-1.7-0.4-2.5S5,59.7,4.2,59.7c-1.4,0-2.2,1.3-2.2,4
		c0,1.2,0.2,2.2,0.5,2.9C2.7,67.4,3.3,67.8,4.1,67.8z"/>
</g>
<g class="st2">
	<path class="st5" d="M20.3,65.7c-0.2,1.2-0.6,2-1.3,2.6c-0.7,0.6-1.6,0.9-2.6,0.9c-1.2,0-2.1-0.4-2.8-1.2c-0.7-0.8-1.1-1.7-1.3-2.9
		h-0.9v-1h0.8c0-0.1,0-0.2,0-0.4s0-0.4,0-0.5h-0.8v-1h0.9c0.2-1.3,0.7-2.3,1.5-3s1.7-1,2.6-1c1.1,0,1.9,0.3,2.6,0.9
		c0.7,0.6,1.1,1.4,1.3,2.4l-1.8,0.2c-0.3-1.4-1-2-2.1-2c-0.5,0-0.9,0.2-1.4,0.6c-0.4,0.4-0.7,1.1-0.8,1.9h2.4v1h-2.5v0.5v0.5h2.5v1
		h-2.4c0.1,0.9,0.4,1.5,0.9,1.9s0.9,0.6,1.4,0.6s0.9-0.2,1.3-0.6s0.6-0.9,0.6-1.5L20.3,65.7z"/>
</g>
</svg>
