<?xml version="1.0" encoding="utf-8"?>
<!-- Generator: Adobe Illustrator 24.0.2, SVG Export Plug-In . SVG Version: 6.00 Build 0)  -->
<svg version="1.1" id="Capa_1" xmlns="http://www.w3.org/2000/svg" xmlns:xlink="http://www.w3.org/1999/xlink" x="0px" y="0px"
	 viewBox="0 0 609.5 98" style="enable-background:new 0 0 609.5 98;" xml:space="preserve">
<style type="text/css">
	.st0{opacity:0.9;fill:#CB7E42;enable-background:new    ;}
	.st1{fill:none;stroke:#DDDDDD;stroke-width:0.5;stroke-miterlimit:10;}
	.st2{enable-background:new    ;}
	.st3{fill:#DCDCDC;}
	.st4{fill:none;stroke:#DCDCDC;stroke-width:0.5;stroke-miterlimit:10;}
	.st5{fill:#DDDDDD;}
	.st6{opacity:0.9;fill:#FBD59A;enable-background:new    ;}
</style>
<title>5b</title>
<circle class="st0" cx="514.3" cy="66.8" r="8.6"/>
<line class="st1" x1="14.1" y1="66.8" x2="543.6" y2="66.8"/>
<line class="st1" x1="20.6" y1="60.3" x2="20.6" y2="74.3"/>
<line class="st1" x1="537.6" y1="60.3" x2="537.6" y2="74.3"/>
<g class="st2">
	<path class="st3" d="M439.5,91.4V93h-7.9v-1.9l3.3-2.2c1-0.7,1.7-1.3,2-1.8c0.3-0.5,0.5-1,0.5-1.4c0-0.5-0.2-1-0.5-1.3
		c-0.3-0.4-0.8-0.5-1.4-0.5c-1.2,0-1.9,0.7-2.1,2.2l-1.9-0.5c0.1-0.9,0.6-1.8,1.3-2.4c0.7-0.7,1.6-1,2.8-1c1.2,0,2.1,0.3,2.8,1
		s1.1,1.5,1.1,2.6c0,0.9-0.3,1.7-0.9,2.4s-2.2,1.8-4.6,3.2H439.5z"/>
	<path class="st3" d="M445.1,93.2c-1.3,0-2.3-0.5-3-1.5c-0.7-1-1.1-2.3-1.1-3.9c0-1.7,0.4-3,1.1-4.1s1.7-1.5,3-1.5
		c0.9,0,1.7,0.2,2.3,0.7c0.6,0.5,1.1,1.2,1.4,2s0.5,1.7,0.5,2.4c0,1.3-0.1,2.3-0.4,3.1c-0.3,0.8-0.7,1.5-1.4,2S446,93.2,445.1,93.2z
		 M445,91.7c0.5,0,1-0.2,1.3-0.5c0.3-0.3,0.6-0.8,0.7-1.4c0.1-0.6,0.2-1.4,0.2-2.5c0-0.9-0.1-1.7-0.4-2.5c-0.3-0.8-0.9-1.2-1.7-1.2
		c-1.4,0-2.2,1.3-2.2,4c0,1.2,0.2,2.2,0.5,2.9C443.7,91.3,444.2,91.7,445,91.7z"/>
	<path class="st3" d="M454.4,93.2c-1.3,0-2.3-0.5-3-1.5c-0.7-1-1.1-2.3-1.1-3.9c0-1.7,0.4-3,1.1-4.1s1.7-1.5,3-1.5
		c0.9,0,1.7,0.2,2.3,0.7c0.6,0.5,1.1,1.2,1.4,2s0.5,1.7,0.5,2.4c0,1.3-0.1,2.3-0.4,3.1c-0.3,0.8-0.7,1.5-1.4,2
		S455.4,93.2,454.4,93.2z M454.4,91.7c0.5,0,1-0.2,1.3-0.5c0.3-0.3,0.6-0.8,0.7-1.4c0.1-0.6,0.2-1.4,0.2-2.5c0-0.9-0.1-1.7-0.4-2.5
		c-0.3-0.8-0.9-1.2-1.7-1.2c-1.4,0-2.2,1.3-2.2,4c0,1.2,0.2,2.2,0.5,2.9C453.1,91.3,453.6,91.7,454.4,91.7z"/>
	<path class="st3" d="M461.9,87.8c-1.3-0.6-1.9-1.4-1.9-2.6c0-0.9,0.3-1.6,1-2.2c0.7-0.6,1.7-0.8,2.9-0.8c1.1,0,2,0.3,2.7,0.8
		c0.7,0.5,1,1.2,1,2c0,1-0.6,1.8-1.9,2.3c1.5,0.7,2.3,1.6,2.3,2.8c0,0.9-0.4,1.6-1.2,2.2s-1.8,0.9-3.1,0.9c-1.4,0-2.4-0.3-3.1-0.8
		c-0.7-0.5-1.1-1.2-1.1-2.1C459.6,89.2,460.4,88.3,461.9,87.8z M463.2,88.4c-0.5,0.2-0.9,0.4-1.3,0.8c-0.3,0.3-0.5,0.7-0.5,1.1
		c0,0.4,0.2,0.7,0.6,1.1s1,0.5,1.8,0.5c0.7,0,1.2-0.1,1.6-0.4s0.6-0.6,0.6-1c0-0.4-0.2-0.7-0.5-0.9
		C465.3,89.2,464.5,88.8,463.2,88.4z M464.4,86.7c1-0.4,1.5-1,1.5-1.7c0-0.5-0.2-0.8-0.6-1.1c-0.4-0.3-0.9-0.4-1.4-0.4
		c-0.5,0-1,0.1-1.4,0.4c-0.4,0.2-0.6,0.6-0.6,1c0,0.5,0.2,0.8,0.6,1.1C463,86.2,463.6,86.5,464.4,86.7z"/>
</g>
<g class="st2">
	<path class="st3" d="M506.5,91.4V93h-7.9v-1.9l3.3-2.2c1-0.7,1.7-1.3,2-1.8c0.3-0.5,0.5-1,0.5-1.4c0-0.5-0.2-1-0.5-1.3
		c-0.3-0.4-0.8-0.5-1.4-0.5c-1.2,0-1.9,0.7-2.1,2.2l-1.9-0.5c0.1-0.9,0.6-1.8,1.3-2.4c0.7-0.7,1.6-1,2.8-1c1.2,0,2.1,0.3,2.8,1
		s1.1,1.5,1.1,2.6c0,0.9-0.3,1.7-0.9,2.4s-2.2,1.8-4.6,3.2H506.5z"/>
	<path class="st3" d="M512.1,93.2c-1.3,0-2.3-0.5-3-1.5c-0.7-1-1.1-2.3-1.1-3.9c0-1.7,0.4-3,1.1-4.1s1.7-1.5,3-1.5
		c0.9,0,1.7,0.2,2.3,0.7c0.6,0.5,1.1,1.2,1.4,2s0.5,1.7,0.5,2.4c0,1.3-0.1,2.3-0.4,3.1c-0.3,0.8-0.7,1.5-1.4,2S513,93.2,512.1,93.2z
		 M512,91.7c0.5,0,1-0.2,1.3-0.5c0.3-0.3,0.6-0.8,0.7-1.4c0.1-0.6,0.2-1.4,0.2-2.5c0-0.9-0.1-1.7-0.4-2.5c-0.3-0.8-0.9-1.2-1.7-1.2
		c-1.4,0-2.2,1.3-2.2,4c0,1.2,0.2,2.2,0.5,2.9C510.7,91.3,511.2,91.7,512,91.7z"/>
	<path class="st3" d="M525.3,91.4V93h-7.9v-1.9l3.3-2.2c1-0.7,1.7-1.3,2-1.8c0.3-0.5,0.5-1,0.5-1.4c0-0.5-0.2-1-0.5-1.3
		c-0.3-0.4-0.8-0.5-1.4-0.5c-1.2,0-1.9,0.7-2.1,2.2l-1.9-0.5c0.1-0.9,0.6-1.8,1.3-2.4c0.7-0.7,1.6-1,2.8-1c1.2,0,2.1,0.3,2.8,1
		s1.1,1.5,1.1,2.6c0,0.9-0.3,1.7-0.9,2.4s-2.2,1.8-4.6,3.2H525.3z"/>
	<path class="st3" d="M530.8,93.2c-1.3,0-2.3-0.5-3-1.5c-0.7-1-1.1-2.3-1.1-3.9c0-1.7,0.4-3,1.1-4.1s1.7-1.5,3-1.5
		c0.9,0,1.7,0.2,2.3,0.7c0.6,0.5,1.1,1.2,1.4,2s0.5,1.7,0.5,2.4c0,1.3-0.1,2.3-0.4,3.1c-0.3,0.8-0.7,1.5-1.4,2
		S531.8,93.2,530.8,93.2z M530.8,91.7c0.5,0,1-0.2,1.3-0.5c0.3-0.3,0.6-0.8,0.7-1.4c0.1-0.6,0.2-1.4,0.2-2.5c0-0.9-0.1-1.7-0.4-2.5
		c-0.3-0.8-0.9-1.2-1.7-1.2c-1.4,0-2.2,1.3-2.2,4c0,1.2,0.2,2.2,0.5,2.9C529.4,91.3,530,91.7,530.8,91.7z"/>
</g>
<g class="st2">
	<path class="st3" d="M559.9,70h-8.2v-1.6h3.2v-6.7c-1.1,0.9-2,1.6-2.9,1.9v-1.9c0.9-0.3,1.4-0.6,1.7-0.7c0.2-0.1,0.6-0.4,1-0.8
		c0.4-0.4,0.7-0.7,0.9-1.1h1.3v9.3h3V70z"/>
</g>
<g class="st2">
	<path class="st3" d="M564.5,70.2c-1.3,0-2.3-0.5-3-1.5s-1.1-2.3-1.1-3.9c0-1.7,0.4-3,1.1-4.1s1.7-1.5,3-1.5c0.9,0,1.7,0.2,2.3,0.7
		s1.1,1.2,1.4,2s0.5,1.7,0.5,2.4c0,1.3-0.1,2.3-0.4,3.1s-0.7,1.5-1.4,2S565.5,70.2,564.5,70.2z M564.5,68.7c0.5,0,1-0.2,1.3-0.5
		s0.6-0.8,0.7-1.4s0.2-1.4,0.2-2.5c0-0.9-0.1-1.7-0.4-2.5s-0.9-1.2-1.7-1.2c-1.4,0-2.2,1.3-2.2,4c0,1.2,0.2,2.2,0.5,2.9
		S563.7,68.7,564.5,68.7z"/>
	<path class="st3" d="M573.9,70.2c-1.3,0-2.3-0.5-3-1.5s-1.1-2.3-1.1-3.9c0-1.7,0.4-3,1.1-4.1s1.7-1.5,3-1.5c0.9,0,1.7,0.2,2.3,0.7
		s1.1,1.2,1.4,2s0.5,1.7,0.5,2.4c0,1.3-0.1,2.3-0.4,3.1s-0.7,1.5-1.4,2S574.8,70.2,573.9,70.2z M573.9,68.7c0.5,0,1-0.2,1.3-0.5
		s0.6-0.8,0.7-1.4s0.2-1.4,0.2-2.5c0-0.9-0.1-1.7-0.4-2.5s-0.9-1.2-1.7-1.2c-1.4,0-2.2,1.3-2.2,4c0,1.2,0.2,2.2,0.5,2.9
		S573.1,68.7,573.9,68.7z"/>
</g>
<g class="st2">
	<path class="st3" d="M4.7,70.2c-1.3,0-2.3-0.5-3-1.5c-0.7-1-1.1-2.3-1.1-3.9c0-1.7,0.4-3,1.1-4.1s1.7-1.5,3-1.5
		c0.9,0,1.7,0.2,2.3,0.7c0.6,0.5,1.1,1.2,1.4,2s0.5,1.7,0.5,2.4c0,1.3-0.1,2.3-0.4,3.1c-0.3,0.8-0.7,1.5-1.4,2S5.6,70.2,4.7,70.2z
		 M4.7,68.7c0.5,0,1-0.2,1.3-0.5c0.3-0.3,0.6-0.8,0.7-1.4c0.1-0.6,0.2-1.4,0.2-2.5c0-0.9-0.1-1.7-0.4-2.5c-0.3-0.8-0.9-1.2-1.7-1.2
		c-1.4,0-2.2,1.3-2.2,4c0,1.2,0.2,2.2,0.5,2.9C3.3,68.3,3.9,68.7,4.7,68.7z"/>
</g>
<polyline class="st4" points="515.2,52.4 515.2,45.6 450.4,45.6 450.4,52.4 "/>
<g class="st2">
	<path class="st5" d="M366.4,15.2v1.5h-8.6V3.3h8.4v1.5h-6.8V9h5.4v1.4h-5.4v4.8H366.4z"/>
	<path class="st5" d="M370.2,16.7h-1.5V3.3h1.5V16.7z"/>
	<path class="st5" d="M380,16.7h-1.7V3.3h1.7V16.7z"/>
	<path class="st5" d="M385,16.7h-1.7V3.3h4.7c1.5,0,2.6,0.4,3.3,1.2s1.1,1.7,1.1,2.7c0,1.1-0.4,2.1-1.1,2.8c-0.8,0.7-1.8,1.1-3,1.1
		H385V16.7z M385,9.9h3.1c0.8,0,1.4-0.2,1.9-0.7c0.5-0.5,0.7-1.1,0.7-1.9c0-0.7-0.2-1.3-0.6-1.8s-1.1-0.8-1.9-0.8H385V9.9z"/>
	<path class="st5" d="M402.5,12.2l1.5,0.3c-0.7,2.9-2.4,4.4-4.9,4.4c-1.7,0-3-0.7-4-2c-1-1.4-1.4-3-1.4-5c0-2.1,0.5-3.7,1.5-4.9
		c1-1.2,2.3-1.9,4-1.9c2.5,0,4.1,1.4,4.8,4.3l-1.6,0.3c-0.6-2.1-1.7-3.2-3.3-3.2c-1.2,0-2.1,0.5-2.7,1.5c-0.6,1-1,2.4-1,4.2
		c0,1.6,0.3,2.9,1,3.9s1.5,1.5,2.6,1.5C400.9,15.5,402,14.4,402.5,12.2z"/>
	<path class="st5" d="M409.7,14.1l1.5-0.3c0.3,1.2,1.4,1.9,3.1,1.9c0.6,0,1.2-0.1,1.6-0.4c0.4-0.3,0.7-0.7,0.7-1.2
		c0-0.8-0.6-1.3-1.7-1.5l-2.1-0.4c-0.8-0.2-1.5-0.5-1.9-0.9c-0.5-0.5-0.7-1.1-0.7-1.8c0-0.8,0.3-1.5,1-2.1c0.7-0.6,1.5-0.8,2.7-0.8
		c2.1,0,3.5,0.8,4,2.5l-1.4,0.3c-0.4-1-1.2-1.5-2.5-1.5c-0.6,0-1.1,0.1-1.5,0.4s-0.6,0.6-0.6,1.1c0,0.7,0.5,1.2,1.5,1.4l1.9,0.3
		c2,0.4,3,1.3,3,2.9c0,0.9-0.4,1.6-1.1,2.2c-0.7,0.6-1.7,0.8-3,0.8C411.7,16.9,410.2,16,409.7,14.1z"/>
	<path class="st5" d="M426.8,13.7l1.4,0.3c-0.3,0.8-0.8,1.5-1.5,2.1c-0.8,0.6-1.6,0.8-2.7,0.8c-1.3,0-2.4-0.5-3.3-1.4
		c-0.8-0.9-1.3-2.2-1.3-3.7c0-1.6,0.4-2.8,1.3-3.8c0.9-1,2-1.5,3.3-1.5c1.3,0,2.3,0.4,3.1,1.3c0.8,0.9,1.2,2.2,1.2,4h-7.2
		c0,1.5,0.3,2.5,0.9,3s1.3,0.8,2,0.8C425.4,15.7,426.3,15,426.8,13.7z M426.7,10.7c0-0.6-0.1-1-0.3-1.5c-0.2-0.4-0.5-0.8-0.9-1.1
		c-0.4-0.3-0.9-0.5-1.5-0.5c-0.8,0-1.4,0.3-1.9,0.8c-0.5,0.5-0.8,1.3-0.9,2.2H426.7z"/>
	<path class="st5" d="M437.3,3.3V5h-1.7V3.3H437.3z M437.2,6.8v9.9h-1.5V6.8H437.2z"/>
	<path class="st5" d="M448.1,16.7h-1.4v-6.3c0-0.9-0.2-1.6-0.6-1.9c-0.4-0.4-0.9-0.6-1.4-0.6c-0.8,0-1.4,0.3-2,0.9
		c-0.5,0.6-0.8,1.4-0.8,2.5v5.4h-1.5V6.8h1.4v1.8c0.8-1.4,1.8-2.1,3.1-2.1c0.7,0,1.4,0.2,1.9,0.6s0.9,0.8,1.1,1.3
		c0.2,0.5,0.3,1.3,0.3,2.6V16.7z"/>
	<path class="st5" d="M457,13.2l1.4,0.2c-0.2,1.1-0.6,1.9-1.3,2.6c-0.7,0.6-1.5,0.9-2.5,0.9c-1.4,0-2.4-0.5-3.1-1.5
		c-0.7-1-1.1-2.2-1.1-3.7c0-1.5,0.4-2.7,1.1-3.7c0.8-1,1.8-1.5,3.1-1.5c1.1,0,1.9,0.3,2.6,1c0.6,0.6,1,1.5,1.2,2.5l-1.4,0.3
		c-0.3-1.6-1-2.4-2.4-2.4c-0.8,0-1.5,0.4-1.9,1.1c-0.5,0.7-0.7,1.7-0.7,2.8c0,1.3,0.2,2.2,0.7,2.9c0.5,0.7,1.1,1,1.9,1
		C455.8,15.7,456.6,14.9,457,13.2z"/>
	<path class="st5" d="M462,16.7h-1.5V6.8h1.3v2.3c0.5-1.1,1-1.8,1.4-2.1s1-0.5,1.5-0.5c0.2,0,0.4,0,0.6,0V8H465
		c-0.8,0-1.5,0.3-2.1,0.9c-0.6,0.6-0.9,1.5-0.9,2.5V16.7z"/>
	<path class="st5" d="M473.5,13.7L475,14c-0.3,0.8-0.8,1.5-1.5,2.1c-0.8,0.6-1.6,0.8-2.7,0.8c-1.3,0-2.4-0.5-3.3-1.4
		c-0.8-0.9-1.3-2.2-1.3-3.7c0-1.6,0.4-2.8,1.3-3.8c0.9-1,2-1.5,3.3-1.5c1.3,0,2.3,0.4,3.1,1.3c0.8,0.9,1.2,2.2,1.2,4H468
		c0,1.5,0.3,2.5,0.9,3s1.3,0.8,2,0.8C472.1,15.7,473,15,473.5,13.7z M473.5,10.7c0-0.6-0.1-1-0.3-1.5c-0.2-0.4-0.5-0.8-0.9-1.1
		c-0.4-0.3-0.9-0.5-1.5-0.5c-0.8,0-1.4,0.3-1.9,0.8c-0.5,0.5-0.8,1.3-0.9,2.2H473.5z"/>
	<path class="st5" d="M490.7,16.7h-1.5v-6.1c0-0.6,0-1.1-0.1-1.4s-0.3-0.6-0.6-0.9c-0.3-0.3-0.7-0.4-1.1-0.4c-0.6,0-1.2,0.3-1.7,0.8
		c-0.5,0.5-0.8,1.4-0.8,2.5v5.6h-1.5v-6.5c0-0.9-0.2-1.5-0.6-1.8c-0.4-0.4-0.8-0.5-1.3-0.5c-0.7,0-1.2,0.3-1.7,0.8
		c-0.5,0.6-0.7,1.3-0.7,2.1v5.9h-1.5V6.8h1.3v1.9c0.7-1.4,1.7-2.2,3-2.2c0.7,0,1.3,0.2,1.8,0.7c0.5,0.5,0.8,1,1,1.7
		c0.7-1.6,1.7-2.4,3.1-2.4c0.7,0,1.3,0.2,1.8,0.6c0.5,0.4,0.8,0.8,1,1.3c0.2,0.5,0.2,1.2,0.2,2.1V16.7z"/>
	<path class="st5" d="M500.2,13.7l1.4,0.3c-0.3,0.8-0.8,1.5-1.5,2.1c-0.8,0.6-1.6,0.8-2.7,0.8c-1.3,0-2.4-0.5-3.3-1.4
		c-0.8-0.9-1.3-2.2-1.3-3.7c0-1.6,0.4-2.8,1.3-3.8c0.9-1,2-1.5,3.3-1.5c1.3,0,2.3,0.4,3.1,1.3c0.8,0.9,1.2,2.2,1.2,4h-7.2
		c0,1.5,0.3,2.5,0.9,3s1.3,0.8,2,0.8C498.8,15.7,499.7,15,500.2,13.7z M500.1,10.7c0-0.6-0.1-1-0.3-1.5c-0.2-0.4-0.5-0.8-0.9-1.1
		c-0.4-0.3-0.9-0.5-1.5-0.5c-0.8,0-1.4,0.3-1.9,0.8c-0.5,0.5-0.8,1.3-0.9,2.2H500.1z"/>
	<path class="st5" d="M511.9,16.7h-1.4v-6.3c0-0.9-0.2-1.6-0.6-1.9c-0.4-0.4-0.9-0.6-1.4-0.6c-0.8,0-1.4,0.3-2,0.9
		c-0.5,0.6-0.8,1.4-0.8,2.5v5.4h-1.5V6.8h1.4v1.8c0.8-1.4,1.8-2.1,3.1-2.1c0.7,0,1.4,0.2,1.9,0.6s0.9,0.8,1.1,1.3
		c0.2,0.5,0.3,1.3,0.3,2.6V16.7z"/>
	<path class="st5" d="M519.4,15.6v1.2c-0.5,0.1-1,0.1-1.4,0.1c-1.9,0-2.9-1-2.9-3V8h-1.7V6.8h1.7l0.1-2.5l1.4-0.1v2.6h2.2V8h-2.2
		v6.2c0,1,0.5,1.5,1.6,1.5C518.6,15.7,519,15.7,519.4,15.6z"/>
	<path class="st5" d="M524.7,16.9c-1.4,0-2.4-0.5-3.2-1.5c-0.8-1-1.1-2.2-1.1-3.7c0-1.6,0.4-2.8,1.3-3.8c0.9-0.9,1.9-1.4,3.2-1.4
		c1.4,0,2.4,0.5,3.2,1.5c0.8,1,1.2,2.2,1.2,3.7c0,1.5-0.4,2.8-1.3,3.8C527.1,16.5,526,16.9,524.7,16.9z M524.8,15.7
		c0.8,0,1.4-0.3,2-1s0.8-1.6,0.8-3c0-1.4-0.3-2.4-0.8-3c-0.6-0.6-1.2-0.9-1.9-0.9c-0.8,0-1.4,0.3-1.9,0.9s-0.8,1.6-0.8,3
		c0,1.4,0.3,2.4,0.8,3.1S524,15.7,524.8,15.7z M527.7,3.4l-4,1.8l-0.4-0.8l3.9-2.2L527.7,3.4z"/>
	<path class="st5" d="M543,13.7l1.4,0.3c-0.3,0.8-0.8,1.5-1.5,2.1c-0.8,0.6-1.6,0.8-2.7,0.8c-1.3,0-2.4-0.5-3.3-1.4
		c-0.8-0.9-1.3-2.2-1.3-3.7c0-1.6,0.4-2.8,1.3-3.8c0.9-1,2-1.5,3.3-1.5c1.3,0,2.3,0.4,3.1,1.3c0.8,0.9,1.2,2.2,1.2,4h-7.2
		c0,1.5,0.3,2.5,0.9,3s1.3,0.8,2,0.8C541.6,15.7,542.5,15,543,13.7z M542.9,10.7c0-0.6-0.1-1-0.3-1.5c-0.2-0.4-0.5-0.8-0.9-1.1
		c-0.4-0.3-0.9-0.5-1.5-0.5c-0.8,0-1.4,0.3-1.9,0.8c-0.5,0.5-0.8,1.3-0.9,2.2H542.9z"/>
	<path class="st5" d="M554.7,16.7h-1.4v-6.3c0-0.9-0.2-1.6-0.6-1.9c-0.4-0.4-0.9-0.6-1.4-0.6c-0.8,0-1.4,0.3-2,0.9
		c-0.5,0.6-0.8,1.4-0.8,2.5v5.4h-1.5V6.8h1.4v1.8c0.8-1.4,1.8-2.1,3.1-2.1c0.7,0,1.4,0.2,1.9,0.6s0.9,0.8,1.1,1.3
		c0.2,0.5,0.3,1.3,0.3,2.6V16.7z"/>
</g>
<g class="st2">
	<path class="st5" d="M572.8,16.7h-10.2v-2h4V6.3c-1.3,1.2-2.5,2-3.6,2.4V6.3c1.1-0.4,1.8-0.7,2.1-0.9c0.3-0.2,0.7-0.5,1.2-1
		c0.5-0.5,0.9-0.9,1.1-1.3h1.6v11.6h3.8V16.7z"/>
	<path class="st5" d="M575.1,3.3h8.3l-0.2,2.1h-6.3l-0.4,3.9c0.8-1,1.8-1.5,3.1-1.5c1.3,0,2.4,0.4,3.2,1.3c0.9,0.9,1.3,1.9,1.3,3.2
		c0,1.3-0.5,2.4-1.4,3.3c-0.9,0.9-2.2,1.4-3.8,1.4c-1.3,0-2.4-0.3-3.4-0.9c-1-0.6-1.6-1.5-1.9-2.8l2.3-0.3c0.4,1.4,1.4,2,2.8,2
		c0.9,0,1.5-0.3,2-0.8c0.5-0.5,0.7-1.2,0.7-1.9c0-0.7-0.2-1.4-0.7-1.9s-1.1-0.8-1.8-0.8c-1.1,0-2,0.5-2.6,1.6l-2.1-0.4L575.1,3.3z"
		/>
	<path class="st5" d="M588.3,14.2v2.2l-1.6,3.1h-0.9l1.2-2.9h-1.2v-2.5H588.3z"/>
	<path class="st5" d="M593.7,10.8V8.9h1.2c0.7,0,1.3-0.2,1.8-0.5s0.7-0.8,0.7-1.5c0-0.6-0.2-1.1-0.6-1.4c-0.4-0.3-0.9-0.5-1.6-0.5
		c-1.3,0-2.2,0.6-2.7,1.9l-2.2-0.4c0.2-1,0.8-1.8,1.7-2.5c0.9-0.6,2-1,3.2-1c1.3,0,2.3,0.3,3.2,1s1.3,1.5,1.3,2.6
		c0,0.8-0.2,1.5-0.7,2.1s-1.1,0.9-1.8,0.9c0.9,0.1,1.6,0.5,2.1,1.1c0.5,0.6,0.8,1.3,0.8,2.1c0,1.1-0.5,2.1-1.4,2.8
		c-0.9,0.7-2.1,1.1-3.7,1.1c-1.4,0-2.6-0.4-3.5-1.1c-0.9-0.7-1.5-1.5-1.7-2.5l2.3-0.6c0.5,1.5,1.4,2.2,2.9,2.2
		c0.8,0,1.4-0.2,1.9-0.6s0.7-0.9,0.7-1.5c0-0.6-0.2-1.1-0.6-1.5c-0.4-0.4-1-0.6-1.9-0.6H593.7z"/>
</g>
<g class="st2">
	<path class="st5" d="M359.8,44h-2.3V30.8h2.1v1.7c0.7-1.3,1.7-1.9,3-1.9c1.1,0,2,0.5,2.6,1.4c0.7,1,1,2.2,1,3.6
		c0,1.4-0.3,2.6-0.9,3.7c-0.6,1-1.5,1.6-2.8,1.6c-1.3,0-2.2-0.5-2.8-1.6V44z M359.8,36.6c0,0.7,0.2,1.3,0.6,1.8
		c0.4,0.5,0.9,0.7,1.4,0.7c0.7,0,1.2-0.3,1.6-0.9c0.3-0.6,0.5-1.4,0.5-2.4c0-1-0.2-1.8-0.5-2.4s-0.8-0.9-1.5-0.9
		c-0.6,0-1.1,0.3-1.5,0.8c-0.4,0.5-0.6,1.2-0.6,2V36.6z"/>
	<path class="st5" d="M376.4,40.7h-2.1v-2.1c-0.6,1.6-1.6,2.3-3.1,2.3c-0.9,0-1.6-0.3-2.1-0.8s-0.8-1.3-0.8-2.3v-6.9h2.3v6.4
		c0,0.7,0.2,1.2,0.5,1.4s0.6,0.3,0.9,0.3c0.5,0,1-0.2,1.5-0.6c0.5-0.4,0.8-1.4,0.8-2.8v-4.7h2.2V40.7z"/>
	<path class="st5" d="M387.2,40.7H385v-6.2c0-0.7-0.2-1.1-0.4-1.5c-0.3-0.3-0.7-0.5-1.1-0.5c-0.6,0-1.1,0.3-1.5,0.8
		c-0.4,0.5-0.7,1.3-0.7,2.3v5.1h-2.2v-9.9h2v2.3c0.7-1.7,1.7-2.5,3-2.5c0.9,0,1.6,0.3,2.2,0.8s0.9,1.5,0.9,2.9V40.7z"/>
</g>
<g class="st2">
	<path class="st5" d="M394.4,38.9v1.7c-0.7,0.1-1.2,0.2-1.5,0.2c-0.6,0-1.1-0.1-1.5-0.4s-0.7-0.6-0.9-1c-0.2-0.4-0.3-1-0.3-1.9v-5.1
		h-1.2v-1.7h1.4l0.2-2.6l1.8-0.2v2.7h2v1.7h-2v4.8c0,0.6,0.1,1,0.3,1.3s0.6,0.3,1.3,0.3C394.1,39,394.3,38.9,394.4,38.9z"/>
</g>
<g class="st2">
	<path class="st5" d="M399.8,40.9c-1.5,0-2.6-0.5-3.3-1.6c-0.8-1-1.2-2.2-1.2-3.6c0-1.5,0.4-2.7,1.3-3.6s2-1.5,3.4-1.5
		c1.3,0,2.4,0.5,3.3,1.4s1.3,2.2,1.3,3.7c0,1.6-0.4,2.8-1.3,3.8C402.3,40.4,401.2,40.9,399.8,40.9z M399.9,39c1.5,0,2.2-1.1,2.2-3.3
		c0-1-0.2-1.8-0.5-2.4c-0.4-0.6-0.9-0.9-1.7-0.9c-0.8,0-1.3,0.3-1.7,0.9s-0.6,1.4-0.6,2.4c0,1.1,0.2,1.9,0.6,2.5
		C398.7,38.8,399.2,39,399.9,39z"/>
	<path class="st5" d="M405.3,38.4l2.1-0.4c0.3,0.8,1,1.2,2.1,1.2c1.4,0,2.1-0.4,2.1-1.2c0-0.3-0.1-0.5-0.3-0.6s-0.5-0.3-0.8-0.3
		l-1.8-0.3c-2-0.4-3-1.4-3-2.9c0-0.9,0.3-1.6,0.9-2.2c0.6-0.6,1.6-0.9,2.8-0.9c2.1,0,3.4,0.8,3.8,2.3l-2,0.4
		c-0.2-0.7-0.8-1.1-1.8-1.1c-1.2,0-1.8,0.4-1.8,1.1c0,0.5,0.5,0.9,1.4,1.1l2.1,0.4c1.6,0.3,2.5,1.3,2.5,2.8c0,1.1-0.4,1.9-1.3,2.4
		c-0.8,0.5-1.9,0.8-3,0.8c-1,0-1.9-0.2-2.7-0.6C406.1,39.9,405.6,39.2,405.3,38.4z"/>
</g>
<g class="st2">
	<path class="st5" d="M427.3,37.7l1.4,0.3c-0.3,0.8-0.8,1.5-1.5,2.1c-0.8,0.6-1.6,0.8-2.7,0.8c-1.3,0-2.4-0.5-3.3-1.4
		c-0.8-0.9-1.3-2.2-1.3-3.7c0-1.6,0.4-2.8,1.3-3.8c0.9-1,2-1.5,3.3-1.5c1.3,0,2.3,0.4,3.1,1.3c0.8,0.9,1.2,2.2,1.2,4h-7.2
		c0,1.5,0.3,2.5,0.9,3s1.3,0.8,2,0.8C425.9,39.7,426.8,39,427.3,37.7z M427.2,34.7c0-0.6-0.1-1-0.3-1.5c-0.2-0.4-0.5-0.8-0.9-1.1
		c-0.4-0.3-0.9-0.5-1.5-0.5c-0.8,0-1.4,0.3-1.9,0.8c-0.5,0.5-0.8,1.3-0.9,2.2H427.2z"/>
	<path class="st5" d="M439,40.7h-1.4v-6.3c0-0.9-0.2-1.6-0.6-1.9c-0.4-0.4-0.9-0.6-1.4-0.6c-0.8,0-1.4,0.3-2,0.9
		c-0.5,0.6-0.8,1.4-0.8,2.5v5.4h-1.5v-9.9h1.4v1.8c0.8-1.4,1.8-2.1,3.1-2.1c0.7,0,1.4,0.2,1.9,0.6s0.9,0.8,1.1,1.3
		c0.2,0.5,0.3,1.3,0.3,2.6V40.7z"/>
	<path class="st5" d="M446.5,39.6v1.2c-0.5,0.1-1,0.1-1.4,0.1c-1.9,0-2.9-1-2.9-3V32h-1.7v-1.2h1.7l0.1-2.5l1.4-0.1v2.6h2.2V32h-2.2
		v6.2c0,1,0.5,1.5,1.6,1.5C445.7,39.7,446.1,39.7,446.5,39.6z"/>
	<path class="st5" d="M449.7,40.7h-1.5v-9.9h1.3v2.3c0.5-1.1,1-1.8,1.4-2.1s1-0.5,1.5-0.5c0.2,0,0.4,0,0.6,0V32h-0.3
		c-0.8,0-1.5,0.3-2.1,0.9c-0.6,0.6-0.9,1.5-0.9,2.5V40.7z"/>
	<path class="st5" d="M461.3,37.7l1.4,0.3c-0.3,0.8-0.8,1.5-1.5,2.1c-0.8,0.6-1.6,0.8-2.7,0.8c-1.3,0-2.4-0.5-3.3-1.4
		c-0.8-0.9-1.3-2.2-1.3-3.7c0-1.6,0.4-2.8,1.3-3.8c0.9-1,2-1.5,3.3-1.5c1.3,0,2.3,0.4,3.1,1.3c0.8,0.9,1.2,2.2,1.2,4h-7.2
		c0,1.5,0.3,2.5,0.9,3s1.3,0.8,2,0.8C459.9,39.7,460.8,39,461.3,37.7z M461.2,34.7c0-0.6-0.1-1-0.3-1.5c-0.2-0.4-0.5-0.8-0.9-1.1
		c-0.4-0.3-0.9-0.5-1.5-0.5c-0.8,0-1.4,0.3-1.9,0.8c-0.5,0.5-0.8,1.3-0.9,2.2H461.2z"/>
	<path class="st5" d="M479.2,39.3v1.4h-9.5v-1.4c3.7-2.8,6-4.6,6.7-5.5c0.7-0.9,1.1-1.8,1.1-2.6c0-0.8-0.3-1.5-0.9-2
		s-1.3-0.8-2.1-0.8c-0.8,0-1.5,0.3-2.2,0.8s-1,1.3-1.1,2.2l-1.6-0.5c0.7-2.6,2.2-3.9,4.8-3.9c1.4,0,2.5,0.4,3.3,1.2s1.3,1.7,1.3,2.9
		c0,0.8-0.2,1.5-0.6,2.2c-0.4,0.7-1.2,1.6-2.3,2.6s-2.6,2.1-4.4,3.4H479.2z"/>
	<path class="st5" d="M486.3,40.9c-1.5,0-2.8-0.7-3.7-2c-0.9-1.3-1.4-3-1.4-5c0-1.9,0.4-3.6,1.3-4.9c0.9-1.3,2.1-2,3.7-2
		c1.7,0,2.9,0.7,3.8,2.1c0.9,1.4,1.3,3,1.3,4.9c0,1.8-0.4,3.4-1.3,4.8C489.1,40.3,487.9,40.9,486.3,40.9z M486.3,39.6
		c1.1,0,2-0.5,2.5-1.5c0.5-1,0.8-2.3,0.8-3.8c0-1.7-0.3-3.1-0.8-4.2c-0.6-1.1-1.4-1.7-2.6-1.7c-1.1,0-1.9,0.5-2.5,1.5
		c-0.5,1-0.8,2.4-0.8,4c0,1.7,0.3,3.1,0.9,4.1C484.4,39.1,485.2,39.6,486.3,39.6z"/>
	<path class="st5" d="M498,40.9c-1.5,0-2.8-0.7-3.7-2c-0.9-1.3-1.4-3-1.4-5c0-1.9,0.4-3.6,1.3-4.9c0.9-1.3,2.1-2,3.7-2
		c1.7,0,2.9,0.7,3.8,2.1c0.9,1.4,1.3,3,1.3,4.9c0,1.8-0.4,3.4-1.3,4.8C500.8,40.3,499.6,40.9,498,40.9z M498,39.6
		c1.1,0,2-0.5,2.5-1.5c0.5-1,0.8-2.3,0.8-3.8c0-1.7-0.3-3.1-0.8-4.2c-0.6-1.1-1.4-1.7-2.6-1.7c-1.1,0-1.9,0.5-2.5,1.5
		c-0.5,1-0.8,2.4-0.8,4c0,1.7,0.3,3.1,0.9,4.1C496.1,39.1,496.9,39.6,498,39.6z"/>
	<path class="st5" d="M507.8,33.8c-1.7-0.7-2.5-1.8-2.5-3.2c0-1,0.4-1.8,1.3-2.5c0.8-0.7,2-1,3.3-1c1.4,0,2.5,0.3,3.3,0.9
		c0.8,0.6,1.2,1.4,1.2,2.5c0,1.4-0.9,2.4-2.6,3c1.4,0.6,2.3,1.3,2.6,1.9c0.4,0.6,0.5,1.2,0.5,1.8c0,1.1-0.5,2-1.4,2.7
		s-2.1,1.1-3.7,1.1c-1.7,0-2.9-0.4-3.9-1.1c-0.9-0.7-1.4-1.6-1.4-2.6C504.6,35.7,505.7,34.6,507.8,33.8z M509.6,34.5
		c-2.3,0.5-3.4,1.5-3.4,2.8c0,0.7,0.3,1.3,0.9,1.7c0.6,0.4,1.5,0.7,2.7,0.7c1,0,1.8-0.2,2.5-0.7c0.6-0.4,0.9-1,0.9-1.7
		C513.2,36.1,512,35.1,509.6,34.5z M509.8,32.9c1.1-0.3,1.9-0.6,2.4-1c0.5-0.4,0.7-0.9,0.7-1.5c0-0.7-0.3-1.2-0.8-1.6
		c-0.6-0.4-1.3-0.5-2.2-0.5c-0.9,0-1.6,0.2-2.1,0.6s-0.8,0.9-0.8,1.5c0,0.6,0.3,1.2,0.9,1.6C508.4,32.5,509.1,32.8,509.8,32.9z"/>
	<path class="st5" d="M528.9,30.8l-4,11c-0.6,1.6-1.5,2.4-2.7,2.4c-0.4,0-0.8-0.1-1.3-0.2v-1.2c0.4,0.1,0.7,0.1,1,0.1
		c0.5,0,0.9-0.1,1.2-0.4c0.3-0.3,0.7-1,1-2l-3.4-9.7h1.6l2.6,7.4l2.7-7.4H528.9z"/>
	<path class="st5" d="M544.4,39.3v1.4h-9.5v-1.4c3.7-2.8,6-4.6,6.7-5.5c0.7-0.9,1.1-1.8,1.1-2.6c0-0.8-0.3-1.5-0.9-2
		s-1.3-0.8-2.1-0.8c-0.8,0-1.5,0.3-2.2,0.8s-1,1.3-1.1,2.2l-1.6-0.5c0.7-2.6,2.2-3.9,4.8-3.9c1.4,0,2.5,0.4,3.3,1.2s1.3,1.7,1.3,2.9
		c0,0.8-0.2,1.5-0.6,2.2c-0.4,0.7-1.2,1.6-2.3,2.6s-2.6,2.1-4.4,3.4H544.4z"/>
	<path class="st5" d="M551.5,40.9c-1.5,0-2.8-0.7-3.7-2c-0.9-1.3-1.4-3-1.4-5c0-1.9,0.4-3.6,1.3-4.9c0.9-1.3,2.1-2,3.7-2
		c1.7,0,2.9,0.7,3.8,2.1c0.9,1.4,1.3,3,1.3,4.9c0,1.8-0.4,3.4-1.3,4.8C554.3,40.3,553.1,40.9,551.5,40.9z M551.5,39.6
		c1.1,0,2-0.5,2.5-1.5c0.5-1,0.8-2.3,0.8-3.8c0-1.7-0.3-3.1-0.8-4.2c-0.6-1.1-1.4-1.7-2.6-1.7c-1.1,0-1.9,0.5-2.5,1.5
		c-0.5,1-0.8,2.4-0.8,4c0,1.7,0.3,3.1,0.9,4.1C549.6,39.1,550.4,39.6,551.5,39.6z"/>
	<path class="st5" d="M567.9,39.3v1.4h-9.5v-1.4c3.7-2.8,6-4.6,6.7-5.5c0.7-0.9,1.1-1.8,1.1-2.6c0-0.8-0.3-1.5-0.9-2
		s-1.3-0.8-2.1-0.8c-0.8,0-1.5,0.3-2.2,0.8s-1,1.3-1.1,2.2l-1.6-0.5c0.7-2.6,2.2-3.9,4.8-3.9c1.4,0,2.5,0.4,3.3,1.2s1.3,1.7,1.3,2.9
		c0,0.8-0.2,1.5-0.6,2.2c-0.4,0.7-1.2,1.6-2.3,2.6s-2.6,2.1-4.4,3.4H567.9z"/>
	<path class="st5" d="M575,40.9c-1.5,0-2.8-0.7-3.7-2c-0.9-1.3-1.4-3-1.4-5c0-1.9,0.4-3.6,1.3-4.9c0.9-1.3,2.1-2,3.7-2
		c1.7,0,2.9,0.7,3.8,2.1c0.9,1.4,1.3,3,1.3,4.9c0,1.8-0.4,3.4-1.3,4.8C577.8,40.3,576.6,40.9,575,40.9z M575,39.6
		c1.1,0,2-0.5,2.5-1.5c0.5-1,0.8-2.3,0.8-3.8c0-1.7-0.3-3.1-0.8-4.2c-0.6-1.1-1.4-1.7-2.6-1.7c-1.1,0-1.9,0.5-2.5,1.5
		c-0.5,1-0.8,2.4-0.8,4c0,1.7,0.3,3.1,0.9,4.1C573,39.1,573.9,39.6,575,39.6z"/>
</g>
<circle class="st6" cx="449.3" cy="66.8" r="8.6"/>
</svg>
