<svg id="Capa_1" data-name="Capa 1" xmlns="http://www.w3.org/2000/svg" viewBox="0 0 297.73 305.13"><defs><style>.cls-1,.cls-2{fill:#cb7e42;}.cls-1{opacity:0.9;}.cls-2,.cls-4{opacity:0.5;}.cls-3,.cls-5{font-size:12px;}.cls-3{fill:#dcdcdc;font-family:FranklinGothic-Medium, Franklin Gothic Medium;font-weight:500;}.cls-4{fill:none;stroke:#dcdcdc;stroke-linecap:round;stroke-linejoin:round;stroke-width:0.54px;}.cls-5{fill:#ddd;font-family:FranklinGothic-Book, Franklin Gothic Book;}.cls-6{letter-spacing:-0.01em;}.cls-7{letter-spacing:-0.02em;}.cls-8{letter-spacing:-0.02em;}.cls-9{letter-spacing:-0.02em;}</style></defs><title>6a</title><rect class="cls-1" x="115.87" y="133.44" width="282.35" height="60.82" transform="translate(92.31 420.32) rotate(-89.8)"/><rect class="cls-2" x="-15.21" y="204.76" width="138.3" height="60.82" transform="translate(-181.42 288.28) rotate(-89.8)"/><rect class="cls-2" x="111.99" y="264.92" width="18.44" height="60.82" transform="translate(-174.54 415.5) rotate(-89.8)"/><rect class="cls-2" x="165.53" y="250.75" width="47.25" height="60.82" transform="translate(-92.66 469.33) rotate(-89.8)"/><text class="cls-3" transform="translate(0.27 106.49)">40</text><line class="cls-4" x1="0.27" y1="109.69" x2="15.35" y2="109.69"/><text class="cls-3" transform="translate(0.27 10)">60</text><line class="cls-4" x1="0.27" y1="13.21" x2="15.35" y2="13.21"/><text class="cls-3" transform="translate(7.81 300.54)">0</text><line class="cls-4" x1="0.27" y1="304.81" x2="297.47" y2="304.81"/><text class="cls-3" transform="translate(0.27 204.05)">20</text><line class="cls-4" x1="0.27" y1="207.25" x2="15.35" y2="207.25"/><text class="cls-5" transform="translate(28.98 131.35)">Al<tspan class="cls-6" x="9.19" y="0">q</tspan><tspan x="15.5" y="0">uiler a </tspan><tspan x="9.43" y="14.4">precio</tspan><tspan x="-5.04" y="28.8">de me</tspan><tspan class="cls-7" x="26.69" y="28.8">r</tspan><tspan x="30.46" y="28.8">cado</tspan></text><text class="cls-5" transform="translate(100.65 238.35)">Al<tspan class="cls-6" x="9.19" y="0">q</tspan><tspan x="15.5" y="0">uiler </tspan><tspan x="-3.67" y="14.4">in</tspan><tspan class="cls-8" x="5.59" y="14.4">f</tspan><tspan x="8.89" y="14.4">erior a </tspan><tspan x="4.76" y="28.8">precio</tspan><tspan x="-9.71" y="43.2">de me</tspan><tspan class="cls-7" x="22.01" y="43.2">r</tspan><tspan x="25.79" y="43.2">cado</tspan></text><text class="cls-5" transform="translate(171.88 253.35)">Cesión</text><text class="cls-5" transform="translate(231.32 16.35)">P<tspan class="cls-9" x="6.71" y="0">r</tspan><tspan x="10.45" y="0">opiedad</tspan></text></svg>