<?xml version="1.0" encoding="utf-8"?>
<!-- Generator: Adobe Illustrator 24.0.2, SVG Export Plug-In . SVG Version: 6.00 Build 0)  -->
<svg version="1.1" id="Capa_1" xmlns="http://www.w3.org/2000/svg" xmlns:xlink="http://www.w3.org/1999/xlink" x="0px" y="0px"
	 viewBox="0 0 297.7 305.1" style="enable-background:new 0 0 297.7 305.1;" xml:space="preserve">
<style type="text/css">
	.st0{opacity:0.9;fill:#CB7E42;enable-background:new    ;}
	.st1{opacity:0.5;fill:#CB7E42;enable-background:new    ;}
	.st2{enable-background:new    ;}
	.st3{fill:#DCDCDC;}
	
		.st4{opacity:0.5;fill:none;stroke:#DCDCDC;stroke-width:0.54;stroke-linecap:round;stroke-linejoin:round;enable-background:new    ;}
	.st5{fill:#DDDDDD;}
</style>
<title>6a</title>
<rect x="115.9" y="133.4" transform="matrix(3.490598e-03 -1 1 3.490598e-03 92.3115 420.3313)" class="st0" width="282.4" height="60.8"/>
<rect x="-15.2" y="204.8" transform="matrix(3.490598e-03 -1 1 3.490598e-03 -181.4112 288.2769)" class="st1" width="138.3" height="60.8"/>
<rect x="112" y="264.9" transform="matrix(3.490598e-03 -1 1 3.490598e-03 -174.5316 415.5013)" class="st1" width="18.4" height="60.8"/>
<rect x="165.5" y="250.7" transform="matrix(3.490598e-03 -1 1 3.490598e-03 -92.6576 469.3336)" class="st1" width="47.3" height="60.8"/>
<g class="st2">
	<path class="st3" d="M5.7,106.5H4.2v-1.8H0.7v-1.1l3.6-5.3h1.5v5.1h1.2v1.2H5.7V106.5z M4.3,99.8l-2.3,3.6h2.2v-2.2
		c0-0.2,0-0.4,0-0.6L4.3,99.8z"/>
	<path class="st3" d="M10.8,106.6c-1,0-1.7-0.4-2.3-1.1s-0.8-1.7-0.8-2.9c0-1.3,0.3-2.3,0.8-3.1s1.3-1.2,2.2-1.2
		c0.7,0,1.2,0.2,1.7,0.5s0.8,0.9,1,1.5s0.3,1.2,0.3,1.8c0,0.9-0.1,1.7-0.3,2.3s-0.6,1.1-1,1.5S11.5,106.6,10.8,106.6z M10.8,105.5
		c0.4,0,0.7-0.1,1-0.4s0.4-0.6,0.5-1s0.1-1.1,0.1-1.9c0-0.7-0.1-1.3-0.3-1.9s-0.6-0.9-1.3-0.9c-1.1,0-1.6,1-1.6,3
		c0,0.9,0.1,1.6,0.3,2.2S10.2,105.5,10.8,105.5z"/>
</g>
<line class="st4" x1="0.3" y1="109.7" x2="15.4" y2="109.7"/>
<g class="st2">
	<path class="st3" d="M6.6,3.8L5.4,4.1C5.2,3.3,4.7,2.9,4,2.9c-0.7,0-1.2,0.3-1.4,0.9S2.2,5,2.2,5.7c0,0.1,0,0.3,0,0.4
		c0.4-0.8,1.1-1.2,2.1-1.2c0.8,0,1.4,0.2,1.9,0.7s0.8,1.1,0.8,1.8c0,0.8-0.3,1.4-0.8,1.9S4.9,10.1,4,10.1c-1,0-1.8-0.4-2.4-1.1
		s-0.9-1.7-0.9-3c0-1.2,0.3-2.2,0.9-3S3,1.9,3.9,1.9C5.4,1.9,6.3,2.5,6.6,3.8z M4,9.1c0.4,0,0.8-0.1,1.1-0.4S5.5,8,5.5,7.5
		c0-0.4-0.1-0.7-0.4-1S4.4,6,3.9,6C3.5,6,3.1,6.1,2.8,6.4S2.4,7.1,2.4,7.5c0,0.4,0.1,0.8,0.4,1.1S3.5,9.1,4,9.1z"/>
	<path class="st3" d="M10.8,10.1c-1,0-1.7-0.4-2.3-1.1S7.7,7.3,7.7,6.1C7.7,4.8,8,3.8,8.6,3s1.3-1.2,2.2-1.2c0.7,0,1.2,0.2,1.7,0.5
		s0.8,0.9,1,1.5s0.3,1.2,0.3,1.8c0,0.9-0.1,1.7-0.3,2.3s-0.6,1.1-1,1.5S11.5,10.1,10.8,10.1z M10.8,9c0.4,0,0.7-0.1,1-0.4
		s0.4-0.6,0.5-1s0.1-1.1,0.1-1.9c0-0.7-0.1-1.3-0.3-1.9S11.5,3,10.8,3C9.7,3,9.2,4,9.2,6c0,0.9,0.1,1.6,0.3,2.2S10.2,9,10.8,9z"/>
</g>
<line class="st4" x1="0.3" y1="13.2" x2="15.4" y2="13.2"/>
<g class="st2">
	<path class="st3" d="M11.3,300.7c-1,0-1.7-0.4-2.3-1.1s-0.8-1.7-0.8-2.9c0-1.3,0.3-2.3,0.8-3.1s1.3-1.2,2.2-1.2
		c0.7,0,1.2,0.2,1.7,0.5s0.8,0.9,1,1.5s0.3,1.2,0.3,1.8c0,0.9-0.1,1.7-0.3,2.3s-0.6,1.1-1,1.5S12,300.7,11.3,300.7z M11.3,299.5
		c0.4,0,0.7-0.1,1-0.4s0.4-0.6,0.5-1s0.1-1.1,0.1-1.9c0-0.7-0.1-1.3-0.3-1.9s-0.6-0.9-1.3-0.9c-1.1,0-1.6,1-1.6,3
		c0,0.9,0.1,1.6,0.3,2.2S10.7,299.5,11.3,299.5z"/>
</g>
<line class="st4" x1="0.3" y1="304.8" x2="297.5" y2="304.8"/>
<g class="st2">
	<path class="st3" d="M6.7,202.8v1.2H0.8v-1.4l2.4-1.6c0.8-0.5,1.3-1,1.5-1.4s0.4-0.8,0.4-1.1c0-0.4-0.1-0.7-0.4-1s-0.6-0.4-1-0.4
		c-0.9,0-1.4,0.6-1.6,1.7l-1.4-0.3c0.1-0.7,0.4-1.3,0.9-1.8s1.2-0.8,2.1-0.8c0.9,0,1.6,0.3,2.1,0.8s0.8,1.1,0.8,1.9
		c0,0.7-0.2,1.3-0.7,1.8s-1.6,1.3-3.5,2.4H6.7z"/>
	<path class="st3" d="M10.8,204.2c-1,0-1.7-0.4-2.3-1.1s-0.8-1.7-0.8-2.9c0-1.3,0.3-2.3,0.8-3.1s1.3-1.2,2.2-1.2
		c0.7,0,1.2,0.2,1.7,0.5s0.8,0.9,1,1.5s0.3,1.2,0.3,1.8c0,0.9-0.1,1.7-0.3,2.3s-0.6,1.1-1,1.5S11.5,204.2,10.8,204.2z M10.8,203
		c0.4,0,0.7-0.1,1-0.4s0.4-0.6,0.5-1s0.1-1.1,0.1-1.9c0-0.7-0.1-1.3-0.3-1.9s-0.6-0.9-1.3-0.9c-1.1,0-1.6,1-1.6,3
		c0,0.9,0.1,1.6,0.3,2.2S10.2,203,10.8,203z"/>
</g>
<line class="st4" x1="0.3" y1="207.3" x2="15.4" y2="207.3"/>
<g class="st2">
	<path class="st5" d="M36.1,131.4h-1.5l-0.6-1.9h-3.1l-0.6,1.9H29l2.7-8h1.8L36.1,131.4z M33.6,128.3l-1.2-3.6l-1.2,3.6H33.6z"/>
	<path class="st5" d="M38.3,131.4H37v-8h1.3V131.4z"/>
</g>
<g class="st2">
	<path class="st5" d="M43.9,133.3h-1.4v-3c-0.3,0.8-0.9,1.2-1.6,1.2c-0.8,0-1.3-0.3-1.7-0.9s-0.6-1.3-0.6-2.1c0-0.9,0.2-1.7,0.7-2.2
		s1-0.9,1.8-0.9c0.7,0,1.3,0.3,1.7,0.9l0.4-0.8h0.7V133.3z M42.5,127.9c0-0.4-0.1-0.7-0.3-1s-0.5-0.4-0.9-0.4c-0.4,0-0.8,0.2-1,0.5
		s-0.3,0.8-0.3,1.5c0,0.6,0.1,1.1,0.4,1.5s0.5,0.5,0.9,0.5c0.3,0,0.6-0.1,0.9-0.4s0.4-0.7,0.4-1.2V127.9z"/>
</g>
<g class="st2">
	<path class="st5" d="M50.2,131.4h-1.2v-1.3c-0.3,0.9-1,1.4-1.9,1.4c-0.5,0-1-0.2-1.3-0.5s-0.5-0.8-0.5-1.4v-4.1h1.4v3.9
		c0,0.4,0.1,0.7,0.3,0.8s0.4,0.2,0.6,0.2c0.3,0,0.6-0.1,0.9-0.4s0.5-0.8,0.5-1.7v-2.8h1.3V131.4z"/>
	<path class="st5" d="M53.1,124.7h-1.3v-1.4h1.3V124.7z M53.1,131.4h-1.3v-5.9h1.3V131.4z"/>
	<path class="st5" d="M56,131.4h-1.3v-8H56V131.4z"/>
	<path class="st5" d="M61.4,129.5l1.2,0.2c-0.2,0.5-0.5,1-0.9,1.3s-1,0.5-1.7,0.5c-0.8,0-1.5-0.3-2-0.8s-0.8-1.3-0.8-2.2
		c0-0.9,0.3-1.6,0.8-2.2s1.2-0.9,2.1-0.9c0.8,0,1.5,0.3,2,0.9s0.7,1.3,0.7,2.2l0,0.2h-4.1c0,0.4,0,0.7,0.1,1s0.2,0.5,0.5,0.6
		s0.5,0.3,0.8,0.3C60.7,130.4,61.2,130.1,61.4,129.5z M61.3,127.7c0-0.4-0.1-0.8-0.4-1s-0.6-0.4-0.9-0.4c-0.4,0-0.7,0.1-0.9,0.4
		s-0.4,0.6-0.4,1.1H61.3z"/>
	<path class="st5" d="M65.3,131.4h-1.3v-5.9h1.2v1.4c0.2-0.6,0.4-1,0.7-1.2s0.6-0.4,0.9-0.4c0,0,0.1,0,0.2,0v1.4
		c-0.7,0-1.1,0.2-1.4,0.7s-0.3,0.9-0.3,1.3V131.4z"/>
	<path class="st5" d="M76,131.4h-1.3c-0.1-0.4-0.2-0.8-0.2-1.2c-0.4,0.9-1,1.3-2,1.3c-0.6,0-1.1-0.2-1.4-0.5s-0.5-0.8-0.5-1.3
		c0-1.4,1.2-2,3.6-2c0.1,0,0.2,0,0.4,0v-0.4c0-0.6-0.4-0.9-1.3-0.9c-0.8,0-1.3,0.3-1.4,0.9l-1.1-0.2c0.1-0.5,0.3-0.9,0.8-1.2
		s1.1-0.5,1.9-0.5c0.5,0,0.8,0,1.1,0.1s0.5,0.2,0.7,0.4s0.3,0.4,0.4,0.6s0.1,0.6,0.1,1.1v2.7C75.8,130.5,75.8,130.9,76,131.4z
		 M74.5,128.3c-1.7,0-2.6,0.4-2.6,1.2c0,0.2,0.1,0.5,0.3,0.6s0.4,0.3,0.8,0.3c0.5,0,0.9-0.2,1.2-0.5s0.4-0.7,0.4-1.1V128.3z"/>
</g>
<g class="st2">
	<path class="st5" d="M40.6,147.7h-1.4v-7.9h1.3v1c0.4-0.8,1-1.2,1.8-1.2c0.7,0,1.2,0.3,1.6,0.9s0.6,1.3,0.6,2.2
		c0,0.8-0.2,1.6-0.6,2.2s-0.9,0.9-1.7,0.9c-0.8,0-1.3-0.3-1.7-0.9V147.7z M40.6,143.3c0,0.4,0.1,0.8,0.4,1.1s0.5,0.4,0.9,0.4
		c0.4,0,0.7-0.2,0.9-0.6s0.3-0.8,0.3-1.4c0-0.6-0.1-1.1-0.3-1.5s-0.5-0.6-0.9-0.6c-0.4,0-0.7,0.2-0.9,0.5s-0.4,0.7-0.4,1.2V143.3z"
		/>
	<path class="st5" d="M47,145.8h-1.3v-5.9h1.2v1.4c0.2-0.6,0.4-1,0.7-1.2s0.6-0.4,0.9-0.4c0,0,0.1,0,0.2,0v1.4
		c-0.7,0-1.1,0.2-1.4,0.7S47,142.6,47,143V145.8z"/>
	<path class="st5" d="M53.4,143.9l1.2,0.2c-0.2,0.5-0.5,1-0.9,1.3s-1,0.5-1.7,0.5c-0.8,0-1.5-0.3-2-0.8s-0.8-1.3-0.8-2.2
		c0-0.9,0.3-1.6,0.8-2.2s1.2-0.9,2.1-0.9c0.8,0,1.5,0.3,2,0.9s0.7,1.3,0.7,2.2l0,0.2h-4.1c0,0.4,0,0.7,0.1,1s0.2,0.5,0.5,0.6
		s0.5,0.3,0.8,0.3C52.7,144.8,53.2,144.5,53.4,143.9z M53.3,142.1c0-0.4-0.1-0.8-0.4-1s-0.6-0.4-0.9-0.4c-0.4,0-0.7,0.1-0.9,0.4
		s-0.4,0.6-0.4,1.1H53.3z"/>
	<path class="st5" d="M59.4,143.6l1.1,0.1c-0.1,0.7-0.4,1.3-0.9,1.6s-0.9,0.5-1.5,0.5c-0.8,0-1.4-0.3-1.9-0.9s-0.7-1.3-0.7-2.2
		c0-0.9,0.2-1.6,0.7-2.2s1.1-0.9,1.9-0.9c1.3,0,2.1,0.7,2.3,2l-1.1,0.2c-0.1-0.7-0.5-1.1-1.1-1.1c-0.5,0-0.8,0.2-1,0.6
		s-0.3,0.9-0.3,1.4c0,0.6,0.1,1.1,0.3,1.4s0.5,0.5,0.9,0.5C58.8,144.7,59.2,144.3,59.4,143.6z"/>
	<path class="st5" d="M62.9,139.1h-1.3v-1.4h1.3V139.1z M62.9,145.8h-1.3v-5.9h1.3V145.8z"/>
	<path class="st5" d="M66.8,145.9c-0.9,0-1.5-0.3-2-0.9s-0.7-1.3-0.7-2.2c0-0.9,0.3-1.6,0.8-2.2s1.2-0.9,2-0.9c0.8,0,1.4,0.3,2,0.8
		s0.8,1.3,0.8,2.2c0,0.9-0.3,1.7-0.8,2.3S67.6,145.9,66.8,145.9z M66.8,144.8c0.9,0,1.3-0.7,1.3-2c0-0.6-0.1-1.1-0.3-1.4
		s-0.5-0.5-1-0.5c-0.5,0-0.8,0.2-1,0.5s-0.3,0.8-0.3,1.4c0,0.6,0.1,1.1,0.4,1.5S66.4,144.8,66.8,144.8z"/>
</g>
<g class="st2">
	<path class="st5" d="M29.6,160.2h-1.2V159c-0.3,0.9-0.9,1.3-1.7,1.3c-0.7,0-1.3-0.3-1.7-0.9s-0.6-1.4-0.6-2.3
		c0-0.8,0.2-1.6,0.6-2.2s1-0.9,1.7-0.9c0.8,0,1.3,0.3,1.6,1v-2.9h1.3V160.2z M28.3,156.7c0-0.5-0.1-0.9-0.3-1.1s-0.5-0.4-0.9-0.4
		c-0.4,0-0.7,0.2-0.9,0.5s-0.3,0.9-0.3,1.5c0,1.3,0.4,2,1.2,2c0.3,0,0.6-0.1,0.9-0.4s0.4-0.6,0.4-1.1V156.7z"/>
	<path class="st5" d="M35,158.3l1.2,0.2c-0.2,0.5-0.5,1-0.9,1.3s-1,0.5-1.7,0.5c-0.8,0-1.5-0.3-2-0.8s-0.8-1.3-0.8-2.2
		c0-0.9,0.3-1.6,0.8-2.2s1.2-0.9,2.1-0.9c0.8,0,1.5,0.3,2,0.9s0.7,1.3,0.7,2.2l0,0.2h-4.1c0,0.4,0,0.7,0.1,1s0.2,0.5,0.5,0.6
		s0.5,0.3,0.8,0.3C34.3,159.2,34.7,158.9,35,158.3z M34.9,156.5c0-0.4-0.1-0.8-0.4-1s-0.6-0.4-0.9-0.4c-0.4,0-0.7,0.1-0.9,0.4
		s-0.4,0.6-0.4,1.1H34.9z"/>
	<path class="st5" d="M49.3,160.2h-1.4v-3.7c0-0.8-0.3-1.1-1-1.1c-0.4,0-0.7,0.1-0.9,0.4s-0.4,0.7-0.4,1.3v3.1h-1.4v-3.7
		c0-0.8-0.3-1.2-1-1.2c-0.4,0-0.7,0.2-1,0.5s-0.4,0.7-0.4,1.3v3.1h-1.4v-5.9h1.3v1.3c0.4-0.9,1.1-1.4,2-1.4c0.9,0,1.4,0.5,1.7,1.4
		c0.5-0.9,1.1-1.4,2-1.4c0.6,0,1,0.2,1.4,0.5s0.5,0.8,0.5,1.3V160.2z"/>
	<path class="st5" d="M54.7,158.3l1.2,0.2c-0.2,0.5-0.5,1-0.9,1.3s-1,0.5-1.7,0.5c-0.8,0-1.5-0.3-2-0.8s-0.8-1.3-0.8-2.2
		c0-0.9,0.3-1.6,0.8-2.2s1.2-0.9,2.1-0.9c0.8,0,1.5,0.3,2,0.9s0.7,1.3,0.7,2.2l0,0.2h-4.1c0,0.4,0,0.7,0.1,1s0.2,0.5,0.5,0.6
		s0.5,0.3,0.8,0.3C54,159.2,54.5,158.9,54.7,158.3z M54.6,156.5c0-0.4-0.1-0.8-0.4-1s-0.6-0.4-0.9-0.4c-0.4,0-0.7,0.1-0.9,0.4
		s-0.4,0.6-0.4,1.1H54.6z"/>
</g>
<g class="st2">
	<path class="st5" d="M57.8,160.2h-1.3v-5.9h1.2v1.4c0.2-0.6,0.4-1,0.7-1.2s0.6-0.4,0.9-0.4c0,0,0.1,0,0.2,0v1.4
		c-0.7,0-1.1,0.2-1.4,0.7s-0.3,0.9-0.3,1.3V160.2z"/>
</g>
<g class="st2">
	<path class="st5" d="M63.7,158l1.1,0.1c-0.1,0.7-0.4,1.3-0.9,1.6s-0.9,0.5-1.5,0.5c-0.8,0-1.4-0.3-1.9-0.9s-0.7-1.3-0.7-2.2
		c0-0.9,0.2-1.6,0.7-2.2s1.1-0.9,1.9-0.9c1.3,0,2.1,0.7,2.3,2l-1.1,0.2c-0.1-0.7-0.5-1.1-1.1-1.1c-0.5,0-0.8,0.2-1,0.6
		s-0.3,0.9-0.3,1.4c0,0.6,0.1,1.1,0.3,1.4s0.5,0.5,0.9,0.5C63.1,159.1,63.5,158.7,63.7,158z"/>
	<path class="st5" d="M70.9,160.2h-1.3c-0.1-0.4-0.2-0.8-0.2-1.2c-0.4,0.9-1,1.3-2,1.3c-0.6,0-1.1-0.2-1.4-0.5s-0.5-0.8-0.5-1.3
		c0-1.4,1.2-2,3.6-2c0.1,0,0.2,0,0.4,0V156c0-0.6-0.4-0.9-1.3-0.9c-0.8,0-1.3,0.3-1.4,0.9l-1.1-0.2c0.1-0.5,0.3-0.9,0.8-1.2
		s1.1-0.5,1.9-0.5c0.5,0,0.8,0,1.1,0.1s0.5,0.2,0.7,0.4s0.3,0.4,0.4,0.6s0.1,0.6,0.1,1.1v2.7C70.7,159.3,70.8,159.7,70.9,160.2z
		 M69.4,157.1c-1.7,0-2.6,0.4-2.6,1.2c0,0.2,0.1,0.5,0.3,0.6s0.4,0.3,0.8,0.3c0.5,0,0.9-0.2,1.2-0.5s0.4-0.7,0.4-1.1V157.1z"/>
	<path class="st5" d="M77.2,160.2h-1.2V159c-0.3,0.9-0.9,1.3-1.7,1.3c-0.7,0-1.3-0.3-1.7-0.9s-0.6-1.4-0.6-2.3
		c0-0.8,0.2-1.6,0.6-2.2s1-0.9,1.7-0.9c0.8,0,1.3,0.3,1.6,1v-2.9h1.3V160.2z M75.8,156.7c0-0.5-0.1-0.9-0.3-1.1s-0.5-0.4-0.9-0.4
		c-0.4,0-0.7,0.2-0.9,0.5s-0.3,0.9-0.3,1.5c0,1.3,0.4,2,1.2,2c0.3,0,0.6-0.1,0.9-0.4s0.4-0.6,0.4-1.1V156.7z"/>
	<path class="st5" d="M81.1,160.3c-0.9,0-1.5-0.3-2-0.9s-0.7-1.3-0.7-2.2c0-0.9,0.3-1.6,0.8-2.2s1.2-0.9,2-0.9c0.8,0,1.4,0.3,2,0.8
		s0.8,1.3,0.8,2.2c0,0.9-0.3,1.7-0.8,2.3S81.9,160.3,81.1,160.3z M81.1,159.2c0.9,0,1.3-0.7,1.3-2c0-0.6-0.1-1.1-0.3-1.4
		s-0.5-0.5-1-0.5c-0.5,0-0.8,0.2-1,0.5s-0.3,0.8-0.3,1.4c0,0.6,0.1,1.1,0.4,1.5S80.7,159.2,81.1,159.2z"/>
</g>
<g class="st2">
	<path class="st5" d="M107.8,238.3h-1.5l-0.6-1.9h-3.1l-0.6,1.9h-1.2l2.7-8h1.8L107.8,238.3z M105.2,235.3l-1.2-3.6l-1.2,3.6H105.2z
		"/>
	<path class="st5" d="M110,238.3h-1.3v-8h1.3V238.3z"/>
</g>
<g class="st2">
	<path class="st5" d="M115.5,240.3h-1.4v-3c-0.3,0.8-0.9,1.2-1.6,1.2c-0.8,0-1.3-0.3-1.7-0.9s-0.6-1.3-0.6-2.1
		c0-0.9,0.2-1.7,0.7-2.2s1-0.9,1.8-0.9c0.7,0,1.3,0.3,1.7,0.9l0.4-0.8h0.7V240.3z M114.2,234.9c0-0.4-0.1-0.7-0.3-1
		s-0.5-0.4-0.9-0.4c-0.4,0-0.8,0.2-1,0.5s-0.3,0.8-0.3,1.5c0,0.6,0.1,1.1,0.4,1.5s0.5,0.5,0.9,0.5c0.3,0,0.6-0.1,0.9-0.4
		s0.4-0.7,0.4-1.2V234.9z"/>
</g>
<g class="st2">
	<path class="st5" d="M121.8,238.3h-1.2v-1.3c-0.3,0.9-1,1.4-1.9,1.4c-0.5,0-1-0.2-1.3-0.5s-0.5-0.8-0.5-1.4v-4.1h1.4v3.9
		c0,0.4,0.1,0.7,0.3,0.8s0.4,0.2,0.6,0.2c0.3,0,0.6-0.1,0.9-0.4s0.5-0.8,0.5-1.7v-2.8h1.3V238.3z"/>
	<path class="st5" d="M124.8,231.7h-1.3v-1.4h1.3V231.7z M124.8,238.3h-1.3v-5.9h1.3V238.3z"/>
	<path class="st5" d="M127.7,238.3h-1.3v-8h1.3V238.3z"/>
	<path class="st5" d="M133.1,236.5l1.2,0.2c-0.2,0.5-0.5,1-0.9,1.3s-1,0.5-1.7,0.5c-0.8,0-1.5-0.3-2-0.8s-0.8-1.3-0.8-2.2
		c0-0.9,0.3-1.6,0.8-2.2s1.2-0.9,2.1-0.9c0.8,0,1.5,0.3,2,0.9s0.7,1.3,0.7,2.2l0,0.2h-4.1c0,0.4,0,0.7,0.1,1s0.2,0.5,0.5,0.6
		s0.5,0.3,0.8,0.3C132.4,237.4,132.8,237.1,133.1,236.5z M133,234.7c0-0.4-0.1-0.8-0.4-1s-0.6-0.4-0.9-0.4c-0.4,0-0.7,0.1-0.9,0.4
		s-0.4,0.6-0.4,1.1H133z"/>
	<path class="st5" d="M136.9,238.3h-1.3v-5.9h1.2v1.4c0.2-0.6,0.4-1,0.7-1.2s0.6-0.4,0.9-0.4c0,0,0.1,0,0.2,0v1.4
		c-0.7,0-1.1,0.2-1.4,0.7s-0.3,0.9-0.3,1.3V238.3z"/>
</g>
<g class="st2">
	<path class="st5" d="M99.1,246.1h-1.3v-1.4h1.3V246.1z M99.1,252.8h-1.3v-5.9h1.3V252.8z"/>
	<path class="st5" d="M105.6,252.8h-1.3v-3.7c0-0.4-0.1-0.7-0.3-0.9s-0.4-0.3-0.7-0.3c-0.3,0-0.7,0.2-0.9,0.5s-0.4,0.8-0.4,1.4v3
		h-1.3v-5.9h1.2v1.4c0.4-1,1-1.5,1.8-1.5c0.5,0,1,0.2,1.3,0.5s0.6,0.9,0.6,1.7V252.8z"/>
</g>
<g class="st2">
	<path class="st5" d="M108.5,252.8h-1.3v-4.9h-0.9v-1h0.9v-0.3c0-0.6,0.1-1,0.4-1.4s0.8-0.5,1.7-0.5c0.1,0,0.3,0,0.5,0v1
		c-0.2,0-0.3,0-0.3,0c-0.3,0-0.6,0-0.7,0.1s-0.2,0.2-0.2,0.3s0,0.4,0,0.7h1.3v1h-1.3V252.8z"/>
</g>
<g class="st2">
	<path class="st5" d="M114.1,250.9l1.2,0.2c-0.2,0.5-0.5,1-0.9,1.3s-1,0.5-1.7,0.5c-0.8,0-1.5-0.3-2-0.8s-0.8-1.3-0.8-2.2
		c0-0.9,0.3-1.6,0.8-2.2s1.2-0.9,2.1-0.9c0.8,0,1.5,0.3,2,0.9s0.7,1.3,0.7,2.2l0,0.2h-4.1c0,0.4,0,0.7,0.1,1s0.2,0.5,0.5,0.6
		s0.5,0.3,0.8,0.3C113.4,251.8,113.9,251.5,114.1,250.9z M114,249.1c0-0.4-0.1-0.8-0.4-1s-0.6-0.4-0.9-0.4c-0.4,0-0.7,0.1-0.9,0.4
		s-0.4,0.6-0.4,1.1H114z"/>
	<path class="st5" d="M118,252.8h-1.3v-5.9h1.2v1.4c0.2-0.6,0.4-1,0.7-1.2s0.6-0.4,0.9-0.4c0,0,0.1,0,0.2,0v1.4
		c-0.7,0-1.1,0.2-1.4,0.7s-0.3,0.9-0.3,1.3V252.8z"/>
	<path class="st5" d="M121.9,246.1h-1.3v-1.4h1.3V246.1z M121.9,252.8h-1.3v-5.9h1.3V252.8z"/>
	<path class="st5" d="M125.9,252.9c-0.9,0-1.5-0.3-2-0.9s-0.7-1.3-0.7-2.2c0-0.9,0.3-1.6,0.8-2.2s1.2-0.9,2-0.9c0.8,0,1.4,0.3,2,0.8
		s0.8,1.3,0.8,2.2c0,0.9-0.3,1.7-0.8,2.3S126.7,252.9,125.9,252.9z M125.9,251.8c0.9,0,1.3-0.7,1.3-2c0-0.6-0.1-1.1-0.3-1.4
		s-0.5-0.5-1-0.5c-0.5,0-0.8,0.2-1,0.5s-0.3,0.8-0.3,1.4c0,0.6,0.1,1.1,0.4,1.5S125.5,251.8,125.9,251.8z"/>
	<path class="st5" d="M131.2,252.8h-1.3v-5.9h1.2v1.4c0.2-0.6,0.4-1,0.7-1.2s0.6-0.4,0.9-0.4c0,0,0.1,0,0.2,0v1.4
		c-0.7,0-1.1,0.2-1.4,0.7s-0.3,0.9-0.3,1.3V252.8z"/>
	<path class="st5" d="M141.9,252.8h-1.3c-0.1-0.4-0.2-0.8-0.2-1.2c-0.4,0.9-1,1.3-2,1.3c-0.6,0-1.1-0.2-1.4-0.5s-0.5-0.8-0.5-1.3
		c0-1.4,1.2-2,3.6-2c0.1,0,0.2,0,0.4,0v-0.4c0-0.6-0.4-0.9-1.3-0.9c-0.8,0-1.3,0.3-1.4,0.9l-1.1-0.2c0.1-0.5,0.3-0.9,0.8-1.2
		s1.1-0.5,1.9-0.5c0.5,0,0.8,0,1.1,0.1s0.5,0.2,0.7,0.4s0.3,0.4,0.4,0.6s0.1,0.6,0.1,1.1v2.7C141.8,251.9,141.8,252.3,141.9,252.8z
		 M140.5,249.7c-1.7,0-2.6,0.4-2.6,1.2c0,0.2,0.1,0.5,0.3,0.6s0.4,0.3,0.8,0.3c0.5,0,0.9-0.2,1.2-0.5s0.4-0.7,0.4-1.1V249.7z"/>
</g>
<g class="st2">
	<path class="st5" d="M107.6,269.1h-1.4v-7.9h1.3v1c0.4-0.8,1-1.2,1.8-1.2c0.7,0,1.2,0.3,1.6,0.9s0.6,1.3,0.6,2.2
		c0,0.8-0.2,1.6-0.6,2.2s-0.9,0.9-1.7,0.9c-0.8,0-1.3-0.3-1.7-0.9V269.1z M107.6,264.7c0,0.4,0.1,0.8,0.4,1.1s0.5,0.4,0.9,0.4
		c0.4,0,0.7-0.2,0.9-0.6s0.3-0.8,0.3-1.4c0-0.6-0.1-1.1-0.3-1.5s-0.5-0.6-0.9-0.6c-0.4,0-0.7,0.2-0.9,0.5s-0.4,0.7-0.4,1.2V264.7z"
		/>
	<path class="st5" d="M114,267.2h-1.3v-5.9h1.2v1.4c0.2-0.6,0.4-1,0.7-1.2s0.6-0.4,0.9-0.4c0,0,0.1,0,0.2,0v1.4
		c-0.7,0-1.1,0.2-1.4,0.7s-0.3,0.9-0.3,1.3V267.2z"/>
	<path class="st5" d="M120.4,265.3l1.2,0.2c-0.2,0.5-0.5,1-0.9,1.3s-1,0.5-1.7,0.5c-0.8,0-1.5-0.3-2-0.8s-0.8-1.3-0.8-2.2
		c0-0.9,0.3-1.6,0.8-2.2s1.2-0.9,2.1-0.9c0.8,0,1.5,0.3,2,0.9s0.7,1.3,0.7,2.2l0,0.2h-4.1c0,0.4,0,0.7,0.1,1s0.2,0.5,0.5,0.6
		s0.5,0.3,0.8,0.3C119.7,266.2,120.2,265.9,120.4,265.3z M120.3,263.5c0-0.4-0.1-0.8-0.4-1s-0.6-0.4-0.9-0.4c-0.4,0-0.7,0.1-0.9,0.4
		s-0.4,0.6-0.4,1.1H120.3z"/>
	<path class="st5" d="M126.4,265l1.1,0.1c-0.1,0.7-0.4,1.3-0.9,1.6s-0.9,0.5-1.5,0.5c-0.8,0-1.4-0.3-1.9-0.9s-0.7-1.3-0.7-2.2
		c0-0.9,0.2-1.6,0.7-2.2s1.1-0.9,1.9-0.9c1.3,0,2.1,0.7,2.3,2l-1.1,0.2c-0.1-0.7-0.5-1.1-1.1-1.1c-0.5,0-0.8,0.2-1,0.6
		s-0.3,0.9-0.3,1.4c0,0.6,0.1,1.1,0.3,1.4s0.5,0.5,0.9,0.5C125.8,266.1,126.2,265.7,126.4,265z"/>
	<path class="st5" d="M129.9,260.5h-1.3v-1.4h1.3V260.5z M129.9,267.2h-1.3v-5.9h1.3V267.2z"/>
	<path class="st5" d="M133.8,267.3c-0.9,0-1.5-0.3-2-0.9s-0.7-1.3-0.7-2.2c0-0.9,0.3-1.6,0.8-2.2s1.2-0.9,2-0.9c0.8,0,1.4,0.3,2,0.8
		s0.8,1.3,0.8,2.2c0,0.9-0.3,1.7-0.8,2.3S134.6,267.3,133.8,267.3z M133.8,266.2c0.9,0,1.3-0.7,1.3-2c0-0.6-0.1-1.1-0.3-1.4
		s-0.5-0.5-1-0.5c-0.5,0-0.8,0.2-1,0.5s-0.3,0.8-0.3,1.4c0,0.6,0.1,1.1,0.4,1.5S133.4,266.2,133.8,266.2z"/>
</g>
<g class="st2">
	<path class="st5" d="M96.6,281.5h-1.2v-1.2c-0.3,0.9-0.9,1.3-1.7,1.3c-0.7,0-1.3-0.3-1.7-0.9s-0.6-1.4-0.6-2.3
		c0-0.8,0.2-1.6,0.6-2.2s1-0.9,1.7-0.9c0.8,0,1.3,0.3,1.6,1v-2.9h1.3V281.5z M95.3,278.1c0-0.5-0.1-0.9-0.3-1.1s-0.5-0.4-0.9-0.4
		c-0.4,0-0.7,0.2-0.9,0.5s-0.3,0.9-0.3,1.5c0,1.3,0.4,2,1.2,2c0.3,0,0.6-0.1,0.9-0.4s0.4-0.6,0.4-1.1V278.1z"/>
	<path class="st5" d="M102,279.7l1.2,0.2c-0.2,0.5-0.5,1-0.9,1.3s-1,0.5-1.7,0.5c-0.8,0-1.5-0.3-2-0.8s-0.8-1.3-0.8-2.2
		c0-0.9,0.3-1.6,0.8-2.2s1.2-0.9,2.1-0.9c0.8,0,1.5,0.3,2,0.9s0.7,1.3,0.7,2.2l0,0.2h-4.1c0,0.4,0,0.7,0.1,1s0.2,0.5,0.5,0.6
		s0.5,0.3,0.8,0.3C101.3,280.6,101.7,280.3,102,279.7z M101.9,277.9c0-0.4-0.1-0.8-0.4-1s-0.6-0.4-0.9-0.4c-0.4,0-0.7,0.1-0.9,0.4
		s-0.4,0.6-0.4,1.1H101.9z"/>
	<path class="st5" d="M116.3,281.5h-1.4v-3.7c0-0.8-0.3-1.1-1-1.1c-0.4,0-0.7,0.1-0.9,0.4s-0.4,0.7-0.4,1.3v3.1h-1.4v-3.7
		c0-0.8-0.3-1.2-1-1.2c-0.4,0-0.7,0.2-1,0.5s-0.4,0.7-0.4,1.3v3.1h-1.4v-5.9h1.3v1.3c0.4-0.9,1.1-1.4,2-1.4c0.9,0,1.4,0.5,1.7,1.4
		c0.5-0.9,1.1-1.4,2-1.4c0.6,0,1,0.2,1.4,0.5s0.5,0.8,0.5,1.3V281.5z"/>
	<path class="st5" d="M121.7,279.7l1.2,0.2c-0.2,0.5-0.5,1-0.9,1.3s-1,0.5-1.7,0.5c-0.8,0-1.5-0.3-2-0.8s-0.8-1.3-0.8-2.2
		c0-0.9,0.3-1.6,0.8-2.2s1.2-0.9,2.1-0.9c0.8,0,1.5,0.3,2,0.9s0.7,1.3,0.7,2.2l0,0.2h-4.1c0,0.4,0,0.7,0.1,1s0.2,0.5,0.5,0.6
		s0.5,0.3,0.8,0.3C121,280.6,121.5,280.3,121.7,279.7z M121.6,277.9c0-0.4-0.1-0.8-0.4-1s-0.6-0.4-0.9-0.4c-0.4,0-0.7,0.1-0.9,0.4
		s-0.4,0.6-0.4,1.1H121.6z"/>
</g>
<g class="st2">
	<path class="st5" d="M124.8,281.5h-1.3v-5.9h1.2v1.4c0.2-0.6,0.4-1,0.7-1.2s0.6-0.4,0.9-0.4c0,0,0.1,0,0.2,0v1.4
		c-0.7,0-1.1,0.2-1.4,0.7s-0.3,0.9-0.3,1.3V281.5z"/>
</g>
<g class="st2">
	<path class="st5" d="M130.7,279.4l1.1,0.1c-0.1,0.7-0.4,1.3-0.9,1.6s-0.9,0.5-1.5,0.5c-0.8,0-1.4-0.3-1.9-0.9s-0.7-1.3-0.7-2.2
		c0-0.9,0.2-1.6,0.7-2.2s1.1-0.9,1.9-0.9c1.3,0,2.1,0.7,2.3,2l-1.1,0.2c-0.1-0.7-0.5-1.1-1.1-1.1c-0.5,0-0.8,0.2-1,0.6
		s-0.3,0.9-0.3,1.4c0,0.6,0.1,1.1,0.3,1.4s0.5,0.5,0.9,0.5C130.1,280.5,130.5,280.1,130.7,279.4z"/>
	<path class="st5" d="M137.9,281.5h-1.3c-0.1-0.4-0.2-0.8-0.2-1.2c-0.4,0.9-1,1.3-2,1.3c-0.6,0-1.1-0.2-1.4-0.5s-0.5-0.8-0.5-1.3
		c0-1.4,1.2-2,3.6-2c0.1,0,0.2,0,0.4,0v-0.4c0-0.6-0.4-0.9-1.3-0.9c-0.8,0-1.3,0.3-1.4,0.9l-1.1-0.2c0.1-0.5,0.3-0.9,0.8-1.2
		s1.1-0.5,1.9-0.5c0.5,0,0.8,0,1.1,0.1s0.5,0.2,0.7,0.4s0.3,0.4,0.4,0.6s0.1,0.6,0.1,1.1v2.7C137.7,280.7,137.8,281.1,137.9,281.5z
		 M136.4,278.5c-1.7,0-2.6,0.4-2.6,1.2c0,0.2,0.1,0.5,0.3,0.6s0.4,0.3,0.8,0.3c0.5,0,0.9-0.2,1.2-0.5s0.4-0.7,0.4-1.1V278.5z"/>
	<path class="st5" d="M144.2,281.5h-1.2v-1.2c-0.3,0.9-0.9,1.3-1.7,1.3c-0.7,0-1.3-0.3-1.7-0.9s-0.6-1.4-0.6-2.3
		c0-0.8,0.2-1.6,0.6-2.2s1-0.9,1.7-0.9c0.8,0,1.3,0.3,1.6,1v-2.9h1.3V281.5z M142.8,278.1c0-0.5-0.1-0.9-0.3-1.1s-0.5-0.4-0.9-0.4
		c-0.4,0-0.7,0.2-0.9,0.5s-0.3,0.9-0.3,1.5c0,1.3,0.4,2,1.2,2c0.3,0,0.6-0.1,0.9-0.4s0.4-0.6,0.4-1.1V278.1z"/>
	<path class="st5" d="M148.1,281.7c-0.9,0-1.5-0.3-2-0.9s-0.7-1.3-0.7-2.2c0-0.9,0.3-1.6,0.8-2.2s1.2-0.9,2-0.9c0.8,0,1.4,0.3,2,0.8
		c0.5,0.6,0.8,1.3,0.8,2.2c0,0.9-0.3,1.7-0.8,2.3C149.6,281.4,148.9,281.7,148.1,281.7z M148.1,280.6c0.9,0,1.3-0.7,1.3-2
		c0-0.6-0.1-1.1-0.3-1.4s-0.5-0.5-1-0.5c-0.5,0-0.8,0.2-1,0.5s-0.3,0.8-0.3,1.4c0,0.6,0.1,1.1,0.4,1.5S147.7,280.6,148.1,280.6z"/>
</g>
<g class="st2">
	<path class="st5" d="M177.2,250.6l1.3,0.1c-0.1,0.8-0.4,1.5-0.9,2s-1.2,0.8-2.1,0.8c-0.7,0-1.3-0.2-1.8-0.6s-0.8-0.9-1.1-1.5
		s-0.4-1.3-0.4-2.1c0-1.2,0.3-2.2,0.9-3s1.4-1.1,2.4-1.1c0.8,0,1.5,0.2,2,0.7s0.9,1.2,1,2.1l-1.3,0.1c-0.2-1.2-0.8-1.8-1.6-1.8
		c-0.5,0-1,0.3-1.3,0.8s-0.4,1.2-0.4,2.2c0,1,0.2,1.7,0.5,2.2s0.7,0.7,1.3,0.7c0.4,0,0.8-0.2,1.1-0.5S177.2,251,177.2,250.6z"/>
	<path class="st5" d="M183.4,251.5l1.2,0.2c-0.2,0.5-0.5,1-0.9,1.3s-1,0.5-1.7,0.5c-0.8,0-1.5-0.3-2-0.8s-0.8-1.3-0.8-2.2
		c0-0.9,0.3-1.6,0.8-2.2s1.2-0.9,2.1-0.9c0.8,0,1.5,0.3,2,0.9s0.7,1.3,0.7,2.2l0,0.2h-4.1c0,0.4,0,0.7,0.1,1s0.2,0.5,0.5,0.6
		s0.5,0.3,0.8,0.3C182.7,252.4,183.2,252.1,183.4,251.5z M183.3,249.7c0-0.4-0.1-0.8-0.4-1s-0.6-0.4-0.9-0.4c-0.4,0-0.7,0.1-0.9,0.4
		s-0.4,0.6-0.4,1.1H183.3z"/>
	<path class="st5" d="M185.2,252l1.3-0.2c0.2,0.5,0.6,0.7,1.3,0.7c0.8,0,1.2-0.2,1.2-0.7c0-0.2-0.1-0.3-0.2-0.4s-0.3-0.2-0.5-0.2
		l-1.1-0.2c-1.2-0.2-1.8-0.8-1.8-1.8c0-0.5,0.2-1,0.6-1.3s0.9-0.5,1.7-0.5c1.3,0,2,0.5,2.3,1.4l-1.2,0.2c-0.1-0.4-0.5-0.7-1.1-0.7
		c-0.7,0-1.1,0.2-1.1,0.7c0,0.3,0.3,0.5,0.9,0.6l1.3,0.3c1,0.2,1.5,0.8,1.5,1.7c0,0.7-0.3,1.1-0.8,1.5s-1.1,0.5-1.8,0.5
		c-0.6,0-1.1-0.1-1.6-0.4S185.3,252.5,185.2,252z"/>
	<path class="st5" d="M192.7,246.7h-1.3v-1.4h1.3V246.7z M192.7,253.3h-1.3v-5.9h1.3V253.3z"/>
	<path class="st5" d="M196.6,253.5c-0.9,0-1.5-0.3-2-0.9s-0.7-1.3-0.7-2.2c0-0.9,0.3-1.6,0.8-2.2s1.2-0.9,2-0.9c0.8,0,1.4,0.3,2,0.8
		s0.8,1.3,0.8,2.2c0,0.9-0.3,1.7-0.8,2.3S197.4,253.5,196.6,253.5z M196.7,252.4c0.9,0,1.3-0.7,1.3-2c0-0.6-0.1-1.1-0.3-1.4
		s-0.5-0.5-1-0.5c-0.5,0-0.8,0.2-1,0.5s-0.3,0.8-0.3,1.4c0,0.6,0.1,1.1,0.4,1.5S196.3,252.4,196.7,252.4z M198.1,244.6l0.4,0.9
		l-2.4,1l-0.2-0.6L198.1,244.6z"/>
	<path class="st5" d="M205.6,253.3h-1.3v-3.7c0-0.4-0.1-0.7-0.3-0.9s-0.4-0.3-0.7-0.3c-0.3,0-0.7,0.2-0.9,0.5s-0.4,0.8-0.4,1.4v3
		h-1.3v-5.9h1.2v1.4c0.4-1,1-1.5,1.8-1.5c0.5,0,1,0.2,1.3,0.5s0.6,0.9,0.6,1.7V253.3z"/>
</g>
<g class="st2">
	<path class="st5" d="M233.6,16.4h-1.4v-8h3.3c0.9,0,1.6,0.2,2.1,0.7s0.7,1,0.7,1.7c0,0.7-0.2,1.3-0.7,1.8s-1.1,0.7-1.9,0.7h-2V16.4
		z M233.6,11.9h1.7c0.4,0,0.8-0.1,1-0.3s0.4-0.5,0.4-0.9c0-0.3-0.1-0.6-0.3-0.8s-0.6-0.4-1.2-0.4h-1.6V11.9z"/>
</g>
<g class="st2">
	<path class="st5" d="M240.2,16.4h-1.3v-5.9h1.2v1.4c0.2-0.6,0.4-1,0.7-1.2s0.6-0.4,0.9-0.4c0,0,0.1,0,0.2,0v1.4
		c-0.7,0-1.1,0.2-1.4,0.7s-0.3,0.9-0.3,1.3V16.4z"/>
</g>
<g class="st2">
	<path class="st5" d="M244.9,16.5c-0.9,0-1.5-0.3-2-0.9s-0.7-1.3-0.7-2.2c0-0.9,0.3-1.6,0.8-2.2s1.2-0.9,2-0.9c0.8,0,1.4,0.3,2,0.8
		s0.8,1.3,0.8,2.2c0,0.9-0.3,1.7-0.8,2.3S245.7,16.5,244.9,16.5z M244.9,15.4c0.9,0,1.3-0.7,1.3-2c0-0.6-0.1-1.1-0.3-1.4
		s-0.5-0.5-1-0.5c-0.5,0-0.8,0.2-1,0.5s-0.3,0.8-0.3,1.4c0,0.6,0.1,1.1,0.4,1.5S244.5,15.4,244.9,15.4z"/>
	<path class="st5" d="M250.3,18.3h-1.4v-7.9h1.3v1c0.4-0.8,1-1.2,1.8-1.2c0.7,0,1.2,0.3,1.6,0.9s0.6,1.3,0.6,2.2
		c0,0.8-0.2,1.6-0.6,2.2s-0.9,0.9-1.7,0.9c-0.8,0-1.3-0.3-1.7-0.9V18.3z M250.3,13.9c0,0.4,0.1,0.8,0.4,1.1s0.5,0.4,0.9,0.4
		c0.4,0,0.7-0.2,0.9-0.6s0.3-0.8,0.3-1.4c0-0.6-0.1-1.1-0.3-1.5s-0.5-0.6-0.9-0.6c-0.4,0-0.7,0.2-0.9,0.5s-0.4,0.7-0.4,1.2V13.9z"/>
	<path class="st5" d="M256.7,9.7h-1.3V8.4h1.3V9.7z M256.7,16.4h-1.3v-5.9h1.3V16.4z"/>
	<path class="st5" d="M262.1,14.5l1.2,0.2c-0.2,0.5-0.5,1-0.9,1.3s-1,0.5-1.7,0.5c-0.8,0-1.5-0.3-2-0.8s-0.8-1.3-0.8-2.2
		c0-0.9,0.3-1.6,0.8-2.2s1.2-0.9,2.1-0.9c0.8,0,1.5,0.3,2,0.9s0.7,1.3,0.7,2.2l0,0.2h-4.1c0,0.4,0,0.7,0.1,1s0.2,0.5,0.5,0.6
		s0.5,0.3,0.8,0.3C261.4,15.4,261.8,15.1,262.1,14.5z M262,12.7c0-0.4-0.1-0.8-0.4-1s-0.6-0.4-0.9-0.4c-0.4,0-0.7,0.1-0.9,0.4
		s-0.4,0.6-0.4,1.1H262z"/>
	<path class="st5" d="M269.5,16.4h-1.2v-1.2c-0.3,0.9-0.9,1.3-1.7,1.3c-0.7,0-1.3-0.3-1.7-0.9s-0.6-1.4-0.6-2.3
		c0-0.8,0.2-1.6,0.6-2.2s1-0.9,1.7-0.9c0.8,0,1.3,0.3,1.6,1V8.4h1.3V16.4z M268.1,12.9c0-0.5-0.1-0.9-0.3-1.1s-0.5-0.4-0.9-0.4
		c-0.4,0-0.7,0.2-0.9,0.5s-0.3,0.9-0.3,1.5c0,1.3,0.4,2,1.2,2c0.3,0,0.6-0.1,0.9-0.4s0.4-0.6,0.4-1.1V12.9z"/>
	<path class="st5" d="M276.1,16.4h-1.3c-0.1-0.4-0.2-0.8-0.2-1.2c-0.4,0.9-1,1.3-2,1.3c-0.6,0-1.1-0.2-1.4-0.5s-0.5-0.8-0.5-1.3
		c0-1.4,1.2-2,3.6-2c0.1,0,0.2,0,0.4,0v-0.4c0-0.6-0.4-0.9-1.3-0.9c-0.8,0-1.3,0.3-1.4,0.9l-1.1-0.2c0.1-0.5,0.3-0.9,0.8-1.2
		s1.1-0.5,1.9-0.5c0.5,0,0.8,0,1.1,0.1s0.5,0.2,0.7,0.4s0.3,0.4,0.4,0.6s0.1,0.6,0.1,1.1v2.7C276,15.5,276,15.9,276.1,16.4z
		 M274.7,13.3c-1.7,0-2.6,0.4-2.6,1.2c0,0.2,0.1,0.5,0.3,0.6s0.4,0.3,0.8,0.3c0.5,0,0.9-0.2,1.2-0.5s0.4-0.7,0.4-1.1V13.3z"/>
	<path class="st5" d="M282.4,16.4h-1.2v-1.2c-0.3,0.9-0.9,1.3-1.7,1.3c-0.7,0-1.3-0.3-1.7-0.9s-0.6-1.4-0.6-2.3
		c0-0.8,0.2-1.6,0.6-2.2s1-0.9,1.7-0.9c0.8,0,1.3,0.3,1.6,1V8.4h1.3V16.4z M281.1,12.9c0-0.5-0.1-0.9-0.3-1.1s-0.5-0.4-0.9-0.4
		c-0.4,0-0.7,0.2-0.9,0.5s-0.3,0.9-0.3,1.5c0,1.3,0.4,2,1.2,2c0.3,0,0.6-0.1,0.9-0.4s0.4-0.6,0.4-1.1V12.9z"/>
</g>
</svg>
