<?xml version="1.0" encoding="utf-8"?>
<!-- Generator: Adobe Illustrator 24.0.2, SVG Export Plug-In . SVG Version: 6.00 Build 0)  -->
<svg version="1.1" id="Capa_1" xmlns="http://www.w3.org/2000/svg" xmlns:xlink="http://www.w3.org/1999/xlink" x="0px" y="0px"
	 viewBox="0 0 390.9 290.4" style="enable-background:new 0 0 390.9 290.4;" xml:space="preserve">
<style type="text/css">
	
		.st0{opacity:0.5;fill:none;stroke:#DCDCDC;stroke-width:0.54;stroke-linecap:round;stroke-linejoin:round;enable-background:new    ;}
	.st1{opacity:0.2;fill:none;stroke:#FBD59A;stroke-linejoin:round;enable-background:new    ;}
	.st2{fill:none;stroke:#CB7E42;stroke-width:1.5;stroke-linejoin:round;}
	.st3{fill:none;stroke:#CB7E42;stroke-width:2;stroke-linejoin:round;}
	.st4{enable-background:new    ;}
	.st5{fill:#DCDCDC;}
	.st6{fill:#DDDDDD;}
</style>
<title>7a</title>
<g>
	<line class="st0" x1="7.3" y1="267.8" x2="304.5" y2="267.8"/>
	<polyline class="st1" points="41.3,102.2 98.4,232.5 155.6,253.7 212.7,255.7 269.9,267.9 	"/>
	<polyline class="st1" points="41.3,233.5 98.4,267.6 155.6,256.2 212.7,267.6 269.7,267.6 	"/>
	<polyline class="st2" points="41.3,222 98.4,186.3 155.6,186.3 212.7,179.9 269.9,92.9 	"/>
	<polyline class="st1" points="41.3,162.1 98.4,156.8 155.6,88.4 212.7,29 269.9,150.3 	"/>
	<polyline class="st1" points="41.3,265.2 98.4,258.9 155.6,260.9 212.7,263.1 269.9,231.5 	"/>
	<polyline class="st2" points="41.3,248.5 98.4,219.2 155.6,233.7 212.7,241.7 269.9,212.3 	"/>
	<polyline class="st3" points="41.3,255.2 98.4,232.7 155.6,248.5 212.7,249.4 269.9,267.9 	"/>
	<g class="st4">
		<path class="st5" d="M6.6,96.2H4.9V94H0.7v-1.2l4.1-6.2h1.7v6H8V94H6.6V96.2z M5,88.4l-2.6,4.2h2.5V90c0-0.3,0-0.5,0-0.7L5,88.4z"
			/>
		<path class="st5" d="M12.6,96.3c-1.1,0-2-0.4-2.6-1.3C9.3,94.1,9,93,9,91.6c0-1.5,0.3-2.7,1-3.6s1.5-1.3,2.6-1.3
			c0.8,0,1.5,0.2,2,0.6c0.5,0.4,1,1,1.2,1.8c0.3,0.8,0.4,1.5,0.4,2.1c0,1.1-0.1,2-0.4,2.7c-0.3,0.7-0.6,1.3-1.2,1.7
			C14.1,96.1,13.4,96.3,12.6,96.3z M12.6,95c0.5,0,0.9-0.1,1.1-0.4s0.5-0.7,0.6-1.2s0.2-1.2,0.2-2.2c0-0.8-0.1-1.5-0.4-2.2
			s-0.8-1-1.5-1c-1.3,0-1.9,1.2-1.9,3.5c0,1.1,0.1,1.9,0.4,2.6S11.9,95,12.6,95z"/>
	</g>
	<line class="st0" x1="0.3" y1="99.4" x2="15.4" y2="99.4"/>
	<g class="st4">
		<path class="st5" d="M7.7,4.5L6.3,4.7C6,3.9,5.5,3.4,4.6,3.4c-0.8,0-1.3,0.3-1.7,1C2.7,5.1,2.5,5.9,2.5,6.6c0,0.2,0,0.3,0,0.5
			C3,6.1,3.8,5.7,4.9,5.7c0.9,0,1.6,0.3,2.2,0.8S8,7.8,8,8.6c0,0.9-0.3,1.7-1,2.3c-0.6,0.6-1.4,0.9-2.4,0.9c-1.2,0-2.1-0.4-2.8-1.3
			c-0.7-0.8-1-2-1-3.5c0-1.4,0.3-2.6,1-3.5s1.6-1.4,2.7-1.4C6.2,2.2,7.3,3,7.7,4.5z M4.6,10.6c0.5,0,0.9-0.2,1.3-0.5
			c0.3-0.3,0.5-0.8,0.5-1.4c0-0.4-0.2-0.8-0.5-1.2S5.1,7,4.5,7C4,7,3.6,7.2,3.3,7.5S2.8,8.3,2.8,8.8c0,0.5,0.2,0.9,0.5,1.3
			S4.1,10.6,4.6,10.6z"/>
		<path class="st5" d="M12.6,11.8c-1.1,0-2-0.4-2.6-1.3C9.3,9.6,9,8.5,9,7.1c0-1.5,0.3-2.7,1-3.6s1.5-1.3,2.6-1.3
			c0.8,0,1.5,0.2,2,0.6c0.5,0.4,1,1,1.2,1.8c0.3,0.8,0.4,1.5,0.4,2.1c0,1.1-0.1,2-0.4,2.7c-0.3,0.7-0.6,1.3-1.2,1.7
			C14.1,11.6,13.4,11.8,12.6,11.8z M12.6,10.5c0.5,0,0.9-0.1,1.1-0.4s0.5-0.7,0.6-1.2s0.2-1.2,0.2-2.2c0-0.8-0.1-1.5-0.4-2.2
			s-0.8-1-1.5-1c-1.3,0-1.9,1.2-1.9,3.5c0,1.1,0.1,1.9,0.4,2.6S11.9,10.5,12.6,10.5z"/>
	</g>
	<line class="st0" x1="0.3" y1="14.9" x2="15.4" y2="14.9"/>
	<g class="st4">
		<path class="st5" d="M11.9,264.4c-1.1,0-2-0.4-2.6-1.3c-0.6-0.9-0.9-2-0.9-3.4c0-1.5,0.3-2.7,1-3.6s1.5-1.3,2.6-1.3
			c0.8,0,1.5,0.2,2,0.6c0.5,0.4,1,1,1.2,1.8c0.3,0.8,0.4,1.5,0.4,2.1c0,1.1-0.1,2-0.4,2.7c-0.3,0.7-0.6,1.3-1.2,1.7
			C13.4,264.1,12.7,264.4,11.9,264.4z M11.9,263c0.5,0,0.9-0.1,1.1-0.4s0.5-0.7,0.6-1.2s0.2-1.2,0.2-2.2c0-0.8-0.1-1.5-0.4-2.2
			s-0.8-1-1.5-1c-1.3,0-1.9,1.2-1.9,3.5c0,1.1,0.1,1.9,0.4,2.6S11.2,263,11.9,263z"/>
	</g>
	<g class="st4">
		<path class="st5" d="M7.7,179.3v1.5H0.9v-1.6l2.9-1.9c0.9-0.6,1.5-1.1,1.8-1.6c0.3-0.5,0.5-0.9,0.5-1.3c0-0.5-0.2-0.8-0.5-1.2
			s-0.7-0.5-1.2-0.5c-1.1,0-1.7,0.6-1.8,1.9l-1.6-0.4c0.1-0.8,0.5-1.5,1.1-2.1c0.6-0.6,1.4-0.9,2.4-0.9c1,0,1.9,0.3,2.5,0.9
			c0.6,0.6,0.9,1.3,0.9,2.2c0,0.8-0.3,1.5-0.8,2.1c-0.5,0.6-1.9,1.6-4.1,2.8H7.7z"/>
		<path class="st5" d="M12.6,180.9c-1.1,0-2-0.4-2.6-1.3c-0.6-0.9-0.9-2-0.9-3.4c0-1.5,0.3-2.7,1-3.6s1.5-1.3,2.6-1.3
			c0.8,0,1.5,0.2,2,0.6c0.5,0.4,1,1,1.2,1.8c0.3,0.8,0.4,1.5,0.4,2.1c0,1.1-0.1,2-0.4,2.7c-0.3,0.7-0.6,1.3-1.2,1.7
			C14.1,180.6,13.4,180.9,12.6,180.9z M12.6,179.5c0.5,0,0.9-0.1,1.1-0.4s0.5-0.7,0.6-1.2s0.2-1.2,0.2-2.2c0-0.8-0.1-1.5-0.4-2.2
			s-0.8-1-1.5-1c-1.3,0-1.9,1.2-1.9,3.5c0,1.1,0.1,1.9,0.4,2.6S11.9,179.5,12.6,179.5z"/>
	</g>
	<line class="st0" x1="0.3" y1="183.9" x2="15.4" y2="183.9"/>
	<g class="st4">
		<path class="st6" d="M34.4,277.8v1.6l-4.4,2.1l4.4,2.1l0,1.6l-6.1-3v-1.3L34.4,277.8z"/>
		<path class="st6" d="M38.5,282v-1.3h0.9c0.5,0,0.9-0.1,1.3-0.3s0.5-0.6,0.5-1c0-0.4-0.1-0.8-0.4-1s-0.7-0.3-1.1-0.3
			c-0.9,0-1.5,0.5-1.9,1.4l-1.5-0.3c0.2-0.7,0.6-1.3,1.2-1.7s1.4-0.7,2.3-0.7c0.9,0,1.6,0.2,2.3,0.7c0.6,0.5,0.9,1.1,0.9,1.8
			c0,0.6-0.2,1-0.5,1.4s-0.7,0.6-1.2,0.7c0.6,0.1,1.1,0.3,1.5,0.8s0.6,0.9,0.6,1.5c0,0.8-0.3,1.5-1,2c-0.6,0.5-1.5,0.8-2.6,0.8
			c-1,0-1.8-0.3-2.5-0.8c-0.6-0.5-1.1-1.1-1.2-1.7l1.6-0.4c0.3,1,1,1.6,2.1,1.6c0.5,0,1-0.1,1.3-0.4c0.3-0.3,0.5-0.6,0.5-1
			c0-0.4-0.1-0.8-0.4-1.1c-0.3-0.3-0.7-0.5-1.3-0.5H38.5z"/>
		<path class="st6" d="M47.9,286.3c-1.1,0-2-0.4-2.6-1.3c-0.6-0.9-0.9-2-0.9-3.4c0-1.5,0.3-2.7,1-3.6s1.5-1.3,2.6-1.3
			c0.8,0,1.5,0.2,2,0.6c0.5,0.4,1,1,1.2,1.8c0.3,0.8,0.4,1.5,0.4,2.1c0,1.1-0.1,2-0.4,2.7c-0.3,0.7-0.6,1.3-1.2,1.7
			C49.4,286.1,48.7,286.3,47.9,286.3z M47.9,285c0.5,0,0.9-0.1,1.1-0.4s0.5-0.7,0.6-1.2s0.2-1.2,0.2-2.2c0-0.8-0.1-1.5-0.4-2.2
			s-0.8-1-1.5-1c-1.3,0-1.9,1.2-1.9,3.5c0,1.1,0.1,1.9,0.4,2.6S47.2,285,47.9,285z"/>
	</g>
	<g class="st4">
		<path class="st6" d="M78.5,282v-1.3h0.9c0.5,0,0.9-0.1,1.3-0.3s0.5-0.6,0.5-1c0-0.4-0.1-0.8-0.4-1s-0.7-0.3-1.1-0.3
			c-0.9,0-1.5,0.5-1.9,1.4l-1.5-0.3c0.2-0.7,0.6-1.3,1.2-1.7s1.4-0.7,2.3-0.7c0.9,0,1.6,0.2,2.3,0.7c0.6,0.5,0.9,1.1,0.9,1.8
			c0,0.6-0.2,1-0.5,1.4s-0.7,0.6-1.2,0.7c0.6,0.1,1.1,0.3,1.5,0.8s0.6,0.9,0.6,1.5c0,0.8-0.3,1.5-1,2c-0.6,0.5-1.5,0.8-2.6,0.8
			c-1,0-1.8-0.3-2.5-0.8c-0.6-0.5-1.1-1.1-1.2-1.7l1.6-0.4c0.3,1,1,1.6,2.1,1.6c0.5,0,1-0.1,1.3-0.4c0.3-0.3,0.5-0.6,0.5-1
			c0-0.4-0.1-0.8-0.4-1.1c-0.3-0.3-0.7-0.5-1.3-0.5H78.5z"/>
		<path class="st6" d="M87.9,286.3c-1.1,0-2-0.4-2.6-1.3c-0.6-0.9-0.9-2-0.9-3.4c0-1.5,0.3-2.7,1-3.6s1.5-1.3,2.6-1.3
			c0.8,0,1.5,0.2,2,0.6c0.5,0.4,1,1,1.2,1.8c0.3,0.8,0.4,1.5,0.4,2.1c0,1.1-0.1,2-0.4,2.7c-0.3,0.7-0.6,1.3-1.2,1.7
			C89.4,286.1,88.7,286.3,87.9,286.3z M87.9,285c0.5,0,0.9-0.1,1.1-0.4s0.5-0.7,0.6-1.2s0.2-1.2,0.2-2.2c0-0.8-0.1-1.5-0.4-2.2
			s-0.8-1-1.5-1c-1.3,0-1.9,1.2-1.9,3.5c0,1.1,0.1,1.9,0.4,2.6S87.2,285,87.9,285z"/>
		<path class="st6" d="M95.4,282v1.3H92V282H95.4z"/>
		<path class="st6" d="M98.3,282v-1.3h0.9c0.5,0,0.9-0.1,1.3-0.3s0.5-0.6,0.5-1c0-0.4-0.1-0.8-0.4-1s-0.7-0.3-1.1-0.3
			c-0.9,0-1.5,0.5-1.9,1.4l-1.5-0.3c0.2-0.7,0.6-1.3,1.2-1.7s1.4-0.7,2.3-0.7c0.9,0,1.6,0.2,2.3,0.7c0.6,0.5,0.9,1.1,0.9,1.8
			c0,0.6-0.2,1-0.5,1.4s-0.7,0.6-1.2,0.7c0.6,0.1,1.1,0.3,1.5,0.8s0.6,0.9,0.6,1.5c0,0.8-0.3,1.5-1,2c-0.6,0.5-1.5,0.8-2.6,0.8
			c-1,0-1.8-0.3-2.5-0.8c-0.6-0.5-1.1-1.1-1.2-1.7l1.6-0.4c0.3,1,1,1.6,2.1,1.6c0.5,0,1-0.1,1.3-0.4c0.3-0.3,0.5-0.6,0.5-1
			c0-0.4-0.1-0.8-0.4-1.1c-0.3-0.3-0.7-0.5-1.3-0.5H98.3z"/>
		<path class="st6" d="M109.9,286.2h-1.7V284H104v-1.2l4.1-6.2h1.7v6h1.4v1.4h-1.4V286.2z M108.3,278.4l-2.6,4.2h2.5V280
			c0-0.3,0-0.5,0-0.7L108.3,278.4z"/>
	</g>
	<g class="st4">
		<path class="st6" d="M140.5,282v-1.3h0.9c0.5,0,0.9-0.1,1.3-0.3s0.5-0.6,0.5-1c0-0.4-0.1-0.8-0.4-1s-0.7-0.3-1.1-0.3
			c-0.9,0-1.5,0.5-1.9,1.4l-1.5-0.3c0.2-0.7,0.6-1.3,1.2-1.7s1.4-0.7,2.3-0.7c0.9,0,1.6,0.2,2.3,0.7c0.6,0.5,0.9,1.1,0.9,1.8
			c0,0.6-0.2,1-0.5,1.4s-0.7,0.6-1.2,0.7c0.6,0.1,1.1,0.3,1.5,0.8s0.6,0.9,0.6,1.5c0,0.8-0.3,1.5-1,2c-0.6,0.5-1.5,0.8-2.6,0.8
			c-1,0-1.8-0.3-2.5-0.8c-0.6-0.5-1.1-1.1-1.2-1.7l1.6-0.4c0.3,1,1,1.6,2.1,1.6c0.5,0,1-0.1,1.3-0.4c0.3-0.3,0.5-0.6,0.5-1
			c0-0.4-0.1-0.8-0.4-1.1c-0.3-0.3-0.7-0.5-1.3-0.5H140.5z"/>
		<path class="st6" d="M147.3,276.8h5.8l-0.2,1.4h-4.4l-0.3,2.7c0.6-0.7,1.3-1.1,2.2-1.1c0.9,0,1.7,0.3,2.3,0.9s0.9,1.4,0.9,2.2
			c0,0.9-0.3,1.7-1,2.3s-1.5,1-2.7,1c-0.9,0-1.7-0.2-2.4-0.6s-1.1-1.1-1.3-1.9l1.6-0.2c0.3,1,1,1.4,2,1.4c0.6,0,1.1-0.2,1.4-0.6
			s0.5-0.8,0.5-1.3c0-0.5-0.2-1-0.5-1.3c-0.3-0.4-0.8-0.5-1.3-0.5c-0.8,0-1.4,0.4-1.8,1.1l-1.5-0.3L147.3,276.8z"/>
		<path class="st6" d="M157.4,282v1.3H154V282H157.4z"/>
		<path class="st6" d="M160.3,282v-1.3h0.9c0.5,0,0.9-0.1,1.3-0.3s0.5-0.6,0.5-1c0-0.4-0.1-0.8-0.4-1s-0.7-0.3-1.1-0.3
			c-0.9,0-1.5,0.5-1.9,1.4l-1.5-0.3c0.2-0.7,0.6-1.3,1.2-1.7s1.4-0.7,2.3-0.7c0.9,0,1.6,0.2,2.3,0.7c0.6,0.5,0.9,1.1,0.9,1.8
			c0,0.6-0.2,1-0.5,1.4s-0.7,0.6-1.2,0.7c0.6,0.1,1.1,0.3,1.5,0.8s0.6,0.9,0.6,1.5c0,0.8-0.3,1.5-1,2c-0.6,0.5-1.5,0.8-2.6,0.8
			c-1,0-1.8-0.3-2.5-0.8c-0.6-0.5-1.1-1.1-1.2-1.7l1.6-0.4c0.3,1,1,1.6,2.1,1.6c0.5,0,1-0.1,1.3-0.4c0.3-0.3,0.5-0.6,0.5-1
			c0-0.4-0.1-0.8-0.4-1.1c-0.3-0.3-0.7-0.5-1.3-0.5H160.3z"/>
		<path class="st6" d="M166.4,284.5l1.4-0.4c0.4,0.6,0.9,1,1.6,1c0.7,0,1.2-0.3,1.6-1s0.6-1.6,0.6-2.7c-0.3,0.6-0.7,1-1.1,1.2
			c-0.4,0.2-0.9,0.3-1.3,0.3c-0.9,0-1.6-0.3-2.2-0.8c-0.6-0.5-0.9-1.3-0.9-2.2c0-0.9,0.3-1.7,0.9-2.2c0.6-0.6,1.4-0.9,2.4-0.9
			c1.1,0,2.1,0.4,2.8,1.2c0.7,0.8,1,1.9,1,3.4c0,1.5-0.3,2.7-1,3.7s-1.6,1.4-2.9,1.4c-0.8,0-1.4-0.2-1.9-0.5S166.6,285,166.4,284.5z
			 M169.4,281.4c0.5,0,0.9-0.2,1.3-0.5s0.6-0.8,0.6-1.4c0-0.4-0.2-0.8-0.5-1.1c-0.3-0.3-0.8-0.5-1.3-0.5c-0.5,0-1,0.2-1.3,0.5
			c-0.3,0.3-0.5,0.8-0.5,1.3c0,0.4,0.2,0.8,0.5,1.2S168.9,281.4,169.4,281.4z"/>
	</g>
	<g class="st4">
		<path class="st6" d="M200.9,286.2h-1.7V284H195v-1.2l4.1-6.2h1.7v6h1.4v1.4h-1.4V286.2z M199.3,278.4l-2.6,4.2h2.5V280
			c0-0.3,0-0.5,0-0.7L199.3,278.4z"/>
		<path class="st6" d="M206.9,286.3c-1.1,0-2-0.4-2.6-1.3c-0.6-0.9-0.9-2-0.9-3.4c0-1.5,0.3-2.7,1-3.6s1.5-1.3,2.6-1.3
			c0.8,0,1.5,0.2,2,0.6c0.5,0.4,1,1,1.2,1.8c0.3,0.8,0.4,1.5,0.4,2.1c0,1.1-0.1,2-0.4,2.7c-0.3,0.7-0.6,1.3-1.2,1.7
			C208.4,286.1,207.7,286.3,206.9,286.3z M206.9,285c0.5,0,0.9-0.1,1.1-0.4c0.3-0.3,0.5-0.7,0.6-1.2c0.1-0.5,0.2-1.2,0.2-2.2
			c0-0.8-0.1-1.5-0.4-2.2c-0.3-0.7-0.8-1-1.5-1c-1.3,0-1.9,1.2-1.9,3.5c0,1.1,0.1,1.9,0.4,2.6C205.7,284.7,206.2,285,206.9,285z"/>
		<path class="st6" d="M214.4,282v1.3H211V282H214.4z"/>
		<path class="st6" d="M220.7,286.2H219V284h-4.1v-1.2l4.1-6.2h1.7v6h1.4v1.4h-1.4V286.2z M219.1,278.4l-2.6,4.2h2.5V280
			c0-0.3,0-0.5,0-0.7L219.1,278.4z"/>
		<path class="st6" d="M228.9,286.2h-1.7V284H223v-1.2l4.1-6.2h1.7v6h1.4v1.4h-1.4V286.2z M227.3,278.4l-2.6,4.2h2.5V280
			c0-0.3,0-0.5,0-0.7L227.3,278.4z"/>
	</g>
	<g class="st4">
		<path class="st6" d="M257.9,286.2h-1.7V284H252v-1.2l4.1-6.2h1.7v6h1.4v1.4h-1.4V286.2z M256.3,278.4l-2.6,4.2h2.5V280
			c0-0.3,0-0.5,0-0.7L256.3,278.4z"/>
		<path class="st6" d="M261.3,276.8h5.8l-0.2,1.4h-4.4l-0.3,2.7c0.6-0.7,1.3-1.1,2.2-1.1c0.9,0,1.7,0.3,2.3,0.9
			c0.6,0.6,0.9,1.4,0.9,2.2c0,0.9-0.3,1.7-1,2.3c-0.6,0.6-1.5,1-2.7,1c-0.9,0-1.7-0.2-2.4-0.6c-0.7-0.4-1.1-1.1-1.3-1.9l1.6-0.2
			c0.3,1,1,1.4,2,1.4c0.6,0,1.1-0.2,1.4-0.6c0.3-0.4,0.5-0.8,0.5-1.3c0-0.5-0.2-1-0.5-1.3c-0.3-0.4-0.8-0.5-1.3-0.5
			c-0.8,0-1.4,0.4-1.8,1.1l-1.5-0.3L261.3,276.8z"/>
		<path class="st6" d="M271.4,282v1.3H268V282H271.4z"/>
		<path class="st6" d="M277.7,286.2H276V284h-4.1v-1.2l4.1-6.2h1.7v6h1.4v1.4h-1.4V286.2z M276.1,278.4l-2.6,4.2h2.5V280
			c0-0.3,0-0.5,0-0.7L276.1,278.4z"/>
		<path class="st6" d="M280.4,284.5l1.4-0.4c0.4,0.6,0.9,1,1.6,1c0.7,0,1.2-0.3,1.6-1c0.4-0.7,0.6-1.6,0.6-2.7
			c-0.3,0.6-0.7,1-1.1,1.2c-0.4,0.2-0.9,0.3-1.3,0.3c-0.9,0-1.6-0.3-2.2-0.8c-0.6-0.5-0.9-1.3-0.9-2.2c0-0.9,0.3-1.7,0.9-2.2
			c0.6-0.6,1.4-0.9,2.4-0.9c1.1,0,2.1,0.4,2.8,1.2c0.7,0.8,1,1.9,1,3.4c0,1.5-0.3,2.7-1,3.7c-0.7,0.9-1.6,1.4-2.9,1.4
			c-0.8,0-1.4-0.2-1.9-0.5C280.9,285.4,280.6,285,280.4,284.5z M283.4,281.4c0.5,0,0.9-0.2,1.3-0.5c0.4-0.3,0.6-0.8,0.6-1.4
			c0-0.4-0.2-0.8-0.5-1.1c-0.3-0.3-0.8-0.5-1.3-0.5c-0.5,0-1,0.2-1.3,0.5c-0.3,0.3-0.5,0.8-0.5,1.3c0,0.4,0.2,0.8,0.5,1.2
			C282.4,281.3,282.9,281.4,283.4,281.4z"/>
	</g>
	<g class="st4">
		<path class="st5" d="M207,67.3h-1.9l-4-6.8c-0.1-0.1-0.2-0.3-0.3-0.5c-0.1-0.1-0.2-0.3-0.3-0.5v7.8H199V56.6h2.1l3.7,6.3
			c0,0.1,0.3,0.4,0.7,1.1v-7.4h1.5V67.3z"/>
		<path class="st5" d="M212.3,67.4c-1.2,0-2.1-0.4-2.7-1.3c-0.6-0.8-0.9-1.8-0.9-2.9c0-1.2,0.3-2.1,1-2.9s1.6-1.2,2.7-1.2
			c1.1,0,1.9,0.4,2.6,1.1s1,1.7,1,2.9c0,1.2-0.4,2.2-1.1,3C214.3,67,213.4,67.4,212.3,67.4z M212.4,66c1.2,0,1.8-0.9,1.8-2.7
			c0-0.8-0.1-1.4-0.4-1.9c-0.3-0.5-0.7-0.7-1.3-0.7c-0.6,0-1.1,0.2-1.4,0.7s-0.4,1.1-0.4,1.9c0,0.9,0.2,1.5,0.5,2
			C211.4,65.7,211.9,66,212.4,66z"/>
		<path class="st5" d="M228.3,67.3h-1.8v-5.2c0-0.6-0.1-0.9-0.4-1.2c-0.2-0.2-0.5-0.3-0.8-0.3c-0.5,0-0.9,0.2-1.3,0.6
			s-0.5,1.1-0.5,2v4.1h-1.8V56.6h1.8v4.2c0.4-1.1,1.2-1.7,2.3-1.7c1.6,0,2.4,0.9,2.4,2.8V67.3z"/>
		<path class="st5" d="M237.1,67.3h-1.7c-0.2-0.5-0.2-1-0.3-1.6c-0.5,1.2-1.4,1.8-2.7,1.8c-0.8,0-1.4-0.2-1.9-0.7s-0.7-1-0.7-1.7
			c0-1.8,1.6-2.7,4.8-2.7c0.1,0,0.3,0,0.5,0v-0.6c0-0.8-0.6-1.2-1.7-1.2c-1.1,0-1.7,0.4-1.8,1.2l-1.5-0.2c0.1-0.7,0.4-1.2,1-1.6
			s1.5-0.6,2.6-0.6c0.6,0,1.1,0.1,1.5,0.2c0.4,0.1,0.7,0.3,1,0.5s0.4,0.5,0.6,0.8s0.2,0.8,0.2,1.4v3.6
			C236.9,66.2,237,66.7,237.1,67.3z M235.2,63.2c-2.3,0-3.5,0.5-3.5,1.6c0,0.3,0.1,0.6,0.3,0.8c0.2,0.2,0.6,0.3,1.1,0.3
			c0.7,0,1.2-0.2,1.5-0.6c0.3-0.4,0.5-0.9,0.5-1.5V63.2z"/>
	</g>
	<g class="st4">
		<path class="st5" d="M246.8,66.4v1c-0.4,0.1-0.8,0.1-1.1,0.1c-1.5,0-2.3-0.8-2.3-2.4v-4.8H242v-1h1.4l0.1-2l1.1-0.1v2.1h1.8v1
			h-1.8v5c0,0.8,0.4,1.2,1.3,1.2C246.1,66.5,246.4,66.5,246.8,66.4z"/>
	</g>
	<g class="st4">
		<path class="st5" d="M253,64.7l1.6,0.2c-0.2,0.7-0.6,1.3-1.2,1.8c-0.6,0.5-1.4,0.7-2.3,0.7c-1.1,0-2-0.4-2.6-1.1
			c-0.7-0.7-1-1.7-1-3c0-1.2,0.3-2.2,1-3s1.6-1.2,2.7-1.2c1.1,0,2,0.4,2.6,1.2c0.6,0.8,0.9,1.8,0.9,3l0,0.2h-5.4
			c0,0.5,0.1,1,0.2,1.3s0.3,0.6,0.6,0.8c0.3,0.2,0.7,0.4,1.1,0.4C252.1,66,252.7,65.6,253,64.7z M252.9,62.4c0-0.6-0.2-1-0.5-1.4
			s-0.8-0.5-1.2-0.5c-0.5,0-0.9,0.2-1.2,0.5s-0.5,0.8-0.6,1.4H252.9z"/>
		<path class="st5" d="M262.9,67.3h-1.8v-4.9c0-0.5-0.1-0.9-0.4-1.2c-0.2-0.3-0.5-0.4-0.9-0.4c-0.5,0-0.9,0.2-1.2,0.6
			c-0.3,0.4-0.5,1-0.5,1.8v4.1h-1.8v-7.9h1.6v1.8c0.6-1.3,1.4-2,2.4-2c0.7,0,1.3,0.2,1.8,0.7s0.7,1.2,0.7,2.3V67.3z"/>
		<path class="st5" d="M266.8,58.4H265v-1.9h1.8V58.4z M266.8,67.3H265v-7.9h1.8V67.3z"/>
		<path class="st5" d="M275.4,67.3h-1.7v-1.6c-0.5,1.2-1.2,1.8-2.3,1.8c-1,0-1.7-0.4-2.2-1.2s-0.8-1.8-0.8-3c0-1.1,0.3-2.1,0.8-2.9
			c0.5-0.8,1.3-1.2,2.3-1.2c1,0,1.7,0.5,2.1,1.4v-3.8h1.8V67.3z M273.6,62.6c0-0.6-0.2-1.1-0.5-1.5s-0.7-0.5-1.2-0.5
			c-0.5,0-0.9,0.2-1.2,0.7s-0.4,1.1-0.4,2.1c0,1.8,0.6,2.6,1.7,2.6c0.4,0,0.8-0.2,1.2-0.6s0.5-0.9,0.5-1.4V62.6z"/>
		<path class="st5" d="M280.6,67.4c-1.2,0-2.1-0.4-2.7-1.3c-0.6-0.8-0.9-1.8-0.9-2.9c0-1.2,0.3-2.1,1-2.9s1.6-1.2,2.7-1.2
			c1.1,0,1.9,0.4,2.6,1.1s1,1.7,1,2.9c0,1.2-0.4,2.2-1.1,3C282.6,67,281.7,67.4,280.6,67.4z M280.7,66c1.2,0,1.8-0.9,1.8-2.7
			c0-0.8-0.1-1.4-0.4-1.9c-0.3-0.5-0.7-0.7-1.3-0.7c-0.6,0-1.1,0.2-1.4,0.7s-0.4,1.1-0.4,1.9c0,0.9,0.2,1.5,0.5,2
			C279.7,65.7,280.2,66,280.7,66z"/>
		<path class="st5" d="M291.8,69.9H290V59.4h1.7v1.4c0.5-1,1.4-1.5,2.4-1.5c0.9,0,1.6,0.4,2.1,1.1c0.5,0.8,0.8,1.7,0.8,2.9
			c0,1.1-0.2,2.1-0.7,2.9c-0.5,0.8-1.2,1.2-2.2,1.2c-1,0-1.8-0.4-2.2-1.3V69.9z M291.8,64c0,0.6,0.2,1,0.5,1.4
			c0.3,0.4,0.7,0.6,1.1,0.6c0.6,0,1-0.2,1.2-0.7c0.3-0.5,0.4-1.1,0.4-1.9c0-0.8-0.1-1.5-0.4-2s-0.7-0.8-1.2-0.8
			c-0.5,0-0.9,0.2-1.2,0.6c-0.3,0.4-0.5,1-0.5,1.6V64z"/>
		<path class="st5" d="M305.4,67.3h-1.7c-0.2-0.5-0.2-1-0.3-1.6c-0.5,1.2-1.4,1.8-2.7,1.8c-0.8,0-1.4-0.2-1.9-0.7s-0.7-1-0.7-1.7
			c0-1.8,1.6-2.7,4.8-2.7c0.1,0,0.3,0,0.5,0v-0.6c0-0.8-0.6-1.2-1.7-1.2c-1.1,0-1.7,0.4-1.8,1.2l-1.5-0.2c0.1-0.7,0.4-1.2,1-1.6
			s1.5-0.6,2.6-0.6c0.6,0,1.1,0.1,1.5,0.2c0.4,0.1,0.7,0.3,1,0.5s0.4,0.5,0.6,0.8s0.2,0.8,0.2,1.4v3.6
			C305.2,66.2,305.2,66.7,305.4,67.3z M303.4,63.2c-2.3,0-3.5,0.5-3.5,1.6c0,0.3,0.1,0.6,0.3,0.8c0.2,0.2,0.6,0.3,1.1,0.3
			c0.7,0,1.2-0.2,1.5-0.6c0.3-0.4,0.5-0.9,0.5-1.5V63.2z"/>
		<path class="st5" d="M309.1,67.3h-1.8v-7.9h1.6v1.9c0.2-0.7,0.5-1.3,0.9-1.6c0.4-0.3,0.8-0.5,1.2-0.5c0.1,0,0.1,0,0.2,0v1.9
			c-0.9,0-1.5,0.3-1.8,0.9c-0.3,0.6-0.4,1.1-0.4,1.7V67.3z"/>
		<path class="st5" d="M317.6,64.7l1.6,0.2c-0.2,0.7-0.6,1.3-1.2,1.8c-0.6,0.5-1.4,0.7-2.3,0.7c-1.1,0-2-0.4-2.6-1.1
			c-0.7-0.7-1-1.7-1-3c0-1.2,0.3-2.2,1-3s1.6-1.2,2.7-1.2c1.1,0,2,0.4,2.6,1.2c0.6,0.8,0.9,1.8,0.9,3l0,0.2h-5.4
			c0,0.5,0.1,1,0.2,1.3s0.3,0.6,0.6,0.8c0.3,0.2,0.7,0.4,1.1,0.4C316.7,66,317.3,65.6,317.6,64.7z M317.5,62.4c0-0.6-0.2-1-0.5-1.4
			s-0.8-0.5-1.2-0.5c-0.5,0-0.9,0.2-1.2,0.5s-0.5,0.8-0.6,1.4H317.5z"/>
		<path class="st5" d="M322.8,59.4v7.8c0,2-0.9,3-2.7,3c-0.3,0-0.6,0-0.9-0.1v-1.5c0.2,0,0.4,0,0.6,0c0.5,0,0.8-0.1,1-0.3
			c0.2-0.2,0.3-0.6,0.3-1.1v-7.8H322.8z M322.8,58.4H321v-1.9h1.8V58.4z"/>
		<path class="st5" d="M331.6,67.3h-1.7c-0.2-0.5-0.2-1-0.3-1.6c-0.5,1.2-1.4,1.8-2.7,1.8c-0.8,0-1.4-0.2-1.9-0.7s-0.7-1-0.7-1.7
			c0-1.8,1.6-2.7,4.8-2.7c0.1,0,0.3,0,0.5,0v-0.6c0-0.8-0.6-1.2-1.7-1.2c-1.1,0-1.7,0.4-1.8,1.2l-1.5-0.2c0.1-0.7,0.4-1.2,1-1.6
			s1.5-0.6,2.6-0.6c0.6,0,1.1,0.1,1.5,0.2c0.4,0.1,0.7,0.3,1,0.5s0.4,0.5,0.6,0.8s0.2,0.8,0.2,1.4v3.6
			C331.4,66.2,331.5,66.7,331.6,67.3z M329.7,63.2c-2.3,0-3.5,0.5-3.5,1.6c0,0.3,0.1,0.6,0.3,0.8c0.2,0.2,0.6,0.3,1.1,0.3
			c0.7,0,1.2-0.2,1.5-0.6c0.3-0.4,0.5-0.9,0.5-1.5V63.2z"/>
	</g>
	<g class="st4">
		<path class="st5" d="M340.5,67.5c-1.1,0-1.9-0.4-2.5-1.2s-0.9-1.8-0.9-3c0-1.3,0.3-2.3,1-3s1.5-1.1,2.5-1.1c1.1,0,1.9,0.4,2.6,1.2
			s0.9,1.8,0.9,3c0,1.2-0.3,2.2-1,3S341.6,67.5,340.5,67.5z M340.6,66.5c0.6,0,1.1-0.3,1.6-0.8s0.6-1.3,0.6-2.4
			c0-1.1-0.2-1.9-0.7-2.4s-1-0.7-1.6-0.7c-0.6,0-1.1,0.2-1.5,0.7s-0.6,1.3-0.6,2.4c0,1.1,0.2,2,0.6,2.4S340,66.5,340.6,66.5z"/>
		<path class="st5" d="M356.2,67.3h-1.1v-5.1c0-0.7-0.2-1.2-0.5-1.5s-0.7-0.4-1.2-0.4c-0.6,0-1.1,0.3-1.6,0.8s-0.6,1.2-0.6,2v4.3
			H350v-7.9h1.1v1.5c0.6-1.1,1.5-1.7,2.5-1.7c0.6,0,1.1,0.2,1.5,0.5s0.7,0.6,0.9,1s0.2,1.1,0.2,2.1V67.3z"/>
		<path class="st5" d="M361.5,67.5c-1.1,0-1.9-0.4-2.5-1.2s-0.9-1.8-0.9-3c0-1.3,0.3-2.3,1-3s1.5-1.1,2.5-1.1c1.1,0,1.9,0.4,2.6,1.2
			s0.9,1.8,0.9,3c0,1.2-0.3,2.2-1,3S362.6,67.5,361.5,67.5z M361.6,66.5c0.6,0,1.1-0.3,1.6-0.8s0.6-1.3,0.6-2.4
			c0-1.1-0.2-1.9-0.7-2.4s-1-0.7-1.6-0.7c-0.6,0-1.1,0.2-1.5,0.7s-0.6,1.3-0.6,2.4c0,1.1,0.2,2,0.6,2.4S361,66.5,361.6,66.5z"/>
		<path class="st5" d="M377.2,67.3H376v-4.8c0-0.6,0-1-0.1-1.3s-0.2-0.5-0.5-0.7s-0.6-0.3-0.9-0.3c-0.6,0-1.2,0.3-1.6,0.8
			s-0.6,1.2-0.6,2.1v4.3H371V56.6h1.2v4.2c0.6-1.1,1.4-1.7,2.4-1.7c0.5,0,0.9,0.1,1.2,0.3s0.6,0.4,0.8,0.7s0.3,0.6,0.4,0.9
			s0.1,0.8,0.1,1.4V67.3z"/>
		<path class="st5" d="M385.8,67.3h-1.2c0-0.3-0.1-0.7-0.1-1.4c-0.5,1.1-1.5,1.6-2.8,1.6c-0.9,0-1.6-0.2-2-0.7s-0.7-1-0.7-1.7
			c0-0.8,0.3-1.5,1-2s1.8-0.8,3.5-0.8c0.2,0,0.6,0,1,0c0-0.6,0-1.1-0.1-1.4s-0.3-0.5-0.6-0.7s-0.7-0.3-1.2-0.3c-1.2,0-2,0.5-2.2,1.4
			l-1.1-0.2c0.3-1.5,1.4-2.2,3.5-2.2c1.1,0,1.9,0.2,2.3,0.7s0.7,1.3,0.7,2.5v3.4C385.6,66.3,385.7,66.8,385.8,67.3z M384.5,63.3
			c-0.5,0-0.9,0-1.1,0c-1,0-1.7,0.2-2.3,0.5s-0.8,0.8-0.8,1.4c0,0.4,0.1,0.7,0.4,1s0.7,0.4,1.3,0.4c0.7,0,1.3-0.3,1.8-0.8
			s0.7-1.2,0.7-1.9C384.5,63.7,384.5,63.5,384.5,63.3z"/>
	</g>
	<g class="st4">
		<path class="st5" d="M198,84.4l1.2-0.2c0.3,1,1.1,1.5,2.5,1.5c0.5,0,0.9-0.1,1.3-0.3c0.4-0.2,0.5-0.6,0.5-1c0-0.6-0.5-1-1.4-1.2
			l-1.7-0.3c-0.7-0.1-1.2-0.4-1.6-0.7c-0.4-0.4-0.6-0.8-0.6-1.4c0-0.7,0.3-1.2,0.8-1.7c0.5-0.4,1.2-0.7,2.1-0.7c1.7,0,2.8,0.7,3.2,2
			l-1.1,0.2c-0.3-0.8-1-1.2-2-1.2c-0.5,0-0.9,0.1-1.2,0.3c-0.3,0.2-0.5,0.5-0.5,0.9c0,0.6,0.4,0.9,1.2,1.1l1.5,0.3
			c1.6,0.3,2.4,1.1,2.4,2.3c0,0.7-0.3,1.3-0.9,1.8c-0.6,0.4-1.4,0.7-2.4,0.7C199.6,86.7,198.4,85.9,198,84.4z"/>
		<path class="st5" d="M207.7,75.8v1.4h-1.3v-1.4H207.7z M207.7,78.6v7.9h-1.2v-7.9H207.7z"/>
		<path class="st5" d="M216.3,75.8v10.7h-1.1v-1.4c-0.6,1-1.4,1.6-2.5,1.6c-0.9,0-1.7-0.4-2.3-1.2s-0.9-1.8-0.9-2.9
			c0-1.2,0.3-2.2,0.9-3c0.6-0.8,1.4-1.2,2.3-1.2c0.9,0,1.7,0.4,2.3,1.3v-3.9H216.3z M215,81.6c0-0.7-0.2-1.2-0.6-1.7
			s-0.9-0.6-1.5-0.6c-0.6,0-1.1,0.3-1.5,0.8c-0.4,0.5-0.6,1.3-0.6,2.3c0,1.1,0.2,1.9,0.5,2.4c0.4,0.6,0.9,0.8,1.5,0.8
			c0.6,0,1.1-0.2,1.5-0.7s0.7-1,0.7-1.7V81.6z"/>
		<path class="st5" d="M221.6,86.7c-1.1,0-1.9-0.4-2.5-1.2c-0.6-0.8-0.9-1.8-0.9-3c0-1.3,0.3-2.3,1-3c0.7-0.8,1.5-1.1,2.5-1.1
			c1.1,0,1.9,0.4,2.6,1.2c0.6,0.8,0.9,1.8,0.9,3c0,1.2-0.3,2.2-1,3C223.5,86.3,222.6,86.7,221.6,86.7z M221.6,85.7
			c0.6,0,1.1-0.3,1.6-0.8s0.6-1.3,0.6-2.4c0-1.1-0.2-1.9-0.7-2.4c-0.4-0.5-1-0.7-1.6-0.7c-0.6,0-1.1,0.2-1.5,0.7s-0.6,1.3-0.6,2.4
			c0,1.1,0.2,2,0.6,2.4S221,85.7,221.6,85.7z"/>
	</g>
	<g class="st4">
		<path class="st5" d="M237.6,86.5h-1.7c-0.2-0.5-0.2-1-0.3-1.6c-0.5,1.2-1.4,1.8-2.7,1.8c-0.8,0-1.4-0.2-1.9-0.7s-0.7-1-0.7-1.7
			c0-1.8,1.6-2.7,4.8-2.7c0.1,0,0.3,0,0.5,0v-0.6c0-0.8-0.6-1.2-1.7-1.2c-1.1,0-1.7,0.4-1.8,1.2l-1.5-0.2c0.1-0.7,0.4-1.2,1-1.6
			s1.5-0.6,2.6-0.6c0.6,0,1.1,0.1,1.5,0.2s0.7,0.3,1,0.5s0.4,0.5,0.6,0.8s0.2,0.8,0.2,1.4v3.6C237.4,85.4,237.5,85.9,237.6,86.5z
			 M235.7,82.4c-2.3,0-3.5,0.5-3.5,1.6c0,0.3,0.1,0.6,0.3,0.8s0.6,0.3,1.1,0.3c0.7,0,1.2-0.2,1.5-0.6s0.5-0.9,0.5-1.5V82.4z"/>
		<path class="st5" d="M246,86.5h-1.7v-1.6c-0.5,1.2-1.2,1.8-2.3,1.8c-1,0-1.7-0.4-2.2-1.2s-0.8-1.8-0.8-3c0-1.1,0.3-2.1,0.8-2.9
			s1.3-1.2,2.3-1.2c1,0,1.7,0.5,2.1,1.4v-3.8h1.8V86.5z M244.2,81.8c0-0.6-0.2-1.1-0.5-1.5s-0.7-0.5-1.2-0.5c-0.5,0-0.9,0.2-1.2,0.7
			s-0.4,1.1-0.4,2.1c0,1.8,0.6,2.6,1.7,2.6c0.4,0,0.8-0.2,1.2-0.6s0.5-0.9,0.5-1.4V81.8z"/>
		<path class="st5" d="M253.2,83.9l1.6,0.2c-0.2,0.7-0.6,1.3-1.2,1.8s-1.4,0.7-2.3,0.7c-1.1,0-2-0.4-2.6-1.1s-1-1.7-1-3
			c0-1.2,0.3-2.2,1-3s1.6-1.2,2.7-1.2c1.1,0,2,0.4,2.6,1.2s0.9,1.8,0.9,3l0,0.2h-5.4c0,0.5,0.1,1,0.2,1.3s0.3,0.6,0.6,0.8
			s0.7,0.4,1.1,0.4C252.3,85.2,252.9,84.8,253.2,83.9z M253.1,81.6c0-0.6-0.2-1-0.5-1.4s-0.8-0.5-1.2-0.5c-0.5,0-0.9,0.2-1.2,0.5
			s-0.5,0.8-0.6,1.4H253.1z"/>
		<path class="st5" d="M261.1,83.6l1.5,0.2c-0.2,1-0.6,1.7-1.1,2.2s-1.3,0.7-2.1,0.7c-1.1,0-1.9-0.4-2.5-1.2s-0.9-1.8-0.9-2.9
			c0-1.2,0.3-2.2,1-2.9s1.5-1.2,2.6-1.2c1.7,0,2.7,0.9,3.1,2.7l-1.5,0.2c-0.1-1-0.6-1.5-1.4-1.5c-0.6,0-1,0.3-1.3,0.8
			s-0.4,1.2-0.4,1.9c0,0.8,0.1,1.4,0.4,1.8s0.7,0.6,1.2,0.6C260.3,85.1,260.8,84.6,261.1,83.6z"/>
		<path class="st5" d="M270.5,86.5h-1.7v-1.7c-0.4,1.2-1.3,1.9-2.5,1.9c-0.7,0-1.3-0.2-1.7-0.7s-0.6-1.1-0.6-1.9v-5.5h1.8v5.1
			c0,0.6,0.1,0.9,0.4,1.1s0.5,0.3,0.7,0.3c0.4,0,0.8-0.2,1.2-0.5s0.6-1.1,0.6-2.2v-3.8h1.8V86.5z"/>
		<path class="st5" d="M279.4,86.5h-1.7c-0.2-0.5-0.2-1-0.3-1.6c-0.5,1.2-1.4,1.8-2.7,1.8c-0.8,0-1.4-0.2-1.9-0.7s-0.7-1-0.7-1.7
			c0-1.8,1.6-2.7,4.8-2.7c0.1,0,0.3,0,0.5,0v-0.6c0-0.8-0.6-1.2-1.7-1.2c-1.1,0-1.7,0.4-1.8,1.2l-1.5-0.2c0.1-0.7,0.4-1.2,1-1.6
			s1.5-0.6,2.6-0.6c0.6,0,1.1,0.1,1.5,0.2s0.7,0.3,1,0.5s0.4,0.5,0.6,0.8s0.2,0.8,0.2,1.4v3.6C279.1,85.4,279.2,85.9,279.4,86.5z
			 M277.4,82.4c-2.3,0-3.5,0.5-3.5,1.6c0,0.3,0.1,0.6,0.3,0.8s0.6,0.3,1.1,0.3c0.7,0,1.2-0.2,1.5-0.6s0.5-0.9,0.5-1.5V82.4z"/>
		<path class="st5" d="M287.8,86.5h-1.7v-1.6c-0.5,1.2-1.2,1.8-2.3,1.8c-1,0-1.7-0.4-2.2-1.2s-0.8-1.8-0.8-3c0-1.1,0.3-2.1,0.8-2.9
			s1.3-1.2,2.3-1.2c1,0,1.7,0.5,2.1,1.4v-3.8h1.8V86.5z M286,81.8c0-0.6-0.2-1.1-0.5-1.5s-0.7-0.5-1.2-0.5c-0.5,0-0.9,0.2-1.2,0.7
			s-0.4,1.1-0.4,2.1c0,1.8,0.6,2.6,1.7,2.6c0.4,0,0.8-0.2,1.2-0.6s0.5-0.9,0.5-1.4V81.8z"/>
		<path class="st5" d="M296.6,86.5h-1.7c-0.2-0.5-0.2-1-0.3-1.6c-0.5,1.2-1.4,1.8-2.7,1.8c-0.8,0-1.4-0.2-1.9-0.7s-0.7-1-0.7-1.7
			c0-1.8,1.6-2.7,4.8-2.7c0.1,0,0.3,0,0.5,0v-0.6c0-0.8-0.6-1.2-1.7-1.2c-1.1,0-1.7,0.4-1.8,1.2l-1.5-0.2c0.1-0.7,0.4-1.2,1-1.6
			s1.5-0.6,2.6-0.6c0.6,0,1.1,0.1,1.5,0.2s0.7,0.3,1,0.5s0.4,0.5,0.6,0.8s0.2,0.8,0.2,1.4v3.6C296.4,85.4,296.5,85.9,296.6,86.5z
			 M294.7,82.4c-2.3,0-3.5,0.5-3.5,1.6c0,0.3,0.1,0.6,0.3,0.8s0.6,0.3,1.1,0.3c0.7,0,1.2-0.2,1.5-0.6s0.5-0.9,0.5-1.5V82.4z"/>
	</g>
	<g class="st4">
		<path class="st5" d="M238.4,208.3h-1.3v-9.3l-3.5,9.3h-0.9l-3.5-9.3v9.3h-1.1v-10.7h2l3.2,8.5l3.1-8.5h2V208.3z"/>
	</g>
	<g class="st4">
		<path class="st5" d="M243.8,208.5c-1.1,0-1.9-0.4-2.5-1.2c-0.6-0.8-0.9-1.8-0.9-3c0-1.3,0.3-2.3,1-3c0.7-0.8,1.5-1.1,2.5-1.1
			c1.1,0,1.9,0.4,2.6,1.2c0.6,0.8,0.9,1.8,0.9,3c0,1.2-0.3,2.2-1,3C245.8,208.1,244.9,208.5,243.8,208.5z M243.9,207.5
			c0.6,0,1.1-0.3,1.6-0.8s0.6-1.3,0.6-2.4c0-1.1-0.2-1.9-0.7-2.4c-0.4-0.5-1-0.7-1.6-0.7c-0.6,0-1.1,0.2-1.5,0.7s-0.6,1.3-0.6,2.4
			c0,1.1,0.2,2,0.6,2.4S243.3,207.5,243.9,207.5z"/>
	</g>
	<g class="st4">
		<path class="st5" d="M252.7,207.4v1c-0.4,0.1-0.8,0.1-1.1,0.1c-1.5,0-2.3-0.8-2.3-2.4v-4.8h-1.4v-1h1.4l0.1-2l1.1-0.1v2.1h1.8v1
			h-1.8v5c0,0.8,0.4,1.2,1.3,1.2C252.1,207.5,252.4,207.5,252.7,207.4z"/>
		<path class="st5" d="M255.4,197.6v1.4H254v-1.4H255.4z M255.3,200.4v7.9h-1.2v-7.9H255.3z"/>
	</g>
	<g class="st4">
		<path class="st5" d="M263.5,200.4l-2.7,7.9h-1.3l-2.8-7.9h1.4l2.2,6.4l2.2-6.4H263.5z"/>
	</g>
	<g class="st4">
		<path class="st5" d="M267.6,208.5c-1.1,0-1.9-0.4-2.5-1.2s-0.9-1.8-0.9-3c0-1.3,0.3-2.3,1-3s1.5-1.1,2.5-1.1
			c1.1,0,1.9,0.4,2.6,1.2s0.9,1.8,0.9,3c0,1.2-0.3,2.2-1,3S268.6,208.5,267.6,208.5z M267.7,207.5c0.6,0,1.1-0.3,1.6-0.8
			s0.6-1.3,0.6-2.4c0-1.1-0.2-1.9-0.7-2.4s-1-0.7-1.6-0.7c-0.6,0-1.1,0.2-1.5,0.7s-0.6,1.3-0.6,2.4c0,1.1,0.2,2,0.6,2.4
			S267,207.5,267.7,207.5z"/>
		<path class="st5" d="M272,206.2l1.2-0.2c0.3,1,1.1,1.5,2.5,1.5c0.5,0,0.9-0.1,1.3-0.3c0.4-0.2,0.5-0.6,0.5-1c0-0.6-0.5-1-1.4-1.2
			l-1.7-0.3c-0.7-0.1-1.2-0.4-1.6-0.7s-0.6-0.8-0.6-1.4c0-0.7,0.3-1.2,0.8-1.7s1.2-0.7,2.1-0.7c1.7,0,2.8,0.7,3.2,2l-1.1,0.2
			c-0.3-0.8-1-1.2-2-1.2c-0.5,0-0.9,0.1-1.2,0.3c-0.3,0.2-0.5,0.5-0.5,0.9c0,0.6,0.4,0.9,1.2,1.1l1.5,0.3c1.6,0.3,2.4,1.1,2.4,2.3
			c0,0.7-0.3,1.3-0.9,1.8s-1.4,0.7-2.4,0.7C273.6,208.5,272.4,207.7,272,206.2z"/>
	</g>
	<g class="st4">
		<path class="st5" d="M289.3,205.7l1.6,0.2c-0.2,0.7-0.6,1.3-1.2,1.8c-0.6,0.5-1.4,0.7-2.3,0.7c-1.1,0-2-0.4-2.6-1.1
			c-0.7-0.7-1-1.7-1-3c0-1.2,0.3-2.2,1-3s1.6-1.2,2.7-1.2c1.1,0,2,0.4,2.6,1.2c0.6,0.8,0.9,1.8,0.9,3l0,0.2h-5.4
			c0,0.5,0.1,1,0.2,1.3s0.3,0.6,0.6,0.8c0.3,0.2,0.7,0.4,1.1,0.4C288.4,207,289,206.6,289.3,205.7z M289.2,203.4
			c0-0.6-0.2-1-0.5-1.4s-0.8-0.5-1.2-0.5c-0.5,0-0.9,0.2-1.2,0.5s-0.5,0.8-0.6,1.4H289.2z"/>
		<path class="st5" d="M297.3,205.4l1.5,0.2c-0.2,1-0.6,1.7-1.1,2.2c-0.6,0.5-1.3,0.7-2.1,0.7c-1.1,0-1.9-0.4-2.5-1.2
			s-0.9-1.8-0.9-2.9c0-1.2,0.3-2.2,1-2.9s1.5-1.2,2.6-1.2c1.7,0,2.7,0.9,3.1,2.7l-1.5,0.2c-0.1-1-0.6-1.5-1.4-1.5
			c-0.6,0-1,0.3-1.3,0.8s-0.4,1.2-0.4,1.9c0,0.8,0.1,1.4,0.4,1.8c0.3,0.4,0.7,0.6,1.2,0.6C296.5,206.9,297,206.4,297.3,205.4z"/>
		<path class="st5" d="M303.2,208.4c-1.2,0-2.1-0.4-2.7-1.3c-0.6-0.8-0.9-1.8-0.9-2.9c0-1.2,0.3-2.1,1-2.9s1.6-1.2,2.7-1.2
			c1.1,0,1.9,0.4,2.6,1.1s1,1.7,1,2.9c0,1.2-0.4,2.2-1.1,3C305.2,208,304.3,208.4,303.2,208.4z M303.3,207c1.2,0,1.8-0.9,1.8-2.7
			c0-0.8-0.1-1.4-0.4-1.9c-0.3-0.5-0.7-0.7-1.3-0.7c-0.6,0-1.1,0.2-1.4,0.7s-0.4,1.1-0.4,1.9c0,0.9,0.2,1.5,0.5,2
			C302.3,206.7,302.8,207,303.3,207z"/>
		<path class="st5" d="M315.1,208.3h-1.8v-4.9c0-0.5-0.1-0.9-0.4-1.2c-0.2-0.3-0.5-0.4-0.9-0.4c-0.5,0-0.9,0.2-1.2,0.6
			c-0.3,0.4-0.5,1-0.5,1.8v4.1h-1.8v-7.9h1.6v1.8c0.6-1.3,1.4-2,2.4-2c0.7,0,1.3,0.2,1.8,0.7s0.7,1.2,0.7,2.3V208.3z"/>
		<path class="st5" d="M320.4,208.4c-1.2,0-2.1-0.4-2.7-1.3c-0.6-0.8-0.9-1.8-0.9-2.9c0-1.2,0.3-2.1,1-2.9s1.6-1.2,2.7-1.2
			c1.1,0,1.9,0.4,2.6,1.1s1,1.7,1,2.9c0,1.2-0.4,2.2-1.1,3C322.3,208,321.4,208.4,320.4,208.4z M320.4,207c1.2,0,1.8-0.9,1.8-2.7
			c0-0.8-0.1-1.4-0.4-1.9c-0.3-0.5-0.7-0.7-1.3-0.7c-0.6,0-1.1,0.2-1.4,0.7s-0.4,1.1-0.4,1.9c0,0.9,0.2,1.5,0.5,2
			C319.4,206.7,319.9,207,320.4,207z M322.4,196.6l0.5,1.2l-3.3,1.4l-0.3-0.8L322.4,196.6z"/>
		<path class="st5" d="M337.5,208.3h-1.9v-4.9c0-1-0.5-1.5-1.4-1.5c-0.5,0-0.9,0.2-1.3,0.6c-0.3,0.4-0.5,1-0.5,1.7v4.1h-1.9v-4.9
			c0-1-0.4-1.6-1.3-1.6c-0.5,0-0.9,0.2-1.3,0.6s-0.5,1-0.5,1.7v4.1h-1.8v-7.9h1.7v1.7c0.6-1.2,1.4-1.8,2.6-1.8
			c1.2,0,1.9,0.6,2.3,1.8c0.6-1.2,1.5-1.8,2.6-1.8c0.8,0,1.4,0.2,1.8,0.7c0.5,0.5,0.7,1.1,0.7,1.8V208.3z"/>
		<path class="st5" d="M341.4,199.4h-1.8v-1.9h1.8V199.4z M341.4,208.3h-1.8v-7.9h1.8V208.3z"/>
		<path class="st5" d="M348.1,205.4l1.5,0.2c-0.2,1-0.6,1.7-1.1,2.2c-0.6,0.5-1.3,0.7-2.1,0.7c-1.1,0-1.9-0.4-2.5-1.2
			s-0.9-1.8-0.9-2.9c0-1.2,0.3-2.2,1-2.9s1.5-1.2,2.6-1.2c1.7,0,2.7,0.9,3.1,2.7l-1.5,0.2c-0.1-1-0.6-1.5-1.4-1.5
			c-0.6,0-1,0.3-1.3,0.8s-0.4,1.2-0.4,1.9c0,0.8,0.1,1.4,0.4,1.8c0.3,0.4,0.7,0.6,1.2,0.6C347.4,206.9,347.9,206.4,348.1,205.4z"/>
		<path class="st5" d="M354.1,208.4c-1.2,0-2.1-0.4-2.7-1.3c-0.6-0.8-0.9-1.8-0.9-2.9c0-1.2,0.3-2.1,1-2.9s1.6-1.2,2.7-1.2
			c1.1,0,1.9,0.4,2.6,1.1s1,1.7,1,2.9c0,1.2-0.4,2.2-1.1,3C356.1,208,355.2,208.4,354.1,208.4z M354.2,207c1.2,0,1.8-0.9,1.8-2.7
			c0-0.8-0.1-1.4-0.4-1.9c-0.3-0.5-0.7-0.7-1.3-0.7c-0.6,0-1.1,0.2-1.4,0.7s-0.4,1.1-0.4,1.9c0,0.9,0.2,1.5,0.5,2
			C353.2,206.7,353.6,207,354.2,207z"/>
		<path class="st5" d="M358.5,206.4l1.7-0.3c0.3,0.6,0.8,1,1.7,1c1.1,0,1.7-0.3,1.7-1c0-0.2-0.1-0.4-0.3-0.5s-0.4-0.2-0.6-0.3
			l-1.4-0.3c-1.6-0.3-2.4-1.1-2.4-2.3c0-0.7,0.3-1.3,0.8-1.8c0.5-0.5,1.3-0.7,2.3-0.7c1.7,0,2.7,0.6,3.1,1.8l-1.6,0.3
			c-0.2-0.6-0.6-0.9-1.4-0.9c-0.9,0-1.4,0.3-1.4,0.9c0,0.4,0.4,0.7,1.1,0.9l1.7,0.4c1.3,0.3,2,1,2,2.3c0,0.9-0.3,1.5-1,1.9
			c-0.7,0.4-1.5,0.6-2.4,0.6c-0.8,0-1.5-0.2-2.1-0.5C359.1,207.6,358.7,207.1,358.5,206.4z"/>
	</g>
	<g class="st4">
		<path class="st5" d="M266.6,240.3h-1.3v-10.7h3.8c1.2,0,2.1,0.3,2.6,1s0.8,1.4,0.8,2.2c0,0.9-0.3,1.7-0.9,2.3
			c-0.6,0.6-1.4,0.9-2.4,0.9h-2.6V240.3z M266.6,234.8h2.5c0.6,0,1.1-0.2,1.5-0.6c0.4-0.4,0.6-0.9,0.6-1.5c0-0.5-0.2-1-0.5-1.4
			s-0.8-0.6-1.5-0.6h-2.5V234.8z"/>
	</g>
	<g class="st4">
		<path class="st5" d="M275.3,240.3h-1.2v-7.9h1.1v1.8c0.4-0.9,0.8-1.4,1.1-1.7s0.8-0.4,1.2-0.4c0.1,0,0.3,0,0.5,0v1.2h-0.3
			c-0.7,0-1.2,0.3-1.7,0.8s-0.7,1.2-0.7,2V240.3z"/>
	</g>
	<g class="st4">
		<path class="st5" d="M281.9,240.5c-1.1,0-1.9-0.4-2.5-1.2c-0.6-0.8-0.9-1.8-0.9-3c0-1.3,0.3-2.3,1-3c0.7-0.8,1.5-1.1,2.5-1.1
			c1.1,0,1.9,0.4,2.6,1.2c0.6,0.8,0.9,1.8,0.9,3c0,1.2-0.3,2.2-1,3C283.9,240.1,283,240.5,281.9,240.5z M282,239.5
			c0.6,0,1.1-0.3,1.6-0.8s0.6-1.3,0.6-2.4c0-1.1-0.2-1.9-0.7-2.4c-0.4-0.5-1-0.7-1.6-0.7c-0.6,0-1.1,0.2-1.5,0.7s-0.6,1.3-0.6,2.4
			c0,1.1,0.2,2,0.6,2.4S281.4,239.5,282,239.5z"/>
		<path class="st5" d="M288,240.3h-0.6v-10.7h1.2v4.1c0.6-1,1.3-1.5,2.3-1.5c0.9,0,1.7,0.4,2.3,1.1c0.6,0.7,0.9,1.8,0.9,3.1
			c0,1.2-0.3,2.2-0.9,3s-1.4,1.2-2.3,1.2c-1.1,0-1.9-0.5-2.5-1.5L288,240.3z M288.6,237.2c0.1,0.8,0.3,1.4,0.7,1.8
			c0.4,0.4,0.9,0.5,1.4,0.5c0.6,0,1.1-0.3,1.5-0.8c0.4-0.5,0.6-1.3,0.6-2.2c0-1-0.2-1.8-0.6-2.4c-0.4-0.6-0.9-0.9-1.5-0.9
			c-0.5,0-1,0.2-1.4,0.6s-0.7,0.9-0.7,1.6V237.2z"/>
		<path class="st5" d="M297.2,240.3H296v-10.7h1.2V240.3z"/>
		<path class="st5" d="M304.9,237.9l1.1,0.2c-0.2,0.7-0.6,1.2-1.2,1.7c-0.6,0.4-1.3,0.7-2.1,0.7c-1.1,0-2-0.4-2.6-1.1
			c-0.7-0.8-1-1.8-1-3c0-1.3,0.3-2.3,1-3c0.7-0.8,1.6-1.2,2.6-1.2c1,0,1.9,0.4,2.5,1.1c0.6,0.7,0.9,1.8,1,3.2h-5.7
			c0,1.2,0.3,2,0.8,2.4s1,0.6,1.6,0.6C303.8,239.5,304.5,238.9,304.9,237.9z M304.8,235.5c0-0.4-0.1-0.8-0.2-1.2
			c-0.1-0.3-0.4-0.6-0.7-0.9c-0.3-0.2-0.7-0.4-1.2-0.4c-0.6,0-1.1,0.2-1.6,0.7c-0.4,0.4-0.7,1-0.7,1.8H304.8z"/>
		<path class="st5" d="M318.6,240.3h-1.2v-4.9c0-0.5,0-0.9-0.1-1.1s-0.2-0.5-0.5-0.7c-0.3-0.2-0.6-0.3-0.9-0.3
			c-0.5,0-0.9,0.2-1.4,0.6c-0.4,0.4-0.7,1.1-0.7,2v4.4h-1.2v-5.2c0-0.7-0.2-1.2-0.5-1.5c-0.3-0.3-0.7-0.4-1-0.4
			c-0.5,0-1,0.2-1.4,0.7c-0.4,0.4-0.6,1-0.6,1.7v4.7H308v-7.9h1.1v1.5c0.6-1.2,1.4-1.7,2.4-1.7c0.6,0,1,0.2,1.4,0.6
			c0.4,0.4,0.7,0.8,0.8,1.3c0.5-1.3,1.4-1.9,2.5-1.9c0.5,0,1,0.2,1.4,0.5c0.4,0.3,0.7,0.7,0.8,1.1c0.1,0.4,0.2,1,0.2,1.7V240.3z"/>
		<path class="st5" d="M327.2,240.3H326c0-0.3-0.1-0.7-0.1-1.4c-0.5,1.1-1.5,1.6-2.8,1.6c-0.9,0-1.6-0.2-2-0.7
			c-0.5-0.5-0.7-1-0.7-1.7c0-0.8,0.3-1.5,1-2c0.7-0.5,1.8-0.8,3.5-0.8c0.2,0,0.6,0,1,0c0-0.6,0-1.1-0.1-1.4
			c-0.1-0.3-0.3-0.5-0.6-0.7s-0.7-0.3-1.2-0.3c-1.2,0-2,0.5-2.2,1.4l-1.1-0.2c0.3-1.5,1.4-2.2,3.5-2.2c1.1,0,1.9,0.2,2.3,0.7
			c0.5,0.5,0.7,1.3,0.7,2.5v3.4C327,239.3,327.1,239.8,327.2,240.3z M325.9,236.3c-0.5,0-0.9,0-1.1,0c-1,0-1.7,0.2-2.3,0.5
			c-0.5,0.3-0.8,0.8-0.8,1.4c0,0.4,0.1,0.7,0.4,1s0.7,0.4,1.3,0.4c0.7,0,1.3-0.3,1.8-0.8s0.7-1.2,0.7-1.9
			C325.9,236.7,325.9,236.5,325.9,236.3z"/>
		<path class="st5" d="M328.4,238.2l1.2-0.2c0.3,1,1.1,1.5,2.5,1.5c0.5,0,0.9-0.1,1.3-0.3c0.4-0.2,0.5-0.6,0.5-1
			c0-0.6-0.5-1-1.4-1.2l-1.7-0.3c-0.7-0.1-1.2-0.4-1.6-0.7c-0.4-0.4-0.6-0.8-0.6-1.4c0-0.7,0.3-1.2,0.8-1.7c0.5-0.4,1.2-0.7,2.1-0.7
			c1.7,0,2.8,0.7,3.2,2l-1.1,0.2c-0.3-0.8-1-1.2-2-1.2c-0.5,0-0.9,0.1-1.2,0.3c-0.3,0.2-0.5,0.5-0.5,0.9c0,0.6,0.4,0.9,1.2,1.1
			l1.5,0.3c1.6,0.3,2.4,1.1,2.4,2.3c0,0.7-0.3,1.3-0.9,1.8c-0.6,0.4-1.4,0.7-2.4,0.7C330,240.5,328.9,239.7,328.4,238.2z"/>
		<path class="st5" d="M347.1,229.6v10.7H346v-1.4c-0.6,1-1.4,1.6-2.5,1.6c-0.9,0-1.7-0.4-2.3-1.2s-0.9-1.8-0.9-2.9
			c0-1.2,0.3-2.2,0.9-3c0.6-0.8,1.4-1.2,2.3-1.2c0.9,0,1.7,0.4,2.3,1.3v-3.9H347.1z M345.9,235.4c0-0.7-0.2-1.2-0.6-1.7
			s-0.9-0.6-1.5-0.6c-0.6,0-1.1,0.3-1.5,0.8c-0.4,0.5-0.6,1.3-0.6,2.3c0,1.1,0.2,1.9,0.5,2.4c0.4,0.6,0.9,0.8,1.5,0.8
			c0.6,0,1.1-0.2,1.5-0.7s0.7-1,0.7-1.7V235.4z"/>
		<path class="st5" d="M354.7,237.9l1.1,0.2c-0.2,0.7-0.6,1.2-1.2,1.7c-0.6,0.4-1.3,0.7-2.1,0.7c-1.1,0-2-0.4-2.6-1.1
			c-0.7-0.8-1-1.8-1-3c0-1.3,0.3-2.3,1-3c0.7-0.8,1.6-1.2,2.6-1.2c1,0,1.9,0.4,2.5,1.1c0.6,0.7,0.9,1.8,1,3.2h-5.7
			c0,1.2,0.3,2,0.8,2.4s1,0.6,1.6,0.6C353.6,239.5,354.3,238.9,354.7,237.9z M354.7,235.5c0-0.4-0.1-0.8-0.2-1.2
			c-0.1-0.3-0.4-0.6-0.7-0.9c-0.3-0.2-0.7-0.4-1.2-0.4c-0.6,0-1.1,0.2-1.6,0.7c-0.4,0.4-0.7,1-0.7,1.8H354.7z"/>
	</g>
	<g class="st4">
		<path class="st5" d="M269.6,256.6l1.5,0.2c-0.2,1-0.6,1.7-1.1,2.2c-0.6,0.5-1.3,0.7-2.1,0.7c-1.1,0-1.9-0.4-2.5-1.2
			s-0.9-1.8-0.9-2.9c0-1.2,0.3-2.2,1-2.9s1.5-1.2,2.6-1.2c1.7,0,2.7,0.9,3.1,2.7l-1.5,0.2c-0.1-1-0.6-1.5-1.4-1.5
			c-0.6,0-1,0.3-1.3,0.8s-0.4,1.2-0.4,1.9c0,0.8,0.1,1.4,0.4,1.8c0.3,0.4,0.7,0.6,1.2,0.6C268.8,258.1,269.3,257.6,269.6,256.6z"/>
		<path class="st5" d="M275.5,259.6c-1.2,0-2.1-0.4-2.7-1.3c-0.6-0.8-0.9-1.8-0.9-2.9c0-1.2,0.3-2.1,1-2.9s1.6-1.2,2.7-1.2
			c1.1,0,1.9,0.4,2.6,1.1s1,1.7,1,2.9c0,1.2-0.4,2.2-1.1,3C277.5,259.2,276.6,259.6,275.5,259.6z M275.6,258.1
			c1.2,0,1.8-0.9,1.8-2.7c0-0.8-0.1-1.4-0.4-1.9c-0.3-0.5-0.7-0.7-1.3-0.7c-0.6,0-1.1,0.2-1.4,0.7s-0.4,1.1-0.4,1.9
			c0,0.9,0.2,1.5,0.5,2C274.6,257.9,275.1,258.1,275.6,258.1z"/>
		<path class="st5" d="M287.5,259.5h-1.8v-4.9c0-0.5-0.1-0.9-0.4-1.2c-0.2-0.3-0.5-0.4-0.9-0.4c-0.5,0-0.9,0.2-1.2,0.6
			c-0.3,0.4-0.5,1-0.5,1.8v4.1h-1.8v-7.9h1.6v1.8c0.6-1.3,1.4-2,2.4-2c0.7,0,1.3,0.2,1.8,0.7s0.7,1.2,0.7,2.3V259.5z"/>
		<path class="st5" d="M294.1,256.6l1.5,0.2c-0.2,1-0.6,1.7-1.1,2.2c-0.6,0.5-1.3,0.7-2.1,0.7c-1.1,0-1.9-0.4-2.5-1.2
			s-0.9-1.8-0.9-2.9c0-1.2,0.3-2.2,1-2.9s1.5-1.2,2.6-1.2c1.7,0,2.7,0.9,3.1,2.7l-1.5,0.2c-0.1-1-0.6-1.5-1.4-1.5
			c-0.6,0-1,0.3-1.3,0.8s-0.4,1.2-0.4,1.9c0,0.8,0.1,1.4,0.4,1.8c0.3,0.4,0.7,0.6,1.2,0.6C293.4,258.1,293.9,257.6,294.1,256.6z"/>
		<path class="st5" d="M298.8,250.6H297v-1.9h1.8V250.6z M298.8,259.5H297v-7.9h1.8V259.5z"/>
		<path class="st5" d="M302.7,259.5h-1.8v-10.7h1.8V259.5z"/>
		<path class="st5" d="M306.6,250.6h-1.8v-1.9h1.8V250.6z M306.6,259.5h-1.8v-7.9h1.8V259.5z"/>
		<path class="st5" d="M315.5,259.5h-1.7c-0.2-0.5-0.2-1-0.3-1.6c-0.5,1.2-1.4,1.8-2.7,1.8c-0.8,0-1.4-0.2-1.9-0.7s-0.7-1-0.7-1.7
			c0-1.8,1.6-2.7,4.8-2.7c0.1,0,0.3,0,0.5,0v-0.6c0-0.8-0.6-1.2-1.7-1.2c-1.1,0-1.7,0.4-1.8,1.2l-1.5-0.2c0.1-0.7,0.4-1.2,1-1.6
			s1.5-0.6,2.6-0.6c0.6,0,1.1,0.1,1.5,0.2c0.4,0.1,0.7,0.3,1,0.5s0.4,0.5,0.6,0.8s0.2,0.8,0.2,1.4v3.6
			C315.3,258.4,315.4,258.9,315.5,259.5z M313.6,255.4c-2.3,0-3.5,0.5-3.5,1.6c0,0.3,0.1,0.6,0.3,0.8c0.2,0.2,0.6,0.3,1.1,0.3
			c0.7,0,1.2-0.2,1.5-0.6c0.3-0.4,0.5-0.9,0.5-1.5V255.4z"/>
		<path class="st5" d="M322,256.6l1.5,0.2c-0.2,1-0.6,1.7-1.1,2.2c-0.6,0.5-1.3,0.7-2.1,0.7c-1.1,0-1.9-0.4-2.5-1.2
			s-0.9-1.8-0.9-2.9c0-1.2,0.3-2.2,1-2.9s1.5-1.2,2.6-1.2c1.7,0,2.7,0.9,3.1,2.7l-1.5,0.2c-0.1-1-0.6-1.5-1.4-1.5
			c-0.6,0-1,0.3-1.3,0.8s-0.4,1.2-0.4,1.9c0,0.8,0.1,1.4,0.4,1.8c0.3,0.4,0.7,0.6,1.2,0.6C321.2,258.1,321.7,257.6,322,256.6z"/>
		<path class="st5" d="M326.7,250.6h-1.8v-1.9h1.8V250.6z M326.7,259.5h-1.8v-7.9h1.8V259.5z"/>
		<path class="st5" d="M331.9,259.6c-1.2,0-2.1-0.4-2.7-1.3c-0.6-0.8-0.9-1.8-0.9-2.9c0-1.2,0.3-2.1,1-2.9s1.6-1.2,2.7-1.2
			c1.1,0,1.9,0.4,2.6,1.1s1,1.7,1,2.9c0,1.2-0.4,2.2-1.1,3C333.9,259.2,333,259.6,331.9,259.6z M331.9,258.1c1.2,0,1.8-0.9,1.8-2.7
			c0-0.8-0.1-1.4-0.4-1.9c-0.3-0.5-0.7-0.7-1.3-0.7c-0.6,0-1.1,0.2-1.4,0.7s-0.4,1.1-0.4,1.9c0,0.9,0.2,1.5,0.5,2
			C331,257.9,331.4,258.1,331.9,258.1z M333.9,247.8l0.5,1.2l-3.3,1.4l-0.3-0.8L333.9,247.8z"/>
		<path class="st5" d="M343.8,259.5H342v-4.9c0-0.5-0.1-0.9-0.4-1.2c-0.2-0.3-0.5-0.4-0.9-0.4c-0.5,0-0.9,0.2-1.2,0.6
			c-0.3,0.4-0.5,1-0.5,1.8v4.1h-1.8v-7.9h1.6v1.8c0.6-1.3,1.4-2,2.4-2c0.7,0,1.3,0.2,1.8,0.7s0.7,1.2,0.7,2.3V259.5z"/>
	</g>
</g>
</svg>
