<?xml version="1.0" encoding="utf-8"?>
<!-- Generator: Adobe Illustrator 24.0.2, SVG Export Plug-In . SVG Version: 6.00 Build 0)  -->
<svg version="1.1" id="Capa_1" xmlns="http://www.w3.org/2000/svg" xmlns:xlink="http://www.w3.org/1999/xlink" x="0px" y="0px"
	 viewBox="0 0 427.3 290.4" style="enable-background:new 0 0 427.3 290.4;" xml:space="preserve">
<style type="text/css">
	
		.st0{opacity:0.5;fill:none;stroke:#DCDCDC;stroke-width:0.53;stroke-linecap:round;stroke-linejoin:round;enable-background:new    ;}
	.st1{opacity:0.2;fill:none;stroke:#FBD59A;stroke-linejoin:round;enable-background:new    ;}
	.st2{fill:none;stroke:#CB7E42;stroke-width:1.5;stroke-linejoin:round;}
	.st3{enable-background:new    ;}
	.st4{fill:#DCDCDC;}
	.st5{fill:#DDDDDD;}
</style>
<title>7b</title>
<g>
	<line class="st0" x1="7.3" y1="267.8" x2="302.2" y2="267.8"/>
	<polyline class="st1" points="41.3,64.8 88.9,176 136.5,252.3 184,260.4 231.6,260.1 279.1,264.8 	"/>
	<polyline class="st1" points="41.3,210.3 88.9,237.8 136.5,254.1 184,252.9 231.6,265.6 279.1,263.8 	"/>
	<polyline class="st2" points="41.3,253.3 88.9,223.9 136.5,195.6 184,194.8 231.6,198.1 279.1,188.7 	"/>
	<polyline class="st1" points="41.3,153 88.9,135.9 136.5,123.4 184,85.8 231.6,66.4 279.1,72.6 	"/>
	<polyline class="st1" points="41.3,266.4 88.9,261.8 136.5,260.6 184,261.5 231.6,243.9 279.1,241.7 	"/>
	<polyline class="st2" points="41.3,262.4 88.9,240.6 136.5,209.6 184,247.8 231.6,256.6 279.1,259.7 	"/>
	<polyline class="st2" points="41.3,260.7 88.9,230 136.5,241.5 184,206.9 231.6,234.1 279.1,229.7 	"/>
	<g class="st3">
		<path class="st4" d="M6.5,96.2H4.8V94H0.7v-1.2l4.1-6.2h1.7v6h1.4V94H6.5V96.2z M5,88.4l-2.6,4.2h2.5V90c0-0.3,0-0.5,0-0.7L5,88.4
			z"/>
		<path class="st4" d="M12.4,96.3c-1.1,0-2-0.4-2.6-1.3c-0.6-0.9-0.9-2-0.9-3.4c0-1.5,0.3-2.7,1-3.6c0.6-0.9,1.5-1.3,2.6-1.3
			c0.8,0,1.4,0.2,2,0.6s0.9,1,1.2,1.8c0.3,0.7,0.4,1.5,0.4,2.1c0,1.1-0.1,2-0.4,2.7c-0.2,0.7-0.6,1.3-1.2,1.7S13.3,96.3,12.4,96.3z
			 M12.4,95c0.5,0,0.8-0.1,1.1-0.4c0.3-0.3,0.5-0.7,0.6-1.2c0.1-0.5,0.2-1.2,0.2-2.2c0-0.8-0.1-1.5-0.4-2.2s-0.7-1-1.5-1
			c-1.3,0-1.9,1.2-1.9,3.5c0,1.1,0.1,1.9,0.4,2.6S11.7,95,12.4,95z"/>
	</g>
	<line class="st0" x1="0.3" y1="99.4" x2="15.2" y2="99.4"/>
	<g class="st3">
		<path class="st4" d="M7.6,4.5L6.2,4.7C5.9,3.9,5.4,3.4,4.6,3.4c-0.8,0-1.3,0.3-1.6,1C2.6,5.1,2.5,5.9,2.5,6.6c0,0.2,0,0.3,0,0.5
			c0.5-0.9,1.3-1.4,2.4-1.4C5.7,5.7,6.5,6,7,6.5c0.6,0.6,0.9,1.3,0.9,2.1c0,0.9-0.3,1.7-0.9,2.3c-0.6,0.6-1.4,0.9-2.4,0.9
			c-1.2,0-2.1-0.4-2.8-1.3c-0.7-0.8-1-2-1-3.5c0-1.4,0.3-2.6,1-3.5s1.6-1.4,2.7-1.4C6.2,2.2,7.2,3,7.6,4.5z M4.6,10.6
			c0.5,0,0.9-0.2,1.3-0.5s0.5-0.8,0.5-1.4c0-0.4-0.2-0.8-0.5-1.2C5.5,7.2,5.1,7,4.5,7C4,7,3.6,7.2,3.2,7.5C2.9,7.9,2.8,8.3,2.8,8.8
			c0,0.5,0.2,0.9,0.5,1.3C3.6,10.4,4,10.6,4.6,10.6z"/>
		<path class="st4" d="M12.4,11.8c-1.1,0-2-0.4-2.6-1.3c-0.6-0.9-0.9-2-0.9-3.4c0-1.5,0.3-2.7,1-3.6c0.6-0.9,1.5-1.3,2.6-1.3
			c0.8,0,1.4,0.2,2,0.6s0.9,1,1.2,1.8C15.9,5.3,16,6,16,6.7c0,1.1-0.1,2-0.4,2.7c-0.2,0.7-0.6,1.3-1.2,1.7S13.3,11.8,12.4,11.8z
			 M12.4,10.5c0.5,0,0.8-0.1,1.1-0.4c0.3-0.3,0.5-0.7,0.6-1.2c0.1-0.5,0.2-1.2,0.2-2.2c0-0.8-0.1-1.5-0.4-2.2s-0.7-1-1.5-1
			c-1.3,0-1.9,1.2-1.9,3.5c0,1.1,0.1,1.9,0.4,2.6S11.7,10.5,12.4,10.5z"/>
	</g>
	<line class="st0" x1="0.3" y1="14.9" x2="15.2" y2="14.9"/>
	<g class="st3">
		<path class="st4" d="M11.8,264.4c-1.1,0-2-0.4-2.6-1.3c-0.6-0.9-0.9-2-0.9-3.4c0-1.5,0.3-2.7,1-3.6c0.6-0.9,1.5-1.3,2.6-1.3
			c0.8,0,1.4,0.2,2,0.6c0.5,0.4,0.9,1,1.2,1.8c0.3,0.7,0.4,1.5,0.4,2.1c0,1.1-0.1,2-0.4,2.7c-0.2,0.7-0.6,1.3-1.2,1.7
			C13.3,264.1,12.6,264.4,11.8,264.4z M11.8,263c0.5,0,0.8-0.1,1.1-0.4c0.3-0.3,0.5-0.7,0.6-1.2c0.1-0.5,0.2-1.2,0.2-2.2
			c0-0.8-0.1-1.5-0.4-2.2s-0.7-1-1.5-1c-1.3,0-1.9,1.2-1.9,3.5c0,1.1,0.1,1.9,0.4,2.6S11.1,263,11.8,263z"/>
	</g>
	<g class="st3">
		<path class="st4" d="M7.7,179.3v1.5H0.8v-1.6l2.8-1.9c0.9-0.6,1.5-1.1,1.8-1.6c0.3-0.5,0.5-0.9,0.5-1.3c0-0.5-0.2-0.8-0.5-1.2
			s-0.7-0.5-1.2-0.5c-1.1,0-1.7,0.6-1.8,1.9l-1.6-0.4c0.1-0.8,0.5-1.5,1.1-2.1c0.6-0.6,1.4-0.9,2.4-0.9c1,0,1.8,0.3,2.4,0.9
			c0.6,0.6,0.9,1.3,0.9,2.2c0,0.8-0.3,1.5-0.8,2.1c-0.5,0.6-1.9,1.6-4,2.8H7.7z"/>
		<path class="st4" d="M12.4,180.9c-1.1,0-2-0.4-2.6-1.3c-0.6-0.9-0.9-2-0.9-3.4c0-1.5,0.3-2.7,1-3.6c0.6-0.9,1.5-1.3,2.6-1.3
			c0.8,0,1.4,0.2,2,0.6c0.5,0.4,0.9,1,1.2,1.8c0.3,0.7,0.4,1.5,0.4,2.1c0,1.1-0.1,2-0.4,2.7c-0.2,0.7-0.6,1.3-1.2,1.7
			C13.9,180.6,13.3,180.9,12.4,180.9z M12.4,179.5c0.5,0,0.8-0.1,1.1-0.4c0.3-0.3,0.5-0.7,0.6-1.2c0.1-0.5,0.2-1.2,0.2-2.2
			c0-0.8-0.1-1.5-0.4-2.2s-0.7-1-1.5-1c-1.3,0-1.9,1.2-1.9,3.5c0,1.1,0.1,1.9,0.4,2.6S11.7,179.5,12.4,179.5z"/>
	</g>
	<line class="st0" x1="0.3" y1="183.9" x2="15.2" y2="183.9"/>
	<g class="st3">
		<path class="st5" d="M36.1,277.8v1.6l-4.3,2.1l4.3,2.1l0,1.6l-6-3v-1.3L36.1,277.8z"/>
		<path class="st5" d="M44.6,284.7v1.5h-6.8v-1.6l2.8-1.9c0.9-0.6,1.5-1.1,1.8-1.6s0.5-0.9,0.5-1.3c0-0.5-0.2-0.8-0.5-1.2
			s-0.7-0.5-1.2-0.5c-1.1,0-1.7,0.7-1.8,1.9l-1.6-0.4c0.1-0.8,0.5-1.5,1.1-2.1s1.4-0.9,2.4-0.9c1,0,1.8,0.3,2.4,0.9
			c0.6,0.6,0.9,1.3,0.9,2.2c0,0.8-0.3,1.5-0.8,2.1c-0.5,0.6-1.9,1.6-4,2.8H44.6z"/>
		<path class="st5" d="M46.9,276.8h5.7l-0.1,1.4h-4.4l-0.3,2.7c0.6-0.7,1.3-1.1,2.2-1.1c0.9,0,1.6,0.3,2.3,0.9
			c0.6,0.6,0.9,1.4,0.9,2.2c0,0.9-0.3,1.7-1,2.3s-1.5,1-2.6,1c-0.9,0-1.7-0.2-2.3-0.6c-0.7-0.4-1.1-1.1-1.3-1.9l1.6-0.2
			c0.3,1,1,1.4,1.9,1.4c0.6,0,1.1-0.2,1.4-0.6c0.3-0.4,0.5-0.8,0.5-1.3c0-0.5-0.2-1-0.5-1.3c-0.3-0.4-0.7-0.5-1.3-0.5
			c-0.8,0-1.4,0.4-1.8,1.1l-1.5-0.3L46.9,276.8z"/>
	</g>
	<g class="st3">
		<path class="st5" d="M75.4,284.7v1.5h-6.8v-1.6l2.8-1.9c0.9-0.6,1.5-1.1,1.8-1.6s0.5-0.9,0.5-1.3c0-0.5-0.2-0.8-0.5-1.2
			s-0.7-0.5-1.2-0.5c-1.1,0-1.7,0.7-1.8,1.9l-1.6-0.4c0.1-0.8,0.5-1.5,1.1-2.1s1.4-0.9,2.4-0.9c1,0,1.8,0.3,2.4,0.9
			c0.6,0.6,0.9,1.3,0.9,2.2c0,0.8-0.3,1.5-0.8,2.1c-0.5,0.6-1.9,1.6-4,2.8H75.4z"/>
		<path class="st5" d="M77.6,276.8h5.7l-0.1,1.4h-4.4l-0.3,2.7c0.6-0.7,1.3-1.1,2.2-1.1c0.9,0,1.6,0.3,2.3,0.9
			c0.6,0.6,0.9,1.4,0.9,2.2c0,0.9-0.3,1.7-1,2.3s-1.5,1-2.6,1c-0.9,0-1.7-0.2-2.3-0.6c-0.7-0.4-1.1-1.1-1.3-1.9l1.6-0.2
			c0.3,1,1,1.4,1.9,1.4c0.6,0,1.1-0.2,1.4-0.6c0.3-0.4,0.5-0.8,0.5-1.3c0-0.5-0.2-1-0.5-1.3c-0.3-0.4-0.7-0.5-1.3-0.5
			c-0.8,0-1.4,0.4-1.8,1.1l-1.5-0.3L77.6,276.8z"/>
		<path class="st5" d="M87.7,282v1.3h-3.4V282H87.7z"/>
		<path class="st5" d="M95,284.7v1.5h-6.8v-1.6l2.8-1.9c0.9-0.6,1.5-1.1,1.8-1.6s0.5-0.9,0.5-1.3c0-0.5-0.2-0.8-0.5-1.2
			s-0.7-0.5-1.2-0.5c-1.1,0-1.7,0.7-1.8,1.9l-1.6-0.4c0.1-0.8,0.5-1.5,1.1-2.1s1.4-0.9,2.4-0.9c1,0,1.8,0.3,2.4,0.9
			c0.6,0.6,0.9,1.3,0.9,2.2c0,0.8-0.3,1.5-0.8,2.1c-0.5,0.6-1.9,1.6-4,2.8H95z"/>
		<path class="st5" d="M96.6,284.5l1.4-0.4c0.4,0.6,0.9,1,1.6,1c0.7,0,1.2-0.3,1.6-1c0.4-0.7,0.6-1.6,0.6-2.7
			c-0.3,0.6-0.7,1-1.1,1.2s-0.8,0.3-1.3,0.3c-0.9,0-1.6-0.3-2.2-0.8c-0.6-0.5-0.9-1.3-0.9-2.2c0-0.9,0.3-1.7,0.9-2.2
			c0.6-0.6,1.4-0.9,2.4-0.9c1.1,0,2,0.4,2.7,1.2c0.7,0.8,1,1.9,1,3.4c0,1.5-0.3,2.7-1,3.7c-0.7,0.9-1.6,1.4-2.8,1.4
			c-0.8,0-1.4-0.2-1.9-0.5C97.1,285.4,96.7,285,96.6,284.5z M99.6,281.4c0.5,0,0.9-0.2,1.3-0.5c0.4-0.3,0.6-0.8,0.6-1.4
			c0-0.4-0.2-0.8-0.5-1.1c-0.3-0.3-0.8-0.5-1.3-0.5c-0.5,0-1,0.2-1.3,0.5s-0.5,0.8-0.5,1.3c0,0.4,0.2,0.8,0.5,1.2
			C98.6,281.3,99,281.4,99.6,281.4z"/>
	</g>
	<g class="st3">
		<path class="st5" d="M121.6,282v-1.3h0.8c0.5,0,0.9-0.1,1.3-0.3c0.3-0.2,0.5-0.6,0.5-1c0-0.4-0.1-0.8-0.4-1
			c-0.3-0.2-0.7-0.3-1.1-0.3c-0.9,0-1.5,0.5-1.9,1.4l-1.5-0.3c0.2-0.7,0.6-1.3,1.2-1.7c0.6-0.5,1.4-0.7,2.2-0.7
			c0.9,0,1.6,0.2,2.2,0.7s0.9,1.1,0.9,1.8c0,0.6-0.2,1-0.5,1.4c-0.3,0.4-0.7,0.6-1.2,0.7c0.6,0.1,1.1,0.3,1.5,0.8
			c0.4,0.4,0.6,0.9,0.6,1.5c0,0.8-0.3,1.5-1,2c-0.6,0.5-1.5,0.8-2.5,0.8c-1,0-1.8-0.3-2.4-0.8c-0.6-0.5-1-1.1-1.2-1.7l1.6-0.4
			c0.3,1,1,1.6,2,1.6c0.5,0,1-0.1,1.3-0.4s0.5-0.6,0.5-1c0-0.4-0.1-0.8-0.4-1.1c-0.3-0.3-0.7-0.5-1.3-0.5H121.6z"/>
		<path class="st5" d="M130.8,286.3c-1.1,0-2-0.4-2.6-1.3c-0.6-0.9-0.9-2-0.9-3.4c0-1.5,0.3-2.7,1-3.6c0.6-0.9,1.5-1.3,2.6-1.3
			c0.8,0,1.4,0.2,2,0.6s0.9,1,1.2,1.8c0.3,0.8,0.4,1.5,0.4,2.1c0,1.1-0.1,2-0.4,2.7c-0.2,0.7-0.6,1.3-1.2,1.7
			S131.6,286.3,130.8,286.3z M130.8,285c0.5,0,0.8-0.1,1.1-0.4c0.3-0.3,0.5-0.7,0.6-1.2c0.1-0.5,0.2-1.2,0.2-2.2
			c0-0.8-0.1-1.5-0.4-2.2c-0.3-0.7-0.7-1-1.5-1c-1.3,0-1.9,1.2-1.9,3.5c0,1.1,0.1,1.9,0.4,2.6C129.6,284.7,130.1,285,130.8,285z"/>
		<path class="st5" d="M138.3,282v1.3h-3.4V282H138.3z"/>
		<path class="st5" d="M141.2,282v-1.3h0.8c0.5,0,0.9-0.1,1.3-0.3c0.3-0.2,0.5-0.6,0.5-1c0-0.4-0.1-0.8-0.4-1
			c-0.3-0.2-0.7-0.3-1.1-0.3c-0.9,0-1.5,0.5-1.9,1.4l-1.5-0.3c0.2-0.7,0.6-1.3,1.2-1.7c0.6-0.5,1.4-0.7,2.2-0.7
			c0.9,0,1.6,0.2,2.2,0.7s0.9,1.1,0.9,1.8c0,0.6-0.2,1-0.5,1.4c-0.3,0.4-0.7,0.6-1.2,0.7c0.6,0.1,1.1,0.3,1.5,0.8
			c0.4,0.4,0.6,0.9,0.6,1.5c0,0.8-0.3,1.5-1,2c-0.6,0.5-1.5,0.8-2.5,0.8c-1,0-1.8-0.3-2.4-0.8c-0.6-0.5-1-1.1-1.2-1.7l1.6-0.4
			c0.3,1,1,1.6,2,1.6c0.5,0,1-0.1,1.3-0.4s0.5-0.6,0.5-1c0-0.4-0.1-0.8-0.4-1.1c-0.3-0.3-0.7-0.5-1.3-0.5H141.2z"/>
		<path class="st5" d="M152.7,286.2h-1.7V284h-4.1v-1.2l4.1-6.2h1.7v6h1.4v1.4h-1.4V286.2z M151.1,278.4l-2.6,4.2h2.5V280
			c0-0.3,0-0.5,0-0.7L151.1,278.4z"/>
	</g>
	<g class="st3">
		<path class="st5" d="M170.2,282v-1.3h0.8c0.5,0,0.9-0.1,1.3-0.3c0.3-0.2,0.5-0.6,0.5-1c0-0.4-0.1-0.8-0.4-1
			c-0.3-0.2-0.7-0.3-1.1-0.3c-0.9,0-1.5,0.5-1.9,1.4l-1.5-0.3c0.2-0.7,0.6-1.3,1.2-1.7c0.6-0.5,1.4-0.7,2.2-0.7
			c0.9,0,1.6,0.2,2.2,0.7s0.9,1.1,0.9,1.8c0,0.6-0.2,1-0.5,1.4c-0.3,0.4-0.7,0.6-1.2,0.7c0.6,0.1,1.1,0.3,1.5,0.8
			c0.4,0.4,0.6,0.9,0.6,1.5c0,0.8-0.3,1.5-1,2c-0.6,0.5-1.5,0.8-2.5,0.8c-1,0-1.8-0.3-2.4-0.8c-0.6-0.5-1-1.1-1.2-1.7l1.6-0.4
			c0.3,1,1,1.6,2,1.6c0.5,0,1-0.1,1.3-0.4s0.5-0.6,0.5-1c0-0.4-0.1-0.8-0.4-1.1c-0.3-0.3-0.7-0.5-1.3-0.5H170.2z"/>
		<path class="st5" d="M176.9,276.8h5.7l-0.1,1.4h-4.4l-0.3,2.7c0.6-0.7,1.3-1.1,2.2-1.1c0.9,0,1.6,0.3,2.3,0.9
			c0.6,0.6,0.9,1.4,0.9,2.2c0,0.9-0.3,1.7-1,2.3s-1.5,1-2.6,1c-0.9,0-1.7-0.2-2.3-0.6c-0.7-0.4-1.1-1.1-1.3-1.9l1.6-0.2
			c0.3,1,1,1.4,1.9,1.4c0.6,0,1.1-0.2,1.4-0.6c0.3-0.4,0.5-0.8,0.5-1.3c0-0.5-0.2-1-0.5-1.3c-0.3-0.4-0.7-0.5-1.3-0.5
			c-0.8,0-1.4,0.4-1.8,1.1l-1.5-0.3L176.9,276.8z"/>
		<path class="st5" d="M186.9,282v1.3h-3.4V282H186.9z"/>
		<path class="st5" d="M189.8,282v-1.3h0.8c0.5,0,0.9-0.1,1.3-0.3c0.3-0.2,0.5-0.6,0.5-1c0-0.4-0.1-0.8-0.4-1
			c-0.3-0.2-0.7-0.3-1.1-0.3c-0.9,0-1.5,0.5-1.9,1.4l-1.5-0.3c0.2-0.7,0.6-1.3,1.2-1.7c0.6-0.5,1.4-0.7,2.2-0.7
			c0.9,0,1.6,0.2,2.2,0.7s0.9,1.1,0.9,1.8c0,0.6-0.2,1-0.5,1.4c-0.3,0.4-0.7,0.6-1.2,0.7c0.6,0.1,1.1,0.3,1.5,0.8
			c0.4,0.4,0.6,0.9,0.6,1.5c0,0.8-0.3,1.5-1,2c-0.6,0.5-1.5,0.8-2.5,0.8c-1,0-1.8-0.3-2.4-0.8c-0.6-0.5-1-1.1-1.2-1.7l1.6-0.4
			c0.3,1,1,1.6,2,1.6c0.5,0,1-0.1,1.3-0.4s0.5-0.6,0.5-1c0-0.4-0.1-0.8-0.4-1.1c-0.3-0.3-0.7-0.5-1.3-0.5H189.8z"/>
		<path class="st5" d="M195.8,284.5l1.4-0.4c0.4,0.6,0.9,1,1.6,1c0.7,0,1.2-0.3,1.6-1c0.4-0.7,0.6-1.6,0.6-2.7
			c-0.3,0.6-0.7,1-1.1,1.2s-0.8,0.3-1.3,0.3c-0.9,0-1.6-0.3-2.2-0.8c-0.6-0.5-0.9-1.3-0.9-2.2c0-0.9,0.3-1.7,0.9-2.2
			c0.6-0.6,1.4-0.9,2.4-0.9c1.1,0,2,0.4,2.7,1.2c0.7,0.8,1,1.9,1,3.4c0,1.5-0.3,2.7-1,3.7c-0.7,0.9-1.6,1.4-2.8,1.4
			c-0.8,0-1.4-0.2-1.9-0.5C196.3,285.4,196,285,195.8,284.5z M198.8,281.4c0.5,0,0.9-0.2,1.3-0.5c0.4-0.3,0.6-0.8,0.6-1.4
			c0-0.4-0.2-0.8-0.5-1.1c-0.3-0.3-0.8-0.5-1.3-0.5c-0.5,0-1,0.2-1.3,0.5s-0.5,0.8-0.5,1.3c0,0.4,0.2,0.8,0.5,1.2
			C197.8,281.3,198.3,281.4,198.8,281.4z"/>
	</g>
	<g class="st3">
		<path class="st5" d="M220.2,286.2h-1.7V284h-4.1v-1.2l4.1-6.2h1.7v6h1.4v1.4h-1.4V286.2z M218.6,278.4l-2.6,4.2h2.5V280
			c0-0.3,0-0.5,0-0.7L218.6,278.4z"/>
		<path class="st5" d="M226.1,286.3c-1.1,0-2-0.4-2.6-1.3c-0.6-0.9-0.9-2-0.9-3.4c0-1.5,0.3-2.7,1-3.6c0.6-0.9,1.5-1.3,2.6-1.3
			c0.8,0,1.4,0.2,2,0.6s0.9,1,1.2,1.8s0.4,1.5,0.4,2.1c0,1.1-0.1,2-0.4,2.7s-0.6,1.3-1.2,1.7S226.9,286.3,226.1,286.3z M226.1,285
			c0.5,0,0.8-0.1,1.1-0.4c0.3-0.3,0.5-0.7,0.6-1.2c0.1-0.5,0.2-1.2,0.2-2.2c0-0.8-0.1-1.5-0.4-2.2c-0.3-0.7-0.7-1-1.5-1
			c-1.3,0-1.9,1.2-1.9,3.5c0,1.1,0.1,1.9,0.4,2.6C224.9,284.7,225.4,285,226.1,285z"/>
		<path class="st5" d="M233.5,282v1.3h-3.4V282H233.5z"/>
		<path class="st5" d="M239.8,286.2h-1.7V284H234v-1.2l4.1-6.2h1.7v6h1.4v1.4h-1.4V286.2z M238.2,278.4l-2.6,4.2h2.5V280
			c0-0.3,0-0.5,0-0.7L238.2,278.4z"/>
		<path class="st5" d="M247.9,286.2h-1.7V284h-4.1v-1.2l4.1-6.2h1.7v6h1.4v1.4h-1.4V286.2z M246.3,278.4l-2.6,4.2h2.5V280
			c0-0.3,0-0.5,0-0.7L246.3,278.4z"/>
	</g>
	<g class="st3">
		<path class="st5" d="M267.8,286.2h-1.7V284H262v-1.2l4.1-6.2h1.7v6h1.4v1.4h-1.4V286.2z M266.2,278.4l-2.6,4.2h2.5V280
			c0-0.3,0-0.5,0-0.7L266.2,278.4z"/>
		<path class="st5" d="M271.1,276.8h5.7l-0.1,1.4h-4.4l-0.3,2.7c0.6-0.7,1.3-1.1,2.2-1.1c0.9,0,1.6,0.3,2.3,0.9
			c0.6,0.6,0.9,1.4,0.9,2.2c0,0.9-0.3,1.7-1,2.3s-1.5,1-2.6,1c-0.9,0-1.7-0.2-2.3-0.6c-0.7-0.4-1.1-1.1-1.3-1.9l1.6-0.2
			c0.3,1,1,1.4,1.9,1.4c0.6,0,1.1-0.2,1.4-0.6c0.3-0.4,0.5-0.8,0.5-1.3c0-0.5-0.2-1-0.5-1.3c-0.3-0.4-0.7-0.5-1.3-0.5
			c-0.8,0-1.4,0.4-1.8,1.1l-1.5-0.3L271.1,276.8z"/>
		<path class="st5" d="M281.2,282v1.3h-3.4V282H281.2z"/>
		<path class="st5" d="M287.4,286.2h-1.7V284h-4.1v-1.2l4.1-6.2h1.7v6h1.4v1.4h-1.4V286.2z M285.8,278.4l-2.6,4.2h2.5V280
			c0-0.3,0-0.5,0-0.7L285.8,278.4z"/>
		<path class="st5" d="M290.1,284.5l1.4-0.4c0.4,0.6,0.9,1,1.6,1c0.7,0,1.2-0.3,1.6-1c0.4-0.7,0.6-1.6,0.6-2.7
			c-0.3,0.6-0.7,1-1.1,1.2s-0.8,0.3-1.3,0.3c-0.9,0-1.6-0.3-2.2-0.8c-0.6-0.5-0.9-1.3-0.9-2.2c0-0.9,0.3-1.7,0.9-2.2
			s1.4-0.9,2.4-0.9c1.1,0,2,0.4,2.7,1.2c0.7,0.8,1,1.9,1,3.4c0,1.5-0.3,2.7-1,3.7s-1.6,1.4-2.8,1.4c-0.8,0-1.4-0.2-1.9-0.5
			C290.6,285.4,290.2,285,290.1,284.5z M293.1,281.4c0.5,0,0.9-0.2,1.3-0.5c0.4-0.3,0.6-0.8,0.6-1.4c0-0.4-0.2-0.8-0.5-1.1
			c-0.3-0.3-0.8-0.5-1.3-0.5c-0.5,0-1,0.2-1.3,0.5s-0.5,0.8-0.5,1.3c0,0.4,0.2,0.8,0.5,1.2C292.1,281.3,292.5,281.4,293.1,281.4z"/>
	</g>
	<g class="st3">
		<path class="st4" d="M214.3,163.3h-1.8l-4-6.8c-0.1-0.1-0.2-0.3-0.3-0.5c-0.1-0.1-0.2-0.3-0.3-0.5v7.8h-1.5v-10.7h2.1l3.7,6.3
			c0,0.1,0.3,0.4,0.7,1.1v-7.4h1.5V163.3z"/>
		<path class="st4" d="M219.6,163.4c-1.2,0-2-0.4-2.6-1.3c-0.6-0.8-0.9-1.8-0.9-2.9c0-1.2,0.3-2.1,1-2.9c0.7-0.8,1.6-1.2,2.7-1.2
			c1,0,1.9,0.4,2.6,1.1c0.7,0.8,1,1.7,1,2.9c0,1.2-0.3,2.2-1,3C221.6,163,220.7,163.4,219.6,163.4z M219.7,162
			c1.2,0,1.8-0.9,1.8-2.7c0-0.8-0.1-1.4-0.4-1.9c-0.3-0.5-0.7-0.7-1.3-0.7c-0.6,0-1.1,0.2-1.4,0.7c-0.3,0.5-0.4,1.1-0.4,1.9
			c0,0.9,0.2,1.5,0.5,2C218.7,161.7,219.1,162,219.7,162z"/>
		<path class="st4" d="M235.4,163.3h-1.8v-5.2c0-0.6-0.1-0.9-0.4-1.2c-0.2-0.2-0.5-0.3-0.8-0.3c-0.5,0-0.9,0.2-1.3,0.6
			c-0.3,0.4-0.5,1.1-0.5,2v4.1h-1.8v-10.7h1.8v4.2c0.4-1.1,1.2-1.7,2.3-1.7c1.6,0,2.4,0.9,2.4,2.8V163.3z"/>
		<path class="st4" d="M244.2,163.3h-1.7c-0.2-0.5-0.2-1-0.3-1.6c-0.5,1.2-1.4,1.8-2.6,1.8c-0.8,0-1.4-0.2-1.9-0.7s-0.7-1-0.7-1.7
			c0-1.8,1.6-2.7,4.7-2.7c0.1,0,0.3,0,0.5,0v-0.6c0-0.8-0.6-1.2-1.7-1.2c-1.1,0-1.7,0.4-1.8,1.2l-1.5-0.2c0.1-0.7,0.4-1.2,1-1.6
			c0.6-0.4,1.4-0.6,2.6-0.6c0.6,0,1.1,0.1,1.5,0.2c0.4,0.1,0.7,0.3,1,0.5c0.3,0.2,0.4,0.5,0.5,0.8c0.1,0.3,0.2,0.8,0.2,1.4v3.6
			C243.9,162.2,244,162.7,244.2,163.3z M242.2,159.2c-2.3,0-3.4,0.5-3.4,1.6c0,0.3,0.1,0.6,0.3,0.8c0.2,0.2,0.6,0.3,1,0.3
			c0.7,0,1.2-0.2,1.5-0.6c0.3-0.4,0.5-0.9,0.5-1.5V159.2z"/>
	</g>
	<g class="st3">
		<path class="st4" d="M253.7,162.4v1c-0.4,0.1-0.8,0.1-1.1,0.1c-1.5,0-2.3-0.8-2.3-2.4v-4.8h-1.4v-1h1.4l0.1-2l1.1-0.1v2.1h1.7v1
			h-1.7v5c0,0.8,0.4,1.2,1.3,1.2C253,162.5,253.3,162.5,253.7,162.4z"/>
	</g>
	<g class="st3">
		<path class="st4" d="M259.8,160.7l1.6,0.2c-0.2,0.7-0.6,1.3-1.2,1.8c-0.6,0.5-1.3,0.7-2.3,0.7c-1.1,0-2-0.4-2.6-1.1s-1-1.7-1-3
			c0-1.2,0.3-2.2,1-3c0.7-0.8,1.6-1.2,2.7-1.2c1.1,0,2,0.4,2.6,1.2c0.6,0.8,0.9,1.8,0.9,3l0,0.2h-5.4c0,0.5,0.1,1,0.2,1.3
			c0.1,0.3,0.3,0.6,0.6,0.8c0.3,0.2,0.7,0.4,1.1,0.4C259,162,259.5,161.6,259.8,160.7z M259.7,158.4c0-0.6-0.2-1-0.5-1.4
			c-0.3-0.4-0.7-0.5-1.2-0.5c-0.5,0-0.9,0.2-1.2,0.5c-0.3,0.3-0.5,0.8-0.6,1.4H259.7z"/>
		<path class="st4" d="M269.7,163.3h-1.8v-4.9c0-0.5-0.1-0.9-0.4-1.2c-0.2-0.3-0.5-0.4-0.9-0.4c-0.5,0-0.9,0.2-1.2,0.6
			s-0.5,1-0.5,1.8v4.1h-1.8v-7.9h1.6v1.8c0.6-1.3,1.4-2,2.4-2c0.7,0,1.3,0.2,1.8,0.7c0.5,0.4,0.7,1.2,0.7,2.3V163.3z"/>
		<path class="st4" d="M273.5,154.4h-1.8v-1.9h1.8V154.4z M273.5,163.3h-1.8v-7.9h1.8V163.3z"/>
		<path class="st4" d="M282.1,163.3h-1.6v-1.6c-0.5,1.2-1.2,1.8-2.3,1.8c-1,0-1.7-0.4-2.2-1.2c-0.5-0.8-0.8-1.8-0.8-3
			c0-1.1,0.3-2.1,0.8-2.9s1.3-1.2,2.3-1.2c1,0,1.7,0.5,2.1,1.4v-3.8h1.8V163.3z M280.3,158.6c0-0.6-0.2-1.1-0.5-1.5
			c-0.3-0.4-0.7-0.5-1.2-0.5c-0.5,0-0.9,0.2-1.2,0.7c-0.3,0.5-0.4,1.1-0.4,2.1c0,1.8,0.5,2.6,1.6,2.6c0.4,0,0.8-0.2,1.1-0.6
			c0.3-0.4,0.5-0.9,0.5-1.4V158.6z"/>
		<path class="st4" d="M287.2,163.4c-1.2,0-2-0.4-2.6-1.3c-0.6-0.8-0.9-1.8-0.9-2.9c0-1.2,0.3-2.1,1-2.9c0.7-0.8,1.6-1.2,2.7-1.2
			c1,0,1.9,0.4,2.6,1.1c0.7,0.8,1,1.7,1,2.9c0,1.2-0.3,2.2-1,3C289.2,163,288.3,163.4,287.2,163.4z M287.3,162
			c1.2,0,1.8-0.9,1.8-2.7c0-0.8-0.1-1.4-0.4-1.9c-0.3-0.5-0.7-0.7-1.3-0.7c-0.6,0-1.1,0.2-1.4,0.7c-0.3,0.5-0.4,1.1-0.4,1.9
			c0,0.9,0.2,1.5,0.5,2C286.3,161.7,286.7,162,287.3,162z"/>
		<path class="st4" d="M298.3,165.9h-1.8v-10.6h1.7v1.4c0.5-1,1.3-1.5,2.4-1.5c0.9,0,1.6,0.4,2.1,1.1c0.5,0.8,0.8,1.7,0.8,2.9
			c0,1.1-0.2,2.1-0.7,2.9s-1.2,1.2-2.2,1.2c-1,0-1.7-0.4-2.2-1.3V165.9z M298.3,160c0,0.6,0.2,1,0.5,1.4c0.3,0.4,0.7,0.6,1.1,0.6
			c0.6,0,1-0.2,1.2-0.7c0.3-0.5,0.4-1.1,0.4-1.9c0-0.8-0.1-1.5-0.4-2c-0.3-0.5-0.7-0.8-1.2-0.8c-0.5,0-0.9,0.2-1.2,0.6
			c-0.3,0.4-0.5,1-0.5,1.6V160z"/>
		<path class="st4" d="M311.7,163.3H310c-0.1-0.5-0.2-1-0.3-1.6c-0.5,1.2-1.4,1.8-2.6,1.8c-0.8,0-1.4-0.2-1.9-0.7
			c-0.5-0.5-0.7-1-0.7-1.7c0-1.8,1.6-2.7,4.7-2.7c0.1,0,0.3,0,0.5,0v-0.6c0-0.8-0.6-1.2-1.7-1.2c-1.1,0-1.7,0.4-1.8,1.2l-1.5-0.2
			c0.1-0.7,0.4-1.2,1-1.6c0.6-0.4,1.4-0.6,2.6-0.6c0.6,0,1.1,0.1,1.5,0.2s0.7,0.3,1,0.5s0.4,0.5,0.5,0.8c0.1,0.3,0.2,0.8,0.2,1.4
			v3.6C311.5,162.2,311.6,162.7,311.7,163.3z M309.8,159.2c-2.3,0-3.4,0.5-3.4,1.6c0,0.3,0.1,0.6,0.3,0.8c0.2,0.2,0.6,0.3,1,0.3
			c0.7,0,1.2-0.2,1.5-0.6s0.5-0.9,0.5-1.5V159.2z"/>
		<path class="st4" d="M315.4,163.3h-1.8v-7.9h1.6v1.9c0.2-0.7,0.5-1.3,0.9-1.6c0.4-0.3,0.8-0.5,1.2-0.5c0.1,0,0.1,0,0.2,0v1.9
			c-0.9,0-1.5,0.3-1.8,0.9c-0.3,0.6-0.4,1.1-0.4,1.7V163.3z"/>
		<path class="st4" d="M323.8,160.7l1.6,0.2c-0.2,0.7-0.6,1.3-1.2,1.8c-0.6,0.5-1.3,0.7-2.3,0.7c-1.1,0-2-0.4-2.6-1.1s-1-1.7-1-3
			c0-1.2,0.3-2.2,1-3c0.7-0.8,1.6-1.2,2.7-1.2c1.1,0,2,0.4,2.6,1.2c0.6,0.8,0.9,1.8,0.9,3l0,0.2h-5.4c0,0.5,0.1,1,0.2,1.3
			c0.1,0.3,0.3,0.6,0.6,0.8c0.3,0.2,0.7,0.4,1.1,0.4C322.9,162,323.5,161.6,323.8,160.7z M323.7,158.4c0-0.6-0.2-1-0.5-1.4
			c-0.3-0.4-0.7-0.5-1.2-0.5c-0.5,0-0.9,0.2-1.2,0.5c-0.3,0.3-0.5,0.8-0.6,1.4H323.7z"/>
		<path class="st4" d="M328.9,155.4v7.8c0,2-0.9,3-2.7,3c-0.3,0-0.6,0-0.9-0.1v-1.5c0.2,0,0.4,0,0.6,0c0.5,0,0.8-0.1,1-0.3
			s0.3-0.6,0.3-1.1v-7.8H328.9z M328.9,154.4h-1.8v-1.9h1.8V154.4z"/>
		<path class="st4" d="M337.7,163.3H336c-0.2-0.5-0.2-1-0.3-1.6c-0.5,1.2-1.4,1.8-2.6,1.8c-0.8,0-1.4-0.2-1.9-0.7
			c-0.5-0.5-0.7-1-0.7-1.7c0-1.8,1.6-2.7,4.7-2.7c0.1,0,0.3,0,0.5,0v-0.6c0-0.8-0.6-1.2-1.7-1.2c-1.1,0-1.7,0.4-1.8,1.2l-1.5-0.2
			c0.1-0.7,0.4-1.2,1-1.6c0.6-0.4,1.4-0.6,2.6-0.6c0.6,0,1.1,0.1,1.5,0.2c0.4,0.1,0.7,0.3,1,0.5s0.4,0.5,0.5,0.8
			c0.1,0.3,0.2,0.8,0.2,1.4v3.6C337.5,162.2,337.6,162.7,337.7,163.3z M335.8,159.2c-2.3,0-3.4,0.5-3.4,1.6c0,0.3,0.1,0.6,0.3,0.8
			c0.2,0.2,0.6,0.3,1,0.3c0.7,0,1.2-0.2,1.5-0.6c0.3-0.4,0.5-0.9,0.5-1.5V159.2z"/>
	</g>
	<g class="st3">
		<path class="st4" d="M346.5,163.5c-1.1,0-1.9-0.4-2.5-1.2c-0.6-0.8-0.9-1.8-0.9-3c0-1.3,0.3-2.3,1-3s1.5-1.1,2.5-1.1
			c1.1,0,1.9,0.4,2.5,1.2s0.9,1.8,0.9,3c0,1.2-0.3,2.2-1,3C348.4,163.1,347.6,163.5,346.5,163.5z M346.6,162.5
			c0.6,0,1.1-0.3,1.6-0.8c0.4-0.5,0.6-1.3,0.6-2.4c0-1.1-0.2-1.9-0.7-2.4s-1-0.7-1.5-0.7c-0.6,0-1.1,0.2-1.5,0.7
			c-0.4,0.5-0.6,1.3-0.6,2.4c0,1.1,0.2,2,0.6,2.4C345.5,162.2,346,162.5,346.6,162.5z"/>
	</g>
	<g class="st3">
		<path class="st4" d="M212.6,182.5h-1.1v-5.1c0-0.7-0.2-1.2-0.5-1.5s-0.7-0.4-1.1-0.4c-0.6,0-1.1,0.3-1.6,0.8
			c-0.4,0.5-0.6,1.2-0.6,2v4.3h-1.2v-7.9h1.1v1.5c0.6-1.1,1.5-1.7,2.5-1.7c0.6,0,1.1,0.2,1.5,0.5c0.4,0.3,0.7,0.6,0.8,1
			c0.2,0.4,0.2,1.1,0.2,2.1V182.5z"/>
		<path class="st4" d="M217.8,182.7c-1.1,0-1.9-0.4-2.5-1.2c-0.6-0.8-0.9-1.8-0.9-3c0-1.3,0.3-2.3,1-3c0.7-0.8,1.5-1.1,2.5-1.1
			c1.1,0,1.9,0.4,2.5,1.2c0.6,0.8,0.9,1.8,0.9,3c0,1.2-0.3,2.2-1,3C219.7,182.3,218.9,182.7,217.8,182.7z M217.9,181.7
			c0.6,0,1.1-0.3,1.6-0.8c0.4-0.5,0.6-1.3,0.6-2.4c0-1.1-0.2-1.9-0.7-2.4c-0.4-0.5-1-0.7-1.5-0.7c-0.6,0-1.1,0.2-1.5,0.7
			c-0.4,0.5-0.6,1.3-0.6,2.4c0,1.1,0.2,2,0.6,2.4C216.8,181.4,217.3,181.7,217.9,181.7z"/>
		<path class="st4" d="M233.3,182.5h-1.2v-4.8c0-0.6,0-1-0.1-1.3c-0.1-0.3-0.2-0.5-0.5-0.7s-0.6-0.3-0.9-0.3c-0.6,0-1.1,0.3-1.6,0.8
			s-0.6,1.2-0.6,2.1v4.3h-1.2v-10.7h1.2v4.2c0.6-1.1,1.3-1.7,2.4-1.7c0.5,0,0.9,0.1,1.2,0.3c0.4,0.2,0.6,0.4,0.8,0.7
			s0.3,0.6,0.4,0.9s0.1,0.8,0.1,1.4V182.5z"/>
		<path class="st4" d="M241.9,182.5h-1.2c0-0.3-0.1-0.7-0.1-1.4c-0.5,1.1-1.4,1.6-2.7,1.6c-0.9,0-1.5-0.2-2-0.7
			c-0.5-0.5-0.7-1-0.7-1.7c0-0.8,0.3-1.5,1-2c0.7-0.5,1.8-0.8,3.4-0.8c0.2,0,0.6,0,1,0c0-0.6,0-1.1-0.1-1.4s-0.3-0.5-0.6-0.7
			c-0.3-0.2-0.7-0.3-1.2-0.3c-1.2,0-1.9,0.5-2.2,1.4l-1.1-0.2c0.3-1.5,1.4-2.2,3.4-2.2c1.1,0,1.8,0.2,2.3,0.7s0.7,1.3,0.7,2.5v3.4
			C241.7,181.5,241.7,182,241.9,182.5z M240.5,178.5c-0.5,0-0.9,0-1.1,0c-1,0-1.7,0.2-2.2,0.5s-0.8,0.8-0.8,1.4c0,0.4,0.1,0.7,0.4,1
			s0.7,0.4,1.2,0.4c0.7,0,1.3-0.3,1.8-0.8c0.5-0.5,0.7-1.2,0.7-1.9C240.5,178.9,240.5,178.7,240.5,178.5z"/>
		<path class="st4" d="M247,180.4l1.2-0.2c0.3,1,1.1,1.5,2.4,1.5c0.5,0,0.9-0.1,1.3-0.3c0.4-0.2,0.5-0.6,0.5-1c0-0.6-0.4-1-1.3-1.2
			l-1.6-0.3c-0.6-0.1-1.2-0.4-1.5-0.7s-0.6-0.8-0.6-1.4c0-0.7,0.3-1.2,0.8-1.7s1.2-0.7,2.1-0.7c1.7,0,2.7,0.7,3.1,2l-1.1,0.2
			c-0.3-0.8-1-1.2-2-1.2c-0.5,0-0.9,0.1-1.2,0.3c-0.3,0.2-0.5,0.5-0.5,0.9c0,0.6,0.4,0.9,1.2,1.1l1.5,0.3c1.6,0.3,2.4,1.1,2.4,2.3
			c0,0.7-0.3,1.3-0.9,1.8c-0.6,0.4-1.4,0.7-2.4,0.7C248.6,182.7,247.5,181.9,247,180.4z"/>
		<path class="st4" d="M256.7,171.8v1.4h-1.3v-1.4H256.7z M256.6,174.6v7.9h-1.2v-7.9H256.6z"/>
		<path class="st4" d="M265.2,171.8v10.7h-1.1v-1.4c-0.5,1-1.4,1.6-2.5,1.6c-0.9,0-1.7-0.4-2.3-1.2c-0.6-0.8-0.9-1.8-0.9-2.9
			c0-1.2,0.3-2.2,0.9-3c0.6-0.8,1.4-1.2,2.3-1.2c0.9,0,1.7,0.4,2.3,1.3v-3.9H265.2z M264,177.6c0-0.7-0.2-1.2-0.6-1.7
			s-0.9-0.6-1.5-0.6c-0.6,0-1.1,0.3-1.5,0.8c-0.4,0.5-0.6,1.3-0.6,2.3c0,1.1,0.2,1.9,0.5,2.4s0.8,0.8,1.5,0.8c0.6,0,1.1-0.2,1.5-0.7
			s0.7-1,0.7-1.7V177.6z"/>
		<path class="st4" d="M270.4,182.7c-1.1,0-1.9-0.4-2.5-1.2c-0.6-0.8-0.9-1.8-0.9-3c0-1.3,0.3-2.3,1-3c0.7-0.8,1.5-1.1,2.5-1.1
			c1.1,0,1.9,0.4,2.5,1.2c0.6,0.8,0.9,1.8,0.9,3c0,1.2-0.3,2.2-1,3C272.3,182.3,271.5,182.7,270.4,182.7z M270.5,181.7
			c0.6,0,1.1-0.3,1.6-0.8c0.4-0.5,0.6-1.3,0.6-2.4c0-1.1-0.2-1.9-0.7-2.4c-0.4-0.5-1-0.7-1.5-0.7c-0.6,0-1.1,0.2-1.5,0.7
			c-0.4,0.5-0.6,1.3-0.6,2.4c0,1.1,0.2,2,0.6,2.4C269.4,181.4,269.9,181.7,270.5,181.7z"/>
	</g>
	<g class="st3">
		<path class="st4" d="M286.3,182.5h-1.7c-0.2-0.5-0.2-1-0.3-1.6c-0.5,1.2-1.4,1.8-2.6,1.8c-0.8,0-1.4-0.2-1.9-0.7
			c-0.5-0.5-0.7-1-0.7-1.7c0-1.8,1.6-2.7,4.7-2.7c0.1,0,0.3,0,0.5,0v-0.6c0-0.8-0.6-1.2-1.7-1.2c-1.1,0-1.7,0.4-1.8,1.2l-1.5-0.2
			c0.1-0.7,0.4-1.2,1-1.6s1.4-0.6,2.6-0.6c0.6,0,1.1,0.1,1.5,0.2c0.4,0.1,0.7,0.3,1,0.5s0.4,0.5,0.5,0.8c0.1,0.3,0.2,0.8,0.2,1.4
			v3.6C286.1,181.4,286.2,181.9,286.3,182.5z M284.4,178.4c-2.3,0-3.4,0.5-3.4,1.6c0,0.3,0.1,0.6,0.3,0.8c0.2,0.2,0.6,0.3,1,0.3
			c0.7,0,1.2-0.2,1.5-0.6c0.3-0.4,0.5-0.9,0.5-1.5V178.4z"/>
		<path class="st4" d="M294.6,182.5H293v-1.6c-0.5,1.2-1.2,1.8-2.3,1.8c-1,0-1.7-0.4-2.2-1.2c-0.5-0.8-0.8-1.8-0.8-3
			c0-1.1,0.3-2.1,0.8-2.9s1.3-1.2,2.3-1.2c1,0,1.7,0.5,2.1,1.4v-3.8h1.8V182.5z M292.8,177.8c0-0.6-0.2-1.1-0.5-1.5
			c-0.3-0.4-0.7-0.5-1.2-0.5c-0.5,0-0.9,0.2-1.2,0.7c-0.3,0.5-0.4,1.1-0.4,2.1c0,1.8,0.5,2.6,1.6,2.6c0.4,0,0.8-0.2,1.1-0.6
			s0.5-0.9,0.5-1.4V177.8z"/>
		<path class="st4" d="M301.7,179.9l1.6,0.2c-0.2,0.7-0.6,1.3-1.2,1.8s-1.3,0.7-2.3,0.7c-1.1,0-2-0.4-2.6-1.1s-1-1.7-1-3
			c0-1.2,0.3-2.2,1-3c0.7-0.8,1.6-1.2,2.7-1.2c1.1,0,2,0.4,2.6,1.2c0.6,0.8,0.9,1.8,0.9,3l0,0.2h-5.4c0,0.5,0,1,0.2,1.3
			s0.3,0.6,0.6,0.8c0.3,0.2,0.7,0.4,1.1,0.4C300.8,181.2,301.4,180.8,301.7,179.9z M301.6,177.6c0-0.6-0.2-1-0.5-1.4
			c-0.3-0.4-0.7-0.5-1.2-0.5c-0.5,0-0.9,0.2-1.2,0.5s-0.5,0.8-0.6,1.4H301.6z"/>
		<path class="st4" d="M309.5,179.6l1.5,0.2c-0.2,1-0.6,1.7-1.1,2.2c-0.6,0.5-1.2,0.7-2,0.7c-1.1,0-1.9-0.4-2.5-1.2
			s-0.9-1.8-0.9-2.9c0-1.2,0.3-2.2,1-2.9c0.6-0.8,1.5-1.2,2.5-1.2c1.7,0,2.7,0.9,3,2.7l-1.5,0.2c-0.1-1-0.6-1.5-1.4-1.5
			c-0.6,0-1,0.3-1.3,0.8c-0.3,0.5-0.4,1.2-0.4,1.9c0,0.8,0.1,1.4,0.4,1.8s0.7,0.6,1.2,0.6C308.8,181.1,309.3,180.6,309.5,179.6z"/>
		<path class="st4" d="M318.8,182.5h-1.6v-1.7c-0.4,1.2-1.3,1.9-2.5,1.9c-0.7,0-1.3-0.2-1.7-0.7s-0.6-1.1-0.6-1.9v-5.5h1.8v5.1
			c0,0.6,0.1,0.9,0.4,1.1s0.5,0.3,0.7,0.3c0.4,0,0.8-0.2,1.2-0.5c0.4-0.3,0.6-1.1,0.6-2.2v-3.8h1.8V182.5z"/>
		<path class="st4" d="M327.6,182.5H326c-0.1-0.5-0.2-1-0.3-1.6c-0.5,1.2-1.4,1.8-2.6,1.8c-0.8,0-1.4-0.2-1.9-0.7
			c-0.5-0.5-0.7-1-0.7-1.7c0-1.8,1.6-2.7,4.7-2.7c0.1,0,0.3,0,0.5,0v-0.6c0-0.8-0.6-1.2-1.7-1.2c-1.1,0-1.7,0.4-1.8,1.2l-1.5-0.2
			c0.1-0.7,0.4-1.2,1-1.6s1.4-0.6,2.6-0.6c0.6,0,1.1,0.1,1.5,0.2c0.4,0.1,0.7,0.3,1,0.5c0.3,0.2,0.4,0.5,0.5,0.8s0.2,0.8,0.2,1.4
			v3.6C327.4,181.4,327.5,181.9,327.6,182.5z M325.7,178.4c-2.3,0-3.4,0.5-3.4,1.6c0,0.3,0.1,0.6,0.3,0.8s0.6,0.3,1,0.3
			c0.7,0,1.2-0.2,1.5-0.6c0.3-0.4,0.5-0.9,0.5-1.5V178.4z"/>
		<path class="st4" d="M335.9,182.5h-1.6v-1.6c-0.5,1.2-1.2,1.8-2.3,1.8c-1,0-1.7-0.4-2.2-1.2s-0.8-1.8-0.8-3c0-1.1,0.3-2.1,0.8-2.9
			s1.3-1.2,2.3-1.2c1,0,1.7,0.5,2.1,1.4v-3.8h1.8V182.5z M334.2,177.8c0-0.6-0.2-1.1-0.5-1.5s-0.7-0.5-1.2-0.5
			c-0.5,0-0.9,0.2-1.2,0.7s-0.4,1.1-0.4,2.1c0,1.8,0.5,2.6,1.6,2.6c0.4,0,0.8-0.2,1.1-0.6c0.3-0.4,0.5-0.9,0.5-1.4V177.8z"/>
		<path class="st4" d="M344.7,182.5h-1.7c-0.2-0.5-0.2-1-0.3-1.6c-0.5,1.2-1.4,1.8-2.6,1.8c-0.8,0-1.4-0.2-1.9-0.7s-0.7-1-0.7-1.7
			c0-1.8,1.6-2.7,4.7-2.7c0.1,0,0.3,0,0.5,0v-0.6c0-0.8-0.6-1.2-1.7-1.2c-1.1,0-1.7,0.4-1.8,1.2l-1.5-0.2c0.1-0.7,0.4-1.2,1-1.6
			c0.6-0.4,1.4-0.6,2.6-0.6c0.6,0,1.1,0.1,1.5,0.2c0.4,0.1,0.7,0.3,1,0.5c0.3,0.2,0.4,0.5,0.5,0.8s0.2,0.8,0.2,1.4v3.6
			C344.5,181.4,344.6,181.9,344.7,182.5z M342.8,178.4c-2.3,0-3.4,0.5-3.4,1.6c0,0.3,0.1,0.6,0.3,0.8s0.6,0.3,1,0.3
			c0.7,0,1.2-0.2,1.5-0.6c0.3-0.4,0.5-0.9,0.5-1.5V178.4z"/>
	</g>
	<g class="st3">
		<path class="st4" d="M246.6,224.3h-1.3v-9.3l-3.4,9.3H241l-3.5-9.3v9.3h-1.1v-10.7h2l3.2,8.5l3.1-8.5h1.9V224.3z"/>
	</g>
	<g class="st3">
		<path class="st4" d="M252,224.5c-1.1,0-1.9-0.4-2.5-1.2s-0.9-1.8-0.9-3c0-1.3,0.3-2.3,1-3c0.7-0.8,1.5-1.1,2.5-1.1
			c1.1,0,1.9,0.4,2.5,1.2s0.9,1.8,0.9,3c0,1.2-0.3,2.2-1,3S253,224.5,252,224.5z M252.1,223.5c0.6,0,1.1-0.3,1.6-0.8
			s0.6-1.3,0.6-2.4c0-1.1-0.2-1.9-0.7-2.4c-0.4-0.5-1-0.7-1.5-0.7c-0.6,0-1.1,0.2-1.5,0.7c-0.4,0.5-0.6,1.3-0.6,2.4
			c0,1.1,0.2,2,0.6,2.4S251.4,223.5,252.1,223.5z"/>
	</g>
	<g class="st3">
		<path class="st4" d="M260.8,223.4v1c-0.4,0.1-0.8,0.1-1.1,0.1c-1.5,0-2.3-0.8-2.3-2.4v-4.8h-1.4v-1h1.4l0.1-2l1.1-0.1v2.1h1.7v1
			h-1.7v5c0,0.8,0.4,1.2,1.3,1.2C260.2,223.5,260.5,223.5,260.8,223.4z"/>
		<path class="st4" d="M263.4,213.6v1.4h-1.3v-1.4H263.4z M263.4,216.4v7.9h-1.2v-7.9H263.4z"/>
	</g>
	<g class="st3">
		<path class="st4" d="M271.5,216.4l-2.7,7.9h-1.3l-2.8-7.9h1.3l2.2,6.4l2.1-6.4H271.5z"/>
	</g>
	<g class="st3">
		<path class="st4" d="M275.5,224.5c-1.1,0-1.9-0.4-2.5-1.2c-0.6-0.8-0.9-1.8-0.9-3c0-1.3,0.3-2.3,1-3c0.7-0.8,1.5-1.1,2.5-1.1
			c1.1,0,1.9,0.4,2.5,1.2c0.6,0.8,0.9,1.8,0.9,3c0,1.2-0.3,2.2-1,3C277.4,224.1,276.5,224.5,275.5,224.5z M275.6,223.5
			c0.6,0,1.1-0.3,1.6-0.8c0.4-0.5,0.6-1.3,0.6-2.4c0-1.1-0.2-1.9-0.7-2.4c-0.4-0.5-1-0.7-1.5-0.7c-0.6,0-1.1,0.2-1.5,0.7
			c-0.4,0.5-0.6,1.3-0.6,2.4c0,1.1,0.2,2,0.6,2.4C274.5,223.2,275,223.5,275.6,223.5z"/>
		<path class="st4" d="M279.9,222.2l1.2-0.2c0.3,1,1.1,1.5,2.4,1.5c0.5,0,0.9-0.1,1.3-0.3c0.4-0.2,0.5-0.6,0.5-1
			c0-0.6-0.4-1-1.3-1.2l-1.6-0.3c-0.6-0.1-1.2-0.4-1.5-0.7c-0.4-0.4-0.6-0.8-0.6-1.4c0-0.7,0.3-1.2,0.8-1.7c0.5-0.4,1.2-0.7,2.1-0.7
			c1.7,0,2.7,0.7,3.1,2l-1.1,0.2c-0.3-0.8-1-1.2-2-1.2c-0.5,0-0.9,0.1-1.2,0.3c-0.3,0.2-0.5,0.5-0.5,0.9c0,0.6,0.4,1,1.2,1.1
			l1.5,0.3c1.6,0.3,2.4,1.1,2.4,2.3c0,0.7-0.3,1.3-0.9,1.8c-0.6,0.4-1.4,0.7-2.4,0.7C281.4,224.5,280.3,223.7,279.9,222.2z"/>
	</g>
	<g class="st3">
		<path class="st4" d="M297,221.7l1.6,0.2c-0.2,0.7-0.6,1.3-1.2,1.8c-0.6,0.5-1.3,0.7-2.3,0.7c-1.1,0-2-0.4-2.6-1.1s-1-1.7-1-3
			c0-1.2,0.3-2.2,1-3c0.7-0.8,1.6-1.2,2.7-1.2c1.1,0,2,0.4,2.6,1.2c0.6,0.8,0.9,1.8,0.9,3l0,0.2h-5.4c0,0.5,0,1,0.2,1.3
			c0.1,0.3,0.3,0.6,0.6,0.8c0.3,0.2,0.7,0.4,1.1,0.4C296.1,223,296.7,222.6,297,221.7z M296.9,219.4c0-0.6-0.2-1-0.5-1.4
			c-0.3-0.4-0.7-0.5-1.2-0.5c-0.5,0-0.9,0.2-1.2,0.5s-0.5,0.8-0.6,1.4H296.9z"/>
		<path class="st4" d="M304.9,221.4l1.5,0.2c-0.2,1-0.6,1.7-1.1,2.2c-0.6,0.5-1.2,0.7-2,0.7c-1.1,0-1.9-0.4-2.5-1.2
			c-0.6-0.8-0.9-1.8-0.9-2.9c0-1.2,0.3-2.2,1-2.9c0.6-0.8,1.5-1.2,2.5-1.2c1.7,0,2.7,0.9,3,2.7l-1.5,0.2c-0.1-1-0.6-1.5-1.4-1.5
			c-0.6,0-1,0.3-1.3,0.8c-0.3,0.5-0.4,1.2-0.4,1.9c0,0.8,0.1,1.4,0.4,1.8c0.3,0.4,0.7,0.6,1.2,0.6
			C304.1,222.9,304.6,222.4,304.9,221.4z"/>
		<path class="st4" d="M310.8,224.4c-1.2,0-2-0.4-2.6-1.3c-0.6-0.8-0.9-1.8-0.9-2.9c0-1.2,0.3-2.1,1-2.9c0.7-0.8,1.6-1.2,2.7-1.2
			c1,0,1.9,0.4,2.6,1.1c0.7,0.8,1,1.7,1,2.9c0,1.2-0.3,2.2-1,3S311.9,224.4,310.8,224.4z M310.9,223c1.2,0,1.8-0.9,1.8-2.7
			c0-0.8-0.1-1.4-0.4-1.9c-0.3-0.5-0.7-0.7-1.3-0.7c-0.6,0-1.1,0.2-1.4,0.7c-0.3,0.5-0.4,1.1-0.4,1.9c0,0.9,0.2,1.5,0.5,2
			S310.3,223,310.9,223z"/>
		<path class="st4" d="M322.6,224.3h-1.8v-4.9c0-0.5-0.1-0.9-0.4-1.2c-0.2-0.3-0.5-0.4-0.9-0.4c-0.5,0-0.9,0.2-1.2,0.6
			s-0.5,1-0.5,1.8v4.1h-1.8v-7.9h1.6v1.8c0.6-1.3,1.4-2,2.4-2c0.7,0,1.3,0.2,1.8,0.7c0.5,0.4,0.7,1.2,0.7,2.3V224.3z"/>
		<path class="st4" d="M327.8,224.4c-1.2,0-2-0.4-2.6-1.3c-0.6-0.8-0.9-1.8-0.9-2.9c0-1.2,0.3-2.1,1-2.9c0.7-0.8,1.6-1.2,2.7-1.2
			c1,0,1.9,0.4,2.6,1.1c0.7,0.8,1,1.7,1,2.9c0,1.2-0.3,2.2-1,3S328.8,224.4,327.8,224.4z M327.8,223c1.2,0,1.8-0.9,1.8-2.7
			c0-0.8-0.1-1.4-0.4-1.9c-0.3-0.5-0.7-0.7-1.3-0.7c-0.6,0-1.1,0.2-1.4,0.7c-0.3,0.5-0.4,1.1-0.4,1.9c0,0.9,0.2,1.5,0.5,2
			S327.3,223,327.8,223z M329.7,212.6l0.5,1.2l-3.2,1.4l-0.3-0.8L329.7,212.6z"/>
		<path class="st4" d="M344.7,224.3h-1.8v-4.9c0-1-0.4-1.5-1.3-1.5c-0.5,0-0.9,0.2-1.2,0.6c-0.3,0.4-0.5,1-0.5,1.7v4.1H338v-4.9
			c0-1-0.4-1.6-1.3-1.6c-0.5,0-0.9,0.2-1.3,0.6c-0.3,0.4-0.5,1-0.5,1.7v4.1h-1.8v-7.9h1.7v1.7c0.6-1.2,1.4-1.8,2.6-1.8
			c1.1,0,1.9,0.6,2.2,1.8c0.6-1.2,1.5-1.8,2.6-1.8c0.8,0,1.4,0.2,1.8,0.7c0.5,0.5,0.7,1.1,0.7,1.8V224.3z"/>
		<path class="st4" d="M348.6,215.4h-1.8v-1.9h1.8V215.4z M348.6,224.3h-1.8v-7.9h1.8V224.3z"/>
		<path class="st4" d="M355.2,221.4l1.5,0.2c-0.2,1-0.6,1.7-1.1,2.2c-0.6,0.5-1.2,0.7-2,0.7c-1.1,0-1.9-0.4-2.5-1.2
			c-0.6-0.8-0.9-1.8-0.9-2.9c0-1.2,0.3-2.2,1-2.9c0.6-0.8,1.5-1.2,2.5-1.2c1.7,0,2.7,0.9,3,2.7l-1.5,0.2c-0.1-1-0.6-1.5-1.4-1.5
			c-0.6,0-1,0.3-1.3,0.8c-0.3,0.5-0.4,1.2-0.4,1.9c0,0.8,0.1,1.4,0.4,1.8c0.3,0.4,0.7,0.6,1.2,0.6
			C354.5,222.9,355,222.4,355.2,221.4z"/>
		<path class="st4" d="M361.2,224.4c-1.2,0-2-0.4-2.6-1.3c-0.6-0.8-0.9-1.8-0.9-2.9c0-1.2,0.3-2.1,1-2.9c0.7-0.8,1.6-1.2,2.7-1.2
			c1,0,1.9,0.4,2.6,1.1c0.7,0.8,1,1.7,1,2.9c0,1.2-0.3,2.2-1,3S362.2,224.4,361.2,224.4z M361.2,223c1.2,0,1.8-0.9,1.8-2.7
			c0-0.8-0.1-1.4-0.4-1.9c-0.3-0.5-0.7-0.7-1.3-0.7c-0.6,0-1.1,0.2-1.4,0.7c-0.3,0.5-0.4,1.1-0.4,1.9c0,0.9,0.2,1.5,0.5,2
			S360.7,223,361.2,223z"/>
		<path class="st4" d="M365.5,222.4l1.7-0.3c0.3,0.6,0.8,1,1.7,1c1.1,0,1.6-0.3,1.6-1c0-0.2-0.1-0.4-0.3-0.5
			c-0.2-0.1-0.4-0.2-0.6-0.3l-1.4-0.3c-1.6-0.3-2.4-1.1-2.4-2.3c0-0.7,0.3-1.3,0.8-1.8c0.5-0.5,1.2-0.7,2.2-0.7c1.7,0,2.7,0.6,3,1.8
			l-1.6,0.3c-0.2-0.6-0.6-0.9-1.4-0.9c-0.9,0-1.4,0.3-1.4,0.9c0,0.4,0.4,0.7,1.1,0.9l1.7,0.4c1.3,0.3,2,1,2,2.3c0,0.9-0.3,1.5-1,1.9
			c-0.7,0.4-1.5,0.6-2.4,0.6c-0.8,0-1.5-0.2-2.1-0.5S365.7,223.1,365.5,222.4z"/>
	</g>
	<g class="st3">
		<path class="st4" d="M252.4,252.3H251v-10.7h3.7c1.2,0,2,0.3,2.6,1c0.6,0.6,0.8,1.4,0.8,2.2c0,0.9-0.3,1.7-0.9,2.3
			c-0.6,0.6-1.4,0.9-2.4,0.9h-2.6V252.3z M252.4,246.8h2.4c0.6,0,1.1-0.2,1.5-0.6c0.4-0.4,0.6-0.9,0.6-1.5c0-0.5-0.2-1-0.5-1.4
			c-0.3-0.4-0.8-0.6-1.5-0.6h-2.5V246.8z"/>
	</g>
	<g class="st3">
		<path class="st4" d="M261,252.3h-1.2v-7.9h1.1v1.8c0.4-0.9,0.8-1.4,1.1-1.7c0.4-0.3,0.8-0.4,1.2-0.4c0.1,0,0.3,0,0.5,0v1.2h-0.2
			c-0.7,0-1.2,0.3-1.7,0.8c-0.4,0.5-0.7,1.2-0.7,2V252.3z"/>
	</g>
	<g class="st3">
		<path class="st4" d="M267.5,252.5c-1.1,0-1.9-0.4-2.5-1.2c-0.6-0.8-0.9-1.8-0.9-3c0-1.3,0.3-2.3,1-3s1.5-1.1,2.5-1.1
			c1.1,0,1.9,0.4,2.5,1.2s0.9,1.8,0.9,3c0,1.2-0.3,2.2-1,3C269.4,252.1,268.6,252.5,267.5,252.5z M267.6,251.5
			c0.6,0,1.1-0.3,1.6-0.8c0.4-0.5,0.6-1.3,0.6-2.4c0-1.1-0.2-1.9-0.7-2.4s-1-0.7-1.5-0.7c-0.6,0-1.1,0.2-1.5,0.7
			c-0.4,0.5-0.6,1.3-0.6,2.4c0,1.1,0.2,2,0.6,2.4C266.5,251.2,267,251.5,267.6,251.5z"/>
		<path class="st4" d="M273.5,252.3h-0.6v-10.7h1.2v4.1c0.6-1,1.3-1.5,2.3-1.5c0.9,0,1.6,0.4,2.3,1.1c0.6,0.7,0.9,1.8,0.9,3.1
			c0,1.2-0.3,2.2-0.9,3s-1.4,1.2-2.3,1.2c-1.1,0-1.9-0.5-2.4-1.5L273.5,252.3z M274.2,249.2c0.1,0.8,0.3,1.4,0.7,1.8
			c0.4,0.4,0.9,0.5,1.4,0.5c0.6,0,1.1-0.3,1.5-0.8c0.4-0.5,0.6-1.3,0.6-2.2c0-1-0.2-1.8-0.6-2.4s-0.9-0.9-1.5-0.9
			c-0.5,0-1,0.2-1.4,0.6c-0.4,0.4-0.7,0.9-0.7,1.6V249.2z"/>
		<path class="st4" d="M282.7,252.3h-1.2v-10.7h1.2V252.3z"/>
		<path class="st4" d="M290.3,249.9l1.1,0.2c-0.2,0.7-0.6,1.2-1.2,1.7s-1.3,0.7-2.1,0.7c-1.1,0-1.9-0.4-2.6-1.1s-1-1.8-1-3
			c0-1.3,0.3-2.3,1-3c0.7-0.8,1.5-1.2,2.6-1.2c1,0,1.8,0.4,2.5,1.1c0.6,0.7,0.9,1.8,1,3.2h-5.7c0,1.2,0.2,2,0.7,2.4
			c0.5,0.4,1,0.6,1.6,0.6C289.1,251.5,289.8,250.9,290.3,249.9z M290.2,247.5c0-0.4-0.1-0.8-0.2-1.2s-0.4-0.6-0.7-0.9
			s-0.7-0.4-1.2-0.4c-0.6,0-1.1,0.2-1.5,0.7s-0.7,1-0.7,1.8H290.2z"/>
		<path class="st4" d="M303.8,252.3h-1.2v-4.9c0-0.5,0-0.9-0.1-1.1c-0.1-0.3-0.2-0.5-0.5-0.7c-0.3-0.2-0.6-0.3-0.9-0.3
			c-0.5,0-0.9,0.2-1.3,0.6s-0.6,1.1-0.6,2v4.4h-1.2v-5.2c0-0.7-0.2-1.2-0.5-1.5c-0.3-0.3-0.7-0.4-1-0.4c-0.5,0-1,0.2-1.3,0.7
			c-0.4,0.4-0.6,1-0.6,1.7v4.7h-1.2v-7.9h1v1.5c0.6-1.2,1.4-1.7,2.4-1.7c0.6,0,1,0.2,1.4,0.6c0.4,0.4,0.6,0.8,0.8,1.3
			c0.5-1.3,1.4-1.9,2.5-1.9c0.5,0,1,0.2,1.4,0.5c0.4,0.3,0.7,0.7,0.8,1.1s0.2,1,0.2,1.7V252.3z"/>
		<path class="st4" d="M312.3,252.3h-1.2c0-0.3-0.1-0.7-0.1-1.4c-0.5,1.1-1.4,1.6-2.7,1.6c-0.9,0-1.5-0.2-2-0.7
			c-0.5-0.5-0.7-1-0.7-1.7c0-0.8,0.3-1.5,1-2c0.7-0.5,1.8-0.8,3.4-0.8c0.2,0,0.6,0,1,0c0-0.6,0-1.1-0.1-1.4
			c-0.1-0.3-0.3-0.5-0.6-0.7c-0.3-0.2-0.7-0.3-1.2-0.3c-1.2,0-1.9,0.5-2.2,1.4l-1.1-0.2c0.3-1.5,1.4-2.2,3.4-2.2
			c1.1,0,1.8,0.2,2.3,0.7c0.5,0.5,0.7,1.3,0.7,2.5v3.4C312.2,251.3,312.2,251.8,312.3,252.3z M311,248.3c-0.5,0-0.9,0-1.1,0
			c-1,0-1.7,0.2-2.2,0.5s-0.8,0.8-0.8,1.4c0,0.4,0.1,0.7,0.4,1s0.7,0.4,1.2,0.4c0.7,0,1.3-0.3,1.8-0.8c0.5-0.5,0.7-1.2,0.7-1.9
			C311,248.7,311,248.5,311,248.3z"/>
		<path class="st4" d="M313.6,250.2l1.2-0.2c0.3,1,1.1,1.5,2.4,1.5c0.5,0,0.9-0.1,1.3-0.3c0.4-0.2,0.5-0.6,0.5-1
			c0-0.6-0.4-1-1.3-1.2l-1.6-0.3c-0.6-0.1-1.2-0.4-1.5-0.7c-0.4-0.4-0.6-0.8-0.6-1.4c0-0.7,0.3-1.2,0.8-1.7c0.5-0.4,1.2-0.7,2.1-0.7
			c1.7,0,2.7,0.7,3.1,2l-1.1,0.2c-0.3-0.8-1-1.2-2-1.2c-0.5,0-0.9,0.1-1.2,0.3c-0.3,0.2-0.5,0.5-0.5,0.9c0,0.6,0.4,1,1.2,1.1
			l1.5,0.3c1.6,0.3,2.4,1.1,2.4,2.3c0,0.7-0.3,1.3-0.9,1.8c-0.6,0.4-1.4,0.7-2.4,0.7C315.1,252.5,314,251.7,313.6,250.2z"/>
		<path class="st4" d="M332,241.6v10.7h-1.1v-1.4c-0.5,1-1.4,1.6-2.5,1.6c-0.9,0-1.7-0.4-2.3-1.2c-0.6-0.8-0.9-1.8-0.9-2.9
			c0-1.2,0.3-2.2,0.9-3c0.6-0.8,1.4-1.2,2.3-1.2c0.9,0,1.7,0.4,2.3,1.3v-3.9H332z M330.8,247.4c0-0.7-0.2-1.2-0.6-1.7
			c-0.4-0.4-0.9-0.6-1.5-0.6c-0.6,0-1.1,0.3-1.5,0.8c-0.4,0.5-0.6,1.3-0.6,2.3c0,1.1,0.2,1.9,0.5,2.4c0.4,0.6,0.8,0.8,1.5,0.8
			c0.6,0,1.1-0.2,1.5-0.7c0.4-0.5,0.6-1,0.6-1.7V247.4z"/>
		<path class="st4" d="M339.6,249.9l1.1,0.2c-0.2,0.7-0.6,1.2-1.2,1.7c-0.6,0.4-1.3,0.7-2.1,0.7c-1.1,0-1.9-0.4-2.6-1.1s-1-1.8-1-3
			c0-1.3,0.3-2.3,1-3c0.7-0.8,1.5-1.2,2.6-1.2c1,0,1.8,0.4,2.5,1.1c0.6,0.7,0.9,1.8,1,3.2h-5.7c0,1.2,0.2,2,0.7,2.4
			c0.5,0.4,1,0.6,1.6,0.6C338.5,251.5,339.2,250.9,339.6,249.9z M339.5,247.5c0-0.4-0.1-0.8-0.2-1.2c-0.1-0.3-0.4-0.6-0.7-0.9
			c-0.3-0.2-0.7-0.4-1.2-0.4c-0.6,0-1.1,0.2-1.5,0.7c-0.4,0.4-0.7,1-0.7,1.8H339.5z"/>
	</g>
	<g class="st3">
		<path class="st4" d="M351,249.4l1.5,0.2c-0.2,1-0.6,1.7-1.1,2.2c-0.6,0.5-1.2,0.7-2,0.7c-1.1,0-1.9-0.4-2.5-1.2
			c-0.6-0.8-0.9-1.8-0.9-2.9c0-1.2,0.3-2.2,1-2.9c0.6-0.8,1.5-1.2,2.5-1.2c1.7,0,2.7,0.9,3,2.7l-1.5,0.2c-0.1-1-0.6-1.5-1.4-1.5
			c-0.6,0-1,0.3-1.3,0.8c-0.3,0.5-0.4,1.2-0.4,1.9c0,0.8,0.1,1.4,0.4,1.8c0.3,0.4,0.7,0.6,1.2,0.6
			C350.2,250.9,350.8,250.4,351,249.4z"/>
		<path class="st4" d="M356.9,252.4c-1.2,0-2-0.4-2.6-1.3c-0.6-0.8-0.9-1.8-0.9-2.9c0-1.2,0.3-2.1,1-2.9c0.7-0.8,1.6-1.2,2.7-1.2
			c1,0,1.9,0.4,2.6,1.1c0.7,0.8,1,1.7,1,2.9c0,1.2-0.3,2.2-1,3S358,252.4,356.9,252.4z M357,251c1.2,0,1.8-0.9,1.8-2.7
			c0-0.8-0.1-1.4-0.4-1.9c-0.3-0.5-0.7-0.7-1.3-0.7c-0.6,0-1.1,0.2-1.4,0.7c-0.3,0.5-0.4,1.1-0.4,1.9c0,0.9,0.2,1.5,0.5,2
			S356.5,251,357,251z"/>
		<path class="st4" d="M368.7,252.3H367v-4.9c0-0.5-0.1-0.9-0.4-1.2c-0.2-0.3-0.5-0.4-0.9-0.4c-0.5,0-0.9,0.2-1.2,0.6
			s-0.5,1-0.5,1.8v4.1h-1.8v-7.9h1.6v1.8c0.6-1.3,1.4-2,2.4-2c0.7,0,1.3,0.2,1.8,0.7c0.5,0.4,0.7,1.2,0.7,2.3V252.3z"/>
		<path class="st4" d="M375.3,249.4l1.5,0.2c-0.2,1-0.6,1.7-1.1,2.2c-0.6,0.5-1.2,0.7-2,0.7c-1.1,0-1.9-0.4-2.5-1.2
			c-0.6-0.8-0.9-1.8-0.9-2.9c0-1.2,0.3-2.2,1-2.9c0.6-0.8,1.5-1.2,2.5-1.2c1.7,0,2.7,0.9,3,2.7l-1.5,0.2c-0.1-1-0.6-1.5-1.4-1.5
			c-0.6,0-1,0.3-1.3,0.8c-0.3,0.5-0.4,1.2-0.4,1.9c0,0.8,0.1,1.4,0.4,1.8c0.3,0.4,0.7,0.6,1.2,0.6
			C374.6,250.9,375.1,250.4,375.3,249.4z"/>
		<path class="st4" d="M380,243.4h-1.8v-1.9h1.8V243.4z M380,252.3h-1.8v-7.9h1.8V252.3z"/>
		<path class="st4" d="M383.8,252.3h-1.8v-10.7h1.8V252.3z"/>
		<path class="st4" d="M387.7,243.4H386v-1.9h1.8V243.4z M387.7,252.3H386v-7.9h1.8V252.3z"/>
		<path class="st4" d="M396.5,252.3h-1.7c-0.1-0.5-0.2-1-0.3-1.6c-0.5,1.2-1.4,1.8-2.6,1.8c-0.8,0-1.4-0.2-1.9-0.7
			c-0.5-0.5-0.7-1-0.7-1.7c0-1.8,1.6-2.7,4.7-2.7c0.1,0,0.3,0,0.5,0v-0.6c0-0.8-0.6-1.2-1.7-1.2c-1.1,0-1.7,0.4-1.8,1.2l-1.5-0.2
			c0.1-0.7,0.4-1.2,1-1.6c0.6-0.4,1.4-0.6,2.6-0.6c0.6,0,1.1,0.1,1.5,0.2c0.4,0.1,0.7,0.3,1,0.5c0.3,0.2,0.4,0.5,0.5,0.8
			c0.1,0.3,0.2,0.8,0.2,1.4v3.6C396.3,251.2,396.4,251.7,396.5,252.3z M394.6,248.2c-2.3,0-3.4,0.5-3.4,1.6c0,0.3,0.1,0.6,0.3,0.8
			c0.2,0.2,0.6,0.3,1,0.3c0.7,0,1.2-0.2,1.5-0.6c0.3-0.4,0.5-0.9,0.5-1.5V248.2z"/>
		<path class="st4" d="M402.9,249.4l1.5,0.2c-0.2,1-0.6,1.7-1.1,2.2c-0.6,0.5-1.2,0.7-2,0.7c-1.1,0-1.9-0.4-2.5-1.2
			c-0.6-0.8-0.9-1.8-0.9-2.9c0-1.2,0.3-2.2,1-2.9c0.6-0.8,1.5-1.2,2.5-1.2c1.7,0,2.7,0.9,3,2.7l-1.5,0.2c-0.1-1-0.6-1.5-1.4-1.5
			c-0.6,0-1,0.3-1.3,0.8c-0.3,0.5-0.4,1.2-0.4,1.9c0,0.8,0.1,1.4,0.4,1.8c0.3,0.4,0.7,0.6,1.2,0.6
			C402.1,250.9,402.7,250.4,402.9,249.4z"/>
		<path class="st4" d="M407.5,243.4h-1.8v-1.9h1.8V243.4z M407.5,252.3h-1.8v-7.9h1.8V252.3z"/>
		<path class="st4" d="M412.7,252.4c-1.2,0-2-0.4-2.6-1.3c-0.6-0.8-0.9-1.8-0.9-2.9c0-1.2,0.3-2.1,1-2.9c0.7-0.8,1.6-1.2,2.7-1.2
			c1,0,1.9,0.4,2.6,1.1c0.7,0.8,1,1.7,1,2.9c0,1.2-0.3,2.2-1,3S413.8,252.4,412.7,252.4z M412.8,251c1.2,0,1.8-0.9,1.8-2.7
			c0-0.8-0.1-1.4-0.4-1.9c-0.3-0.5-0.7-0.7-1.3-0.7c-0.6,0-1.1,0.2-1.4,0.7c-0.3,0.5-0.4,1.1-0.4,1.9c0,0.9,0.2,1.5,0.5,2
			S412.2,251,412.8,251z M414.7,240.6l0.5,1.2l-3.2,1.4l-0.3-0.8L414.7,240.6z"/>
		<path class="st4" d="M424.5,252.3h-1.8v-4.9c0-0.5-0.1-0.9-0.4-1.2c-0.2-0.3-0.5-0.4-0.9-0.4c-0.5,0-0.9,0.2-1.2,0.6
			c-0.3,0.4-0.5,1-0.5,1.8v4.1H418v-7.9h1.6v1.8c0.6-1.3,1.4-2,2.4-2c0.7,0,1.3,0.2,1.8,0.7s0.7,1.2,0.7,2.3V252.3z"/>
	</g>
</g>
</svg>
