<svg id="Capa_1" data-name="Capa 1" xmlns="http://www.w3.org/2000/svg" viewBox="0 0 390.12 326.58">
  <defs>
    <style>
      .cls-1, .cls-2, .cls-3 {
        fill: none;
        stroke-linejoin: round;
      }

      .cls-1 {
        stroke: #cb7e42;
        stroke-width: 1.5px;
      }

      .cls-2 {
        stroke: #fbd59a;
        opacity: 0.2;
      }

      .cls-3 {
        stroke: #dcdcdc;
        stroke-linecap: round;
        stroke-width: 0.54px;
        opacity: 0.5;
      }

      .cls-17, .cls-4 {
        font-size: 14px;
      }

      .cls-11, .cls-4, .cls-6 {
        fill: #dcdcdc;
      }

      .cls-11, .cls-17, .cls-4, .cls-9 {
        font-family: FranklinGothic-Medium, Franklin Gothic Medium;
        font-weight: 500;
      }

      .cls-14, .cls-5 {
        letter-spacing: -0.01em;
      }

      .cls-11, .cls-6 {
        font-size: 16px;
      }

      .cls-12, .cls-13, .cls-14, .cls-6 {
        font-family: FranklinGothic-Book, Franklin Gothic Book;
      }

      .cls-7 {
        letter-spacing: -0.02em;
      }

      .cls-8 {
        letter-spacing: -0.02em;
      }

      .cls-10 {
        letter-spacing: -0.01em;
      }

      .cls-12, .cls-13, .cls-14 {
        font-weight: 400;
      }

      .cls-13 {
        letter-spacing: -0.02em;
      }

      .cls-15 {
        letter-spacing: -0.01em;
      }

      .cls-16 {
        letter-spacing: -0.01em;
      }

      .cls-17 {
        fill: #ddd;
      }
    </style>
  </defs>
  <title>7c</title>
  <g>
    <polyline class="cls-1" points="52.83 191.98 112.82 128.26 172.8 137.27 232.78 129.6 292.77 134.06"/>
    <polyline class="cls-2" points="52.83 306.16 112.82 294.67 172.8 285.65 232.78 276.95 292.77 299.33"/>
    <polyline class="cls-2" points="52.83 226.18 112.82 235.81 172.8 253.73 232.78 245.55 292.77 268.65"/>
    <polyline class="cls-1" points="52.83 212.82 112.82 219.77 172.8 220.59 232.78 216.14 292.77 203.4"/>
    <polyline class="cls-2" points="52.83 270.63 112.82 236.22 172.8 255.71 232.78 264.41 292.77 239.75"/>
    <polyline class="cls-2" points="52.83 289.58 112.82 288.23 172.8 303.05 232.78 303.98 292.77 300.45"/>
    <polyline class="cls-2" points="52.83 22.78 112.82 131.68 172.8 143.59 232.78 165.66 292.77 193.64"/>
    <polyline class="cls-2" points="52.83 301.13 112.82 295.53 172.8 295.11 232.78 285.06 292.77 304.86"/>
    <polyline class="cls-2" points="52.83 250 112.82 227.11 172.8 235.08 232.78 237.16 292.77 231.46"/>
    <polyline class="cls-1" points="52.83 230.94 112.82 252.8 172.8 201.93 232.78 198.41 292.77 140.79"/>
    <polyline class="cls-2" points="52.83 288.14 112.82 258.19 172.8 238.3 232.78 267.51 292.77 239.02"/>
    <polyline class="cls-2" points="52.83 260.57 112.82 282.64 172.8 280.78 232.78 260.16 292.77 295.39"/>
    <line class="cls-3" x1="9.08" y1="307.78" x2="306.28" y2="307.78"/>
    <text class="cls-4" transform="translate(7.54 304.16)">0</text>
    <text class="cls-4" transform="translate(0 217.67)"><tspan class="cls-5">1</tspan><tspan x="8.07" y="0">0</tspan></text>
    <line class="cls-3" x1="2" y1="220.87" x2="17.09" y2="220.87"/>
    <text class="cls-4" transform="translate(0 114.67)">20</text>
    <line class="cls-3" x1="2" y1="117.87" x2="17.09" y2="117.87"/>
    <text class="cls-4" transform="translate(0 11.67)">30</text>
    <line class="cls-3" x1="2" y1="14.87" x2="17.09" y2="14.87"/>
    <text class="cls-6" transform="translate(221.56 104.7)"><tspan class="cls-7">A</tspan><tspan x="8.31" y="0">umen</tspan><tspan class="cls-8" x="47" y="0">t</tspan><tspan x="51.68" y="0">o del permiso de</tspan><tspan class="cls-9"><tspan x="0" y="19.2">ma</tspan><tspan class="cls-10" x="22.57" y="19.2">t</tspan><tspan x="27.5" y="19.2">ernidad/pa</tspan><tspan class="cls-10" x="104.59" y="19.2">t</tspan><tspan x="109.52" y="19.2">ernidad</tspan></tspan></text>
    <text class="cls-11" transform="translate(86.12 50.71)">No<tspan class="cls-12" x="18.86" y="0" xml:space="preserve"> h</tspan><tspan class="cls-13" x="31.5" y="0">a</tspan><tspan class="cls-12" x="39.61" y="0">y </tspan><tspan class="cls-14" x="50.25" y="0">q</tspan><tspan class="cls-12" x="58.66" y="0">ue </tspan><tspan x="79.66" y="0">incenti</tspan><tspan class="cls-15" x="125.81" y="0">v</tspan><tspan x="132.73" y="0">ar</tspan><tspan class="cls-12"><tspan x="0" y="19.2">la natalidad</tspan></tspan></text>
    <text class="cls-11" transform="translate(91.12 175.71)">Asignación económica<tspan class="cls-12"><tspan x="0" y="19.2">para las </tspan><tspan class="cls-16" x="58.3" y="19.2">f</tspan><tspan x="62.96" y="19.2">amilias</tspan></tspan></text>
    <text class="cls-11" transform="translate(259.12 228.71)">Fl<tspan class="cls-15" x="12.04" y="0">e</tspan><tspan x="20.23" y="0">xibilidad </tspan><tspan class="cls-12" x="81.45" y="0">en el</tspan><tspan class="cls-12"><tspan x="0" y="19.2">horario de trabajo</tspan></tspan></text>
    <text class="cls-17" transform="translate(40.78 322.29)">&lt;30</text>
    <text class="cls-17" transform="translate(94.49 322.29)">30-34</text>
    <text class="cls-17" transform="translate(153.99 322.29)">35-39</text>
    <text class="cls-17" transform="translate(213.49 322.29)">40-44</text>
    <text class="cls-17" transform="translate(272.99 322.29)">45-49</text>
  </g>
</svg>
