<svg id="Capa_1" data-name="Capa 1" xmlns="http://www.w3.org/2000/svg" viewBox="0 0 384.74 320.24">
  <defs>
    <style>
      .cls-1, .cls-2, .cls-3 {
        fill: none;
        stroke-linejoin: round;
      }

      .cls-1 {
        stroke: #cb7e42;
        stroke-width: 1.5px;
      }

      .cls-2 {
        stroke: #fbd59a;
        opacity: 0.2;
      }

      .cls-2, .cls-3, .cls-4 {
        isolation: isolate;
      }

      .cls-3 {
        stroke: #dcdcdc;
        stroke-linecap: round;
        stroke-width: 0.54px;
        opacity: 0.5;
      }

      .cls-5 {
        fill: #dcdcdc;
      }

      .cls-6 {
        fill: #ddd;
      }
    </style>
  </defs>
  <title>7c</title>
  <g>
    <polyline class="cls-1" points="52.48 189.78 112.47 126.06 172.45 135.07 232.43 127.41 292.42 131.87"/>
    <polyline class="cls-2" points="52.48 303.96 112.47 292.48 172.45 283.45 232.43 274.75 292.42 297.13"/>
    <polyline class="cls-2" points="52.48 223.99 112.47 233.62 172.45 251.53 232.43 243.35 292.42 266.45"/>
    <polyline class="cls-1" points="52.48 210.63 112.47 217.57 172.45 218.4 232.43 213.94 292.42 201.21"/>
    <polyline class="cls-2" points="52.48 268.44 112.47 234.03 172.45 253.51 232.43 262.21 292.42 237.56"/>
    <polyline class="cls-2" points="52.48 287.38 112.47 286.04 172.45 300.86 232.43 301.79 292.42 298.25"/>
    <polyline class="cls-2" points="52.48 20.59 112.47 129.49 172.45 141.4 232.43 163.47 292.42 191.44"/>
    <polyline class="cls-2" points="52.48 298.94 112.47 293.33 172.45 292.92 232.43 282.87 292.42 302.67"/>
    <polyline class="cls-2" points="52.48 247.81 112.47 224.91 172.45 232.88 232.43 234.97 292.42 229.26"/>
    <polyline class="cls-1" points="52.48 228.75 112.47 250.6 172.45 199.74 232.43 196.22 292.42 138.59"/>
    <polyline class="cls-2" points="52.48 285.94 112.47 256 172.45 236.1 232.43 265.31 292.42 236.82"/>
    <polyline class="cls-2" points="52.48 258.38 112.47 280.44 172.45 278.58 232.43 257.96 292.42 293.19"/>
    <line class="cls-3" x1="8.73" y1="305.58" x2="305.93" y2="305.58"/>
    <g class="cls-4">
      <path class="cls-5" d="M11.63,304.3A3,3,0,0,1,9,303a5.74,5.74,0,0,1-.93-3.38A6,6,0,0,1,9,296a3.05,3.05,0,0,1,2.61-1.34,3.17,3.17,0,0,1,2,.63,3.75,3.75,0,0,1,1.22,1.75,6.52,6.52,0,0,1,.4,2.11,8.25,8.25,0,0,1-.38,2.71,3.93,3.93,0,0,1-1.19,1.73A3.1,3.1,0,0,1,11.63,304.3Zm0-1.32a1.55,1.55,0,0,0,1.15-.43,2.33,2.33,0,0,0,.59-1.23,11.17,11.17,0,0,0,.16-2.17,6.33,6.33,0,0,0-.38-2.18,1.46,1.46,0,0,0-1.48-1c-1.27,0-1.91,1.17-1.91,3.51a6.71,6.71,0,0,0,.41,2.56A1.45,1.45,0,0,0,11.62,303Z" transform="translate(-0.35 -2.2)"/>
    </g>
    <g class="cls-4">
      <g class="cls-4">
        <path class="cls-5" d="M7.83,216.8v.87H1.29v-.87h2.8v-7.2a10.6,10.6,0,0,1-2.57,2v-1.17a8.68,8.68,0,0,0,2.85-2.29h.84v8.65Z" transform="translate(-0.35 -2.2)"/>
      </g>
      <g class="cls-4">
        <path class="cls-5" d="M12.16,217.81a3,3,0,0,1-2.65-1.33,5.74,5.74,0,0,1-.93-3.38,6,6,0,0,1,1-3.56,3.05,3.05,0,0,1,2.61-1.34,3.17,3.17,0,0,1,2,.63,3.7,3.7,0,0,1,1.22,1.75,6.52,6.52,0,0,1,.4,2.11,8.25,8.25,0,0,1-.38,2.71,3.93,3.93,0,0,1-1.19,1.73A3.1,3.1,0,0,1,12.16,217.81Zm0-1.32a1.55,1.55,0,0,0,1.15-.43,2.33,2.33,0,0,0,.59-1.23,11.17,11.17,0,0,0,.16-2.17,6.33,6.33,0,0,0-.38-2.18,1.46,1.46,0,0,0-1.48-1c-1.27,0-1.91,1.17-1.91,3.51a6.71,6.71,0,0,0,.41,2.56A1.45,1.45,0,0,0,12.15,216.49Z" transform="translate(-0.35 -2.2)"/>
      </g>
    </g>
    <line class="cls-3" x1="1.65" y1="218.67" x2="16.74" y2="218.67"/>
    <g class="cls-4">
      <path class="cls-5" d="M7.46,113.21v1.46H.59V113l2.86-1.9a6.85,6.85,0,0,0,1.79-1.58,2.36,2.36,0,0,0,.45-1.26,1.61,1.61,0,0,0-.45-1.16,1.58,1.58,0,0,0-1.19-.47c-1.07,0-1.68.64-1.84,1.94l-1.62-.4a3.61,3.61,0,0,1,1.1-2.13,3.33,3.33,0,0,1,2.41-.88,3.46,3.46,0,0,1,2.47.87,3,3,0,0,1,.92,2.24,3.13,3.13,0,0,1-.82,2.13,17.68,17.68,0,0,1-4.07,2.77Z" transform="translate(-0.35 -2.2)"/>
      <path class="cls-5" d="M12.3,114.81a3,3,0,0,1-2.65-1.33,5.74,5.74,0,0,1-.93-3.38,6,6,0,0,1,1-3.56,3.05,3.05,0,0,1,2.61-1.34,3.17,3.17,0,0,1,2,.63,3.7,3.7,0,0,1,1.22,1.75,6.52,6.52,0,0,1,.4,2.11,8.25,8.25,0,0,1-.38,2.71,3.93,3.93,0,0,1-1.19,1.73A3.1,3.1,0,0,1,12.3,114.81Zm0-1.32a1.55,1.55,0,0,0,1.15-.43,2.33,2.33,0,0,0,.59-1.23,11.17,11.17,0,0,0,.16-2.17,6.33,6.33,0,0,0-.38-2.18,1.46,1.46,0,0,0-1.48-1c-1.27,0-1.91,1.17-1.91,3.51a6.71,6.71,0,0,0,.41,2.56A1.45,1.45,0,0,0,12.29,113.49Z" transform="translate(-0.35 -2.2)"/>
    </g>
    <line class="cls-3" x1="1.65" y1="115.67" x2="16.74" y2="115.67"/>
    <g class="cls-4">
      <path class="cls-5" d="M3,7.55V6.22H3.8a2.24,2.24,0,0,0,1.28-.34,1.15,1.15,0,0,0,.51-1,1.19,1.19,0,0,0-.43-1A1.8,1.8,0,0,0,4,3.53,1.86,1.86,0,0,0,2.16,4.88L.62,4.62a3,3,0,0,1,1.2-1.75A3.79,3.79,0,0,1,4.09,2.2a3.66,3.66,0,0,1,2.25.68A2.14,2.14,0,0,1,7.27,4.7a2.17,2.17,0,0,1-.5,1.45,1.7,1.7,0,0,1-1.24.65A2.39,2.39,0,0,1,7,7.56a2.15,2.15,0,0,1,.56,1.5,2.42,2.42,0,0,1-1,2A4,4,0,0,1,4,11.81a3.87,3.87,0,0,1-2.45-.75A3.24,3.24,0,0,1,.35,9.33l1.59-.39A2,2,0,0,0,4,10.49a2,2,0,0,0,1.32-.42,1.28,1.28,0,0,0,.5-1A1.5,1.5,0,0,0,5.4,8a1.75,1.75,0,0,0-1.31-.45Z" transform="translate(-0.35 -2.2)"/>
      <path class="cls-5" d="M12.3,11.81a3,3,0,0,1-2.65-1.33A5.74,5.74,0,0,1,8.72,7.1a6,6,0,0,1,1-3.56A3.05,3.05,0,0,1,12.31,2.2a3.17,3.17,0,0,1,2,.63,3.7,3.7,0,0,1,1.22,1.75,6.52,6.52,0,0,1,.4,2.11,8.25,8.25,0,0,1-.38,2.71,3.93,3.93,0,0,1-1.19,1.73A3.1,3.1,0,0,1,12.3,11.81Zm0-1.32a1.55,1.55,0,0,0,1.15-.43A2.33,2.33,0,0,0,14,8.83a11.17,11.17,0,0,0,.16-2.17,6.33,6.33,0,0,0-.38-2.18,1.46,1.46,0,0,0-1.48-1c-1.27,0-1.91,1.17-1.91,3.51a6.71,6.71,0,0,0,.41,2.56A1.45,1.45,0,0,0,12.29,10.49Z" transform="translate(-0.35 -2.2)"/>
    </g>
    <line class="cls-3" x1="1.65" y1="12.67" x2="16.74" y2="12.67"/>
    <g class="cls-4">
      <g class="cls-4">
        <path class="cls-5" d="M230.08,104.7h-1.37l-1.07-3.12h-4l-1,3.12h-1.12L225.08,94h1.51Zm-2.72-4.12-1.66-5.12-1.65,5.12Z" transform="translate(-0.35 -2.2)"/>
      </g>
      <g class="cls-4">
        <path class="cls-5" d="M237.31,104.7H236.2v-1.51a2.69,2.69,0,0,1-2.51,1.73,2.38,2.38,0,0,1-1.9-.8,3.37,3.37,0,0,1-.69-2.27v-5h1.22v5a2.13,2.13,0,0,0,.49,1.61,1.56,1.56,0,0,0,1.08.44,1.85,1.85,0,0,0,1.07-.33,2.64,2.64,0,0,0,.8-1,3,3,0,0,0,.32-1.36V96.81h1.23Z" transform="translate(-0.35 -2.2)"/>
        <path class="cls-5" d="M250.33,104.7h-1.19V99.79a4.48,4.48,0,0,0-.11-1.13,1.34,1.34,0,0,0-.51-.7,1.46,1.46,0,0,0-.92-.31,1.92,1.92,0,0,0-1.35.64,2.64,2.64,0,0,0-.65,2v4.45h-1.19V99.5a1.84,1.84,0,0,0-.5-1.46,1.56,1.56,0,0,0-1-.43,1.75,1.75,0,0,0-1.36.67,2.54,2.54,0,0,0-.58,1.7v4.72h-1.17V96.81h1.06v1.52a2.67,2.67,0,0,1,2.43-1.74,2.05,2.05,0,0,1,1.44.56,2.54,2.54,0,0,1,.77,1.33A2.65,2.65,0,0,1,248,96.59a2.27,2.27,0,0,1,1.41.46,2.2,2.2,0,0,1,.79,1.06,6.12,6.12,0,0,1,.18,1.68Z" transform="translate(-0.35 -2.2)"/>
        <path class="cls-5" d="M258,102.35l1.14.23a3.23,3.23,0,0,1-1.22,1.68,3.55,3.55,0,0,1-2.14.66,3.3,3.3,0,0,1-2.61-1.14,4.33,4.33,0,0,1-1-3,4.38,4.38,0,0,1,1-3,3.36,3.36,0,0,1,2.61-1.16,3.14,3.14,0,0,1,2.48,1.07,4.83,4.83,0,0,1,1,3.2h-5.74a3.07,3.07,0,0,0,.75,2.42,2.42,2.42,0,0,0,1.59.62A2.18,2.18,0,0,0,258,102.35Zm-.08-2.4a3.55,3.55,0,0,0-.21-1.18,2.09,2.09,0,0,0-.69-.88,1.89,1.89,0,0,0-1.17-.36,2.12,2.12,0,0,0-1.55.65,2.74,2.74,0,0,0-.71,1.77Z" transform="translate(-0.35 -2.2)"/>
        <path class="cls-5" d="M267.33,104.7h-1.15V99.63a2.08,2.08,0,0,0-.47-1.54,1.63,1.63,0,0,0-1.16-.44,2,2,0,0,0-1.57.75,2.9,2.9,0,0,0-.64,2v4.33h-1.23V96.81h1.14v1.45a2.85,2.85,0,0,1,2.5-1.67,2.45,2.45,0,0,1,1.5.46,2.4,2.4,0,0,1,.85,1,6.31,6.31,0,0,1,.23,2.06Z" transform="translate(-0.35 -2.2)"/>
      </g>
      <g class="cls-4">
        <path class="cls-5" d="M273.36,103.86v1a8.21,8.21,0,0,1-1.12.09c-1.53,0-2.29-.8-2.29-2.39V97.77h-1.4v-1H270l.05-2,1.15-.11v2.09h1.76v1h-1.76v5a1.1,1.1,0,0,0,1.26,1.22A5.7,5.7,0,0,0,273.36,103.86Z" transform="translate(-0.35 -2.2)"/>
      </g>
      <g class="cls-4">
        <path class="cls-5" d="M277.29,104.92a3,3,0,0,1-2.53-1.21,4.76,4.76,0,0,1-.91-3,4.3,4.3,0,0,1,1-3,3.3,3.3,0,0,1,2.55-1.13A3.09,3.09,0,0,1,280,97.78a4.59,4.59,0,0,1,.95,3,4.41,4.41,0,0,1-1,3A3.32,3.32,0,0,1,277.29,104.92Zm.1-1a1.94,1.94,0,0,0,1.57-.77,3.8,3.8,0,0,0,.63-2.41,3.54,3.54,0,0,0-.66-2.38,2,2,0,0,0-1.56-.73,2,2,0,0,0-1.54.74,3.59,3.59,0,0,0-.64,2.37,3.73,3.73,0,0,0,.64,2.45A2,2,0,0,0,277.39,103.9Z" transform="translate(-0.35 -2.2)"/>
        <path class="cls-5" d="M292.94,94V104.7h-1.11v-1.35a2.66,2.66,0,0,1-2.49,1.57,2.78,2.78,0,0,1-2.28-1.16,4.74,4.74,0,0,1-.89-2.94,5,5,0,0,1,.88-3,2.76,2.76,0,0,1,2.35-1.21,2.72,2.72,0,0,1,2.32,1.3V94Zm-1.22,5.82a2.22,2.22,0,0,0-.64-1.67,2,2,0,0,0-1.47-.62,1.81,1.81,0,0,0-1.51.81,3.84,3.84,0,0,0-.59,2.28,4.38,4.38,0,0,0,.55,2.42,1.67,1.67,0,0,0,1.48.82,2,2,0,0,0,1.52-.72,2.39,2.39,0,0,0,.66-1.68Z" transform="translate(-0.35 -2.2)"/>
        <path class="cls-5" d="M300.61,102.35l1.14.23a3.23,3.23,0,0,1-1.22,1.68,3.55,3.55,0,0,1-2.13.66,3.32,3.32,0,0,1-2.62-1.14,4.33,4.33,0,0,1-1-3,4.42,4.42,0,0,1,1-3,3.36,3.36,0,0,1,2.61-1.16,3.17,3.17,0,0,1,2.49,1.07,4.83,4.83,0,0,1,1,3.2h-5.73a3.07,3.07,0,0,0,.75,2.42,2.4,2.4,0,0,0,1.58.62A2.17,2.17,0,0,0,300.61,102.35Zm-.07-2.4a3.54,3.54,0,0,0-.22-1.18,2.09,2.09,0,0,0-.69-.88,1.88,1.88,0,0,0-1.16-.36,2.09,2.09,0,0,0-1.55.65,2.7,2.7,0,0,0-.72,1.77Z" transform="translate(-0.35 -2.2)"/>
        <path class="cls-5" d="M305,104.7h-1.23V94H305Z" transform="translate(-0.35 -2.2)"/>
        <path class="cls-5" d="M312.63,107.36H311.4V96.81h1.11v1.53a2.7,2.7,0,0,1,4.75-.58,5.63,5.63,0,0,1,0,6,2.75,2.75,0,0,1-2.26,1.13,2.61,2.61,0,0,1-2.34-1.42Zm0-7.75v2.23a2.34,2.34,0,0,0,.76,1.48,2,2,0,0,0,1.33.58,1.85,1.85,0,0,0,1.43-.7,3.72,3.72,0,0,0,.62-2.43,4,4,0,0,0-.56-2.3,1.74,1.74,0,0,0-1.49-.81,1.85,1.85,0,0,0-1.32.57A2.79,2.79,0,0,0,312.63,99.61Z" transform="translate(-0.35 -2.2)"/>
        <path class="cls-5" d="M325.16,102.35l1.14.23a3.18,3.18,0,0,1-1.22,1.68,3.5,3.5,0,0,1-2.13.66,3.32,3.32,0,0,1-2.62-1.14,5,5,0,0,1,0-6A3.39,3.39,0,0,1,323,96.59a3.17,3.17,0,0,1,2.49,1.07,4.83,4.83,0,0,1,1,3.2H320.7a3.07,3.07,0,0,0,.75,2.42,2.42,2.42,0,0,0,1.59.62A2.17,2.17,0,0,0,325.16,102.35Zm-.07-2.4a3.31,3.31,0,0,0-.22-1.18,2,2,0,0,0-.68-.88,1.94,1.94,0,0,0-1.17-.36,2.09,2.09,0,0,0-1.55.65,2.74,2.74,0,0,0-.71,1.77Z" transform="translate(-0.35 -2.2)"/>
        <path class="cls-5" d="M329.51,104.7h-1.23V96.81h1.08v1.84A4,4,0,0,1,330.5,97a2.06,2.06,0,0,1,1.18-.38l.48,0v1.17h-.25a2.15,2.15,0,0,0-1.69.76,3.1,3.1,0,0,0-.71,2Z" transform="translate(-0.35 -2.2)"/>
        <path class="cls-5" d="M344.12,104.7h-1.19V99.79a4.48,4.48,0,0,0-.11-1.13,1.34,1.34,0,0,0-.51-.7,1.45,1.45,0,0,0-.91-.31,1.94,1.94,0,0,0-1.36.64,2.68,2.68,0,0,0-.65,2v4.45H338.2V99.5a1.84,1.84,0,0,0-.49-1.46,1.58,1.58,0,0,0-1-.43,1.75,1.75,0,0,0-1.36.67,2.54,2.54,0,0,0-.58,1.7v4.72h-1.17V96.81h1.06v1.52A2.69,2.69,0,0,1,337,96.59a2,2,0,0,1,1.44.56,2.54,2.54,0,0,1,.77,1.33,2.65,2.65,0,0,1,2.49-1.89,2.23,2.23,0,0,1,1.41.46,2.14,2.14,0,0,1,.79,1.06,6.12,6.12,0,0,1,.18,1.68Z" transform="translate(-0.35 -2.2)"/>
        <path class="cls-5" d="M347.84,94V95.4h-1.32V94Zm0,2.77v7.89h-1.22V96.81Z" transform="translate(-0.35 -2.2)"/>
        <path class="cls-5" d="M349.19,102.65l1.17-.24c.26,1,1.08,1.49,2.47,1.49a2.3,2.3,0,0,0,1.29-.34,1.08,1.08,0,0,0,.53-1c0-.62-.45-1-1.35-1.18l-1.66-.31a3.08,3.08,0,0,1-1.56-.74,1.89,1.89,0,0,1-.57-1.44,2.09,2.09,0,0,1,.78-1.66,3.18,3.18,0,0,1,2.13-.67c1.71,0,2.77.67,3.17,2l-1.12.24a1.94,1.94,0,0,0-2-1.23,2.2,2.2,0,0,0-1.23.31,1,1,0,0,0-.48.86c0,.58.41,1,1.23,1.1l1.54.27c1.61.3,2.41,1.08,2.41,2.34a2.09,2.09,0,0,1-.9,1.76,3.85,3.85,0,0,1-2.39.67C350.78,104.92,349.63,104.16,349.19,102.65Z" transform="translate(-0.35 -2.2)"/>
        <path class="cls-5" d="M360.5,104.92a3,3,0,0,1-2.54-1.21,4.82,4.82,0,0,1-.91-3,4.26,4.26,0,0,1,1-3,3.3,3.3,0,0,1,2.54-1.13,3.13,3.13,0,0,1,2.58,1.19,4.64,4.64,0,0,1,.94,3,4.41,4.41,0,0,1-1,3A3.3,3.3,0,0,1,360.5,104.92Zm.09-1a1.93,1.93,0,0,0,1.57-.77,3.8,3.8,0,0,0,.63-2.41,3.54,3.54,0,0,0-.66-2.38,2,2,0,0,0-1.55-.73,2,2,0,0,0-1.55.74,3.65,3.65,0,0,0-.63,2.37,3.79,3.79,0,0,0,.63,2.45A2,2,0,0,0,360.59,103.9Z" transform="translate(-0.35 -2.2)"/>
        <path class="cls-5" d="M376.15,94V104.7H375v-1.35a2.68,2.68,0,0,1-2.5,1.57,2.78,2.78,0,0,1-2.28-1.16,4.74,4.74,0,0,1-.89-2.94,5,5,0,0,1,.89-3,2.74,2.74,0,0,1,2.34-1.21,2.71,2.71,0,0,1,2.32,1.3V94Zm-1.23,5.82a2.25,2.25,0,0,0-.63-1.67,2.07,2.07,0,0,0-1.48-.62,1.78,1.78,0,0,0-1.5.81,3.77,3.77,0,0,0-.59,2.28,4.47,4.47,0,0,0,.54,2.42,1.69,1.69,0,0,0,1.49.82,2,2,0,0,0,1.51-.72,2.39,2.39,0,0,0,.66-1.68Z" transform="translate(-0.35 -2.2)"/>
        <path class="cls-5" d="M383.81,102.35l1.14.23a3.18,3.18,0,0,1-1.22,1.68,3.5,3.5,0,0,1-2.13.66,3.32,3.32,0,0,1-2.62-1.14,5,5,0,0,1,0-6,3.36,3.36,0,0,1,2.61-1.16,3.17,3.17,0,0,1,2.49,1.07,4.78,4.78,0,0,1,1,3.2h-5.73a3.07,3.07,0,0,0,.75,2.42,2.42,2.42,0,0,0,1.59.62A2.17,2.17,0,0,0,383.81,102.35Zm-.07-2.4a3.31,3.31,0,0,0-.22-1.18,1.94,1.94,0,0,0-.69-.88,1.88,1.88,0,0,0-1.16-.36,2.09,2.09,0,0,0-1.55.65,2.75,2.75,0,0,0-.72,1.77Z" transform="translate(-0.35 -2.2)"/>
      </g>
      <g class="cls-4">
        <path class="cls-5" d="M234.41,123.9h-1.87V119c0-1-.45-1.54-1.36-1.54a1.58,1.58,0,0,0-1.26.58,2.72,2.72,0,0,0-.47,1.73v4.14h-1.89V119c0-1-.43-1.56-1.27-1.56a1.62,1.62,0,0,0-1.3.63,2.49,2.49,0,0,0-.53,1.7v4.14h-1.84V116h1.73v1.68a2.76,2.76,0,0,1,2.63-1.84,2.21,2.21,0,0,1,2.27,1.84,2.9,2.9,0,0,1,2.63-1.84,2.45,2.45,0,0,1,1.84.71,2.42,2.42,0,0,1,.69,1.76Z" transform="translate(-0.35 -2.2)"/>
        <path class="cls-5" d="M243.3,123.9h-1.69a6.43,6.43,0,0,1-.28-1.59,2.63,2.63,0,0,1-2.67,1.75,2.6,2.6,0,0,1-1.89-.69,2.31,2.31,0,0,1-.72-1.74q0-2.72,4.78-2.71h.5v-.59c0-.82-.55-1.23-1.67-1.23s-1.7.41-1.84,1.23l-1.52-.23a2.29,2.29,0,0,1,1-1.62,4.43,4.43,0,0,1,2.58-.63,6.16,6.16,0,0,1,1.49.15,2.26,2.26,0,0,1,1,.51,2.14,2.14,0,0,1,.56.79,4.88,4.88,0,0,1,.15,1.44v3.57A6,6,0,0,0,243.3,123.9Zm-2-4q-3.45,0-3.45,1.65a1.15,1.15,0,0,0,.35.84,1.43,1.43,0,0,0,1.05.35,1.83,1.83,0,0,0,1.53-.64,2.26,2.26,0,0,0,.52-1.47Z" transform="translate(-0.35 -2.2)"/>
      </g>
      <g class="cls-4">
        <path class="cls-5" d="M248.86,122.51v1.39a6.69,6.69,0,0,1-1.24.17,2.49,2.49,0,0,1-1.23-.28,1.73,1.73,0,0,1-.76-.78,3.74,3.74,0,0,1-.23-1.53v-4.09h-1V116h1.09l.16-2.06,1.46-.13V116h1.59v1.38h-1.59v3.85a1,1,0,0,0,1.29,1.28Z" transform="translate(-0.35 -2.2)"/>
      </g>
      <g class="cls-4">
        <path class="cls-5" d="M255.15,121.38l1.6.22a3.34,3.34,0,0,1-1.21,1.77,3.68,3.68,0,0,1-2.28.69,3.38,3.38,0,0,1-2.64-1.1,4.29,4.29,0,0,1-1-3,4.39,4.39,0,0,1,1-3,3.41,3.41,0,0,1,2.73-1.17A3.13,3.13,0,0,1,256,117a4.59,4.59,0,0,1,.93,3v.2h-5.42a4.1,4.1,0,0,0,.16,1.29,1.71,1.71,0,0,0,.6.85,1.91,1.91,0,0,0,2.92-.93ZM255,119a2,2,0,0,0-.52-1.39,1.61,1.61,0,0,0-1.24-.53,1.64,1.64,0,0,0-1.23.5,2.28,2.28,0,0,0-.58,1.42Z" transform="translate(-0.35 -2.2)"/>
        <path class="cls-5" d="M260.3,123.9h-1.78V116h1.61v1.88a3.33,3.33,0,0,1,.95-1.61,1.89,1.89,0,0,1,1.23-.51h.23v1.92a1.84,1.84,0,0,0-1.8.86,3.76,3.76,0,0,0-.44,1.68Z" transform="translate(-0.35 -2.2)"/>
        <path class="cls-5" d="M270.36,123.9h-1.78V119a1.72,1.72,0,0,0-.36-1.18,1.14,1.14,0,0,0-.87-.39,1.55,1.55,0,0,0-1.22.61,2.77,2.77,0,0,0-.52,1.84v4.05h-1.78V116h1.62v1.83c.57-1.33,1.36-2,2.39-2a2.57,2.57,0,0,1,1.78.65,3,3,0,0,1,.74,2.31Z" transform="translate(-0.35 -2.2)"/>
        <path class="cls-5" d="M274.26,115.09h-1.78v-1.85h1.78Zm0,8.81h-1.78V116h1.78Z" transform="translate(-0.35 -2.2)"/>
        <path class="cls-5" d="M282.89,123.9h-1.67v-1.59a2.38,2.38,0,0,1-2.32,1.75,2.48,2.48,0,0,1-2.23-1.21,5.42,5.42,0,0,1-.77-3,5.22,5.22,0,0,1,.8-2.92,2.57,2.57,0,0,1,2.29-1.24,2.13,2.13,0,0,1,2.12,1.39v-3.84h1.78Zm-1.78-4.66a2.23,2.23,0,0,0-.46-1.49,1.48,1.48,0,0,0-1.18-.54,1.4,1.4,0,0,0-1.24.69,3.79,3.79,0,0,0-.44,2c0,1.77.55,2.65,1.65,2.65a1.5,1.5,0,0,0,1.16-.57,2.09,2.09,0,0,0,.51-1.45Z" transform="translate(-0.35 -2.2)"/>
        <path class="cls-5" d="M291.77,123.9h-1.69a6,6,0,0,1-.28-1.59,2.63,2.63,0,0,1-2.67,1.75,2.59,2.59,0,0,1-1.89-.69,2.31,2.31,0,0,1-.72-1.74q0-2.72,4.77-2.71h.51v-.59c0-.82-.56-1.23-1.67-1.23s-1.7.41-1.84,1.23l-1.52-.23a2.29,2.29,0,0,1,1-1.62,4.41,4.41,0,0,1,2.57-.63,6.2,6.2,0,0,1,1.5.15,2.26,2.26,0,0,1,1,.51,2,2,0,0,1,.55.79,4.49,4.49,0,0,1,.16,1.44v3.57A5.66,5.66,0,0,0,291.77,123.9Zm-2-4q-3.45,0-3.45,1.65a1.11,1.11,0,0,0,.35.84,1.43,1.43,0,0,0,1.05.35,1.84,1.84,0,0,0,1.53-.64,2.26,2.26,0,0,0,.52-1.47Z" transform="translate(-0.35 -2.2)"/>
        <path class="cls-5" d="M300.15,123.9h-1.66v-1.59a2.4,2.4,0,0,1-2.33,1.75,2.49,2.49,0,0,1-2.23-1.21,5.5,5.5,0,0,1-.77-3,5.23,5.23,0,0,1,.81-2.92,2.56,2.56,0,0,1,2.28-1.24,2.12,2.12,0,0,1,2.12,1.39v-3.84h1.78Zm-1.78-4.66a2.23,2.23,0,0,0-.45-1.49,1.49,1.49,0,0,0-1.19-.54,1.39,1.39,0,0,0-1.23.69,3.78,3.78,0,0,0-.45,2c0,1.77.55,2.65,1.66,2.65a1.52,1.52,0,0,0,1.16-.57,2.13,2.13,0,0,0,.5-1.45Z" transform="translate(-0.35 -2.2)"/>
        <path class="cls-5" d="M308.4,113.24l-7,13.32h-1.11l6.94-13.32Z" transform="translate(-0.35 -2.2)"/>
        <path class="cls-5" d="M311.76,126.56H310V116h1.7v1.37a2.61,2.61,0,0,1,2.42-1.53,2.42,2.42,0,0,1,2.09,1.14,5,5,0,0,1,.78,2.91,5.63,5.63,0,0,1-.74,2.92,2.43,2.43,0,0,1-2.23,1.24,2.34,2.34,0,0,1-2.21-1.26Zm0-5.89a2,2,0,0,0,.51,1.42,1.52,1.52,0,0,0,1.14.57,1.32,1.32,0,0,0,1.25-.75,4.07,4.07,0,0,0,.39-1.89,4.14,4.14,0,0,0-.4-2,1.27,1.27,0,0,0-1.18-.75,1.49,1.49,0,0,0-1.21.61,2.51,2.51,0,0,0-.5,1.62Z" transform="translate(-0.35 -2.2)"/>
        <path class="cls-5" d="M325.32,123.9h-1.7a6.44,6.44,0,0,1-.27-1.59,2.93,2.93,0,0,1-4.57,1.06,2.34,2.34,0,0,1-.71-1.74q0-2.72,4.77-2.71h.51v-.59c0-.82-.56-1.23-1.67-1.23s-1.7.41-1.85,1.23l-1.51-.23a2.31,2.31,0,0,1,1-1.62,4.47,4.47,0,0,1,2.58-.63,6.05,6.05,0,0,1,1.49.15,2.3,2.3,0,0,1,1,.51,2,2,0,0,1,.55.79,4.88,4.88,0,0,1,.15,1.44v3.57A5.69,5.69,0,0,0,325.32,123.9Zm-2-4q-3.45,0-3.45,1.65a1.14,1.14,0,0,0,.34.84,1.45,1.45,0,0,0,1.05.35,1.86,1.86,0,0,0,1.54-.64,2.26,2.26,0,0,0,.52-1.47Z" transform="translate(-0.35 -2.2)"/>
      </g>
      <g class="cls-4">
        <path class="cls-5" d="M330.88,122.51v1.39a6.69,6.69,0,0,1-1.24.17,2.49,2.49,0,0,1-1.23-.28,1.73,1.73,0,0,1-.76-.78,3.92,3.92,0,0,1-.23-1.53v-4.09h-1V116h1.09l.16-2.06,1.46-.13V116h1.59v1.38h-1.59v3.85a1,1,0,0,0,1.29,1.28Z" transform="translate(-0.35 -2.2)"/>
      </g>
      <g class="cls-4">
        <path class="cls-5" d="M337.17,121.38l1.61.22a3.41,3.41,0,0,1-1.22,1.77,3.68,3.68,0,0,1-2.28.69,3.38,3.38,0,0,1-2.64-1.1,4.29,4.29,0,0,1-1-3,4.39,4.39,0,0,1,1-3,3.41,3.41,0,0,1,2.73-1.17A3.13,3.13,0,0,1,338,117a4.59,4.59,0,0,1,.93,3v.2h-5.42a4.1,4.1,0,0,0,.16,1.29,1.71,1.71,0,0,0,.6.85,1.91,1.91,0,0,0,2.92-.93Zm-.11-2.36a2,2,0,0,0-.52-1.39,1.61,1.61,0,0,0-1.24-.53,1.64,1.64,0,0,0-1.23.5,2.28,2.28,0,0,0-.58,1.42Z" transform="translate(-0.35 -2.2)"/>
        <path class="cls-5" d="M342.32,123.9h-1.78V116h1.61v1.88a3.33,3.33,0,0,1,1-1.61,1.89,1.89,0,0,1,1.23-.51h.23v1.92a1.84,1.84,0,0,0-1.8.86,3.76,3.76,0,0,0-.44,1.68Z" transform="translate(-0.35 -2.2)"/>
        <path class="cls-5" d="M352.38,123.9H350.6V119a1.72,1.72,0,0,0-.36-1.18,1.14,1.14,0,0,0-.87-.39,1.57,1.57,0,0,0-1.22.61,2.77,2.77,0,0,0-.52,1.84v4.05h-1.78V116h1.62v1.83c.57-1.33,1.36-2,2.39-2a2.57,2.57,0,0,1,1.78.65,3,3,0,0,1,.74,2.31Z" transform="translate(-0.35 -2.2)"/>
        <path class="cls-5" d="M356.28,115.09H354.5v-1.85h1.78Zm0,8.81H354.5V116h1.78Z" transform="translate(-0.35 -2.2)"/>
        <path class="cls-5" d="M364.91,123.9h-1.67v-1.59a2.38,2.38,0,0,1-2.32,1.75,2.49,2.49,0,0,1-2.23-1.21,5.42,5.42,0,0,1-.77-3,5.22,5.22,0,0,1,.8-2.92,2.57,2.57,0,0,1,2.29-1.24,2.13,2.13,0,0,1,2.12,1.39v-3.84h1.78Zm-1.78-4.66a2.23,2.23,0,0,0-.46-1.49,1.47,1.47,0,0,0-1.18-.54,1.4,1.4,0,0,0-1.24.69,3.88,3.88,0,0,0-.44,2c0,1.77.55,2.65,1.65,2.65a1.5,1.5,0,0,0,1.16-.57,2.09,2.09,0,0,0,.51-1.45Z" transform="translate(-0.35 -2.2)"/>
        <path class="cls-5" d="M373.79,123.9H372.1a6,6,0,0,1-.28-1.59,2.63,2.63,0,0,1-2.67,1.75,2.59,2.59,0,0,1-1.89-.69,2.31,2.31,0,0,1-.72-1.74q0-2.72,4.77-2.71h.51v-.59c0-.82-.56-1.23-1.67-1.23s-1.7.41-1.84,1.23l-1.52-.23a2.29,2.29,0,0,1,1-1.62,4.41,4.41,0,0,1,2.57-.63,6.2,6.2,0,0,1,1.5.15,2.26,2.26,0,0,1,1,.51,2,2,0,0,1,.55.79,4.49,4.49,0,0,1,.16,1.44v3.57A5.66,5.66,0,0,0,373.79,123.9Zm-2-4q-3.45,0-3.45,1.65a1.11,1.11,0,0,0,.35.84,1.43,1.43,0,0,0,1,.35,1.84,1.84,0,0,0,1.53-.64,2.26,2.26,0,0,0,.52-1.47Z" transform="translate(-0.35 -2.2)"/>
        <path class="cls-5" d="M382.17,123.9h-1.66v-1.59a2.39,2.39,0,0,1-2.33,1.75,2.46,2.46,0,0,1-2.22-1.21,5.42,5.42,0,0,1-.78-3,5.23,5.23,0,0,1,.81-2.92,2.56,2.56,0,0,1,2.29-1.24,2.11,2.11,0,0,1,2.11,1.39v-3.84h1.78Zm-1.78-4.66a2.23,2.23,0,0,0-.45-1.49,1.49,1.49,0,0,0-1.19-.54,1.39,1.39,0,0,0-1.23.69,3.78,3.78,0,0,0-.45,2c0,1.77.55,2.65,1.66,2.65a1.52,1.52,0,0,0,1.16-.57,2.13,2.13,0,0,0,.5-1.45Z" transform="translate(-0.35 -2.2)"/>
      </g>
    </g>
    <g class="cls-4">
      <g class="cls-4">
        <path class="cls-5" d="M95.35,50.71H93.48l-4-6.81-.3-.51-.29-.49v7.81H87.29V40.05h2.13l3.73,6.28.68,1.15V40.05h1.52Z" transform="translate(-0.35 -2.2)"/>
        <path class="cls-5" d="M100.67,50.87A3.11,3.11,0,0,1,98,49.62a4.79,4.79,0,0,1-.92-2.89,4.27,4.27,0,0,1,1-2.91,3.39,3.39,0,0,1,2.69-1.16,3.34,3.34,0,0,1,2.61,1.13,4.78,4.78,0,0,1,0,6A3.51,3.51,0,0,1,100.67,50.87Zm.07-1.46c1.2,0,1.79-.9,1.79-2.68a3.58,3.58,0,0,0-.43-1.91,1.42,1.42,0,0,0-1.32-.7,1.48,1.48,0,0,0-1.36.72A3.59,3.59,0,0,0,99,46.76a3.5,3.5,0,0,0,.47,2A1.51,1.51,0,0,0,100.74,49.41Z" transform="translate(-0.35 -2.2)"/>
      </g>
      <g class="cls-4">
        <path class="cls-5" d="M116.39,50.71h-1.22V45.92a5.54,5.54,0,0,0-.11-1.26,1.35,1.35,0,0,0-.5-.74,1.44,1.44,0,0,0-.91-.3,2,2,0,0,0-1.58.77,3.2,3.2,0,0,0-.64,2.07v4.25h-1.22V40.05h1.22v4.22a2.62,2.62,0,0,1,2.39-1.67,2.73,2.73,0,0,1,1.24.27,2.18,2.18,0,0,1,.83.72,2.74,2.74,0,0,1,.4.88,7,7,0,0,1,.1,1.45Z" transform="translate(-0.35 -2.2)"/>
      </g>
      <g class="cls-4">
        <path class="cls-5" d="M125,50.71h-1.21a11.86,11.86,0,0,1-.14-1.42,2.85,2.85,0,0,1-2.77,1.64,2.8,2.8,0,0,1-2-.71,2.3,2.3,0,0,1-.71-1.69,2.36,2.36,0,0,1,1-2,5.8,5.8,0,0,1,3.45-.77l1,0a4.4,4.4,0,0,0-.15-1.36,1.2,1.2,0,0,0-.61-.67,2.7,2.7,0,0,0-1.24-.25c-1.24,0-2,.48-2.17,1.43l-1.13-.2c.28-1.45,1.44-2.18,3.48-2.18a3.11,3.11,0,0,1,2.32.72,3.61,3.61,0,0,1,.68,2.51v3.35A6.57,6.57,0,0,0,125,50.71Zm-1.35-4c-.5,0-.88,0-1.14,0a4.42,4.42,0,0,0-2.26.48,1.51,1.51,0,0,0-.81,1.39,1.32,1.32,0,0,0,.44,1,1.76,1.76,0,0,0,1.25.4,2.36,2.36,0,0,0,1.83-.8,2.8,2.8,0,0,0,.71-1.9C123.69,47.14,123.68,47,123.67,46.76Z" transform="translate(-0.35 -2.2)"/>
      </g>
      <g class="cls-4">
        <path class="cls-5" d="M132.37,42.82l-3.16,8.81c-.46,1.27-1.19,1.91-2.2,1.91a3.82,3.82,0,0,1-1.05-.17v-1a3.31,3.31,0,0,0,.82.11,1.49,1.49,0,0,0,1-.33,3.83,3.83,0,0,0,.78-1.64l-2.73-7.73h1.25l2.12,5.93,2.16-5.93Z" transform="translate(-0.35 -2.2)"/>
      </g>
      <g class="cls-4">
        <path class="cls-5" d="M143.71,42.71V53.37h-1.22V49.28a2.52,2.52,0,0,1-2.39,1.65,2.77,2.77,0,0,1-2.23-1.08,4.66,4.66,0,0,1-.89-3,5,5,0,0,1,.89-3,2.77,2.77,0,0,1,2.34-1.2,2.86,2.86,0,0,1,1.25.27,3.1,3.1,0,0,1,1.14,1.24l.49-1.4Zm-1.22,3.44a2.81,2.81,0,0,0-.75-2,2,2,0,0,0-1.36-.57,1.73,1.73,0,0,0-1.49.86,4.15,4.15,0,0,0-.57,2.3,4.1,4.1,0,0,0,.55,2.25,1.66,1.66,0,0,0,1.48.85,1.84,1.84,0,0,0,1.55-.81,3.15,3.15,0,0,0,.59-1.87Z" transform="translate(-0.35 -2.2)"/>
      </g>
      <g class="cls-4">
        <path class="cls-5" d="M152.22,50.71h-1.11V49.2a2.69,2.69,0,0,1-2.51,1.73,2.38,2.38,0,0,1-1.9-.8,3.37,3.37,0,0,1-.69-2.27v-5h1.22v5a2.13,2.13,0,0,0,.49,1.61,1.56,1.56,0,0,0,1.08.44,1.85,1.85,0,0,0,1.07-.33,2.64,2.64,0,0,0,.8-1,3,3,0,0,0,.32-1.36V42.82h1.23Z" transform="translate(-0.35 -2.2)"/>
        <path class="cls-5" d="M159.88,48.36l1.14.23a3.18,3.18,0,0,1-1.22,1.68,3.5,3.5,0,0,1-2.13.66,3.32,3.32,0,0,1-2.62-1.14,5,5,0,0,1,0-6,3.39,3.39,0,0,1,2.61-1.16,3.17,3.17,0,0,1,2.49,1.07,4.81,4.81,0,0,1,1,3.2h-5.74a3.07,3.07,0,0,0,.75,2.42,2.42,2.42,0,0,0,1.59.62A2.17,2.17,0,0,0,159.88,48.36Zm-.07-2.4a3.31,3.31,0,0,0-.22-1.18,2,2,0,0,0-.68-.88,1.94,1.94,0,0,0-1.17-.36,2.09,2.09,0,0,0-1.55.65,2.74,2.74,0,0,0-.71,1.77Z" transform="translate(-0.35 -2.2)"/>
      </g>
      <g class="cls-4">
        <path class="cls-5" d="M168.27,40.05v1.36H167V40.05Zm0,2.77v7.89H167V42.82Z" transform="translate(-0.35 -2.2)"/>
        <path class="cls-5" d="M176.9,50.71h-1.15V45.64a2,2,0,0,0-.48-1.54,1.61,1.61,0,0,0-1.15-.44,2,2,0,0,0-1.58.75,3,3,0,0,0-.63,2v4.33h-1.23V42.82h1.14v1.45a2.84,2.84,0,0,1,2.49-1.67,2.46,2.46,0,0,1,1.51.46,2.52,2.52,0,0,1,.85,1,6.38,6.38,0,0,1,.23,2.07Z" transform="translate(-0.35 -2.2)"/>
        <path class="cls-5" d="M184,47.94l1.11.2a3.51,3.51,0,0,1-1,2,3.13,3.13,0,0,1-4.49-.47,4.94,4.94,0,0,1-.86-2.94,4.77,4.77,0,0,1,.91-3,2.92,2.92,0,0,1,2.45-1.19,2.83,2.83,0,0,1,2.07.77,3.41,3.41,0,0,1,1,2l-1.11.21c-.2-1.3-.83-2-1.88-2a1.72,1.72,0,0,0-1.56.86,4.06,4.06,0,0,0-.55,2.24,4.32,4.32,0,0,0,.54,2.35,1.73,1.73,0,0,0,1.53.84C183.1,49.91,183.74,49.26,184,47.94Z" transform="translate(-0.35 -2.2)"/>
        <path class="cls-5" d="M192,48.36l1.15.23a3.23,3.23,0,0,1-1.22,1.68,3.55,3.55,0,0,1-2.14.66,3.3,3.3,0,0,1-2.61-1.14,4.33,4.33,0,0,1-1-3,4.38,4.38,0,0,1,1-3.05,3.35,3.35,0,0,1,2.6-1.16,3.14,3.14,0,0,1,2.49,1.07,4.81,4.81,0,0,1,1,3.2h-5.74a3.07,3.07,0,0,0,.75,2.42,2.42,2.42,0,0,0,1.59.62A2.17,2.17,0,0,0,192,48.36Zm-.07-2.4a3.55,3.55,0,0,0-.21-1.18,2.09,2.09,0,0,0-.69-.88,1.91,1.91,0,0,0-1.17-.36,2.11,2.11,0,0,0-1.55.65,2.74,2.74,0,0,0-.71,1.77Z" transform="translate(-0.35 -2.2)"/>
        <path class="cls-5" d="M201.35,50.71H200.2V45.64a2.08,2.08,0,0,0-.47-1.54,1.63,1.63,0,0,0-1.16-.44,2,2,0,0,0-1.57.75,2.9,2.9,0,0,0-.64,2v4.33h-1.23V42.82h1.14v1.45a2.84,2.84,0,0,1,2.49-1.67,2.54,2.54,0,0,1,2.36,1.48,6.38,6.38,0,0,1,.23,2.07Z" transform="translate(-0.35 -2.2)"/>
        <path class="cls-5" d="M207.38,49.87v1a8.34,8.34,0,0,1-1.12.09c-1.53,0-2.29-.8-2.29-2.39V43.78h-1.4v-1H204l.05-2,1.14-.1v2.09h1.77v1h-1.77v5c0,.81.42,1.22,1.27,1.22A5.7,5.7,0,0,0,207.38,49.87Z" transform="translate(-0.35 -2.2)"/>
        <path class="cls-5" d="M210,40.05v1.36h-1.32V40.05Zm0,2.77v7.89h-1.22V42.82Z" transform="translate(-0.35 -2.2)"/>
      </g>
      <g class="cls-4">
        <path class="cls-5" d="M218.94,42.82l-2.73,7.89H215l-2.83-7.89h1.36l2.2,6.41,2.17-6.41Z" transform="translate(-0.35 -2.2)"/>
      </g>
      <g class="cls-4">
        <path class="cls-5" d="M226.25,50.71H225a11.86,11.86,0,0,1-.14-1.42,2.86,2.86,0,0,1-2.77,1.64,2.8,2.8,0,0,1-2-.71,2.3,2.3,0,0,1-.71-1.69,2.36,2.36,0,0,1,1-2,5.78,5.78,0,0,1,3.45-.77l1.05,0a4.4,4.4,0,0,0-.15-1.36,1.2,1.2,0,0,0-.61-.67,2.7,2.7,0,0,0-1.24-.25c-1.24,0-2,.48-2.17,1.43l-1.13-.2c.28-1.45,1.44-2.18,3.48-2.18a3.11,3.11,0,0,1,2.32.72,3.61,3.61,0,0,1,.68,2.51v3.35A6.57,6.57,0,0,0,226.25,50.71Zm-1.35-4c-.5,0-.88,0-1.14,0a4.42,4.42,0,0,0-2.26.48,1.51,1.51,0,0,0-.81,1.39,1.32,1.32,0,0,0,.44,1,1.76,1.76,0,0,0,1.25.4,2.36,2.36,0,0,0,1.83-.8,2.8,2.8,0,0,0,.71-1.9C224.92,47.14,224.91,47,224.9,46.76Z" transform="translate(-0.35 -2.2)"/>
        <path class="cls-5" d="M229.76,50.71h-1.22V42.82h1.08v1.84A4,4,0,0,1,230.76,43a2.05,2.05,0,0,1,1.18-.39l.48,0v1.17h-.25a2.15,2.15,0,0,0-1.69.76,3,3,0,0,0-.72,2Z" transform="translate(-0.35 -2.2)"/>
      </g>
      <g class="cls-4">
        <path class="cls-5" d="M89,69.91H87.18V59.25H89Z" transform="translate(-0.35 -2.2)"/>
        <path class="cls-5" d="M97.85,69.91H96.16a6.44,6.44,0,0,1-.27-1.59,2.65,2.65,0,0,1-2.68,1.75,2.62,2.62,0,0,1-1.89-.69,2.31,2.31,0,0,1-.72-1.74c0-1.81,1.6-2.71,4.78-2.71h.51v-.59q0-1.23-1.68-1.23c-1.08,0-1.69.41-1.84,1.23l-1.52-.23a2.36,2.36,0,0,1,1-1.62,4.43,4.43,0,0,1,2.58-.63,6.11,6.11,0,0,1,1.49.15,2.3,2.3,0,0,1,1,.51,2.1,2.1,0,0,1,.55.79,4.88,4.88,0,0,1,.15,1.44v3.57A6,6,0,0,0,97.85,69.91Zm-2-4c-2.31,0-3.46.55-3.46,1.65a1.15,1.15,0,0,0,.35.84,1.43,1.43,0,0,0,1,.35,1.86,1.86,0,0,0,1.54-.64,2.32,2.32,0,0,0,.52-1.47Z" transform="translate(-0.35 -2.2)"/>
        <path class="cls-5" d="M110.28,69.91H108.5V65a1.72,1.72,0,0,0-.36-1.18,1.14,1.14,0,0,0-.86-.39,1.55,1.55,0,0,0-1.22.61,2.77,2.77,0,0,0-.53,1.84v4h-1.78V62h1.63v1.83c.57-1.33,1.36-2,2.39-2a2.59,2.59,0,0,1,1.78.65,3,3,0,0,1,.73,2.31Z" transform="translate(-0.35 -2.2)"/>
        <path class="cls-5" d="M119.17,69.91h-1.7a6.44,6.44,0,0,1-.27-1.59,2.93,2.93,0,0,1-4.57,1.06,2.34,2.34,0,0,1-.71-1.74q0-2.72,4.77-2.71h.51v-.59c0-.82-.56-1.23-1.67-1.23s-1.7.41-1.85,1.23l-1.51-.23a2.31,2.31,0,0,1,1-1.62,4.47,4.47,0,0,1,2.58-.63,6.05,6.05,0,0,1,1.49.15,2.3,2.3,0,0,1,1,.51,2,2,0,0,1,.55.79,4.88,4.88,0,0,1,.15,1.44v3.57A5.69,5.69,0,0,0,119.17,69.91Zm-2-4q-3.45,0-3.45,1.65a1.14,1.14,0,0,0,.34.84,1.43,1.43,0,0,0,1,.35,1.86,1.86,0,0,0,1.54-.64,2.32,2.32,0,0,0,.52-1.47Z" transform="translate(-0.35 -2.2)"/>
        <path class="cls-5" d="M124.72,68.52v1.39a6.61,6.61,0,0,1-1.23.17,2.55,2.55,0,0,1-1.24-.28,1.76,1.76,0,0,1-.75-.78,3.72,3.72,0,0,1-.24-1.53V63.4h-1V62h1.08l.17-2.06,1.46-.13V62h1.58V63.4H123v3.85a1,1,0,0,0,1.29,1.29Z" transform="translate(-0.35 -2.2)"/>
        <path class="cls-5" d="M133,69.91h-1.69a6.43,6.43,0,0,1-.28-1.59,2.63,2.63,0,0,1-2.67,1.75,2.59,2.59,0,0,1-1.89-.69,2.31,2.31,0,0,1-.72-1.74q0-2.72,4.78-2.71h.5v-.59c0-.82-.55-1.23-1.67-1.23s-1.7.41-1.84,1.23L126,64.11a2.29,2.29,0,0,1,1-1.62,4.43,4.43,0,0,1,2.58-.63,6.16,6.16,0,0,1,1.49.15,2.26,2.26,0,0,1,1,.51,2,2,0,0,1,.55.79,4.49,4.49,0,0,1,.16,1.44v3.57A6,6,0,0,0,133,69.91Zm-2-4q-3.45,0-3.45,1.65a1.15,1.15,0,0,0,.35.84,1.43,1.43,0,0,0,1,.35,1.83,1.83,0,0,0,1.53-.64,2.26,2.26,0,0,0,.52-1.47Z" transform="translate(-0.35 -2.2)"/>
        <path class="cls-5" d="M136.64,69.91h-1.78V59.25h1.78Z" transform="translate(-0.35 -2.2)"/>
        <path class="cls-5" d="M140.56,61.1h-1.78V59.25h1.78Zm0,8.81h-1.78V62h1.78Z" transform="translate(-0.35 -2.2)"/>
        <path class="cls-5" d="M149.18,69.91h-1.66V68.32a2.4,2.4,0,0,1-2.33,1.75A2.49,2.49,0,0,1,143,68.86a5.5,5.5,0,0,1-.77-3,5.23,5.23,0,0,1,.81-2.92,2.54,2.54,0,0,1,2.28-1.24,2.12,2.12,0,0,1,2.12,1.39V59.25h1.78Zm-1.78-4.66a2.18,2.18,0,0,0-.46-1.49,1.46,1.46,0,0,0-1.18-.54,1.38,1.38,0,0,0-1.23.69,3.78,3.78,0,0,0-.45,2c0,1.77.55,2.65,1.66,2.65A1.53,1.53,0,0,0,146.9,68a2.13,2.13,0,0,0,.5-1.45Z" transform="translate(-0.35 -2.2)"/>
        <path class="cls-5" d="M158.07,69.91h-1.7a6.44,6.44,0,0,1-.27-1.59,2.65,2.65,0,0,1-2.68,1.75,2.62,2.62,0,0,1-1.89-.69,2.3,2.3,0,0,1-.71-1.74q0-2.72,4.77-2.71h.51v-.59q0-1.23-1.68-1.23c-1.08,0-1.69.41-1.84,1.23l-1.51-.23a2.31,2.31,0,0,1,1-1.62,4.43,4.43,0,0,1,2.58-.63,6.05,6.05,0,0,1,1.49.15,2.3,2.3,0,0,1,1,.51,2.1,2.1,0,0,1,.55.79,4.88,4.88,0,0,1,.15,1.44v3.57A5.69,5.69,0,0,0,158.07,69.91Zm-2-4c-2.31,0-3.46.55-3.46,1.65a1.15,1.15,0,0,0,.35.84,1.43,1.43,0,0,0,1,.35,1.86,1.86,0,0,0,1.54-.64,2.32,2.32,0,0,0,.52-1.47Z" transform="translate(-0.35 -2.2)"/>
        <path class="cls-5" d="M166.45,69.91h-1.67V68.32a2.38,2.38,0,0,1-2.32,1.75,2.49,2.49,0,0,1-2.23-1.21,5.42,5.42,0,0,1-.77-3,5.22,5.22,0,0,1,.8-2.92,2.57,2.57,0,0,1,2.29-1.24,2.13,2.13,0,0,1,2.12,1.39V59.25h1.78Zm-1.78-4.66a2.23,2.23,0,0,0-.46-1.49,1.47,1.47,0,0,0-1.18-.54,1.4,1.4,0,0,0-1.24.69,3.88,3.88,0,0,0-.44,2c0,1.77.55,2.65,1.65,2.65a1.5,1.5,0,0,0,1.16-.57,2.09,2.09,0,0,0,.51-1.45Z" transform="translate(-0.35 -2.2)"/>
      </g>
    </g>
    <g class="cls-4">
      <g class="cls-4">
        <path class="cls-5" d="M100.66,175.71H98.6l-.85-2.54h-4.1l-.83,2.54H91.17l3.54-10.66h2.37Zm-3.42-4.08-1.56-4.76-1.55,4.76Z" transform="translate(-0.35 -2.2)"/>
        <path class="cls-5" d="M100.88,173.9l1.67-.32a1.61,1.61,0,0,0,1.69,1c1.1,0,1.65-.33,1.65-1a.61.61,0,0,0-.25-.51,1.48,1.48,0,0,0-.61-.28l-1.44-.27c-1.59-.31-2.39-1.09-2.39-2.34a2.33,2.33,0,0,1,.76-1.77,3.09,3.09,0,0,1,2.25-.73q2.51,0,3.06,1.83l-1.59.32c-.16-.59-.64-.89-1.42-.89-1,0-1.42.3-1.42.89,0,.41.38.7,1.15.85l1.69.35a2.32,2.32,0,0,1,1,4.22,4.38,4.38,0,0,1-2.41.64,4.59,4.59,0,0,1-2.14-.48A2.37,2.37,0,0,1,100.88,173.9Z" transform="translate(-0.35 -2.2)"/>
        <path class="cls-5" d="M110.88,166.9H109.1v-1.85h1.78Zm0,8.81H109.1v-7.89h1.78Z" transform="translate(-0.35 -2.2)"/>
        <path class="cls-5" d="M120.21,166.31v1.37h-.54a2.35,2.35,0,0,0-.63.08,1.11,1.11,0,0,0-.53.56,2.18,2.18,0,0,1,.94,1.7,2.11,2.11,0,0,1-.88,1.74,3.72,3.72,0,0,1-2.32.68,6.11,6.11,0,0,1-1.47-.2.82.82,0,0,0-.54.77.75.75,0,0,0,.26.54,1.19,1.19,0,0,0,.81.24h2.34a2.74,2.74,0,0,1,1.89.62,2,2,0,0,1,.68,1.54,2.18,2.18,0,0,1-1,1.85,5.31,5.31,0,0,1-3.07.74c-2.55,0-3.82-.71-3.82-2.13a1.73,1.73,0,0,1,1.15-1.61,1.74,1.74,0,0,1-.74-1.3,1.84,1.84,0,0,1,1.26-1.64,2,2,0,0,1-1.09-1.83,2.15,2.15,0,0,1,.8-1.68,3.69,3.69,0,0,1,2.45-.69,7.21,7.21,0,0,1,1.52.16,1.77,1.77,0,0,1,1.9-1.51Zm-6,9a1,1,0,0,0-.38.68,1.14,1.14,0,0,0,.64.95,4,4,0,0,0,2,.41c1.37,0,2.06-.35,2.06-1.06a.65.65,0,0,0-.36-.59,1.71,1.71,0,0,0-.82-.19H115.5A5.28,5.28,0,0,1,114.21,175.28Zm2-3.89c1,0,1.45-.46,1.45-1.37a1.19,1.19,0,0,0-.36-.88,1.46,1.46,0,0,0-1.06-.36,1.5,1.5,0,0,0-1.09.38,1.33,1.33,0,0,0,0,1.87A1.51,1.51,0,0,0,116.17,171.39Z" transform="translate(-0.35 -2.2)"/>
        <path class="cls-5" d="M127.84,175.71h-1.78v-4.93a1.72,1.72,0,0,0-.36-1.18,1.14,1.14,0,0,0-.87-.39,1.57,1.57,0,0,0-1.22.61,2.77,2.77,0,0,0-.52,1.84v4.05h-1.78v-7.89h1.62v1.83c.57-1.33,1.37-2,2.39-2a2.56,2.56,0,0,1,1.78.65,3,3,0,0,1,.74,2.31Z" transform="translate(-0.35 -2.2)"/>
        <path class="cls-5" d="M136.72,175.71H135a6.43,6.43,0,0,1-.28-1.59,2.63,2.63,0,0,1-2.67,1.75,2.59,2.59,0,0,1-1.89-.69,2.31,2.31,0,0,1-.72-1.74q0-2.72,4.78-2.71h.5v-.59c0-.82-.55-1.23-1.67-1.23s-1.7.41-1.84,1.23l-1.52-.23a2.29,2.29,0,0,1,1-1.62,4.43,4.43,0,0,1,2.58-.63,6.16,6.16,0,0,1,1.49.15,2.26,2.26,0,0,1,1,.51,2,2,0,0,1,.55.79,4.49,4.49,0,0,1,.16,1.44v3.57A6,6,0,0,0,136.72,175.71Zm-2-4q-3.45,0-3.45,1.65a1.15,1.15,0,0,0,.35.84,1.43,1.43,0,0,0,1,.35,1.83,1.83,0,0,0,1.53-.64,2.26,2.26,0,0,0,.52-1.47Z" transform="translate(-0.35 -2.2)"/>
        <path class="cls-5" d="M143.17,172.81l1.54.16a3.66,3.66,0,0,1-1.15,2.19,3.09,3.09,0,0,1-2.06.71,2.92,2.92,0,0,1-2.51-1.19,4.8,4.8,0,0,1-.88-2.92,4.48,4.48,0,0,1,1-2.94,3.15,3.15,0,0,1,2.57-1.16,2.89,2.89,0,0,1,3.07,2.71l-1.54.21c-.13-1-.61-1.46-1.44-1.46a1.39,1.39,0,0,0-1.32.79,4.19,4.19,0,0,0-.41,1.92,3.3,3.3,0,0,0,.43,1.84,1.35,1.35,0,0,0,1.19.65C142.4,174.32,142.92,173.82,143.17,172.81Z" transform="translate(-0.35 -2.2)"/>
        <path class="cls-5" d="M147.85,166.9h-1.78v-1.85h1.78Zm0,8.81h-1.78v-7.89h1.78Z" transform="translate(-0.35 -2.2)"/>
        <path class="cls-5" d="M153.07,175.87a3.11,3.11,0,0,1-2.67-1.25,4.79,4.79,0,0,1-.92-2.89,4.27,4.27,0,0,1,1-2.91,3.39,3.39,0,0,1,2.69-1.16,3.34,3.34,0,0,1,2.61,1.13,4.78,4.78,0,0,1,0,6A3.51,3.51,0,0,1,153.07,175.87Zm.07-1.46c1.19,0,1.79-.9,1.79-2.68a3.58,3.58,0,0,0-.43-1.91,1.42,1.42,0,0,0-1.32-.7,1.48,1.48,0,0,0-1.36.72,3.59,3.59,0,0,0-.45,1.92,3.5,3.5,0,0,0,.47,2A1.51,1.51,0,0,0,153.14,174.41Zm1.93-10.32.51,1.17-3.26,1.38-.32-.84Z" transform="translate(-0.35 -2.2)"/>
        <path class="cls-5" d="M165,175.71H163.2v-4.93a1.72,1.72,0,0,0-.36-1.18,1.14,1.14,0,0,0-.87-.39,1.57,1.57,0,0,0-1.22.61,2.77,2.77,0,0,0-.52,1.84v4.05h-1.78v-7.89h1.62v1.83c.57-1.33,1.37-2,2.39-2a2.56,2.56,0,0,1,1.78.65,3,3,0,0,1,.74,2.31Z" transform="translate(-0.35 -2.2)"/>
        <path class="cls-5" d="M176.13,173.19l1.61.22a3.41,3.41,0,0,1-1.22,1.77,3.65,3.65,0,0,1-2.27.69,3.39,3.39,0,0,1-2.65-1.1,4.29,4.29,0,0,1-1-3,4.39,4.39,0,0,1,1-3,3.43,3.43,0,0,1,2.74-1.17,3.16,3.16,0,0,1,2.61,1.15,4.64,4.64,0,0,1,.92,3v.2h-5.41a4.47,4.47,0,0,0,.15,1.29,1.71,1.71,0,0,0,.6.85,1.79,1.79,0,0,0,1.14.36A1.76,1.76,0,0,0,176.13,173.19Zm-.11-2.36a2,2,0,0,0-.51-1.39,1.75,1.75,0,0,0-2.48,0,2.28,2.28,0,0,0-.57,1.42Z" transform="translate(-0.35 -2.2)"/>
        <path class="cls-5" d="M184.06,172.81l1.53.16a3.66,3.66,0,0,1-1.15,2.19,3.06,3.06,0,0,1-2.05.71,2.94,2.94,0,0,1-2.52-1.19,4.79,4.79,0,0,1-.87-2.92,4.48,4.48,0,0,1,1-2.94,3.13,3.13,0,0,1,2.56-1.16,2.88,2.88,0,0,1,3.07,2.71l-1.53.21c-.14-1-.62-1.46-1.45-1.46a1.37,1.37,0,0,0-1.31.79,4.06,4.06,0,0,0-.41,1.92,3.39,3.39,0,0,0,.42,1.84,1.36,1.36,0,0,0,1.19.65C183.28,174.32,183.8,173.82,184.06,172.81Z" transform="translate(-0.35 -2.2)"/>
        <path class="cls-5" d="M190,175.87a3.1,3.1,0,0,1-2.67-1.25,4.79,4.79,0,0,1-.92-2.89,4.27,4.27,0,0,1,1-2.91,3.38,3.38,0,0,1,2.69-1.16,3.32,3.32,0,0,1,2.6,1.13,4.79,4.79,0,0,1,0,6A3.51,3.51,0,0,1,190,175.87Zm.06-1.46c1.2,0,1.8-.9,1.8-2.68a3.58,3.58,0,0,0-.43-1.91,1.42,1.42,0,0,0-1.32-.7,1.51,1.51,0,0,0-1.37.72,3.69,3.69,0,0,0-.44,1.92,3.5,3.5,0,0,0,.47,2A1.51,1.51,0,0,0,190.1,174.41Z" transform="translate(-0.35 -2.2)"/>
        <path class="cls-5" d="M202,175.71h-1.78v-4.93a1.72,1.72,0,0,0-.36-1.18,1.14,1.14,0,0,0-.87-.39,1.57,1.57,0,0,0-1.22.61,2.77,2.77,0,0,0-.52,1.84v4.05h-1.78v-7.89H197v1.83c.57-1.33,1.37-2,2.39-2a2.56,2.56,0,0,1,1.78.65,3,3,0,0,1,.74,2.31Z" transform="translate(-0.35 -2.2)"/>
        <path class="cls-5" d="M207.17,175.87a3.09,3.09,0,0,1-2.67-1.25,4.73,4.73,0,0,1-.93-2.89,4.27,4.27,0,0,1,1-2.91,3.39,3.39,0,0,1,2.69-1.16,3.34,3.34,0,0,1,2.61,1.13,4.78,4.78,0,0,1,0,6A3.5,3.5,0,0,1,207.17,175.87Zm.06-1.46c1.2,0,1.8-.9,1.8-2.68a3.68,3.68,0,0,0-.43-1.91,1.44,1.44,0,0,0-1.32-.7,1.5,1.5,0,0,0-1.37.72,3.59,3.59,0,0,0-.45,1.92,3.41,3.41,0,0,0,.48,2A1.49,1.49,0,0,0,207.23,174.41Zm1.93-10.32.51,1.17-3.25,1.38-.33-.84Z" transform="translate(-0.35 -2.2)"/>
        <path class="cls-5" d="M224.32,175.71h-1.86V170.8c0-1-.46-1.54-1.36-1.54a1.58,1.58,0,0,0-1.27.58,2.72,2.72,0,0,0-.47,1.73v4.14h-1.89V170.8c0-1-.42-1.56-1.27-1.56a1.62,1.62,0,0,0-1.3.63,2.54,2.54,0,0,0-.53,1.7v4.14h-1.84v-7.89h1.73v1.68a2.76,2.76,0,0,1,2.63-1.84,2.21,2.21,0,0,1,2.27,1.84,2.9,2.9,0,0,1,2.63-1.84,2.45,2.45,0,0,1,1.84.71,2.42,2.42,0,0,1,.69,1.76Z" transform="translate(-0.35 -2.2)"/>
        <path class="cls-5" d="M228.24,166.9h-1.78v-1.85h1.78Zm0,8.81h-1.78v-7.89h1.78Z" transform="translate(-0.35 -2.2)"/>
        <path class="cls-5" d="M234.93,172.81l1.53.16a3.66,3.66,0,0,1-1.14,2.19,3.09,3.09,0,0,1-2.06.71,2.91,2.91,0,0,1-2.51-1.19,4.73,4.73,0,0,1-.88-2.92,4.48,4.48,0,0,1,1-2.94,3.14,3.14,0,0,1,2.56-1.16,2.87,2.87,0,0,1,3.07,2.71l-1.53.21c-.13-1-.61-1.46-1.44-1.46a1.37,1.37,0,0,0-1.32.79,4.19,4.19,0,0,0-.41,1.92,3.3,3.3,0,0,0,.43,1.84,1.35,1.35,0,0,0,1.19.65C234.16,174.32,234.68,173.82,234.93,172.81Z" transform="translate(-0.35 -2.2)"/>
        <path class="cls-5" d="M244.58,175.71h-1.69a6,6,0,0,1-.28-1.59,2.63,2.63,0,0,1-2.67,1.75,2.59,2.59,0,0,1-1.89-.69,2.31,2.31,0,0,1-.72-1.74q0-2.72,4.77-2.71h.51v-.59c0-.82-.56-1.23-1.67-1.23s-1.7.41-1.84,1.23l-1.52-.23a2.29,2.29,0,0,1,1-1.62,4.41,4.41,0,0,1,2.57-.63,6.2,6.2,0,0,1,1.5.15,2.26,2.26,0,0,1,1,.51,2,2,0,0,1,.55.79,4.49,4.49,0,0,1,.16,1.44v3.57A5.66,5.66,0,0,0,244.58,175.71Zm-2-4q-3.45,0-3.45,1.65a1.11,1.11,0,0,0,.35.84,1.43,1.43,0,0,0,1.05.35,1.84,1.84,0,0,0,1.53-.64,2.26,2.26,0,0,0,.52-1.47Z" transform="translate(-0.35 -2.2)"/>
      </g>
      <g class="cls-4">
        <path class="cls-5" d="M93.57,197.57H92.35V187h1.11v1.53A2.69,2.69,0,0,1,98.2,188a5.63,5.63,0,0,1,0,6,2.74,2.74,0,0,1-2.26,1.13,2.61,2.61,0,0,1-2.34-1.42Zm0-7.75v2.23a2.34,2.34,0,0,0,.76,1.48,2,2,0,0,0,1.34.58,1.85,1.85,0,0,0,1.42-.7,3.66,3.66,0,0,0,.62-2.43,4,4,0,0,0-.56-2.3,1.73,1.73,0,0,0-1.49-.81,1.85,1.85,0,0,0-1.32.57A2.79,2.79,0,0,0,93.57,189.82Z" transform="translate(-0.35 -2.2)"/>
        <path class="cls-5" d="M107.07,194.91h-1.22c0-.25-.09-.72-.14-1.42a2.84,2.84,0,0,1-2.76,1.64,2.76,2.76,0,0,1-2-.71,2.29,2.29,0,0,1-.71-1.69,2.37,2.37,0,0,1,1-2,5.83,5.83,0,0,1,3.46-.77l1,0a4.47,4.47,0,0,0-.14-1.36A1.23,1.23,0,0,0,105,188a2.76,2.76,0,0,0-1.24-.25c-1.24,0-2,.48-2.17,1.43l-1.13-.2c.27-1.45,1.43-2.18,3.48-2.18a3.11,3.11,0,0,1,2.32.72,3.66,3.66,0,0,1,.68,2.51v3.35A6.57,6.57,0,0,0,107.07,194.91ZM105.71,191c-.5,0-.88,0-1.14,0a4.38,4.38,0,0,0-2.25.48,1.51,1.51,0,0,0-.81,1.39,1.35,1.35,0,0,0,.43,1,1.78,1.78,0,0,0,1.26.4,2.3,2.3,0,0,0,1.82-.8,2.76,2.76,0,0,0,.72-1.9C105.74,191.34,105.73,191.16,105.71,191Z" transform="translate(-0.35 -2.2)"/>
        <path class="cls-5" d="M110.58,194.91h-1.23V187h1.08v1.84a3.9,3.9,0,0,1,1.15-1.69,2,2,0,0,1,1.17-.38l.49,0V188H113a2.15,2.15,0,0,0-1.69.76,3,3,0,0,0-.72,2Z" transform="translate(-0.35 -2.2)"/>
        <path class="cls-5" d="M120.8,194.91h-1.21c0-.25-.09-.72-.14-1.42a2.85,2.85,0,0,1-2.77,1.64,2.8,2.8,0,0,1-2-.71,2.29,2.29,0,0,1-.71-1.69,2.36,2.36,0,0,1,1-2,5.82,5.82,0,0,1,3.45-.77l1,0a4.4,4.4,0,0,0-.15-1.36,1.2,1.2,0,0,0-.61-.67,2.68,2.68,0,0,0-1.23-.25c-1.25,0-2,.48-2.18,1.43l-1.13-.2c.28-1.45,1.44-2.18,3.49-2.18a3.09,3.09,0,0,1,2.31.72,3.61,3.61,0,0,1,.69,2.51v3.35A6.59,6.59,0,0,0,120.8,194.91ZM119.45,191c-.5,0-.88,0-1.14,0a4.44,4.44,0,0,0-2.26.48,1.5,1.5,0,0,0-.8,1.39,1.31,1.31,0,0,0,.43,1,1.77,1.77,0,0,0,1.25.4,2.33,2.33,0,0,0,1.83-.8,2.8,2.8,0,0,0,.71-1.9C119.47,191.34,119.46,191.16,119.45,191Z" transform="translate(-0.35 -2.2)"/>
        <path class="cls-5" d="M128.32,194.91h-1.23V184.25h1.23Z" transform="translate(-0.35 -2.2)"/>
        <path class="cls-5" d="M136.94,194.91h-1.21c0-.25-.09-.72-.14-1.42a2.84,2.84,0,0,1-2.77,1.64,2.8,2.8,0,0,1-2-.71,2.29,2.29,0,0,1-.71-1.69,2.36,2.36,0,0,1,1-2,5.82,5.82,0,0,1,3.45-.77l1.05,0a4.4,4.4,0,0,0-.15-1.36,1.2,1.2,0,0,0-.61-.67,2.68,2.68,0,0,0-1.23-.25c-1.25,0-2,.48-2.18,1.43l-1.13-.2c.28-1.45,1.44-2.18,3.49-2.18a3.09,3.09,0,0,1,2.31.72,3.61,3.61,0,0,1,.69,2.51v3.35A6.59,6.59,0,0,0,136.94,194.91ZM135.59,191c-.5,0-.88,0-1.14,0a4.44,4.44,0,0,0-2.26.48,1.5,1.5,0,0,0-.8,1.39,1.31,1.31,0,0,0,.43,1,1.77,1.77,0,0,0,1.25.4,2.33,2.33,0,0,0,1.83-.8,2.8,2.8,0,0,0,.71-1.9C135.61,191.34,135.6,191.16,135.59,191Z" transform="translate(-0.35 -2.2)"/>
        <path class="cls-5" d="M138.17,192.86l1.17-.24c.26,1,1.08,1.49,2.47,1.49a2.3,2.3,0,0,0,1.29-.34,1.09,1.09,0,0,0,.54-1c0-.62-.45-1-1.36-1.18l-1.66-.31a3,3,0,0,1-1.55-.74,1.86,1.86,0,0,1-.58-1.44,2.07,2.07,0,0,1,.79-1.66,3.13,3.13,0,0,1,2.12-.67c1.71,0,2.77.67,3.17,2l-1.12.24a1.92,1.92,0,0,0-2-1.23,2.2,2.2,0,0,0-1.23.31,1,1,0,0,0-.48.86c0,.58.4.95,1.22,1.1l1.54.27c1.61.3,2.41,1.08,2.41,2.34a2.08,2.08,0,0,1-.89,1.76,3.89,3.89,0,0,1-2.39.67C139.77,195.13,138.61,194.37,138.17,192.86Z" transform="translate(-0.35 -2.2)"/>
      </g>
      <g class="cls-4">
        <path class="cls-5" d="M153.92,187v1H152v6.93h-1.22V188h-1.35v-1h1.35a3.16,3.16,0,0,1,.73-2.45,2.69,2.69,0,0,1,1.71-.54,6,6,0,0,1,1.12.11v1a3.45,3.45,0,0,0-.76-.1,1.71,1.71,0,0,0-1.19.36,1.76,1.76,0,0,0-.39,1.33V187Z" transform="translate(-0.35 -2.2)"/>
      </g>
      <g class="cls-4">
        <path class="cls-5" d="M161.48,194.91h-1.21a11.86,11.86,0,0,1-.14-1.42,2.86,2.86,0,0,1-2.77,1.64,2.8,2.8,0,0,1-2-.71,2.29,2.29,0,0,1-.71-1.69,2.36,2.36,0,0,1,1-2,5.8,5.8,0,0,1,3.45-.77l1,0a4.4,4.4,0,0,0-.15-1.36,1.2,1.2,0,0,0-.61-.67,2.7,2.7,0,0,0-1.24-.25c-1.24,0-2,.48-2.17,1.43l-1.13-.2c.28-1.45,1.44-2.18,3.48-2.18a3.11,3.11,0,0,1,2.32.72,3.61,3.61,0,0,1,.68,2.51v3.35A6.57,6.57,0,0,0,161.48,194.91ZM160.13,191c-.5,0-.88,0-1.14,0a4.42,4.42,0,0,0-2.26.48,1.51,1.51,0,0,0-.81,1.39,1.32,1.32,0,0,0,.44,1,1.76,1.76,0,0,0,1.25.4,2.33,2.33,0,0,0,1.83-.8,2.8,2.8,0,0,0,.71-1.9C160.15,191.34,160.14,191.16,160.13,191Z" transform="translate(-0.35 -2.2)"/>
        <path class="cls-5" d="M174.34,194.91h-1.2V190a4.57,4.57,0,0,0-.1-1.13,1.34,1.34,0,0,0-.51-.7,1.48,1.48,0,0,0-.92-.31,1.9,1.9,0,0,0-1.35.64,2.62,2.62,0,0,0-.66,2v4.45h-1.18v-5.2a1.84,1.84,0,0,0-.5-1.46,1.56,1.56,0,0,0-1-.43,1.73,1.73,0,0,0-1.36.67,2.49,2.49,0,0,0-.58,1.7v4.72h-1.17V187h1v1.52a2.69,2.69,0,0,1,2.43-1.74,2.06,2.06,0,0,1,1.45.56,2.52,2.52,0,0,1,.76,1.33,2.65,2.65,0,0,1,2.5-1.89,2.27,2.27,0,0,1,1.41.46,2.12,2.12,0,0,1,.78,1.06,5.7,5.7,0,0,1,.19,1.68Z" transform="translate(-0.35 -2.2)"/>
        <path class="cls-5" d="M178.06,184.25v1.36h-1.32v-1.36Zm0,2.77v7.89h-1.23V187Z" transform="translate(-0.35 -2.2)"/>
        <path class="cls-5" d="M181.69,194.91h-1.23V184.25h1.23Z" transform="translate(-0.35 -2.2)"/>
        <path class="cls-5" d="M185.41,184.25v1.36h-1.32v-1.36Zm0,2.77v7.89h-1.23V187Z" transform="translate(-0.35 -2.2)"/>
        <path class="cls-5" d="M194,194.91h-1.21a13.59,13.59,0,0,1-.15-1.42,2.84,2.84,0,0,1-2.76,1.64,2.76,2.76,0,0,1-2-.71,2.29,2.29,0,0,1-.71-1.69,2.37,2.37,0,0,1,1-2,5.83,5.83,0,0,1,3.46-.77l1,0a4.47,4.47,0,0,0-.14-1.36,1.23,1.23,0,0,0-.61-.67,2.76,2.76,0,0,0-1.24-.25c-1.24,0-2,.48-2.17,1.43l-1.13-.2c.27-1.45,1.44-2.18,3.48-2.18a3.11,3.11,0,0,1,2.32.72,3.66,3.66,0,0,1,.68,2.51v3.35A6.57,6.57,0,0,0,194,194.91ZM192.63,191c-.5,0-.88,0-1.14,0a4.4,4.4,0,0,0-2.25.48,1.51,1.51,0,0,0-.81,1.39,1.32,1.32,0,0,0,.44,1,1.74,1.74,0,0,0,1.25.4,2.3,2.3,0,0,0,1.82-.8,2.76,2.76,0,0,0,.72-1.9C192.66,191.34,192.65,191.16,192.63,191Z" transform="translate(-0.35 -2.2)"/>
        <path class="cls-5" d="M195.21,192.86l1.17-.24c.26,1,1.09,1.49,2.47,1.49a2.33,2.33,0,0,0,1.3-.34,1.1,1.1,0,0,0,.53-1c0-.62-.45-1-1.35-1.18l-1.66-.31a3,3,0,0,1-1.56-.74,1.9,1.9,0,0,1-.58-1.44,2.1,2.1,0,0,1,.79-1.66,3.18,3.18,0,0,1,2.13-.67c1.71,0,2.77.67,3.17,2l-1.13.24a1.92,1.92,0,0,0-2-1.23,2.2,2.2,0,0,0-1.23.31,1,1,0,0,0-.48.86c0,.58.41.95,1.23,1.1l1.54.27c1.61.3,2.41,1.08,2.41,2.34a2.09,2.09,0,0,1-.9,1.76,3.87,3.87,0,0,1-2.39.67C196.81,195.13,195.66,194.37,195.21,192.86Z" transform="translate(-0.35 -2.2)"/>
      </g>
    </g>
    <g class="cls-4">
      <g class="cls-4">
        <path class="cls-5" d="M262.27,228.71h-2V218.05H267v1.64h-4.76v2.92H266v1.6h-3.75Z" transform="translate(-0.35 -2.2)"/>
        <path class="cls-5" d="M270.09,228.71h-1.78V218.05h1.78Z" transform="translate(-0.35 -2.2)"/>
      </g>
      <g class="cls-4">
        <path class="cls-5" d="M277.25,226.19l1.61.22a3.41,3.41,0,0,1-1.22,1.77,3.68,3.68,0,0,1-2.28.69,3.38,3.38,0,0,1-2.64-1.1,4.29,4.29,0,0,1-1-3,4.39,4.39,0,0,1,1-3,3.41,3.41,0,0,1,2.73-1.17,3.13,3.13,0,0,1,2.61,1.15,4.59,4.59,0,0,1,.93,3v.2h-5.42a4.42,4.42,0,0,0,.16,1.29,1.71,1.71,0,0,0,.6.85,1.91,1.91,0,0,0,2.92-.93Zm-.11-2.36a2,2,0,0,0-.51-1.39,1.75,1.75,0,0,0-2.48,0,2.28,2.28,0,0,0-.58,1.42Z" transform="translate(-0.35 -2.2)"/>
      </g>
      <g class="cls-4">
        <path class="cls-5" d="M286.41,228.71h-2l-1.67-2.88-1.83,2.88h-1.53l2.62-4.06-2.27-3.83h2l1.3,2.32,1.47-2.32H286l-2.23,3.42Z" transform="translate(-0.35 -2.2)"/>
        <path class="cls-5" d="M289.26,219.9h-1.79v-1.85h1.79Zm0,8.81h-1.79v-7.89h1.79Z" transform="translate(-0.35 -2.2)"/>
        <path class="cls-5" d="M292.2,228.71h-.8V218.05h1.78v3.85a3,3,0,0,1,1-1.17,2.52,2.52,0,0,1,1.19-.28,2.62,2.62,0,0,1,2.15,1.1,4.9,4.9,0,0,1,.85,3.06,5.25,5.25,0,0,1-.84,3,2.86,2.86,0,0,1-4.86-.21Zm1-3.37a2.27,2.27,0,0,0,.45,1.56,1.53,1.53,0,0,0,1.19.51,1.49,1.49,0,0,0,1.18-.58,3.88,3.88,0,0,0,.51-2.27,3.56,3.56,0,0,0-.43-1.9,1.36,1.36,0,0,0-1.21-.67,1.53,1.53,0,0,0-1.22.57,2.49,2.49,0,0,0-.47,1.61Z" transform="translate(-0.35 -2.2)"/>
        <path class="cls-5" d="M301.79,219.9H300v-1.85h1.78Zm0,8.81H300v-7.89h1.78Z" transform="translate(-0.35 -2.2)"/>
        <path class="cls-5" d="M305.7,228.71h-1.78V218.05h1.78Z" transform="translate(-0.35 -2.2)"/>
        <path class="cls-5" d="M309.62,219.9h-1.79v-1.85h1.79Zm0,8.81h-1.79v-7.89h1.79Z" transform="translate(-0.35 -2.2)"/>
        <path class="cls-5" d="M318.24,228.71h-1.66v-1.59a2.4,2.4,0,0,1-2.33,1.75,2.49,2.49,0,0,1-2.23-1.21,5.5,5.5,0,0,1-.77-3,5.3,5.3,0,0,1,.8-2.92,2.57,2.57,0,0,1,2.29-1.24,2.13,2.13,0,0,1,2.12,1.39v-3.84h1.78Zm-1.78-4.66a2.18,2.18,0,0,0-.46-1.49,1.47,1.47,0,0,0-1.18-.54,1.4,1.4,0,0,0-1.24.69,3.88,3.88,0,0,0-.44,2c0,1.77.55,2.65,1.65,2.65a1.53,1.53,0,0,0,1.17-.57,2.13,2.13,0,0,0,.5-1.45Z" transform="translate(-0.35 -2.2)"/>
        <path class="cls-5" d="M327.12,228.71h-1.69a6.93,6.93,0,0,1-.28-1.59,2.63,2.63,0,0,1-2.67,1.75,2.6,2.6,0,0,1-1.89-.69,2.31,2.31,0,0,1-.72-1.74q0-2.72,4.78-2.71h.5v-.59c0-.82-.55-1.23-1.67-1.23s-1.7.41-1.84,1.23l-1.52-.23a2.33,2.33,0,0,1,1-1.62,4.43,4.43,0,0,1,2.58-.63,6.11,6.11,0,0,1,1.49.15,2.36,2.36,0,0,1,1,.51,2.22,2.22,0,0,1,.55.79,4.88,4.88,0,0,1,.15,1.44v3.57A6,6,0,0,0,327.12,228.71Zm-2-4q-3.45,0-3.45,1.65a1.15,1.15,0,0,0,.35.84,1.43,1.43,0,0,0,1.05.35,1.83,1.83,0,0,0,1.53-.64,2.26,2.26,0,0,0,.52-1.47Z" transform="translate(-0.35 -2.2)"/>
        <path class="cls-5" d="M335.51,228.71h-1.67v-1.59a2.39,2.39,0,0,1-2.33,1.75,2.46,2.46,0,0,1-2.22-1.21,5.42,5.42,0,0,1-.78-3,5.23,5.23,0,0,1,.81-2.92,2.56,2.56,0,0,1,2.29-1.24,2.11,2.11,0,0,1,2.11,1.39v-3.84h1.79Zm-1.79-4.66a2.23,2.23,0,0,0-.45-1.49,1.49,1.49,0,0,0-1.19-.54,1.4,1.4,0,0,0-1.23.69,3.78,3.78,0,0,0-.45,2c0,1.77.56,2.65,1.66,2.65a1.52,1.52,0,0,0,1.16-.57,2.08,2.08,0,0,0,.5-1.45Z" transform="translate(-0.35 -2.2)"/>
      </g>
      <g class="cls-4">
        <path class="cls-5" d="M347,226.36l1.14.23a3.23,3.23,0,0,1-1.22,1.68,3.52,3.52,0,0,1-2.13.66,3.32,3.32,0,0,1-2.62-1.14,4.33,4.33,0,0,1-1-3,4.42,4.42,0,0,1,1-3.05,3.36,3.36,0,0,1,2.61-1.16,3.17,3.17,0,0,1,2.49,1.07,4.81,4.81,0,0,1,1,3.2h-5.73a3.07,3.07,0,0,0,.75,2.42,2.42,2.42,0,0,0,1.58.62A2.17,2.17,0,0,0,347,226.36Zm-.07-2.4a3.54,3.54,0,0,0-.22-1.18,2.09,2.09,0,0,0-.69-.88,1.88,1.88,0,0,0-1.16-.36,2.09,2.09,0,0,0-1.55.65,2.7,2.7,0,0,0-.72,1.77Z" transform="translate(-0.35 -2.2)"/>
        <path class="cls-5" d="M356.34,228.71H355.2v-5.07a2,2,0,0,0-.48-1.54,1.62,1.62,0,0,0-1.16-.44,2,2,0,0,0-1.57.75,2.9,2.9,0,0,0-.64,2v4.33h-1.22v-7.89h1.14v1.45a2.84,2.84,0,0,1,2.49-1.67,2.41,2.41,0,0,1,1.5.46,2.37,2.37,0,0,1,.85,1,6.11,6.11,0,0,1,.23,2.07Z" transform="translate(-0.35 -2.2)"/>
        <path class="cls-5" d="M368,226.36l1.14.23a3.23,3.23,0,0,1-1.22,1.68,3.52,3.52,0,0,1-2.13.66,3.32,3.32,0,0,1-2.62-1.14,4.33,4.33,0,0,1-1-3,4.42,4.42,0,0,1,1-3.05,3.36,3.36,0,0,1,2.61-1.16,3.17,3.17,0,0,1,2.49,1.07,4.81,4.81,0,0,1,1,3.2h-5.73a3.07,3.07,0,0,0,.75,2.42,2.42,2.42,0,0,0,1.58.62A2.17,2.17,0,0,0,368,226.36Zm-.07-2.4a3.54,3.54,0,0,0-.22-1.18,2.09,2.09,0,0,0-.69-.88,1.88,1.88,0,0,0-1.16-.36,2.09,2.09,0,0,0-1.55.65,2.7,2.7,0,0,0-.72,1.77Z" transform="translate(-0.35 -2.2)"/>
        <path class="cls-5" d="M372.35,228.71h-1.22V218.05h1.22Z" transform="translate(-0.35 -2.2)"/>
      </g>
      <g class="cls-4">
        <path class="cls-5" d="M266.72,247.91h-1.78v-5.16a1.59,1.59,0,0,0-.36-1.18,1.13,1.13,0,0,0-.83-.34,1.61,1.61,0,0,0-1.27.6,3.06,3.06,0,0,0-.52,2v4.09h-1.78V237.25H262v4.15a2.37,2.37,0,0,1,2.33-1.7q2.43,0,2.43,2.79Z" transform="translate(-0.35 -2.2)"/>
        <path class="cls-5" d="M272,248.07a3.09,3.09,0,0,1-2.67-1.25,4.73,4.73,0,0,1-.93-2.89,4.27,4.27,0,0,1,1-2.91,3.4,3.4,0,0,1,2.7-1.16,3.33,3.33,0,0,1,2.6,1.13,4.78,4.78,0,0,1,0,5.95A3.48,3.48,0,0,1,272,248.07Zm.06-1.46c1.2,0,1.8-.9,1.8-2.68a3.68,3.68,0,0,0-.43-1.91,1.44,1.44,0,0,0-1.32-.7,1.5,1.5,0,0,0-1.37.72,3.59,3.59,0,0,0-.44,1.92,3.42,3.42,0,0,0,.47,2A1.49,1.49,0,0,0,272,246.61Z" transform="translate(-0.35 -2.2)"/>
        <path class="cls-5" d="M279.1,247.91h-1.78V240h1.61v1.88a3.41,3.41,0,0,1,.95-1.61,1.88,1.88,0,0,1,1.23-.5h.24v1.92a1.82,1.82,0,0,0-1.8.86,3.65,3.65,0,0,0-.45,1.68Z" transform="translate(-0.35 -2.2)"/>
        <path class="cls-5" d="M289.38,247.91h-1.7a6.44,6.44,0,0,1-.27-1.59,2.93,2.93,0,0,1-4.57,1.06,2.34,2.34,0,0,1-.71-1.74q0-2.71,4.77-2.71h.51v-.59c0-.82-.56-1.23-1.67-1.23s-1.7.41-1.85,1.23l-1.51-.23a2.31,2.31,0,0,1,1-1.62,4.47,4.47,0,0,1,2.58-.63,6.05,6.05,0,0,1,1.49.15,2.3,2.3,0,0,1,1,.51,2,2,0,0,1,.55.79,4.88,4.88,0,0,1,.15,1.44v3.57A5.69,5.69,0,0,0,289.38,247.91Zm-2-4q-3.45,0-3.45,1.65a1.14,1.14,0,0,0,.34.84,1.46,1.46,0,0,0,1.05.35,1.86,1.86,0,0,0,1.54-.64,2.26,2.26,0,0,0,.52-1.47Z" transform="translate(-0.35 -2.2)"/>
        <path class="cls-5" d="M293.06,247.91h-1.78V240h1.61v1.88a3.33,3.33,0,0,1,.94-1.61,1.88,1.88,0,0,1,1.24-.5h.23v1.92a1.82,1.82,0,0,0-1.8.86,3.63,3.63,0,0,0-.44,1.68Z" transform="translate(-0.35 -2.2)"/>
        <path class="cls-5" d="M298.35,239.1h-1.78v-1.85h1.78Zm0,8.81h-1.78V240h1.78Z" transform="translate(-0.35 -2.2)"/>
        <path class="cls-5" d="M303.58,248.07a3.09,3.09,0,0,1-2.67-1.25,4.72,4.72,0,0,1-.92-2.89,4.27,4.27,0,0,1,1-2.91,3.38,3.38,0,0,1,2.69-1.16,3.33,3.33,0,0,1,2.6,1.13,4.78,4.78,0,0,1,0,5.95A3.48,3.48,0,0,1,303.58,248.07Zm.06-1.46c1.2,0,1.8-.9,1.8-2.68A3.58,3.58,0,0,0,305,242a1.44,1.44,0,0,0-1.32-.7,1.51,1.51,0,0,0-1.37.72,3.69,3.69,0,0,0-.44,1.92,3.5,3.5,0,0,0,.47,2A1.51,1.51,0,0,0,303.64,246.61Z" transform="translate(-0.35 -2.2)"/>
        <path class="cls-5" d="M319.44,247.91h-1.66v-1.59a2.4,2.4,0,0,1-2.33,1.75,2.49,2.49,0,0,1-2.23-1.21,5.5,5.5,0,0,1-.77-3,5.3,5.3,0,0,1,.8-2.92,2.57,2.57,0,0,1,2.29-1.24,2.13,2.13,0,0,1,2.12,1.39v-3.84h1.78Zm-1.78-4.66a2.18,2.18,0,0,0-.46-1.49,1.47,1.47,0,0,0-1.18-.54,1.4,1.4,0,0,0-1.24.69,3.88,3.88,0,0,0-.44,2.05c0,1.77.55,2.65,1.66,2.65a1.53,1.53,0,0,0,1.16-.57,2.13,2.13,0,0,0,.5-1.45Z" transform="translate(-0.35 -2.2)"/>
        <path class="cls-5" d="M326.59,245.39l1.61.22a3.37,3.37,0,0,1-1.22,1.77,3.63,3.63,0,0,1-2.27.69,3.36,3.36,0,0,1-2.64-1.1,4.25,4.25,0,0,1-1-3,4.38,4.38,0,0,1,1-3,3.45,3.45,0,0,1,2.74-1.17,3.16,3.16,0,0,1,2.61,1.15,4.64,4.64,0,0,1,.92,3v.2h-5.41a4.47,4.47,0,0,0,.15,1.29,1.71,1.71,0,0,0,.6.85,1.79,1.79,0,0,0,1.14.36A1.76,1.76,0,0,0,326.59,245.39Zm-.11-2.35a2.05,2.05,0,0,0-.51-1.4,1.67,1.67,0,0,0-1.25-.53,1.6,1.6,0,0,0-1.22.5,2.23,2.23,0,0,0-.58,1.43Z" transform="translate(-0.35 -2.2)"/>
        <path class="cls-5" d="M337.62,246.52v1.39a6.61,6.61,0,0,1-1.23.17,2.55,2.55,0,0,1-1.24-.28,1.76,1.76,0,0,1-.75-.78,3.72,3.72,0,0,1-.24-1.53V241.4h-1V240h1.09l.16-2.06,1.47-.13V240h1.58v1.38h-1.58v3.85a1.45,1.45,0,0,0,.27,1,1.4,1.4,0,0,0,1,.27Z" transform="translate(-0.35 -2.2)"/>
        <path class="cls-5" d="M340.9,247.91h-1.78V240h1.61v1.88a3.4,3.4,0,0,1,.94-1.61,1.92,1.92,0,0,1,1.24-.5h.23v1.92a1.84,1.84,0,0,0-1.8.86,3.76,3.76,0,0,0-.44,1.68Z" transform="translate(-0.35 -2.2)"/>
        <path class="cls-5" d="M351.17,247.91h-1.69a6.44,6.44,0,0,1-.27-1.59,2.65,2.65,0,0,1-2.68,1.75,2.62,2.62,0,0,1-1.89-.69,2.31,2.31,0,0,1-.72-1.74c0-1.81,1.6-2.71,4.78-2.71h.51v-.59q0-1.23-1.68-1.23c-1.08,0-1.69.41-1.84,1.23l-1.52-.23a2.36,2.36,0,0,1,1-1.62,4.43,4.43,0,0,1,2.58-.63,6.05,6.05,0,0,1,1.49.15,2.3,2.3,0,0,1,1,.51,2.1,2.1,0,0,1,.55.79,4.88,4.88,0,0,1,.15,1.44v3.57A6,6,0,0,0,351.17,247.91Zm-2-4c-2.31,0-3.46.55-3.46,1.65a1.15,1.15,0,0,0,.35.84,1.43,1.43,0,0,0,1,.35,1.86,1.86,0,0,0,1.54-.64,2.32,2.32,0,0,0,.52-1.47Z" transform="translate(-0.35 -2.2)"/>
        <path class="cls-5" d="M353.88,247.91h-.81V237.25h1.78v3.85a3,3,0,0,1,1-1.17,2.49,2.49,0,0,1,1.19-.28,2.63,2.63,0,0,1,2.15,1.1,5,5,0,0,1,.85,3.06,5.25,5.25,0,0,1-.84,3,2.87,2.87,0,0,1-4.87-.21Zm1-3.37a2.27,2.27,0,0,0,.46,1.56,1.53,1.53,0,0,0,1.19.51,1.47,1.47,0,0,0,1.17-.58,3.88,3.88,0,0,0,.51-2.27,3.47,3.47,0,0,0-.43-1.9,1.35,1.35,0,0,0-1.21-.67,1.51,1.51,0,0,0-1.21.57,2.44,2.44,0,0,0-.48,1.61Z" transform="translate(-0.35 -2.2)"/>
        <path class="cls-5" d="M368.44,247.91h-1.69a6,6,0,0,1-.28-1.59,2.63,2.63,0,0,1-2.67,1.75,2.59,2.59,0,0,1-1.89-.69,2.31,2.31,0,0,1-.72-1.74q0-2.71,4.77-2.71h.51v-.59c0-.82-.56-1.23-1.67-1.23s-1.7.41-1.84,1.23l-1.52-.23a2.29,2.29,0,0,1,1-1.62,4.41,4.41,0,0,1,2.57-.63,6.2,6.2,0,0,1,1.5.15,2.26,2.26,0,0,1,1,.51,2,2,0,0,1,.55.79,4.49,4.49,0,0,1,.16,1.44v3.57A5.66,5.66,0,0,0,368.44,247.91Zm-2-4q-3.45,0-3.45,1.65a1.11,1.11,0,0,0,.35.84,1.43,1.43,0,0,0,1.05.35,1.84,1.84,0,0,0,1.53-.64,2.26,2.26,0,0,0,.52-1.47Z" transform="translate(-0.35 -2.2)"/>
        <path class="cls-5" d="M372.11,240v7.77c0,2-.9,3-2.71,3a4.43,4.43,0,0,1-.91-.1v-1.5c.22,0,.41,0,.57,0a1.38,1.38,0,0,0,1-.29,1.67,1.67,0,0,0,.26-1.1V240Zm0-.92h-1.78v-1.85h1.78Z" transform="translate(-0.35 -2.2)"/>
        <path class="cls-5" d="M377.34,248.07a3.09,3.09,0,0,1-2.67-1.25,4.72,4.72,0,0,1-.92-2.89,4.26,4.26,0,0,1,1-2.91,3.4,3.4,0,0,1,2.7-1.16,3.33,3.33,0,0,1,2.6,1.13,4.78,4.78,0,0,1,0,5.95A3.48,3.48,0,0,1,377.34,248.07Zm.06-1.46c1.2,0,1.8-.9,1.8-2.68a3.68,3.68,0,0,0-.43-1.91,1.44,1.44,0,0,0-1.32-.7,1.5,1.5,0,0,0-1.37.72,3.59,3.59,0,0,0-.44,1.92,3.42,3.42,0,0,0,.47,2A1.49,1.49,0,0,0,377.4,246.61Z" transform="translate(-0.35 -2.2)"/>
      </g>
    </g>
    <g class="cls-4">
      <path class="cls-6" d="M47.78,313.94v1.58l-4.38,2.11,4.37,2.12v1.57l-6.06-3V317Z" transform="translate(-0.35 -2.2)"/>
      <path class="cls-6" d="M51.94,318.17v-1.33h.85a2.24,2.24,0,0,0,1.28-.34,1.15,1.15,0,0,0,.51-1,1.19,1.19,0,0,0-.43-1,1.8,1.8,0,0,0-1.12-.33,1.86,1.86,0,0,0-1.88,1.35l-1.54-.26a3,3,0,0,1,1.2-1.75,3.79,3.79,0,0,1,2.27-.67,3.66,3.66,0,0,1,2.25.68,2.14,2.14,0,0,1,.93,1.82,2.17,2.17,0,0,1-.5,1.45,1.7,1.7,0,0,1-1.24.65,2.39,2.39,0,0,1,1.47.76,2.15,2.15,0,0,1,.56,1.5,2.42,2.42,0,0,1-1,2,4,4,0,0,1-2.57.77,3.87,3.87,0,0,1-2.45-.75A3.24,3.24,0,0,1,49.34,320l1.59-.39a2.2,2.2,0,0,0,3.39,1.13,1.28,1.28,0,0,0,.5-1,1.5,1.5,0,0,0-.43-1.06,1.75,1.75,0,0,0-1.31-.45Z" transform="translate(-0.35 -2.2)"/>
      <path class="cls-6" d="M61.29,322.43a3,3,0,0,1-2.65-1.33,5.74,5.74,0,0,1-.93-3.38,6,6,0,0,1,1-3.56,3.05,3.05,0,0,1,2.61-1.34,3.17,3.17,0,0,1,2,.63,3.75,3.75,0,0,1,1.22,1.75,6.52,6.52,0,0,1,.4,2.11,8.25,8.25,0,0,1-.38,2.71,3.93,3.93,0,0,1-1.19,1.73A3.1,3.1,0,0,1,61.29,322.43Zm0-1.32a1.56,1.56,0,0,0,1.15-.43,2.33,2.33,0,0,0,.59-1.23,11.17,11.17,0,0,0,.16-2.17,6.1,6.1,0,0,0-.39-2.18,1.44,1.44,0,0,0-1.47-1c-1.27,0-1.9,1.17-1.9,3.51a6.73,6.73,0,0,0,.4,2.56A1.45,1.45,0,0,0,61.28,321.11Z" transform="translate(-0.35 -2.2)"/>
    </g>
    <g class="cls-4">
      <path class="cls-6" d="M97.44,318.17v-1.33h.85a2.24,2.24,0,0,0,1.28-.34,1.15,1.15,0,0,0,.51-1,1.19,1.19,0,0,0-.43-1,1.8,1.8,0,0,0-1.12-.33,1.86,1.86,0,0,0-1.88,1.35l-1.54-.26a3,3,0,0,1,1.2-1.75,3.79,3.79,0,0,1,2.27-.67,3.66,3.66,0,0,1,2.25.68,2.14,2.14,0,0,1,.93,1.82,2.17,2.17,0,0,1-.5,1.45,1.7,1.7,0,0,1-1.24.65,2.39,2.39,0,0,1,1.47.76,2.15,2.15,0,0,1,.56,1.5,2.42,2.42,0,0,1-1,2,4,4,0,0,1-2.57.77,3.87,3.87,0,0,1-2.45-.75A3.24,3.24,0,0,1,94.84,320l1.59-.39a2.2,2.2,0,0,0,3.39,1.13,1.28,1.28,0,0,0,.5-1,1.5,1.5,0,0,0-.43-1.06,1.75,1.75,0,0,0-1.31-.45Z" transform="translate(-0.35 -2.2)"/>
      <path class="cls-6" d="M106.79,322.43a3,3,0,0,1-2.65-1.33,5.74,5.74,0,0,1-.93-3.38,6,6,0,0,1,1-3.56,3.05,3.05,0,0,1,2.61-1.34,3.17,3.17,0,0,1,2,.63A3.75,3.75,0,0,1,110,315.2a6.52,6.52,0,0,1,.4,2.11A8.25,8.25,0,0,1,110,320a3.93,3.93,0,0,1-1.19,1.73A3.1,3.1,0,0,1,106.79,322.43Zm0-1.32a1.56,1.56,0,0,0,1.15-.43,2.33,2.33,0,0,0,.59-1.23,11.17,11.17,0,0,0,.16-2.17,6.1,6.1,0,0,0-.39-2.18,1.44,1.44,0,0,0-1.47-1c-1.27,0-1.9,1.17-1.9,3.51a6.73,6.73,0,0,0,.4,2.56A1.45,1.45,0,0,0,106.78,321.11Z" transform="translate(-0.35 -2.2)"/>
      <path class="cls-6" d="M114.31,318.1v1.28h-3.43V318.1Z" transform="translate(-0.35 -2.2)"/>
      <path class="cls-6" d="M117.23,318.17v-1.33h.85a2.24,2.24,0,0,0,1.28-.34,1.15,1.15,0,0,0,.51-1,1.19,1.19,0,0,0-.43-1,1.8,1.8,0,0,0-1.12-.33,1.86,1.86,0,0,0-1.88,1.35l-1.54-.26a3,3,0,0,1,1.2-1.75,3.79,3.79,0,0,1,2.27-.67,3.66,3.66,0,0,1,2.25.68,2.14,2.14,0,0,1,.93,1.82,2.17,2.17,0,0,1-.5,1.45,1.7,1.7,0,0,1-1.24.65,2.39,2.39,0,0,1,1.47.76,2.15,2.15,0,0,1,.56,1.5,2.42,2.42,0,0,1-1,2,4,4,0,0,1-2.57.77,3.87,3.87,0,0,1-2.45-.75,3.24,3.24,0,0,1-1.22-1.73l1.59-.39a2.2,2.2,0,0,0,3.39,1.13,1.28,1.28,0,0,0,.5-1,1.5,1.5,0,0,0-.43-1.06,1.75,1.75,0,0,0-1.31-.45Z" transform="translate(-0.35 -2.2)"/>
      <path class="cls-6" d="M128.83,322.29H127.1v-2.12H123v-1.23l4.14-6.17h1.73v6h1.41v1.43h-1.41Zm-1.6-7.77-2.65,4.22h2.52v-2.58a5.38,5.38,0,0,1,.05-.74Z" transform="translate(-0.35 -2.2)"/>
    </g>
    <g class="cls-4">
      <path class="cls-6" d="M156.94,318.17v-1.33h.85a2.24,2.24,0,0,0,1.28-.34,1.15,1.15,0,0,0,.51-1,1.19,1.19,0,0,0-.43-1,1.8,1.8,0,0,0-1.12-.33,1.86,1.86,0,0,0-1.88,1.35l-1.54-.26a3,3,0,0,1,1.2-1.75,3.79,3.79,0,0,1,2.27-.67,3.66,3.66,0,0,1,2.25.68,2.14,2.14,0,0,1,.93,1.82,2.17,2.17,0,0,1-.5,1.45,1.7,1.7,0,0,1-1.24.65,2.39,2.39,0,0,1,1.47.76,2.15,2.15,0,0,1,.56,1.5,2.42,2.42,0,0,1-1,2,4,4,0,0,1-2.57.77,3.87,3.87,0,0,1-2.45-.75,3.24,3.24,0,0,1-1.22-1.73l1.59-.39a2.2,2.2,0,0,0,3.39,1.13,1.28,1.28,0,0,0,.5-1,1.5,1.5,0,0,0-.43-1.06,1.75,1.75,0,0,0-1.31-.45Z" transform="translate(-0.35 -2.2)"/>
      <path class="cls-6" d="M163.68,313h5.81l-.15,1.44h-4.43l-.26,2.71a2.65,2.65,0,0,1,2.2-1.07,3.07,3.07,0,0,1,2.27.92,3,3,0,0,1,.93,2.21,3.15,3.15,0,0,1-1,2.3,3.64,3.64,0,0,1-2.67,1,4.32,4.32,0,0,1-2.35-.62,2.89,2.89,0,0,1-1.31-1.93l1.61-.24a1.9,1.9,0,0,0,2,1.43,1.79,1.79,0,0,0,1.41-.56,1.94,1.94,0,0,0,.5-1.34,1.84,1.84,0,0,0-.49-1.31,1.66,1.66,0,0,0-1.28-.54,2,2,0,0,0-1.81,1.09l-1.5-.3Z" transform="translate(-0.35 -2.2)"/>
      <path class="cls-6" d="M173.81,318.1v1.28h-3.43V318.1Z" transform="translate(-0.35 -2.2)"/>
      <path class="cls-6" d="M176.73,318.17v-1.33h.85a2.24,2.24,0,0,0,1.28-.34,1.15,1.15,0,0,0,.51-1,1.19,1.19,0,0,0-.43-1,1.8,1.8,0,0,0-1.12-.33,1.86,1.86,0,0,0-1.88,1.35l-1.54-.26a3,3,0,0,1,1.2-1.75,3.79,3.79,0,0,1,2.27-.67,3.66,3.66,0,0,1,2.25.68,2.14,2.14,0,0,1,.93,1.82,2.17,2.17,0,0,1-.5,1.45,1.7,1.7,0,0,1-1.24.65,2.39,2.39,0,0,1,1.47.76,2.15,2.15,0,0,1,.56,1.5,2.42,2.42,0,0,1-1,2,4,4,0,0,1-2.57.77,3.87,3.87,0,0,1-2.45-.75,3.24,3.24,0,0,1-1.22-1.73l1.59-.39a2.2,2.2,0,0,0,3.39,1.13,1.28,1.28,0,0,0,.5-1,1.5,1.5,0,0,0-.43-1.06,1.75,1.75,0,0,0-1.31-.45Z" transform="translate(-0.35 -2.2)"/>
      <path class="cls-6" d="M182.82,320.6l1.41-.4a1.69,1.69,0,0,0,1.57,1,1.78,1.78,0,0,0,1.62-1,5.53,5.53,0,0,0,.59-2.73,2.57,2.57,0,0,1-1.14,1.22,3.26,3.26,0,0,1-1.3.27,3.1,3.1,0,0,1-2.2-.83,2.82,2.82,0,0,1-.88-2.17,3,3,0,0,1,.91-2.24,3.31,3.31,0,0,1,2.43-.89,3.5,3.5,0,0,1,2.75,1.18,4.89,4.89,0,0,1,1,3.37,6.15,6.15,0,0,1-1,3.65,3.31,3.31,0,0,1-2.86,1.41,3.24,3.24,0,0,1-1.93-.54A2.62,2.62,0,0,1,182.82,320.6Zm3.05-3a1.91,1.91,0,0,0,1.29-.48,1.73,1.73,0,0,0,.56-1.38,1.57,1.57,0,0,0-.49-1.13,2,2,0,0,0-2.64,0,1.72,1.72,0,0,0-.5,1.25,1.8,1.8,0,0,0,.47,1.2A1.64,1.64,0,0,0,185.87,317.59Z" transform="translate(-0.35 -2.2)"/>
    </g>
    <g class="cls-4">
      <path class="cls-6" d="M219.83,322.29H218.1v-2.12H214v-1.23l4.14-6.17h1.73v6h1.41v1.43h-1.41Zm-1.6-7.77-2.65,4.22h2.52v-2.58a5.38,5.38,0,0,1,.05-.74Z" transform="translate(-0.35 -2.2)"/>
      <path class="cls-6" d="M225.79,322.43a3,3,0,0,1-2.65-1.33,5.74,5.74,0,0,1-.93-3.38,6,6,0,0,1,1-3.56,3.05,3.05,0,0,1,2.61-1.34,3.17,3.17,0,0,1,2,.63A3.75,3.75,0,0,1,229,315.2a6.52,6.52,0,0,1,.4,2.11A8.25,8.25,0,0,1,229,320a3.93,3.93,0,0,1-1.19,1.73A3.1,3.1,0,0,1,225.79,322.43Zm0-1.32a1.56,1.56,0,0,0,1.15-.43,2.33,2.33,0,0,0,.59-1.23,11.17,11.17,0,0,0,.16-2.17,6.1,6.1,0,0,0-.39-2.18,1.44,1.44,0,0,0-1.47-1c-1.27,0-1.9,1.17-1.9,3.51a6.73,6.73,0,0,0,.4,2.56A1.45,1.45,0,0,0,225.78,321.11Z" transform="translate(-0.35 -2.2)"/>
      <path class="cls-6" d="M233.31,318.1v1.28h-3.43V318.1Z" transform="translate(-0.35 -2.2)"/>
      <path class="cls-6" d="M239.62,322.29h-1.73v-2.12h-4.14v-1.23l4.14-6.17h1.73v6H241v1.43h-1.41Zm-1.6-7.77-2.65,4.22h2.52v-2.58a5.38,5.38,0,0,1,.05-.74Z" transform="translate(-0.35 -2.2)"/>
      <path class="cls-6" d="M247.83,322.29H246.1v-2.12H242v-1.23l4.14-6.17h1.73v6h1.41v1.43h-1.41Zm-1.6-7.77-2.65,4.22h2.52v-2.58a5.38,5.38,0,0,1,.05-.74Z" transform="translate(-0.35 -2.2)"/>
    </g>
    <g class="cls-4">
      <path class="cls-6" d="M279.33,322.29H277.6v-2.12h-4.14v-1.23l4.14-6.17h1.73v6h1.41v1.43h-1.41Zm-1.6-7.77-2.65,4.22h2.52v-2.58a5.38,5.38,0,0,1,0-.74Z" transform="translate(-0.35 -2.2)"/>
      <path class="cls-6" d="M282.68,313h5.81l-.15,1.44h-4.43l-.26,2.71a2.65,2.65,0,0,1,2.2-1.07,3.07,3.07,0,0,1,2.27.92,3,3,0,0,1,.93,2.21,3.15,3.15,0,0,1-1,2.3,3.64,3.64,0,0,1-2.67,1,4.32,4.32,0,0,1-2.35-.62,2.89,2.89,0,0,1-1.31-1.93l1.61-.24a1.9,1.9,0,0,0,2,1.43,1.79,1.79,0,0,0,1.41-.56,1.94,1.94,0,0,0,.5-1.34,1.84,1.84,0,0,0-.49-1.31,1.66,1.66,0,0,0-1.28-.54,2,2,0,0,0-1.81,1.09l-1.5-.3Z" transform="translate(-0.35 -2.2)"/>
      <path class="cls-6" d="M292.81,318.1v1.28h-3.43V318.1Z" transform="translate(-0.35 -2.2)"/>
      <path class="cls-6" d="M299.12,322.29h-1.73v-2.12h-4.14v-1.23l4.14-6.17h1.73v6h1.41v1.43h-1.41Zm-1.6-7.77-2.65,4.22h2.52v-2.58a5.38,5.38,0,0,1,.05-.74Z" transform="translate(-0.35 -2.2)"/>
      <path class="cls-6" d="M301.82,320.6l1.41-.4a1.69,1.69,0,0,0,1.57,1,1.78,1.78,0,0,0,1.62-1,5.53,5.53,0,0,0,.59-2.73,2.57,2.57,0,0,1-1.14,1.22,3.26,3.26,0,0,1-1.3.27,3.1,3.1,0,0,1-2.2-.83,2.82,2.82,0,0,1-.88-2.17,3,3,0,0,1,.91-2.24,3.31,3.31,0,0,1,2.43-.89,3.5,3.5,0,0,1,2.75,1.18,4.89,4.89,0,0,1,1.05,3.37,6.15,6.15,0,0,1-1,3.65,3.31,3.31,0,0,1-2.86,1.41,3.24,3.24,0,0,1-1.93-.54A2.62,2.62,0,0,1,301.82,320.6Zm3.05-3a1.91,1.91,0,0,0,1.29-.48,1.73,1.73,0,0,0,.56-1.38,1.57,1.57,0,0,0-.49-1.13,2,2,0,0,0-2.64,0,1.72,1.72,0,0,0-.5,1.25,1.8,1.8,0,0,0,.47,1.2A1.64,1.64,0,0,0,304.87,317.59Z" transform="translate(-0.35 -2.2)"/>
    </g>
  </g>
</svg>
