<?xml version="1.0" encoding="utf-8"?>
<!-- Generator: Adobe Illustrator 24.0.2, SVG Export Plug-In . SVG Version: 6.00 Build 0)  -->
<svg version="1.1" id="Capa_1" xmlns="http://www.w3.org/2000/svg" xmlns:xlink="http://www.w3.org/1999/xlink" x="0px" y="0px"
	 viewBox="0 0 430.8 326.2" style="enable-background:new 0 0 430.8 326.2;" xml:space="preserve">
<style type="text/css">
	.st0{fill:none;stroke:#CB7E42;stroke-width:1.5;stroke-linejoin:round;}
	.st1{opacity:0.2;fill:none;stroke:#FBD59A;stroke-linejoin:round;enable-background:new    ;}
	
		.st2{opacity:0.5;fill:none;stroke:#DCDCDC;stroke-width:0.54;stroke-linecap:round;stroke-linejoin:round;enable-background:new    ;}
	.st3{enable-background:new    ;}
	.st4{fill:#DCDCDC;}
	.st5{fill:#DDDDDD;}
</style>
<title>7d</title>
<g>
	<polyline class="st0" points="33.9,143.1 84.2,78.8 134.5,4.6 184.8,24.9 235.2,72.9 285.5,125.2 	"/>
	<polyline class="st1" points="33.9,303.9 84.2,288.9 134.5,292.4 184.8,281.2 235.2,275 285.5,276.6 	"/>
	<polyline class="st1" points="33.9,241.3 84.2,225.8 134.5,268 184.8,271.8 235.2,287.5 285.5,276.9 	"/>
	<polyline class="st0" points="33.9,227.5 84.2,225.8 134.5,215.4 184.8,219.8 235.2,192 285.5,200 	"/>
	<polyline class="st1" points="33.9,267.3 84.2,258.5 134.5,250.5 184.8,259 235.2,270.1 285.5,237.1 	"/>
	<polyline class="st1" points="33.9,289.9 84.2,291.7 134.5,292.5 184.8,289.6 235.2,287.2 285.5,294.4 	"/>
	<polyline class="st1" points="33.9,28.6 84.2,128.8 134.5,193.1 184.8,209.5 235.2,199.4 285.5,189.4 	"/>
	<polyline class="st1" points="33.9,305.5 84.2,298.1 134.5,301.1 184.8,278 235.2,289.7 285.5,293.1 	"/>
	<polyline class="st1" points="33.9,249.9 84.2,262.2 134.5,273.3 184.8,262.9 235.2,270.8 285.5,259.4 	"/>
	<polyline class="st0" points="33.9,249.7 84.2,244 134.5,225.1 184.8,219.3 235.2,187.6 285.5,188.8 	"/>
	<polyline class="st1" points="33.9,269.9 84.2,262 134.5,249.1 184.8,240.4 235.2,231.6 285.5,223.2 	"/>
	<polyline class="st1" points="33.9,272 84.2,283.8 134.5,283.8 184.8,292 235.2,285 285.3,285 	"/>
	<line class="st2" x1="7.3" y1="307.8" x2="304.5" y2="307.8"/>
	<g class="st3">
		<path class="st4" d="M11.9,304.3c-1.1,0-2-0.4-2.6-1.3c-0.6-0.9-0.9-2-0.9-3.4c0-1.5,0.3-2.7,1-3.6s1.5-1.3,2.6-1.3
			c0.8,0,1.5,0.2,2,0.6c0.5,0.4,1,1,1.2,1.8c0.3,0.8,0.4,1.5,0.4,2.1c0,1.1-0.1,2-0.4,2.7c-0.3,0.7-0.6,1.3-1.2,1.7
			C13.4,304.1,12.7,304.3,11.9,304.3z M11.9,303c0.5,0,0.9-0.1,1.1-0.4s0.5-0.7,0.6-1.2s0.2-1.2,0.2-2.2c0-0.8-0.1-1.5-0.4-2.2
			s-0.8-1-1.5-1c-1.3,0-1.9,1.2-1.9,3.5c0,1.1,0.1,1.9,0.4,2.6S11.2,303,11.9,303z"/>
	</g>
	<g class="st3">
		<path class="st4" d="M8.4,217.7H1.2v-1.4H4v-5.9c-0.9,0.8-1.8,1.4-2.5,1.7v-1.7c0.8-0.3,1.3-0.5,1.5-0.6c0.2-0.1,0.5-0.4,0.9-0.7
			c0.4-0.3,0.6-0.6,0.8-0.9h1.1v8.1h2.6V217.7z"/>
	</g>
	<g class="st3">
		<path class="st4" d="M12.4,217.8c-1.1,0-2-0.4-2.6-1.3c-0.6-0.9-0.9-2-0.9-3.4c0-1.5,0.3-2.7,1-3.6s1.5-1.3,2.6-1.3
			c0.8,0,1.5,0.2,2,0.6c0.5,0.4,1,1,1.2,1.8c0.3,0.8,0.4,1.5,0.4,2.1c0,1.1-0.1,2-0.4,2.7c-0.3,0.7-0.6,1.3-1.2,1.7
			C13.9,217.6,13.3,217.8,12.4,217.8z M12.4,216.5c0.5,0,0.9-0.1,1.1-0.4s0.5-0.7,0.6-1.2s0.2-1.2,0.2-2.2c0-0.8-0.1-1.5-0.4-2.2
			s-0.8-1-1.5-1c-1.3,0-1.9,1.2-1.9,3.5c0,1.1,0.1,1.9,0.4,2.6S11.7,216.5,12.4,216.5z"/>
	</g>
	<line class="st2" x1="0.3" y1="220.9" x2="15.4" y2="220.9"/>
	<g class="st3">
		<path class="st4" d="M7.7,113.2v1.5H0.9V113l2.9-1.9c0.9-0.6,1.5-1.1,1.8-1.6c0.3-0.5,0.5-0.9,0.5-1.3c0-0.5-0.2-0.8-0.5-1.2
			s-0.7-0.5-1.2-0.5c-1.1,0-1.7,0.6-1.8,1.9l-1.6-0.4c0.1-0.8,0.5-1.5,1.1-2.1c0.6-0.6,1.4-0.9,2.4-0.9c1,0,1.9,0.3,2.5,0.9
			c0.6,0.6,0.9,1.3,0.9,2.2c0,0.8-0.3,1.5-0.8,2.1c-0.5,0.6-1.9,1.6-4.1,2.8H7.7z"/>
		<path class="st4" d="M12.6,114.8c-1.1,0-2-0.4-2.6-1.3c-0.6-0.9-0.9-2-0.9-3.4c0-1.5,0.3-2.7,1-3.6s1.5-1.3,2.6-1.3
			c0.8,0,1.5,0.2,2,0.6c0.5,0.4,1,1,1.2,1.8c0.3,0.8,0.4,1.5,0.4,2.1c0,1.1-0.1,2-0.4,2.7c-0.3,0.7-0.6,1.3-1.2,1.7
			C14.1,114.6,13.4,114.8,12.6,114.8z M12.6,113.5c0.5,0,0.9-0.1,1.1-0.4s0.5-0.7,0.6-1.2s0.2-1.2,0.2-2.2c0-0.8-0.1-1.5-0.4-2.2
			s-0.8-1-1.5-1c-1.3,0-1.9,1.2-1.9,3.5c0,1.1,0.1,1.9,0.4,2.6S11.9,113.5,12.6,113.5z"/>
	</g>
	<line class="st2" x1="0.3" y1="117.9" x2="15.4" y2="117.9"/>
	<g class="st3">
		<path class="st4" d="M3.2,7.5V6.2h0.9c0.5,0,0.9-0.1,1.3-0.3s0.5-0.6,0.5-1c0-0.4-0.1-0.8-0.4-1S4.8,3.5,4.3,3.5
			C3.4,3.5,2.8,4,2.4,4.9L0.9,4.6c0.2-0.7,0.6-1.3,1.2-1.7s1.4-0.7,2.3-0.7c0.9,0,1.6,0.2,2.3,0.7c0.6,0.5,0.9,1.1,0.9,1.8
			c0,0.6-0.2,1-0.5,1.4S6.3,6.8,5.8,6.8c0.6,0.1,1.1,0.3,1.5,0.8s0.6,0.9,0.6,1.5c0,0.8-0.3,1.5-1,2c-0.6,0.5-1.5,0.8-2.6,0.8
			c-1,0-1.8-0.3-2.5-0.8C1.2,10.6,0.8,10,0.6,9.3l1.6-0.4c0.3,1,1,1.6,2.1,1.6c0.5,0,1-0.1,1.3-0.4c0.3-0.3,0.5-0.6,0.5-1
			C6.1,8.7,6,8.3,5.7,8C5.4,7.7,4.9,7.5,4.4,7.5H3.2z"/>
		<path class="st4" d="M12.6,11.8c-1.1,0-2-0.4-2.6-1.3C9.3,9.6,9,8.5,9,7.1c0-1.5,0.3-2.7,1-3.6s1.5-1.3,2.6-1.3
			c0.8,0,1.5,0.2,2,0.6c0.5,0.4,1,1,1.2,1.8c0.3,0.8,0.4,1.5,0.4,2.1c0,1.1-0.1,2-0.4,2.7c-0.3,0.7-0.6,1.3-1.2,1.7
			C14.1,11.6,13.4,11.8,12.6,11.8z M12.6,10.5c0.5,0,0.9-0.1,1.1-0.4s0.5-0.7,0.6-1.2s0.2-1.2,0.2-2.2c0-0.8-0.1-1.5-0.4-2.2
			s-0.8-1-1.5-1c-1.3,0-1.9,1.2-1.9,3.5c0,1.1,0.1,1.9,0.4,2.6S11.9,10.5,12.6,10.5z"/>
	</g>
	<line class="st2" x1="0.3" y1="14.9" x2="15.4" y2="14.9"/>
	<g class="st3">
		<path class="st5" d="M22.7,313.6v1.6l-4.4,2.1l4.4,2.1l0,1.6l-6.1-3v-1.3L22.7,313.6z"/>
		<path class="st5" d="M34.9,320.5v1.5H28v-1.6l2.9-1.9c0.9-0.6,1.5-1.1,1.8-1.6c0.3-0.5,0.5-0.9,0.5-1.3c0-0.5-0.2-0.8-0.5-1.2
			s-0.7-0.5-1.2-0.5c-1.1,0-1.7,0.6-1.8,1.9l-1.6-0.4c0.1-0.8,0.5-1.5,1.1-2.1c0.6-0.6,1.4-0.9,2.4-0.9c1,0,1.9,0.3,2.5,0.9
			c0.6,0.6,0.9,1.3,0.9,2.2c0,0.8-0.3,1.5-0.8,2.1c-0.5,0.6-1.9,1.6-4.1,2.8H34.9z"/>
		<path class="st5" d="M37.1,312.6h5.8l-0.2,1.4h-4.4l-0.3,2.7c0.6-0.7,1.3-1.1,2.2-1.1c0.9,0,1.7,0.3,2.3,0.9s0.9,1.4,0.9,2.2
			c0,0.9-0.3,1.7-1,2.3s-1.5,1-2.7,1c-0.9,0-1.7-0.2-2.4-0.6s-1.1-1.1-1.3-1.9l1.6-0.2c0.3,1,1,1.4,2,1.4c0.6,0,1.1-0.2,1.4-0.6
			s0.5-0.8,0.5-1.3c0-0.5-0.2-1-0.5-1.3c-0.3-0.4-0.8-0.5-1.3-0.5c-0.8,0-1.4,0.4-1.8,1.1l-1.5-0.3L37.1,312.6z"/>
	</g>
	<g class="st3">
		<path class="st5" d="M71.7,320.5v1.5h-6.9v-1.6l2.9-1.9c0.9-0.6,1.5-1.1,1.8-1.6c0.3-0.5,0.5-0.9,0.5-1.3c0-0.5-0.2-0.8-0.5-1.2
			s-0.7-0.5-1.2-0.5c-1.1,0-1.7,0.6-1.8,1.9l-1.6-0.4c0.1-0.8,0.5-1.5,1.1-2.1c0.6-0.6,1.4-0.9,2.4-0.9c1,0,1.9,0.3,2.5,0.9
			c0.6,0.6,0.9,1.3,0.9,2.2c0,0.8-0.3,1.5-0.8,2.1c-0.5,0.6-1.9,1.6-4.1,2.8H71.7z"/>
		<path class="st5" d="M73.9,312.6h5.8l-0.2,1.4h-4.4l-0.3,2.7c0.6-0.7,1.3-1.1,2.2-1.1c0.9,0,1.7,0.3,2.3,0.9s0.9,1.4,0.9,2.2
			c0,0.9-0.3,1.7-1,2.3s-1.5,1-2.7,1c-0.9,0-1.7-0.2-2.4-0.6s-1.1-1.1-1.3-1.9l1.6-0.2c0.3,1,1,1.4,2,1.4c0.6,0,1.1-0.2,1.4-0.6
			s0.5-0.8,0.5-1.3c0-0.5-0.2-1-0.5-1.3c-0.3-0.4-0.8-0.5-1.3-0.5c-0.8,0-1.4,0.4-1.8,1.1l-1.5-0.3L73.9,312.6z"/>
		<path class="st5" d="M84,317.7v1.3h-3.4v-1.3H84z"/>
		<path class="st5" d="M91.5,320.5v1.5h-6.9v-1.6l2.9-1.9c0.9-0.6,1.5-1.1,1.8-1.6c0.3-0.5,0.5-0.9,0.5-1.3c0-0.5-0.2-0.8-0.5-1.2
			s-0.7-0.5-1.2-0.5c-1.1,0-1.7,0.6-1.8,1.9l-1.6-0.4c0.1-0.8,0.5-1.5,1.1-2.1c0.6-0.6,1.4-0.9,2.4-0.9c1,0,1.9,0.3,2.5,0.9
			c0.6,0.6,0.9,1.3,0.9,2.2c0,0.8-0.3,1.5-0.8,2.1c-0.5,0.6-1.9,1.6-4.1,2.8H91.5z"/>
		<path class="st5" d="M93,320.2l1.4-0.4c0.4,0.6,0.9,1,1.6,1c0.7,0,1.2-0.3,1.6-1s0.6-1.6,0.6-2.7c-0.3,0.6-0.7,1-1.1,1.2
			c-0.4,0.2-0.9,0.3-1.3,0.3c-0.9,0-1.6-0.3-2.2-0.8c-0.6-0.5-0.9-1.3-0.9-2.2c0-0.9,0.3-1.7,0.9-2.2c0.6-0.6,1.4-0.9,2.4-0.9
			c1.1,0,2.1,0.4,2.8,1.2c0.7,0.8,1,1.9,1,3.4c0,1.5-0.3,2.7-1,3.7s-1.6,1.4-2.9,1.4c-0.8,0-1.4-0.2-1.9-0.5S93.2,320.7,93,320.2z
			 M96.1,317.2c0.5,0,0.9-0.2,1.3-0.5s0.6-0.8,0.6-1.4c0-0.4-0.2-0.8-0.5-1.1c-0.3-0.3-0.8-0.5-1.3-0.5c-0.5,0-1,0.2-1.3,0.5
			c-0.3,0.3-0.5,0.8-0.5,1.3c0,0.4,0.2,0.8,0.5,1.2S95.5,317.2,96.1,317.2z"/>
	</g>
	<g class="st3">
		<path class="st5" d="M119.5,317.5v-0.9h1.1c0.8,0,1.3-0.2,1.7-0.5s0.5-0.7,0.5-1.2c0-0.5-0.2-0.9-0.6-1.2
			c-0.4-0.3-0.8-0.4-1.4-0.4c-1,0-1.8,0.5-2.2,1.5l-1.1-0.3c0.6-1.4,1.7-2.1,3.3-2.1c0.9,0,1.6,0.2,2.2,0.7s0.8,1.1,0.8,1.8
			c0,0.5-0.2,1-0.5,1.4c-0.3,0.4-0.8,0.6-1.3,0.7c0.6,0.1,1.1,0.3,1.5,0.7s0.6,0.9,0.6,1.6c0,0.8-0.3,1.4-1,2s-1.5,0.8-2.6,0.8
			c-0.9,0-1.6-0.2-2.2-0.6s-1.1-1-1.3-1.7l1.1-0.4c0.3,1.1,1.1,1.7,2.4,1.7c0.8,0,1.4-0.2,1.8-0.5c0.4-0.4,0.6-0.8,0.6-1.3
			c0-0.5-0.2-1-0.7-1.3s-1.1-0.5-1.8-0.5H119.5z"/>
		<path class="st5" d="M129.1,322.1c-1.1,0-1.9-0.5-2.6-1.4s-1-2.1-1-3.5c0-1.4,0.3-2.5,0.9-3.4s1.5-1.4,2.6-1.4
			c1.2,0,2.1,0.5,2.7,1.5s0.9,2.1,0.9,3.4c0,1.3-0.3,2.4-0.9,3.4S130.2,322.1,129.1,322.1z M129.1,321.2c0.8,0,1.4-0.4,1.8-1.1
			c0.4-0.7,0.6-1.6,0.6-2.7c0-1.2-0.2-2.2-0.6-2.9s-1-1.2-1.8-1.2c-0.8,0-1.4,0.4-1.7,1.1s-0.6,1.7-0.6,2.8c0,1.2,0.2,2.2,0.6,2.9
			C127.7,320.8,128.3,321.2,129.1,321.2z"/>
		<path class="st5" d="M136.5,318v0.8h-3.1V318H136.5z"/>
		<path class="st5" d="M139.4,317.5v-0.9h1.1c0.8,0,1.3-0.2,1.7-0.5s0.5-0.7,0.5-1.2c0-0.5-0.2-0.9-0.6-1.2
			c-0.4-0.3-0.8-0.4-1.4-0.4c-1,0-1.8,0.5-2.2,1.5l-1.1-0.3c0.6-1.4,1.7-2.1,3.3-2.1c0.9,0,1.6,0.2,2.2,0.7s0.8,1.1,0.8,1.8
			c0,0.5-0.2,1-0.5,1.4c-0.3,0.4-0.8,0.6-1.3,0.7c0.6,0.1,1.1,0.3,1.5,0.7s0.6,0.9,0.6,1.6c0,0.8-0.3,1.4-1,2s-1.5,0.8-2.6,0.8
			c-0.9,0-1.6-0.2-2.2-0.6s-1.1-1-1.3-1.7l1.1-0.4c0.3,1.1,1.1,1.7,2.4,1.7c0.8,0,1.4-0.2,1.8-0.5c0.4-0.4,0.6-0.8,0.6-1.3
			c0-0.5-0.2-1-0.7-1.3s-1.1-0.5-1.8-0.5H139.4z"/>
		<path class="st5" d="M151.1,321.9h-1.1v-2.2h-4.6v-0.8l4.3-6.5h1.5v6.4h1.5v0.9h-1.5V321.9z M149.9,318.8v-4.4c0-0.3,0-0.7,0-1
			c-0.2,0.4-0.4,0.7-0.5,0.9l-2.9,4.6H149.9z"/>
	</g>
	<g class="st3">
		<path class="st5" d="M172.2,317.8v-1.3h0.9c0.5,0,0.9-0.1,1.3-0.3s0.5-0.6,0.5-1c0-0.4-0.1-0.8-0.4-1s-0.7-0.3-1.1-0.3
			c-0.9,0-1.5,0.5-1.9,1.4l-1.5-0.3c0.2-0.7,0.6-1.3,1.2-1.7s1.4-0.7,2.3-0.7c0.9,0,1.6,0.2,2.3,0.7c0.6,0.5,0.9,1.1,0.9,1.8
			c0,0.6-0.2,1-0.5,1.4s-0.7,0.6-1.2,0.7c0.6,0.1,1.1,0.3,1.5,0.8s0.6,0.9,0.6,1.5c0,0.8-0.3,1.5-1,2c-0.6,0.5-1.5,0.8-2.6,0.8
			c-1,0-1.8-0.3-2.5-0.8c-0.6-0.5-1.1-1.1-1.2-1.7l1.6-0.4c0.3,1,1,1.6,2.1,1.6c0.5,0,1-0.1,1.3-0.4c0.3-0.3,0.5-0.6,0.5-1
			c0-0.4-0.1-0.8-0.4-1.1c-0.3-0.3-0.7-0.5-1.3-0.5H172.2z"/>
		<path class="st5" d="M179,312.6h5.8l-0.2,1.4h-4.4l-0.3,2.7c0.6-0.7,1.3-1.1,2.2-1.1c0.9,0,1.7,0.3,2.3,0.9s0.9,1.4,0.9,2.2
			c0,0.9-0.3,1.7-1,2.3s-1.5,1-2.7,1c-0.9,0-1.7-0.2-2.4-0.6s-1.1-1.1-1.3-1.9l1.6-0.2c0.3,1,1,1.4,2,1.4c0.6,0,1.1-0.2,1.4-0.6
			s0.5-0.8,0.5-1.3c0-0.5-0.2-1-0.5-1.3c-0.3-0.4-0.8-0.5-1.3-0.5c-0.8,0-1.4,0.4-1.8,1.1l-1.5-0.3L179,312.6z"/>
		<path class="st5" d="M189.1,317.7v1.3h-3.4v-1.3H189.1z"/>
		<path class="st5" d="M192,317.8v-1.3h0.9c0.5,0,0.9-0.1,1.3-0.3s0.5-0.6,0.5-1c0-0.4-0.1-0.8-0.4-1s-0.7-0.3-1.1-0.3
			c-0.9,0-1.5,0.5-1.9,1.4l-1.5-0.3c0.2-0.7,0.6-1.3,1.2-1.7s1.4-0.7,2.3-0.7c0.9,0,1.6,0.2,2.3,0.7c0.6,0.5,0.9,1.1,0.9,1.8
			c0,0.6-0.2,1-0.5,1.4s-0.7,0.6-1.2,0.7c0.6,0.1,1.1,0.3,1.5,0.8s0.6,0.9,0.6,1.5c0,0.8-0.3,1.5-1,2c-0.6,0.5-1.5,0.8-2.6,0.8
			c-1,0-1.8-0.3-2.5-0.8c-0.6-0.5-1.1-1.1-1.2-1.7l1.6-0.4c0.3,1,1,1.6,2.1,1.6c0.5,0,1-0.1,1.3-0.4c0.3-0.3,0.5-0.6,0.5-1
			c0-0.4-0.1-0.8-0.4-1.1c-0.3-0.3-0.7-0.5-1.3-0.5H192z"/>
		<path class="st5" d="M198.1,320.2l1.4-0.4c0.4,0.6,0.9,1,1.6,1c0.7,0,1.2-0.3,1.6-1s0.6-1.6,0.6-2.7c-0.3,0.6-0.7,1-1.1,1.2
			c-0.4,0.2-0.9,0.3-1.3,0.3c-0.9,0-1.6-0.3-2.2-0.8c-0.6-0.5-0.9-1.3-0.9-2.2c0-0.9,0.3-1.7,0.9-2.2c0.6-0.6,1.4-0.9,2.4-0.9
			c1.1,0,2.1,0.4,2.8,1.2c0.7,0.8,1,1.9,1,3.4c0,1.5-0.3,2.7-1,3.7s-1.6,1.4-2.9,1.4c-0.8,0-1.4-0.2-1.9-0.5
			S198.3,320.7,198.1,320.2z M201.2,317.2c0.5,0,0.9-0.2,1.3-0.5s0.6-0.8,0.6-1.4c0-0.4-0.2-0.8-0.5-1.1c-0.3-0.3-0.8-0.5-1.3-0.5
			c-0.5,0-1,0.2-1.3,0.5c-0.3,0.3-0.5,0.8-0.5,1.3c0,0.4,0.2,0.8,0.5,1.2S200.6,317.2,201.2,317.2z"/>
	</g>
	<g class="st3">
		<path class="st5" d="M228.2,321.9h-1.7v-2.1h-4.1v-1.2l4.1-6.2h1.7v6h1.4v1.4h-1.4V321.9z M226.6,314.2l-2.6,4.2h2.5v-2.6
			c0-0.3,0-0.5,0-0.7L226.6,314.2z"/>
		<path class="st5" d="M234.1,322.1c-1.1,0-2-0.4-2.6-1.3c-0.6-0.9-0.9-2-0.9-3.4c0-1.5,0.3-2.7,1-3.6s1.5-1.3,2.6-1.3
			c0.8,0,1.5,0.2,2,0.6c0.5,0.4,1,1,1.2,1.8c0.3,0.8,0.4,1.5,0.4,2.1c0,1.1-0.1,2-0.4,2.7c-0.3,0.7-0.6,1.3-1.2,1.7
			C235.7,321.8,235,322.1,234.1,322.1z M234.1,320.7c0.5,0,0.9-0.1,1.1-0.4c0.3-0.3,0.5-0.7,0.6-1.2c0.1-0.5,0.2-1.2,0.2-2.2
			c0-0.8-0.1-1.5-0.4-2.2c-0.3-0.7-0.8-1-1.5-1c-1.3,0-1.9,1.2-1.9,3.5c0,1.1,0.1,1.9,0.4,2.6C232.9,320.4,233.4,320.7,234.1,320.7z
			"/>
		<path class="st5" d="M241.7,317.7v1.3h-3.4v-1.3H241.7z"/>
		<path class="st5" d="M248,321.9h-1.7v-2.1h-4.1v-1.2l4.1-6.2h1.7v6h1.4v1.4H248V321.9z M246.4,314.2l-2.6,4.2h2.5v-2.6
			c0-0.3,0-0.5,0-0.7L246.4,314.2z"/>
		<path class="st5" d="M256.2,321.9h-1.7v-2.1h-4.1v-1.2l4.1-6.2h1.7v6h1.4v1.4h-1.4V321.9z M254.6,314.2l-2.6,4.2h2.5v-2.6
			c0-0.3,0-0.5,0-0.7L254.6,314.2z"/>
	</g>
	<g class="st3">
		<path class="st5" d="M280.8,321.9H279v-2.1h-4.1v-1.2l4.1-6.2h1.7v6h1.4v1.4h-1.4V321.9z M279.1,314.2l-2.6,4.2h2.5v-2.6
			c0-0.3,0-0.5,0-0.7L279.1,314.2z"/>
		<path class="st5" d="M284.1,312.6h5.8l-0.2,1.4h-4.4l-0.3,2.7c0.6-0.7,1.3-1.1,2.2-1.1c0.9,0,1.7,0.3,2.3,0.9
			c0.6,0.6,0.9,1.4,0.9,2.2c0,0.9-0.3,1.7-1,2.3c-0.6,0.6-1.5,1-2.7,1c-0.9,0-1.7-0.2-2.4-0.6c-0.7-0.4-1.1-1.1-1.3-1.9l1.6-0.2
			c0.3,1,1,1.4,2,1.4c0.6,0,1.1-0.2,1.4-0.6c0.3-0.4,0.5-0.8,0.5-1.3c0-0.5-0.2-1-0.5-1.3c-0.3-0.4-0.8-0.5-1.3-0.5
			c-0.8,0-1.4,0.4-1.8,1.1l-1.5-0.3L284.1,312.6z"/>
		<path class="st5" d="M294.2,317.7v1.3h-3.4v-1.3H294.2z"/>
		<path class="st5" d="M300.5,321.9h-1.7v-2.1h-4.1v-1.2l4.1-6.2h1.7v6h1.4v1.4h-1.4V321.9z M298.9,314.2l-2.6,4.2h2.5v-2.6
			c0-0.3,0-0.5,0-0.7L298.9,314.2z"/>
		<path class="st5" d="M303.2,320.2l1.4-0.4c0.4,0.6,0.9,1,1.6,1c0.7,0,1.2-0.3,1.6-1c0.4-0.7,0.6-1.6,0.6-2.7
			c-0.3,0.6-0.7,1-1.1,1.2c-0.4,0.2-0.9,0.3-1.3,0.3c-0.9,0-1.6-0.3-2.2-0.8c-0.6-0.5-0.9-1.3-0.9-2.2c0-0.9,0.3-1.7,0.9-2.2
			c0.6-0.6,1.4-0.9,2.4-0.9c1.1,0,2.1,0.4,2.8,1.2c0.7,0.8,1,1.9,1,3.4c0,1.5-0.3,2.7-1,3.7c-0.7,0.9-1.6,1.4-2.9,1.4
			c-0.8,0-1.4-0.2-1.9-0.5C303.7,321.2,303.4,320.7,303.2,320.2z M306.3,317.2c0.5,0,0.9-0.2,1.3-0.5c0.4-0.3,0.6-0.8,0.6-1.4
			c0-0.4-0.2-0.8-0.5-1.1c-0.3-0.3-0.8-0.5-1.3-0.5c-0.5,0-1,0.2-1.3,0.5c-0.3,0.3-0.5,0.8-0.5,1.3c0,0.4,0.2,0.8,0.5,1.2
			C305.3,317,305.7,317.2,306.3,317.2z"/>
	</g>
	<g class="st3">
		<path class="st4" d="M238.9,42.7h-1.4l-1.1-3.1h-4l-1,3.1h-1.1l3.5-10.7h1.5L238.9,42.7z M236.2,38.6l-1.7-5.1l-1.6,5.1H236.2z"/>
	</g>
	<g class="st3">
		<path class="st4" d="M246.1,42.7H245v-1.5c-0.6,1.2-1.4,1.7-2.5,1.7c-0.8,0-1.4-0.3-1.9-0.8c-0.5-0.5-0.7-1.3-0.7-2.3v-5h1.2v5
			c0,0.8,0.2,1.3,0.5,1.6c0.3,0.3,0.7,0.4,1.1,0.4c0.4,0,0.8-0.1,1.1-0.3s0.6-0.5,0.8-1c0.2-0.4,0.3-0.9,0.3-1.4v-4.4h1.2V42.7z"/>
		<path class="st4" d="M259.2,42.7H258v-4.9c0-0.5,0-0.9-0.1-1.1s-0.2-0.5-0.5-0.7c-0.3-0.2-0.6-0.3-0.9-0.3c-0.5,0-0.9,0.2-1.4,0.6
			c-0.4,0.4-0.7,1.1-0.7,2v4.4h-1.2v-5.2c0-0.7-0.2-1.2-0.5-1.5c-0.3-0.3-0.7-0.4-1-0.4c-0.5,0-1,0.2-1.4,0.7
			c-0.4,0.4-0.6,1-0.6,1.7v4.7h-1.2v-7.9h1.1v1.5c0.6-1.2,1.4-1.7,2.4-1.7c0.6,0,1,0.2,1.4,0.6c0.4,0.4,0.7,0.8,0.8,1.3
			c0.5-1.3,1.4-1.9,2.5-1.9c0.5,0,1,0.2,1.4,0.5c0.4,0.3,0.7,0.7,0.8,1.1c0.1,0.4,0.2,1,0.2,1.7V42.7z"/>
		<path class="st4" d="M266.8,40.3l1.1,0.2c-0.2,0.7-0.6,1.2-1.2,1.7c-0.6,0.4-1.3,0.7-2.1,0.7c-1.1,0-2-0.4-2.6-1.1
			c-0.7-0.8-1-1.8-1-3c0-1.3,0.3-2.3,1-3c0.7-0.8,1.6-1.2,2.6-1.2c1,0,1.9,0.4,2.5,1.1c0.6,0.7,0.9,1.8,1,3.2h-5.7
			c0,1.2,0.3,2,0.8,2.4s1,0.6,1.6,0.6C265.7,41.9,266.4,41.4,266.8,40.3z M266.7,38c0-0.4-0.1-0.8-0.2-1.2c-0.1-0.3-0.4-0.6-0.7-0.9
			c-0.3-0.2-0.7-0.4-1.2-0.4c-0.6,0-1.1,0.2-1.6,0.7c-0.4,0.4-0.7,1-0.7,1.8H266.7z"/>
		<path class="st4" d="M276.2,42.7H275v-5.1c0-0.7-0.2-1.2-0.5-1.5c-0.3-0.3-0.7-0.4-1.2-0.4c-0.6,0-1.2,0.3-1.6,0.8
			c-0.4,0.5-0.6,1.2-0.6,2v4.3h-1.2v-7.9h1.1v1.5c0.6-1.1,1.5-1.7,2.5-1.7c0.6,0,1.1,0.2,1.5,0.5s0.7,0.6,0.9,1
			c0.2,0.4,0.2,1.1,0.2,2.1V42.7z"/>
	</g>
	<g class="st3">
		<path class="st4" d="M282.2,41.9v1c-0.4,0.1-0.8,0.1-1.1,0.1c-1.5,0-2.3-0.8-2.3-2.4v-4.8h-1.4v-1h1.4l0.1-2l1.1-0.1v2.1h1.8v1
			H280v5c0,0.8,0.4,1.2,1.3,1.2C281.5,42,281.8,41.9,282.2,41.9z"/>
	</g>
	<g class="st3">
		<path class="st4" d="M286.1,42.9c-1.1,0-1.9-0.4-2.5-1.2s-0.9-1.8-0.9-3c0-1.3,0.3-2.3,1-3s1.5-1.1,2.5-1.1c1.1,0,1.9,0.4,2.6,1.2
			s0.9,1.8,0.9,3c0,1.2-0.3,2.2-1,3S287.2,42.9,286.1,42.9z M286.2,41.9c0.6,0,1.1-0.3,1.6-0.8s0.6-1.3,0.6-2.4
			c0-1.1-0.2-1.9-0.7-2.4s-1-0.7-1.6-0.7c-0.6,0-1.1,0.2-1.5,0.7s-0.6,1.3-0.6,2.4c0,1.1,0.2,2,0.6,2.4S285.6,41.9,286.2,41.9z"/>
		<path class="st4" d="M301.8,32v10.7h-1.1v-1.4c-0.6,1-1.4,1.6-2.5,1.6c-0.9,0-1.7-0.4-2.3-1.2c-0.6-0.8-0.9-1.8-0.9-2.9
			c0-1.2,0.3-2.2,0.9-3s1.4-1.2,2.3-1.2c0.9,0,1.7,0.4,2.3,1.3V32H301.8z M300.5,37.9c0-0.7-0.2-1.2-0.6-1.7s-0.9-0.6-1.5-0.6
			c-0.6,0-1.1,0.3-1.5,0.8s-0.6,1.3-0.6,2.3c0,1.1,0.2,1.9,0.5,2.4s0.9,0.8,1.5,0.8c0.6,0,1.1-0.2,1.5-0.7s0.7-1,0.7-1.7V37.9z"/>
		<path class="st4" d="M309.4,40.3l1.1,0.2c-0.2,0.7-0.6,1.2-1.2,1.7s-1.3,0.7-2.1,0.7c-1.1,0-2-0.4-2.6-1.1s-1-1.8-1-3
			c0-1.3,0.3-2.3,1-3s1.6-1.2,2.6-1.2c1,0,1.9,0.4,2.5,1.1s0.9,1.8,1,3.2H305c0,1.2,0.3,2,0.8,2.4s1,0.6,1.6,0.6
			C308.3,41.9,309,41.4,309.4,40.3z M309.4,38c0-0.4-0.1-0.8-0.2-1.2s-0.4-0.6-0.7-0.9s-0.7-0.4-1.2-0.4c-0.6,0-1.1,0.2-1.6,0.7
			s-0.7,1-0.7,1.8H309.4z"/>
		<path class="st4" d="M313.8,42.7h-1.2V32h1.2V42.7z"/>
		<path class="st4" d="M321.5,45.4h-1.2V34.8h1.1v1.5c0.6-1.2,1.4-1.8,2.5-1.8c0.9,0,1.7,0.4,2.3,1.2c0.6,0.8,0.9,1.8,0.9,3
			c0,1.3-0.3,2.3-0.9,3.1s-1.3,1.1-2.3,1.1c-1,0-1.8-0.5-2.3-1.4V45.4z M321.5,37.6v2.2c0.1,0.6,0.3,1.1,0.8,1.5
			c0.4,0.4,0.9,0.6,1.3,0.6c0.5,0,1-0.2,1.4-0.7s0.6-1.3,0.6-2.4c0-1-0.2-1.8-0.6-2.3s-0.9-0.8-1.5-0.8c-0.5,0-0.9,0.2-1.3,0.6
			S321.6,37.1,321.5,37.6z"/>
		<path class="st4" d="M334,40.3l1.1,0.2c-0.2,0.7-0.6,1.2-1.2,1.7s-1.3,0.7-2.1,0.7c-1.1,0-2-0.4-2.6-1.1s-1-1.8-1-3
			c0-1.3,0.3-2.3,1-3s1.6-1.2,2.6-1.2c1,0,1.9,0.4,2.5,1.1s0.9,1.8,1,3.2h-5.7c0,1.2,0.3,2,0.8,2.4s1,0.6,1.6,0.6
			C332.9,41.9,333.6,41.4,334,40.3z M333.9,38c0-0.4-0.1-0.8-0.2-1.2s-0.4-0.6-0.7-0.9s-0.7-0.4-1.2-0.4c-0.6,0-1.1,0.2-1.6,0.7
			s-0.7,1-0.7,1.8H333.9z"/>
		<path class="st4" d="M338.3,42.7h-1.2v-7.9h1.1v1.8c0.4-0.9,0.8-1.4,1.1-1.7s0.8-0.4,1.2-0.4c0.1,0,0.3,0,0.5,0v1.2h-0.3
			c-0.7,0-1.2,0.3-1.7,0.8s-0.7,1.2-0.7,2V42.7z"/>
		<path class="st4" d="M352.9,42.7h-1.2v-4.9c0-0.5,0-0.9-0.1-1.1s-0.2-0.5-0.5-0.7s-0.6-0.3-0.9-0.3c-0.5,0-0.9,0.2-1.4,0.6
			s-0.7,1.1-0.7,2v4.4H347v-5.2c0-0.7-0.2-1.2-0.5-1.5s-0.7-0.4-1-0.4c-0.5,0-1,0.2-1.4,0.7s-0.6,1-0.6,1.7v4.7h-1.2v-7.9h1.1v1.5
			c0.6-1.2,1.4-1.7,2.4-1.7c0.6,0,1,0.2,1.4,0.6s0.7,0.8,0.8,1.3c0.5-1.3,1.4-1.9,2.5-1.9c0.5,0,1,0.2,1.4,0.5s0.7,0.7,0.8,1.1
			s0.2,1,0.2,1.7V42.7z"/>
		<path class="st4" d="M356.7,32v1.4h-1.3V32H356.7z M356.6,34.8v7.9h-1.2v-7.9H356.6z"/>
		<path class="st4" d="M358,40.7l1.2-0.2c0.3,1,1.1,1.5,2.5,1.5c0.5,0,0.9-0.1,1.3-0.3c0.4-0.2,0.5-0.6,0.5-1c0-0.6-0.5-1-1.4-1.2
			l-1.7-0.3c-0.7-0.1-1.2-0.4-1.6-0.7s-0.6-0.8-0.6-1.4c0-0.7,0.3-1.2,0.8-1.7s1.2-0.7,2.1-0.7c1.7,0,2.8,0.7,3.2,2l-1.1,0.2
			c-0.3-0.8-1-1.2-2-1.2c-0.5,0-0.9,0.1-1.2,0.3c-0.3,0.2-0.5,0.5-0.5,0.9c0,0.6,0.4,0.9,1.2,1.1l1.5,0.3c1.6,0.3,2.4,1.1,2.4,2.3
			c0,0.7-0.3,1.3-0.9,1.8s-1.4,0.7-2.4,0.7C359.6,42.9,358.4,42.2,358,40.7z"/>
		<path class="st4" d="M369.3,42.9c-1.1,0-1.9-0.4-2.5-1.2s-0.9-1.8-0.9-3c0-1.3,0.3-2.3,1-3s1.5-1.1,2.5-1.1c1.1,0,1.9,0.4,2.6,1.2
			s0.9,1.8,0.9,3c0,1.2-0.3,2.2-1,3S370.4,42.9,369.3,42.9z M369.4,41.9c0.6,0,1.1-0.3,1.6-0.8s0.6-1.3,0.6-2.4
			c0-1.1-0.2-1.9-0.7-2.4s-1-0.7-1.6-0.7c-0.6,0-1.1,0.2-1.5,0.7s-0.6,1.3-0.6,2.4c0,1.1,0.2,2,0.6,2.4S368.8,41.9,369.4,41.9z"/>
		<path class="st4" d="M385,32v10.7h-1.1v-1.4c-0.6,1-1.4,1.6-2.5,1.6c-0.9,0-1.7-0.4-2.3-1.2c-0.6-0.8-0.9-1.8-0.9-2.9
			c0-1.2,0.3-2.2,0.9-3s1.4-1.2,2.3-1.2c0.9,0,1.7,0.4,2.3,1.3V32H385z M383.7,37.9c0-0.7-0.2-1.2-0.6-1.7s-0.9-0.6-1.5-0.6
			c-0.6,0-1.1,0.3-1.5,0.8s-0.6,1.3-0.6,2.3c0,1.1,0.2,1.9,0.5,2.4s0.9,0.8,1.5,0.8c0.6,0,1.1-0.2,1.5-0.7s0.7-1,0.7-1.7V37.9z"/>
		<path class="st4" d="M392.6,40.3l1.1,0.2c-0.2,0.7-0.6,1.2-1.2,1.7s-1.3,0.7-2.1,0.7c-1.1,0-2-0.4-2.6-1.1s-1-1.8-1-3
			c0-1.3,0.3-2.3,1-3s1.6-1.2,2.6-1.2c1,0,1.9,0.4,2.5,1.1s0.9,1.8,1,3.2h-5.7c0,1.2,0.3,2,0.8,2.4s1,0.6,1.6,0.6
			C391.5,41.9,392.2,41.4,392.6,40.3z M392.6,38c0-0.4-0.1-0.8-0.2-1.2s-0.4-0.6-0.7-0.9s-0.7-0.4-1.2-0.4c-0.6,0-1.1,0.2-1.6,0.7
			s-0.7,1-0.7,1.8H392.6z"/>
	</g>
	<g class="st3">
		<path class="st4" d="M242.2,61.9H241V57c0-0.5,0-0.9-0.1-1.1s-0.2-0.5-0.5-0.7s-0.6-0.3-0.9-0.3c-0.5,0-0.9,0.2-1.4,0.6
			s-0.7,1.1-0.7,2v4.4h-1.2v-5.2c0-0.7-0.2-1.2-0.5-1.5s-0.7-0.4-1-0.4c-0.5,0-1,0.2-1.4,0.7s-0.6,1-0.6,1.7v4.7h-1.2V54h1.1v1.5
			c0.6-1.2,1.4-1.7,2.4-1.7c0.6,0,1,0.2,1.4,0.6s0.7,0.8,0.8,1.3c0.5-1.3,1.4-1.9,2.5-1.9c0.5,0,1,0.2,1.4,0.5s0.7,0.7,0.8,1.1
			s0.2,1,0.2,1.7V61.9z"/>
		<path class="st4" d="M250.8,61.9h-1.2c0-0.3-0.1-0.7-0.1-1.4c-0.5,1.1-1.5,1.6-2.8,1.6c-0.9,0-1.6-0.2-2-0.7s-0.7-1-0.7-1.7
			c0-0.8,0.3-1.5,1-2s1.8-0.8,3.5-0.8c0.2,0,0.6,0,1,0c0-0.6,0-1.1-0.1-1.4s-0.3-0.5-0.6-0.7s-0.7-0.3-1.2-0.3c-1.2,0-2,0.5-2.2,1.4
			l-1.1-0.2c0.3-1.5,1.4-2.2,3.5-2.2c1.1,0,1.9,0.2,2.3,0.7s0.7,1.3,0.7,2.5v3.4C250.6,60.9,250.7,61.4,250.8,61.9z M249.5,58
			c-0.5,0-0.9,0-1.1,0c-1,0-1.7,0.2-2.3,0.5s-0.8,0.8-0.8,1.4c0,0.4,0.1,0.7,0.4,1s0.7,0.4,1.3,0.4c0.7,0,1.3-0.3,1.8-0.8
			s0.7-1.2,0.7-1.9C249.5,58.3,249.5,58.2,249.5,58z"/>
	</g>
	<g class="st3">
		<path class="st4" d="M257.8,61.1v1c-0.4,0.1-0.8,0.1-1.1,0.1c-1.5,0-2.3-0.8-2.3-2.4V55h-1.4v-1h1.4l0.1-2l1.1-0.1V54h1.8v1h-1.8
			v5c0,0.8,0.4,1.2,1.3,1.2C257.1,61.1,257.4,61.1,257.8,61.1z"/>
	</g>
	<g class="st3">
		<path class="st4" d="M264.3,59.5l1.1,0.2c-0.2,0.7-0.6,1.2-1.2,1.7s-1.3,0.7-2.1,0.7c-1.1,0-2-0.4-2.6-1.1s-1-1.8-1-3
			c0-1.3,0.3-2.3,1-3s1.6-1.2,2.6-1.2c1,0,1.9,0.4,2.5,1.1s0.9,1.8,1,3.2h-5.7c0,1.2,0.3,2,0.8,2.4s1,0.6,1.6,0.6
			C263.2,61.1,263.9,60.6,264.3,59.5z M264.2,57.1c0-0.4-0.1-0.8-0.2-1.2s-0.4-0.6-0.7-0.9s-0.7-0.4-1.2-0.4c-0.6,0-1.1,0.2-1.6,0.7
			s-0.7,1-0.7,1.8H264.2z"/>
		<path class="st4" d="M268.7,61.9h-1.2V54h1.1v1.8c0.4-0.9,0.8-1.4,1.1-1.7s0.8-0.4,1.2-0.4c0.1,0,0.3,0,0.5,0V55h-0.3
			c-0.7,0-1.2,0.3-1.7,0.8s-0.7,1.2-0.7,2V61.9z"/>
		<path class="st4" d="M278.9,61.9h-1.1v-5.1c0-0.7-0.2-1.2-0.5-1.5s-0.7-0.4-1.2-0.4c-0.6,0-1.1,0.3-1.6,0.8s-0.6,1.2-0.6,2v4.3
			h-1.2V54h1.1v1.5c0.6-1.1,1.5-1.7,2.5-1.7c0.6,0,1.1,0.2,1.5,0.5s0.7,0.6,0.9,1s0.2,1.1,0.2,2.1V61.9z"/>
		<path class="st4" d="M282.6,51.2v1.4h-1.3v-1.4H282.6z M282.6,54v7.9h-1.2V54H282.6z"/>
		<path class="st4" d="M291.2,51.2v10.7h-1.1v-1.4c-0.6,1-1.4,1.6-2.5,1.6c-0.9,0-1.7-0.4-2.3-1.2c-0.6-0.8-0.9-1.8-0.9-2.9
			c0-1.2,0.3-2.2,0.9-3s1.4-1.2,2.3-1.2c0.9,0,1.7,0.4,2.3,1.3v-3.9H291.2z M290,57.1c0-0.7-0.2-1.2-0.6-1.7s-0.9-0.6-1.5-0.6
			c-0.6,0-1.1,0.3-1.5,0.8s-0.6,1.3-0.6,2.3c0,1.1,0.2,1.9,0.5,2.4s0.9,0.8,1.5,0.8c0.6,0,1.1-0.2,1.5-0.7s0.7-1,0.7-1.7V57.1z"/>
		<path class="st4" d="M299.8,61.9h-1.2c0-0.3-0.1-0.7-0.1-1.4c-0.5,1.1-1.5,1.6-2.8,1.6c-0.9,0-1.6-0.2-2-0.7s-0.7-1-0.7-1.7
			c0-0.8,0.3-1.5,1-2s1.8-0.8,3.5-0.8c0.2,0,0.6,0,1,0c0-0.6,0-1.1-0.1-1.4s-0.3-0.5-0.6-0.7s-0.7-0.3-1.2-0.3c-1.2,0-2,0.5-2.2,1.4
			l-1.1-0.2c0.3-1.5,1.4-2.2,3.5-2.2c1.1,0,1.9,0.2,2.3,0.7s0.7,1.3,0.7,2.5v3.4C299.7,60.9,299.7,61.4,299.8,61.9z M298.5,58
			c-0.5,0-0.9,0-1.1,0c-1,0-1.7,0.2-2.3,0.5s-0.8,0.8-0.8,1.4c0,0.4,0.1,0.7,0.4,1s0.7,0.4,1.3,0.4c0.7,0,1.3-0.3,1.8-0.8
			s0.7-1.2,0.7-1.9C298.5,58.3,298.5,58.2,298.5,58z"/>
		<path class="st4" d="M308.3,51.2v10.7h-1.1v-1.4c-0.6,1-1.4,1.6-2.5,1.6c-0.9,0-1.7-0.4-2.3-1.2c-0.6-0.8-0.9-1.8-0.9-2.9
			c0-1.2,0.3-2.2,0.9-3s1.4-1.2,2.3-1.2c0.9,0,1.7,0.4,2.3,1.3v-3.9H308.3z M307.1,57.1c0-0.7-0.2-1.2-0.6-1.7s-0.9-0.6-1.5-0.6
			c-0.6,0-1.1,0.3-1.5,0.8s-0.6,1.3-0.6,2.3c0,1.1,0.2,1.9,0.5,2.4s0.9,0.8,1.5,0.8c0.6,0,1.1-0.2,1.5-0.7s0.7-1,0.7-1.7V57.1z"/>
		<path class="st4" d="M309.8,64.6h-1l6.4-13.3h1L309.8,64.6z"/>
		<path class="st4" d="M319.2,64.6H318V54h1.1v1.5c0.6-1.2,1.4-1.8,2.5-1.8c0.9,0,1.7,0.4,2.3,1.2c0.6,0.8,0.9,1.8,0.9,3
			c0,1.3-0.3,2.3-0.9,3.1s-1.3,1.1-2.3,1.1c-1,0-1.8-0.5-2.3-1.4V64.6z M319.2,56.8V59c0.1,0.6,0.3,1.1,0.8,1.5
			c0.4,0.4,0.9,0.6,1.3,0.6c0.5,0,1-0.2,1.4-0.7s0.6-1.3,0.6-2.4c0-1-0.2-1.8-0.6-2.3s-0.9-0.8-1.5-0.8c-0.5,0-0.9,0.2-1.3,0.6
			S319.4,56.3,319.2,56.8z"/>
		<path class="st4" d="M332.7,61.9h-1.2c0-0.3-0.1-0.7-0.1-1.4c-0.5,1.1-1.5,1.6-2.8,1.6c-0.9,0-1.6-0.2-2-0.7s-0.7-1-0.7-1.7
			c0-0.8,0.3-1.5,1-2s1.8-0.8,3.5-0.8c0.2,0,0.6,0,1,0c0-0.6,0-1.1-0.1-1.4s-0.3-0.5-0.6-0.7s-0.7-0.3-1.2-0.3c-1.2,0-2,0.5-2.2,1.4
			l-1.1-0.2c0.3-1.5,1.4-2.2,3.5-2.2c1.1,0,1.9,0.2,2.3,0.7s0.7,1.3,0.7,2.5v3.4C332.6,60.9,332.6,61.4,332.7,61.9z M331.4,58
			c-0.5,0-0.9,0-1.1,0c-1,0-1.7,0.2-2.3,0.5s-0.8,0.8-0.8,1.4c0,0.4,0.1,0.7,0.4,1s0.7,0.4,1.3,0.4c0.7,0,1.3-0.3,1.8-0.8
			s0.7-1.2,0.7-1.9C331.4,58.3,331.4,58.2,331.4,58z"/>
	</g>
	<g class="st3">
		<path class="st4" d="M339.8,61.1v1c-0.4,0.1-0.8,0.1-1.1,0.1c-1.5,0-2.3-0.8-2.3-2.4V55H335v-1h1.4l0.1-2l1.1-0.1V54h1.8v1h-1.8v5
			c0,0.8,0.4,1.2,1.3,1.2C339.1,61.1,339.4,61.1,339.8,61.1z"/>
	</g>
	<g class="st3">
		<path class="st4" d="M346.3,59.5l1.1,0.2c-0.2,0.7-0.6,1.2-1.2,1.7c-0.6,0.4-1.3,0.7-2.1,0.7c-1.1,0-2-0.4-2.6-1.1
			c-0.7-0.8-1-1.8-1-3c0-1.3,0.3-2.3,1-3c0.7-0.8,1.6-1.2,2.6-1.2c1,0,1.9,0.4,2.5,1.1c0.6,0.7,0.9,1.8,1,3.2h-5.7
			c0,1.2,0.3,2,0.8,2.4s1,0.6,1.6,0.6C345.2,61.1,345.9,60.6,346.3,59.5z M346.3,57.1c0-0.4-0.1-0.8-0.2-1.2
			c-0.1-0.3-0.4-0.6-0.7-0.9c-0.3-0.2-0.7-0.4-1.2-0.4c-0.6,0-1.1,0.2-1.6,0.7c-0.4,0.4-0.7,1-0.7,1.8H346.3z"/>
		<path class="st4" d="M350.7,61.9h-1.2V54h1.1v1.8c0.4-0.9,0.8-1.4,1.1-1.7s0.8-0.4,1.2-0.4c0.1,0,0.3,0,0.5,0V55h-0.3
			c-0.7,0-1.2,0.3-1.7,0.8c-0.4,0.5-0.7,1.2-0.7,2V61.9z"/>
		<path class="st4" d="M360.9,61.9h-1.1v-5.1c0-0.7-0.2-1.2-0.5-1.5c-0.3-0.3-0.7-0.4-1.2-0.4c-0.6,0-1.2,0.3-1.6,0.8
			c-0.4,0.5-0.6,1.2-0.6,2v4.3h-1.2V54h1.1v1.5c0.6-1.1,1.5-1.7,2.5-1.7c0.6,0,1.1,0.2,1.5,0.5s0.7,0.6,0.9,1
			c0.2,0.4,0.2,1.1,0.2,2.1V61.9z"/>
		<path class="st4" d="M364.7,51.2v1.4h-1.3v-1.4H364.7z M364.6,54v7.9h-1.2V54H364.6z"/>
		<path class="st4" d="M373.2,51.2v10.7h-1.1v-1.4c-0.6,1-1.4,1.6-2.5,1.6c-0.9,0-1.7-0.4-2.3-1.2s-0.9-1.8-0.9-2.9
			c0-1.2,0.3-2.2,0.9-3c0.6-0.8,1.4-1.2,2.3-1.2c0.9,0,1.7,0.4,2.3,1.3v-3.9H373.2z M372,57.1c0-0.7-0.2-1.2-0.6-1.7
			s-0.9-0.6-1.5-0.6c-0.6,0-1.1,0.3-1.5,0.8c-0.4,0.5-0.6,1.3-0.6,2.3c0,1.1,0.2,1.9,0.5,2.4c0.4,0.6,0.9,0.8,1.5,0.8
			c0.6,0,1.1-0.2,1.5-0.7s0.7-1,0.7-1.7V57.1z"/>
		<path class="st4" d="M381.9,61.9h-1.2c0-0.3-0.1-0.7-0.1-1.4c-0.5,1.1-1.5,1.6-2.8,1.6c-0.9,0-1.6-0.2-2-0.7
			c-0.5-0.5-0.7-1-0.7-1.7c0-0.8,0.3-1.5,1-2c0.7-0.5,1.8-0.8,3.5-0.8c0.2,0,0.6,0,1,0c0-0.6,0-1.1-0.1-1.4
			c-0.1-0.3-0.3-0.5-0.6-0.7s-0.7-0.3-1.2-0.3c-1.2,0-2,0.5-2.2,1.4l-1.1-0.2c0.3-1.5,1.4-2.2,3.5-2.2c1.1,0,1.9,0.2,2.3,0.7
			c0.5,0.5,0.7,1.3,0.7,2.5v3.4C381.7,60.9,381.8,61.4,381.9,61.9z M380.5,58c-0.5,0-0.9,0-1.1,0c-1,0-1.7,0.2-2.3,0.5
			c-0.5,0.3-0.8,0.8-0.8,1.4c0,0.4,0.1,0.7,0.4,1s0.7,0.4,1.3,0.4c0.7,0,1.3-0.3,1.8-0.8s0.7-1.2,0.7-1.9
			C380.5,58.3,380.5,58.2,380.5,58z"/>
		<path class="st4" d="M390.3,51.2v10.7h-1.1v-1.4c-0.6,1-1.4,1.6-2.5,1.6c-0.9,0-1.7-0.4-2.3-1.2s-0.9-1.8-0.9-2.9
			c0-1.2,0.3-2.2,0.9-3c0.6-0.8,1.4-1.2,2.3-1.2c0.9,0,1.7,0.4,2.3,1.3v-3.9H390.3z M389.1,57.1c0-0.7-0.2-1.2-0.6-1.7
			s-0.9-0.6-1.5-0.6c-0.6,0-1.1,0.3-1.5,0.8c-0.4,0.5-0.6,1.3-0.6,2.3c0,1.1,0.2,1.9,0.5,2.4c0.4,0.6,0.9,0.8,1.5,0.8
			c0.6,0,1.1-0.2,1.5-0.7s0.7-1,0.7-1.7V57.1z"/>
	</g>
	<g class="st3">
		<path class="st4" d="M113.6,128.7h-1.3l-5.5-9.3l0,0.7c0,0.3,0,0.5,0,0.7v7.9h-1.1V118h1.7l5.2,8.7l0-0.7c0-0.3,0-0.5,0-0.8V118
			h1.1V128.7z"/>
		<path class="st4" d="M119,128.9c-1.1,0-1.9-0.4-2.5-1.2c-0.6-0.8-0.9-1.8-0.9-3c0-1.3,0.3-2.3,1-3c0.7-0.8,1.5-1.1,2.5-1.1
			c1.1,0,1.9,0.4,2.6,1.2c0.6,0.8,0.9,1.8,0.9,3c0,1.2-0.3,2.2-1,3C120.9,128.5,120,128.9,119,128.9z M119,127.9
			c0.6,0,1.1-0.3,1.6-0.8s0.6-1.3,0.6-2.4c0-1.1-0.2-1.9-0.7-2.4c-0.4-0.5-1-0.7-1.6-0.7c-0.6,0-1.1,0.2-1.5,0.7s-0.6,1.3-0.6,2.4
			c0,1.1,0.2,2,0.6,2.4S118.4,127.9,119,127.9z"/>
	</g>
	<g class="st3">
		<path class="st4" d="M134.7,128.7h-1.2v-4.8c0-0.6,0-1-0.1-1.3s-0.2-0.5-0.5-0.7c-0.3-0.2-0.6-0.3-0.9-0.3c-0.6,0-1.2,0.3-1.6,0.8
			c-0.4,0.5-0.6,1.2-0.6,2.1v4.3h-1.2V118h1.2v4.2c0.6-1.1,1.4-1.7,2.4-1.7c0.5,0,0.9,0.1,1.2,0.3c0.4,0.2,0.6,0.4,0.8,0.7
			c0.2,0.3,0.3,0.6,0.4,0.9s0.1,0.8,0.1,1.4V128.7z"/>
	</g>
	<g class="st3">
		<path class="st4" d="M143.3,128.7h-1.2c0-0.3-0.1-0.7-0.1-1.4c-0.5,1.1-1.5,1.6-2.8,1.6c-0.9,0-1.6-0.2-2-0.7
			c-0.5-0.5-0.7-1-0.7-1.7c0-0.8,0.3-1.5,1-2c0.7-0.5,1.8-0.8,3.5-0.8c0.2,0,0.6,0,1,0c0-0.6,0-1.1-0.1-1.4
			c-0.1-0.3-0.3-0.5-0.6-0.7s-0.7-0.3-1.2-0.3c-1.2,0-2,0.5-2.2,1.4l-1.1-0.2c0.3-1.5,1.4-2.2,3.5-2.2c1.1,0,1.9,0.2,2.3,0.7
			c0.5,0.5,0.7,1.3,0.7,2.5v3.4C143.1,127.7,143.2,128.2,143.3,128.7z M141.9,124.8c-0.5,0-0.9,0-1.1,0c-1,0-1.7,0.2-2.3,0.5
			c-0.5,0.3-0.8,0.8-0.8,1.4c0,0.4,0.1,0.7,0.4,1s0.7,0.4,1.3,0.4c0.7,0,1.3-0.3,1.8-0.8s0.7-1.2,0.7-1.9
			C142,125.1,141.9,125,141.9,124.8z"/>
	</g>
	<g class="st3">
		<path class="st4" d="M150.6,120.8l-3.2,8.8c-0.5,1.3-1.2,1.9-2.2,1.9c-0.3,0-0.7-0.1-1.1-0.2v-1c0.3,0.1,0.6,0.1,0.8,0.1
			c0.4,0,0.7-0.1,1-0.3c0.3-0.2,0.5-0.8,0.8-1.6l-2.7-7.7h1.2l2.1,5.9l2.2-5.9H150.6z"/>
	</g>
	<g class="st3">
		<path class="st4" d="M162,120.7v10.7h-1.2v-4.1c-0.5,1.1-1.3,1.6-2.4,1.6c-0.9,0-1.6-0.4-2.2-1.1s-0.9-1.7-0.9-3
			c0-1.2,0.3-2.2,0.9-3c0.6-0.8,1.4-1.2,2.3-1.2c0.5,0,0.9,0.1,1.3,0.3c0.4,0.2,0.8,0.6,1.1,1.2l0.5-1.4H162z M160.7,124.1
			c-0.1-0.9-0.3-1.6-0.7-2s-0.9-0.6-1.4-0.6c-0.6,0-1.1,0.3-1.5,0.9c-0.4,0.6-0.6,1.3-0.6,2.3c0,0.9,0.2,1.7,0.5,2.2
			c0.4,0.6,0.9,0.9,1.5,0.9c0.6,0,1.1-0.3,1.5-0.8c0.4-0.5,0.6-1.2,0.6-1.9V124.1z"/>
	</g>
	<g class="st3">
		<path class="st4" d="M170.5,128.7h-1.1v-1.5c-0.6,1.2-1.4,1.7-2.5,1.7c-0.8,0-1.4-0.3-1.9-0.8c-0.5-0.5-0.7-1.3-0.7-2.3v-5h1.2v5
			c0,0.8,0.2,1.3,0.5,1.6c0.3,0.3,0.7,0.4,1.1,0.4c0.4,0,0.8-0.1,1.1-0.3s0.6-0.5,0.8-1c0.2-0.4,0.3-0.9,0.3-1.4v-4.4h1.2V128.7z"/>
		<path class="st4" d="M178.1,126.4l1.1,0.2c-0.2,0.7-0.6,1.2-1.2,1.7c-0.6,0.4-1.3,0.7-2.1,0.7c-1.1,0-2-0.4-2.6-1.1
			c-0.7-0.8-1-1.8-1-3c0-1.3,0.3-2.3,1-3c0.7-0.8,1.6-1.2,2.6-1.2c1,0,1.9,0.4,2.5,1.1c0.6,0.7,0.9,1.8,1,3.2h-5.7
			c0,1.2,0.3,2,0.8,2.4s1,0.6,1.6,0.6C177,127.9,177.7,127.4,178.1,126.4z M178.1,124c0-0.4-0.1-0.8-0.2-1.2
			c-0.1-0.3-0.4-0.6-0.7-0.9c-0.3-0.2-0.7-0.4-1.2-0.4c-0.6,0-1.1,0.2-1.6,0.7c-0.4,0.4-0.7,1-0.7,1.8H178.1z"/>
	</g>
	<g class="st3">
		<path class="st4" d="M186.5,118v1.4h-1.3V118H186.5z M186.5,120.8v7.9h-1.2v-7.9H186.5z"/>
		<path class="st4" d="M195.2,128.7H194v-5.1c0-0.7-0.2-1.2-0.5-1.5c-0.3-0.3-0.7-0.4-1.2-0.4c-0.6,0-1.1,0.3-1.6,0.8
			c-0.4,0.5-0.6,1.2-0.6,2v4.3h-1.2v-7.9h1.1v1.5c0.6-1.1,1.5-1.7,2.5-1.7c0.6,0,1.1,0.2,1.5,0.5s0.7,0.6,0.9,1
			c0.2,0.4,0.2,1.1,0.2,2.1V128.7z"/>
		<path class="st4" d="M202.3,125.9l1.1,0.2c-0.2,0.9-0.5,1.6-1,2c-0.5,0.5-1.2,0.7-2,0.7c-1.1,0-1.9-0.4-2.5-1.2s-0.9-1.8-0.9-2.9
			c0-1.2,0.3-2.2,0.9-3s1.4-1.2,2.5-1.2c0.9,0,1.5,0.3,2.1,0.8c0.5,0.5,0.8,1.2,1,2l-1.1,0.2c-0.2-1.3-0.8-2-1.9-2
			c-0.7,0-1.2,0.3-1.6,0.9c-0.4,0.6-0.5,1.3-0.5,2.2c0,1,0.2,1.8,0.5,2.4s0.9,0.8,1.5,0.8C201.4,127.9,202,127.3,202.3,125.9z"/>
		<path class="st4" d="M210.3,126.4l1.1,0.2c-0.2,0.7-0.6,1.2-1.2,1.7c-0.6,0.4-1.3,0.7-2.1,0.7c-1.1,0-2-0.4-2.6-1.1
			c-0.7-0.8-1-1.8-1-3c0-1.3,0.3-2.3,1-3c0.7-0.8,1.6-1.2,2.6-1.2c1,0,1.9,0.4,2.5,1.1c0.6,0.7,0.9,1.8,1,3.2h-5.7
			c0,1.2,0.3,2,0.8,2.4s1,0.6,1.6,0.6C209.2,127.9,209.9,127.4,210.3,126.4z M210.2,124c0-0.4-0.1-0.8-0.2-1.2
			c-0.1-0.3-0.4-0.6-0.7-0.9c-0.3-0.2-0.7-0.4-1.2-0.4c-0.6,0-1.1,0.2-1.6,0.7c-0.4,0.4-0.7,1-0.7,1.8H210.2z"/>
		<path class="st4" d="M219.6,128.7h-1.1v-5.1c0-0.7-0.2-1.2-0.5-1.5s-0.7-0.4-1.2-0.4c-0.6,0-1.1,0.3-1.6,0.8
			c-0.4,0.5-0.6,1.2-0.6,2v4.3h-1.2v-7.9h1.1v1.5c0.6-1.1,1.5-1.7,2.5-1.7c0.6,0,1.1,0.2,1.5,0.5s0.7,0.6,0.9,1s0.2,1.1,0.2,2.1
			V128.7z"/>
		<path class="st4" d="M225.6,127.9v1c-0.4,0.1-0.8,0.1-1.1,0.1c-1.5,0-2.3-0.8-2.3-2.4v-4.8h-1.4v-1h1.4l0.1-2l1.1-0.1v2.1h1.8v1
			h-1.8v5c0,0.8,0.4,1.2,1.3,1.2C225,128,225.3,127.9,225.6,127.9z"/>
		<path class="st4" d="M228.3,118v1.4h-1.3V118H228.3z M228.2,120.8v7.9H227v-7.9H228.2z"/>
	</g>
	<g class="st3">
		<path class="st4" d="M237.2,120.8l-2.7,7.9h-1.3l-2.8-7.9h1.4l2.2,6.4l2.2-6.4H237.2z"/>
	</g>
	<g class="st3">
		<path class="st4" d="M244.5,128.7h-1.2c0-0.3-0.1-0.7-0.1-1.4c-0.5,1.1-1.5,1.6-2.8,1.6c-0.9,0-1.6-0.2-2-0.7
			c-0.5-0.5-0.7-1-0.7-1.7c0-0.8,0.3-1.5,1-2c0.7-0.5,1.8-0.8,3.5-0.8c0.2,0,0.6,0,1,0c0-0.6,0-1.1-0.1-1.4
			c-0.1-0.3-0.3-0.5-0.6-0.7s-0.7-0.3-1.2-0.3c-1.2,0-2,0.5-2.2,1.4l-1.1-0.2c0.3-1.5,1.4-2.2,3.5-2.2c1.1,0,1.9,0.2,2.3,0.7
			c0.5,0.5,0.7,1.3,0.7,2.5v3.4C244.3,127.7,244.4,128.2,244.5,128.7z M243.2,124.8c-0.5,0-0.9,0-1.1,0c-1,0-1.7,0.2-2.3,0.5
			c-0.5,0.3-0.8,0.8-0.8,1.4c0,0.4,0.1,0.7,0.4,1s0.7,0.4,1.3,0.4c0.7,0,1.3-0.3,1.8-0.8s0.7-1.2,0.7-1.9
			C243.2,125.1,243.2,125,243.2,124.8z"/>
		<path class="st4" d="M248,128.7h-1.2v-7.9h1.1v1.8c0.4-0.9,0.8-1.4,1.1-1.7s0.8-0.4,1.2-0.4c0.1,0,0.3,0,0.5,0v1.2h-0.3
			c-0.7,0-1.2,0.3-1.7,0.8c-0.4,0.5-0.7,1.2-0.7,2V128.7z"/>
	</g>
	<g class="st3">
		<path class="st4" d="M106.8,147.9h-1.2v-10.7h1.2V147.9z"/>
		<path class="st4" d="M115.5,147.9h-1.2c0-0.3-0.1-0.7-0.1-1.4c-0.5,1.1-1.5,1.6-2.8,1.6c-0.9,0-1.6-0.2-2-0.7
			c-0.5-0.5-0.7-1-0.7-1.7c0-0.8,0.3-1.5,1-2c0.7-0.5,1.8-0.8,3.5-0.8c0.2,0,0.6,0,1,0c0-0.6,0-1.1-0.1-1.4
			c-0.1-0.3-0.3-0.5-0.6-0.7s-0.7-0.3-1.2-0.3c-1.2,0-2,0.5-2.2,1.4l-1.1-0.2c0.3-1.5,1.4-2.2,3.5-2.2c1.1,0,1.9,0.2,2.3,0.7
			c0.5,0.5,0.7,1.3,0.7,2.5v3.4C115.3,146.9,115.3,147.4,115.5,147.9z M114.1,144c-0.5,0-0.9,0-1.1,0c-1,0-1.7,0.2-2.3,0.5
			c-0.5,0.3-0.8,0.8-0.8,1.4c0,0.4,0.1,0.7,0.4,1s0.7,0.4,1.3,0.4c0.7,0,1.3-0.3,1.8-0.8s0.7-1.2,0.7-1.9
			C114.1,144.3,114.1,144.2,114.1,144z"/>
		<path class="st4" d="M128,147.9h-1.1v-5.1c0-0.7-0.2-1.2-0.5-1.5c-0.3-0.3-0.7-0.4-1.2-0.4c-0.6,0-1.1,0.3-1.6,0.8
			c-0.4,0.5-0.6,1.2-0.6,2v4.3h-1.2V140h1.1v1.5c0.6-1.1,1.5-1.7,2.5-1.7c0.6,0,1.1,0.2,1.5,0.5s0.7,0.6,0.9,1
			c0.2,0.4,0.2,1.1,0.2,2.1V147.9z"/>
		<path class="st4" d="M136.6,147.9h-1.2c0-0.3-0.1-0.7-0.1-1.4c-0.5,1.1-1.5,1.6-2.8,1.6c-0.9,0-1.6-0.2-2-0.7
			c-0.5-0.5-0.7-1-0.7-1.7c0-0.8,0.3-1.5,1-2c0.7-0.5,1.8-0.8,3.5-0.8c0.2,0,0.6,0,1,0c0-0.6,0-1.1-0.1-1.4
			c-0.1-0.3-0.3-0.5-0.6-0.7s-0.7-0.3-1.2-0.3c-1.2,0-2,0.5-2.2,1.4l-1.1-0.2c0.3-1.5,1.4-2.2,3.5-2.2c1.1,0,1.9,0.2,2.3,0.7
			c0.5,0.5,0.7,1.3,0.7,2.5v3.4C136.4,146.9,136.5,147.4,136.6,147.9z M135.2,144c-0.5,0-0.9,0-1.1,0c-1,0-1.7,0.2-2.3,0.5
			c-0.5,0.3-0.8,0.8-0.8,1.4c0,0.4,0.1,0.7,0.4,1s0.7,0.4,1.3,0.4c0.7,0,1.3-0.3,1.8-0.8s0.7-1.2,0.7-1.9
			C135.3,144.3,135.3,144.2,135.2,144z"/>
		<path class="st4" d="M142.5,147.1v1c-0.4,0.1-0.8,0.1-1.1,0.1c-1.5,0-2.3-0.8-2.3-2.4V141h-1.4v-1h1.4l0.1-2l1.1-0.1v2.1h1.8v1
			h-1.8v5c0,0.8,0.4,1.2,1.3,1.2C141.8,147.2,142.1,147.1,142.5,147.1z"/>
		<path class="st4" d="M150,147.9h-1.2c0-0.3-0.1-0.7-0.1-1.4c-0.5,1.1-1.5,1.6-2.8,1.6c-0.9,0-1.6-0.2-2-0.7
			c-0.5-0.5-0.7-1-0.7-1.7c0-0.8,0.3-1.5,1-2c0.7-0.5,1.8-0.8,3.5-0.8c0.2,0,0.6,0,1,0c0-0.6,0-1.1-0.1-1.4
			c-0.1-0.3-0.3-0.5-0.6-0.7s-0.7-0.3-1.2-0.3c-1.2,0-2,0.5-2.2,1.4l-1.1-0.2c0.3-1.5,1.4-2.2,3.5-2.2c1.1,0,1.9,0.2,2.3,0.7
			c0.5,0.5,0.7,1.3,0.7,2.5v3.4C149.8,146.9,149.9,147.4,150,147.9z M148.6,144c-0.5,0-0.9,0-1.1,0c-1,0-1.7,0.2-2.3,0.5
			c-0.5,0.3-0.8,0.8-0.8,1.4c0,0.4,0.1,0.7,0.4,1s0.7,0.4,1.3,0.4c0.7,0,1.3-0.3,1.8-0.8s0.7-1.2,0.7-1.9
			C148.6,144.3,148.6,144.2,148.6,144z"/>
		<path class="st4" d="M153.5,147.9h-1.2v-10.7h1.2V147.9z"/>
		<path class="st4" d="M157.2,137.2v1.4h-1.3v-1.4H157.2z M157.2,140v7.9h-1.2V140H157.2z"/>
		<path class="st4" d="M165.8,137.2v10.7h-1.1v-1.4c-0.6,1-1.4,1.6-2.5,1.6c-0.9,0-1.7-0.4-2.3-1.2c-0.6-0.8-0.9-1.8-0.9-2.9
			c0-1.2,0.3-2.2,0.9-3c0.6-0.8,1.4-1.2,2.3-1.2c0.9,0,1.7,0.4,2.3,1.3v-3.9H165.8z M164.6,143.1c0-0.7-0.2-1.2-0.6-1.7
			s-0.9-0.6-1.5-0.6c-0.6,0-1.1,0.3-1.5,0.8c-0.4,0.5-0.6,1.3-0.6,2.3c0,1.1,0.2,1.9,0.5,2.4c0.4,0.6,0.9,0.8,1.5,0.8
			c0.6,0,1.1-0.2,1.5-0.7s0.7-1,0.7-1.7V143.1z"/>
		<path class="st4" d="M174.4,147.9h-1.2c0-0.3-0.1-0.7-0.1-1.4c-0.5,1.1-1.5,1.6-2.8,1.6c-0.9,0-1.6-0.2-2-0.7
			c-0.5-0.5-0.7-1-0.7-1.7c0-0.8,0.3-1.5,1-2c0.7-0.5,1.8-0.8,3.5-0.8c0.2,0,0.6,0,1,0c0-0.6,0-1.1-0.1-1.4
			c-0.1-0.3-0.3-0.5-0.6-0.7s-0.7-0.3-1.2-0.3c-1.2,0-2,0.5-2.2,1.4l-1.1-0.2c0.3-1.5,1.4-2.2,3.5-2.2c1.1,0,1.9,0.2,2.3,0.7
			c0.5,0.5,0.7,1.3,0.7,2.5v3.4C174.2,146.9,174.3,147.4,174.4,147.9z M173.1,144c-0.5,0-0.9,0-1.1,0c-1,0-1.7,0.2-2.3,0.5
			c-0.5,0.3-0.8,0.8-0.8,1.4c0,0.4,0.1,0.7,0.4,1s0.7,0.4,1.3,0.4c0.7,0,1.3-0.3,1.8-0.8s0.7-1.2,0.7-1.9
			C173.1,144.3,173.1,144.2,173.1,144z"/>
		<path class="st4" d="M182.9,137.2v10.7h-1.1v-1.4c-0.6,1-1.4,1.6-2.5,1.6c-0.9,0-1.7-0.4-2.3-1.2c-0.6-0.8-0.9-1.8-0.9-2.9
			c0-1.2,0.3-2.2,0.9-3c0.6-0.8,1.4-1.2,2.3-1.2c0.9,0,1.7,0.4,2.3,1.3v-3.9H182.9z M181.6,143.1c0-0.7-0.2-1.2-0.6-1.7
			s-0.9-0.6-1.5-0.6c-0.6,0-1.1,0.3-1.5,0.8c-0.4,0.5-0.6,1.3-0.6,2.3c0,1.1,0.2,1.9,0.5,2.4c0.4,0.6,0.9,0.8,1.5,0.8
			c0.6,0,1.1-0.2,1.5-0.7s0.7-1,0.7-1.7V143.1z"/>
	</g>
	<g class="st3">
		<path class="st4" d="M282.9,163.7h-1.4l-1.1-3.1h-4l-1,3.1h-1.1l3.5-10.7h1.5L282.9,163.7z M280.2,159.6l-1.7-5.1l-1.6,5.1H280.2z
			"/>
		<path class="st4" d="M283.1,161.7l1.2-0.2c0.3,1,1.1,1.5,2.5,1.5c0.5,0,0.9-0.1,1.3-0.3c0.4-0.2,0.5-0.6,0.5-1
			c0-0.6-0.5-1-1.4-1.2l-1.7-0.3c-0.7-0.1-1.2-0.4-1.6-0.7s-0.6-0.8-0.6-1.4c0-0.7,0.3-1.2,0.8-1.7s1.2-0.7,2.1-0.7
			c1.7,0,2.8,0.7,3.2,2l-1.1,0.2c-0.3-0.8-1-1.2-2-1.2c-0.5,0-0.9,0.1-1.2,0.3c-0.3,0.2-0.5,0.5-0.5,0.9c0,0.6,0.4,0.9,1.2,1.1
			l1.5,0.3c1.6,0.3,2.4,1.1,2.4,2.3c0,0.7-0.3,1.3-0.9,1.8s-1.4,0.7-2.4,0.7C284.7,163.9,283.6,163.2,283.1,161.7z"/>
		<path class="st4" d="M292.9,153v1.4h-1.3V153H292.9z M292.8,155.8v7.9h-1.2v-7.9H292.8z"/>
		<path class="st4" d="M301.7,154.6v1c-0.6,0-0.9,0.1-1.1,0.2s-0.3,0.4-0.4,0.7c0.5,0.6,0.8,1.2,0.8,1.9c0,0.7-0.3,1.3-0.8,1.9
			s-1.3,0.8-2.2,0.8c-0.2,0-0.4,0-0.5,0c-0.3-0.1-0.5-0.1-0.5-0.1c-0.1,0-0.3,0.1-0.5,0.2s-0.3,0.3-0.3,0.5c0,0.3,0.1,0.5,0.4,0.6
			s1,0.2,2,0.2c0.9,0,1.6,0.1,2,0.2s0.8,0.3,1.1,0.6s0.4,0.7,0.4,1.2c0,1.5-1.3,2.3-4,2.3c-1.3,0-2.2-0.2-2.7-0.6s-0.9-0.9-0.9-1.5
			c0-0.8,0.4-1.3,1.2-1.6c-0.5-0.3-0.8-0.8-0.8-1.3c0-0.6,0.4-1.1,1.1-1.4c-0.7-0.6-1-1.2-1-2.1c0-0.8,0.3-1.4,0.9-1.9
			c0.6-0.5,1.3-0.8,2.1-0.8c0.6,0,1.1,0.1,1.6,0.3c0.1-0.5,0.3-0.9,0.5-1.1s0.7-0.3,1.3-0.3C301.5,154.6,301.6,154.6,301.7,154.6z
			 M296.5,163.4c-0.6,0.3-0.9,0.6-0.9,1.1c0,0.4,0.2,0.7,0.7,0.9s1.1,0.3,1.8,0.3c0.7,0,1.3-0.1,1.9-0.3s0.8-0.5,0.8-1
			c0-0.2-0.1-0.4-0.3-0.6s-0.4-0.3-0.7-0.3s-0.8-0.1-1.5-0.1C297.5,163.5,296.9,163.4,296.5,163.4z M298,160.1
			c0.5,0,0.9-0.2,1.3-0.5s0.5-0.7,0.5-1.2c0-0.5-0.2-0.9-0.5-1.3s-0.8-0.5-1.2-0.5c-0.5,0-0.9,0.2-1.2,0.5s-0.5,0.8-0.5,1.3
			c0,0.5,0.2,0.9,0.5,1.2S297.4,160.1,298,160.1z"/>
		<path class="st4" d="M309.3,163.7h-1.1v-5.1c0-0.7-0.2-1.2-0.5-1.5s-0.7-0.4-1.2-0.4c-0.6,0-1.1,0.3-1.6,0.8s-0.6,1.2-0.6,2v4.3
			h-1.2v-7.9h1.1v1.5c0.6-1.1,1.5-1.7,2.5-1.7c0.6,0,1.1,0.2,1.5,0.5s0.7,0.6,0.9,1s0.2,1.1,0.2,2.1V163.7z"/>
		<path class="st4" d="M318,163.7h-1.2c0-0.3-0.1-0.7-0.1-1.4c-0.5,1.1-1.5,1.6-2.8,1.6c-0.9,0-1.6-0.2-2-0.7s-0.7-1-0.7-1.7
			c0-0.8,0.3-1.5,1-2s1.8-0.8,3.5-0.8c0.2,0,0.6,0,1,0c0-0.6,0-1.1-0.1-1.4s-0.3-0.5-0.6-0.7s-0.7-0.3-1.2-0.3c-1.2,0-2,0.5-2.2,1.4
			l-1.1-0.2c0.3-1.5,1.4-2.2,3.5-2.2c1.1,0,1.9,0.2,2.3,0.7s0.7,1.3,0.7,2.5v3.4C317.8,162.7,317.9,163.2,318,163.7z M316.6,159.8
			c-0.5,0-0.9,0-1.1,0c-1,0-1.7,0.2-2.3,0.5s-0.8,0.8-0.8,1.4c0,0.4,0.1,0.7,0.4,1s0.7,0.4,1.3,0.4c0.7,0,1.3-0.3,1.8-0.8
			s0.7-1.2,0.7-1.9C316.6,160.1,316.6,160,316.6,159.8z"/>
		<path class="st4" d="M324.9,160.9l1.1,0.2c-0.2,0.9-0.5,1.6-1,2c-0.5,0.5-1.2,0.7-2,0.7c-1.1,0-1.9-0.4-2.5-1.2s-0.9-1.8-0.9-2.9
			c0-1.2,0.3-2.2,0.9-3s1.4-1.2,2.5-1.2c0.9,0,1.5,0.3,2.1,0.8s0.8,1.2,1,2l-1.1,0.2c-0.2-1.3-0.8-2-1.9-2c-0.7,0-1.2,0.3-1.6,0.9
			s-0.5,1.3-0.5,2.2c0,1,0.2,1.8,0.5,2.4s0.9,0.8,1.5,0.8C324,162.9,324.7,162.3,324.9,160.9z"/>
		<path class="st4" d="M329,153v1.4h-1.3V153H329z M328.9,155.8v7.9h-1.2v-7.9H328.9z"/>
		<path class="st4" d="M334.2,163.9c-1.1,0-1.9-0.4-2.5-1.2s-0.9-1.8-0.9-3c0-1.3,0.3-2.3,1-3s1.5-1.1,2.5-1.1
			c1.1,0,1.9,0.4,2.6,1.2s0.9,1.8,0.9,3c0,1.2-0.3,2.2-1,3S335.3,163.9,334.2,163.9z M334.3,162.9c0.6,0,1.1-0.3,1.6-0.8
			s0.6-1.3,0.6-2.4c0-1.1-0.2-1.9-0.7-2.4s-1-0.7-1.6-0.7c-0.6,0-1.1,0.2-1.5,0.7s-0.6,1.3-0.6,2.4c0,1.1,0.2,2,0.6,2.4
			S333.7,162.9,334.3,162.9z M336.6,153.1l-3.2,1.5l-0.3-0.6l3.1-1.8L336.6,153.1z"/>
		<path class="st4" d="M345.9,163.7h-1.1v-5.1c0-0.7-0.2-1.2-0.5-1.5s-0.7-0.4-1.2-0.4c-0.6,0-1.1,0.3-1.6,0.8s-0.6,1.2-0.6,2v4.3
			h-1.2v-7.9h1.1v1.5c0.6-1.1,1.5-1.7,2.5-1.7c0.6,0,1.1,0.2,1.5,0.5s0.7,0.6,0.9,1s0.2,1.1,0.2,2.1V163.7z"/>
		<path class="st4" d="M357.6,161.4l1.1,0.2c-0.2,0.7-0.6,1.2-1.2,1.7s-1.3,0.7-2.1,0.7c-1.1,0-2-0.4-2.6-1.1s-1-1.8-1-3
			c0-1.3,0.3-2.3,1-3s1.6-1.2,2.6-1.2c1,0,1.9,0.4,2.5,1.1s0.9,1.8,1,3.2h-5.7c0,1.2,0.3,2,0.8,2.4s1,0.6,1.6,0.6
			C356.5,162.9,357.2,162.4,357.6,161.4z M357.5,159c0-0.4-0.1-0.8-0.2-1.2s-0.4-0.6-0.7-0.9s-0.7-0.4-1.2-0.4
			c-0.6,0-1.1,0.2-1.6,0.7s-0.7,1-0.7,1.8H357.5z"/>
		<path class="st4" d="M365.4,160.9l1.1,0.2c-0.2,0.9-0.5,1.6-1,2c-0.5,0.5-1.2,0.7-2,0.7c-1.1,0-1.9-0.4-2.5-1.2s-0.9-1.8-0.9-2.9
			c0-1.2,0.3-2.2,0.9-3s1.4-1.2,2.5-1.2c0.9,0,1.5,0.3,2.1,0.8s0.8,1.2,1,2l-1.1,0.2c-0.2-1.3-0.8-2-1.9-2c-0.7,0-1.2,0.3-1.6,0.9
			s-0.5,1.3-0.5,2.2c0,1,0.2,1.8,0.5,2.4s0.9,0.8,1.5,0.8C364.5,162.9,365.1,162.3,365.4,160.9z"/>
		<path class="st4" d="M371,163.9c-1.1,0-1.9-0.4-2.5-1.2s-0.9-1.8-0.9-3c0-1.3,0.3-2.3,1-3s1.5-1.1,2.5-1.1c1.1,0,1.9,0.4,2.6,1.2
			s0.9,1.8,0.9,3c0,1.2-0.3,2.2-1,3S372.1,163.9,371,163.9z M371.1,162.9c0.6,0,1.1-0.3,1.6-0.8s0.6-1.3,0.6-2.4
			c0-1.1-0.2-1.9-0.7-2.4s-1-0.7-1.6-0.7c-0.6,0-1.1,0.2-1.5,0.7s-0.6,1.3-0.6,2.4c0,1.1,0.2,2,0.6,2.4S370.5,162.9,371.1,162.9z"/>
		<path class="st4" d="M382.7,163.7h-1.1v-5.1c0-0.7-0.2-1.2-0.5-1.5s-0.7-0.4-1.2-0.4c-0.6,0-1.1,0.3-1.6,0.8s-0.6,1.2-0.6,2v4.3
			h-1.2v-7.9h1.1v1.5c0.6-1.1,1.5-1.7,2.5-1.7c0.6,0,1.1,0.2,1.5,0.5s0.7,0.6,0.9,1s0.2,1.1,0.2,2.1V163.7z"/>
		<path class="st4" d="M388,163.9c-1.1,0-1.9-0.4-2.5-1.2s-0.9-1.8-0.9-3c0-1.3,0.3-2.3,1-3s1.5-1.1,2.5-1.1c1.1,0,1.9,0.4,2.6,1.2
			s0.9,1.8,0.9,3c0,1.2-0.3,2.2-1,3S389,163.9,388,163.9z M388.1,162.9c0.6,0,1.1-0.3,1.6-0.8s0.6-1.3,0.6-2.4
			c0-1.1-0.2-1.9-0.7-2.4s-1-0.7-1.6-0.7c-0.6,0-1.1,0.2-1.5,0.7s-0.6,1.3-0.6,2.4c0,1.1,0.2,2,0.6,2.4S387.4,162.9,388.1,162.9z
			 M390.4,153.1l-3.2,1.5l-0.3-0.6l3.1-1.8L390.4,153.1z"/>
		<path class="st4" d="M404,163.7h-1.2v-4.9c0-0.5,0-0.9-0.1-1.1s-0.2-0.5-0.5-0.7s-0.6-0.3-0.9-0.3c-0.5,0-0.9,0.2-1.4,0.6
			s-0.7,1.1-0.7,2v4.4h-1.2v-5.2c0-0.7-0.2-1.2-0.5-1.5s-0.7-0.4-1-0.4c-0.5,0-1,0.2-1.4,0.7s-0.6,1-0.6,1.7v4.7h-1.2v-7.9h1.1v1.5
			c0.6-1.2,1.4-1.7,2.4-1.7c0.6,0,1,0.2,1.4,0.6s0.7,0.8,0.8,1.3c0.5-1.3,1.4-1.9,2.5-1.9c0.5,0,1,0.2,1.4,0.5s0.7,0.7,0.8,1.1
			s0.2,1,0.2,1.7V163.7z"/>
		<path class="st4" d="M407.7,153v1.4h-1.3V153H407.7z M407.7,155.8v7.9h-1.2v-7.9H407.7z"/>
		<path class="st4" d="M414.8,160.9l1.1,0.2c-0.2,0.9-0.5,1.6-1,2c-0.5,0.5-1.2,0.7-2,0.7c-1.1,0-1.9-0.4-2.5-1.2s-0.9-1.8-0.9-2.9
			c0-1.2,0.3-2.2,0.9-3s1.4-1.2,2.5-1.2c0.9,0,1.5,0.3,2.1,0.8s0.8,1.2,1,2l-1.1,0.2c-0.2-1.3-0.8-2-1.9-2c-0.7,0-1.2,0.3-1.6,0.9
			s-0.5,1.3-0.5,2.2c0,1,0.2,1.8,0.5,2.4s0.9,0.8,1.5,0.8C413.9,162.9,414.5,162.3,414.8,160.9z"/>
		<path class="st4" d="M423.8,163.7h-1.2c0-0.3-0.1-0.7-0.1-1.4c-0.5,1.1-1.5,1.6-2.8,1.6c-0.9,0-1.6-0.2-2-0.7s-0.7-1-0.7-1.7
			c0-0.8,0.3-1.5,1-2s1.8-0.8,3.5-0.8c0.2,0,0.6,0,1,0c0-0.6,0-1.1-0.1-1.4s-0.3-0.5-0.6-0.7s-0.7-0.3-1.2-0.3c-1.2,0-2,0.5-2.2,1.4
			l-1.1-0.2c0.3-1.5,1.4-2.2,3.5-2.2c1.1,0,1.9,0.2,2.3,0.7s0.7,1.3,0.7,2.5v3.4C423.6,162.7,423.7,163.2,423.8,163.7z M422.4,159.8
			c-0.5,0-0.9,0-1.1,0c-1,0-1.7,0.2-2.3,0.5s-0.8,0.8-0.8,1.4c0,0.4,0.1,0.7,0.4,1s0.7,0.4,1.3,0.4c0.7,0,1.3-0.3,1.8-0.8
			s0.7-1.2,0.7-1.9C422.4,160.1,422.4,160,422.4,159.8z"/>
	</g>
	<g class="st3">
		<path class="st4" d="M276.8,185.6h-1.2V175h1.1v1.5c0.6-1.2,1.4-1.8,2.5-1.8c0.9,0,1.7,0.4,2.3,1.2c0.6,0.8,0.9,1.8,0.9,3
			c0,1.3-0.3,2.3-0.9,3.1s-1.3,1.1-2.3,1.1c-1,0-1.8-0.5-2.3-1.4V185.6z M276.8,177.8v2.2c0.1,0.6,0.3,1.1,0.8,1.5
			c0.4,0.4,0.9,0.6,1.3,0.6c0.5,0,1-0.2,1.4-0.7s0.6-1.3,0.6-2.4c0-1-0.2-1.8-0.6-2.3s-0.9-0.8-1.5-0.8c-0.5,0-0.9,0.2-1.3,0.6
			S277,177.3,276.8,177.8z"/>
		<path class="st4" d="M290.3,182.9h-1.2c0-0.3-0.1-0.7-0.1-1.4c-0.5,1.1-1.5,1.6-2.8,1.6c-0.9,0-1.6-0.2-2-0.7s-0.7-1-0.7-1.7
			c0-0.8,0.3-1.5,1-2s1.8-0.8,3.5-0.8c0.2,0,0.6,0,1,0c0-0.6,0-1.1-0.1-1.4s-0.3-0.5-0.6-0.7s-0.7-0.3-1.2-0.3c-1.2,0-2,0.5-2.2,1.4
			l-1.1-0.2c0.3-1.5,1.4-2.2,3.5-2.2c1.1,0,1.9,0.2,2.3,0.7s0.7,1.3,0.7,2.5v3.4C290.2,181.9,290.2,182.4,290.3,182.9z M289,179
			c-0.5,0-0.9,0-1.1,0c-1,0-1.7,0.2-2.3,0.5s-0.8,0.8-0.8,1.4c0,0.4,0.1,0.7,0.4,1s0.7,0.4,1.3,0.4c0.7,0,1.3-0.3,1.8-0.8
			s0.7-1.2,0.7-1.9C289,179.3,289,179.2,289,179z"/>
		<path class="st4" d="M293.8,182.9h-1.2V175h1.1v1.8c0.4-0.9,0.8-1.4,1.1-1.7s0.8-0.4,1.2-0.4c0.1,0,0.3,0,0.5,0v1.2h-0.3
			c-0.7,0-1.2,0.3-1.7,0.8s-0.7,1.2-0.7,2V182.9z"/>
		<path class="st4" d="M304.1,182.9h-1.2c0-0.3-0.1-0.7-0.1-1.4c-0.5,1.1-1.5,1.6-2.8,1.6c-0.9,0-1.6-0.2-2-0.7s-0.7-1-0.7-1.7
			c0-0.8,0.3-1.5,1-2s1.8-0.8,3.5-0.8c0.2,0,0.6,0,1,0c0-0.6,0-1.1-0.1-1.4s-0.3-0.5-0.6-0.7s-0.7-0.3-1.2-0.3c-1.2,0-2,0.5-2.2,1.4
			l-1.1-0.2c0.3-1.5,1.4-2.2,3.5-2.2c1.1,0,1.9,0.2,2.3,0.7s0.7,1.3,0.7,2.5v3.4C303.9,181.9,304,182.4,304.1,182.9z M302.7,179
			c-0.5,0-0.9,0-1.1,0c-1,0-1.7,0.2-2.3,0.5s-0.8,0.8-0.8,1.4c0,0.4,0.1,0.7,0.4,1s0.7,0.4,1.3,0.4c0.7,0,1.3-0.3,1.8-0.8
			s0.7-1.2,0.7-1.9C302.7,179.3,302.7,179.2,302.7,179z"/>
		<path class="st4" d="M311.6,182.9h-1.2v-10.7h1.2V182.9z"/>
		<path class="st4" d="M320.2,182.9H319c0-0.3-0.1-0.7-0.1-1.4c-0.5,1.1-1.5,1.6-2.8,1.6c-0.9,0-1.6-0.2-2-0.7s-0.7-1-0.7-1.7
			c0-0.8,0.3-1.5,1-2s1.8-0.8,3.5-0.8c0.2,0,0.6,0,1,0c0-0.6,0-1.1-0.1-1.4s-0.3-0.5-0.6-0.7s-0.7-0.3-1.2-0.3c-1.2,0-2,0.5-2.2,1.4
			l-1.1-0.2c0.3-1.5,1.4-2.2,3.5-2.2c1.1,0,1.9,0.2,2.3,0.7s0.7,1.3,0.7,2.5v3.4C320,181.9,320.1,182.4,320.2,182.9z M318.8,179
			c-0.5,0-0.9,0-1.1,0c-1,0-1.7,0.2-2.3,0.5s-0.8,0.8-0.8,1.4c0,0.4,0.1,0.7,0.4,1s0.7,0.4,1.3,0.4c0.7,0,1.3-0.3,1.8-0.8
			s0.7-1.2,0.7-1.9C318.9,179.3,318.9,179.2,318.8,179z"/>
		<path class="st4" d="M321.4,180.9l1.2-0.2c0.3,1,1.1,1.5,2.5,1.5c0.5,0,0.9-0.1,1.3-0.3c0.4-0.2,0.5-0.6,0.5-1
			c0-0.6-0.5-1-1.4-1.2l-1.7-0.3c-0.7-0.1-1.2-0.4-1.6-0.7s-0.6-0.8-0.6-1.4c0-0.7,0.3-1.2,0.8-1.7s1.2-0.7,2.1-0.7
			c1.7,0,2.8,0.7,3.2,2l-1.1,0.2c-0.3-0.8-1-1.2-2-1.2c-0.5,0-0.9,0.1-1.2,0.3c-0.3,0.2-0.5,0.5-0.5,0.9c0,0.6,0.4,0.9,1.2,1.1
			l1.5,0.3c1.6,0.3,2.4,1.1,2.4,2.3c0,0.7-0.3,1.3-0.9,1.8s-1.4,0.7-2.4,0.7C323,183.1,321.9,182.4,321.4,180.9z"/>
	</g>
	<g class="st3">
		<path class="st4" d="M337.2,175v1h-1.9v6.9h-1.2V176h-1.3v-1h1.3c0-1.3,0.3-2.1,0.7-2.4s1-0.5,1.7-0.5c0.3,0,0.7,0,1.1,0.1v1
			c-0.3-0.1-0.5-0.1-0.8-0.1c-0.5,0-0.9,0.1-1.2,0.4s-0.4,0.7-0.4,1.3v0.3H337.2z"/>
	</g>
	<g class="st3">
		<path class="st4" d="M344.7,182.9h-1.2c0-0.3-0.1-0.7-0.1-1.4c-0.5,1.1-1.5,1.6-2.8,1.6c-0.9,0-1.6-0.2-2-0.7s-0.7-1-0.7-1.7
			c0-0.8,0.3-1.5,1-2s1.8-0.8,3.5-0.8c0.2,0,0.6,0,1,0c0-0.6,0-1.1-0.1-1.4s-0.3-0.5-0.6-0.7s-0.7-0.3-1.2-0.3c-1.2,0-2,0.5-2.2,1.4
			l-1.1-0.2c0.3-1.5,1.4-2.2,3.5-2.2c1.1,0,1.9,0.2,2.3,0.7s0.7,1.3,0.7,2.5v3.4C344.6,181.9,344.6,182.4,344.7,182.9z M343.4,179
			c-0.5,0-0.9,0-1.1,0c-1,0-1.7,0.2-2.3,0.5s-0.8,0.8-0.8,1.4c0,0.4,0.1,0.7,0.4,1s0.7,0.4,1.3,0.4c0.7,0,1.3-0.3,1.8-0.8
			s0.7-1.2,0.7-1.9C343.4,179.3,343.4,179.2,343.4,179z"/>
		<path class="st4" d="M357.6,182.9h-1.2V178c0-0.5,0-0.9-0.1-1.1s-0.2-0.5-0.5-0.7s-0.6-0.3-0.9-0.3c-0.5,0-0.9,0.2-1.4,0.6
			s-0.7,1.1-0.7,2v4.4h-1.2v-5.2c0-0.7-0.2-1.2-0.5-1.5s-0.7-0.4-1-0.4c-0.5,0-1,0.2-1.4,0.7s-0.6,1-0.6,1.7v4.7H347V175h1.1v1.5
			c0.6-1.2,1.4-1.7,2.4-1.7c0.6,0,1,0.2,1.4,0.6s0.7,0.8,0.8,1.3c0.5-1.3,1.4-1.9,2.5-1.9c0.5,0,1,0.2,1.4,0.5s0.7,0.7,0.8,1.1
			s0.2,1,0.2,1.7V182.9z"/>
		<path class="st4" d="M361.3,172.2v1.4H360v-1.4H361.3z M361.3,175v7.9h-1.2V175H361.3z"/>
		<path class="st4" d="M364.9,182.9h-1.2v-10.7h1.2V182.9z"/>
		<path class="st4" d="M368.7,172.2v1.4h-1.3v-1.4H368.7z M368.6,175v7.9h-1.2V175H368.6z"/>
		<path class="st4" d="M377.2,182.9H376c0-0.3-0.1-0.7-0.1-1.4c-0.5,1.1-1.5,1.6-2.8,1.6c-0.9,0-1.6-0.2-2-0.7s-0.7-1-0.7-1.7
			c0-0.8,0.3-1.5,1-2s1.8-0.8,3.5-0.8c0.2,0,0.6,0,1,0c0-0.6,0-1.1-0.1-1.4s-0.3-0.5-0.6-0.7s-0.7-0.3-1.2-0.3c-1.2,0-2,0.5-2.2,1.4
			l-1.1-0.2c0.3-1.5,1.4-2.2,3.5-2.2c1.1,0,1.9,0.2,2.3,0.7s0.7,1.3,0.7,2.5v3.4C377.1,181.9,377.1,182.4,377.2,182.9z M375.9,179
			c-0.5,0-0.9,0-1.1,0c-1,0-1.7,0.2-2.3,0.5s-0.8,0.8-0.8,1.4c0,0.4,0.1,0.7,0.4,1s0.7,0.4,1.3,0.4c0.7,0,1.3-0.3,1.8-0.8
			s0.7-1.2,0.7-1.9C375.9,179.3,375.9,179.2,375.9,179z"/>
		<path class="st4" d="M378.5,180.9l1.2-0.2c0.3,1,1.1,1.5,2.5,1.5c0.5,0,0.9-0.1,1.3-0.3c0.4-0.2,0.5-0.6,0.5-1
			c0-0.6-0.5-1-1.4-1.2l-1.7-0.3c-0.7-0.1-1.2-0.4-1.6-0.7s-0.6-0.8-0.6-1.4c0-0.7,0.3-1.2,0.8-1.7s1.2-0.7,2.1-0.7
			c1.7,0,2.8,0.7,3.2,2l-1.1,0.2c-0.3-0.8-1-1.2-2-1.2c-0.5,0-0.9,0.1-1.2,0.3c-0.3,0.2-0.5,0.5-0.5,0.9c0,0.6,0.4,0.9,1.2,1.1
			l1.5,0.3c1.6,0.3,2.4,1.1,2.4,2.3c0,0.7-0.3,1.3-0.9,1.8s-1.4,0.7-2.4,0.7C380.1,183.1,378.9,182.4,378.5,180.9z"/>
	</g>
	<g class="st3">
		<path class="st4" d="M277.5,217.7h-2V207h6.7v1.6h-4.8v2.9h3.8v1.6h-3.8V217.7z"/>
		<path class="st4" d="M285.3,217.7h-1.8V207h1.8V217.7z"/>
	</g>
	<g class="st3">
		<path class="st4" d="M292.5,215.2l1.6,0.2c-0.2,0.7-0.6,1.3-1.2,1.8s-1.4,0.7-2.3,0.7c-1.1,0-2-0.4-2.6-1.1s-1-1.7-1-3
			c0-1.2,0.3-2.2,1-3s1.6-1.2,2.7-1.2c1.1,0,2,0.4,2.6,1.2s0.9,1.8,0.9,3l0,0.2h-5.4c0,0.5,0.1,1,0.2,1.3s0.3,0.6,0.6,0.8
			s0.7,0.4,1.1,0.4C291.6,216.5,292.2,216,292.5,215.2z M292.4,212.8c0-0.6-0.2-1-0.5-1.4s-0.8-0.5-1.2-0.5c-0.5,0-0.9,0.2-1.2,0.5
			s-0.5,0.8-0.6,1.4H292.4z"/>
	</g>
	<g class="st3">
		<path class="st4" d="M301.7,217.7h-2l-1.7-2.9l-1.8,2.9h-1.5l2.6-4.1l-2.3-3.8h2l1.3,2.3l1.5-2.3h1.5l-2.2,3.4L301.7,217.7z"/>
		<path class="st4" d="M304.5,208.9h-1.8V207h1.8V208.9z M304.5,217.7h-1.8v-7.9h1.8V217.7z"/>
		<path class="st4" d="M307.5,217.7h-0.8V207h1.8v3.9c0.3-0.6,0.7-1,1-1.2c0.3-0.2,0.7-0.3,1.2-0.3c0.9,0,1.6,0.4,2.1,1.1
			c0.6,0.7,0.9,1.8,0.9,3.1c0,1.2-0.3,2.2-0.8,3c-0.6,0.8-1.4,1.3-2.4,1.3c-1.1,0-1.9-0.5-2.5-1.5L307.5,217.7z M308.4,214.3
			c0,0.7,0.2,1.2,0.5,1.6s0.7,0.5,1.2,0.5c0.5,0,0.9-0.2,1.2-0.6c0.3-0.4,0.5-1.1,0.5-2.3c0-0.8-0.1-1.5-0.4-1.9
			c-0.3-0.4-0.7-0.7-1.2-0.7c-0.5,0-0.9,0.2-1.2,0.6c-0.3,0.4-0.5,0.9-0.5,1.6V214.3z"/>
		<path class="st4" d="M317,208.9h-1.8V207h1.8V208.9z M317,217.7h-1.8v-7.9h1.8V217.7z"/>
		<path class="st4" d="M321,217.7h-1.8V207h1.8V217.7z"/>
		<path class="st4" d="M324.9,208.9h-1.8V207h1.8V208.9z M324.9,217.7h-1.8v-7.9h1.8V217.7z"/>
		<path class="st4" d="M333.5,217.7h-1.7v-1.6c-0.5,1.2-1.2,1.8-2.3,1.8c-1,0-1.7-0.4-2.2-1.2s-0.8-1.8-0.8-3c0-1.1,0.3-2.1,0.8-2.9
			c0.5-0.8,1.3-1.2,2.3-1.2c1,0,1.7,0.5,2.1,1.4V207h1.8V217.7z M331.7,213.1c0-0.6-0.2-1.1-0.5-1.5s-0.7-0.5-1.2-0.5
			c-0.5,0-0.9,0.2-1.2,0.7s-0.4,1.1-0.4,2.1c0,1.8,0.6,2.6,1.7,2.6c0.4,0,0.8-0.2,1.2-0.6s0.5-0.9,0.5-1.4V213.1z"/>
		<path class="st4" d="M342.4,217.7h-1.7c-0.2-0.5-0.2-1-0.3-1.6c-0.5,1.2-1.4,1.8-2.7,1.8c-0.8,0-1.4-0.2-1.9-0.7s-0.7-1-0.7-1.7
			c0-1.8,1.6-2.7,4.8-2.7c0.1,0,0.3,0,0.5,0v-0.6c0-0.8-0.6-1.2-1.7-1.2c-1.1,0-1.7,0.4-1.8,1.2l-1.5-0.2c0.1-0.7,0.4-1.2,1-1.6
			s1.5-0.6,2.6-0.6c0.6,0,1.1,0.1,1.5,0.2c0.4,0.1,0.7,0.3,1,0.5s0.4,0.5,0.6,0.8s0.2,0.8,0.2,1.4v3.6
			C342.1,216.6,342.2,217.2,342.4,217.7z M340.4,213.7c-2.3,0-3.5,0.5-3.5,1.6c0,0.3,0.1,0.6,0.3,0.8c0.2,0.2,0.6,0.3,1.1,0.3
			c0.7,0,1.2-0.2,1.5-0.6c0.3-0.4,0.5-0.9,0.5-1.5V213.7z"/>
		<path class="st4" d="M350.8,217.7h-1.7v-1.6c-0.5,1.2-1.2,1.8-2.3,1.8c-1,0-1.7-0.4-2.2-1.2s-0.8-1.8-0.8-3c0-1.1,0.3-2.1,0.8-2.9
			c0.5-0.8,1.3-1.2,2.3-1.2c1,0,1.7,0.5,2.1,1.4V207h1.8V217.7z M349,213.1c0-0.6-0.2-1.1-0.5-1.5s-0.7-0.5-1.2-0.5
			c-0.5,0-0.9,0.2-1.2,0.7s-0.4,1.1-0.4,2.1c0,1.8,0.6,2.6,1.7,2.6c0.4,0,0.8-0.2,1.2-0.6s0.5-0.9,0.5-1.4V213.1z"/>
	</g>
	<g class="st3">
	</g>
	<g class="st3">
		<path class="st4" d="M362.3,215.4l1.1,0.2c-0.2,0.7-0.6,1.2-1.2,1.7c-0.6,0.4-1.3,0.7-2.1,0.7c-1.1,0-2-0.4-2.6-1.1
			c-0.7-0.8-1-1.8-1-3c0-1.3,0.3-2.3,1-3c0.7-0.8,1.6-1.2,2.6-1.2c1,0,1.9,0.4,2.5,1.1c0.6,0.7,0.9,1.8,1,3.2h-5.7
			c0,1.2,0.3,2,0.8,2.4s1,0.6,1.6,0.6C361.1,216.9,361.9,216.4,362.3,215.4z M362.2,213c0-0.4-0.1-0.8-0.2-1.2
			c-0.1-0.3-0.4-0.6-0.7-0.9c-0.3-0.2-0.7-0.4-1.2-0.4c-0.6,0-1.1,0.2-1.6,0.7c-0.4,0.4-0.7,1-0.7,1.8H362.2z"/>
		<path class="st4" d="M371.6,217.7h-1.1v-5.1c0-0.7-0.2-1.2-0.5-1.5c-0.3-0.3-0.7-0.4-1.2-0.4c-0.6,0-1.2,0.3-1.6,0.8
			c-0.4,0.5-0.6,1.2-0.6,2v4.3h-1.2v-7.9h1.1v1.5c0.6-1.1,1.5-1.7,2.5-1.7c0.6,0,1.1,0.2,1.5,0.5s0.7,0.6,0.9,1
			c0.2,0.4,0.2,1.1,0.2,2.1V217.7z"/>
		<path class="st4" d="M383.3,215.4l1.1,0.2c-0.2,0.7-0.6,1.2-1.2,1.7c-0.6,0.4-1.3,0.7-2.1,0.7c-1.1,0-2-0.4-2.6-1.1
			c-0.7-0.8-1-1.8-1-3c0-1.3,0.3-2.3,1-3c0.7-0.8,1.6-1.2,2.6-1.2c1,0,1.9,0.4,2.5,1.1c0.6,0.7,0.9,1.8,1,3.2h-5.7
			c0,1.2,0.3,2,0.8,2.4s1,0.6,1.6,0.6C382.1,216.9,382.9,216.4,383.3,215.4z M383.2,213c0-0.4-0.1-0.8-0.2-1.2
			c-0.1-0.3-0.4-0.6-0.7-0.9c-0.3-0.2-0.7-0.4-1.2-0.4c-0.6,0-1.1,0.2-1.6,0.7c-0.4,0.4-0.7,1-0.7,1.8H383.2z"/>
		<path class="st4" d="M387.6,217.7h-1.2V207h1.2V217.7z"/>
	</g>
	<g class="st3">
		<path class="st4" d="M282,236.9h-1.8v-5.2c0-0.6-0.1-0.9-0.4-1.2s-0.5-0.3-0.8-0.3c-0.5,0-0.9,0.2-1.3,0.6s-0.5,1.1-0.5,2v4.1
			h-1.8v-10.7h1.8v4.2c0.4-1.1,1.2-1.7,2.3-1.7c1.6,0,2.4,0.9,2.4,2.8V236.9z"/>
		<path class="st4" d="M287.2,237.1c-1.2,0-2.1-0.4-2.7-1.3s-0.9-1.8-0.9-2.9c0-1.2,0.3-2.1,1-2.9s1.6-1.2,2.7-1.2
			c1.1,0,1.9,0.4,2.6,1.1s1,1.7,1,2.9c0,1.2-0.4,2.2-1.1,3S288.3,237.1,287.2,237.1z M287.3,235.6c1.2,0,1.8-0.9,1.8-2.7
			c0-0.8-0.1-1.4-0.4-1.9s-0.7-0.7-1.3-0.7c-0.6,0-1.1,0.2-1.4,0.7s-0.4,1.1-0.4,1.9c0,0.9,0.2,1.5,0.5,2S286.7,235.6,287.3,235.6z"
			/>
		<path class="st4" d="M294.4,236.9h-1.8V229h1.6v1.9c0.2-0.7,0.5-1.3,0.9-1.6s0.8-0.5,1.2-0.5c0.1,0,0.1,0,0.2,0v1.9
			c-0.9,0-1.5,0.3-1.8,0.9s-0.4,1.1-0.4,1.7V236.9z"/>
		<path class="st4" d="M304.6,236.9h-1.7c-0.2-0.5-0.2-1-0.3-1.6c-0.5,1.2-1.4,1.8-2.7,1.8c-0.8,0-1.4-0.2-1.9-0.7s-0.7-1-0.7-1.7
			c0-1.8,1.6-2.7,4.8-2.7c0.1,0,0.3,0,0.5,0v-0.6c0-0.8-0.6-1.2-1.7-1.2c-1.1,0-1.7,0.4-1.8,1.2l-1.5-0.2c0.1-0.7,0.4-1.2,1-1.6
			s1.5-0.6,2.6-0.6c0.6,0,1.1,0.1,1.5,0.2s0.7,0.3,1,0.5s0.4,0.5,0.6,0.8s0.2,0.8,0.2,1.4v3.6C304.4,235.8,304.5,236.4,304.6,236.9z
			 M302.7,232.9c-2.3,0-3.5,0.5-3.5,1.6c0,0.3,0.1,0.6,0.3,0.8s0.6,0.3,1.1,0.3c0.7,0,1.2-0.2,1.5-0.6s0.5-0.9,0.5-1.5V232.9z"/>
		<path class="st4" d="M308.3,236.9h-1.8V229h1.6v1.9c0.2-0.7,0.5-1.3,0.9-1.6s0.8-0.5,1.2-0.5c0.1,0,0.1,0,0.2,0v1.9
			c-0.9,0-1.5,0.3-1.8,0.9s-0.4,1.1-0.4,1.7V236.9z"/>
		<path class="st4" d="M313.6,228.1h-1.8v-1.9h1.8V228.1z M313.6,236.9h-1.8V229h1.8V236.9z"/>
		<path class="st4" d="M318.8,237.1c-1.2,0-2.1-0.4-2.7-1.3s-0.9-1.8-0.9-2.9c0-1.2,0.3-2.1,1-2.9s1.6-1.2,2.7-1.2
			c1.1,0,1.9,0.4,2.6,1.1s1,1.7,1,2.9c0,1.2-0.4,2.2-1.1,3S319.9,237.1,318.8,237.1z M318.9,235.6c1.2,0,1.8-0.9,1.8-2.7
			c0-0.8-0.1-1.4-0.4-1.9s-0.7-0.7-1.3-0.7c-0.6,0-1.1,0.2-1.4,0.7s-0.4,1.1-0.4,1.9c0,0.9,0.2,1.5,0.5,2S318.4,235.6,318.9,235.6z"
			/>
		<path class="st4" d="M334.7,236.9H333v-1.6c-0.5,1.2-1.2,1.8-2.3,1.8c-1,0-1.7-0.4-2.2-1.2s-0.8-1.8-0.8-3c0-1.1,0.3-2.1,0.8-2.9
			s1.3-1.2,2.3-1.2c1,0,1.7,0.5,2.1,1.4v-3.8h1.8V236.9z M332.9,232.3c0-0.6-0.2-1.1-0.5-1.5s-0.7-0.5-1.2-0.5
			c-0.5,0-0.9,0.2-1.2,0.7s-0.4,1.1-0.4,2.1c0,1.8,0.6,2.6,1.7,2.6c0.4,0,0.8-0.2,1.2-0.6s0.5-0.9,0.5-1.4V232.3z"/>
		<path class="st4" d="M341.8,234.4l1.6,0.2c-0.2,0.7-0.6,1.3-1.2,1.8s-1.4,0.7-2.3,0.7c-1.1,0-2-0.4-2.6-1.1s-1-1.7-1-3
			c0-1.2,0.3-2.2,1-3s1.6-1.2,2.7-1.2c1.1,0,2,0.4,2.6,1.2s0.9,1.8,0.9,3l0,0.2h-5.4c0,0.5,0.1,1,0.2,1.3s0.3,0.6,0.6,0.8
			s0.7,0.4,1.1,0.4C340.9,235.7,341.5,235.2,341.8,234.4z M341.7,232c0-0.6-0.2-1-0.5-1.4s-0.8-0.5-1.2-0.5c-0.5,0-0.9,0.2-1.2,0.5
			s-0.5,0.8-0.6,1.4H341.7z"/>
		<path class="st4" d="M352.9,235.5v1.4c-0.5,0.1-0.9,0.2-1.2,0.2c-0.5,0-0.9-0.1-1.2-0.3s-0.6-0.5-0.8-0.8s-0.2-0.8-0.2-1.5v-4.1
			h-1V229h1.1l0.2-2.1l1.5-0.1v2.2h1.6v1.4h-1.6v3.9c0,0.5,0.1,0.8,0.3,1s0.5,0.3,1,0.3C352.6,235.5,352.7,235.5,352.9,235.5z"/>
		<path class="st4" d="M356.2,236.9h-1.8V229h1.6v1.9c0.2-0.7,0.5-1.3,0.9-1.6s0.8-0.5,1.2-0.5c0.1,0,0.1,0,0.2,0v1.9
			c-0.9,0-1.5,0.3-1.8,0.9s-0.4,1.1-0.4,1.7V236.9z"/>
		<path class="st4" d="M366.4,236.9h-1.7c-0.2-0.5-0.2-1-0.3-1.6c-0.5,1.2-1.4,1.8-2.7,1.8c-0.8,0-1.4-0.2-1.9-0.7s-0.7-1-0.7-1.7
			c0-1.8,1.6-2.7,4.8-2.7c0.1,0,0.3,0,0.5,0v-0.6c0-0.8-0.6-1.2-1.7-1.2c-1.1,0-1.7,0.4-1.8,1.2l-1.5-0.2c0.1-0.7,0.4-1.2,1-1.6
			s1.5-0.6,2.6-0.6c0.6,0,1.1,0.1,1.5,0.2s0.7,0.3,1,0.5s0.4,0.5,0.6,0.8s0.2,0.8,0.2,1.4v3.6C366.2,235.8,366.3,236.4,366.4,236.9z
			 M364.5,232.9c-2.3,0-3.5,0.5-3.5,1.6c0,0.3,0.1,0.6,0.3,0.8s0.6,0.3,1.1,0.3c0.7,0,1.2-0.2,1.5-0.6s0.5-0.9,0.5-1.5V232.9z"/>
		<path class="st4" d="M369.1,236.9h-0.8v-10.7h1.8v3.9c0.3-0.6,0.7-1,1-1.2s0.7-0.3,1.2-0.3c0.9,0,1.6,0.4,2.1,1.1s0.9,1.8,0.9,3.1
			c0,1.2-0.3,2.2-0.8,3s-1.4,1.3-2.4,1.3c-1.1,0-1.9-0.5-2.5-1.5L369.1,236.9z M370.1,233.5c0,0.7,0.2,1.2,0.5,1.6s0.7,0.5,1.2,0.5
			c0.5,0,0.9-0.2,1.2-0.6s0.5-1.1,0.5-2.3c0-0.8-0.1-1.5-0.4-1.9s-0.7-0.7-1.2-0.7c-0.5,0-0.9,0.2-1.2,0.6s-0.5,0.9-0.5,1.6V233.5z"
			/>
		<path class="st4" d="M383.7,236.9H382c-0.2-0.5-0.2-1-0.3-1.6c-0.5,1.2-1.4,1.8-2.7,1.8c-0.8,0-1.4-0.2-1.9-0.7s-0.7-1-0.7-1.7
			c0-1.8,1.6-2.7,4.8-2.7c0.1,0,0.3,0,0.5,0v-0.6c0-0.8-0.6-1.2-1.7-1.2c-1.1,0-1.7,0.4-1.8,1.2l-1.5-0.2c0.1-0.7,0.4-1.2,1-1.6
			s1.5-0.6,2.6-0.6c0.6,0,1.1,0.1,1.5,0.2s0.7,0.3,1,0.5s0.4,0.5,0.6,0.8s0.2,0.8,0.2,1.4v3.6C383.5,235.8,383.5,236.4,383.7,236.9z
			 M381.7,232.9c-2.3,0-3.5,0.5-3.5,1.6c0,0.3,0.1,0.6,0.3,0.8s0.6,0.3,1.1,0.3c0.7,0,1.2-0.2,1.5-0.6s0.5-0.9,0.5-1.5V232.9z"/>
		<path class="st4" d="M387.4,229v7.8c0,2-0.9,3-2.7,3c-0.3,0-0.6,0-0.9-0.1v-1.5c0.2,0,0.4,0,0.6,0c0.5,0,0.8-0.1,1-0.3
			s0.3-0.6,0.3-1.1V229H387.4z M387.4,228.1h-1.8v-1.9h1.8V228.1z"/>
		<path class="st4" d="M392.6,237.1c-1.2,0-2.1-0.4-2.7-1.3s-0.9-1.8-0.9-2.9c0-1.2,0.3-2.1,1-2.9s1.6-1.2,2.7-1.2
			c1.1,0,1.9,0.4,2.6,1.1s1,1.7,1,2.9c0,1.2-0.4,2.2-1.1,3S393.7,237.1,392.6,237.1z M392.7,235.6c1.2,0,1.8-0.9,1.8-2.7
			c0-0.8-0.1-1.4-0.4-1.9s-0.7-0.7-1.3-0.7c-0.6,0-1.1,0.2-1.4,0.7s-0.4,1.1-0.4,1.9c0,0.9,0.2,1.5,0.5,2S392.1,235.6,392.7,235.6z"
			/>
	</g>
</g>
</svg>
