<?xml version="1.0" encoding="utf-8"?>
<!-- Generator: Adobe Illustrator 24.0.2, SVG Export Plug-In . SVG Version: 6.00 Build 0)  -->
<svg version="1.1" id="Capa_1" xmlns="http://www.w3.org/2000/svg" xmlns:xlink="http://www.w3.org/1999/xlink" x="0px" y="0px"
	 viewBox="0 0 615.2 191" style="enable-background:new 0 0 615.2 191;" xml:space="preserve">
<style type="text/css">
	.st0{fill:none;stroke:#DDDDDD;stroke-width:0.5;stroke-miterlimit:10;}
	.st1{enable-background:new    ;}
	.st2{fill:#DCDCDC;}
	.st3{opacity:0.9;fill:#CB7E42;enable-background:new    ;}
	.st4{opacity:0.3;fill:#CB7E42;enable-background:new    ;}
	.st5{opacity:0.9;fill:#FBD59A;enable-background:new    ;}
	.st6{opacity:0.3;fill:#FBD59A;enable-background:new    ;}
	.st7{fill:none;stroke:#DCDCDC;stroke-width:0.5;stroke-miterlimit:10;}
	.st8{fill:#DDDDDD;}
</style>
<title>8a</title>
<line class="st0" x1="14.1" y1="92.5" x2="543.6" y2="92.5"/>
<line class="st0" x1="20.6" y1="86" x2="20.6" y2="100"/>
<line class="st0" x1="537.6" y1="86" x2="537.6" y2="100"/>
<line class="st0" x1="271.9" y1="86" x2="271.9" y2="100"/>
<g class="st1">
	<path class="st2" d="M556.9,87.5l-1.6,0.3c-0.3-1-0.9-1.5-1.9-1.5c-0.9,0-1.5,0.4-1.9,1.2s-0.5,1.6-0.5,2.5c0,0.2,0,0.3,0,0.5
		c0.5-1.1,1.4-1.6,2.8-1.6c1,0,1.9,0.3,2.5,1s1,1.4,1,2.4c0,1-0.4,1.9-1.1,2.6s-1.6,1-2.7,1c-1.4,0-2.4-0.5-3.2-1.4s-1.2-2.3-1.2-4
		c0-1.7,0.4-3,1.2-4s1.8-1.5,3.1-1.5C555.2,84.9,556.4,85.8,556.9,87.5z M553.3,94.5c0.6,0,1.1-0.2,1.4-0.5s0.6-0.9,0.6-1.6
		c0-0.5-0.2-0.9-0.6-1.4s-0.9-0.6-1.6-0.6c-0.6,0-1.1,0.2-1.5,0.6s-0.6,0.9-0.6,1.5c0,0.6,0.2,1.1,0.6,1.5S552.7,94.5,553.3,94.5z"
		/>
	<path class="st2" d="M562.4,95.9c-1.3,0-2.3-0.5-3-1.5s-1.1-2.3-1.1-3.9c0-1.7,0.4-3,1.1-4.1s1.7-1.5,3-1.5c0.9,0,1.7,0.2,2.3,0.7
		s1.1,1.2,1.4,2s0.5,1.7,0.5,2.4c0,1.3-0.1,2.3-0.4,3.1s-0.7,1.5-1.4,2S563.4,95.9,562.4,95.9z M562.4,94.4c0.5,0,1-0.2,1.3-0.5
		s0.6-0.8,0.7-1.4s0.2-1.4,0.2-2.5c0-0.9-0.1-1.7-0.4-2.5s-0.9-1.2-1.7-1.2c-1.4,0-2.2,1.3-2.2,4c0,1.2,0.2,2.2,0.5,2.9
		S561.6,94.4,562.4,94.4z"/>
</g>
<g class="st1">
	<path class="st2" d="M4.7,95.9c-1.3,0-2.3-0.5-3-1.5c-0.7-1-1.1-2.3-1.1-3.9c0-1.7,0.4-3,1.1-4.1s1.7-1.5,3-1.5
		c0.9,0,1.7,0.2,2.3,0.7c0.6,0.5,1.1,1.2,1.4,2s0.5,1.7,0.5,2.4c0,1.3-0.1,2.3-0.4,3.1c-0.3,0.8-0.7,1.5-1.4,2S5.6,95.9,4.7,95.9z
		 M4.7,94.4c0.5,0,1-0.2,1.3-0.5c0.3-0.3,0.6-0.8,0.7-1.4c0.1-0.6,0.2-1.4,0.2-2.5c0-0.9-0.1-1.7-0.4-2.5c-0.3-0.8-0.9-1.2-1.7-1.2
		c-1.4,0-2.2,1.3-2.2,4c0,1.2,0.2,2.2,0.5,2.9C3.3,94,3.9,94.4,4.7,94.4z"/>
</g>
<circle class="st3" cx="527.7" cy="92.3" r="8.6"/>
<circle class="st4" cx="463.7" cy="92.3" r="8.6"/>
<circle class="st5" cx="148.9" cy="92.3" r="8.6"/>
<circle class="st6" cx="165.9" cy="92.3" r="8.6"/>
<polyline class="st7" points="528.3,76.5 528.3,69.8 464.3,69.8 464.3,76.5 "/>
<g class="st1">
	<path class="st8" d="M389,13.7V15h-7.8V3h7.6v1.3h-6.1v3.8h4.8v1.2h-4.8v4.3H389z"/>
	<path class="st8" d="M392.4,15H391V3h1.4V15z"/>
	<path class="st8" d="M404.9,11.9l1.2,0.2c-0.2,1-0.6,1.8-1.2,2.3c-0.6,0.6-1.4,0.8-2.3,0.8c-1.2,0-2.2-0.5-2.8-1.4s-1-2-1-3.3
		c0-1.3,0.3-2.5,1-3.4s1.6-1.3,2.8-1.3c1,0,1.7,0.3,2.3,0.9c0.6,0.6,0.9,1.3,1.1,2.2l-1.2,0.2C404.7,7.8,404,7,402.8,7
		c-0.8,0-1.3,0.3-1.8,1c-0.4,0.6-0.6,1.5-0.6,2.5c0,1.1,0.2,2,0.6,2.6c0.4,0.6,1,0.9,1.7,0.9C403.9,14.1,404.6,13.4,404.9,11.9z"/>
	<path class="st8" d="M411.2,15.3c-1.2,0-2.2-0.5-2.9-1.4s-1-2-1-3.4c0-1.4,0.4-2.5,1.2-3.4s1.7-1.3,2.9-1.3c1.2,0,2.2,0.4,2.9,1.3
		s1.1,2,1.1,3.3c0,1.4-0.4,2.5-1.1,3.4S412.4,15.3,411.2,15.3z M411.3,14.1c0.7,0,1.3-0.3,1.8-0.9s0.7-1.5,0.7-2.7
		c0-1.2-0.2-2.1-0.7-2.7C412.6,7.3,412,7,411.3,7c-0.7,0-1.3,0.3-1.7,0.8s-0.7,1.4-0.7,2.7c0,1.3,0.2,2.2,0.7,2.8
		C410,13.8,410.6,14.1,411.3,14.1z"/>
	<path class="st8" d="M424.4,15h-1.3V9.3c0-0.8-0.2-1.4-0.5-1.7s-0.8-0.5-1.3-0.5c-0.7,0-1.3,0.3-1.8,0.8s-0.7,1.3-0.7,2.2V15h-1.4
		V6.1h1.3v1.6c0.7-1.3,1.7-1.9,2.8-1.9c0.7,0,1.2,0.2,1.7,0.5c0.5,0.3,0.8,0.7,1,1.2s0.3,1.2,0.3,2.3V15z"/>
	<path class="st8" d="M426,12.7l1.3-0.3c0.3,1.1,1.2,1.7,2.8,1.7c0.6,0,1.1-0.1,1.5-0.4c0.4-0.3,0.6-0.6,0.6-1.1
		c0-0.7-0.5-1.1-1.5-1.3l-1.9-0.4c-0.7-0.1-1.3-0.4-1.7-0.8s-0.7-1-0.7-1.6c0-0.7,0.3-1.4,0.9-1.9c0.6-0.5,1.4-0.8,2.4-0.8
		c1.9,0,3.1,0.8,3.6,2.3l-1.3,0.3c-0.4-0.9-1.1-1.4-2.2-1.4c-0.6,0-1,0.1-1.4,0.3s-0.5,0.6-0.5,1c0,0.7,0.5,1.1,1.4,1.2l1.7,0.3
		c1.8,0.3,2.7,1.2,2.7,2.6c0,0.8-0.3,1.5-1,2s-1.6,0.8-2.7,0.8C427.8,15.3,426.5,14.4,426,12.7z"/>
	<path class="st8" d="M442.5,15h-1.2v-1.7c-0.6,1.3-1.6,1.9-2.8,1.9c-0.9,0-1.6-0.3-2.1-0.9c-0.5-0.6-0.8-1.4-0.8-2.6V6.1h1.4v5.7
		c0,0.9,0.2,1.5,0.5,1.8s0.8,0.5,1.2,0.5c0.4,0,0.8-0.1,1.2-0.4s0.7-0.6,0.9-1.1c0.2-0.5,0.4-1,0.4-1.5v-5h1.4V15z"/>
	<path class="st8" d="M457.1,15h-1.3V9.5c0-0.6,0-1-0.1-1.3c-0.1-0.3-0.3-0.5-0.6-0.8c-0.3-0.2-0.6-0.4-1-0.4c-0.5,0-1,0.2-1.5,0.7
		c-0.5,0.5-0.7,1.2-0.7,2.2v5h-1.3V9.2c0-0.8-0.2-1.3-0.6-1.7S449.2,7,448.7,7c-0.6,0-1.1,0.3-1.5,0.8s-0.7,1.1-0.7,1.9V15h-1.3V6.1
		h1.2v1.7c0.7-1.3,1.6-2,2.7-2c0.6,0,1.2,0.2,1.6,0.6s0.7,0.9,0.9,1.5c0.6-1.4,1.5-2.1,2.8-2.1c0.6,0,1.1,0.2,1.6,0.5
		s0.8,0.7,0.9,1.2c0.1,0.4,0.2,1.1,0.2,1.9V15z"/>
	<path class="st8" d="M463.1,15.3c-1.2,0-2.2-0.5-2.9-1.4s-1-2-1-3.4c0-1.4,0.4-2.5,1.2-3.4s1.7-1.3,2.9-1.3c1.2,0,2.2,0.4,2.9,1.3
		s1.1,2,1.1,3.3c0,1.4-0.4,2.5-1.1,3.4S464.3,15.3,463.1,15.3z M463.2,14.1c0.7,0,1.3-0.3,1.8-0.9s0.7-1.5,0.7-2.7
		c0-1.2-0.2-2.1-0.7-2.7c-0.5-0.6-1.1-0.8-1.7-0.8c-0.7,0-1.3,0.3-1.7,0.8s-0.7,1.4-0.7,2.7c0,1.3,0.2,2.2,0.7,2.8
		C461.9,13.8,462.5,14.1,463.2,14.1z"/>
	<path class="st8" d="M480.7,3v12h-1.2v-1.5c-0.6,1.2-1.6,1.8-2.8,1.8c-1,0-1.9-0.4-2.6-1.3s-1-2-1-3.3c0-1.4,0.3-2.5,1-3.4
		s1.5-1.4,2.6-1.4c1.1,0,1.9,0.5,2.6,1.5V3H480.7z M479.3,9.6c0-0.8-0.2-1.4-0.7-1.9s-1-0.7-1.7-0.7c-0.7,0-1.3,0.3-1.7,0.9
		s-0.7,1.5-0.7,2.6c0,1.2,0.2,2.1,0.6,2.7s1,0.9,1.7,0.9c0.6,0,1.2-0.3,1.7-0.8s0.7-1.2,0.7-1.9V9.6z"/>
	<path class="st8" d="M489.3,12.4l1.3,0.3c-0.2,0.8-0.7,1.4-1.4,1.9s-1.5,0.7-2.4,0.7c-1.2,0-2.2-0.4-2.9-1.3
		c-0.8-0.9-1.1-2-1.1-3.4c0-1.4,0.4-2.6,1.2-3.4s1.8-1.3,2.9-1.3c1.2,0,2.1,0.4,2.8,1.2s1.1,2,1.1,3.6h-6.5c0,1.3,0.3,2.2,0.8,2.7
		s1.2,0.7,1.8,0.7C488,14.1,488.8,13.5,489.3,12.4z M489.2,9.7c0-0.5-0.1-0.9-0.2-1.3s-0.4-0.7-0.8-1c-0.4-0.3-0.8-0.4-1.3-0.4
		c-0.7,0-1.3,0.2-1.7,0.7s-0.7,1.2-0.8,2H489.2z"/>
</g>
<g class="st1">
	<path class="st8" d="M504.7,15h-1.9c-0.2-0.5-0.3-1.1-0.3-1.8c-0.5,1.3-1.5,2-3,2c-0.9,0-1.6-0.3-2.1-0.8c-0.5-0.5-0.8-1.2-0.8-2
		c0-2,1.8-3.1,5.4-3.1c0.1,0,0.3,0,0.6,0V8.7c0-0.9-0.6-1.4-1.9-1.4c-1.2,0-1.9,0.5-2.1,1.4l-1.7-0.3c0.1-0.7,0.5-1.3,1.1-1.8
		c0.7-0.5,1.6-0.7,2.9-0.7c0.7,0,1.2,0.1,1.7,0.2c0.4,0.1,0.8,0.3,1.1,0.6c0.3,0.3,0.5,0.6,0.6,0.9s0.2,0.9,0.2,1.6v4
		C504.5,13.8,504.6,14.4,504.7,15z M502.5,10.5c-2.6,0-3.9,0.6-3.9,1.9c0,0.4,0.1,0.7,0.4,0.9c0.3,0.3,0.7,0.4,1.2,0.4
		c0.8,0,1.3-0.2,1.7-0.7c0.4-0.5,0.6-1,0.6-1.6V10.5z"/>
	<path class="st8" d="M514.2,15h-2V9.5c0-0.6-0.1-1-0.4-1.3c-0.3-0.3-0.6-0.4-1-0.4c-0.5,0-1,0.2-1.4,0.7s-0.6,1.1-0.6,2.1V15h-2
		V6.1h1.8v2.1c0.6-1.5,1.5-2.2,2.7-2.2c0.8,0,1.4,0.2,2,0.7s0.8,1.4,0.8,2.6V15z"/>
	<path class="st8" d="M515.5,13l1.9-0.4c0.3,0.7,0.9,1.1,1.9,1.1c1.2,0,1.9-0.4,1.9-1.1c0-0.2-0.1-0.4-0.3-0.6s-0.4-0.3-0.7-0.3
		l-1.6-0.3c-1.8-0.3-2.7-1.2-2.7-2.6c0-0.8,0.3-1.5,0.9-2c0.6-0.5,1.4-0.8,2.5-0.8c1.9,0,3,0.7,3.4,2.1l-1.8,0.4
		c-0.2-0.7-0.7-1-1.6-1c-1.1,0-1.6,0.3-1.6,1c0,0.5,0.4,0.8,1.3,1l1.9,0.4c1.5,0.3,2.2,1.2,2.2,2.5c0,1-0.4,1.7-1.1,2.2
		c-0.8,0.5-1.7,0.7-2.7,0.7c-0.9,0-1.7-0.2-2.4-0.5C516.2,14.3,515.8,13.7,515.5,13z"/>
	<path class="st8" d="M526.8,5.1h-2V3h2V5.1z M526.8,15h-2V6.1h2V15z"/>
	<path class="st8" d="M532.7,15.2c-1.3,0-2.3-0.5-3-1.4s-1-2-1-3.2c0-1.3,0.4-2.4,1.1-3.3s1.8-1.3,3-1.3c1.2,0,2.2,0.4,2.9,1.3
		s1.1,2,1.1,3.3c0,1.4-0.4,2.5-1.2,3.4C534.9,14.8,533.9,15.2,532.7,15.2z M532.7,13.5c1.3,0,2-1,2-3c0-0.9-0.2-1.6-0.5-2.1
		s-0.8-0.8-1.5-0.8c-0.7,0-1.2,0.3-1.5,0.8c-0.3,0.5-0.5,1.3-0.5,2.2c0,1,0.2,1.7,0.5,2.2S532.1,13.5,532.7,13.5z"/>
	<path class="st8" d="M540.7,15h-2V3h2V15z"/>
	<path class="st8" d="M546.4,1.9l0.6,1.3l-3.7,1.5l-0.4-0.9L546.4,1.9z M545.1,15h-2V6.1h2V15z"/>
	<path class="st8" d="M551.6,13.4V15c-0.6,0.1-1.1,0.2-1.4,0.2c-0.5,0-1-0.1-1.4-0.3c-0.4-0.2-0.7-0.5-0.8-0.9s-0.3-0.9-0.3-1.7V7.7
		h-1.1V6.1h1.2l0.2-2.3l1.6-0.1v2.5h1.8v1.6h-1.8V12c0,0.6,0.1,0.9,0.3,1.1c0.2,0.2,0.6,0.3,1.1,0.3
		C551.3,13.5,551.5,13.5,551.6,13.4z"/>
	<path class="st8" d="M555.3,5.1h-2V3h2V5.1z M555.3,15h-2V6.1h2V15z"/>
	<path class="st8" d="M562.9,11.7l1.7,0.2c-0.2,1.1-0.7,1.9-1.3,2.5s-1.4,0.8-2.3,0.8c-1.2,0-2.2-0.4-2.8-1.3c-0.7-0.9-1-2-1-3.3
		c0-1.3,0.4-2.4,1.1-3.3s1.7-1.3,2.9-1.3c1.9,0,3.1,1,3.5,3.1l-1.7,0.2c-0.2-1.1-0.7-1.7-1.6-1.7c-0.7,0-1.2,0.3-1.5,0.9
		s-0.5,1.3-0.5,2.2c0,0.9,0.2,1.6,0.5,2.1s0.8,0.7,1.3,0.7C562,13.4,562.6,12.9,562.9,11.7z"/>
	<path class="st8" d="M569.6,15.2c-1.3,0-2.3-0.5-3-1.4s-1-2-1-3.2c0-1.3,0.4-2.4,1.1-3.3s1.8-1.3,3-1.3c1.2,0,2.2,0.4,2.9,1.3
		s1.1,2,1.1,3.3c0,1.4-0.4,2.5-1.2,3.4C571.8,14.8,570.8,15.2,569.6,15.2z M569.7,13.5c1.3,0,2-1,2-3c0-0.9-0.2-1.6-0.5-2.1
		s-0.8-0.8-1.5-0.8c-0.7,0-1.2,0.3-1.5,0.8c-0.3,0.5-0.5,1.3-0.5,2.2c0,1,0.2,1.7,0.5,2.2S569,13.5,569.7,13.5z"/>
	<path class="st8" d="M574.5,13l1.9-0.4c0.3,0.7,0.9,1.1,1.9,1.1c1.2,0,1.9-0.4,1.9-1.1c0-0.2-0.1-0.4-0.3-0.6s-0.4-0.3-0.7-0.3
		l-1.6-0.3c-1.8-0.3-2.7-1.2-2.7-2.6c0-0.8,0.3-1.5,0.9-2c0.6-0.5,1.4-0.8,2.5-0.8c1.9,0,3,0.7,3.4,2.1L580,8.4
		c-0.2-0.7-0.7-1-1.6-1c-1.1,0-1.6,0.3-1.6,1c0,0.5,0.4,0.8,1.3,1l1.9,0.4c1.5,0.3,2.2,1.2,2.2,2.5c0,1-0.4,1.7-1.1,2.2
		c-0.8,0.5-1.7,0.7-2.7,0.7c-0.9,0-1.7-0.2-2.4-0.5C575.2,14.3,574.8,13.7,574.5,13z"/>
</g>
<g class="st1">
	<path class="st8" d="M598.8,12.4l1.3,0.3c-0.2,0.8-0.7,1.4-1.4,1.9s-1.5,0.7-2.4,0.7c-1.2,0-2.2-0.4-2.9-1.3
		c-0.8-0.9-1.1-2-1.1-3.4c0-1.4,0.4-2.6,1.2-3.4s1.8-1.3,2.9-1.3c1.2,0,2.1,0.4,2.8,1.2s1.1,2,1.1,3.6h-6.5c0,1.3,0.3,2.2,0.8,2.7
		s1.2,0.7,1.8,0.7C597.6,14.1,598.4,13.5,598.8,12.4z M598.8,9.7c0-0.5-0.1-0.9-0.2-1.3s-0.4-0.7-0.8-1c-0.4-0.3-0.8-0.4-1.3-0.4
		c-0.7,0-1.3,0.2-1.7,0.7s-0.7,1.2-0.8,2H598.8z"/>
	<path class="st8" d="M609.3,15h-1.3V9.3c0-0.8-0.2-1.4-0.5-1.7s-0.8-0.5-1.3-0.5c-0.7,0-1.3,0.3-1.8,0.8s-0.7,1.3-0.7,2.2V15h-1.4
		V6.1h1.3v1.6c0.7-1.3,1.7-1.9,2.8-1.9c0.7,0,1.2,0.2,1.7,0.5c0.5,0.3,0.8,0.7,1,1.2s0.3,1.2,0.3,2.3V15z"/>
</g>
<g class="st1">
	<path class="st8" d="M388.9,36.6h-7.8v-12h7.7v1.8h-5.6v3.3h4.5v1.7h-4.5v3.4h5.6V36.6z"/>
	<path class="st8" d="M389.6,34.6l1.9-0.4c0.3,0.7,0.9,1.1,1.9,1.1c1.2,0,1.9-0.4,1.9-1.1c0-0.2-0.1-0.4-0.3-0.6s-0.4-0.3-0.7-0.3
		l-1.6-0.3c-1.8-0.3-2.7-1.2-2.7-2.6c0-0.8,0.3-1.5,0.9-2c0.6-0.5,1.4-0.8,2.5-0.8c1.9,0,3,0.7,3.4,2.1L395,30c-0.2-0.7-0.7-1-1.6-1
		c-1.1,0-1.6,0.3-1.6,1c0,0.5,0.4,0.8,1.3,1l1.9,0.4c1.5,0.3,2.2,1.2,2.2,2.5c0,1-0.4,1.7-1.1,2.2c-0.8,0.5-1.7,0.7-2.7,0.7
		c-0.9,0-1.7-0.2-2.4-0.5C390.2,35.9,389.8,35.3,389.6,34.6z"/>
	<path class="st8" d="M400.9,39.6h-2V27.7h1.9v1.5c0.6-1.2,1.5-1.7,2.7-1.7c1,0,1.8,0.4,2.4,1.3s0.9,1.9,0.9,3.3
		c0,1.3-0.3,2.4-0.8,3.3s-1.4,1.4-2.5,1.4c-1.1,0-2-0.5-2.5-1.4V39.6z M400.9,33c0,0.6,0.2,1.2,0.6,1.6c0.4,0.4,0.8,0.6,1.3,0.6
		c0.6,0,1.1-0.3,1.4-0.8s0.4-1.3,0.4-2.1c0-0.9-0.1-1.6-0.4-2.2c-0.3-0.6-0.7-0.8-1.3-0.8c-0.5,0-1,0.2-1.4,0.7s-0.6,1.1-0.6,1.8V33
		z"/>
	<path class="st8" d="M416.1,36.6h-1.9c-0.2-0.5-0.3-1.1-0.3-1.8c-0.5,1.3-1.5,2-3,2c-0.9,0-1.6-0.3-2.1-0.8c-0.5-0.5-0.8-1.2-0.8-2
		c0-2,1.8-3.1,5.4-3.1c0.1,0,0.3,0,0.6,0v-0.7c0-0.9-0.6-1.4-1.9-1.4c-1.2,0-1.9,0.5-2.1,1.4l-1.7-0.3c0.1-0.7,0.5-1.3,1.1-1.8
		c0.7-0.5,1.6-0.7,2.9-0.7c0.7,0,1.2,0.1,1.7,0.2c0.4,0.1,0.8,0.3,1.1,0.6c0.3,0.3,0.5,0.6,0.6,0.9s0.2,0.9,0.2,1.6v4
		C415.8,35.4,415.9,36,416.1,36.6z M413.9,32.1c-2.6,0-3.9,0.6-3.9,1.9c0,0.4,0.1,0.7,0.4,0.9c0.3,0.3,0.7,0.4,1.2,0.4
		c0.8,0,1.3-0.2,1.7-0.7c0.4-0.5,0.6-1,0.6-1.6V32.1z"/>
	<path class="st8" d="M425.6,36.6h-2v-5.5c0-0.6-0.1-1-0.4-1.3c-0.3-0.3-0.6-0.4-1-0.4c-0.5,0-1,0.2-1.4,0.7s-0.6,1.1-0.6,2.1v4.6
		h-2v-8.9h1.8v2.1c0.6-1.5,1.5-2.2,2.7-2.2c0.8,0,1.4,0.2,2,0.7s0.8,1.4,0.8,2.6V36.6z M424,24.1l0.6,0.9c-0.1,0.3-0.4,0.5-0.8,0.7
		s-0.7,0.3-1,0.3c-0.4,0-0.8-0.1-1.3-0.4c-0.4-0.2-0.7-0.3-0.9-0.3c-0.3,0-0.6,0.2-1.1,0.7l-0.6-0.9c0.5-0.7,1.1-1,1.8-1
		c0.3,0,0.7,0.1,1.2,0.3c0.5,0.2,0.9,0.4,1.2,0.4C423.4,24.8,423.7,24.6,424,24.1z"/>
	<path class="st8" d="M435.6,36.6h-1.9c-0.2-0.5-0.3-1.1-0.3-1.8c-0.5,1.3-1.5,2-3,2c-0.9,0-1.6-0.3-2.1-0.8c-0.5-0.5-0.8-1.2-0.8-2
		c0-2,1.8-3.1,5.4-3.1c0.1,0,0.3,0,0.6,0v-0.7c0-0.9-0.6-1.4-1.9-1.4c-1.2,0-1.9,0.5-2.1,1.4l-1.7-0.3c0.1-0.7,0.5-1.3,1.1-1.8
		c0.7-0.5,1.6-0.7,2.9-0.7c0.7,0,1.2,0.1,1.7,0.2c0.4,0.1,0.8,0.3,1.1,0.6c0.3,0.3,0.5,0.6,0.6,0.9s0.2,0.9,0.2,1.6v4
		C435.3,35.4,435.4,36,435.6,36.6z M433.4,32.1c-2.6,0-3.9,0.6-3.9,1.9c0,0.4,0.1,0.7,0.4,0.9c0.3,0.3,0.7,0.4,1.2,0.4
		c0.8,0,1.3-0.2,1.7-0.7c0.4-0.5,0.6-1,0.6-1.6V32.1z"/>
</g>
<g class="st1">
	<path class="st8" d="M441.2,34.3l1.3-0.3c0.3,1.1,1.2,1.7,2.8,1.7c0.6,0,1.1-0.1,1.5-0.4c0.4-0.3,0.6-0.6,0.6-1.1
		c0-0.7-0.5-1.1-1.5-1.3l-1.9-0.4c-0.7-0.1-1.3-0.4-1.7-0.8s-0.7-1-0.7-1.6c0-0.7,0.3-1.4,0.9-1.9c0.6-0.5,1.4-0.8,2.4-0.8
		c1.9,0,3.1,0.8,3.6,2.3l-1.3,0.3c-0.4-0.9-1.1-1.4-2.2-1.4c-0.6,0-1,0.1-1.4,0.3s-0.5,0.6-0.5,1c0,0.7,0.5,1.1,1.4,1.2l1.7,0.3
		c1.8,0.3,2.7,1.2,2.7,2.6c0,0.8-0.3,1.5-1,2s-1.6,0.8-2.7,0.8C443,36.9,441.7,36,441.2,34.3z"/>
	<path class="st8" d="M456.6,34l1.3,0.3c-0.2,0.8-0.7,1.4-1.4,1.9s-1.5,0.7-2.4,0.7c-1.2,0-2.2-0.4-2.9-1.3c-0.8-0.9-1.1-2-1.1-3.4
		c0-1.4,0.4-2.6,1.2-3.4s1.8-1.3,2.9-1.3c1.2,0,2.1,0.4,2.8,1.2s1.1,2,1.1,3.6h-6.5c0,1.3,0.3,2.2,0.8,2.7s1.2,0.7,1.8,0.7
		C455.3,35.7,456.1,35.1,456.6,34z M456.5,31.3c0-0.5-0.1-0.9-0.2-1.3s-0.4-0.7-0.8-1c-0.4-0.3-0.8-0.4-1.3-0.4
		c-0.7,0-1.3,0.2-1.7,0.7s-0.7,1.2-0.8,2H456.5z"/>
	<path class="st8" d="M466,24.6v1.5h-1.5v-1.5H466z M466,27.7v8.9h-1.4v-8.9H466z"/>
	<path class="st8" d="M475.7,36.6h-1.3v-5.7c0-0.8-0.2-1.4-0.5-1.7s-0.8-0.5-1.3-0.5c-0.7,0-1.3,0.3-1.8,0.8s-0.7,1.3-0.7,2.2v4.9
		h-1.4v-8.9h1.3v1.6c0.7-1.3,1.7-1.9,2.8-1.9c0.7,0,1.2,0.2,1.7,0.5c0.5,0.3,0.8,0.7,1,1.2s0.3,1.2,0.3,2.3V36.6z"/>
	<path class="st8" d="M483.7,33.5l1.2,0.2c-0.2,1-0.6,1.8-1.2,2.3c-0.6,0.6-1.4,0.8-2.3,0.8c-1.2,0-2.2-0.5-2.8-1.4s-1-2-1-3.3
		c0-1.3,0.3-2.5,1-3.4s1.6-1.3,2.8-1.3c1,0,1.7,0.3,2.3,0.9c0.6,0.6,0.9,1.3,1.1,2.2l-1.2,0.2c-0.2-1.5-0.9-2.2-2.1-2.2
		c-0.8,0-1.3,0.3-1.8,1c-0.4,0.6-0.6,1.5-0.6,2.5c0,1.1,0.2,2,0.6,2.6c0.4,0.6,1,0.9,1.7,0.9C482.7,35.7,483.4,35,483.7,33.5z"/>
	<path class="st8" d="M488.3,36.6h-1.4v-8.9h1.2v2.1c0.4-1,0.9-1.6,1.3-1.9c0.4-0.3,0.9-0.4,1.3-0.4c0.1,0,0.3,0,0.5,0v1.3H491
		c-0.8,0-1.4,0.3-1.9,0.9s-0.8,1.3-0.8,2.2V36.6z"/>
	<path class="st8" d="M498.7,34l1.3,0.3c-0.2,0.8-0.7,1.4-1.4,1.9s-1.5,0.7-2.4,0.7c-1.2,0-2.2-0.4-2.9-1.3c-0.8-0.9-1.1-2-1.1-3.4
		c0-1.4,0.4-2.6,1.2-3.4s1.8-1.3,2.9-1.3c1.2,0,2.1,0.4,2.8,1.2s1.1,2,1.1,3.6h-6.5c0,1.3,0.3,2.2,0.8,2.7s1.2,0.7,1.8,0.7
		C497.4,35.7,498.2,35.1,498.7,34z M498.6,31.3c0-0.5-0.1-0.9-0.2-1.3s-0.4-0.7-0.8-1c-0.4-0.3-0.8-0.4-1.3-0.4
		c-0.7,0-1.3,0.2-1.7,0.7s-0.7,1.2-0.8,2H498.6z"/>
	<path class="st8" d="M514.1,36.6h-1.3v-5.5c0-0.6,0-1-0.1-1.3c-0.1-0.3-0.3-0.5-0.6-0.8c-0.3-0.2-0.6-0.4-1-0.4
		c-0.5,0-1,0.2-1.5,0.7c-0.5,0.5-0.7,1.2-0.7,2.2v5h-1.3v-5.8c0-0.8-0.2-1.3-0.6-1.7s-0.8-0.5-1.2-0.5c-0.6,0-1.1,0.3-1.5,0.8
		s-0.7,1.1-0.7,1.9v5.3h-1.3v-8.9h1.2v1.7c0.7-1.3,1.6-2,2.7-2c0.6,0,1.2,0.2,1.6,0.6s0.7,0.9,0.9,1.5c0.6-1.4,1.5-2.1,2.8-2.1
		c0.6,0,1.1,0.2,1.6,0.5s0.8,0.7,0.9,1.2c0.1,0.4,0.2,1.1,0.2,1.9V36.6z"/>
	<path class="st8" d="M522.7,34l1.3,0.3c-0.2,0.8-0.7,1.4-1.4,1.9s-1.5,0.7-2.4,0.7c-1.2,0-2.2-0.4-2.9-1.3c-0.8-0.9-1.1-2-1.1-3.4
		c0-1.4,0.4-2.6,1.2-3.4s1.8-1.3,2.9-1.3c1.2,0,2.1,0.4,2.8,1.2s1.1,2,1.1,3.6h-6.5c0,1.3,0.3,2.2,0.8,2.7s1.2,0.7,1.8,0.7
		C521.4,35.7,522.2,35.1,522.7,34z M522.6,31.3c0-0.5-0.1-0.9-0.2-1.3s-0.4-0.7-0.8-1c-0.4-0.3-0.8-0.4-1.3-0.4
		c-0.7,0-1.3,0.2-1.7,0.7s-0.7,1.2-0.8,2H522.6z"/>
	<path class="st8" d="M533.2,36.6h-1.3v-5.7c0-0.8-0.2-1.4-0.5-1.7s-0.8-0.5-1.3-0.5c-0.7,0-1.3,0.3-1.8,0.8s-0.7,1.3-0.7,2.2v4.9
		h-1.4v-8.9h1.3v1.6c0.7-1.3,1.7-1.9,2.8-1.9c0.7,0,1.2,0.2,1.7,0.5c0.5,0.3,0.8,0.7,1,1.2s0.3,1.2,0.3,2.3V36.6z"/>
	<path class="st8" d="M540,35.7v1.1c-0.5,0.1-0.9,0.1-1.3,0.1c-1.7,0-2.6-0.9-2.6-2.7v-5.3h-1.6v-1.1h1.6l0.1-2.2l1.3-0.1v2.4h2v1.1
		h-2v5.6c0,0.9,0.5,1.4,1.4,1.4C539.2,35.8,539.6,35.7,540,35.7z"/>
	<path class="st8" d="M544.7,36.9c-1.2,0-2.2-0.5-2.9-1.4s-1-2-1-3.4c0-1.4,0.4-2.5,1.2-3.4s1.7-1.3,2.9-1.3c1.2,0,2.2,0.4,2.9,1.3
		s1.1,2,1.1,3.3c0,1.4-0.4,2.5-1.1,3.4S545.9,36.9,544.7,36.9z M544.8,35.7c0.7,0,1.3-0.3,1.8-0.9s0.7-1.5,0.7-2.7
		c0-1.2-0.2-2.1-0.7-2.7c-0.5-0.6-1.1-0.8-1.7-0.8c-0.7,0-1.3,0.3-1.7,0.8s-0.7,1.4-0.7,2.7c0,1.3,0.2,2.2,0.7,2.8
		C543.5,35.4,544.1,35.7,544.8,35.7z M547.4,24.7l-3.6,1.7l-0.4-0.7l3.5-2L547.4,24.7z"/>
	<path class="st8" d="M561.2,34l1.3,0.3c-0.2,0.8-0.7,1.4-1.4,1.9s-1.5,0.7-2.4,0.7c-1.2,0-2.2-0.4-2.9-1.3c-0.8-0.9-1.1-2-1.1-3.4
		c0-1.4,0.4-2.6,1.2-3.4s1.8-1.3,2.9-1.3c1.2,0,2.1,0.4,2.8,1.2s1.1,2,1.1,3.6h-6.5c0,1.3,0.3,2.2,0.8,2.7s1.2,0.7,1.8,0.7
		C559.9,35.7,560.7,35.1,561.2,34z M561.1,31.3c0-0.5-0.1-0.9-0.2-1.3s-0.4-0.7-0.8-1c-0.4-0.3-0.8-0.4-1.3-0.4
		c-0.7,0-1.3,0.2-1.7,0.7s-0.7,1.2-0.8,2H561.1z"/>
	<path class="st8" d="M571.7,36.6h-1.3v-5.7c0-0.8-0.2-1.4-0.5-1.7s-0.8-0.5-1.3-0.5c-0.7,0-1.3,0.3-1.8,0.8s-0.7,1.3-0.7,2.2v4.9
		h-1.4v-8.9h1.3v1.6c0.7-1.3,1.7-1.9,2.8-1.9c0.7,0,1.2,0.2,1.7,0.5c0.5,0.3,0.8,0.7,1,1.2s0.3,1.2,0.3,2.3V36.6z"/>
</g>
<g class="st1">
	<path class="st8" d="M578.7,24.6h8.5v1.5c-1.5,1.9-2.5,3.6-2.9,5s-0.8,3.2-0.9,5.5h-2.5c0.2-3.9,1.7-7.3,4.4-10.1h-6.9L578.7,24.6z
		"/>
	<path class="st8" d="M591.4,34.4v2l-1.4,2.8h-0.8l1-2.6h-1v-2.2H591.4z"/>
	<path class="st8" d="M596.3,31.3v-1.7h1.1c0.7,0,1.2-0.1,1.6-0.4s0.7-0.7,0.7-1.3c0-0.6-0.2-1-0.6-1.3s-0.9-0.4-1.4-0.4
		c-1.2,0-2,0.6-2.4,1.7l-2-0.3c0.2-0.9,0.7-1.7,1.5-2.2s1.8-0.9,2.9-0.9c1.1,0,2.1,0.3,2.9,0.9s1.2,1.4,1.2,2.3
		c0,0.7-0.2,1.3-0.6,1.9s-1,0.8-1.6,0.8c0.8,0.1,1.4,0.4,1.9,1s0.7,1.2,0.7,1.9c0,1-0.4,1.9-1.2,2.5s-1.9,1-3.3,1
		c-1.3,0-2.3-0.3-3.2-1c-0.8-0.6-1.4-1.4-1.6-2.2l2-0.5c0.4,1.3,1.3,2,2.7,2c0.7,0,1.3-0.2,1.7-0.5c0.4-0.4,0.6-0.8,0.6-1.3
		c0-0.5-0.2-1-0.6-1.4s-0.9-0.6-1.7-0.6H596.3z"/>
</g>
<g class="st1">
</g>
<g class="st1">
	<path class="st8" d="M382.5,61.2h-1.4V49.3h1.2v1.7c0.6-1.3,1.6-2,2.8-2c1,0,1.9,0.4,2.5,1.3s1,2,1,3.3c0,1.4-0.3,2.6-1,3.4
		s-1.5,1.3-2.5,1.3c-1.1,0-2-0.5-2.6-1.6V61.2z M382.5,52.5V55c0.1,0.7,0.4,1.2,0.9,1.7c0.5,0.4,1,0.7,1.5,0.7
		c0.6,0,1.1-0.3,1.6-0.8s0.7-1.4,0.7-2.7c0-1.1-0.2-2-0.6-2.6c-0.4-0.6-1-0.9-1.7-0.9c-0.6,0-1,0.2-1.5,0.6S382.7,51.9,382.5,52.5z"
		/>
	<path class="st8" d="M397.8,58.2h-1.2v-1.7c-0.6,1.3-1.6,1.9-2.8,1.9c-0.9,0-1.6-0.3-2.1-0.9c-0.5-0.6-0.8-1.4-0.8-2.6v-5.7h1.4V55
		c0,0.9,0.2,1.5,0.5,1.8s0.8,0.5,1.2,0.5c0.4,0,0.8-0.1,1.2-0.4s0.7-0.6,0.9-1.1c0.2-0.5,0.4-1,0.4-1.5v-5h1.4V58.2z"/>
	<path class="st8" d="M407.5,58.2h-1.3v-5.7c0-0.8-0.2-1.4-0.5-1.7s-0.8-0.5-1.3-0.5c-0.7,0-1.3,0.3-1.8,0.8s-0.7,1.3-0.7,2.2v4.9
		h-1.4v-8.9h1.3V51c0.7-1.3,1.7-1.9,2.8-1.9c0.7,0,1.2,0.2,1.7,0.5c0.5,0.3,0.8,0.7,1,1.2s0.3,1.2,0.3,2.3V58.2z"/>
</g>
<g class="st1">
	<path class="st8" d="M414.3,57.3v1.1c-0.5,0.1-0.9,0.1-1.3,0.1c-1.7,0-2.6-0.9-2.6-2.7v-5.3h-1.6v-1.1h1.6l0.1-2.2l1.3-0.1v2.4h2
		v1.1h-2V56c0,0.9,0.5,1.4,1.4,1.4C413.5,57.4,413.9,57.3,414.3,57.3z"/>
</g>
<g class="st1">
	<path class="st8" d="M418.7,58.5c-1.2,0-2.2-0.5-2.9-1.4s-1-2-1-3.4c0-1.4,0.4-2.5,1.2-3.4s1.7-1.3,2.9-1.3c1.2,0,2.2,0.4,2.9,1.3
		s1.1,2,1.1,3.3c0,1.4-0.4,2.5-1.1,3.4S419.9,58.5,418.7,58.5z M418.8,57.3c0.7,0,1.3-0.3,1.8-0.9s0.7-1.5,0.7-2.7
		c0-1.2-0.2-2.1-0.7-2.7c-0.5-0.6-1.1-0.8-1.7-0.8c-0.7,0-1.3,0.3-1.7,0.8s-0.7,1.4-0.7,2.7c0,1.3,0.2,2.2,0.7,2.8
		C417.5,57,418.1,57.3,418.8,57.3z"/>
	<path class="st8" d="M423.7,55.9l1.3-0.3c0.3,1.1,1.2,1.7,2.8,1.7c0.6,0,1.1-0.1,1.5-0.4c0.4-0.3,0.6-0.6,0.6-1.1
		c0-0.7-0.5-1.1-1.5-1.3l-1.9-0.4c-0.7-0.1-1.3-0.4-1.7-0.8s-0.7-1-0.7-1.6c0-0.7,0.3-1.4,0.9-1.9c0.6-0.5,1.4-0.8,2.4-0.8
		c1.9,0,3.1,0.8,3.6,2.3l-1.3,0.3c-0.4-0.9-1.1-1.4-2.2-1.4c-0.6,0-1,0.1-1.4,0.3s-0.5,0.6-0.5,1c0,0.7,0.5,1.1,1.4,1.2l1.7,0.3
		c1.8,0.3,2.7,1.2,2.7,2.6c0,0.8-0.3,1.5-1,2s-1.6,0.8-2.7,0.8C425.5,58.5,424.2,57.6,423.7,55.9z"/>
	<path class="st8" d="M443.6,55.6l1.3,0.3c-0.2,0.8-0.7,1.4-1.4,1.9s-1.5,0.7-2.4,0.7c-1.2,0-2.2-0.4-2.9-1.3
		c-0.8-0.9-1.1-2-1.1-3.4c0-1.4,0.4-2.6,1.2-3.4s1.8-1.3,2.9-1.3c1.2,0,2.1,0.4,2.8,1.2s1.1,2,1.1,3.6h-6.5c0,1.3,0.3,2.2,0.8,2.7
		s1.2,0.7,1.8,0.7C442.3,57.3,443.1,56.7,443.6,55.6z M443.5,52.9c0-0.5-0.1-0.9-0.2-1.3s-0.4-0.7-0.8-1c-0.4-0.3-0.8-0.4-1.3-0.4
		c-0.7,0-1.3,0.2-1.7,0.7s-0.7,1.2-0.8,2H443.5z"/>
	<path class="st8" d="M454.1,58.2h-1.3v-5.7c0-0.8-0.2-1.4-0.5-1.7s-0.8-0.5-1.3-0.5c-0.7,0-1.3,0.3-1.8,0.8s-0.7,1.3-0.7,2.2v4.9
		h-1.4v-8.9h1.3V51c0.7-1.3,1.7-1.9,2.8-1.9c0.7,0,1.2,0.2,1.7,0.5c0.5,0.3,0.8,0.7,1,1.2s0.3,1.2,0.3,2.3V58.2z"/>
	<path class="st8" d="M460.9,57.3v1.1c-0.5,0.1-0.9,0.1-1.3,0.1c-1.7,0-2.6-0.9-2.6-2.7v-5.3h-1.6v-1.1h1.6l0.1-2.2l1.3-0.1v2.4h2
		v1.1h-2V56c0,0.9,0.5,1.4,1.4,1.4C460.1,57.4,460.5,57.3,460.9,57.3z"/>
	<path class="st8" d="M463.8,58.2h-1.4v-8.9h1.2v2.1c0.4-1,0.9-1.6,1.3-1.9c0.4-0.3,0.9-0.4,1.3-0.4c0.1,0,0.3,0,0.5,0v1.3h-0.3
		c-0.8,0-1.4,0.3-1.9,0.9s-0.8,1.3-0.8,2.2V58.2z"/>
	<path class="st8" d="M474.2,55.6l1.3,0.3c-0.2,0.8-0.7,1.4-1.4,1.9s-1.5,0.7-2.4,0.7c-1.2,0-2.2-0.4-2.9-1.3
		c-0.8-0.9-1.1-2-1.1-3.4c0-1.4,0.4-2.6,1.2-3.4s1.8-1.3,2.9-1.3c1.2,0,2.1,0.4,2.8,1.2s1.1,2,1.1,3.6h-6.5c0,1.3,0.3,2.2,0.8,2.7
		s1.2,0.7,1.8,0.7C472.9,57.3,473.7,56.7,474.2,55.6z M474.1,52.9c0-0.5-0.1-0.9-0.2-1.3s-0.4-0.7-0.8-1c-0.4-0.3-0.8-0.4-1.3-0.4
		c-0.7,0-1.3,0.2-1.7,0.7s-0.7,1.2-0.8,2H474.1z"/>
	<path class="st8" d="M490.3,57v1.2h-8.5V57c3.4-2.5,5.4-4.2,6-5c0.6-0.8,1-1.6,1-2.4c0-0.7-0.3-1.3-0.8-1.8s-1.2-0.7-1.9-0.7
		c-0.7,0-1.4,0.2-1.9,0.7c-0.6,0.5-0.9,1.2-0.9,2l-1.4-0.4c0.6-2.3,2-3.5,4.3-3.5c1.2,0,2.2,0.4,3,1.1s1.2,1.6,1.2,2.6
		c0,0.7-0.2,1.4-0.5,2s-1.1,1.4-2.1,2.3s-2.3,1.9-4,3H490.3z"/>
	<path class="st8" d="M496.7,58.5c-1.4,0-2.5-0.6-3.3-1.8s-1.2-2.7-1.2-4.5c0-1.7,0.4-3.2,1.2-4.4c0.8-1.2,1.9-1.8,3.3-1.8
		c1.5,0,2.6,0.6,3.4,1.9c0.8,1.3,1.2,2.7,1.2,4.4c0,1.7-0.4,3.1-1.2,4.3S498.1,58.5,496.7,58.5z M496.7,57.3c1,0,1.8-0.5,2.3-1.4
		c0.5-0.9,0.7-2.1,0.7-3.5c0-1.5-0.2-2.8-0.7-3.8s-1.3-1.5-2.3-1.5c-1,0-1.7,0.5-2.2,1.4s-0.7,2.1-0.7,3.6c0,1.6,0.3,2.8,0.8,3.7
		C494.9,56.8,495.7,57.3,496.7,57.3z"/>
	<path class="st8" d="M507.2,58.5c-1.4,0-2.5-0.6-3.3-1.8s-1.2-2.7-1.2-4.5c0-1.7,0.4-3.2,1.2-4.4c0.8-1.2,1.9-1.8,3.3-1.8
		c1.5,0,2.6,0.6,3.4,1.9c0.8,1.3,1.2,2.7,1.2,4.4c0,1.7-0.4,3.1-1.2,4.3S508.7,58.5,507.2,58.5z M507.2,57.3c1,0,1.8-0.5,2.3-1.4
		c0.5-0.9,0.7-2.1,0.7-3.5c0-1.5-0.2-2.8-0.7-3.8s-1.3-1.5-2.3-1.5c-1,0-1.7,0.5-2.2,1.4s-0.7,2.1-0.7,3.6c0,1.6,0.3,2.8,0.8,3.7
		C505.5,56.8,506.2,57.3,507.2,57.3z"/>
	<path class="st8" d="M516,52c-1.5-0.7-2.3-1.6-2.3-2.9c0-0.9,0.4-1.7,1.1-2.3s1.8-0.9,3-0.9c1.2,0,2.2,0.3,2.9,0.8
		c0.7,0.6,1.1,1.3,1.1,2.2c0,1.3-0.8,2.2-2.3,2.7c1.3,0.6,2,1.1,2.4,1.7s0.5,1.1,0.5,1.6c0,1-0.4,1.8-1.2,2.4c-0.8,0.6-1.9,1-3.3,1
		c-1.5,0-2.7-0.3-3.5-1c-0.8-0.7-1.2-1.4-1.2-2.4C513.1,53.8,514.1,52.7,516,52z M517.7,52.6c-2,0.5-3,1.3-3,2.5
		c0,0.6,0.3,1.2,0.8,1.6c0.6,0.4,1.4,0.6,2.4,0.6c0.9,0,1.6-0.2,2.2-0.6s0.8-0.9,0.8-1.5C520.9,54.1,519.8,53.2,517.7,52.6z
		 M517.8,51.2c1-0.3,1.7-0.6,2.1-0.9s0.6-0.8,0.6-1.3c0-0.6-0.2-1.1-0.7-1.4s-1.1-0.5-2-0.5c-0.8,0-1.4,0.2-1.9,0.5
		c-0.5,0.3-0.7,0.8-0.7,1.4c0,0.6,0.3,1,0.8,1.5S517.2,51.1,517.8,51.2z"/>
	<path class="st8" d="M535,49.3l-3.6,9.9c-0.5,1.4-1.3,2.1-2.5,2.1c-0.4,0-0.8-0.1-1.2-0.2v-1.1c0.4,0.1,0.7,0.1,0.9,0.1
		c0.4,0,0.8-0.1,1.1-0.4s0.6-0.9,0.9-1.8l-3.1-8.7h1.4l2.4,6.7l2.4-6.7H535z"/>
	<path class="st8" d="M549,57v1.2h-8.5V57c3.4-2.5,5.4-4.2,6-5c0.6-0.8,1-1.6,1-2.4c0-0.7-0.3-1.3-0.8-1.8s-1.2-0.7-1.9-0.7
		c-0.7,0-1.4,0.2-1.9,0.7c-0.6,0.5-0.9,1.2-0.9,2l-1.4-0.4c0.6-2.3,2-3.5,4.3-3.5c1.2,0,2.2,0.4,3,1.1s1.2,1.6,1.2,2.6
		c0,0.7-0.2,1.4-0.5,2s-1.1,1.4-2.1,2.3s-2.3,1.9-4,3H549z"/>
	<path class="st8" d="M555.4,58.5c-1.4,0-2.5-0.6-3.3-1.8s-1.2-2.7-1.2-4.5c0-1.7,0.4-3.2,1.2-4.4c0.8-1.2,1.9-1.8,3.3-1.8
		c1.5,0,2.6,0.6,3.4,1.9c0.8,1.3,1.2,2.7,1.2,4.4c0,1.7-0.4,3.1-1.2,4.3S556.8,58.5,555.4,58.5z M555.4,57.3c1,0,1.8-0.5,2.3-1.4
		c0.5-0.9,0.7-2.1,0.7-3.5c0-1.5-0.2-2.8-0.7-3.8s-1.3-1.5-2.3-1.5c-1,0-1.7,0.5-2.2,1.4s-0.7,2.1-0.7,3.6c0,1.6,0.3,2.8,0.8,3.7
		C553.6,56.8,554.4,57.3,555.4,57.3z"/>
	<path class="st8" d="M570.1,57v1.2h-8.5V57c3.4-2.5,5.4-4.2,6-5c0.6-0.8,1-1.6,1-2.4c0-0.7-0.3-1.3-0.8-1.8s-1.2-0.7-1.9-0.7
		c-0.7,0-1.4,0.2-1.9,0.7c-0.6,0.5-0.9,1.2-0.9,2l-1.4-0.4c0.6-2.3,2-3.5,4.3-3.5c1.2,0,2.2,0.4,3,1.1s1.2,1.6,1.2,2.6
		c0,0.7-0.2,1.4-0.5,2s-1.1,1.4-2.1,2.3s-2.3,1.9-4,3H570.1z"/>
	<path class="st8" d="M576.5,58.5c-1.4,0-2.5-0.6-3.3-1.8s-1.2-2.7-1.2-4.5c0-1.7,0.4-3.2,1.2-4.4c0.8-1.2,1.9-1.8,3.3-1.8
		c1.5,0,2.6,0.6,3.4,1.9c0.8,1.3,1.2,2.7,1.2,4.4c0,1.7-0.4,3.1-1.2,4.3S577.9,58.5,576.5,58.5z M576.5,57.3c1,0,1.8-0.5,2.3-1.4
		c0.5-0.9,0.7-2.1,0.7-3.5c0-1.5-0.2-2.8-0.7-3.8s-1.3-1.5-2.3-1.5c-1,0-1.7,0.5-2.2,1.4s-0.7,2.1-0.7,3.6c0,1.6,0.3,2.8,0.8,3.7
		C574.7,56.8,575.5,57.3,576.5,57.3z"/>
</g>
<g class="st1">
	<path class="st2" d="M266.1,77.8v-1.5h1c0.6,0,1.1-0.1,1.5-0.4s0.6-0.6,0.6-1.2c0-0.5-0.2-0.9-0.5-1.1s-0.8-0.4-1.3-0.4
		c-1.1,0-1.8,0.5-2.1,1.5l-1.8-0.3c0.2-0.8,0.7-1.5,1.4-2s1.6-0.8,2.6-0.8c1,0,1.9,0.3,2.6,0.8s1.1,1.2,1.1,2.1
		c0,0.6-0.2,1.2-0.6,1.7s-0.9,0.7-1.4,0.8c0.7,0.1,1.3,0.4,1.7,0.9s0.6,1,0.6,1.7c0,0.9-0.4,1.7-1.1,2.3s-1.7,0.9-2.9,0.9
		c-1.1,0-2.1-0.3-2.8-0.9s-1.2-1.2-1.4-2l1.8-0.4c0.4,1.2,1.2,1.8,2.4,1.8c0.6,0,1.1-0.2,1.5-0.5s0.6-0.7,0.6-1.2
		c0-0.5-0.2-0.9-0.5-1.2s-0.8-0.5-1.5-0.5H266.1z"/>
	<path class="st2" d="M276.8,82.7c-1.3,0-2.3-0.5-3-1.5s-1.1-2.3-1.1-3.9c0-1.7,0.4-3,1.1-4.1s1.7-1.5,3-1.5c0.9,0,1.7,0.2,2.3,0.7
		s1.1,1.2,1.4,2s0.5,1.7,0.5,2.4c0,1.3-0.1,2.3-0.4,3.1s-0.7,1.5-1.4,2S277.8,82.7,276.8,82.7z M276.8,81.1c0.5,0,1-0.2,1.3-0.5
		s0.6-0.8,0.7-1.4s0.2-1.4,0.2-2.5c0-0.9-0.1-1.7-0.4-2.5s-0.9-1.2-1.7-1.2c-1.4,0-2.2,1.3-2.2,4c0,1.2,0.2,2.2,0.5,2.9
		S276,81.1,276.8,81.1z"/>
</g>
<polyline class="st7" points="149.4,105.8 149.4,112.6 166.4,112.6 166.4,105.8 "/>
<g class="st1">
	<path class="st8" d="M27.4,134.8v1.3h-7.8v-12h7.6v1.3h-6.1v3.8H26v1.2h-4.8v4.3H27.4z"/>
	<path class="st8" d="M30.7,136.1h-1.4v-12h1.4V136.1z"/>
	<path class="st8" d="M43.2,133l1.2,0.2c-0.2,1-0.6,1.8-1.2,2.3c-0.6,0.6-1.4,0.8-2.3,0.8c-1.2,0-2.2-0.5-2.8-1.4s-1-2-1-3.3
		c0-1.3,0.3-2.5,1-3.4s1.6-1.3,2.8-1.3c1,0,1.7,0.3,2.3,0.9c0.6,0.6,0.9,1.3,1.1,2.2l-1.2,0.2c-0.2-1.5-0.9-2.2-2.1-2.2
		c-0.8,0-1.3,0.3-1.8,1c-0.4,0.6-0.6,1.5-0.6,2.5c0,1.1,0.2,2,0.6,2.6c0.4,0.6,1,0.9,1.7,0.9C42.2,135.2,42.9,134.5,43.2,133z"/>
	<path class="st8" d="M49.6,136.3c-1.2,0-2.2-0.5-2.9-1.4s-1-2-1-3.4c0-1.4,0.4-2.5,1.2-3.4s1.7-1.3,2.9-1.3c1.2,0,2.2,0.4,2.9,1.3
		s1.1,2,1.1,3.3c0,1.4-0.4,2.5-1.1,3.4S50.8,136.3,49.6,136.3z M49.7,135.2c0.7,0,1.3-0.3,1.8-0.9s0.7-1.5,0.7-2.7
		c0-1.2-0.2-2.1-0.7-2.7c-0.5-0.6-1.1-0.8-1.7-0.8c-0.7,0-1.3,0.3-1.7,0.8s-0.7,1.4-0.7,2.7c0,1.3,0.2,2.2,0.7,2.8
		C48.4,134.9,49,135.2,49.7,135.2z"/>
	<path class="st8" d="M62.7,136.1h-1.3v-5.7c0-0.8-0.2-1.4-0.5-1.7s-0.8-0.5-1.3-0.5c-0.7,0-1.3,0.3-1.8,0.8s-0.7,1.3-0.7,2.2v4.9
		h-1.4v-8.9H57v1.6c0.7-1.3,1.7-1.9,2.8-1.9c0.7,0,1.2,0.2,1.7,0.5c0.5,0.3,0.8,0.7,1,1.2s0.3,1.2,0.3,2.3V136.1z"/>
	<path class="st8" d="M64.3,133.8l1.3-0.3c0.3,1.1,1.2,1.7,2.8,1.7c0.6,0,1.1-0.1,1.5-0.4c0.4-0.3,0.6-0.6,0.6-1.1
		c0-0.7-0.5-1.1-1.5-1.3l-1.9-0.4c-0.7-0.1-1.3-0.4-1.7-0.8s-0.7-1-0.7-1.6c0-0.7,0.3-1.4,0.9-1.9c0.6-0.5,1.4-0.8,2.4-0.8
		c1.9,0,3.1,0.8,3.6,2.3l-1.3,0.3c-0.4-0.9-1.1-1.4-2.2-1.4c-0.6,0-1,0.1-1.4,0.3s-0.5,0.6-0.5,1c0,0.7,0.5,1.1,1.4,1.2l1.7,0.3
		c1.8,0.3,2.7,1.2,2.7,2.6c0,0.8-0.3,1.5-1,2s-1.6,0.8-2.7,0.8C66.1,136.3,64.8,135.5,64.3,133.8z"/>
	<path class="st8" d="M80.8,136.1h-1.2v-1.7c-0.6,1.3-1.6,1.9-2.8,1.9c-0.9,0-1.6-0.3-2.1-0.9c-0.5-0.6-0.8-1.4-0.8-2.6v-5.7h1.4
		v5.7c0,0.9,0.2,1.5,0.5,1.8s0.8,0.5,1.2,0.5c0.4,0,0.8-0.1,1.2-0.4s0.7-0.6,0.9-1.1c0.2-0.5,0.4-1,0.4-1.5v-5h1.4V136.1z"/>
	<path class="st8" d="M95.5,136.1h-1.3v-5.5c0-0.6,0-1-0.1-1.3c-0.1-0.3-0.3-0.5-0.6-0.8c-0.3-0.2-0.6-0.4-1-0.4
		c-0.5,0-1,0.2-1.5,0.7c-0.5,0.5-0.7,1.2-0.7,2.2v5h-1.3v-5.8c0-0.8-0.2-1.3-0.6-1.7s-0.8-0.5-1.2-0.5c-0.6,0-1.1,0.3-1.5,0.8
		s-0.7,1.1-0.7,1.9v5.3h-1.3v-8.9h1.2v1.7c0.7-1.3,1.6-2,2.7-2c0.6,0,1.2,0.2,1.6,0.6s0.7,0.9,0.9,1.5c0.6-1.4,1.5-2.1,2.8-2.1
		c0.6,0,1.1,0.2,1.6,0.5s0.8,0.7,0.9,1.2c0.1,0.4,0.2,1.1,0.2,1.9V136.1z"/>
	<path class="st8" d="M101.4,136.3c-1.2,0-2.2-0.5-2.9-1.4s-1-2-1-3.4c0-1.4,0.4-2.5,1.2-3.4s1.7-1.3,2.9-1.3c1.2,0,2.2,0.4,2.9,1.3
		s1.1,2,1.1,3.3c0,1.4-0.4,2.5-1.1,3.4S102.6,136.3,101.4,136.3z M101.5,135.2c0.7,0,1.3-0.3,1.8-0.9s0.7-1.5,0.7-2.7
		c0-1.2-0.2-2.1-0.7-2.7c-0.5-0.6-1.1-0.8-1.7-0.8c-0.7,0-1.3,0.3-1.7,0.8s-0.7,1.4-0.7,2.7c0,1.3,0.2,2.2,0.7,2.8
		C100.2,134.9,100.8,135.2,101.5,135.2z"/>
	<path class="st8" d="M119,124.1v12h-1.2v-1.5c-0.6,1.2-1.6,1.8-2.8,1.8c-1,0-1.9-0.4-2.6-1.3c-0.7-0.9-1-2-1-3.3
		c0-1.4,0.3-2.5,1-3.4s1.5-1.4,2.6-1.4c1.1,0,1.9,0.5,2.6,1.5v-4.3H119z M117.6,130.7c0-0.8-0.2-1.4-0.7-1.9s-1-0.7-1.7-0.7
		c-0.7,0-1.2,0.3-1.7,0.9s-0.7,1.5-0.7,2.6c0,1.2,0.2,2.1,0.6,2.7s1,0.9,1.7,0.9c0.6,0,1.2-0.3,1.7-0.8s0.7-1.2,0.7-1.9V130.7z"/>
	<path class="st8" d="M127.6,133.5l1.3,0.3c-0.2,0.8-0.7,1.4-1.4,1.9s-1.5,0.7-2.4,0.7c-1.2,0-2.2-0.4-2.9-1.3
		c-0.8-0.9-1.1-2-1.1-3.4c0-1.4,0.4-2.6,1.2-3.4s1.8-1.3,2.9-1.3c1.2,0,2.1,0.4,2.8,1.2s1.1,2,1.1,3.6h-6.5c0,1.3,0.3,2.2,0.8,2.7
		s1.2,0.7,1.8,0.7C126.4,135.2,127.2,134.6,127.6,133.5z M127.6,130.8c0-0.5-0.1-0.9-0.2-1.3s-0.4-0.7-0.8-1
		c-0.4-0.3-0.8-0.4-1.3-0.4c-0.7,0-1.3,0.2-1.7,0.7s-0.7,1.2-0.8,2H127.6z"/>
</g>
<g class="st1">
	<path class="st8" d="M143.1,136.1h-1.9c-0.2-0.5-0.3-1.1-0.3-1.8c-0.5,1.3-1.5,2-3,2c-0.9,0-1.6-0.3-2.1-0.8
		c-0.5-0.5-0.8-1.2-0.8-2c0-2,1.8-3.1,5.4-3.1c0.1,0,0.3,0,0.6,0v-0.7c0-0.9-0.6-1.4-1.9-1.4c-1.2,0-1.9,0.5-2.1,1.4l-1.7-0.3
		c0.1-0.7,0.5-1.3,1.1-1.8c0.7-0.5,1.6-0.7,2.9-0.7c0.7,0,1.2,0.1,1.7,0.2c0.4,0.1,0.8,0.3,1.1,0.6c0.3,0.3,0.5,0.6,0.6,0.9
		s0.2,0.9,0.2,1.6v4C142.8,134.9,142.9,135.5,143.1,136.1z M140.9,131.6c-2.6,0-3.9,0.6-3.9,1.9c0,0.4,0.1,0.7,0.4,0.9
		c0.3,0.3,0.7,0.4,1.2,0.4c0.8,0,1.3-0.2,1.7-0.7c0.4-0.5,0.6-1,0.6-1.6V131.6z"/>
	<path class="st8" d="M152.6,136.1h-2v-5.5c0-0.6-0.1-1-0.4-1.3c-0.3-0.3-0.6-0.4-1-0.4c-0.5,0-1,0.2-1.4,0.7s-0.6,1.1-0.6,2.1v4.6
		h-2v-8.9h1.8v2.1c0.6-1.5,1.5-2.2,2.7-2.2c0.8,0,1.4,0.2,2,0.7s0.8,1.4,0.8,2.6V136.1z"/>
	<path class="st8" d="M153.9,134.1l1.9-0.4c0.3,0.7,0.9,1.1,1.9,1.1c1.2,0,1.9-0.4,1.9-1.1c0-0.2-0.1-0.4-0.3-0.6s-0.4-0.3-0.7-0.3
		l-1.6-0.3c-1.8-0.3-2.7-1.2-2.7-2.6c0-0.8,0.3-1.5,0.9-2c0.6-0.5,1.4-0.8,2.5-0.8c1.9,0,3,0.7,3.4,2.1l-1.8,0.4
		c-0.2-0.7-0.7-1-1.6-1c-1.1,0-1.6,0.3-1.6,1c0,0.5,0.4,0.8,1.3,1l1.9,0.4c1.5,0.3,2.2,1.2,2.2,2.5c0,1-0.4,1.7-1.1,2.2
		c-0.8,0.5-1.7,0.7-2.7,0.7c-0.9,0-1.7-0.2-2.4-0.5C154.5,135.4,154.1,134.8,153.9,134.1z"/>
	<path class="st8" d="M165.1,126.2h-2v-2.1h2V126.2z M165.1,136.1h-2v-8.9h2V136.1z"/>
	<path class="st8" d="M171,136.3c-1.3,0-2.3-0.5-3-1.4s-1-2-1-3.2c0-1.3,0.4-2.4,1.1-3.3s1.8-1.3,3-1.3c1.2,0,2.2,0.4,2.9,1.3
		s1.1,2,1.1,3.3c0,1.4-0.4,2.5-1.2,3.4C173.2,135.9,172.2,136.3,171,136.3z M171.1,134.6c1.3,0,2-1,2-3c0-0.9-0.2-1.6-0.5-2.1
		s-0.8-0.8-1.5-0.8c-0.7,0-1.2,0.3-1.5,0.8c-0.3,0.5-0.5,1.3-0.5,2.2c0,1,0.2,1.7,0.5,2.2S170.5,134.6,171.1,134.6z"/>
	<path class="st8" d="M179.1,136.1h-2v-12h2V136.1z"/>
	<path class="st8" d="M184.7,123l0.6,1.3l-3.7,1.5l-0.4-0.9L184.7,123z M183.5,136.1h-2v-8.9h2V136.1z"/>
	<path class="st8" d="M190,134.5v1.6c-0.6,0.1-1.1,0.2-1.4,0.2c-0.5,0-1-0.1-1.4-0.3c-0.4-0.2-0.7-0.5-0.8-0.9s-0.3-0.9-0.3-1.7
		v-4.6H185v-1.6h1.2l0.2-2.3l1.6-0.1v2.5h1.8v1.6H188v4.3c0,0.6,0.1,0.9,0.3,1.1c0.2,0.2,0.6,0.3,1.1,0.3
		C189.6,134.6,189.8,134.5,190,134.5z"/>
	<path class="st8" d="M193.7,126.2h-2v-2.1h2V126.2z M193.7,136.1h-2v-8.9h2V136.1z"/>
	<path class="st8" d="M201.2,132.8l1.7,0.2c-0.2,1.1-0.7,1.9-1.3,2.5s-1.4,0.8-2.3,0.8c-1.2,0-2.2-0.4-2.8-1.3c-0.7-0.9-1-2-1-3.3
		c0-1.3,0.4-2.4,1.1-3.3s1.7-1.3,2.9-1.3c1.9,0,3.1,1,3.5,3.1l-1.7,0.2c-0.2-1.1-0.7-1.7-1.6-1.7c-0.7,0-1.2,0.3-1.5,0.9
		s-0.5,1.3-0.5,2.2c0,0.9,0.2,1.6,0.5,2.1s0.8,0.7,1.3,0.7C200.3,134.5,200.9,134,201.2,132.8z"/>
	<path class="st8" d="M207.9,136.3c-1.3,0-2.3-0.5-3-1.4s-1-2-1-3.2c0-1.3,0.4-2.4,1.1-3.3s1.8-1.3,3-1.3c1.2,0,2.2,0.4,2.9,1.3
		s1.1,2,1.1,3.3c0,1.4-0.4,2.5-1.2,3.4C210.1,135.9,209.1,136.3,207.9,136.3z M208,134.6c1.3,0,2-1,2-3c0-0.9-0.2-1.6-0.5-2.1
		s-0.8-0.8-1.5-0.8c-0.7,0-1.2,0.3-1.5,0.8c-0.3,0.5-0.5,1.3-0.5,2.2c0,1,0.2,1.7,0.5,2.2S207.4,134.6,208,134.6z"/>
	<path class="st8" d="M212.9,134.1l1.9-0.4c0.3,0.7,0.9,1.1,1.9,1.1c1.2,0,1.9-0.4,1.9-1.1c0-0.2-0.1-0.4-0.3-0.6s-0.4-0.3-0.7-0.3
		l-1.6-0.3c-1.8-0.3-2.7-1.2-2.7-2.6c0-0.8,0.3-1.5,0.9-2c0.6-0.5,1.4-0.8,2.5-0.8c1.9,0,3,0.7,3.4,2.1l-1.8,0.4
		c-0.2-0.7-0.7-1-1.6-1c-1.1,0-1.6,0.3-1.6,1c0,0.5,0.4,0.8,1.3,1l1.9,0.4c1.5,0.3,2.2,1.2,2.2,2.5c0,1-0.4,1.7-1.1,2.2
		c-0.8,0.5-1.7,0.7-2.7,0.7c-0.9,0-1.7-0.2-2.4-0.5C213.6,135.4,213.1,134.8,212.9,134.1z"/>
</g>
<g class="st1">
	<path class="st8" d="M237.2,133.5l1.3,0.3c-0.2,0.8-0.7,1.4-1.4,1.9s-1.5,0.7-2.4,0.7c-1.2,0-2.2-0.4-2.9-1.3
		c-0.8-0.9-1.1-2-1.1-3.4c0-1.4,0.4-2.6,1.2-3.4s1.8-1.3,2.9-1.3c1.2,0,2.1,0.4,2.8,1.2s1.1,2,1.1,3.6h-6.5c0,1.3,0.3,2.2,0.8,2.7
		s1.2,0.7,1.8,0.7C235.9,135.2,236.7,134.6,237.2,133.5z M237.1,130.8c0-0.5-0.1-0.9-0.2-1.3s-0.4-0.7-0.8-1
		c-0.4-0.3-0.8-0.4-1.3-0.4c-0.7,0-1.3,0.2-1.7,0.7s-0.7,1.2-0.8,2H237.1z"/>
	<path class="st8" d="M247.7,136.1h-1.3v-5.7c0-0.8-0.2-1.4-0.5-1.7s-0.8-0.5-1.3-0.5c-0.7,0-1.3,0.3-1.8,0.8s-0.7,1.3-0.7,2.2v4.9
		h-1.4v-8.9h1.3v1.6c0.7-1.3,1.7-1.9,2.8-1.9c0.7,0,1.2,0.2,1.7,0.5c0.5,0.3,0.8,0.7,1,1.2s0.3,1.2,0.3,2.3V136.1z"/>
</g>
<g class="st1">
	<path class="st8" d="M260.8,133.5l1.3,0.3c-0.2,0.8-0.7,1.4-1.4,1.9s-1.5,0.7-2.4,0.7c-1.2,0-2.2-0.4-2.9-1.3
		c-0.8-0.9-1.1-2-1.1-3.4c0-1.4,0.4-2.6,1.2-3.4s1.8-1.3,2.9-1.3c1.2,0,2.1,0.4,2.8,1.2s1.1,2,1.1,3.6h-6.5c0,1.3,0.3,2.2,0.8,2.7
		s1.2,0.7,1.8,0.7C259.5,135.2,260.3,134.6,260.8,133.5z M260.7,130.8c0-0.5-0.1-0.9-0.2-1.3s-0.4-0.7-0.8-1
		c-0.4-0.3-0.8-0.4-1.3-0.4c-0.7,0-1.3,0.2-1.7,0.7s-0.7,1.2-0.8,2H260.7z"/>
	<path class="st8" d="M265.7,136.1h-1.4v-12h1.4V136.1z"/>
</g>
<g class="st1">
	<path class="st8" d="M21.3,157.7h-2v-8.9h1.8v2.1c0.3-0.8,0.6-1.4,1.1-1.8s0.9-0.6,1.4-0.6c0.1,0,0.2,0,0.3,0v2.2c-1,0-1.7,0.3-2,1
		s-0.5,1.3-0.5,1.9V157.7z"/>
	<path class="st8" d="M30.9,154.9l1.8,0.2c-0.2,0.8-0.7,1.5-1.4,2s-1.5,0.8-2.6,0.8c-1.2,0-2.2-0.4-3-1.2s-1.1-1.9-1.1-3.4
		c0-1.3,0.4-2.5,1.1-3.3s1.8-1.3,3.1-1.3c1.3,0,2.2,0.4,2.9,1.3s1,2,1,3.3l0,0.2h-6.1c0,0.6,0.1,1.1,0.2,1.5s0.3,0.7,0.7,0.9
		s0.8,0.4,1.3,0.4C29.9,156.3,30.6,155.8,30.9,154.9z M30.8,152.2c0-0.6-0.2-1.2-0.6-1.6s-0.8-0.6-1.4-0.6c-0.6,0-1,0.2-1.4,0.6
		c-0.4,0.4-0.6,0.9-0.7,1.6H30.8z"/>
	<path class="st8" d="M33.7,155.7l1.9-0.4c0.3,0.7,0.9,1.1,1.9,1.1c1.2,0,1.9-0.4,1.9-1.1c0-0.2-0.1-0.4-0.3-0.6s-0.4-0.3-0.7-0.3
		l-1.6-0.3c-1.8-0.3-2.7-1.2-2.7-2.6c0-0.8,0.3-1.5,0.9-2c0.6-0.5,1.4-0.8,2.5-0.8c1.9,0,3,0.7,3.4,2.1l-1.8,0.4
		c-0.2-0.7-0.7-1-1.6-1c-1.1,0-1.6,0.3-1.6,1c0,0.5,0.4,0.8,1.3,1l1.9,0.4c1.5,0.3,2.2,1.2,2.2,2.5c0,1-0.4,1.7-1.1,2.2
		c-0.8,0.5-1.7,0.7-2.7,0.7c-0.9,0-1.7-0.2-2.4-0.5C34.3,157,33.9,156.4,33.7,155.7z"/>
</g>
<g class="st1">
	<path class="st8" d="M47,156.1v1.6c-0.6,0.1-1.1,0.2-1.4,0.2c-0.5,0-1-0.1-1.4-0.3c-0.4-0.2-0.7-0.5-0.8-0.9s-0.3-0.9-0.3-1.7v-4.6
		H42v-1.6h1.2l0.2-2.3l1.6-0.1v2.5h1.8v1.6h-1.8v4.3c0,0.6,0.1,0.9,0.3,1.1c0.2,0.2,0.6,0.3,1.1,0.3C46.7,156.2,46.8,156.1,47,156.1
		z"/>
</g>
<g class="st1">
	<path class="st8" d="M51.9,157.9c-1.3,0-2.3-0.5-3-1.4s-1-2-1-3.2c0-1.3,0.4-2.4,1.1-3.3s1.8-1.3,3-1.3c1.2,0,2.2,0.4,2.9,1.3
		s1.1,2,1.1,3.3c0,1.4-0.4,2.5-1.2,3.4C54.1,157.5,53.1,157.9,51.9,157.9z M51.9,156.2c1.3,0,2-1,2-3c0-0.9-0.2-1.6-0.5-2.1
		s-0.8-0.8-1.5-0.8c-0.7,0-1.2,0.3-1.5,0.8c-0.3,0.5-0.5,1.3-0.5,2.2c0,1,0.2,1.7,0.5,2.2S51.3,156.2,51.9,156.2z"/>
	<path class="st8" d="M69.7,157.7h-1.9v-1.8c-0.5,1.3-1.4,2-2.6,2c-1.1,0-1.9-0.5-2.5-1.4s-0.9-2-0.9-3.4c0-1.3,0.3-2.3,0.9-3.3
		s1.5-1.4,2.6-1.4c1.1,0,1.9,0.5,2.4,1.6v-4.3h2V157.7z M67.7,152.5c0-0.7-0.2-1.3-0.5-1.7c-0.3-0.4-0.8-0.6-1.3-0.6
		c-0.6,0-1.1,0.3-1.4,0.8s-0.5,1.3-0.5,2.3c0,2,0.6,3,1.9,3c0.5,0,0.9-0.2,1.3-0.6c0.4-0.4,0.6-1,0.6-1.6V152.5z"/>
	<path class="st8" d="M77.7,154.9l1.8,0.2c-0.2,0.8-0.7,1.5-1.4,2s-1.5,0.8-2.6,0.8c-1.2,0-2.2-0.4-3-1.2s-1.1-1.9-1.1-3.4
		c0-1.3,0.4-2.5,1.1-3.3s1.8-1.3,3.1-1.3c1.3,0,2.2,0.4,2.9,1.3s1,2,1,3.3l0,0.2h-6.1c0,0.6,0.1,1.1,0.2,1.5s0.3,0.7,0.7,0.9
		s0.8,0.4,1.3,0.4C76.7,156.3,77.4,155.8,77.7,154.9z M77.6,152.2c0-0.6-0.2-1.2-0.6-1.6s-0.8-0.6-1.4-0.6c-0.6,0-1,0.2-1.4,0.6
		c-0.4,0.4-0.6,0.9-0.7,1.6H77.6z"/>
	<path class="st8" d="M88,157.7h-2v-12h2V157.7z"/>
	<path class="st8" d="M98,157.7h-1.9c-0.2-0.5-0.3-1.1-0.3-1.8c-0.5,1.3-1.5,2-3,2c-0.9,0-1.6-0.3-2.1-0.8c-0.5-0.5-0.8-1.2-0.8-2
		c0-2,1.8-3.1,5.4-3.1c0.1,0,0.3,0,0.6,0v-0.7c0-0.9-0.6-1.4-1.9-1.4c-1.2,0-1.9,0.5-2.1,1.4l-1.7-0.3c0.1-0.7,0.5-1.3,1.1-1.8
		c0.7-0.5,1.6-0.7,2.9-0.7c0.7,0,1.2,0.1,1.7,0.2c0.4,0.1,0.8,0.3,1.1,0.6c0.3,0.3,0.5,0.6,0.6,0.9s0.2,0.9,0.2,1.6v4
		C97.8,156.5,97.9,157.1,98,157.7z M95.8,153.2c-2.6,0-3.9,0.6-3.9,1.9c0,0.4,0.1,0.7,0.4,0.9c0.3,0.3,0.7,0.4,1.2,0.4
		c0.8,0,1.3-0.2,1.7-0.7c0.4-0.5,0.6-1,0.6-1.6V153.2z"/>
	<path class="st8" d="M109.2,157.9c-1.6,0-2.8-0.6-3.7-1.8s-1.3-2.7-1.3-4.4c0-1.7,0.5-3.2,1.4-4.4c0.9-1.2,2.2-1.8,3.7-1.8
		c1.6,0,2.8,0.6,3.7,1.8c0.9,1.2,1.4,2.6,1.4,4.4c0,1.9-0.5,3.3-1.4,4.5C112,157.3,110.8,157.9,109.2,157.9z M109.2,156.1
		c0.8,0,1.4-0.3,2-1s0.8-1.8,0.8-3.5c0-1.4-0.2-2.5-0.7-3.2c-0.4-0.8-1.1-1.2-2.1-1.2c-1.9,0-2.8,1.5-2.8,4.5c0,1.4,0.2,2.5,0.7,3.3
		C107.7,155.8,108.3,156.1,109.2,156.1z"/>
	<path class="st8" d="M123.1,153.5l2,0.2c-0.1,1.2-0.6,2.2-1.4,3c-0.8,0.8-1.9,1.2-3.2,1.2c-1.1,0-2-0.3-2.7-0.8s-1.2-1.3-1.6-2.2
		s-0.6-2-0.6-3.1c0-1.8,0.4-3.3,1.3-4.5s2.1-1.7,3.6-1.7c1.2,0,2.2,0.4,3,1.1s1.3,1.8,1.5,3.1l-2,0.2c-0.4-1.8-1.2-2.7-2.4-2.7
		c-0.8,0-1.4,0.4-1.9,1.1c-0.4,0.8-0.7,1.8-0.7,3.3c0,1.5,0.2,2.6,0.7,3.3s1.1,1.1,1.9,1.1c0.6,0,1.2-0.2,1.6-0.7
		S123,154.2,123.1,153.5z"/>
	<path class="st8" d="M126.7,157.7v-12h4.4c1.6,0,2.9,0.6,3.9,1.7c1,1.2,1.5,2.6,1.5,4.3s-0.5,3.1-1.5,4.3s-2.5,1.7-4.4,1.7H126.7z
		 M129,155.9h1.8c1,0,1.8-0.4,2.5-1.1s1-1.8,1-3.2c0-1.2-0.3-2.2-0.9-3s-1.4-1.2-2.3-1.2H129V155.9z"/>
	<path class="st8" d="M146.4,157.7h-7.8v-12h7.7v1.8h-5.6v3.3h4.5v1.7h-4.5v3.4h5.6V157.7z"/>
</g>
<g class="st1">
	<path class="st8" d="M159.7,145.7v12h-1.2v-1.5c-0.6,1.2-1.6,1.8-2.8,1.8c-1,0-1.9-0.4-2.6-1.3c-0.7-0.9-1-2-1-3.3
		c0-1.4,0.3-2.5,1-3.4s1.5-1.4,2.6-1.4c1.1,0,1.9,0.5,2.6,1.5v-4.3H159.7z M158.3,152.3c0-0.8-0.2-1.4-0.7-1.9s-1-0.7-1.7-0.7
		c-0.7,0-1.2,0.3-1.7,0.9s-0.7,1.5-0.7,2.6c0,1.2,0.2,2.1,0.6,2.7s1,0.9,1.7,0.9c0.6,0,1.2-0.3,1.7-0.8s0.7-1.2,0.7-1.9V152.3z"/>
	<path class="st8" d="M163.9,145.7v1.5h-1.5v-1.5H163.9z M163.9,148.8v8.9h-1.4v-8.9H163.9z"/>
	<path class="st8" d="M165.4,155.4l1.3-0.3c0.3,1.1,1.2,1.7,2.8,1.7c0.6,0,1.1-0.1,1.5-0.4c0.4-0.3,0.6-0.6,0.6-1.1
		c0-0.7-0.5-1.1-1.5-1.3l-1.9-0.4c-0.7-0.1-1.3-0.4-1.7-0.8s-0.7-1-0.7-1.6c0-0.7,0.3-1.4,0.9-1.9c0.6-0.5,1.4-0.8,2.4-0.8
		c1.9,0,3.1,0.8,3.6,2.3l-1.3,0.3c-0.4-0.9-1.1-1.4-2.2-1.4c-0.6,0-1,0.1-1.4,0.3s-0.5,0.6-0.5,1c0,0.7,0.5,1.1,1.4,1.2l1.7,0.3
		c1.8,0.3,2.7,1.2,2.7,2.6c0,0.8-0.3,1.5-1,2s-1.6,0.8-2.7,0.8C167.2,157.9,165.9,157.1,165.4,155.4z"/>
	<path class="st8" d="M186.9,157.7h-1.3v-5.5c0-0.6,0-1-0.1-1.3c-0.1-0.3-0.3-0.5-0.6-0.8c-0.3-0.2-0.6-0.4-1-0.4
		c-0.5,0-1,0.2-1.5,0.7c-0.5,0.5-0.7,1.2-0.7,2.2v5h-1.3v-5.8c0-0.8-0.2-1.3-0.6-1.7s-0.8-0.5-1.2-0.5c-0.6,0-1.1,0.3-1.5,0.8
		s-0.7,1.1-0.7,1.9v5.3H175v-8.9h1.2v1.7c0.7-1.3,1.6-2,2.7-2c0.6,0,1.2,0.2,1.6,0.6s0.7,0.9,0.9,1.5c0.6-1.4,1.5-2.1,2.8-2.1
		c0.6,0,1.1,0.2,1.6,0.5s0.8,0.7,0.9,1.2c0.1,0.4,0.2,1.1,0.2,1.9V157.7z"/>
	<path class="st8" d="M191,145.7v1.5h-1.5v-1.5H191z M191,148.8v8.9h-1.4v-8.9H191z"/>
	<path class="st8" d="M200.7,157.7h-1.3V152c0-0.8-0.2-1.4-0.5-1.7s-0.8-0.5-1.3-0.5c-0.7,0-1.3,0.3-1.8,0.8s-0.7,1.3-0.7,2.2v4.9
		h-1.4v-8.9h1.3v1.6c0.7-1.3,1.7-1.9,2.8-1.9c0.7,0,1.2,0.2,1.7,0.5c0.5,0.3,0.8,0.7,1,1.2s0.3,1.2,0.3,2.3V157.7z"/>
	<path class="st8" d="M210.5,157.7h-1.2V156c-0.6,1.3-1.6,1.9-2.8,1.9c-0.9,0-1.6-0.3-2.1-0.9c-0.5-0.6-0.8-1.4-0.8-2.6v-5.7h1.4
		v5.7c0,0.9,0.2,1.5,0.5,1.8s0.8,0.5,1.2,0.5c0.4,0,0.8-0.1,1.2-0.4s0.7-0.6,0.9-1.1c0.2-0.5,0.4-1,0.4-1.5v-5h1.4V157.7z"/>
	<path class="st8" d="M219.3,148.8l-3.6,9.9c-0.5,1.4-1.3,2.1-2.5,2.1c-0.4,0-0.8-0.1-1.2-0.2v-1.1c0.4,0.1,0.7,0.1,0.9,0.1
		c0.4,0,0.8-0.1,1.1-0.4s0.6-0.9,0.9-1.8l-3.1-8.7h1.4l2.4,6.7l2.4-6.7H219.3z"/>
	<path class="st8" d="M223.9,157.9c-1.2,0-2.2-0.5-2.9-1.4s-1-2-1-3.4c0-1.4,0.4-2.5,1.2-3.4s1.7-1.3,2.9-1.3c1.2,0,2.2,0.4,2.9,1.3
		s1.1,2,1.1,3.3c0,1.4-0.4,2.5-1.1,3.4S225.1,157.9,223.9,157.9z M224,156.8c0.7,0,1.3-0.3,1.8-0.9s0.7-1.5,0.7-2.7
		c0-1.2-0.2-2.1-0.7-2.7c-0.5-0.6-1.1-0.8-1.7-0.8c-0.7,0-1.3,0.3-1.7,0.8s-0.7,1.4-0.7,2.7c0,1.3,0.2,2.2,0.7,2.8
		C222.7,156.5,223.3,156.8,224,156.8z M226.6,145.8l-3.6,1.7l-0.4-0.7l3.5-2L226.6,145.8z"/>
	<path class="st8" d="M240.4,155.1l1.3,0.3c-0.2,0.8-0.7,1.4-1.4,1.9s-1.5,0.7-2.4,0.7c-1.2,0-2.2-0.4-2.9-1.3
		c-0.8-0.9-1.1-2-1.1-3.4c0-1.4,0.4-2.6,1.2-3.4s1.8-1.3,2.9-1.3c1.2,0,2.1,0.4,2.8,1.2s1.1,2,1.1,3.6h-6.5c0,1.3,0.3,2.2,0.8,2.7
		s1.2,0.7,1.8,0.7C239.2,156.8,240,156.2,240.4,155.1z M240.4,152.4c0-0.5-0.1-0.9-0.2-1.3s-0.4-0.7-0.8-1c-0.4-0.3-0.8-0.4-1.3-0.4
		c-0.7,0-1.3,0.2-1.7,0.7s-0.7,1.2-0.8,2H240.4z"/>
	<path class="st8" d="M250.9,157.7h-1.3V152c0-0.8-0.2-1.4-0.5-1.7s-0.8-0.5-1.3-0.5c-0.7,0-1.3,0.3-1.8,0.8s-0.7,1.3-0.7,2.2v4.9
		h-1.4v-8.9h1.3v1.6c0.7-1.3,1.7-1.9,2.8-1.9c0.7,0,1.2,0.2,1.7,0.5c0.5,0.3,0.8,0.7,1,1.2s0.3,1.2,0.3,2.3V157.7z"/>
</g>
<g class="st1">
	<path class="st8" d="M267.2,157.7h-9.2v-1.8h3.6v-7.6c-1.2,1-2.3,1.8-3.3,2.2v-2.2c1-0.4,1.6-0.7,1.9-0.8c0.3-0.2,0.6-0.5,1.1-0.9
		c0.5-0.4,0.8-0.8,1-1.2h1.4v10.5h3.4V157.7z"/>
</g>
<g class="st1">
	<path class="st8" d="M271.1,155.5v2l-1.4,2.8h-0.8l1-2.6h-1v-2.2H271.1z"/>
	<path class="st8" d="M275.2,151.8c-1.4-0.6-2.1-1.6-2.1-2.9c0-1,0.4-1.8,1.2-2.4c0.8-0.6,1.9-1,3.3-1c1.3,0,2.3,0.3,3.1,0.9
		s1.2,1.3,1.2,2.3c0,1.1-0.7,2-2.1,2.6c1.7,0.7,2.6,1.8,2.6,3.2c0,1-0.4,1.8-1.3,2.5s-2,1-3.5,1c-1.6,0-2.7-0.3-3.5-0.9
		c-0.8-0.6-1.2-1.4-1.2-2.3C272.6,153.3,273.5,152.4,275.2,151.8z M276.7,152.5c-0.6,0.2-1.1,0.5-1.4,0.9c-0.4,0.4-0.5,0.8-0.5,1.2
		c0,0.4,0.2,0.8,0.7,1.2s1.1,0.6,2.1,0.6c0.8,0,1.4-0.2,1.8-0.5c0.4-0.3,0.7-0.7,0.7-1.2c0-0.4-0.2-0.8-0.6-1.1
		S278.1,153,276.7,152.5z M278.1,150.6c1.1-0.5,1.7-1.1,1.7-1.9c0-0.5-0.2-0.9-0.7-1.2s-1-0.4-1.6-0.4c-0.6,0-1.1,0.1-1.6,0.4
		s-0.7,0.6-0.7,1.2c0,0.5,0.2,0.9,0.7,1.2S277.1,150.3,278.1,150.6z"/>
	<path class="st8" d="M284.6,145.7h7.5l-0.2,1.9h-5.7l-0.3,3.5c0.7-0.9,1.7-1.4,2.8-1.4c1.2,0,2.1,0.4,2.9,1.2s1.2,1.7,1.2,2.8
		c0,1.1-0.4,2.1-1.2,3s-2,1.2-3.4,1.2c-1.2,0-2.2-0.3-3-0.8s-1.4-1.4-1.7-2.5l2.1-0.3c0.4,1.2,1.2,1.8,2.5,1.8
		c0.8,0,1.4-0.2,1.8-0.7s0.6-1,0.6-1.7c0-0.7-0.2-1.2-0.6-1.7s-1-0.7-1.6-0.7c-1,0-1.8,0.5-2.3,1.4l-1.9-0.4L284.6,145.7z"/>
</g>
<g class="st1">
</g>
<g class="st1">
	<path class="st8" d="M20.9,182.3h-1.4v-11.9h1.2v1.7c0.6-1.3,1.6-2,2.8-2c1,0,1.9,0.4,2.5,1.3s1,2,1,3.3c0,1.4-0.3,2.6-1,3.4
		s-1.5,1.3-2.5,1.3c-1.1,0-2-0.5-2.6-1.6V182.3z M20.9,173.6v2.5c0.1,0.7,0.4,1.2,0.9,1.7c0.5,0.4,1,0.7,1.5,0.7
		c0.6,0,1.1-0.3,1.6-0.8s0.7-1.4,0.7-2.7c0-1.1-0.2-2-0.6-2.6c-0.4-0.6-1-0.9-1.7-0.9c-0.6,0-1,0.2-1.5,0.6S21,173,20.9,173.6z"/>
	<path class="st8" d="M36.1,179.3h-1.2v-1.7c-0.6,1.3-1.6,1.9-2.8,1.9c-0.9,0-1.6-0.3-2.1-0.9c-0.5-0.6-0.8-1.4-0.8-2.6v-5.7h1.4
		v5.7c0,0.9,0.2,1.5,0.5,1.8s0.8,0.5,1.2,0.5c0.4,0,0.8-0.1,1.2-0.4s0.7-0.6,0.9-1.1c0.2-0.5,0.4-1,0.4-1.5v-5h1.4V179.3z"/>
	<path class="st8" d="M45.9,179.3h-1.3v-5.7c0-0.8-0.2-1.4-0.5-1.7s-0.8-0.5-1.3-0.5c-0.7,0-1.3,0.3-1.8,0.8s-0.7,1.3-0.7,2.2v4.9
		h-1.4v-8.9h1.3v1.6c0.7-1.3,1.7-1.9,2.8-1.9c0.7,0,1.2,0.2,1.7,0.5c0.5,0.3,0.8,0.7,1,1.2s0.3,1.2,0.3,2.3V179.3z"/>
</g>
<g class="st1">
	<path class="st8" d="M52.6,178.4v1.1c-0.5,0.1-0.9,0.1-1.3,0.1c-1.7,0-2.6-0.9-2.6-2.7v-5.3h-1.6v-1.1h1.6l0.1-2.2l1.3-0.1v2.4h2
		v1.1h-2v5.6c0,0.9,0.5,1.4,1.4,1.4C51.9,178.5,52.2,178.4,52.6,178.4z"/>
</g>
<g class="st1">
	<path class="st8" d="M57.1,179.5c-1.2,0-2.2-0.5-2.9-1.4s-1-2-1-3.4c0-1.4,0.4-2.5,1.2-3.4s1.7-1.3,2.9-1.3c1.2,0,2.2,0.4,2.9,1.3
		s1.1,2,1.1,3.3c0,1.4-0.4,2.5-1.1,3.4S58.3,179.5,57.1,179.5z M57.2,178.4c0.7,0,1.3-0.3,1.8-0.9s0.7-1.5,0.7-2.7
		c0-1.2-0.2-2.1-0.7-2.7c-0.5-0.6-1.1-0.8-1.7-0.8c-0.7,0-1.3,0.3-1.7,0.8s-0.7,1.4-0.7,2.7c0,1.3,0.2,2.2,0.7,2.8
		C55.9,178.1,56.5,178.4,57.2,178.4z"/>
	<path class="st8" d="M62,177l1.3-0.3c0.3,1.1,1.2,1.7,2.8,1.7c0.6,0,1.1-0.1,1.5-0.4c0.4-0.3,0.6-0.6,0.6-1.1
		c0-0.7-0.5-1.1-1.5-1.3l-1.9-0.4c-0.7-0.1-1.3-0.4-1.7-0.8s-0.7-1-0.7-1.6c0-0.7,0.3-1.4,0.9-1.9c0.6-0.5,1.4-0.8,2.4-0.8
		c1.9,0,3.1,0.8,3.6,2.3l-1.3,0.3c-0.4-0.9-1.1-1.4-2.2-1.4c-0.6,0-1,0.1-1.4,0.3s-0.5,0.6-0.5,1c0,0.7,0.5,1.1,1.4,1.2l1.7,0.3
		c1.8,0.3,2.7,1.2,2.7,2.6c0,0.8-0.3,1.5-1,2s-1.6,0.8-2.7,0.8C63.8,179.5,62.5,178.7,62,177z"/>
	<path class="st8" d="M81.9,176.7l1.3,0.3c-0.2,0.8-0.7,1.4-1.4,1.9s-1.5,0.7-2.4,0.7c-1.2,0-2.2-0.4-2.9-1.3
		c-0.8-0.9-1.1-2-1.1-3.4c0-1.4,0.4-2.6,1.2-3.4s1.8-1.3,2.9-1.3c1.2,0,2.1,0.4,2.8,1.2s1.1,2,1.1,3.6h-6.5c0,1.3,0.3,2.2,0.8,2.7
		s1.2,0.7,1.8,0.7C80.7,178.4,81.5,177.8,81.9,176.7z M81.9,174c0-0.5-0.1-0.9-0.2-1.3s-0.4-0.7-0.8-1c-0.4-0.3-0.8-0.4-1.3-0.4
		c-0.7,0-1.3,0.2-1.7,0.7s-0.7,1.2-0.8,2H81.9z"/>
	<path class="st8" d="M92.4,179.3h-1.3v-5.7c0-0.8-0.2-1.4-0.5-1.7s-0.8-0.5-1.3-0.5c-0.7,0-1.3,0.3-1.8,0.8s-0.7,1.3-0.7,2.2v4.9
		h-1.4v-8.9h1.3v1.6c0.7-1.3,1.7-1.9,2.8-1.9c0.7,0,1.2,0.2,1.7,0.5c0.5,0.3,0.8,0.7,1,1.2s0.3,1.2,0.3,2.3V179.3z"/>
	<path class="st8" d="M99.2,178.4v1.1c-0.5,0.1-0.9,0.1-1.3,0.1c-1.7,0-2.6-0.9-2.6-2.7v-5.3h-1.6v-1.1h1.6l0.1-2.2l1.3-0.1v2.4h2
		v1.1h-2v5.6c0,0.9,0.5,1.4,1.4,1.4C98.5,178.5,98.8,178.4,99.2,178.4z"/>
	<path class="st8" d="M102.1,179.3h-1.4v-8.9h1.2v2.1c0.4-1,0.9-1.6,1.3-1.9c0.4-0.3,0.9-0.4,1.3-0.4c0.1,0,0.3,0,0.5,0v1.3h-0.3
		c-0.8,0-1.4,0.3-1.9,0.9s-0.8,1.3-0.8,2.2V179.3z"/>
	<path class="st8" d="M112.5,176.7l1.3,0.3c-0.2,0.8-0.7,1.4-1.4,1.9s-1.5,0.7-2.4,0.7c-1.2,0-2.2-0.4-2.9-1.3
		c-0.8-0.9-1.1-2-1.1-3.4c0-1.4,0.4-2.6,1.2-3.4s1.8-1.3,2.9-1.3c1.2,0,2.1,0.4,2.8,1.2s1.1,2,1.1,3.6h-6.5c0,1.3,0.3,2.2,0.8,2.7
		s1.2,0.7,1.8,0.7C111.3,178.4,112.1,177.8,112.5,176.7z M112.5,174c0-0.5-0.1-0.9-0.2-1.3s-0.4-0.7-0.8-1c-0.4-0.3-0.8-0.4-1.3-0.4
		c-0.7,0-1.3,0.2-1.7,0.7s-0.7,1.2-0.8,2H112.5z"/>
	<path class="st8" d="M128.6,178.1v1.2h-8.5v-1.2c3.4-2.5,5.4-4.2,6-5c0.6-0.8,1-1.6,1-2.4c0-0.7-0.3-1.3-0.8-1.8s-1.2-0.7-1.9-0.7
		c-0.7,0-1.4,0.2-1.9,0.7c-0.6,0.5-0.9,1.2-0.9,2l-1.4-0.4c0.6-2.3,2-3.5,4.3-3.5c1.2,0,2.2,0.4,3,1.1s1.2,1.6,1.2,2.6
		c0,0.7-0.2,1.4-0.5,2s-1.1,1.4-2.1,2.3s-2.3,1.9-4,3H128.6z"/>
	<path class="st8" d="M135,179.5c-1.4,0-2.5-0.6-3.3-1.8s-1.2-2.7-1.2-4.5c0-1.7,0.4-3.2,1.2-4.4c0.8-1.2,1.9-1.8,3.3-1.8
		c1.5,0,2.6,0.6,3.4,1.9c0.8,1.3,1.2,2.7,1.2,4.4c0,1.7-0.4,3.1-1.2,4.3S136.4,179.5,135,179.5z M135,178.4c1,0,1.8-0.5,2.3-1.4
		c0.5-0.9,0.7-2.1,0.7-3.5c0-1.5-0.2-2.8-0.7-3.8s-1.3-1.5-2.3-1.5c-1,0-1.7,0.5-2.2,1.4s-0.7,2.1-0.7,3.6c0,1.6,0.3,2.8,0.8,3.7
		C133.3,177.9,134,178.4,135,178.4z"/>
	<path class="st8" d="M145.6,179.5c-1.4,0-2.5-0.6-3.3-1.8s-1.2-2.7-1.2-4.5c0-1.7,0.4-3.2,1.2-4.4c0.8-1.2,1.9-1.8,3.3-1.8
		c1.5,0,2.6,0.6,3.4,1.9c0.8,1.3,1.2,2.7,1.2,4.4c0,1.7-0.4,3.1-1.2,4.3S147,179.5,145.6,179.5z M145.6,178.4c1,0,1.8-0.5,2.3-1.4
		c0.5-0.9,0.7-2.1,0.7-3.5c0-1.5-0.2-2.8-0.7-3.8s-1.3-1.5-2.3-1.5c-1,0-1.7,0.5-2.2,1.4s-0.7,2.1-0.7,3.6c0,1.6,0.3,2.8,0.8,3.7
		C143.8,177.9,144.6,178.4,145.6,178.4z"/>
	<path class="st8" d="M154.3,173.1c-1.5-0.7-2.3-1.6-2.3-2.9c0-0.9,0.4-1.7,1.1-2.3s1.8-0.9,3-0.9c1.2,0,2.2,0.3,2.9,0.8
		c0.7,0.6,1.1,1.3,1.1,2.2c0,1.3-0.8,2.2-2.3,2.7c1.3,0.6,2,1.1,2.4,1.7s0.5,1.1,0.5,1.6c0,1-0.4,1.8-1.2,2.4c-0.8,0.6-1.9,1-3.3,1
		c-1.5,0-2.7-0.3-3.5-1c-0.8-0.7-1.2-1.4-1.2-2.4C151.5,174.8,152.4,173.8,154.3,173.1z M156,173.7c-2,0.5-3,1.3-3,2.5
		c0,0.6,0.3,1.2,0.8,1.6c0.6,0.4,1.4,0.6,2.4,0.6c0.9,0,1.6-0.2,2.2-0.6s0.8-0.9,0.8-1.5C159.3,175.1,158.2,174.3,156,173.7z
		 M156.2,172.3c1-0.3,1.7-0.6,2.1-0.9s0.6-0.8,0.6-1.3c0-0.6-0.2-1.1-0.7-1.4s-1.1-0.5-2-0.5c-0.8,0-1.4,0.2-1.9,0.5
		c-0.5,0.3-0.7,0.8-0.7,1.4c0,0.6,0.3,1,0.8,1.5S155.5,172.2,156.2,172.3z"/>
	<path class="st8" d="M173.4,170.4l-3.6,9.9c-0.5,1.4-1.3,2.1-2.5,2.1c-0.4,0-0.8-0.1-1.2-0.2v-1.1c0.4,0.1,0.7,0.1,0.9,0.1
		c0.4,0,0.8-0.1,1.1-0.4s0.6-0.9,0.9-1.8l-3.1-8.7h1.4l2.4,6.7l2.4-6.7H173.4z"/>
	<path class="st8" d="M187.3,178.1v1.2h-8.5v-1.2c3.4-2.5,5.4-4.2,6-5c0.6-0.8,1-1.6,1-2.4c0-0.7-0.3-1.3-0.8-1.8s-1.2-0.7-1.9-0.7
		c-0.7,0-1.4,0.2-1.9,0.7c-0.6,0.5-0.9,1.2-0.9,2l-1.4-0.4c0.6-2.3,2-3.5,4.3-3.5c1.2,0,2.2,0.4,3,1.1s1.2,1.6,1.2,2.6
		c0,0.7-0.2,1.4-0.5,2s-1.1,1.4-2.1,2.3s-2.3,1.9-4,3H187.3z"/>
	<path class="st8" d="M193.7,179.5c-1.4,0-2.5-0.6-3.3-1.8s-1.2-2.7-1.2-4.5c0-1.7,0.4-3.2,1.2-4.4c0.8-1.2,1.9-1.8,3.3-1.8
		c1.5,0,2.6,0.6,3.4,1.9c0.8,1.3,1.2,2.7,1.2,4.4c0,1.7-0.4,3.1-1.2,4.3S195.1,179.5,193.7,179.5z M193.7,178.4c1,0,1.8-0.5,2.3-1.4
		c0.5-0.9,0.7-2.1,0.7-3.5c0-1.5-0.2-2.8-0.7-3.8s-1.3-1.5-2.3-1.5c-1,0-1.7,0.5-2.2,1.4s-0.7,2.1-0.7,3.6c0,1.6,0.3,2.8,0.8,3.7
		C192,177.9,192.7,178.4,193.7,178.4z"/>
	<path class="st8" d="M208.4,178.1v1.2h-8.5v-1.2c3.4-2.5,5.4-4.2,6-5c0.6-0.8,1-1.6,1-2.4c0-0.7-0.3-1.3-0.8-1.8s-1.2-0.7-1.9-0.7
		c-0.7,0-1.4,0.2-1.9,0.7c-0.6,0.5-0.9,1.2-0.9,2l-1.4-0.4c0.6-2.3,2-3.5,4.3-3.5c1.2,0,2.2,0.4,3,1.1s1.2,1.6,1.2,2.6
		c0,0.7-0.2,1.4-0.5,2s-1.1,1.4-2.1,2.3s-2.3,1.9-4,3H208.4z"/>
	<path class="st8" d="M214.8,179.5c-1.4,0-2.5-0.6-3.3-1.8s-1.2-2.7-1.2-4.5c0-1.7,0.4-3.2,1.2-4.4c0.8-1.2,1.9-1.8,3.3-1.8
		c1.5,0,2.6,0.6,3.4,1.9c0.8,1.3,1.2,2.7,1.2,4.4c0,1.7-0.4,3.1-1.2,4.3S216.2,179.5,214.8,179.5z M214.8,178.4c1,0,1.8-0.5,2.3-1.4
		c0.5-0.9,0.7-2.1,0.7-3.5c0-1.5-0.2-2.8-0.7-3.8s-1.3-1.5-2.3-1.5c-1,0-1.7,0.5-2.2,1.4s-0.7,2.1-0.7,3.6c0,1.6,0.3,2.8,0.8,3.7
		C213.1,177.9,213.8,178.4,214.8,178.4z"/>
</g>
</svg>
