<svg id="Capa_1" data-name="Capa 1" xmlns="http://www.w3.org/2000/svg" viewBox="0 0 615.23 190.99">
  <defs>
    <style>
      .cls-1, .cls-7 {
        fill: none;
        stroke-miterlimit: 10;
        stroke-width: 0.5px;
      }

      .cls-1 {
        stroke: #ddd;
      }

      .cls-2 {
        font-size: 16px;
        fill: #dcdcdc;
      }

      .cls-2, .cls-9 {
        font-family: FranklinGothic-Medium, Franklin Gothic Medium;
        font-weight: 500;
      }

      .cls-3, .cls-4 {
        fill: #cb7e42;
      }

      .cls-3, .cls-5 {
        opacity: 0.9;
      }

      .cls-4, .cls-6 {
        opacity: 0.3;
      }

      .cls-5, .cls-6 {
        fill: #fbd59a;
      }

      .cls-7 {
        stroke: #dcdcdc;
      }

      .cls-8 {
        font-size: 18px;
        fill: #ddd;
      }

      .cls-10, .cls-8 {
        font-family: FranklinGothic-Book, Franklin Gothic Book;
      }

      .cls-10 {
        font-weight: 400;
      }

      .cls-11 {
        letter-spacing: -0.02em;
      }

      .cls-12 {
        letter-spacing: -0.02em;
      }

      .cls-13 {
        letter-spacing: 0.02em;
      }
    </style>
  </defs>
  <title>8a</title>
  <line class="cls-1" x1="14.09" y1="92.53" x2="543.59" y2="92.53"/>
  <line class="cls-1" x1="20.59" y1="86.03" x2="20.59" y2="100.03"/>
  <line class="cls-1" x1="537.59" y1="86.03" x2="537.59" y2="100.03"/>
  <line class="cls-1" x1="271.9" y1="85.99" x2="271.9" y2="99.99"/>
  <text class="cls-2" transform="translate(548.38 95.76)">60</text>
  <text class="cls-2" transform="translate(0 95.76)">0</text>
  <circle class="cls-3" cx="527.73" cy="92.25" r="8.56"/>
  <circle class="cls-4" cx="463.73" cy="92.25" r="8.56"/>
  <circle class="cls-5" cx="148.94" cy="92.35" r="8.56"/>
  <circle class="cls-6" cx="165.94" cy="92.35" r="8.56"/>
  <polyline class="cls-7" points="528.28 76.48 528.28 69.75 464.29 69.75 464.29 76.48"/>
  <text class="cls-8" transform="translate(379.78 15.01)">El consumo de <tspan class="cls-9" x="116.16" y="0">ansiolíticos </tspan><tspan x="207.32" y="0" xml:space="preserve"> en </tspan><tspan class="cls-9"><tspan x="0" y="21.6">España</tspan><tspan class="cls-10" x="56.73" y="21.6" xml:space="preserve"> se incrementó en </tspan><tspan x="197.82" y="21.6">7,3</tspan><tspan class="cls-10" x="223.26" y="21.6"> </tspan></tspan><tspan x="0" y="43.2">pun</tspan><tspan class="cls-11" x="29.12" y="43.2">t</tspan><tspan x="34.38" y="43.2">os entre 2008 y 2020</tspan></text>
  <text class="cls-2" transform="translate(262.76 82.49)">30</text>
  <polyline class="cls-7" points="149.4 105.84 149.4 112.57 166.4 112.57 166.4 105.84"/>
  <text class="cls-8" transform="translate(18.12 136.1)">El consumo de <tspan class="cls-9" x="116.16" y="0">ansiolíticos </tspan><tspan x="207.32" y="0" xml:space="preserve"> en </tspan><tspan class="cls-9" x="235.44" y="0">el </tspan><tspan class="cls-9"><tspan x="0" y="21.6">res</tspan><tspan class="cls-12" x="23.58" y="21.6">t</tspan><tspan x="29.06" y="21.6">o de la OCDE</tspan><tspan class="cls-10" x="128.79" y="21.6" xml:space="preserve"> disminuyó en </tspan><tspan class="cls-13" x="238.7" y="21.6">1</tspan><tspan x="249.67" y="21.6">,85</tspan><tspan class="cls-10" x="275.12" y="21.6"> </tspan></tspan><tspan x="0" y="43.2">pun</tspan><tspan class="cls-11" x="29.12" y="43.2">t</tspan><tspan x="34.38" y="43.2">os entre 2008 y 2020</tspan></text>
</svg>
