<?xml version="1.0" encoding="utf-8"?>
<!-- Generator: Adobe Illustrator 24.0.2, SVG Export Plug-In . SVG Version: 6.00 Build 0)  -->
<svg version="1.1" id="Capa_1" xmlns="http://www.w3.org/2000/svg" xmlns:xlink="http://www.w3.org/1999/xlink" x="0px" y="0px"
	 viewBox="0 0 567.2 213" style="enable-background:new 0 0 567.2 213;" xml:space="preserve">
<style type="text/css">
	.st0{fill:none;stroke:#DCDCDC;stroke-width:0.5;stroke-miterlimit:10;}
	.st1{enable-background:new    ;}
	.st2{fill:#DDDDDD;}
	.st3{fill:none;stroke:#DDDDDD;stroke-width:0.5;stroke-miterlimit:10;}
	.st4{fill:#DCDCDC;}
	.st5{opacity:0.9;fill:#CB7E42;enable-background:new    ;}
	.st6{opacity:0.3;fill:#CB7E42;enable-background:new    ;}
	.st7{opacity:0.9;fill:#FBD59A;enable-background:new    ;}
	.st8{opacity:0.3;fill:#FBD59A;enable-background:new    ;}
</style>
<title>8b</title>
<g>
	<polyline class="st0" points="525.4,86.5 525.4,79.8 342.7,79.8 342.7,86.5 	"/>
	<g class="st1">
		<path class="st2" d="M316.7,13.7V15h-7.8V3h7.6v1.3h-6.1v3.8h4.8v1.2h-4.8v4.3H316.7z"/>
		<path class="st2" d="M320,15h-1.4V3h1.4V15z"/>
		<path class="st2" d="M332.5,11.9l1.2,0.2c-0.2,1-0.6,1.8-1.2,2.3c-0.6,0.6-1.4,0.8-2.3,0.8c-1.2,0-2.2-0.5-2.8-1.4s-1-2-1-3.3
			c0-1.3,0.3-2.5,1-3.4s1.6-1.3,2.8-1.3c1,0,1.7,0.3,2.3,0.9c0.6,0.6,0.9,1.3,1.1,2.2l-1.2,0.2c-0.2-1.5-0.9-2.2-2.1-2.2
			c-0.8,0-1.3,0.3-1.8,1c-0.4,0.6-0.6,1.5-0.6,2.5c0,1.1,0.2,2,0.6,2.6c0.4,0.6,1,0.9,1.7,0.9C331.5,14.1,332.2,13.4,332.5,11.9z"/>
		<path class="st2" d="M338.8,15.3c-1.2,0-2.2-0.5-2.9-1.4s-1-2-1-3.4c0-1.4,0.4-2.5,1.2-3.4s1.7-1.3,2.9-1.3c1.2,0,2.2,0.4,2.9,1.3
			s1.1,2,1.1,3.3c0,1.4-0.4,2.5-1.1,3.4S340.1,15.3,338.8,15.3z M339,14.1c0.7,0,1.3-0.3,1.8-0.9s0.7-1.5,0.7-2.7
			c0-1.2-0.2-2.1-0.7-2.7c-0.5-0.6-1.1-0.8-1.7-0.8c-0.7,0-1.3,0.3-1.7,0.8s-0.7,1.4-0.7,2.7c0,1.3,0.2,2.2,0.7,2.8
			C337.7,13.8,338.3,14.1,339,14.1z"/>
		<path class="st2" d="M352,15h-1.3V9.3c0-0.8-0.2-1.4-0.5-1.7s-0.8-0.5-1.3-0.5c-0.7,0-1.3,0.3-1.8,0.8s-0.7,1.3-0.7,2.2V15H345
			V6.1h1.3v1.6c0.7-1.3,1.7-1.9,2.8-1.9c0.7,0,1.2,0.2,1.7,0.5c0.5,0.3,0.8,0.7,1,1.2s0.3,1.2,0.3,2.3V15z"/>
		<path class="st2" d="M353.6,12.7l1.3-0.3c0.3,1.1,1.2,1.7,2.8,1.7c0.6,0,1.1-0.1,1.5-0.4c0.4-0.3,0.6-0.6,0.6-1.1
			c0-0.7-0.5-1.1-1.5-1.3l-1.9-0.4c-0.7-0.1-1.3-0.4-1.7-0.8s-0.7-1-0.7-1.6c0-0.7,0.3-1.4,0.9-1.9c0.6-0.5,1.4-0.8,2.4-0.8
			c1.9,0,3.1,0.8,3.6,2.3l-1.3,0.3c-0.4-0.9-1.1-1.4-2.2-1.4c-0.6,0-1,0.1-1.4,0.3s-0.5,0.6-0.5,1c0,0.7,0.5,1.1,1.4,1.2l1.7,0.3
			c1.8,0.3,2.7,1.2,2.7,2.6c0,0.8-0.3,1.5-1,2s-1.6,0.8-2.7,0.8C355.4,15.3,354.1,14.4,353.6,12.7z"/>
		<path class="st2" d="M370.1,15h-1.2v-1.7c-0.6,1.3-1.6,1.9-2.8,1.9c-0.9,0-1.6-0.3-2.1-0.9c-0.5-0.6-0.8-1.4-0.8-2.6V6.1h1.4v5.7
			c0,0.9,0.2,1.5,0.5,1.8s0.8,0.5,1.2,0.5c0.4,0,0.8-0.1,1.2-0.4s0.7-0.6,0.9-1.1c0.2-0.5,0.4-1,0.4-1.5v-5h1.4V15z"/>
		<path class="st2" d="M384.8,15h-1.3V9.5c0-0.6,0-1-0.1-1.3c-0.1-0.3-0.3-0.5-0.6-0.8c-0.3-0.2-0.6-0.4-1-0.4c-0.5,0-1,0.2-1.5,0.7
			c-0.5,0.5-0.7,1.2-0.7,2.2v5h-1.3V9.2c0-0.8-0.2-1.3-0.6-1.7S376.8,7,376.4,7c-0.6,0-1.1,0.3-1.5,0.8s-0.7,1.1-0.7,1.9V15h-1.3
			V6.1h1.2v1.7c0.7-1.3,1.6-2,2.7-2c0.6,0,1.2,0.2,1.6,0.6s0.7,0.9,0.9,1.5c0.6-1.4,1.5-2.1,2.8-2.1c0.6,0,1.1,0.2,1.6,0.5
			s0.8,0.7,0.9,1.2c0.1,0.4,0.2,1.1,0.2,1.9V15z"/>
		<path class="st2" d="M390.7,15.3c-1.2,0-2.2-0.5-2.9-1.4s-1-2-1-3.4c0-1.4,0.4-2.5,1.2-3.4s1.7-1.3,2.9-1.3c1.2,0,2.2,0.4,2.9,1.3
			s1.1,2,1.1,3.3c0,1.4-0.4,2.5-1.1,3.4S391.9,15.3,390.7,15.3z M390.8,14.1c0.7,0,1.3-0.3,1.8-0.9s0.7-1.5,0.7-2.7
			c0-1.2-0.2-2.1-0.7-2.7C392,7.3,391.5,7,390.8,7c-0.7,0-1.3,0.3-1.7,0.8s-0.7,1.4-0.7,2.7c0,1.3,0.2,2.2,0.7,2.8
			C389.5,13.8,390.1,14.1,390.8,14.1z"/>
		<path class="st2" d="M408.3,3v12h-1.2v-1.5c-0.6,1.2-1.6,1.8-2.8,1.8c-1,0-1.9-0.4-2.6-1.3s-1-2-1-3.3c0-1.4,0.3-2.5,1-3.4
			s1.5-1.4,2.6-1.4c1.1,0,1.9,0.5,2.6,1.5V3H408.3z M406.9,9.6c0-0.8-0.2-1.4-0.7-1.9s-1-0.7-1.7-0.7c-0.7,0-1.3,0.3-1.7,0.9
			s-0.7,1.5-0.7,2.6c0,1.2,0.2,2.1,0.6,2.7s1,0.9,1.7,0.9c0.6,0,1.2-0.3,1.7-0.8s0.7-1.2,0.7-1.9V9.6z"/>
		<path class="st2" d="M416.9,12.4l1.3,0.3c-0.2,0.8-0.7,1.4-1.4,1.9s-1.5,0.7-2.4,0.7c-1.2,0-2.2-0.4-2.9-1.3
			c-0.8-0.9-1.1-2-1.1-3.4c0-1.4,0.4-2.6,1.2-3.4s1.8-1.3,2.9-1.3c1.2,0,2.1,0.4,2.8,1.2s1.1,2,1.1,3.6h-6.5c0,1.3,0.3,2.2,0.8,2.7
			s1.2,0.7,1.8,0.7C415.7,14.1,416.5,13.5,416.9,12.4z M416.9,9.7c0-0.5-0.1-0.9-0.2-1.3s-0.4-0.7-0.8-1c-0.4-0.3-0.8-0.4-1.3-0.4
			c-0.7,0-1.3,0.2-1.7,0.7s-0.7,1.2-0.8,2H416.9z"/>
	</g>
	<g class="st1">
		<path class="st2" d="M432.4,15h-1.9c-0.2-0.5-0.3-1.1-0.3-1.8c-0.5,1.3-1.5,2-3,2c-0.9,0-1.6-0.3-2.1-0.8c-0.5-0.5-0.8-1.2-0.8-2
			c0-2,1.8-3.1,5.4-3.1c0.1,0,0.3,0,0.6,0V8.7c0-0.9-0.6-1.4-1.9-1.4c-1.2,0-1.9,0.5-2.1,1.4l-1.7-0.3c0.1-0.7,0.5-1.3,1.1-1.8
			c0.7-0.5,1.6-0.7,2.9-0.7c0.7,0,1.2,0.1,1.7,0.2c0.4,0.1,0.8,0.3,1.1,0.6c0.3,0.3,0.5,0.6,0.6,0.9s0.2,0.9,0.2,1.6v4
			C432.1,13.8,432.2,14.4,432.4,15z M430.1,10.5c-2.6,0-3.9,0.6-3.9,1.9c0,0.4,0.1,0.7,0.4,0.9c0.3,0.3,0.7,0.4,1.2,0.4
			c0.8,0,1.3-0.2,1.7-0.7c0.4-0.5,0.6-1,0.6-1.6V10.5z"/>
		<path class="st2" d="M441.8,15h-2V9.5c0-0.6-0.1-1-0.4-1.3c-0.3-0.3-0.6-0.4-1-0.4c-0.5,0-1,0.2-1.4,0.7s-0.6,1.1-0.6,2.1V15h-2
			V6.1h1.8v2.1c0.6-1.5,1.5-2.2,2.7-2.2c0.8,0,1.4,0.2,2,0.7s0.8,1.4,0.8,2.6V15z"/>
		<path class="st2" d="M448.4,13.4V15c-0.6,0.1-1.1,0.2-1.4,0.2c-0.5,0-1-0.1-1.4-0.3c-0.4-0.2-0.7-0.5-0.8-0.9s-0.3-0.9-0.3-1.7
			V7.7h-1.1V6.1h1.2l0.2-2.3l1.6-0.1v2.5h1.8v1.6h-1.8V12c0,0.6,0.1,0.9,0.3,1.1c0.2,0.2,0.6,0.3,1.1,0.3
			C448,13.5,448.2,13.5,448.4,13.4z"/>
		<path class="st2" d="M452,5.1h-2V3h2V5.1z M452,15h-2V6.1h2V15z"/>
		<path class="st2" d="M461.7,15h-1.9v-1.8c-0.5,1.3-1.4,2-2.6,2c-1.1,0-1.9-0.5-2.5-1.4s-0.9-2-0.9-3.4c0-1.3,0.3-2.3,0.9-3.3
			s1.5-1.4,2.6-1.4c1.1,0,1.9,0.5,2.4,1.6V3h2V15z M459.7,9.8c0-0.7-0.2-1.3-0.5-1.7c-0.3-0.4-0.8-0.6-1.3-0.6
			c-0.6,0-1.1,0.3-1.4,0.8s-0.5,1.3-0.5,2.3c0,2,0.6,3,1.9,3c0.5,0,0.9-0.2,1.3-0.6c0.4-0.4,0.6-1,0.6-1.6V9.8z"/>
		<path class="st2" d="M469.8,12.2l1.8,0.2c-0.2,0.8-0.7,1.5-1.4,2s-1.5,0.8-2.6,0.8c-1.2,0-2.2-0.4-3-1.2s-1.1-1.9-1.1-3.4
			c0-1.3,0.4-2.5,1.1-3.3s1.8-1.3,3.1-1.3c1.3,0,2.2,0.4,2.9,1.3s1,2,1,3.3l0,0.2h-6.1c0,0.6,0.1,1.1,0.2,1.5s0.3,0.7,0.7,0.9
			s0.8,0.4,1.3,0.4C468.8,13.6,469.4,13.1,469.8,12.2z M469.7,9.5c0-0.6-0.2-1.2-0.6-1.6s-0.8-0.6-1.4-0.6c-0.6,0-1,0.2-1.4,0.6
			c-0.4,0.4-0.6,0.9-0.7,1.6H469.7z"/>
		<path class="st2" d="M475.6,18h-2V6.1h1.9v1.5c0.6-1.2,1.5-1.7,2.7-1.7c1,0,1.8,0.4,2.4,1.3s0.9,1.9,0.9,3.3
			c0,1.3-0.3,2.4-0.8,3.3s-1.4,1.4-2.5,1.4c-1.1,0-2-0.5-2.5-1.4V18z M475.6,11.4c0,0.6,0.2,1.2,0.6,1.6c0.4,0.4,0.8,0.6,1.3,0.6
			c0.6,0,1.1-0.3,1.4-0.8s0.4-1.3,0.4-2.1c0-0.9-0.1-1.6-0.4-2.2c-0.3-0.6-0.7-0.8-1.3-0.8c-0.5,0-1,0.2-1.4,0.7s-0.6,1.1-0.6,1.8
			V11.4z"/>
		<path class="st2" d="M485.3,15h-2V6.1h1.8v2.1c0.3-0.8,0.6-1.4,1.1-1.8s0.9-0.6,1.4-0.6c0.1,0,0.2,0,0.3,0V8c-1,0-1.7,0.3-2,1
			s-0.5,1.3-0.5,1.9V15z"/>
		<path class="st2" d="M494.9,12.2l1.8,0.2c-0.2,0.8-0.7,1.5-1.4,2s-1.5,0.8-2.6,0.8c-1.2,0-2.2-0.4-3-1.2s-1.1-1.9-1.1-3.4
			c0-1.3,0.4-2.5,1.1-3.3s1.8-1.3,3.1-1.3c1.3,0,2.2,0.4,2.9,1.3s1,2,1,3.3l0,0.2h-6.1c0,0.6,0.1,1.1,0.2,1.5s0.3,0.7,0.7,0.9
			s0.8,0.4,1.3,0.4C493.9,13.6,494.5,13.1,494.9,12.2z M494.8,9.5c0-0.6-0.2-1.2-0.6-1.6s-0.8-0.6-1.4-0.6c-0.6,0-1,0.2-1.4,0.6
			c-0.4,0.4-0.6,0.9-0.7,1.6H494.8z"/>
		<path class="st2" d="M497.6,13l1.9-0.4c0.3,0.7,0.9,1.1,1.9,1.1c1.2,0,1.9-0.4,1.9-1.1c0-0.2-0.1-0.4-0.3-0.6s-0.4-0.3-0.7-0.3
			l-1.6-0.3c-1.8-0.3-2.7-1.2-2.7-2.6c0-0.8,0.3-1.5,0.9-2c0.6-0.5,1.4-0.8,2.5-0.8c1.9,0,3,0.7,3.4,2.1L503,8.4
			c-0.2-0.7-0.7-1-1.6-1c-1.1,0-1.6,0.3-1.6,1c0,0.5,0.4,0.8,1.3,1l1.9,0.4c1.5,0.3,2.2,1.2,2.2,2.5c0,1-0.4,1.7-1.1,2.2
			c-0.8,0.5-1.7,0.7-2.7,0.7c-0.9,0-1.7-0.2-2.4-0.5C498.3,14.3,497.8,13.7,497.6,13z"/>
		<path class="st2" d="M508.8,5.1h-2V3h2V5.1z M508.8,15h-2V6.1h2V15z"/>
	</g>
	<g class="st1">
		<path class="st2" d="M517.9,6.1l-3.1,8.9h-1.4l-3.2-8.9h1.5l2.5,7.2l2.4-7.2H517.9z"/>
	</g>
	<g class="st1">
		<path class="st2" d="M522.4,15.3c-1.2,0-2.2-0.5-2.9-1.4s-1-2-1-3.4c0-1.4,0.4-2.5,1.2-3.4s1.7-1.3,2.9-1.3c1.2,0,2.2,0.4,2.9,1.3
			s1.1,2,1.1,3.3c0,1.4-0.4,2.5-1.1,3.4S523.6,15.3,522.4,15.3z M522.5,14.1c0.7,0,1.3-0.3,1.8-0.9s0.7-1.5,0.7-2.7
			c0-1.2-0.2-2.1-0.7-2.7c-0.5-0.6-1.1-0.8-1.7-0.8c-0.7,0-1.3,0.3-1.7,0.8s-0.7,1.4-0.7,2.7c0,1.3,0.2,2.2,0.7,2.8
			C521.2,13.8,521.8,14.1,522.5,14.1z"/>
		<path class="st2" d="M527.4,12.7l1.3-0.3c0.3,1.1,1.2,1.7,2.8,1.7c0.6,0,1.1-0.1,1.5-0.4c0.4-0.3,0.6-0.6,0.6-1.1
			c0-0.7-0.5-1.1-1.5-1.3l-1.9-0.4c-0.7-0.1-1.3-0.4-1.7-0.8s-0.7-1-0.7-1.6c0-0.7,0.3-1.4,0.9-1.9c0.6-0.5,1.4-0.8,2.4-0.8
			c1.9,0,3.1,0.8,3.6,2.3l-1.3,0.3C533,7.5,532.2,7,531.1,7c-0.6,0-1,0.1-1.4,0.3s-0.5,0.6-0.5,1c0,0.7,0.5,1.1,1.4,1.2l1.7,0.3
			c1.8,0.3,2.7,1.2,2.7,2.6c0,0.8-0.3,1.5-1,2s-1.6,0.8-2.7,0.8C529.2,15.3,527.9,14.4,527.4,12.7z"/>
	</g>
	<g class="st1">
		<path class="st2" d="M547.3,12.4l1.3,0.3c-0.2,0.8-0.7,1.4-1.4,1.9s-1.5,0.7-2.4,0.7c-1.2,0-2.2-0.4-2.9-1.3
			c-0.8-0.9-1.1-2-1.1-3.4c0-1.4,0.4-2.6,1.2-3.4s1.8-1.3,2.9-1.3c1.2,0,2.1,0.4,2.8,1.2s1.1,2,1.1,3.6h-6.5c0,1.3,0.3,2.2,0.8,2.7
			s1.2,0.7,1.8,0.7C546,14.1,546.8,13.5,547.3,12.4z M547.2,9.7c0-0.5-0.1-0.9-0.2-1.3s-0.4-0.7-0.8-1c-0.4-0.3-0.8-0.4-1.3-0.4
			c-0.7,0-1.3,0.2-1.7,0.7s-0.7,1.2-0.8,2H547.2z"/>
		<path class="st2" d="M557.8,15h-1.3V9.3c0-0.8-0.2-1.4-0.5-1.7s-0.8-0.5-1.3-0.5c-0.7,0-1.3,0.3-1.8,0.8s-0.7,1.3-0.7,2.2V15h-1.4
			V6.1h1.3v1.6c0.7-1.3,1.7-1.9,2.8-1.9c0.7,0,1.2,0.2,1.7,0.5c0.5,0.3,0.8,0.7,1,1.2s0.3,1.2,0.3,2.3V15z"/>
	</g>
	<g class="st1">
		<path class="st2" d="M316.5,36.6h-7.8v-12h7.7v1.8h-5.6v3.3h4.5v1.7h-4.5v3.4h5.6V36.6z"/>
		<path class="st2" d="M317.2,34.6l1.9-0.4c0.3,0.7,0.9,1.1,1.9,1.1c1.2,0,1.9-0.4,1.9-1.1c0-0.2-0.1-0.4-0.3-0.6s-0.4-0.3-0.7-0.3
			l-1.6-0.3c-1.8-0.3-2.7-1.2-2.7-2.6c0-0.8,0.3-1.5,0.9-2c0.6-0.5,1.4-0.8,2.5-0.8c1.9,0,3,0.7,3.4,2.1l-1.8,0.4
			c-0.2-0.7-0.7-1-1.6-1c-1.1,0-1.6,0.3-1.6,1c0,0.5,0.4,0.8,1.3,1l1.9,0.4c1.5,0.3,2.2,1.2,2.2,2.5c0,1-0.4,1.7-1.1,2.2
			c-0.8,0.5-1.7,0.7-2.7,0.7c-0.9,0-1.7-0.2-2.4-0.5C317.8,35.9,317.4,35.3,317.2,34.6z"/>
		<path class="st2" d="M328.5,39.6h-2V27.7h1.9v1.5c0.6-1.2,1.5-1.7,2.7-1.7c1,0,1.8,0.4,2.4,1.3s0.9,1.9,0.9,3.3
			c0,1.3-0.3,2.4-0.8,3.3s-1.4,1.4-2.5,1.4c-1.1,0-2-0.5-2.5-1.4V39.6z M328.5,33c0,0.6,0.2,1.2,0.6,1.6c0.4,0.4,0.8,0.6,1.3,0.6
			c0.6,0,1.1-0.3,1.4-0.8s0.4-1.3,0.4-2.1c0-0.9-0.1-1.6-0.4-2.2c-0.3-0.6-0.7-0.8-1.3-0.8c-0.5,0-1,0.2-1.4,0.7s-0.6,1.1-0.6,1.8
			V33z"/>
		<path class="st2" d="M343.7,36.6h-1.9c-0.2-0.5-0.3-1.1-0.3-1.8c-0.5,1.3-1.5,2-3,2c-0.9,0-1.6-0.3-2.1-0.8
			c-0.5-0.5-0.8-1.2-0.8-2c0-2,1.8-3.1,5.4-3.1c0.1,0,0.3,0,0.6,0v-0.7c0-0.9-0.6-1.4-1.9-1.4c-1.2,0-1.9,0.5-2.1,1.4l-1.7-0.3
			c0.1-0.7,0.5-1.3,1.1-1.8c0.7-0.5,1.6-0.7,2.9-0.7c0.7,0,1.2,0.1,1.7,0.2c0.4,0.1,0.8,0.3,1.1,0.6c0.3,0.3,0.5,0.6,0.6,0.9
			s0.2,0.9,0.2,1.6v4C343.5,35.4,343.5,36,343.7,36.6z M341.5,32.1c-2.6,0-3.9,0.6-3.9,1.9c0,0.4,0.1,0.7,0.4,0.9
			c0.3,0.3,0.7,0.4,1.2,0.4c0.8,0,1.3-0.2,1.7-0.7c0.4-0.5,0.6-1,0.6-1.6V32.1z"/>
		<path class="st2" d="M353.2,36.6h-2v-5.5c0-0.6-0.1-1-0.4-1.3c-0.3-0.3-0.6-0.4-1-0.4c-0.5,0-1,0.2-1.4,0.7s-0.6,1.1-0.6,2.1v4.6
			h-2v-8.9h1.8v2.1c0.6-1.5,1.5-2.2,2.7-2.2c0.8,0,1.4,0.2,2,0.7s0.8,1.4,0.8,2.6V36.6z M351.7,24.1l0.6,0.9
			c-0.1,0.3-0.4,0.5-0.8,0.7s-0.7,0.3-1,0.3c-0.4,0-0.8-0.1-1.3-0.4c-0.4-0.2-0.7-0.3-0.9-0.3c-0.3,0-0.6,0.2-1.1,0.7l-0.6-0.9
			c0.5-0.7,1.1-1,1.8-1c0.3,0,0.7,0.1,1.2,0.3c0.5,0.2,0.9,0.4,1.2,0.4C351,24.8,351.4,24.6,351.7,24.1z"/>
		<path class="st2" d="M363.2,36.6h-1.9c-0.2-0.5-0.3-1.1-0.3-1.8c-0.5,1.3-1.5,2-3,2c-0.9,0-1.6-0.3-2.1-0.8
			c-0.5-0.5-0.8-1.2-0.8-2c0-2,1.8-3.1,5.4-3.1c0.1,0,0.3,0,0.6,0v-0.7c0-0.9-0.6-1.4-1.9-1.4c-1.2,0-1.9,0.5-2.1,1.4l-1.7-0.3
			c0.1-0.7,0.5-1.3,1.1-1.8c0.7-0.5,1.6-0.7,2.9-0.7c0.7,0,1.2,0.1,1.7,0.2c0.4,0.1,0.8,0.3,1.1,0.6c0.3,0.3,0.5,0.6,0.6,0.9
			s0.2,0.9,0.2,1.6v4C362.9,35.4,363,36,363.2,36.6z M361,32.1c-2.6,0-3.9,0.6-3.9,1.9c0,0.4,0.1,0.7,0.4,0.9
			c0.3,0.3,0.7,0.4,1.2,0.4c0.8,0,1.3-0.2,1.7-0.7c0.4-0.5,0.6-1,0.6-1.6V32.1z"/>
	</g>
	<g class="st1">
	</g>
	<g class="st1">
		<path class="st2" d="M368.8,34.3l1.3-0.3c0.3,1.1,1.2,1.7,2.8,1.7c0.6,0,1.1-0.1,1.5-0.4c0.4-0.3,0.6-0.6,0.6-1.1
			c0-0.7-0.5-1.1-1.5-1.3l-1.9-0.4c-0.7-0.1-1.3-0.4-1.7-0.8s-0.7-1-0.7-1.6c0-0.7,0.3-1.4,0.9-1.9c0.6-0.5,1.4-0.8,2.4-0.8
			c1.9,0,3.1,0.8,3.6,2.3l-1.3,0.3c-0.4-0.9-1.1-1.4-2.2-1.4c-0.6,0-1,0.1-1.4,0.3s-0.5,0.6-0.5,1c0,0.7,0.5,1.1,1.4,1.2l1.7,0.3
			c1.8,0.3,2.7,1.2,2.7,2.6c0,0.8-0.3,1.5-1,2s-1.6,0.8-2.7,0.8C370.6,36.9,369.3,36,368.8,34.3z"/>
		<path class="st2" d="M384.2,34l1.3,0.3c-0.2,0.8-0.7,1.4-1.4,1.9s-1.5,0.7-2.4,0.7c-1.2,0-2.2-0.4-2.9-1.3c-0.8-0.9-1.1-2-1.1-3.4
			c0-1.4,0.4-2.6,1.2-3.4s1.8-1.3,2.9-1.3c1.2,0,2.1,0.4,2.8,1.2s1.1,2,1.1,3.6h-6.5c0,1.3,0.3,2.2,0.8,2.7s1.2,0.7,1.8,0.7
			C383,35.7,383.8,35.1,384.2,34z M384.1,31.3c0-0.5-0.1-0.9-0.2-1.3s-0.4-0.7-0.8-1c-0.4-0.3-0.8-0.4-1.3-0.4
			c-0.7,0-1.3,0.2-1.7,0.7s-0.7,1.2-0.8,2H384.1z"/>
		<path class="st2" d="M393.7,24.6v1.5h-1.5v-1.5H393.7z M393.6,27.7v8.9h-1.4v-8.9H393.6z"/>
		<path class="st2" d="M403.4,36.6h-1.3v-5.7c0-0.8-0.2-1.4-0.5-1.7s-0.8-0.5-1.3-0.5c-0.7,0-1.3,0.3-1.8,0.8s-0.7,1.3-0.7,2.2v4.9
			h-1.4v-8.9h1.3v1.6c0.7-1.3,1.7-1.9,2.8-1.9c0.7,0,1.2,0.2,1.7,0.5c0.5,0.3,0.8,0.7,1,1.2s0.3,1.2,0.3,2.3V36.6z"/>
		<path class="st2" d="M411.4,33.5l1.2,0.2c-0.2,1-0.6,1.8-1.2,2.3c-0.6,0.6-1.4,0.8-2.3,0.8c-1.2,0-2.2-0.5-2.8-1.4s-1-2-1-3.3
			c0-1.3,0.3-2.5,1-3.4s1.6-1.3,2.8-1.3c1,0,1.7,0.3,2.3,0.9c0.6,0.6,0.9,1.3,1.1,2.2l-1.2,0.2c-0.2-1.5-0.9-2.2-2.1-2.2
			c-0.8,0-1.3,0.3-1.8,1c-0.4,0.6-0.6,1.5-0.6,2.5c0,1.1,0.2,2,0.6,2.6c0.4,0.6,1,0.9,1.7,0.9C410.3,35.7,411.1,35,411.4,33.5z"/>
		<path class="st2" d="M415.9,36.6h-1.4v-8.9h1.2v2.1c0.4-1,0.9-1.6,1.3-1.9c0.4-0.3,0.9-0.4,1.3-0.4c0.1,0,0.3,0,0.5,0v1.3h-0.3
			c-0.8,0-1.4,0.3-1.9,0.9s-0.8,1.3-0.8,2.2V36.6z"/>
		<path class="st2" d="M426.3,34l1.3,0.3c-0.2,0.8-0.7,1.4-1.4,1.9s-1.5,0.7-2.4,0.7c-1.2,0-2.2-0.4-2.9-1.3c-0.8-0.9-1.1-2-1.1-3.4
			c0-1.4,0.4-2.6,1.2-3.4s1.8-1.3,2.9-1.3c1.2,0,2.1,0.4,2.8,1.2s1.1,2,1.1,3.6h-6.5c0,1.3,0.3,2.2,0.8,2.7s1.2,0.7,1.8,0.7
			C425,35.7,425.8,35.1,426.3,34z M426.2,31.3c0-0.5-0.1-0.9-0.2-1.3s-0.4-0.7-0.8-1c-0.4-0.3-0.8-0.4-1.3-0.4
			c-0.7,0-1.3,0.2-1.7,0.7s-0.7,1.2-0.8,2H426.2z"/>
		<path class="st2" d="M441.7,36.6h-1.3v-5.5c0-0.6,0-1-0.1-1.3c-0.1-0.3-0.3-0.5-0.6-0.8c-0.3-0.2-0.6-0.4-1-0.4
			c-0.5,0-1,0.2-1.5,0.7c-0.5,0.5-0.7,1.2-0.7,2.2v5H435v-5.8c0-0.8-0.2-1.3-0.6-1.7s-0.8-0.5-1.2-0.5c-0.6,0-1.1,0.3-1.5,0.8
			s-0.7,1.1-0.7,1.9v5.3h-1.3v-8.9h1.2v1.7c0.7-1.3,1.6-2,2.7-2c0.6,0,1.2,0.2,1.6,0.6s0.7,0.9,0.9,1.5c0.6-1.4,1.5-2.1,2.8-2.1
			c0.6,0,1.1,0.2,1.6,0.5s0.8,0.7,0.9,1.2c0.1,0.4,0.2,1.1,0.2,1.9V36.6z"/>
		<path class="st2" d="M450.3,34l1.3,0.3c-0.2,0.8-0.7,1.4-1.4,1.9s-1.5,0.7-2.4,0.7c-1.2,0-2.2-0.4-2.9-1.3c-0.8-0.9-1.1-2-1.1-3.4
			c0-1.4,0.4-2.6,1.2-3.4s1.8-1.3,2.9-1.3c1.2,0,2.1,0.4,2.8,1.2s1.1,2,1.1,3.6h-6.5c0,1.3,0.3,2.2,0.8,2.7s1.2,0.7,1.8,0.7
			C449.1,35.7,449.9,35.1,450.3,34z M450.2,31.3c0-0.5-0.1-0.9-0.2-1.3s-0.4-0.7-0.8-1c-0.4-0.3-0.8-0.4-1.3-0.4
			c-0.7,0-1.3,0.2-1.7,0.7s-0.7,1.2-0.8,2H450.2z"/>
		<path class="st2" d="M460.8,36.6h-1.3v-5.7c0-0.8-0.2-1.4-0.5-1.7s-0.8-0.5-1.3-0.5c-0.7,0-1.3,0.3-1.8,0.8s-0.7,1.3-0.7,2.2v4.9
			h-1.4v-8.9h1.3v1.6c0.7-1.3,1.7-1.9,2.8-1.9c0.7,0,1.2,0.2,1.7,0.5c0.5,0.3,0.8,0.7,1,1.2s0.3,1.2,0.3,2.3V36.6z"/>
		<path class="st2" d="M467.6,35.7v1.1c-0.5,0.1-0.9,0.1-1.3,0.1c-1.7,0-2.6-0.9-2.6-2.7v-5.3h-1.6v-1.1h1.6l0.1-2.2l1.3-0.1v2.4h2
			v1.1h-2v5.6c0,0.9,0.5,1.4,1.4,1.4C466.8,35.8,467.2,35.7,467.6,35.7z"/>
		<path class="st2" d="M472.3,36.9c-1.2,0-2.2-0.5-2.9-1.4s-1-2-1-3.4c0-1.4,0.4-2.5,1.2-3.4s1.7-1.3,2.9-1.3c1.2,0,2.2,0.4,2.9,1.3
			s1.1,2,1.1,3.3c0,1.4-0.4,2.5-1.1,3.4S473.5,36.9,472.3,36.9z M472.4,35.7c0.7,0,1.3-0.3,1.8-0.9s0.7-1.5,0.7-2.7
			c0-1.2-0.2-2.1-0.7-2.7c-0.5-0.6-1.1-0.8-1.7-0.8c-0.7,0-1.3,0.3-1.7,0.8s-0.7,1.4-0.7,2.7c0,1.3,0.2,2.2,0.7,2.8
			C471.1,35.4,471.7,35.7,472.4,35.7z M475,24.7l-3.6,1.7l-0.4-0.7l3.5-2L475,24.7z"/>
		<path class="st2" d="M488.8,34l1.3,0.3c-0.2,0.8-0.7,1.4-1.4,1.9s-1.5,0.7-2.4,0.7c-1.2,0-2.2-0.4-2.9-1.3c-0.8-0.9-1.1-2-1.1-3.4
			c0-1.4,0.4-2.6,1.2-3.4s1.8-1.3,2.9-1.3c1.2,0,2.1,0.4,2.8,1.2s1.1,2,1.1,3.6h-6.5c0,1.3,0.3,2.2,0.8,2.7s1.2,0.7,1.8,0.7
			C487.6,35.7,488.4,35.1,488.8,34z M488.8,31.3c0-0.5-0.1-0.9-0.2-1.3s-0.4-0.7-0.8-1c-0.4-0.3-0.8-0.4-1.3-0.4
			c-0.7,0-1.3,0.2-1.7,0.7s-0.7,1.2-0.8,2H488.8z"/>
		<path class="st2" d="M499.3,36.6H498v-5.7c0-0.8-0.2-1.4-0.5-1.7s-0.8-0.5-1.3-0.5c-0.7,0-1.3,0.3-1.8,0.8s-0.7,1.3-0.7,2.2v4.9
			h-1.4v-8.9h1.3v1.6c0.7-1.3,1.7-1.9,2.8-1.9c0.7,0,1.2,0.2,1.7,0.5c0.5,0.3,0.8,0.7,1,1.2s0.3,1.2,0.3,2.3V36.6z"/>
	</g>
	<g class="st1">
		<path class="st2" d="M509,31.3v-1.7h1.1c0.7,0,1.2-0.1,1.6-0.4s0.7-0.7,0.7-1.3c0-0.6-0.2-1-0.6-1.3s-0.9-0.4-1.4-0.4
			c-1.2,0-2,0.6-2.4,1.7l-2-0.3c0.2-0.9,0.7-1.7,1.5-2.2s1.8-0.9,2.9-0.9c1.1,0,2.1,0.3,2.9,0.9s1.2,1.4,1.2,2.3
			c0,0.7-0.2,1.3-0.6,1.9s-1,0.8-1.6,0.8c0.8,0.1,1.4,0.4,1.9,1s0.7,1.2,0.7,1.9c0,1-0.4,1.9-1.2,2.5s-1.9,1-3.3,1
			c-1.3,0-2.3-0.3-3.2-1c-0.8-0.6-1.4-1.4-1.6-2.2l2-0.5c0.4,1.3,1.3,2,2.7,2c0.7,0,1.3-0.2,1.7-0.5c0.4-0.4,0.6-0.8,0.6-1.3
			c0-0.5-0.2-1-0.6-1.4s-0.9-0.6-1.7-0.6H509z"/>
	</g>
	<g class="st1">
		<path class="st2" d="M525.7,36.6h-9.2v-1.8h3.6v-7.6c-1.2,1-2.3,1.8-3.3,2.2v-2.2c1-0.4,1.6-0.7,1.9-0.8c0.3-0.2,0.6-0.5,1.1-0.9
			c0.5-0.4,0.8-0.8,1-1.2h1.4v10.5h3.4V36.6z"/>
	</g>
	<g class="st1">
		<path class="st2" d="M529.5,34.4v2l-1.4,2.8h-0.8l1-2.6h-1v-2.2H529.5z"/>
		<path class="st2" d="M540.2,34.7v1.9h-8.8v-2.1l3.7-2.4c1.1-0.8,1.9-1.4,2.3-2c0.4-0.6,0.6-1.1,0.6-1.6c0-0.6-0.2-1.1-0.6-1.5
			s-0.9-0.6-1.5-0.6c-1.4,0-2.2,0.8-2.4,2.5l-2.1-0.5c0.2-1.1,0.6-2,1.4-2.7s1.8-1.1,3.1-1.1c1.3,0,2.4,0.4,3.2,1.1
			c0.8,0.8,1.2,1.7,1.2,2.9c0,1-0.4,1.9-1.1,2.7s-2.4,2-5.2,3.6H540.2z"/>
	</g>
	<g class="st1">
	</g>
	<g class="st1">
		<path class="st2" d="M310.2,61.2h-1.4V49.3h1.2v1.7c0.6-1.3,1.6-2,2.8-2c1,0,1.9,0.4,2.5,1.3s1,2,1,3.3c0,1.4-0.3,2.6-1,3.4
			s-1.5,1.3-2.5,1.3c-1.1,0-2-0.5-2.6-1.6V61.2z M310.2,52.5V55c0.1,0.7,0.4,1.2,0.9,1.7c0.5,0.4,1,0.7,1.5,0.7
			c0.6,0,1.1-0.3,1.6-0.8s0.7-1.4,0.7-2.7c0-1.1-0.2-2-0.6-2.6c-0.4-0.6-1-0.9-1.7-0.9c-0.6,0-1,0.2-1.5,0.6S310.3,51.9,310.2,52.5z
			"/>
		<path class="st2" d="M325.4,58.2h-1.2v-1.7c-0.6,1.3-1.6,1.9-2.8,1.9c-0.9,0-1.6-0.3-2.1-0.9c-0.5-0.6-0.8-1.4-0.8-2.6v-5.7h1.4
			V55c0,0.9,0.2,1.5,0.5,1.8s0.8,0.5,1.2,0.5c0.4,0,0.8-0.1,1.2-0.4s0.7-0.6,0.9-1.1c0.2-0.5,0.4-1,0.4-1.5v-5h1.4V58.2z"/>
		<path class="st2" d="M335.1,58.2h-1.3v-5.7c0-0.8-0.2-1.4-0.5-1.7s-0.8-0.5-1.3-0.5c-0.7,0-1.3,0.3-1.8,0.8s-0.7,1.3-0.7,2.2v4.9
			h-1.4v-8.9h1.3V51c0.7-1.3,1.7-1.9,2.8-1.9c0.7,0,1.2,0.2,1.7,0.5c0.5,0.3,0.8,0.7,1,1.2s0.3,1.2,0.3,2.3V58.2z"/>
	</g>
	<g class="st1">
		<path class="st2" d="M341.9,57.3v1.1c-0.5,0.1-0.9,0.1-1.3,0.1c-1.7,0-2.6-0.9-2.6-2.7v-5.3h-1.6v-1.1h1.6l0.1-2.2l1.3-0.1v2.4h2
			v1.1h-2V56c0,0.9,0.5,1.4,1.4,1.4C341.2,57.4,341.5,57.3,341.9,57.3z"/>
	</g>
	<g class="st1">
		<path class="st2" d="M346.3,58.5c-1.2,0-2.2-0.5-2.9-1.4s-1-2-1-3.4c0-1.4,0.4-2.5,1.2-3.4s1.7-1.3,2.9-1.3c1.2,0,2.2,0.4,2.9,1.3
			s1.1,2,1.1,3.3c0,1.4-0.4,2.5-1.1,3.4S347.5,58.5,346.3,58.5z M346.4,57.3c0.7,0,1.3-0.3,1.8-0.9s0.7-1.5,0.7-2.7
			c0-1.2-0.2-2.1-0.7-2.7c-0.5-0.6-1.1-0.8-1.7-0.8c-0.7,0-1.3,0.3-1.7,0.8s-0.7,1.4-0.7,2.7c0,1.3,0.2,2.2,0.7,2.8
			C345.2,57,345.8,57.3,346.4,57.3z"/>
		<path class="st2" d="M351.3,55.9l1.3-0.3c0.3,1.1,1.2,1.7,2.8,1.7c0.6,0,1.1-0.1,1.5-0.4c0.4-0.3,0.6-0.6,0.6-1.1
			c0-0.7-0.5-1.1-1.5-1.3l-1.9-0.4c-0.7-0.1-1.3-0.4-1.7-0.8s-0.7-1-0.7-1.6c0-0.7,0.3-1.4,0.9-1.9c0.6-0.5,1.4-0.8,2.4-0.8
			c1.9,0,3.1,0.8,3.6,2.3l-1.3,0.3c-0.4-0.9-1.1-1.4-2.2-1.4c-0.6,0-1,0.1-1.4,0.3s-0.5,0.6-0.5,1c0,0.7,0.5,1.1,1.4,1.2l1.7,0.3
			c1.8,0.3,2.7,1.2,2.7,2.6c0,0.8-0.3,1.5-1,2s-1.6,0.8-2.7,0.8C353.1,58.5,351.8,57.6,351.3,55.9z"/>
		<path class="st2" d="M371.2,55.6l1.3,0.3c-0.2,0.8-0.7,1.4-1.4,1.9s-1.5,0.7-2.4,0.7c-1.2,0-2.2-0.4-2.9-1.3
			c-0.8-0.9-1.1-2-1.1-3.4c0-1.4,0.4-2.6,1.2-3.4s1.8-1.3,2.9-1.3c1.2,0,2.1,0.4,2.8,1.2s1.1,2,1.1,3.6h-6.5c0,1.3,0.3,2.2,0.8,2.7
			s1.2,0.7,1.8,0.7C370,57.3,370.8,56.7,371.2,55.6z M371.1,52.9c0-0.5-0.1-0.9-0.2-1.3s-0.4-0.7-0.8-1c-0.4-0.3-0.8-0.4-1.3-0.4
			c-0.7,0-1.3,0.2-1.7,0.7s-0.7,1.2-0.8,2H371.1z"/>
		<path class="st2" d="M381.7,58.2h-1.3v-5.7c0-0.8-0.2-1.4-0.5-1.7s-0.8-0.5-1.3-0.5c-0.7,0-1.3,0.3-1.8,0.8s-0.7,1.3-0.7,2.2v4.9
			h-1.4v-8.9h1.3V51c0.7-1.3,1.7-1.9,2.8-1.9c0.7,0,1.2,0.2,1.7,0.5c0.5,0.3,0.8,0.7,1,1.2s0.3,1.2,0.3,2.3V58.2z"/>
		<path class="st2" d="M388.5,57.3v1.1c-0.5,0.1-0.9,0.1-1.3,0.1c-1.7,0-2.6-0.9-2.6-2.7v-5.3h-1.6v-1.1h1.6l0.1-2.2L386,47v2.4h2
			v1.1h-2V56c0,0.9,0.5,1.4,1.4,1.4C387.8,57.4,388.1,57.3,388.5,57.3z"/>
		<path class="st2" d="M391.4,58.2H390v-8.9h1.2v2.1c0.4-1,0.9-1.6,1.3-1.9c0.4-0.3,0.9-0.4,1.3-0.4c0.1,0,0.3,0,0.5,0v1.3h-0.3
			c-0.8,0-1.4,0.3-1.9,0.9s-0.8,1.3-0.8,2.2V58.2z"/>
		<path class="st2" d="M401.8,55.6l1.3,0.3c-0.2,0.8-0.7,1.4-1.4,1.9s-1.5,0.7-2.4,0.7c-1.2,0-2.2-0.4-2.9-1.3
			c-0.8-0.9-1.1-2-1.1-3.4c0-1.4,0.4-2.6,1.2-3.4s1.8-1.3,2.9-1.3c1.2,0,2.1,0.4,2.8,1.2s1.1,2,1.1,3.6h-6.5c0,1.3,0.3,2.2,0.8,2.7
			s1.2,0.7,1.8,0.7C400.6,57.3,401.4,56.7,401.8,55.6z M401.7,52.9c0-0.5-0.1-0.9-0.2-1.3s-0.4-0.7-0.8-1c-0.4-0.3-0.8-0.4-1.3-0.4
			c-0.7,0-1.3,0.2-1.7,0.7s-0.7,1.2-0.8,2H401.7z"/>
		<path class="st2" d="M417.9,57v1.2h-8.5V57c3.4-2.5,5.4-4.2,6-5c0.6-0.8,1-1.6,1-2.4c0-0.7-0.3-1.3-0.8-1.8s-1.2-0.7-1.9-0.7
			c-0.7,0-1.4,0.2-1.9,0.7c-0.6,0.5-0.9,1.2-0.9,2l-1.4-0.4c0.6-2.3,2-3.5,4.3-3.5c1.2,0,2.2,0.4,3,1.1s1.2,1.6,1.2,2.6
			c0,0.7-0.2,1.4-0.5,2s-1.1,1.4-2.1,2.3s-2.3,1.9-4,3H417.9z"/>
		<path class="st2" d="M424.3,58.5c-1.4,0-2.5-0.6-3.3-1.8s-1.2-2.7-1.2-4.5c0-1.7,0.4-3.2,1.2-4.4c0.8-1.2,1.9-1.8,3.3-1.8
			c1.5,0,2.6,0.6,3.4,1.9c0.8,1.3,1.2,2.7,1.2,4.4c0,1.7-0.4,3.1-1.2,4.3S425.7,58.5,424.3,58.5z M424.3,57.3c1,0,1.8-0.5,2.3-1.4
			c0.5-0.9,0.7-2.1,0.7-3.5c0-1.5-0.2-2.8-0.7-3.8s-1.3-1.5-2.3-1.5c-1,0-1.7,0.5-2.2,1.4s-0.7,2.1-0.7,3.6c0,1.6,0.3,2.8,0.8,3.7
			C422.5,56.8,423.3,57.3,424.3,57.3z"/>
		<path class="st2" d="M434.8,58.5c-1.4,0-2.5-0.6-3.3-1.8s-1.2-2.7-1.2-4.5c0-1.7,0.4-3.2,1.2-4.4c0.8-1.2,1.9-1.8,3.3-1.8
			c1.5,0,2.6,0.6,3.4,1.9c0.8,1.3,1.2,2.7,1.2,4.4c0,1.7-0.4,3.1-1.2,4.3S436.3,58.5,434.8,58.5z M434.9,57.3c1,0,1.8-0.5,2.3-1.4
			c0.5-0.9,0.7-2.1,0.7-3.5c0-1.5-0.2-2.8-0.7-3.8s-1.3-1.5-2.3-1.5c-1,0-1.7,0.5-2.2,1.4s-0.7,2.1-0.7,3.6c0,1.6,0.3,2.8,0.8,3.7
			C433.1,56.8,433.9,57.3,434.9,57.3z"/>
		<path class="st2" d="M443.6,52c-1.5-0.7-2.3-1.6-2.3-2.9c0-0.9,0.4-1.7,1.1-2.3s1.8-0.9,3-0.9c1.2,0,2.2,0.3,2.9,0.8
			c0.7,0.6,1.1,1.3,1.1,2.2c0,1.3-0.8,2.2-2.3,2.7c1.3,0.6,2,1.1,2.4,1.7s0.5,1.1,0.5,1.6c0,1-0.4,1.8-1.2,2.4c-0.8,0.6-1.9,1-3.3,1
			c-1.5,0-2.7-0.3-3.5-1c-0.8-0.7-1.2-1.4-1.2-2.4C440.8,53.8,441.7,52.7,443.6,52z M445.3,52.6c-2,0.5-3,1.3-3,2.5
			c0,0.6,0.3,1.2,0.8,1.6c0.6,0.4,1.4,0.6,2.4,0.6c0.9,0,1.6-0.2,2.2-0.6s0.8-0.9,0.8-1.5C448.5,54.1,447.5,53.2,445.3,52.6z
			 M445.4,51.2c1-0.3,1.7-0.6,2.1-0.9s0.6-0.8,0.6-1.3c0-0.6-0.2-1.1-0.7-1.4s-1.1-0.5-2-0.5c-0.8,0-1.4,0.2-1.9,0.5
			c-0.5,0.3-0.7,0.8-0.7,1.4c0,0.6,0.3,1,0.8,1.5S444.8,51.1,445.4,51.2z"/>
		<path class="st2" d="M462.6,49.3l-3.6,9.9c-0.5,1.4-1.3,2.1-2.5,2.1c-0.4,0-0.8-0.1-1.2-0.2v-1.1c0.4,0.1,0.7,0.1,0.9,0.1
			c0.4,0,0.8-0.1,1.1-0.4s0.6-0.9,0.9-1.8l-3.1-8.7h1.4L459,56l2.4-6.7H462.6z"/>
		<path class="st2" d="M476.6,57v1.2h-8.5V57c3.4-2.5,5.4-4.2,6-5c0.6-0.8,1-1.6,1-2.4c0-0.7-0.3-1.3-0.8-1.8s-1.2-0.7-1.9-0.7
			c-0.7,0-1.4,0.2-1.9,0.7c-0.6,0.5-0.9,1.2-0.9,2l-1.4-0.4c0.6-2.3,2-3.5,4.3-3.5c1.2,0,2.2,0.4,3,1.1s1.2,1.6,1.2,2.6
			c0,0.7-0.2,1.4-0.5,2s-1.1,1.4-2.1,2.3s-2.3,1.9-4,3H476.6z"/>
		<path class="st2" d="M483,58.5c-1.4,0-2.5-0.6-3.3-1.8s-1.2-2.7-1.2-4.5c0-1.7,0.4-3.2,1.2-4.4c0.8-1.2,1.9-1.8,3.3-1.8
			c1.5,0,2.6,0.6,3.4,1.9c0.8,1.3,1.2,2.7,1.2,4.4c0,1.7-0.4,3.1-1.2,4.3S484.4,58.5,483,58.5z M483,57.3c1,0,1.8-0.5,2.3-1.4
			c0.5-0.9,0.7-2.1,0.7-3.5c0-1.5-0.2-2.8-0.7-3.8s-1.3-1.5-2.3-1.5c-1,0-1.7,0.5-2.2,1.4s-0.7,2.1-0.7,3.6c0,1.6,0.3,2.8,0.8,3.7
			C481.2,56.8,482,57.3,483,57.3z"/>
		<path class="st2" d="M497.7,57v1.2h-8.5V57c3.4-2.5,5.4-4.2,6-5c0.6-0.8,1-1.6,1-2.4c0-0.7-0.3-1.3-0.8-1.8s-1.2-0.7-1.9-0.7
			c-0.7,0-1.4,0.2-1.9,0.7c-0.6,0.5-0.9,1.2-0.9,2l-1.4-0.4c0.6-2.3,2-3.5,4.3-3.5c1.2,0,2.2,0.4,3,1.1s1.2,1.6,1.2,2.6
			c0,0.7-0.2,1.4-0.5,2s-1.1,1.4-2.1,2.3s-2.3,1.9-4,3H497.7z"/>
		<path class="st2" d="M504.1,58.5c-1.4,0-2.5-0.6-3.3-1.8s-1.2-2.7-1.2-4.5c0-1.7,0.4-3.2,1.2-4.4c0.8-1.2,1.9-1.8,3.3-1.8
			c1.5,0,2.6,0.6,3.4,1.9c0.8,1.3,1.2,2.7,1.2,4.4c0,1.7-0.4,3.1-1.2,4.3S505.5,58.5,504.1,58.5z M504.1,57.3c1,0,1.8-0.5,2.3-1.4
			c0.5-0.9,0.7-2.1,0.7-3.5c0-1.5-0.2-2.8-0.7-3.8s-1.3-1.5-2.3-1.5c-1,0-1.7,0.5-2.2,1.4s-0.7,2.1-0.7,3.6c0,1.6,0.3,2.8,0.8,3.7
			C502.4,56.8,503.1,57.3,504.1,57.3z"/>
	</g>
	<line class="st3" x1="14.1" y1="99.5" x2="543.6" y2="99.5"/>
	<line class="st3" x1="20.6" y1="93" x2="20.6" y2="107"/>
	<line class="st3" x1="537.6" y1="93" x2="537.6" y2="107"/>
	<line class="st3" x1="271.9" y1="93" x2="271.9" y2="107"/>
	<g class="st1">
		<path class="st4" d="M549.3,100.8l1.6-0.5c0.4,0.7,1,1.1,1.8,1.1c0.8,0,1.4-0.4,1.9-1.1s0.7-1.8,0.7-3.1c-0.4,0.7-0.8,1.2-1.3,1.4
			s-1,0.3-1.5,0.3c-1,0-1.8-0.3-2.5-0.9s-1-1.5-1-2.5c0-1,0.3-1.9,1-2.6s1.6-1,2.8-1c1.3,0,2.4,0.4,3.2,1.3s1.2,2.2,1.2,3.9
			c0,1.7-0.4,3.1-1.2,4.2s-1.9,1.6-3.3,1.6c-0.9,0-1.6-0.2-2.2-0.6S549.5,101.4,549.3,100.8z M552.8,97.4c0.6,0,1.1-0.2,1.5-0.5
			s0.6-0.9,0.6-1.6c0-0.5-0.2-0.9-0.6-1.3s-0.9-0.6-1.5-0.6c-0.6,0-1.1,0.2-1.5,0.6s-0.6,0.9-0.6,1.4c0,0.5,0.2,1,0.5,1.4
			S552.2,97.4,552.8,97.4z"/>
		<path class="st4" d="M562.4,102.9c-1.3,0-2.3-0.5-3-1.5s-1.1-2.3-1.1-3.9c0-1.7,0.4-3,1.1-4.1s1.7-1.5,3-1.5
			c0.9,0,1.7,0.2,2.3,0.7s1.1,1.2,1.4,2s0.5,1.7,0.5,2.4c0,1.3-0.1,2.3-0.4,3.1s-0.7,1.5-1.4,2S563.4,102.9,562.4,102.9z
			 M562.4,101.4c0.5,0,1-0.2,1.3-0.5s0.6-0.8,0.7-1.4s0.2-1.4,0.2-2.5c0-0.9-0.1-1.7-0.4-2.5s-0.9-1.2-1.7-1.2c-1.4,0-2.2,1.3-2.2,4
			c0,1.2,0.2,2.2,0.5,2.9S561.6,101.4,562.4,101.4z"/>
	</g>
	<g class="st1">
		<path class="st4" d="M4.7,102.9c-1.3,0-2.3-0.5-3-1.5c-0.7-1-1.1-2.3-1.1-3.9c0-1.7,0.4-3,1.1-4.1s1.7-1.5,3-1.5
			c0.9,0,1.7,0.2,2.3,0.7c0.6,0.5,1.1,1.2,1.4,2s0.5,1.7,0.5,2.4c0,1.3-0.1,2.3-0.4,3.1c-0.3,0.8-0.7,1.5-1.4,2S5.6,102.9,4.7,102.9
			z M4.7,101.4c0.5,0,1-0.2,1.3-0.5c0.3-0.3,0.6-0.8,0.7-1.4c0.1-0.6,0.2-1.4,0.2-2.5c0-0.9-0.1-1.7-0.4-2.5
			c-0.3-0.8-0.9-1.2-1.7-1.2c-1.4,0-2.2,1.3-2.2,4c0,1.2,0.2,2.2,0.5,2.9C3.3,101,3.9,101.4,4.7,101.4z"/>
	</g>
	<g class="st1">
		<path class="st4" d="M268,89.5h-2v-2.4h-4.7v-1.4l4.7-7.1h2v6.8h1.6v1.6H268V89.5z M266.2,80.6l-3,4.8h2.9v-2.9c0-0.3,0-0.6,0-0.8
			L266.2,80.6z"/>
		<path class="st4" d="M271.8,78.8h6.6l-0.2,1.6h-5.1l-0.3,3.1c0.6-0.8,1.5-1.2,2.5-1.2c1,0,1.9,0.4,2.6,1.1s1.1,1.5,1.1,2.5
			c0,1-0.4,1.9-1.1,2.6s-1.8,1.1-3,1.1c-1,0-1.9-0.2-2.7-0.7s-1.3-1.2-1.5-2.2l1.8-0.3c0.4,1.1,1.1,1.6,2.2,1.6
			c0.7,0,1.2-0.2,1.6-0.6s0.6-0.9,0.6-1.5c0-0.6-0.2-1.1-0.6-1.5s-0.9-0.6-1.5-0.6c-0.9,0-1.6,0.4-2.1,1.2l-1.7-0.3L271.8,78.8z"/>
	</g>
	<polyline class="st0" points="316.4,121.8 316.4,128.6 354.4,128.6 354.4,121.8 	"/>
	<g class="st1">
		<path class="st2" d="M208.4,151.8v1.3h-7.8v-12h7.6v1.3h-6.1v3.8h4.8v1.2h-4.8v4.3H208.4z"/>
		<path class="st2" d="M211.7,153.1h-1.4v-12h1.4V153.1z"/>
		<path class="st2" d="M224.2,150l1.2,0.2c-0.2,1-0.6,1.8-1.2,2.3c-0.6,0.6-1.4,0.8-2.3,0.8c-1.2,0-2.2-0.5-2.8-1.4s-1-2-1-3.3
			c0-1.3,0.3-2.5,1-3.4s1.6-1.3,2.8-1.3c1,0,1.7,0.3,2.3,0.9c0.6,0.6,0.9,1.3,1.1,2.2l-1.2,0.2c-0.2-1.5-0.9-2.2-2.1-2.2
			c-0.8,0-1.3,0.3-1.8,1c-0.4,0.6-0.6,1.5-0.6,2.5c0,1.1,0.2,2,0.6,2.6c0.4,0.6,1,0.9,1.7,0.9C223.2,152.2,223.9,151.5,224.2,150z"
			/>
		<path class="st2" d="M230.6,153.3c-1.2,0-2.2-0.5-2.9-1.4s-1-2-1-3.4c0-1.4,0.4-2.5,1.2-3.4s1.7-1.3,2.9-1.3
			c1.2,0,2.2,0.4,2.9,1.3s1.1,2,1.1,3.3c0,1.4-0.4,2.5-1.1,3.4S231.8,153.3,230.6,153.3z M230.7,152.2c0.7,0,1.3-0.3,1.8-0.9
			s0.7-1.5,0.7-2.7c0-1.2-0.2-2.1-0.7-2.7c-0.5-0.6-1.1-0.8-1.7-0.8c-0.7,0-1.3,0.3-1.7,0.8s-0.7,1.4-0.7,2.7c0,1.3,0.2,2.2,0.7,2.8
			C229.4,151.9,230,152.2,230.7,152.2z"/>
		<path class="st2" d="M243.7,153.1h-1.3v-5.7c0-0.8-0.2-1.4-0.5-1.7s-0.8-0.5-1.3-0.5c-0.7,0-1.3,0.3-1.8,0.8s-0.7,1.3-0.7,2.2v4.9
			h-1.4v-8.9h1.3v1.6c0.7-1.3,1.7-1.9,2.8-1.9c0.7,0,1.2,0.2,1.7,0.5c0.5,0.3,0.8,0.7,1,1.2s0.3,1.2,0.3,2.3V153.1z"/>
		<path class="st2" d="M245.3,150.8l1.3-0.3c0.3,1.1,1.2,1.7,2.8,1.7c0.6,0,1.1-0.1,1.5-0.4c0.4-0.3,0.6-0.6,0.6-1.1
			c0-0.7-0.5-1.1-1.5-1.3l-1.9-0.4c-0.7-0.1-1.3-0.4-1.7-0.8s-0.7-1-0.7-1.6c0-0.7,0.3-1.4,0.9-1.9c0.6-0.5,1.4-0.8,2.4-0.8
			c1.9,0,3.1,0.8,3.6,2.3l-1.3,0.3c-0.4-0.9-1.1-1.4-2.2-1.4c-0.6,0-1,0.1-1.4,0.3s-0.5,0.6-0.5,1c0,0.7,0.5,1.1,1.4,1.2l1.7,0.3
			c1.8,0.3,2.7,1.2,2.7,2.6c0,0.8-0.3,1.5-1,2s-1.6,0.8-2.7,0.8C247.1,153.3,245.8,152.5,245.3,150.8z"/>
		<path class="st2" d="M261.8,153.1h-1.2v-1.7c-0.6,1.3-1.6,1.9-2.8,1.9c-0.9,0-1.6-0.3-2.1-0.9c-0.5-0.6-0.8-1.4-0.8-2.6v-5.7h1.4
			v5.7c0,0.9,0.2,1.5,0.5,1.8s0.8,0.5,1.2,0.5c0.4,0,0.8-0.1,1.2-0.4s0.7-0.6,0.9-1.1c0.2-0.5,0.4-1,0.4-1.5v-5h1.4V153.1z"/>
		<path class="st2" d="M276.5,153.1h-1.3v-5.5c0-0.6,0-1-0.1-1.3c-0.1-0.3-0.3-0.5-0.6-0.8c-0.3-0.2-0.6-0.4-1-0.4
			c-0.5,0-1,0.2-1.5,0.7c-0.5,0.5-0.7,1.2-0.7,2.2v5h-1.3v-5.8c0-0.8-0.2-1.3-0.6-1.7s-0.8-0.5-1.2-0.5c-0.6,0-1.1,0.3-1.5,0.8
			s-0.7,1.1-0.7,1.9v5.3h-1.3v-8.9h1.2v1.7c0.7-1.3,1.6-2,2.7-2c0.6,0,1.2,0.2,1.6,0.6s0.7,0.9,0.9,1.5c0.6-1.4,1.5-2.1,2.8-2.1
			c0.6,0,1.1,0.2,1.6,0.5s0.8,0.7,0.9,1.2c0.1,0.4,0.2,1.1,0.2,1.9V153.1z"/>
		<path class="st2" d="M282.4,153.3c-1.2,0-2.2-0.5-2.9-1.4s-1-2-1-3.4c0-1.4,0.4-2.5,1.2-3.4s1.7-1.3,2.9-1.3
			c1.2,0,2.2,0.4,2.9,1.3c0.7,0.9,1.1,2,1.1,3.3c0,1.4-0.4,2.5-1.1,3.4S283.6,153.3,282.4,153.3z M282.5,152.2
			c0.7,0,1.3-0.3,1.8-0.9s0.7-1.5,0.7-2.7c0-1.2-0.2-2.1-0.7-2.7c-0.5-0.6-1.1-0.8-1.7-0.8c-0.7,0-1.3,0.3-1.7,0.8s-0.7,1.4-0.7,2.7
			c0,1.3,0.2,2.2,0.7,2.8C281.2,151.9,281.8,152.2,282.5,152.2z"/>
		<path class="st2" d="M300,141.1v12h-1.2v-1.5c-0.6,1.2-1.6,1.8-2.8,1.8c-1,0-1.9-0.4-2.6-1.3s-1-2-1-3.3c0-1.4,0.3-2.5,1-3.4
			s1.5-1.4,2.6-1.4c1.1,0,1.9,0.5,2.6,1.5v-4.3H300z M298.6,147.7c0-0.8-0.2-1.4-0.7-1.9s-1-0.7-1.7-0.7c-0.7,0-1.3,0.3-1.7,0.9
			s-0.7,1.5-0.7,2.6c0,1.2,0.2,2.1,0.6,2.7s1,0.9,1.7,0.9c0.6,0,1.2-0.3,1.7-0.8s0.7-1.2,0.7-1.9V147.7z"/>
		<path class="st2" d="M308.6,150.5l1.3,0.3c-0.2,0.8-0.7,1.4-1.4,1.9s-1.5,0.7-2.4,0.7c-1.2,0-2.2-0.4-2.9-1.3
			c-0.8-0.9-1.1-2-1.1-3.4c0-1.4,0.4-2.6,1.2-3.4s1.8-1.3,2.9-1.3c1.2,0,2.1,0.4,2.8,1.2s1.1,2,1.1,3.6h-6.5c0,1.3,0.3,2.2,0.8,2.7
			s1.2,0.7,1.8,0.7C307.4,152.2,308.2,151.6,308.6,150.5z M308.6,147.8c0-0.5-0.1-0.9-0.2-1.3s-0.4-0.7-0.8-1
			c-0.4-0.3-0.8-0.4-1.3-0.4c-0.7,0-1.3,0.2-1.7,0.7s-0.7,1.2-0.8,2H308.6z"/>
	</g>
	<g class="st1">
		<path class="st2" d="M324.1,153.1h-1.9c-0.2-0.5-0.3-1.1-0.3-1.8c-0.5,1.3-1.5,2-3,2c-0.9,0-1.6-0.3-2.1-0.8
			c-0.5-0.5-0.8-1.2-0.8-2c0-2,1.8-3.1,5.4-3.1c0.1,0,0.3,0,0.6,0v-0.7c0-0.9-0.6-1.4-1.9-1.4c-1.2,0-1.9,0.5-2.1,1.4l-1.7-0.3
			c0.1-0.7,0.5-1.3,1.1-1.8c0.7-0.5,1.6-0.7,2.9-0.7c0.7,0,1.2,0.1,1.7,0.2c0.4,0.1,0.8,0.3,1.1,0.6c0.3,0.3,0.5,0.6,0.6,0.9
			s0.2,0.9,0.2,1.6v4C323.8,151.9,323.9,152.5,324.1,153.1z M321.9,148.6c-2.6,0-3.9,0.6-3.9,1.9c0,0.4,0.1,0.7,0.4,0.9
			c0.3,0.3,0.7,0.4,1.2,0.4c0.8,0,1.3-0.2,1.7-0.7c0.4-0.5,0.6-1,0.6-1.6V148.6z"/>
		<path class="st2" d="M333.6,153.1h-2v-5.5c0-0.6-0.1-1-0.4-1.3c-0.3-0.3-0.6-0.4-1-0.4c-0.5,0-1,0.2-1.4,0.7s-0.6,1.1-0.6,2.1v4.6
			h-2v-8.9h1.8v2.1c0.6-1.5,1.5-2.2,2.7-2.2c0.8,0,1.4,0.2,2,0.7s0.8,1.4,0.8,2.6V153.1z"/>
		<path class="st2" d="M340.1,151.5v1.6c-0.6,0.1-1.1,0.2-1.4,0.2c-0.5,0-1-0.1-1.4-0.3c-0.4-0.2-0.7-0.5-0.8-0.9s-0.3-0.9-0.3-1.7
			v-4.6h-1.1v-1.6h1.2l0.2-2.3l1.6-0.1v2.5h1.8v1.6h-1.8v4.3c0,0.6,0.1,0.9,0.3,1.1c0.2,0.2,0.6,0.3,1.1,0.3
			C339.7,151.6,339.9,151.5,340.1,151.5z"/>
		<path class="st2" d="M343.8,143.2h-2v-2.1h2V143.2z M343.8,153.1h-2v-8.9h2V153.1z"/>
		<path class="st2" d="M353.5,153.1h-1.9v-1.8c-0.5,1.3-1.4,2-2.6,2c-1.1,0-1.9-0.5-2.5-1.4s-0.9-2-0.9-3.4c0-1.3,0.3-2.3,0.9-3.3
			s1.5-1.4,2.6-1.4c1.1,0,1.9,0.5,2.4,1.6v-4.3h2V153.1z M351.5,147.9c0-0.7-0.2-1.3-0.5-1.7c-0.3-0.4-0.8-0.6-1.3-0.6
			c-0.6,0-1.1,0.3-1.4,0.8s-0.5,1.3-0.5,2.3c0,2,0.6,3,1.9,3c0.5,0,0.9-0.2,1.3-0.6c0.4-0.4,0.6-1,0.6-1.6V147.9z"/>
		<path class="st2" d="M361.5,150.3l1.8,0.2c-0.2,0.8-0.7,1.5-1.4,2s-1.5,0.8-2.6,0.8c-1.2,0-2.2-0.4-3-1.2s-1.1-1.9-1.1-3.4
			c0-1.3,0.4-2.5,1.1-3.3s1.8-1.3,3.1-1.3c1.3,0,2.2,0.4,2.9,1.3s1,2,1,3.3l0,0.2h-6.1c0,0.6,0.1,1.1,0.2,1.5s0.3,0.7,0.7,0.9
			s0.8,0.4,1.3,0.4C360.5,151.7,361.2,151.2,361.5,150.3z M361.4,147.6c0-0.6-0.2-1.2-0.6-1.6s-0.8-0.6-1.4-0.6
			c-0.6,0-1,0.2-1.4,0.6c-0.4,0.4-0.6,0.9-0.7,1.6H361.4z"/>
		<path class="st2" d="M367.3,156.1h-2v-11.9h1.9v1.5c0.6-1.2,1.5-1.7,2.7-1.7c1,0,1.8,0.4,2.4,1.3s0.9,1.9,0.9,3.3
			c0,1.3-0.3,2.4-0.8,3.3s-1.4,1.4-2.5,1.4c-1.1,0-2-0.5-2.5-1.4V156.1z M367.3,149.5c0,0.6,0.2,1.2,0.6,1.6
			c0.4,0.4,0.8,0.6,1.3,0.6c0.6,0,1.1-0.3,1.4-0.8s0.4-1.3,0.4-2.1c0-0.9-0.1-1.6-0.4-2.2c-0.3-0.6-0.7-0.8-1.3-0.8
			c-0.5,0-1,0.2-1.4,0.7s-0.6,1.1-0.6,1.8V149.5z"/>
		<path class="st2" d="M377,153.1h-2v-8.9h1.8v2.1c0.3-0.8,0.6-1.4,1.1-1.8s0.9-0.6,1.4-0.6c0.1,0,0.2,0,0.3,0v2.2c-1,0-1.7,0.3-2,1
			s-0.5,1.3-0.5,1.9V153.1z"/>
		<path class="st2" d="M386.6,150.3l1.8,0.2c-0.2,0.8-0.7,1.5-1.4,2s-1.5,0.8-2.6,0.8c-1.2,0-2.2-0.4-3-1.2s-1.1-1.9-1.1-3.4
			c0-1.3,0.4-2.5,1.1-3.3s1.8-1.3,3.1-1.3c1.3,0,2.2,0.4,2.9,1.3s1,2,1,3.3l0,0.2h-6.1c0,0.6,0.1,1.1,0.2,1.5s0.3,0.7,0.7,0.9
			s0.8,0.4,1.3,0.4C385.6,151.7,386.3,151.2,386.6,150.3z M386.5,147.6c0-0.6-0.2-1.2-0.6-1.6s-0.8-0.6-1.4-0.6
			c-0.6,0-1,0.2-1.4,0.6c-0.4,0.4-0.6,0.9-0.7,1.6H386.5z"/>
		<path class="st2" d="M389.3,151.1l1.9-0.4c0.3,0.7,0.9,1.1,1.9,1.1c1.2,0,1.9-0.4,1.9-1.1c0-0.2-0.1-0.4-0.3-0.6s-0.4-0.3-0.7-0.3
			l-1.6-0.3c-1.8-0.3-2.7-1.2-2.7-2.6c0-0.8,0.3-1.5,0.9-2c0.6-0.5,1.4-0.8,2.5-0.8c1.9,0,3,0.7,3.4,2.1l-1.8,0.4
			c-0.2-0.7-0.7-1-1.6-1c-1.1,0-1.6,0.3-1.6,1c0,0.5,0.4,0.8,1.3,1l1.9,0.4c1.5,0.3,2.2,1.2,2.2,2.5c0,1-0.4,1.7-1.1,2.2
			c-0.8,0.5-1.7,0.7-2.7,0.7c-0.9,0-1.7-0.2-2.4-0.5C390,152.4,389.5,151.8,389.3,151.1z"/>
		<path class="st2" d="M400.6,143.2h-2v-2.1h2V143.2z M400.6,153.1h-2v-8.9h2V153.1z"/>
	</g>
	<g class="st1">
		<path class="st2" d="M409.7,144.2l-3,8.9H405l-3.1-8.9h2.1l2.1,6l2-6H409.7z"/>
	</g>
	<g class="st1">
		<path class="st2" d="M414.2,153.3c-1.3,0-2.3-0.5-3-1.4s-1-2-1-3.2c0-1.3,0.4-2.4,1.1-3.3s1.8-1.3,3-1.3c1.2,0,2.2,0.4,2.9,1.3
			s1.1,2,1.1,3.3c0,1.4-0.4,2.5-1.2,3.4C416.5,152.9,415.5,153.3,414.2,153.3z M414.3,151.6c1.3,0,2-1,2-3c0-0.9-0.2-1.6-0.5-2.1
			s-0.8-0.8-1.5-0.8c-0.7,0-1.2,0.3-1.5,0.8c-0.3,0.5-0.5,1.3-0.5,2.2c0,1,0.2,1.7,0.5,2.2S413.7,151.6,414.3,151.6z"/>
		<path class="st2" d="M419.2,151.1l1.9-0.4c0.3,0.7,0.9,1.1,1.9,1.1c1.2,0,1.9-0.4,1.9-1.1c0-0.2-0.1-0.4-0.3-0.6s-0.4-0.3-0.7-0.3
			l-1.6-0.3c-1.8-0.3-2.7-1.2-2.7-2.6c0-0.8,0.3-1.5,0.9-2c0.6-0.5,1.4-0.8,2.5-0.8c1.9,0,3,0.7,3.4,2.1l-1.8,0.4
			c-0.2-0.7-0.7-1-1.6-1c-1.1,0-1.6,0.3-1.6,1c0,0.5,0.4,0.8,1.3,1l1.9,0.4c1.5,0.3,2.2,1.2,2.2,2.5c0,1-0.4,1.7-1.1,2.2
			c-0.8,0.5-1.7,0.7-2.7,0.7c-0.9,0-1.7-0.2-2.4-0.5C419.9,152.4,419.4,151.8,419.2,151.1z"/>
	</g>
	<g class="st1">
		<path class="st2" d="M439,150.5l1.3,0.3c-0.2,0.8-0.7,1.4-1.4,1.9s-1.5,0.7-2.4,0.7c-1.2,0-2.2-0.4-2.9-1.3
			c-0.8-0.9-1.1-2-1.1-3.4c0-1.4,0.4-2.6,1.2-3.4s1.8-1.3,2.9-1.3c1.2,0,2.1,0.4,2.8,1.2s1.1,2,1.1,3.6H434c0,1.3,0.3,2.2,0.8,2.7
			s1.2,0.7,1.8,0.7C437.7,152.2,438.5,151.6,439,150.5z M438.9,147.8c0-0.5-0.1-0.9-0.2-1.3s-0.4-0.7-0.8-1
			c-0.4-0.3-0.8-0.4-1.3-0.4c-0.7,0-1.3,0.2-1.7,0.7s-0.7,1.2-0.8,2H438.9z"/>
		<path class="st2" d="M449.5,153.1h-1.3v-5.7c0-0.8-0.2-1.4-0.5-1.7s-0.8-0.5-1.3-0.5c-0.7,0-1.3,0.3-1.8,0.8s-0.7,1.3-0.7,2.2v4.9
			h-1.4v-8.9h1.3v1.6c0.7-1.3,1.7-1.9,2.8-1.9c0.7,0,1.2,0.2,1.7,0.5c0.5,0.3,0.8,0.7,1,1.2s0.3,1.2,0.3,2.3V153.1z"/>
	</g>
	<g class="st1">
		<path class="st2" d="M462.6,150.5l1.3,0.3c-0.2,0.8-0.7,1.4-1.4,1.9s-1.5,0.7-2.4,0.7c-1.2,0-2.2-0.4-2.9-1.3
			c-0.8-0.9-1.1-2-1.1-3.4c0-1.4,0.4-2.6,1.2-3.4s1.8-1.3,2.9-1.3c1.2,0,2.1,0.4,2.8,1.2s1.1,2,1.1,3.6h-6.5c0,1.3,0.3,2.2,0.8,2.7
			s1.2,0.7,1.8,0.7C461.4,152.2,462.2,151.6,462.6,150.5z M462.5,147.8c0-0.5-0.1-0.9-0.2-1.3s-0.4-0.7-0.8-1
			c-0.4-0.3-0.8-0.4-1.3-0.4c-0.7,0-1.3,0.2-1.7,0.7s-0.7,1.2-0.8,2H462.5z"/>
		<path class="st2" d="M467.5,153.1h-1.4v-12h1.4V153.1z"/>
	</g>
	<g class="st1">
		<path class="st2" d="M202.3,174.7h-2v-8.9h1.8v2.1c0.3-0.8,0.6-1.4,1.1-1.8s0.9-0.6,1.4-0.6c0.1,0,0.2,0,0.3,0v2.2
			c-1,0-1.7,0.3-2,1s-0.5,1.3-0.5,1.9V174.7z"/>
		<path class="st2" d="M211.9,171.9l1.8,0.2c-0.2,0.8-0.7,1.5-1.4,2s-1.5,0.8-2.6,0.8c-1.2,0-2.2-0.4-3-1.2s-1.1-1.9-1.1-3.4
			c0-1.3,0.4-2.5,1.1-3.3s1.8-1.3,3.1-1.3c1.3,0,2.2,0.4,2.9,1.3s1,2,1,3.3l0,0.2h-6.1c0,0.6,0.1,1.1,0.2,1.5s0.3,0.7,0.7,0.9
			s0.8,0.4,1.3,0.4C210.9,173.3,211.6,172.8,211.9,171.9z M211.8,169.2c0-0.6-0.2-1.2-0.6-1.6s-0.8-0.6-1.4-0.6
			c-0.6,0-1,0.2-1.4,0.6c-0.4,0.4-0.6,0.9-0.7,1.6H211.8z"/>
		<path class="st2" d="M214.7,172.7l1.9-0.4c0.3,0.7,0.9,1.1,1.9,1.1c1.2,0,1.9-0.4,1.9-1.1c0-0.2-0.1-0.4-0.3-0.6s-0.4-0.3-0.7-0.3
			l-1.6-0.3c-1.8-0.3-2.7-1.2-2.7-2.6c0-0.8,0.3-1.5,0.9-2c0.6-0.5,1.4-0.8,2.5-0.8c1.9,0,3,0.7,3.4,2.1l-1.8,0.4
			c-0.2-0.7-0.7-1-1.6-1c-1.1,0-1.6,0.3-1.6,1c0,0.5,0.4,0.8,1.3,1l1.9,0.4c1.5,0.3,2.2,1.2,2.2,2.5c0,1-0.4,1.7-1.1,2.2
			c-0.8,0.5-1.7,0.7-2.7,0.7c-0.9,0-1.7-0.2-2.4-0.5C215.3,174,214.9,173.4,214.7,172.7z"/>
	</g>
	<g class="st1">
		<path class="st2" d="M228,173.1v1.6c-0.6,0.1-1.1,0.2-1.4,0.2c-0.5,0-1-0.1-1.4-0.3c-0.4-0.2-0.7-0.5-0.8-0.9s-0.3-0.9-0.3-1.7
			v-4.6H223v-1.6h1.2l0.2-2.3l1.6-0.1v2.5h1.8v1.6h-1.8v4.3c0,0.6,0.1,0.9,0.3,1.1c0.2,0.2,0.6,0.3,1.1,0.3
			C227.7,173.2,227.8,173.1,228,173.1z"/>
	</g>
	<g class="st1">
		<path class="st2" d="M232.9,174.9c-1.3,0-2.3-0.5-3-1.4s-1-2-1-3.2c0-1.3,0.4-2.4,1.1-3.3s1.8-1.3,3-1.3c1.2,0,2.2,0.4,2.9,1.3
			s1.1,2,1.1,3.3c0,1.4-0.4,2.5-1.2,3.4C235.1,174.5,234.1,174.9,232.9,174.9z M232.9,173.2c1.3,0,2-1,2-3c0-0.9-0.2-1.6-0.5-2.1
			s-0.8-0.8-1.5-0.8c-0.7,0-1.2,0.3-1.5,0.8c-0.3,0.5-0.5,1.3-0.5,2.2c0,1,0.2,1.7,0.5,2.2S232.3,173.2,232.9,173.2z"/>
		<path class="st2" d="M250.7,174.7h-1.9v-1.8c-0.5,1.3-1.4,2-2.6,2c-1.1,0-1.9-0.5-2.5-1.4s-0.9-2-0.9-3.4c0-1.3,0.3-2.3,0.9-3.3
			s1.5-1.4,2.6-1.4c1.1,0,1.9,0.5,2.4,1.6v-4.3h2V174.7z M248.7,169.5c0-0.7-0.2-1.3-0.5-1.7c-0.3-0.4-0.8-0.6-1.3-0.6
			c-0.6,0-1.1,0.3-1.4,0.8s-0.5,1.3-0.5,2.3c0,2,0.6,3,1.9,3c0.5,0,0.9-0.2,1.3-0.6c0.4-0.4,0.6-1,0.6-1.6V169.5z"/>
		<path class="st2" d="M258.7,171.9l1.8,0.2c-0.2,0.8-0.7,1.5-1.4,2s-1.5,0.8-2.6,0.8c-1.2,0-2.2-0.4-3-1.2s-1.1-1.9-1.1-3.4
			c0-1.3,0.4-2.5,1.1-3.3s1.8-1.3,3.1-1.3c1.3,0,2.2,0.4,2.9,1.3s1,2,1,3.3l0,0.2h-6.1c0,0.6,0.1,1.1,0.2,1.5s0.3,0.7,0.7,0.9
			s0.8,0.4,1.3,0.4C257.7,173.3,258.4,172.8,258.7,171.9z M258.6,169.2c0-0.6-0.2-1.2-0.6-1.6s-0.8-0.6-1.4-0.6
			c-0.6,0-1,0.2-1.4,0.6c-0.4,0.4-0.6,0.9-0.7,1.6H258.6z"/>
		<path class="st2" d="M269,174.7h-2v-12h2V174.7z"/>
		<path class="st2" d="M279,174.7h-1.9c-0.2-0.5-0.3-1.1-0.3-1.8c-0.5,1.3-1.5,2-3,2c-0.9,0-1.6-0.3-2.1-0.8c-0.5-0.5-0.8-1.2-0.8-2
			c0-2,1.8-3.1,5.4-3.1c0.1,0,0.3,0,0.6,0v-0.7c0-0.9-0.6-1.4-1.9-1.4c-1.2,0-1.9,0.5-2.1,1.4l-1.7-0.3c0.1-0.7,0.5-1.3,1.1-1.8
			c0.7-0.5,1.6-0.7,2.9-0.7c0.7,0,1.2,0.1,1.7,0.2c0.4,0.1,0.8,0.3,1.1,0.6c0.3,0.3,0.5,0.6,0.6,0.9s0.2,0.9,0.2,1.6v4
			C278.8,173.5,278.9,174.1,279,174.7z M276.8,170.2c-2.6,0-3.9,0.6-3.9,1.9c0,0.4,0.1,0.7,0.4,0.9c0.3,0.3,0.7,0.4,1.2,0.4
			c0.8,0,1.3-0.2,1.7-0.7c0.4-0.5,0.6-1,0.6-1.6V170.2z"/>
		<path class="st2" d="M290.2,174.9c-1.6,0-2.8-0.6-3.7-1.8s-1.3-2.7-1.3-4.4c0-1.7,0.5-3.2,1.4-4.4c0.9-1.2,2.2-1.8,3.7-1.8
			c1.6,0,2.8,0.6,3.7,1.8c0.9,1.2,1.4,2.6,1.4,4.4c0,1.9-0.5,3.3-1.4,4.5C293,174.3,291.8,174.9,290.2,174.9z M290.2,173.1
			c0.8,0,1.4-0.3,2-1s0.8-1.8,0.8-3.5c0-1.4-0.2-2.5-0.7-3.2c-0.4-0.8-1.1-1.2-2.1-1.2c-1.9,0-2.8,1.5-2.8,4.5
			c0,1.4,0.2,2.5,0.7,3.3C288.7,172.8,289.3,173.1,290.2,173.1z"/>
		<path class="st2" d="M304.1,170.5l2,0.2c-0.1,1.2-0.6,2.2-1.4,3c-0.8,0.8-1.9,1.2-3.2,1.2c-1.1,0-2-0.3-2.7-0.8s-1.2-1.3-1.6-2.2
			s-0.6-2-0.6-3.1c0-1.8,0.4-3.3,1.3-4.5s2.1-1.7,3.6-1.7c1.2,0,2.2,0.4,3,1.1s1.3,1.8,1.5,3.1l-2,0.2c-0.4-1.8-1.2-2.7-2.4-2.7
			c-0.8,0-1.4,0.4-1.9,1.1c-0.4,0.8-0.7,1.8-0.7,3.3c0,1.5,0.2,2.6,0.7,3.3s1.1,1.1,1.9,1.1c0.6,0,1.2-0.2,1.6-0.7
			S304,171.2,304.1,170.5z"/>
		<path class="st2" d="M307.7,174.7v-12h4.4c1.6,0,2.9,0.6,3.9,1.7c1,1.2,1.5,2.6,1.5,4.3s-0.5,3.1-1.5,4.3s-2.5,1.7-4.4,1.7H307.7z
			 M310,172.9h1.8c1,0,1.8-0.4,2.5-1.1s1-1.8,1-3.2c0-1.2-0.3-2.2-0.9-3s-1.4-1.2-2.3-1.2H310V172.9z"/>
		<path class="st2" d="M327.4,174.7h-7.8v-12h7.7v1.8h-5.6v3.3h4.5v1.7h-4.5v3.4h5.6V174.7z"/>
	</g>
	<g class="st1">
		<path class="st2" d="M332.6,172.4l1.3-0.3c0.3,1.1,1.2,1.7,2.8,1.7c0.6,0,1.1-0.1,1.5-0.4c0.4-0.3,0.6-0.6,0.6-1.1
			c0-0.7-0.5-1.1-1.5-1.3l-1.9-0.4c-0.7-0.1-1.3-0.4-1.7-0.8s-0.7-1-0.7-1.6c0-0.7,0.3-1.4,0.9-1.9c0.6-0.5,1.4-0.8,2.4-0.8
			c1.9,0,3.1,0.8,3.6,2.3l-1.3,0.3c-0.4-0.9-1.1-1.4-2.2-1.4c-0.6,0-1,0.1-1.4,0.3s-0.5,0.6-0.5,1c0,0.7,0.5,1.1,1.4,1.2l1.7,0.3
			c1.8,0.3,2.7,1.2,2.7,2.6c0,0.8-0.3,1.5-1,2s-1.6,0.8-2.7,0.8C334.4,174.9,333.1,174.1,332.6,172.4z"/>
		<path class="st2" d="M348,172.1l1.3,0.3c-0.2,0.8-0.7,1.4-1.4,1.9s-1.5,0.7-2.4,0.7c-1.2,0-2.2-0.4-2.9-1.3
			c-0.8-0.9-1.1-2-1.1-3.4c0-1.4,0.4-2.6,1.2-3.4s1.8-1.3,2.9-1.3c1.2,0,2.1,0.4,2.8,1.2s1.1,2,1.1,3.6H343c0,1.3,0.3,2.2,0.8,2.7
			s1.2,0.7,1.8,0.7C346.7,173.8,347.5,173.2,348,172.1z M347.9,169.4c0-0.5-0.1-0.9-0.2-1.3s-0.4-0.7-0.8-1
			c-0.4-0.3-0.8-0.4-1.3-0.4c-0.7,0-1.3,0.2-1.7,0.7s-0.7,1.2-0.8,2H347.9z"/>
		<path class="st2" d="M357.4,162.7v1.5h-1.5v-1.5H357.4z M357.4,165.8v8.9H356v-8.9H357.4z"/>
		<path class="st2" d="M367.1,174.7h-1.3V169c0-0.8-0.2-1.4-0.5-1.7s-0.8-0.5-1.3-0.5c-0.7,0-1.3,0.3-1.8,0.8s-0.7,1.3-0.7,2.2v4.9
			h-1.4v-8.9h1.3v1.6c0.7-1.3,1.7-1.9,2.8-1.9c0.7,0,1.2,0.2,1.7,0.5c0.5,0.3,0.8,0.7,1,1.2s0.3,1.2,0.3,2.3V174.7z"/>
		<path class="st2" d="M375.1,171.6l1.2,0.2c-0.2,1-0.6,1.8-1.2,2.3c-0.6,0.6-1.4,0.8-2.3,0.8c-1.2,0-2.2-0.5-2.8-1.4s-1-2-1-3.3
			c0-1.3,0.3-2.5,1-3.4s1.6-1.3,2.8-1.3c1,0,1.7,0.3,2.3,0.9c0.6,0.6,0.9,1.3,1.1,2.2l-1.2,0.2c-0.2-1.5-0.9-2.2-2.1-2.2
			c-0.8,0-1.3,0.3-1.8,1c-0.4,0.6-0.6,1.5-0.6,2.5c0,1.1,0.2,2,0.6,2.6c0.4,0.6,1,0.9,1.7,0.9C374.1,173.8,374.8,173.1,375.1,171.6z
			"/>
		<path class="st2" d="M379.7,174.7h-1.4v-8.9h1.2v2.1c0.4-1,0.9-1.6,1.3-1.9c0.4-0.3,0.9-0.4,1.3-0.4c0.1,0,0.3,0,0.5,0v1.3h-0.3
			c-0.8,0-1.4,0.3-1.9,0.9s-0.8,1.3-0.8,2.2V174.7z"/>
		<path class="st2" d="M390.1,172.1l1.3,0.3c-0.2,0.8-0.7,1.4-1.4,1.9s-1.5,0.7-2.4,0.7c-1.2,0-2.2-0.4-2.9-1.3
			c-0.8-0.9-1.1-2-1.1-3.4c0-1.4,0.4-2.6,1.2-3.4s1.8-1.3,2.9-1.3c1.2,0,2.1,0.4,2.8,1.2s1.1,2,1.1,3.6h-6.5c0,1.3,0.3,2.2,0.8,2.7
			s1.2,0.7,1.8,0.7C388.8,173.8,389.6,173.2,390.1,172.1z M390,169.4c0-0.5-0.1-0.9-0.2-1.3s-0.4-0.7-0.8-1
			c-0.4-0.3-0.8-0.4-1.3-0.4c-0.7,0-1.3,0.2-1.7,0.7s-0.7,1.2-0.8,2H390z"/>
		<path class="st2" d="M405.5,174.7h-1.3v-5.5c0-0.6,0-1-0.1-1.3c-0.1-0.3-0.3-0.5-0.6-0.8c-0.3-0.2-0.6-0.4-1-0.4
			c-0.5,0-1,0.2-1.5,0.7c-0.5,0.5-0.7,1.2-0.7,2.2v5h-1.3v-5.8c0-0.8-0.2-1.3-0.6-1.7s-0.8-0.5-1.2-0.5c-0.6,0-1.1,0.3-1.5,0.8
			s-0.7,1.1-0.7,1.9v5.3h-1.3v-8.9h1.2v1.7c0.7-1.3,1.6-2,2.7-2c0.6,0,1.2,0.2,1.6,0.6s0.7,0.9,0.9,1.5c0.6-1.4,1.5-2.1,2.8-2.1
			c0.6,0,1.1,0.2,1.6,0.5s0.8,0.7,0.9,1.2c0.1,0.4,0.2,1.1,0.2,1.9V174.7z"/>
		<path class="st2" d="M414.1,172.1l1.3,0.3c-0.2,0.8-0.7,1.4-1.4,1.9s-1.5,0.7-2.4,0.7c-1.2,0-2.2-0.4-2.9-1.3
			c-0.8-0.9-1.1-2-1.1-3.4c0-1.4,0.4-2.6,1.2-3.4s1.8-1.3,2.9-1.3c1.2,0,2.1,0.4,2.8,1.2s1.1,2,1.1,3.6h-6.5c0,1.3,0.3,2.2,0.8,2.7
			s1.2,0.7,1.8,0.7C412.8,173.8,413.6,173.2,414.1,172.1z M414,169.4c0-0.5-0.1-0.9-0.2-1.3s-0.4-0.7-0.8-1
			c-0.4-0.3-0.8-0.4-1.3-0.4c-0.7,0-1.3,0.2-1.7,0.7s-0.7,1.2-0.8,2H414z"/>
		<path class="st2" d="M424.6,174.7h-1.3V169c0-0.8-0.2-1.4-0.5-1.7s-0.8-0.5-1.3-0.5c-0.7,0-1.3,0.3-1.8,0.8s-0.7,1.3-0.7,2.2v4.9
			h-1.4v-8.9h1.3v1.6c0.7-1.3,1.7-1.9,2.8-1.9c0.7,0,1.2,0.2,1.7,0.5c0.5,0.3,0.8,0.7,1,1.2s0.3,1.2,0.3,2.3V174.7z"/>
		<path class="st2" d="M431.4,173.8v1.1c-0.5,0.1-0.9,0.1-1.3,0.1c-1.7,0-2.6-0.9-2.6-2.7v-5.3H426v-1.1h1.6l0.1-2.2l1.3-0.1v2.4h2
			v1.1h-2v5.6c0,0.9,0.5,1.4,1.4,1.4C430.6,173.9,431,173.8,431.4,173.8z"/>
		<path class="st2" d="M436.1,174.9c-1.2,0-2.2-0.5-2.9-1.4s-1-2-1-3.4c0-1.4,0.4-2.5,1.2-3.4s1.7-1.3,2.9-1.3
			c1.2,0,2.2,0.4,2.9,1.3s1.1,2,1.1,3.3c0,1.4-0.4,2.5-1.1,3.4S437.3,174.9,436.1,174.9z M436.2,173.8c0.7,0,1.3-0.3,1.8-0.9
			s0.7-1.5,0.7-2.7c0-1.2-0.2-2.1-0.7-2.7c-0.5-0.6-1.1-0.8-1.7-0.8c-0.7,0-1.3,0.3-1.7,0.8s-0.7,1.4-0.7,2.7c0,1.3,0.2,2.2,0.7,2.8
			C434.9,173.5,435.5,173.8,436.2,173.8z M438.8,162.8l-3.6,1.7l-0.4-0.7l3.5-2L438.8,162.8z"/>
		<path class="st2" d="M452.6,172.1l1.3,0.3c-0.2,0.8-0.7,1.4-1.4,1.9s-1.5,0.7-2.4,0.7c-1.2,0-2.2-0.4-2.9-1.3
			c-0.8-0.9-1.1-2-1.1-3.4c0-1.4,0.4-2.6,1.2-3.4s1.8-1.3,2.9-1.3c1.2,0,2.1,0.4,2.8,1.2s1.1,2,1.1,3.6h-6.5c0,1.3,0.3,2.2,0.8,2.7
			s1.2,0.7,1.8,0.7C451.3,173.8,452.1,173.2,452.6,172.1z M452.5,169.4c0-0.5-0.1-0.9-0.2-1.3s-0.4-0.7-0.8-1
			c-0.4-0.3-0.8-0.4-1.3-0.4c-0.7,0-1.3,0.2-1.7,0.7s-0.7,1.2-0.8,2H452.5z"/>
		<path class="st2" d="M463.1,174.7h-1.3V169c0-0.8-0.2-1.4-0.5-1.7s-0.8-0.5-1.3-0.5c-0.7,0-1.3,0.3-1.8,0.8s-0.7,1.3-0.7,2.2v4.9
			h-1.4v-8.9h1.3v1.6c0.7-1.3,1.7-1.9,2.8-1.9c0.7,0,1.2,0.2,1.7,0.5c0.5,0.3,0.8,0.7,1,1.2s0.3,1.2,0.3,2.3V174.7z"/>
	</g>
	<g class="st1">
		<path class="st2" d="M208.7,187l-1.8,0.4c-0.3-1.1-1-1.7-2.1-1.7c-1,0-1.7,0.4-2.1,1.3c-0.4,0.9-0.6,1.8-0.6,2.8
			c0,0.2,0,0.4,0,0.6c0.6-1.2,1.6-1.8,3.1-1.8c1.1,0,2.1,0.4,2.8,1.1s1.1,1.6,1.1,2.7c0,1.2-0.4,2.1-1.2,2.9
			c-0.8,0.8-1.8,1.2-3.1,1.2c-1.5,0-2.8-0.5-3.6-1.6s-1.3-2.6-1.3-4.5c0-1.9,0.4-3.4,1.3-4.5s2-1.7,3.5-1.7
			C206.8,184.1,208.1,185.1,208.7,187z M204.7,194.9c0.6,0,1.2-0.2,1.6-0.6s0.7-1,0.7-1.8c0-0.5-0.2-1.1-0.6-1.5s-1-0.7-1.7-0.7
			c-0.7,0-1.2,0.2-1.6,0.7s-0.6,1-0.6,1.7c0,0.7,0.2,1.2,0.6,1.6S204,194.9,204.7,194.9z"/>
		<path class="st2" d="M212.9,194.1v2l-1.4,2.8h-0.8l1-2.6h-1v-2.2H212.9z"/>
		<path class="st2" d="M223.6,187l-1.8,0.4c-0.3-1.1-1-1.7-2.1-1.7c-1,0-1.7,0.4-2.1,1.3c-0.4,0.9-0.6,1.8-0.6,2.8
			c0,0.2,0,0.4,0,0.6c0.6-1.2,1.6-1.8,3.1-1.8c1.1,0,2.1,0.4,2.8,1.1s1.1,1.6,1.1,2.7c0,1.2-0.4,2.1-1.2,2.9
			c-0.8,0.8-1.8,1.2-3.1,1.2c-1.5,0-2.8-0.5-3.6-1.6s-1.3-2.6-1.3-4.5c0-1.9,0.4-3.4,1.3-4.5s2-1.7,3.5-1.7
			C221.7,184.1,223,185.1,223.6,187z M219.6,194.9c0.6,0,1.2-0.2,1.6-0.6s0.7-1,0.7-1.8c0-0.5-0.2-1.1-0.6-1.5s-1-0.7-1.7-0.7
			c-0.7,0-1.2,0.2-1.6,0.7s-0.6,1-0.6,1.7c0,0.7,0.2,1.2,0.6,1.6S218.9,194.9,219.6,194.9z"/>
		<path class="st2" d="M226.5,184.3h7.5l-0.2,1.9h-5.7l-0.3,3.5c0.7-0.9,1.7-1.4,2.8-1.4c1.2,0,2.1,0.4,2.9,1.2s1.2,1.7,1.2,2.8
			c0,1.1-0.4,2.1-1.2,3s-2,1.2-3.4,1.2c-1.2,0-2.2-0.3-3-0.8s-1.4-1.4-1.7-2.5l2.1-0.3c0.4,1.2,1.2,1.8,2.5,1.8
			c0.8,0,1.4-0.2,1.8-0.7s0.6-1,0.6-1.7c0-0.7-0.2-1.2-0.6-1.7s-1-0.7-1.6-0.7c-1,0-1.8,0.5-2.3,1.4l-1.9-0.4L226.5,184.3z"/>
	</g>
	<g class="st1">
		<path class="st2" d="M242.4,199.3H241v-11.9h1.2v1.7c0.6-1.3,1.6-2,2.8-2c1,0,1.9,0.4,2.5,1.3s1,2,1,3.3c0,1.4-0.3,2.6-1,3.4
			s-1.5,1.3-2.5,1.3c-1.1,0-2-0.5-2.6-1.6V199.3z M242.4,190.6v2.5c0.1,0.7,0.4,1.2,0.9,1.7c0.5,0.4,1,0.7,1.5,0.7
			c0.6,0,1.1-0.3,1.6-0.8s0.7-1.4,0.7-2.7c0-1.1-0.2-2-0.6-2.6c-0.4-0.6-1-0.9-1.7-0.9c-0.6,0-1,0.2-1.5,0.6S242.5,190,242.4,190.6z
			"/>
		<path class="st2" d="M257.6,196.3h-1.2v-1.7c-0.6,1.3-1.6,1.9-2.8,1.9c-0.9,0-1.6-0.3-2.1-0.9c-0.5-0.6-0.8-1.4-0.8-2.6v-5.7h1.4
			v5.7c0,0.9,0.2,1.5,0.5,1.8s0.8,0.5,1.2,0.5c0.4,0,0.8-0.1,1.2-0.4s0.7-0.6,0.9-1.1c0.2-0.5,0.4-1,0.4-1.5v-5h1.4V196.3z"/>
		<path class="st2" d="M267.4,196.3h-1.3v-5.7c0-0.8-0.2-1.4-0.5-1.7s-0.8-0.5-1.3-0.5c-0.7,0-1.3,0.3-1.8,0.8s-0.7,1.3-0.7,2.2v4.9
			h-1.4v-8.9h1.3v1.6c0.7-1.3,1.7-1.9,2.8-1.9c0.7,0,1.2,0.2,1.7,0.5c0.5,0.3,0.8,0.7,1,1.2s0.3,1.2,0.3,2.3V196.3z"/>
	</g>
	<g class="st1">
		<path class="st2" d="M274.1,195.4v1.1c-0.5,0.1-0.9,0.1-1.3,0.1c-1.7,0-2.6-0.9-2.6-2.7v-5.3h-1.6v-1.1h1.6l0.1-2.2l1.3-0.1v2.4h2
			v1.1h-2v5.6c0,0.9,0.5,1.4,1.4,1.4C273.4,195.5,273.7,195.4,274.1,195.4z"/>
	</g>
	<g class="st1">
		<path class="st2" d="M278.6,196.5c-1.2,0-2.2-0.5-2.9-1.4s-1-2-1-3.4c0-1.4,0.4-2.5,1.2-3.4s1.7-1.3,2.9-1.3
			c1.2,0,2.2,0.4,2.9,1.3s1.1,2,1.1,3.3c0,1.4-0.4,2.5-1.1,3.4S279.8,196.5,278.6,196.5z M278.7,195.4c0.7,0,1.3-0.3,1.8-0.9
			s0.7-1.5,0.7-2.7c0-1.2-0.2-2.1-0.7-2.7c-0.5-0.6-1.1-0.8-1.7-0.8c-0.7,0-1.3,0.3-1.7,0.8s-0.7,1.4-0.7,2.7c0,1.3,0.2,2.2,0.7,2.8
			C277.4,195.1,278,195.4,278.7,195.4z"/>
		<path class="st2" d="M283.5,194l1.3-0.3c0.3,1.1,1.2,1.7,2.8,1.7c0.6,0,1.1-0.1,1.5-0.4c0.4-0.3,0.6-0.6,0.6-1.1
			c0-0.7-0.5-1.1-1.5-1.3l-1.9-0.4c-0.7-0.1-1.3-0.4-1.7-0.8s-0.7-1-0.7-1.6c0-0.7,0.3-1.4,0.9-1.9c0.6-0.5,1.4-0.8,2.4-0.8
			c1.9,0,3.1,0.8,3.6,2.3l-1.3,0.3c-0.4-0.9-1.1-1.4-2.2-1.4c-0.6,0-1,0.1-1.4,0.3c-0.4,0.2-0.5,0.6-0.5,1c0,0.7,0.5,1.1,1.4,1.2
			l1.7,0.3c1.8,0.3,2.7,1.2,2.7,2.6c0,0.8-0.3,1.5-1,2s-1.6,0.8-2.7,0.8C285.3,196.5,284,195.7,283.5,194z"/>
		<path class="st2" d="M303.4,193.7l1.3,0.3c-0.2,0.8-0.7,1.4-1.4,1.9s-1.5,0.7-2.4,0.7c-1.2,0-2.2-0.4-2.9-1.3
			c-0.8-0.9-1.1-2-1.1-3.4c0-1.4,0.4-2.6,1.2-3.4s1.8-1.3,2.9-1.3c1.2,0,2.1,0.4,2.8,1.2c0.7,0.8,1.1,2,1.1,3.6h-6.5
			c0,1.3,0.3,2.2,0.8,2.7s1.2,0.7,1.8,0.7C302.2,195.4,303,194.8,303.4,193.7z M303.4,191c0-0.5-0.1-0.9-0.2-1.3s-0.4-0.7-0.8-1
			c-0.4-0.3-0.8-0.4-1.3-0.4c-0.7,0-1.3,0.2-1.7,0.7c-0.5,0.5-0.7,1.2-0.8,2H303.4z"/>
		<path class="st2" d="M313.9,196.3h-1.3v-5.7c0-0.8-0.2-1.4-0.5-1.7s-0.8-0.5-1.3-0.5c-0.7,0-1.3,0.3-1.8,0.8
			c-0.5,0.6-0.7,1.3-0.7,2.2v4.9H307v-8.9h1.3v1.6c0.7-1.3,1.7-1.9,2.8-1.9c0.7,0,1.2,0.2,1.7,0.5c0.5,0.3,0.8,0.7,1,1.2
			c0.2,0.4,0.3,1.2,0.3,2.3V196.3z"/>
		<path class="st2" d="M320.7,195.4v1.1c-0.5,0.1-0.9,0.1-1.3,0.1c-1.7,0-2.6-0.9-2.6-2.7v-5.3h-1.6v-1.1h1.6l0.1-2.2l1.3-0.1v2.4h2
			v1.1h-2v5.6c0,0.9,0.5,1.4,1.4,1.4C320,195.5,320.3,195.4,320.7,195.4z"/>
		<path class="st2" d="M323.6,196.3h-1.4v-8.9h1.2v2.1c0.4-1,0.9-1.6,1.3-1.9c0.4-0.3,0.9-0.4,1.3-0.4c0.1,0,0.3,0,0.5,0v1.3h-0.3
			c-0.8,0-1.4,0.3-1.9,0.9s-0.8,1.3-0.8,2.2V196.3z"/>
		<path class="st2" d="M334,193.7l1.3,0.3c-0.2,0.8-0.7,1.4-1.4,1.9s-1.5,0.7-2.4,0.7c-1.2,0-2.2-0.4-2.9-1.3
			c-0.8-0.9-1.1-2-1.1-3.4c0-1.4,0.4-2.6,1.2-3.4s1.8-1.3,2.9-1.3c1.2,0,2.1,0.4,2.8,1.2c0.7,0.8,1.1,2,1.1,3.6H329
			c0,1.3,0.3,2.2,0.8,2.7s1.2,0.7,1.8,0.7C332.8,195.4,333.6,194.8,334,193.7z M334,191c0-0.5-0.1-0.9-0.2-1.3s-0.4-0.7-0.8-1
			c-0.4-0.3-0.8-0.4-1.3-0.4c-0.7,0-1.3,0.2-1.7,0.7c-0.5,0.5-0.7,1.2-0.8,2H334z"/>
		<path class="st2" d="M350.1,195.1v1.2h-8.5v-1.2c3.4-2.5,5.4-4.2,6-5c0.6-0.8,1-1.6,1-2.4c0-0.7-0.3-1.3-0.8-1.8s-1.2-0.7-1.9-0.7
			c-0.7,0-1.4,0.2-1.9,0.7c-0.6,0.5-0.9,1.2-0.9,2l-1.4-0.4c0.6-2.3,2-3.5,4.3-3.5c1.2,0,2.2,0.4,3,1.1s1.2,1.6,1.2,2.6
			c0,0.7-0.2,1.4-0.5,2c-0.4,0.6-1.1,1.4-2.1,2.3s-2.3,1.9-4,3H350.1z"/>
		<path class="st2" d="M356.5,196.5c-1.4,0-2.5-0.6-3.3-1.8s-1.2-2.7-1.2-4.5c0-1.7,0.4-3.2,1.2-4.4c0.8-1.2,1.9-1.8,3.3-1.8
			c1.5,0,2.6,0.6,3.4,1.9c0.8,1.3,1.2,2.7,1.2,4.4c0,1.7-0.4,3.1-1.2,4.3S357.9,196.5,356.5,196.5z M356.5,195.4
			c1,0,1.8-0.5,2.3-1.4c0.5-0.9,0.7-2.1,0.7-3.5c0-1.5-0.2-2.8-0.7-3.8s-1.3-1.5-2.3-1.5c-1,0-1.7,0.5-2.2,1.4
			c-0.5,0.9-0.7,2.1-0.7,3.6c0,1.6,0.3,2.8,0.8,3.7C354.8,194.9,355.5,195.4,356.5,195.4z"/>
		<path class="st2" d="M367.1,196.5c-1.4,0-2.5-0.6-3.3-1.8s-1.2-2.7-1.2-4.5c0-1.7,0.4-3.2,1.2-4.4c0.8-1.2,1.9-1.8,3.3-1.8
			c1.5,0,2.6,0.6,3.4,1.9c0.8,1.3,1.2,2.7,1.2,4.4c0,1.7-0.4,3.1-1.2,4.3S368.5,196.5,367.1,196.5z M367.1,195.4
			c1,0,1.8-0.5,2.3-1.4c0.5-0.9,0.7-2.1,0.7-3.5c0-1.5-0.2-2.8-0.7-3.8s-1.3-1.5-2.3-1.5c-1,0-1.7,0.5-2.2,1.4
			c-0.5,0.9-0.7,2.1-0.7,3.6c0,1.6,0.3,2.8,0.8,3.7C365.3,194.9,366.1,195.4,367.1,195.4z"/>
		<path class="st2" d="M375.8,190.1c-1.5-0.7-2.3-1.6-2.3-2.9c0-0.9,0.4-1.7,1.1-2.3s1.8-0.9,3-0.9c1.2,0,2.2,0.3,2.9,0.8
			c0.7,0.6,1.1,1.3,1.1,2.2c0,1.3-0.8,2.2-2.3,2.7c1.3,0.6,2,1.1,2.4,1.7c0.3,0.5,0.5,1.1,0.5,1.6c0,1-0.4,1.8-1.2,2.4
			c-0.8,0.6-1.9,1-3.3,1c-1.5,0-2.7-0.3-3.5-1c-0.8-0.7-1.2-1.4-1.2-2.4C373,191.8,373.9,190.8,375.8,190.1z M377.5,190.7
			c-2,0.5-3,1.3-3,2.5c0,0.6,0.3,1.2,0.8,1.6c0.6,0.4,1.4,0.6,2.4,0.6c0.9,0,1.6-0.2,2.2-0.6s0.8-0.9,0.8-1.5
			C380.8,192.1,379.7,191.3,377.5,190.7z M377.7,189.3c1-0.3,1.7-0.6,2.1-0.9s0.6-0.8,0.6-1.3c0-0.6-0.2-1.1-0.7-1.4
			c-0.5-0.3-1.1-0.5-2-0.5c-0.8,0-1.4,0.2-1.9,0.5c-0.5,0.3-0.7,0.8-0.7,1.4c0,0.6,0.3,1,0.8,1.5C376.5,188.9,377,189.2,377.7,189.3
			z"/>
		<path class="st2" d="M394.9,187.4l-3.6,9.9c-0.5,1.4-1.3,2.1-2.5,2.1c-0.4,0-0.8-0.1-1.2-0.2v-1.1c0.4,0.1,0.7,0.1,0.9,0.1
			c0.4,0,0.8-0.1,1.1-0.4s0.6-0.9,0.9-1.8l-3.1-8.7h1.4l2.4,6.7l2.4-6.7H394.9z"/>
		<path class="st2" d="M408.8,195.1v1.2h-8.5v-1.2c3.4-2.5,5.4-4.2,6-5c0.6-0.8,1-1.6,1-2.4c0-0.7-0.3-1.3-0.8-1.8s-1.2-0.7-1.9-0.7
			c-0.7,0-1.4,0.2-1.9,0.7c-0.6,0.5-0.9,1.2-0.9,2l-1.4-0.4c0.6-2.3,2-3.5,4.3-3.5c1.2,0,2.2,0.4,3,1.1s1.2,1.6,1.2,2.6
			c0,0.7-0.2,1.4-0.5,2c-0.4,0.6-1.1,1.4-2.1,2.3s-2.3,1.9-4,3H408.8z"/>
		<path class="st2" d="M415.2,196.5c-1.4,0-2.5-0.6-3.3-1.8s-1.2-2.7-1.2-4.5c0-1.7,0.4-3.2,1.2-4.4c0.8-1.2,1.9-1.8,3.3-1.8
			c1.5,0,2.6,0.6,3.4,1.9c0.8,1.3,1.2,2.7,1.2,4.4c0,1.7-0.4,3.1-1.2,4.3S416.6,196.5,415.2,196.5z M415.2,195.4
			c1,0,1.8-0.5,2.3-1.4c0.5-0.9,0.7-2.1,0.7-3.5c0-1.5-0.2-2.8-0.7-3.8s-1.3-1.5-2.3-1.5c-1,0-1.7,0.5-2.2,1.4
			c-0.5,0.9-0.7,2.1-0.7,3.6c0,1.6,0.3,2.8,0.8,3.7C413.5,194.9,414.2,195.4,415.2,195.4z"/>
		<path class="st2" d="M429.9,195.1v1.2h-8.5v-1.2c3.4-2.5,5.4-4.2,6-5c0.6-0.8,1-1.6,1-2.4c0-0.7-0.3-1.3-0.8-1.8s-1.2-0.7-1.9-0.7
			c-0.7,0-1.4,0.2-1.9,0.7c-0.6,0.5-0.9,1.2-0.9,2l-1.4-0.4c0.6-2.3,2-3.5,4.3-3.5c1.2,0,2.2,0.4,3,1.1s1.2,1.6,1.2,2.6
			c0,0.7-0.2,1.4-0.5,2c-0.4,0.6-1.1,1.4-2.1,2.3s-2.3,1.9-4,3H429.9z"/>
		<path class="st2" d="M436.3,196.5c-1.4,0-2.5-0.6-3.3-1.8s-1.2-2.7-1.2-4.5c0-1.7,0.4-3.2,1.2-4.4c0.8-1.2,1.9-1.8,3.3-1.8
			c1.5,0,2.6,0.6,3.4,1.9c0.8,1.3,1.2,2.7,1.2,4.4c0,1.7-0.4,3.1-1.2,4.3S437.7,196.5,436.3,196.5z M436.3,195.4
			c1,0,1.8-0.5,2.3-1.4c0.5-0.9,0.7-2.1,0.7-3.5c0-1.5-0.2-2.8-0.7-3.8s-1.3-1.5-2.3-1.5c-1,0-1.7,0.5-2.2,1.4
			c-0.5,0.9-0.7,2.1-0.7,3.6c0,1.6,0.3,2.8,0.8,3.7C434.6,194.9,435.3,195.4,436.3,195.4z"/>
	</g>
	<circle class="st5" cx="525.7" cy="99.7" r="8.6"/>
	<circle class="st6" cx="342.7" cy="99.7" r="8.6"/>
	<circle class="st7" cx="354.7" cy="99.7" r="8.6"/>
	<circle class="st8" cx="316.7" cy="99.7" r="8.6"/>
</g>
</svg>
