<svg id="Capa_1" data-name="Capa 1" xmlns="http://www.w3.org/2000/svg" viewBox="0 0 567.15 212.99">
  <defs>
    <style>
      .cls-1, .cls-10 {
        fill: none;
        stroke-miterlimit: 10;
        stroke-width: 0.5px;
      }

      .cls-1 {
        stroke: #dcdcdc;
      }

      .cls-2 {
        font-size: 18px;
        fill: #ddd;
      }

      .cls-13, .cls-2, .cls-6 {
        font-family: FranklinGothic-Book, Franklin Gothic Book;
      }

      .cls-11, .cls-3, .cls-4 {
        font-family: FranklinGothic-Medium, Franklin Gothic Medium;
        font-weight: 500;
      }

      .cls-4 {
        letter-spacing: -0.01em;
      }

      .cls-5 {
        font-family: FranklinGothic-Demi, Franklin Gothic Demi;
        font-weight: 300;
      }

      .cls-13, .cls-6 {
        font-weight: 400;
      }

      .cls-7 {
        letter-spacing: -0.03em;
      }

      .cls-8 {
        letter-spacing: 0.02em;
      }

      .cls-13, .cls-9 {
        letter-spacing: -0.02em;
      }

      .cls-10 {
        stroke: #ddd;
      }

      .cls-11 {
        font-size: 16px;
        fill: #dcdcdc;
      }

      .cls-12 {
        letter-spacing: -0.02em;
      }

      .cls-14, .cls-15 {
        fill: #cb7e42;
      }

      .cls-14, .cls-16 {
        opacity: 0.9;
      }

      .cls-15, .cls-17 {
        opacity: 0.3;
      }

      .cls-16, .cls-17 {
        fill: #fbd59a;
      }
    </style>
  </defs>
  <title>8b</title>
  <g>
    <polyline class="cls-1" points="525.39 86.48 525.39 79.75 342.67 79.75 342.67 86.48"/>
    <text class="cls-2" transform="translate(307.4 15.01)">El consumo de <tspan class="cls-3" x="116.16" y="0">antidepresi</tspan><tspan class="cls-4" x="202.65" y="0">v</tspan><tspan class="cls-3" x="210.45" y="0">os</tspan><tspan x="228.14" y="0" xml:space="preserve"> en </tspan><tspan class="cls-3"><tspan x="0" y="21.6">España</tspan><tspan class="cls-5" x="56.73" y="21.6"> </tspan><tspan class="cls-6" x="61.23" y="21.6">se incrementó en </tspan><tspan class="cls-7" x="197.82" y="21.6">3</tspan><tspan class="cls-8" x="207.85" y="21.6">1</tspan><tspan x="218.82" y="21.6">,2</tspan><tspan class="cls-6" x="233.71" y="21.6"> </tspan></tspan><tspan x="0" y="43.2">pun</tspan><tspan class="cls-9" x="29.12" y="43.2">t</tspan><tspan x="34.38" y="43.2">os entre 2008 y 2020</tspan></text>
    <line class="cls-10" x1="14.09" y1="99.53" x2="543.59" y2="99.53"/>
    <line class="cls-10" x1="20.59" y1="93.03" x2="20.59" y2="107.03"/>
    <line class="cls-10" x1="537.59" y1="93.03" x2="537.59" y2="107.03"/>
    <line class="cls-10" x1="271.9" y1="92.99" x2="271.9" y2="106.99"/>
    <text class="cls-11" transform="translate(548.38 102.76)">90</text>
    <text class="cls-11" transform="translate(0 102.76)">0</text>
    <text class="cls-11" transform="translate(260.76 89.49)">45</text>
    <polyline class="cls-1" points="316.39 121.84 316.39 128.57 354.39 128.57 354.39 121.84"/>
    <text class="cls-2" transform="translate(199.12 153.1)">El consumo de <tspan class="cls-3" x="116.16" y="0">antidepresi</tspan><tspan class="cls-4" x="202.65" y="0">v</tspan><tspan class="cls-3" x="210.45" y="0">os</tspan><tspan x="228.14" y="0" xml:space="preserve"> en </tspan><tspan class="cls-3" x="256.26" y="0">el </tspan><tspan class="cls-3"><tspan x="0" y="21.6">res</tspan><tspan class="cls-12" x="23.58" y="21.6">t</tspan><tspan x="29.06" y="21.6">o de la OCDE</tspan><tspan class="cls-6" x="128.79" y="21.6" xml:space="preserve"> se incrementó en </tspan><tspan x="0" y="43.2">6,65</tspan><tspan class="cls-6" x="36" y="43.2" xml:space="preserve"> pun</tspan><tspan class="cls-13" x="69.62" y="43.2">t</tspan><tspan class="cls-6" x="74.88" y="43.2">os entre 2008 y 2020</tspan></tspan></text>
    <circle class="cls-14" cx="525.74" cy="99.69" r="8.56"/>
    <circle class="cls-15" cx="342.74" cy="99.69" r="8.56"/>
    <circle class="cls-16" cx="354.68" cy="99.69" r="8.56"/>
    <circle class="cls-17" cx="316.68" cy="99.69" r="8.56"/>
  </g>
</svg>
