<?xml version="1.0" encoding="utf-8"?>
<!-- Generator: Adobe Illustrator 24.0.2, SVG Export Plug-In . SVG Version: 6.00 Build 0)  -->
<svg version="1.1" id="Capa_2_1_" xmlns="http://www.w3.org/2000/svg" xmlns:xlink="http://www.w3.org/1999/xlink" x="0px" y="0px"
	 viewBox="0 0 703.8 389.1" style="enable-background:new 0 0 703.8 389.1;" xml:space="preserve">
<style type="text/css">
	.st0{opacity:0.9;}
	.st1{fill:#F6F4CD;}
	.st2{fill:#F8ECBA;}
	.st3{fill:#FBDFA7;}
	.st4{fill:#FAD59A;}
	.st5{fill:#FBC98A;}
	.st6{fill:#F9BE7D;}
	.st7{fill:#F7B46F;}
	.st8{fill:#F5A75E;}
	.st9{fill:#F49D55;}
	.st10{enable-background:new    ;}
	.st11{fill:#DDDDDD;}
	.st12{opacity:0.9;fill:#FABF7D;stroke:#15202B;stroke-width:0.63;stroke-miterlimit:10;enable-background:new    ;}
	.st13{opacity:0.9;fill:#FBD59A;stroke:#15202B;stroke-width:0.63;stroke-miterlimit:10;enable-background:new    ;}
	.st14{opacity:0.9;fill:#F8EDBB;stroke:#15202B;stroke-width:0.63;stroke-miterlimit:10;enable-background:new    ;}
	.st15{opacity:0.9;fill:#F39446;stroke:#15202B;stroke-width:0.63;stroke-miterlimit:10;enable-background:new    ;}
	.st16{opacity:0.9;fill:#F6A860;stroke:#15202B;stroke-width:0.63;stroke-miterlimit:10;enable-background:new    ;}
	.st17{opacity:0.9;fill:#F7F6CD;stroke:#15202B;stroke-width:0.63;stroke-miterlimit:10;enable-background:new    ;}
</style>
<title>9</title>
<g>
	<g class="st0">
		<circle class="st1" cx="247.5" cy="10.7" r="10.7"/>
		<circle class="st2" cx="271.8" cy="10.7" r="10.7"/>
		<circle class="st3" cx="296.1" cy="10.7" r="10.7"/>
		<circle class="st4" cx="320.5" cy="10.7" r="10.7"/>
		<circle class="st5" cx="344.8" cy="10.7" r="10.7"/>
		<circle class="st6" cx="369.1" cy="10.7" r="10.7"/>
		<circle class="st7" cx="393.4" cy="10.7" r="10.7"/>
		<circle class="st8" cx="417.7" cy="10.7" r="10.7"/>
		<circle class="st9" cx="442.1" cy="10.7" r="10.7"/>
	</g>
	<g class="st10">
		<path class="st11" d="M199.7,18.2c-1.6,0-2.9-0.6-3.8-1.9s-1.3-2.9-1.3-4.8c0-2.1,0.5-3.8,1.4-5.1s2.2-1.9,3.7-1.9
			c1.1,0,2.1,0.3,2.9,0.9s1.4,1.4,1.7,2.5s0.6,2.1,0.6,3c0,1.6-0.2,2.9-0.5,3.9s-0.9,1.8-1.7,2.5S200.8,18.2,199.7,18.2z
			 M199.6,16.3c0.7,0,1.2-0.2,1.6-0.6s0.7-1,0.8-1.7s0.2-1.8,0.2-3.1c0-1.1-0.2-2.1-0.6-3.1s-1.1-1.5-2.1-1.5c-1.8,0-2.7,1.7-2.7,5
			c0,1.5,0.2,2.7,0.6,3.7S198.6,16.3,199.6,16.3z"/>
		<path class="st11" d="M209.3,12c-0.9,0-1.7-0.4-2.3-1.1s-0.8-1.6-0.8-2.7c0-1,0.3-1.9,0.8-2.6s1.3-1,2.3-1c1.1,0,1.8,0.4,2.4,1.1
			s0.8,1.6,0.8,2.5c0,1.2-0.3,2.1-0.9,2.8S210.2,12,209.3,12z M209.3,10.5c0.9,0,1.3-0.8,1.3-2.3c0-1.5-0.4-2.2-1.3-2.2
			c-0.9,0-1.3,0.7-1.3,2.2C208,9.8,208.4,10.5,209.3,10.5z M218.1,4.7L209.9,18h-1.5l8.3-13.3H218.1z M217.2,18.1
			c-0.9,0-1.6-0.3-2.2-1s-0.9-1.5-0.9-2.6c0-1.2,0.3-2.1,1-2.8s1.4-1,2.2-1c0.8,0,1.5,0.3,2.1,1s0.9,1.6,0.9,2.9
			c0,1.1-0.3,2-0.9,2.6S218.1,18.1,217.2,18.1z M217.2,16.7c0.5,0,0.8-0.2,1-0.7s0.3-1,0.3-1.5c0-0.8-0.1-1.4-0.3-1.8
			s-0.5-0.5-0.9-0.5c-0.9,0-1.4,0.8-1.4,2.3S216.4,16.7,217.2,16.7z"/>
	</g>
	<g class="st10">
		<path class="st11" d="M481.4,7.7l-2,0.4c-0.4-1.3-1.2-1.9-2.3-1.9c-1.1,0-1.9,0.5-2.4,1.5c-0.5,1-0.7,2-0.7,3.1c0,0.2,0,0.4,0,0.6
			c0.7-1.3,1.8-2,3.4-2c1.3,0,2.3,0.4,3.2,1.2c0.8,0.8,1.3,1.8,1.3,3c0,1.3-0.5,2.4-1.4,3.2c-0.9,0.9-2,1.3-3.4,1.3
			c-1.7,0-3.1-0.6-4-1.8c-1-1.2-1.5-2.9-1.5-5c0-2.1,0.5-3.7,1.4-5c1-1.3,2.2-1.9,3.9-1.9C479.3,4.5,480.8,5.6,481.4,7.7z M477,16.4
			c0.7,0,1.3-0.2,1.8-0.6c0.5-0.4,0.7-1.1,0.7-2c0-0.6-0.2-1.2-0.7-1.7c-0.5-0.5-1.1-0.8-1.9-0.8c-0.8,0-1.4,0.3-1.8,0.8
			c-0.5,0.5-0.7,1.1-0.7,1.8c0,0.7,0.2,1.3,0.7,1.8C475.6,16.2,476.2,16.4,477,16.4z"/>
		<path class="st11" d="M488.4,18.2c-1.6,0-2.9-0.6-3.8-1.9c-0.9-1.3-1.3-2.9-1.3-4.8c0-2.1,0.5-3.8,1.4-5.1s2.2-1.9,3.7-1.9
			c1.1,0,2.1,0.3,2.9,0.9c0.8,0.6,1.4,1.4,1.7,2.5s0.6,2.1,0.6,3c0,1.6-0.2,2.9-0.5,3.9c-0.4,1-0.9,1.8-1.7,2.5
			S489.6,18.2,488.4,18.2z M488.4,16.3c0.7,0,1.2-0.2,1.6-0.6c0.4-0.4,0.7-1,0.8-1.7c0.1-0.7,0.2-1.8,0.2-3.1c0-1.1-0.2-2.1-0.6-3.1
			c-0.4-1-1.1-1.5-2.1-1.5c-1.8,0-2.7,1.7-2.7,5c0,1.5,0.2,2.7,0.6,3.7C486.7,15.9,487.4,16.3,488.4,16.3z"/>
		<path class="st11" d="M498,12c-0.9,0-1.7-0.4-2.3-1.1c-0.6-0.7-0.8-1.6-0.8-2.7c0-1,0.3-1.9,0.8-2.6s1.3-1,2.3-1
			c1.1,0,1.8,0.4,2.4,1.1c0.5,0.7,0.8,1.6,0.8,2.5c0,1.2-0.3,2.1-0.9,2.8C499.6,11.6,498.9,12,498,12z M498,10.5
			c0.9,0,1.3-0.8,1.3-2.3c0-1.5-0.4-2.2-1.3-2.2c-0.9,0-1.3,0.7-1.3,2.2C496.7,9.8,497.2,10.5,498,10.5z M506.9,4.7L498.6,18h-1.5
			l8.3-13.3H506.9z M505.9,18.1c-0.9,0-1.6-0.3-2.2-1s-0.9-1.5-0.9-2.6c0-1.2,0.3-2.1,1-2.8c0.6-0.7,1.4-1,2.2-1
			c0.8,0,1.5,0.3,2.1,1s0.9,1.6,0.9,2.9c0,1.1-0.3,2-0.9,2.6C507.6,17.8,506.8,18.1,505.9,18.1z M506,16.7c0.5,0,0.8-0.2,1-0.7
			c0.2-0.4,0.3-1,0.3-1.5c0-0.8-0.1-1.4-0.3-1.8s-0.5-0.5-0.9-0.5c-0.9,0-1.4,0.8-1.4,2.3S505.1,16.7,506,16.7z"/>
	</g>
</g>
<g>
	<rect x="557.8" y="106.7" class="st12" width="145.8" height="56.4"/>
	<rect x="557.8" y="163.1" class="st13" width="145.8" height="56.4"/>
	<rect x="557.8" y="219.5" class="st13" width="145.7" height="56.4"/>
	<rect x="557.8" y="275.9" class="st13" width="145.8" height="56.4"/>
	<rect x="557.8" y="332.3" class="st14" width="145.8" height="56.4"/>
	<rect x="412" y="106.7" class="st15" width="145.8" height="56.4"/>
	<rect x="412" y="163.1" class="st15" width="145.8" height="56.4"/>
	<rect x="412" y="219.5" class="st15" width="145.7" height="56.4"/>
	<rect x="412" y="275.9" class="st15" width="145.8" height="56.4"/>
	<rect x="412" y="332.3" class="st16" width="145.8" height="56.4"/>
	<rect x="266.3" y="106.7" class="st14" width="145.8" height="56.4"/>
	<rect x="266.3" y="163.1" class="st14" width="145.8" height="56.4"/>
	<rect x="266.3" y="219.5" class="st14" width="145.7" height="56.4"/>
	<rect x="266.3" y="275.9" class="st13" width="145.8" height="56.4"/>
	<rect x="266.3" y="332.3" class="st13" width="145.8" height="56.4"/>
	<g>
		<rect x="120.5" y="106.7" class="st17" width="145.8" height="56.4"/>
		<rect x="120.5" y="163.1" class="st17" width="145.8" height="56.4"/>
		<rect x="120.5" y="219.5" class="st17" width="145.7" height="56.4"/>
		<rect x="120.5" y="275.9" class="st17" width="145.8" height="56.4"/>
		<rect x="120.5" y="332.3" class="st17" width="145.8" height="56.4"/>
	</g>
	<g class="st10">
		<path class="st11" d="M1.4,144v-13.3h4.9c1.8,0,3.3,0.6,4.4,1.9s1.7,2.9,1.7,4.8s-0.6,3.5-1.7,4.7S7.9,144,5.8,144H1.4z M3.9,142
			h2c1.1,0,2-0.4,2.7-1.2s1.1-2,1.1-3.6c0-1.3-0.3-2.4-1-3.3s-1.5-1.4-2.6-1.4H3.9V142z"/>
		<path class="st11" d="M20.7,140.9l2,0.3c-0.3,0.9-0.8,1.6-1.5,2.2s-1.7,0.9-2.8,0.9c-1.4,0-2.5-0.5-3.3-1.4s-1.3-2.2-1.3-3.7
			c0-1.5,0.4-2.7,1.3-3.7s2-1.5,3.4-1.5c1.4,0,2.5,0.5,3.3,1.4s1.2,2.2,1.2,3.7l0,0.3h-6.8c0,0.7,0.1,1.2,0.2,1.6s0.4,0.8,0.8,1.1
			s0.8,0.4,1.4,0.4C19.6,142.5,20.3,141.9,20.7,140.9z M20.6,137.9c0-0.7-0.2-1.3-0.6-1.7s-0.9-0.7-1.6-0.7c-0.6,0-1.1,0.2-1.5,0.6
			s-0.7,1-0.7,1.8H20.6z"/>
	</g>
	<g class="st10">
		<path class="st11" d="M40.2,144H29.9v-2h4v-8.4c-1.3,1.2-2.5,2-3.6,2.4v-2.4c1.1-0.4,1.8-0.7,2.1-0.9s0.7-0.5,1.2-1
			s0.9-0.9,1.1-1.3h1.6V142h3.8V144z"/>
	</g>
	<g class="st10">
		<path class="st11" d="M50.6,133.7l-2,0.4c-0.4-1.3-1.2-1.9-2.3-1.9c-1.1,0-1.9,0.5-2.4,1.5s-0.7,2-0.7,3.1c0,0.2,0,0.4,0,0.6
			c0.7-1.3,1.8-2,3.4-2c1.3,0,2.3,0.4,3.2,1.2s1.3,1.8,1.3,3c0,1.3-0.5,2.4-1.4,3.2s-2,1.3-3.4,1.3c-1.7,0-3.1-0.6-4-1.8
			s-1.5-2.9-1.5-5c0-2.1,0.5-3.7,1.4-5s2.2-1.9,3.9-1.9C48.5,130.5,50.1,131.6,50.6,133.7z M46.2,142.4c0.7,0,1.3-0.2,1.8-0.6
			s0.7-1.1,0.7-2c0-0.6-0.2-1.2-0.7-1.7s-1.1-0.8-1.9-0.8c-0.8,0-1.4,0.3-1.8,0.8s-0.7,1.1-0.7,1.8c0,0.7,0.2,1.3,0.7,1.8
			S45.4,142.4,46.2,142.4z"/>
		<path class="st11" d="M66.5,144h-2.1c-0.2-0.6-0.3-1.3-0.3-2c-0.6,1.5-1.7,2.2-3.3,2.2c-1,0-1.8-0.3-2.4-0.9s-0.9-1.3-0.9-2.2
			c0-2.3,2-3.4,6-3.4c0.2,0,0.4,0,0.6,0V137c0-1-0.7-1.5-2.1-1.5c-1.4,0-2.1,0.5-2.3,1.5l-1.9-0.3c0.1-0.8,0.5-1.5,1.3-2
			s1.8-0.8,3.2-0.8c0.8,0,1.4,0.1,1.9,0.2s0.9,0.3,1.2,0.6s0.6,0.6,0.7,1s0.2,1,0.2,1.8v4.5C66.2,142.7,66.3,143.3,66.5,144z
			 M64.1,139c-2.9,0-4.3,0.7-4.3,2.1c0,0.4,0.1,0.8,0.4,1s0.7,0.4,1.3,0.4c0.8,0,1.5-0.3,1.9-0.8s0.6-1.1,0.6-1.8V139z"/>
	</g>
	<g class="st10">
		<path class="st11" d="M83.2,141.9v2.1h-9.8v-2.3l4.1-2.7c1.3-0.8,2.1-1.6,2.6-2.3s0.7-1.3,0.7-1.8c0-0.7-0.2-1.2-0.7-1.7
			s-1-0.7-1.7-0.7c-1.5,0-2.4,0.9-2.6,2.8l-2.3-0.6c0.2-1.2,0.7-2.2,1.6-3s2-1.3,3.4-1.3c1.5,0,2.6,0.4,3.5,1.3s1.3,1.9,1.3,3.2
			c0,1.1-0.4,2.2-1.2,3.1s-2.7,2.2-5.8,4H83.2z"/>
	</g>
	<g class="st10">
		<path class="st11" d="M92.8,144h-2.5v-3h-5.9v-1.8l5.9-8.8h2.5v8.5h2v2.1h-2V144z M90.5,132.9l-3.8,6h3.6v-3.7
			c0-0.4,0-0.7,0.1-1.1L90.5,132.9z"/>
	</g>
	<g class="st10">
		<path class="st11" d="M1.4,199v-13.3h4.9c1.8,0,3.3,0.6,4.4,1.9s1.7,2.9,1.7,4.8s-0.6,3.5-1.7,4.7S7.9,199,5.8,199H1.4z M3.9,197
			h2c1.1,0,2-0.4,2.7-1.2s1.1-2,1.1-3.6c0-1.3-0.3-2.4-1-3.3s-1.5-1.4-2.6-1.4H3.9V197z"/>
		<path class="st11" d="M20.7,195.9l2,0.3c-0.3,0.9-0.8,1.6-1.5,2.2s-1.7,0.9-2.8,0.9c-1.4,0-2.5-0.5-3.3-1.4s-1.3-2.2-1.3-3.7
			c0-1.5,0.4-2.7,1.3-3.7s2-1.5,3.4-1.5c1.4,0,2.5,0.5,3.3,1.4s1.2,2.2,1.2,3.7l0,0.3h-6.8c0,0.7,0.1,1.2,0.2,1.6s0.4,0.8,0.8,1.1
			s0.8,0.4,1.4,0.4C19.6,197.5,20.3,196.9,20.7,195.9z M20.6,192.9c0-0.7-0.2-1.3-0.6-1.7s-0.9-0.7-1.6-0.7c-0.6,0-1.1,0.2-1.5,0.6
			s-0.7,1-0.7,1.8H20.6z"/>
		<path class="st11" d="M39.2,196.9v2.1h-9.8v-2.3l4.1-2.7c1.3-0.8,2.1-1.6,2.6-2.3s0.7-1.3,0.7-1.8c0-0.7-0.2-1.2-0.7-1.7
			s-1-0.7-1.7-0.7c-1.5,0-2.4,0.9-2.6,2.8l-2.3-0.6c0.2-1.2,0.7-2.2,1.6-3s2-1.3,3.4-1.3c1.5,0,2.6,0.4,3.5,1.3s1.3,1.9,1.3,3.2
			c0,1.1-0.4,2.2-1.2,3.1s-2.7,2.2-5.8,4H39.2z"/>
		<path class="st11" d="M42.4,185.7h8.3l-0.2,2.1h-6.3l-0.4,3.9c0.8-1,1.8-1.5,3.1-1.5c1.3,0,2.4,0.4,3.2,1.3s1.3,1.9,1.3,3.2
			c0,1.3-0.5,2.4-1.4,3.3s-2.2,1.4-3.8,1.4c-1.3,0-2.4-0.3-3.4-0.9s-1.6-1.5-1.9-2.8l2.3-0.3c0.4,1.4,1.4,2,2.8,2
			c0.9,0,1.5-0.3,2-0.8s0.7-1.2,0.7-1.9c0-0.7-0.2-1.4-0.7-1.9s-1.1-0.8-1.8-0.8c-1.1,0-2,0.5-2.6,1.6l-2.1-0.4L42.4,185.7z"/>
		<path class="st11" d="M66.8,199h-2.1c-0.2-0.6-0.3-1.3-0.3-2c-0.6,1.5-1.7,2.2-3.3,2.2c-1,0-1.8-0.3-2.4-0.9s-0.9-1.3-0.9-2.2
			c0-2.3,2-3.4,6-3.4c0.2,0,0.4,0,0.6,0V192c0-1-0.7-1.5-2.1-1.5c-1.4,0-2.1,0.5-2.3,1.5l-1.9-0.3c0.1-0.8,0.5-1.5,1.3-2
			s1.8-0.8,3.2-0.8c0.8,0,1.4,0.1,1.9,0.2s0.9,0.3,1.2,0.6s0.6,0.6,0.7,1s0.2,1,0.2,1.8v4.5C66.5,197.7,66.6,198.3,66.8,199z
			 M64.4,194c-2.9,0-4.3,0.7-4.3,2.1c0,0.4,0.1,0.8,0.4,1s0.7,0.4,1.3,0.4c0.8,0,1.5-0.3,1.9-0.8s0.6-1.1,0.6-1.8V194z"/>
		<path class="st11" d="M77.1,193.1v-1.9h1.2c0.7,0,1.3-0.2,1.8-0.5s0.7-0.8,0.7-1.5c0-0.6-0.2-1.1-0.6-1.4s-0.9-0.5-1.6-0.5
			c-1.3,0-2.2,0.6-2.7,1.9l-2.2-0.4c0.2-1,0.8-1.8,1.7-2.5s2-1,3.2-1c1.3,0,2.3,0.3,3.2,1s1.3,1.5,1.3,2.6c0,0.8-0.2,1.5-0.7,2.1
			s-1.1,0.9-1.8,0.9c0.9,0.1,1.6,0.5,2.1,1.1s0.8,1.3,0.8,2.1c0,1.1-0.5,2.1-1.4,2.8s-2.1,1.1-3.7,1.1c-1.4,0-2.6-0.4-3.5-1.1
			s-1.5-1.5-1.7-2.5l2.3-0.6c0.5,1.5,1.4,2.2,2.9,2.2c0.8,0,1.4-0.2,1.9-0.6s0.7-0.9,0.7-1.5c0-0.6-0.2-1.1-0.6-1.5s-1-0.6-1.9-0.6
			H77.1z"/>
		<path class="st11" d="M93.6,199h-2.5v-3h-5.9v-1.8l5.9-8.8h2.5v8.5h2v2.1h-2V199z M91.3,187.9l-3.8,6h3.6v-3.7
			c0-0.4,0-0.7,0.1-1.1L91.3,187.9z"/>
	</g>
	<g class="st10">
		<path class="st11" d="M1.4,257v-13.3h4.9c1.8,0,3.3,0.6,4.4,1.9s1.7,2.9,1.7,4.8s-0.6,3.5-1.7,4.7S7.9,257,5.8,257H1.4z M3.9,255
			h2c1.1,0,2-0.4,2.7-1.2s1.1-2,1.1-3.6c0-1.3-0.3-2.4-1-3.3s-1.5-1.4-2.6-1.4H3.9V255z"/>
		<path class="st11" d="M20.7,253.9l2,0.3c-0.3,0.9-0.8,1.6-1.5,2.2s-1.7,0.9-2.8,0.9c-1.4,0-2.5-0.5-3.3-1.4s-1.3-2.2-1.3-3.7
			c0-1.5,0.4-2.7,1.3-3.7s2-1.5,3.4-1.5c1.4,0,2.5,0.5,3.3,1.4s1.2,2.2,1.2,3.7l0,0.3h-6.8c0,0.7,0.1,1.2,0.2,1.6s0.4,0.8,0.8,1.1
			s0.8,0.4,1.4,0.4C19.6,255.5,20.3,254.9,20.7,253.9z M20.6,250.9c0-0.7-0.2-1.3-0.6-1.7s-0.9-0.7-1.6-0.7c-0.6,0-1.1,0.2-1.5,0.6
			s-0.7,1-0.7,1.8H20.6z"/>
		<path class="st11" d="M32.8,251.1v-1.9H34c0.7,0,1.3-0.2,1.8-0.5s0.7-0.8,0.7-1.5c0-0.6-0.2-1.1-0.6-1.4s-0.9-0.5-1.6-0.5
			c-1.3,0-2.2,0.6-2.7,1.9l-2.2-0.4c0.2-1,0.8-1.8,1.7-2.5s2-1,3.2-1c1.3,0,2.3,0.3,3.2,1S39,246,39,247c0,0.8-0.2,1.5-0.7,2.1
			s-1.1,0.9-1.8,0.9c0.9,0.1,1.6,0.5,2.1,1.1s0.8,1.3,0.8,2.1c0,1.1-0.5,2.1-1.4,2.8s-2.1,1.1-3.7,1.1c-1.4,0-2.6-0.4-3.5-1.1
			s-1.5-1.5-1.7-2.5l2.3-0.6c0.5,1.5,1.4,2.2,2.9,2.2c0.8,0,1.4-0.2,1.9-0.6s0.7-0.9,0.7-1.5c0-0.6-0.2-1.1-0.6-1.5s-1-0.6-1.9-0.6
			H32.8z"/>
		<path class="st11" d="M42.4,243.7h8.3l-0.2,2.1h-6.3l-0.4,3.9c0.8-1,1.8-1.5,3.1-1.5c1.3,0,2.4,0.4,3.2,1.3s1.3,1.9,1.3,3.2
			c0,1.3-0.5,2.4-1.4,3.3s-2.2,1.4-3.8,1.4c-1.3,0-2.4-0.3-3.4-0.9s-1.6-1.5-1.9-2.8l2.3-0.3c0.4,1.4,1.4,2,2.8,2
			c0.9,0,1.5-0.3,2-0.8s0.7-1.2,0.7-1.9c0-0.7-0.2-1.4-0.7-1.9s-1.1-0.8-1.8-0.8c-1.1,0-2,0.5-2.6,1.6l-2.1-0.4L42.4,243.7z"/>
		<path class="st11" d="M66.8,257h-2.1c-0.2-0.6-0.3-1.3-0.3-2c-0.6,1.5-1.7,2.2-3.3,2.2c-1,0-1.8-0.3-2.4-0.9s-0.9-1.3-0.9-2.2
			c0-2.3,2-3.4,6-3.4c0.2,0,0.4,0,0.6,0V250c0-1-0.7-1.5-2.1-1.5c-1.4,0-2.1,0.5-2.3,1.5l-1.9-0.3c0.1-0.8,0.5-1.5,1.3-2
			s1.8-0.8,3.2-0.8c0.8,0,1.4,0.1,1.9,0.2s0.9,0.3,1.2,0.6s0.6,0.6,0.7,1s0.2,1,0.2,1.8v4.5C66.5,255.7,66.6,256.3,66.8,257z
			 M64.4,252c-2.9,0-4.3,0.7-4.3,2.1c0,0.4,0.1,0.8,0.4,1s0.7,0.4,1.3,0.4c0.8,0,1.5-0.3,1.9-0.8s0.6-1.1,0.6-1.8V252z"/>
		<path class="st11" d="M81.9,257h-2.5v-3h-5.9v-1.8l5.9-8.8h2.5v8.5h2v2.1h-2V257z M79.6,245.9l-3.8,6h3.6v-3.7
			c0-0.4,0-0.7,0.1-1.1L79.6,245.9z"/>
		<path class="st11" d="M85.8,254.6l2-0.6c0.5,0.9,1.3,1.4,2.2,1.4c1,0,1.8-0.5,2.3-1.4s0.8-2.2,0.8-3.9c-0.5,0.9-1,1.5-1.6,1.7
			s-1.2,0.4-1.9,0.4c-1.2,0-2.3-0.4-3.1-1.2s-1.3-1.8-1.3-3.1c0-1.3,0.4-2.4,1.3-3.2s2-1.3,3.5-1.3c1.6,0,2.9,0.6,3.9,1.7
			s1.5,2.7,1.5,4.8c0,2.1-0.5,3.9-1.4,5.2s-2.3,2-4.1,2c-1.1,0-2-0.3-2.8-0.8S86,255.3,85.8,254.6z M90.1,250.3
			c0.7,0,1.3-0.2,1.9-0.7s0.8-1.1,0.8-2c0-0.6-0.2-1.1-0.7-1.6s-1.1-0.7-1.9-0.7c-0.8,0-1.4,0.2-1.9,0.7s-0.7,1.1-0.7,1.8
			c0,0.6,0.2,1.2,0.7,1.7S89.3,250.3,90.1,250.3z"/>
	</g>
	<g class="st10">
		<path class="st11" d="M1.4,314v-13.3h4.9c1.8,0,3.3,0.6,4.4,1.9s1.7,2.9,1.7,4.8s-0.6,3.5-1.7,4.7S7.9,314,5.8,314H1.4z M3.9,312
			h2c1.1,0,2-0.4,2.7-1.2s1.1-2,1.1-3.6c0-1.3-0.3-2.4-1-3.3s-1.5-1.4-2.6-1.4H3.9V312z"/>
		<path class="st11" d="M20.7,310.9l2,0.3c-0.3,0.9-0.8,1.6-1.5,2.2s-1.7,0.9-2.8,0.9c-1.4,0-2.5-0.5-3.3-1.4s-1.3-2.2-1.3-3.7
			c0-1.5,0.4-2.7,1.3-3.7s2-1.5,3.4-1.5c1.4,0,2.5,0.5,3.3,1.4s1.2,2.2,1.2,3.7l0,0.3h-6.8c0,0.7,0.1,1.2,0.2,1.6s0.4,0.8,0.8,1.1
			s0.8,0.4,1.4,0.4C19.6,312.5,20.3,311.9,20.7,310.9z M20.6,307.9c0-0.7-0.2-1.3-0.6-1.7s-0.9-0.7-1.6-0.7c-0.6,0-1.1,0.2-1.5,0.6
			s-0.7,1-0.7,1.8H20.6z"/>
		<path class="st11" d="M30.7,300.7H39l-0.2,2.1h-6.3l-0.4,3.9c0.8-1,1.8-1.5,3.1-1.5c1.3,0,2.4,0.4,3.2,1.3s1.3,1.9,1.3,3.2
			c0,1.3-0.5,2.4-1.4,3.3s-2.2,1.4-3.8,1.4c-1.3,0-2.4-0.3-3.4-0.9s-1.6-1.5-1.9-2.8l2.3-0.3c0.4,1.4,1.4,2,2.8,2
			c0.9,0,1.5-0.3,2-0.8s0.7-1.2,0.7-1.9c0-0.7-0.2-1.4-0.7-1.9s-1.1-0.8-1.8-0.8c-1.1,0-2,0.5-2.6,1.6l-2.1-0.4L30.7,300.7z"/>
		<path class="st11" d="M46.2,314.2c-1.6,0-2.9-0.6-3.8-1.9s-1.3-2.9-1.3-4.8c0-2.1,0.5-3.8,1.4-5.1s2.2-1.9,3.7-1.9
			c1.1,0,2.1,0.3,2.9,0.9s1.4,1.4,1.7,2.5s0.6,2.1,0.6,3c0,1.6-0.2,2.9-0.5,3.9s-0.9,1.8-1.7,2.5S47.3,314.2,46.2,314.2z
			 M46.1,312.3c0.7,0,1.2-0.2,1.6-0.6s0.7-1,0.8-1.7s0.2-1.8,0.2-3.1c0-1.1-0.2-2.1-0.6-3.1s-1.1-1.5-2.1-1.5c-1.8,0-2.7,1.7-2.7,5
			c0,1.5,0.2,2.7,0.6,3.7S45.1,312.3,46.1,312.3z"/>
		<path class="st11" d="M66.8,314h-2.1c-0.2-0.6-0.3-1.3-0.3-2c-0.6,1.5-1.7,2.2-3.3,2.2c-1,0-1.8-0.3-2.4-0.9s-0.9-1.3-0.9-2.2
			c0-2.3,2-3.4,6-3.4c0.2,0,0.4,0,0.6,0V307c0-1-0.7-1.5-2.1-1.5c-1.4,0-2.1,0.5-2.3,1.5l-1.9-0.3c0.1-0.8,0.5-1.5,1.3-2
			s1.8-0.8,3.2-0.8c0.8,0,1.4,0.1,1.9,0.2s0.9,0.3,1.2,0.6s0.6,0.6,0.7,1s0.2,1,0.2,1.8v4.5C66.5,312.7,66.6,313.3,66.8,314z
			 M64.4,309c-2.9,0-4.3,0.7-4.3,2.1c0,0.4,0.1,0.8,0.4,1s0.7,0.4,1.3,0.4c0.8,0,1.5-0.3,1.9-0.8s0.6-1.1,0.6-1.8V309z"/>
		<path class="st11" d="M83.5,303.7l-2,0.4c-0.4-1.3-1.2-1.9-2.3-1.9c-1.1,0-1.9,0.5-2.4,1.5s-0.7,2-0.7,3.1c0,0.2,0,0.4,0,0.6
			c0.7-1.3,1.8-2,3.4-2c1.3,0,2.3,0.4,3.2,1.2s1.3,1.8,1.3,3c0,1.3-0.5,2.4-1.4,3.2s-2,1.3-3.4,1.3c-1.7,0-3.1-0.6-4-1.8
			s-1.5-2.9-1.5-5c0-2.1,0.5-3.7,1.4-5s2.2-1.9,3.9-1.9C81.4,300.5,82.9,301.6,83.5,303.7z M79.1,312.4c0.7,0,1.3-0.2,1.8-0.6
			s0.7-1.1,0.7-2c0-0.6-0.2-1.2-0.7-1.7s-1.1-0.8-1.9-0.8c-0.8,0-1.4,0.3-1.8,0.8s-0.7,1.1-0.7,1.8c0,0.7,0.2,1.3,0.7,1.8
			S78.3,312.4,79.1,312.4z"/>
		<path class="st11" d="M93.6,314h-2.5v-3h-5.9v-1.8l5.9-8.8h2.5v8.5h2v2.1h-2V314z M91.3,302.9l-3.8,6h3.6v-3.7
			c0-0.4,0-0.7,0.1-1.1L91.3,302.9z"/>
	</g>
	<g class="st10">
		<path class="st11" d="M1.4,363v-13.3h4.9c1.8,0,3.3,0.6,4.4,1.9s1.7,2.9,1.7,4.8s-0.6,3.5-1.7,4.7S7.9,363,5.8,363H1.4z M3.9,361
			h2c1.1,0,2-0.4,2.7-1.2s1.1-2,1.1-3.6c0-1.3-0.3-2.4-1-3.3s-1.5-1.4-2.6-1.4H3.9V361z"/>
		<path class="st11" d="M20.7,359.9l2,0.3c-0.3,0.9-0.8,1.6-1.5,2.2s-1.7,0.9-2.8,0.9c-1.4,0-2.5-0.5-3.3-1.4s-1.3-2.2-1.3-3.7
			c0-1.5,0.4-2.7,1.3-3.7s2-1.5,3.4-1.5c1.4,0,2.5,0.5,3.3,1.4s1.2,2.2,1.2,3.7l0,0.3h-6.8c0,0.7,0.1,1.2,0.2,1.6s0.4,0.8,0.8,1.1
			s0.8,0.4,1.4,0.4C19.6,361.5,20.3,360.9,20.7,359.9z M20.6,356.9c0-0.7-0.2-1.3-0.6-1.7s-0.9-0.7-1.6-0.7c-0.6,0-1.1,0.2-1.5,0.6
			s-0.7,1-0.7,1.8H20.6z"/>
		<path class="st11" d="M39.2,352.7l-2,0.4c-0.4-1.3-1.2-1.9-2.3-1.9c-1.1,0-1.9,0.5-2.4,1.5s-0.7,2-0.7,3.1c0,0.2,0,0.4,0,0.6
			c0.7-1.3,1.8-2,3.4-2c1.3,0,2.3,0.4,3.2,1.2s1.3,1.8,1.3,3c0,1.3-0.5,2.4-1.4,3.2s-2,1.3-3.4,1.3c-1.7,0-3.1-0.6-4-1.8
			s-1.5-2.9-1.5-5c0-2.1,0.5-3.7,1.4-5s2.2-1.9,3.9-1.9C37.1,349.5,38.6,350.6,39.2,352.7z M34.8,361.4c0.7,0,1.3-0.2,1.8-0.6
			s0.7-1.1,0.7-2c0-0.6-0.2-1.2-0.7-1.7s-1.1-0.8-1.9-0.8c-0.8,0-1.4,0.3-1.8,0.8s-0.7,1.1-0.7,1.8c0,0.7,0.2,1.3,0.7,1.8
			S34,361.4,34.8,361.4z"/>
		<path class="st11" d="M42.4,349.7h8.3l-0.2,2.1h-6.3l-0.4,3.9c0.8-1,1.8-1.5,3.1-1.5c1.3,0,2.4,0.4,3.2,1.3s1.3,1.9,1.3,3.2
			c0,1.3-0.5,2.4-1.4,3.3s-2.2,1.4-3.8,1.4c-1.3,0-2.4-0.3-3.4-0.9s-1.6-1.5-1.9-2.8l2.3-0.3c0.4,1.4,1.4,2,2.8,2
			c0.9,0,1.5-0.3,2-0.8s0.7-1.2,0.7-1.9c0-0.7-0.2-1.4-0.7-1.9s-1.1-0.8-1.8-0.8c-1.1,0-2,0.5-2.6,1.6l-2.1-0.4L42.4,349.7z"/>
		<path class="st11" d="M62.2,363.2c-1.5,0-2.6-0.5-3.3-1.6s-1.2-2.2-1.2-3.6c0-1.5,0.4-2.7,1.3-3.6s2-1.5,3.4-1.5
			c1.3,0,2.4,0.5,3.3,1.4s1.3,2.2,1.3,3.7c0,1.6-0.4,2.8-1.3,3.8S63.6,363.2,62.2,363.2z M62.3,361.4c1.5,0,2.2-1.1,2.2-3.3
			c0-1-0.2-1.8-0.5-2.4s-0.9-0.9-1.7-0.9c-0.8,0-1.3,0.3-1.7,0.9s-0.6,1.4-0.6,2.4c0,1.1,0.2,1.9,0.6,2.5S61.6,361.4,62.3,361.4z"/>
		<path class="st11" d="M88.7,363h-2.3v-6.1c0-1.3-0.6-1.9-1.7-1.9c-0.7,0-1.2,0.2-1.6,0.7s-0.6,1.2-0.6,2.2v5.2h-2.4v-6.1
			c0-1.3-0.5-1.9-1.6-1.9c-0.6,0-1.2,0.3-1.6,0.8s-0.7,1.2-0.7,2.1v5.2h-2.3v-9.9h2.2v2.1c0.7-1.5,1.8-2.3,3.3-2.3
			c1.5,0,2.4,0.8,2.8,2.3c0.8-1.5,1.9-2.3,3.3-2.3c1,0,1.7,0.3,2.3,0.9s0.9,1.3,0.9,2.2V363z"/>
		<path class="st11" d="M99.8,363h-2.1c-0.2-0.6-0.3-1.3-0.3-2c-0.6,1.5-1.7,2.2-3.3,2.2c-1,0-1.8-0.3-2.4-0.9s-0.9-1.3-0.9-2.2
			c0-2.3,2-3.4,6-3.4c0.2,0,0.4,0,0.6,0V356c0-1-0.7-1.5-2.1-1.5c-1.4,0-2.1,0.5-2.3,1.5l-1.9-0.3c0.1-0.8,0.5-1.5,1.3-2
			s1.8-0.8,3.2-0.8c0.8,0,1.4,0.1,1.9,0.2s0.9,0.3,1.2,0.6s0.6,0.6,0.7,1s0.2,1,0.2,1.8v4.5C99.5,361.7,99.6,362.3,99.8,363z
			 M97.3,358c-2.9,0-4.3,0.7-4.3,2.1c0,0.4,0.1,0.8,0.4,1s0.7,0.4,1.3,0.4c0.8,0,1.5-0.3,1.9-0.8s0.6-1.1,0.6-1.8V358z M97.8,348.5
			l0.6,1.5l-4.1,1.7l-0.4-1L97.8,348.5z"/>
		<path class="st11" d="M101,360.7l2.1-0.4c0.3,0.8,1,1.2,2.1,1.2c1.4,0,2.1-0.4,2.1-1.2c0-0.3-0.1-0.5-0.3-0.6s-0.5-0.3-0.8-0.3
			l-1.8-0.3c-2-0.4-3-1.4-3-2.9c0-0.9,0.3-1.6,0.9-2.2s1.6-0.9,2.8-0.9c2.1,0,3.4,0.8,3.8,2.3l-2,0.4c-0.2-0.7-0.8-1.1-1.8-1.1
			c-1.2,0-1.8,0.4-1.8,1.1c0,0.5,0.5,0.9,1.4,1.1l2.1,0.4c1.6,0.3,2.5,1.3,2.5,2.8c0,1.1-0.4,1.9-1.3,2.4s-1.9,0.8-3,0.8
			c-1,0-1.9-0.2-2.7-0.6S101.2,361.6,101,360.7z"/>
	</g>
	<g class="st10">
		<path class="st11" d="M305.4,93V79.7h4.9c1.8,0,3.3,0.6,4.4,1.9s1.7,2.9,1.7,4.8s-0.6,3.5-1.7,4.7s-2.8,1.9-4.9,1.9H305.4z
			 M307.9,91h2c1.1,0,2-0.4,2.7-1.2s1.1-2,1.1-3.6c0-1.3-0.3-2.4-1-3.3s-1.5-1.4-2.6-1.4h-2.3V91z"/>
		<path class="st11" d="M324.7,89.9l2,0.3c-0.3,0.9-0.8,1.6-1.5,2.2s-1.7,0.9-2.8,0.9c-1.4,0-2.5-0.5-3.3-1.4s-1.3-2.2-1.3-3.7
			c0-1.5,0.4-2.7,1.3-3.7s2-1.5,3.4-1.5c1.4,0,2.5,0.5,3.3,1.4s1.2,2.2,1.2,3.7l0,0.3h-6.8c0,0.7,0.1,1.2,0.2,1.6s0.4,0.8,0.8,1.1
			s0.8,0.4,1.4,0.4C323.6,91.5,324.3,90.9,324.7,89.9z M324.6,86.9c0-0.7-0.2-1.3-0.6-1.7s-0.9-0.7-1.6-0.7c-0.6,0-1.1,0.2-1.5,0.6
			s-0.7,1-0.7,1.8H324.6z"/>
		<path class="st11" d="M334.7,79.7h8.3l-0.2,2.1h-6.3l-0.4,3.9c0.8-1,1.8-1.5,3.1-1.5c1.3,0,2.4,0.4,3.2,1.3s1.3,1.9,1.3,3.2
			c0,1.3-0.5,2.4-1.4,3.3s-2.2,1.4-3.8,1.4c-1.3,0-2.4-0.3-3.4-0.9s-1.6-1.5-1.9-2.8l2.3-0.3c0.4,1.4,1.4,2,2.8,2
			c0.9,0,1.5-0.3,2-0.8s0.7-1.2,0.7-1.9c0-0.7-0.2-1.4-0.7-1.9s-1.1-0.8-1.8-0.8c-1.1,0-2,0.5-2.6,1.6l-2.1-0.4L334.7,79.7z"/>
		<path class="st11" d="M359.1,93H357c-0.2-0.6-0.3-1.3-0.3-2c-0.6,1.5-1.7,2.2-3.3,2.2c-1,0-1.8-0.3-2.4-0.9S350,91,350,90.2
			c0-2.3,2-3.4,6-3.4c0.2,0,0.4,0,0.6,0V86c0-1-0.7-1.5-2.1-1.5c-1.4,0-2.1,0.5-2.3,1.5l-1.9-0.3c0.1-0.8,0.5-1.5,1.3-2
			s1.8-0.8,3.2-0.8c0.8,0,1.4,0.1,1.9,0.2s0.9,0.3,1.2,0.6s0.6,0.6,0.7,1s0.2,1,0.2,1.8V91C358.8,91.7,358.9,92.3,359.1,93z
			 M356.6,88c-2.9,0-4.3,0.7-4.3,2.1c0,0.4,0.1,0.8,0.4,1c0.3,0.3,0.7,0.4,1.3,0.4c0.8,0,1.5-0.3,1.9-0.8s0.6-1.1,0.6-1.8V88z"/>
		<path class="st11" d="M375.7,82.7l-2,0.4c-0.4-1.3-1.2-1.9-2.3-1.9c-1.1,0-1.9,0.5-2.4,1.5s-0.7,2-0.7,3.1c0,0.2,0,0.4,0,0.6
			c0.7-1.3,1.8-2,3.4-2c1.3,0,2.3,0.4,3.2,1.2s1.3,1.8,1.3,3c0,1.3-0.5,2.4-1.4,3.2s-2,1.3-3.4,1.3c-1.7,0-3.1-0.6-4-1.8
			s-1.5-2.9-1.5-5c0-2.1,0.5-3.7,1.4-5s2.2-1.9,3.9-1.9C373.6,79.5,375.1,80.6,375.7,82.7z M371.3,91.4c0.7,0,1.3-0.2,1.8-0.6
			s0.7-1.1,0.7-2c0-0.6-0.2-1.2-0.7-1.7s-1.1-0.8-1.9-0.8c-0.8,0-1.4,0.3-1.8,0.8s-0.7,1.1-0.7,1.8c0,0.7,0.2,1.3,0.7,1.8
			S370.5,91.4,371.3,91.4z"/>
	</g>
	<g class="st10">
		<path class="st11" d="M159.4,93V79.7h4.9c1.8,0,3.3,0.6,4.4,1.9s1.7,2.9,1.7,4.8s-0.6,3.5-1.7,4.7s-2.8,1.9-4.9,1.9H159.4z
			 M161.9,91h2c1.1,0,2-0.4,2.7-1.2s1.1-2,1.1-3.6c0-1.3-0.3-2.4-1-3.3s-1.5-1.4-2.6-1.4h-2.3V91z"/>
		<path class="st11" d="M178.7,89.9l2,0.3c-0.3,0.9-0.8,1.6-1.5,2.2s-1.7,0.9-2.8,0.9c-1.4,0-2.5-0.5-3.3-1.4s-1.3-2.2-1.3-3.7
			c0-1.5,0.4-2.7,1.3-3.7s2-1.5,3.4-1.5c1.4,0,2.5,0.5,3.3,1.4s1.2,2.2,1.2,3.7l0,0.3h-6.8c0,0.7,0.1,1.2,0.2,1.6s0.4,0.8,0.8,1.1
			s0.8,0.4,1.4,0.4C177.6,91.5,178.3,90.9,178.7,89.9z M178.6,86.9c0-0.7-0.2-1.3-0.6-1.7s-0.9-0.7-1.6-0.7c-0.6,0-1.1,0.2-1.5,0.6
			s-0.7,1-0.7,1.8H178.6z"/>
		<path class="st11" d="M192.4,93.2c-1.6,0-2.9-0.6-3.8-1.9s-1.3-2.9-1.3-4.8c0-2.1,0.5-3.8,1.4-5.1s2.2-1.9,3.7-1.9
			c1.1,0,2.1,0.3,2.9,0.9s1.4,1.4,1.7,2.5s0.6,2.1,0.6,3c0,1.6-0.2,2.9-0.5,3.9s-0.9,1.8-1.7,2.5S193.6,93.2,192.4,93.2z
			 M192.4,91.3c0.7,0,1.2-0.2,1.6-0.6s0.7-1,0.8-1.7s0.2-1.8,0.2-3.1c0-1.1-0.2-2.1-0.6-3.1s-1.1-1.5-2.1-1.5c-1.8,0-2.7,1.7-2.7,5
			c0,1.5,0.2,2.7,0.6,3.7S191.4,91.3,192.4,91.3z"/>
		<path class="st11" d="M213.1,93H211c-0.2-0.6-0.3-1.3-0.3-2c-0.6,1.5-1.7,2.2-3.3,2.2c-1,0-1.8-0.3-2.4-0.9S204,91,204,90.2
			c0-2.3,2-3.4,6-3.4c0.2,0,0.4,0,0.6,0V86c0-1-0.7-1.5-2.1-1.5c-1.4,0-2.1,0.5-2.3,1.5l-1.9-0.3c0.1-0.8,0.5-1.5,1.3-2
			s1.8-0.8,3.2-0.8c0.8,0,1.4,0.1,1.9,0.2s0.9,0.3,1.2,0.6s0.6,0.6,0.7,1s0.2,1,0.2,1.8V91C212.8,91.7,212.9,92.3,213.1,93z
			 M210.6,88c-2.9,0-4.3,0.7-4.3,2.1c0,0.4,0.1,0.8,0.4,1s0.7,0.4,1.3,0.4c0.8,0,1.5-0.3,1.9-0.8s0.6-1.1,0.6-1.8V88z"/>
		<path class="st11" d="M228.2,93h-2.5v-3h-5.9v-1.8l5.9-8.8h2.5v8.5h2V90h-2V93z M225.9,81.9l-3.8,6h3.6v-3.7c0-0.4,0-0.7,0.1-1.1
			L225.9,81.9z"/>
	</g>
	<g class="st10">
		<path class="st11" d="M449.4,93V79.7h4.9c1.8,0,3.3,0.6,4.4,1.9s1.7,2.9,1.7,4.8s-0.6,3.5-1.7,4.7s-2.8,1.9-4.9,1.9H449.4z
			 M451.9,91h2c1.1,0,2-0.4,2.7-1.2s1.1-2,1.1-3.6c0-1.3-0.3-2.4-1-3.3s-1.5-1.4-2.6-1.4h-2.3V91z"/>
		<path class="st11" d="M468.7,89.9l2,0.3c-0.3,0.9-0.8,1.6-1.5,2.2s-1.7,0.9-2.8,0.9c-1.4,0-2.5-0.5-3.3-1.4s-1.3-2.2-1.3-3.7
			c0-1.5,0.4-2.7,1.3-3.7s2-1.5,3.4-1.5c1.4,0,2.5,0.5,3.3,1.4s1.2,2.2,1.2,3.7l0,0.3h-6.8c0,0.7,0.1,1.2,0.2,1.6s0.4,0.8,0.8,1.1
			s0.8,0.4,1.4,0.4C467.6,91.5,468.3,90.9,468.7,89.9z M468.6,86.9c0-0.7-0.2-1.3-0.6-1.7s-0.9-0.7-1.6-0.7c-0.6,0-1.1,0.2-1.5,0.6
			s-0.7,1-0.7,1.8H468.6z"/>
		<path class="st11" d="M477.8,79.7h9.5v1.7c-1.6,2.1-2.7,4-3.3,5.5s-0.9,3.6-1,6.1h-2.7c0.2-4.3,1.9-8.1,4.9-11.3h-7.6L477.8,79.7z
			"/>
		<path class="st11" d="M503.1,93H501c-0.2-0.6-0.3-1.3-0.3-2c-0.6,1.5-1.7,2.2-3.3,2.2c-1,0-1.8-0.3-2.4-0.9S494,91,494,90.2
			c0-2.3,2-3.4,6-3.4c0.2,0,0.4,0,0.6,0V86c0-1-0.7-1.5-2.1-1.5c-1.4,0-2.1,0.5-2.3,1.5l-1.9-0.3c0.1-0.8,0.5-1.5,1.3-2
			s1.8-0.8,3.2-0.8c0.8,0,1.4,0.1,1.9,0.2s0.9,0.3,1.2,0.6s0.6,0.6,0.7,1s0.2,1,0.2,1.8V91C502.8,91.7,502.9,92.3,503.1,93z
			 M500.6,88c-2.9,0-4.3,0.7-4.3,2.1c0,0.4,0.1,0.8,0.4,1s0.7,0.4,1.3,0.4c0.8,0,1.5-0.3,1.9-0.8s0.6-1.1,0.6-1.8V88z"/>
		<path class="st11" d="M512.5,86.4c-1.6-0.7-2.3-1.8-2.3-3.2c0-1.1,0.4-2,1.3-2.7s2.1-1.1,3.6-1.1c1.4,0,2.5,0.3,3.4,0.9
			s1.3,1.5,1.3,2.5c0,1.3-0.8,2.2-2.4,2.9c1.9,0.8,2.9,2,2.9,3.5c0,1.1-0.5,2-1.5,2.8s-2.3,1.1-3.9,1.1c-1.7,0-3-0.3-3.9-1
			s-1.3-1.5-1.3-2.6C509.7,88.2,510.6,87.1,512.5,86.4z M514.2,87.2c-0.7,0.2-1.2,0.6-1.6,1S512,89,512,89.5c0,0.5,0.2,0.9,0.7,1.3
			s1.3,0.6,2.3,0.6c0.9,0,1.5-0.2,2-0.5s0.7-0.8,0.7-1.3c0-0.4-0.2-0.8-0.6-1.2S515.8,87.7,514.2,87.2z M515.7,85.1
			c1.2-0.5,1.8-1.2,1.8-2.1c0-0.6-0.3-1.1-0.8-1.4s-1.1-0.5-1.7-0.5c-0.7,0-1.3,0.1-1.8,0.4s-0.7,0.7-0.7,1.3c0,0.6,0.3,1,0.8,1.3
			S514.7,84.8,515.7,85.1z"/>
	</g>
	<g class="st10">
		<path class="st11" d="M590.4,93V79.7h4.9c1.8,0,3.3,0.6,4.4,1.9s1.7,2.9,1.7,4.8s-0.6,3.5-1.7,4.7s-2.8,1.9-4.9,1.9H590.4z
			 M592.9,91h2c1.1,0,2-0.4,2.7-1.2s1.1-2,1.1-3.6c0-1.3-0.3-2.4-1-3.3s-1.5-1.4-2.6-1.4h-2.3V91z"/>
		<path class="st11" d="M609.7,89.9l2,0.3c-0.3,0.9-0.8,1.6-1.5,2.2s-1.7,0.9-2.8,0.9c-1.4,0-2.5-0.5-3.3-1.4s-1.3-2.2-1.3-3.7
			c0-1.5,0.4-2.7,1.3-3.7s2-1.5,3.4-1.5c1.4,0,2.5,0.5,3.3,1.4s1.2,2.2,1.2,3.7l0,0.3h-6.8c0,0.7,0.1,1.2,0.2,1.6s0.4,0.8,0.8,1.1
			s0.8,0.4,1.4,0.4C608.6,91.5,609.3,90.9,609.7,89.9z M609.6,86.9c0-0.7-0.2-1.3-0.6-1.7s-0.9-0.7-1.6-0.7c-0.6,0-1.1,0.2-1.5,0.6
			s-0.7,1-0.7,1.8H609.6z"/>
		<path class="st11" d="M618.8,90.6l2-0.6c0.5,0.9,1.3,1.4,2.2,1.4c1,0,1.8-0.5,2.3-1.4s0.8-2.2,0.8-3.9c-0.5,0.9-1,1.5-1.6,1.7
			s-1.2,0.4-1.9,0.4c-1.2,0-2.3-0.4-3.1-1.2s-1.3-1.8-1.3-3.1c0-1.3,0.4-2.4,1.3-3.2s2-1.3,3.5-1.3c1.6,0,2.9,0.6,3.9,1.7
			s1.5,2.7,1.5,4.8c0,2.1-0.5,3.9-1.4,5.2s-2.3,2-4.1,2c-1.1,0-2-0.3-2.8-0.8S619,91.3,618.8,90.6z M623.1,86.3
			c0.7,0,1.3-0.2,1.9-0.7s0.8-1.1,0.8-2c0-0.6-0.2-1.1-0.7-1.6s-1.1-0.7-1.9-0.7c-0.8,0-1.4,0.2-1.9,0.7s-0.7,1.1-0.7,1.8
			c0,0.6,0.2,1.2,0.7,1.7S622.3,86.3,623.1,86.3z"/>
		<path class="st11" d="M644.1,93H642c-0.2-0.6-0.3-1.3-0.3-2c-0.6,1.5-1.7,2.2-3.3,2.2c-1,0-1.8-0.3-2.4-0.9S635,91,635,90.2
			c0-2.3,2-3.4,6-3.4c0.2,0,0.4,0,0.6,0V86c0-1-0.7-1.5-2.1-1.5c-1.4,0-2.1,0.5-2.3,1.5l-1.9-0.3c0.1-0.8,0.5-1.5,1.3-2
			s1.8-0.8,3.2-0.8c0.8,0,1.4,0.1,1.9,0.2s0.9,0.3,1.2,0.6s0.6,0.6,0.7,1s0.2,1,0.2,1.8V91C643.8,91.7,643.9,92.3,644.1,93z
			 M641.6,88c-2.9,0-4.3,0.7-4.3,2.1c0,0.4,0.1,0.8,0.4,1s0.7,0.4,1.3,0.4c0.8,0,1.5-0.3,1.9-0.8s0.6-1.1,0.6-1.8V88z"/>
	</g>
	<g class="st10">
		<path class="st11" d="M661.7,93h-10.2v-2h4v-8.4c-1.3,1.2-2.5,2-3.6,2.4v-2.4c1.1-0.4,1.8-0.7,2.1-0.9c0.3-0.2,0.7-0.5,1.2-1
			c0.5-0.5,0.9-0.9,1.1-1.3h1.6V91h3.8V93z"/>
	</g>
	<g class="st10">
		<path class="st11" d="M667.5,93.2c-1.6,0-2.9-0.6-3.8-1.9c-0.9-1.3-1.3-2.9-1.3-4.8c0-2.1,0.5-3.8,1.4-5.1s2.2-1.9,3.7-1.9
			c1.1,0,2.1,0.3,2.9,0.9c0.8,0.6,1.4,1.4,1.7,2.5s0.6,2.1,0.6,3c0,1.6-0.2,2.9-0.5,3.9c-0.4,1-0.9,1.8-1.7,2.5
			S668.7,93.2,667.5,93.2z M667.5,91.3c0.7,0,1.2-0.2,1.6-0.6c0.4-0.4,0.7-1,0.8-1.7c0.1-0.7,0.2-1.8,0.2-3.1c0-1.1-0.2-2.1-0.6-3.1
			c-0.4-1-1.1-1.5-2.1-1.5c-1.8,0-2.7,1.7-2.7,5c0,1.5,0.2,2.7,0.6,3.7C665.8,90.9,666.5,91.3,667.5,91.3z"/>
	</g>
</g>
</svg>
