<?xml version="1.0" encoding="utf-8"?>
<!-- Generator: Adobe Illustrator 24.0.2, SVG Export Plug-In . SVG Version: 6.00 Build 0)  -->
<svg version="1.1" id="Capa_1" xmlns="http://www.w3.org/2000/svg" xmlns:xlink="http://www.w3.org/1999/xlink" x="0px" y="0px"
	 viewBox="0 0 408.9 255.2" style="enable-background:new 0 0 408.9 255.2;" xml:space="preserve">
<style type="text/css">
	.st0{fill:#15202B;}
</style>
<title>avion</title>
<path class="st0" d="M408.9,54c-5.4,14.5-17.1,23.3-29.1,31.8c-19.2,13.6-40.1,24-61.1,34.3l-4.5,2.2c8.5,34.2,17,68.2,25.5,102.2
	c1.9,7.8,0.7,10.5-6.4,14.1c-9.6,4.8-19.2,9.6-28.9,14.4c-7.1,3.5-9.6,3-14.7-3.2c-23.2-28.3-46.3-56.6-69.5-85
	c-1.9-2.4-3.4-2.7-6.3-1.6c-38.6,13.9-77.6,26.6-117.6,36.4c-26.2,6.4-52.5,5-78.9,1.8c-3.8-0.6-7.5-1.8-10.9-3.7
	c-6.9-3.6-8.6-11.2-4.3-17.7c4.9-7.4,12.4-11.9,19.6-16.6c2.7-1.7,5.4-3.3,8.3-5L3.4,118c-4.8-7.2-4.5-9.9,1.6-16
	c4.2-4.2,8.5-8.5,12.7-12.7c5.2-5.1,7.8-5.6,14.2-2.4c19.5,9.7,39,19.5,58.4,29.3c2.1,1.3,4.9,1.3,7,0c10-5.2,20.1-10.2,30.6-15.4
	c-1.9-1.1-3.4-2-4.9-2.9C95.6,82.3,68.3,66.7,41,51c-8.2-4.7-9-10.1-2.3-16.8C48.7,24.2,58.9,14.2,68.8,4c3.7-3.8,7.6-4.9,12.8-3.3
	c46.3,14,92.6,27.9,138.9,41.8c2.7,0.9,5.7,0.8,8.3-0.4c27.8-12,56.5-21.3,86.8-24.3c23.6-2.4,47.1-1.7,69.7,6.7
	c6.1,2.3,11.9,6.4,16.9,10.8c3.1,2.8,4.5,7.6,6.6,11.5V54z M250.9,51.4c3.6,3.1,5.9,6.4,4,10.3c-1.3,2.5-3.3,4.7-5.8,6.2
	c-24.6,15-49.4,29.8-74.2,44.6c-14.3,8.6-12,8.5-26,0.4c-2.1-1.4-4.8-1.5-6.9-0.1c-14.1,7.2-28.3,14.1-42.4,21.3
	c-3.7,2.1-8.3,2.1-12.1,0c-17.9-9.1-35.9-18-53.8-27c-6.6-3.3-6.5-3.2-11.8,1.9c-2.1,2-2.1,3.3-0.5,5.6c6.8,9.8,13.3,19.9,20,29.8
	c2.6,3.9,5.3,7.7,7.7,11.6c3.3,5.4,2.3,9.9-3.1,13.3c-2.8,1.8-5.8,3.2-8.6,5c-5.3,3.2-10.5,6.6-15.7,9.9l0.3,1.8
	c16.1,0.4,32.3,1.4,48.5,0.9c17.5-0.5,34.3-5.4,51.1-10.3c70.1-20.6,138.5-46.9,204.2-78.9c18.2-8.8,36.2-18.2,52.3-30.4
	c4.3-3.3,8.2-7.1,11.6-11.4c4.1-5.3-0.4-13.6-7.1-13.4c-15.7,0.3-30.6,3.7-43.3,13.6c-1.3,1.1-2.8,2-4.4,2.7c-3.8,1.3-8-0.3-9.9-3.8
	c-2.2-3.6-1.3-8.2,2.1-10.7c4.4-3.5,9.2-6.5,14.3-10.1C309.7,32.6,280.6,41.1,250.9,51.4L250.9,51.4z M56.8,40.3
	c0.9,0.6,1.5,1.1,2.2,1.5c33.5,19.1,66.9,38.3,100.3,57.4c2.2,1.3,3.6,0.7,5.4-0.4C184,87.2,203.4,75.6,222.8,64
	c0.8-0.5,1.6-1.1,2.8-2c-1.9-0.6-3.3-1.1-4.6-1.5L169,44.8c-28.9-8.7-57.8-17.3-86.6-25.9c-1.3-0.4-3.5-0.6-4.3,0.2
	C70.9,26,64,33.1,56.8,40.3z M234.9,155.9c21.9,26.8,43.7,53.4,65.6,80.2c6.2-3.1,12-6.2,18.1-8.9c2.9-1.3,3.7-2.7,2.9-6
	c-7.5-29.2-14.7-58.5-22-87.7c-0.3-1.2-0.8-2.4-1.1-3.4L234.9,155.9z"/>
</svg>
