<svg id="Capa_1" data-name="Capa 1" xmlns="http://www.w3.org/2000/svg" viewBox="0 0 408.87 255.23">
  <defs>
    <style>
      .cls-1 {
        fill: #ddd;
      }
    </style>
  </defs>
  <title>avion</title>
  <path class="cls-1" d="M408.87,54c-5.39,14.54-17.14,23.35-29.09,31.82-19.16,13.56-40.1,24-61.14,34.29l-4.46,2.22c8.55,34.24,17.05,68.23,25.55,102.22,1.94,7.78.73,10.49-6.4,14.05q-14.43,7.23-28.88,14.44c-7.06,3.52-9.65,3-14.74-3.24q-34.77-42.45-69.46-85c-1.93-2.37-3.44-2.67-6.28-1.64-38.63,13.94-77.64,26.61-117.56,36.43-26.23,6.45-52.51,5-78.87,1.77a32.58,32.58,0,0,1-10.88-3.67c-6.9-3.61-8.64-11.18-4.27-17.67,4.95-7.37,12.38-11.94,19.64-16.63,2.67-1.72,5.42-3.3,8.28-5L3.38,118c-4.76-7.15-4.48-9.9,1.57-16q6.34-6.36,12.7-12.7c5.16-5.14,7.75-5.6,14.18-2.38,19.49,9.73,39,19.45,58.43,29.31a6.72,6.72,0,0,0,7,0c10-5.21,20.12-10.16,30.6-15.41-1.93-1.14-3.39-2-4.88-2.89q-41-23.46-82-46.91c-8.22-4.7-9-10.12-2.3-16.79,10.06-10.07,20.23-20,30.15-30.25C72.53.15,76.41-.87,81.65.72c46.27,14,92.6,27.86,138.88,41.84a11.22,11.22,0,0,0,8.32-.43c27.83-12,56.5-21.3,86.78-24.31,23.57-2.35,47.15-1.74,69.68,6.7,6.15,2.31,11.93,6.41,16.91,10.79,3.15,2.78,4.49,7.61,6.65,11.52Zm-158-2.58c3.63,3.12,5.88,6.36,4,10.26a15.53,15.53,0,0,1-5.76,6.17c-24.65,15-49.43,29.75-74.15,44.61-14.26,8.58-12,8.47-26,.38a6.36,6.36,0,0,0-6.94-.11c-14.09,7.17-28.32,14.08-42.38,21.3a12.11,12.11,0,0,1-12.06,0c-17.88-9.1-35.86-18-53.81-27-6.6-3.3-6.49-3.19-11.83,1.89-2.07,2-2.14,3.28-.52,5.63,6.78,9.85,13.33,19.87,20,29.84,2.58,3.87,5.26,7.68,7.71,11.63,3.32,5.37,2.27,9.88-3.06,13.27-2.8,1.78-5.8,3.24-8.63,5-5.26,3.23-10.47,6.56-15.7,9.85l.33,1.75c16.15.36,32.33,1.36,48.46.91,17.5-.48,34.35-5.45,51.06-10.33A1318.37,1318.37,0,0,0,325.83,97.62C344,88.83,362,79.47,378.16,67.24a61.78,61.78,0,0,0,11.57-11.39c4.06-5.27-.35-13.57-7.1-13.44-15.71.29-30.57,3.71-43.33,13.6a17.25,17.25,0,0,1-4.38,2.71,8.24,8.24,0,0,1-9.94-3.8,8.06,8.06,0,0,1,2.07-10.72c4.41-3.5,9.17-6.54,14.25-10.11C309.71,32.56,280.56,41.06,250.91,51.44ZM56.78,40.31c.88.62,1.48,1.11,2.15,1.49q50.19,28.7,100.35,57.44c2.18,1.25,3.57.72,5.38-.37q29-17.49,58.12-34.9c.82-.5,1.56-1.14,2.77-2-1.91-.63-3.26-1.11-4.63-1.52L169,44.84q-43.31-13-86.64-25.93c-1.33-.4-3.49-.57-4.28.19C70.93,26,64,33.08,56.78,40.31ZM234.85,155.86c21.92,26.79,43.72,53.42,65.59,80.16,6.18-3.09,12-6.2,18.06-8.93,2.94-1.34,3.71-2.71,2.87-6-7.45-29.21-14.67-58.48-22-87.72-.3-1.21-.78-2.38-1.13-3.43Z"/>
</svg>
