<?xml version="1.0" encoding="utf-8"?>
<!-- Generator: Adobe Illustrator 24.0.2, SVG Export Plug-In . SVG Version: 6.00 Build 0)  -->
<svg version="1.1" id="Capa_1" xmlns="http://www.w3.org/2000/svg" xmlns:xlink="http://www.w3.org/1999/xlink" x="0px" y="0px"
	 viewBox="0 0 383.3 311.2" style="enable-background:new 0 0 383.3 311.2;" xml:space="preserve">
<style type="text/css">
	.st0{fill:#15202B;}
	.st1{fill:#DDDDDD;}
</style>
<title>dinero_problema</title>
<path class="st0" d="M383.3,293.6c-1.5,3.1-2.6,6.5-4.6,9.2c-4.4,5.9-10.6,8.4-17.9,8.4c-29.6,0-59.1,0-88.7,0h-28.4
	c-3,0-5.4-1.3-5.8-4.2c-0.2-2,0.4-4,1.7-5.6c0.9-1.1,3.1-1.5,4.7-1.6c2.7-0.3,5.5-0.1,8.2-0.1H359c9.4,0,12.9-3.4,12.9-12.8
	c0-64.2,0-128.5,0-192.7c0-9-3.7-12.7-12.7-12.7c-1.6,0.1-3.2,0.1-4.9-0.1c-2.7-0.5-4.6-2.2-4.7-5c-0.3-2.8,1.4-5.3,4.1-6
	c10.3-3.1,22.8,2.4,27.3,12c0.8,1.7,1.5,3.4,2.2,5L383.3,293.6z"/>
<path class="st0" d="M265.1,94.7h26.1c10,0,20,0,29.9,0c5.1,0,6.9,1.7,7.4,6.8c1.3,13.5,9.9,22.2,23.3,23.3c5,0.4,6.8,2.3,6.8,7.4
	c0,38.9,0,77.8,0,116.6c0,5.2-1.7,7-6.8,7.3c-12.9,1-22.2,10.2-23.3,23.1c-0.5,5.9-2.2,7.4-8.9,7.4H79.4c-5.7,0-11.5,0-17.2,0
	c-5.1-0.1-7-1.8-7.5-6.9c-1.3-13.9-10-22.4-24-23.5c-4.1-0.3-6.1-2.3-6.1-6.4c-0.1-15.1-0.1-30.2,0-45.4c0-4,2.3-6.4,5.8-6.4
	s5.7,2.4,5.7,6.5c0,12.4,0.1,24.8,0,37.1c0,2.6,0.8,3.5,3.3,4.2c13.4,3.8,22.2,12.5,25.9,26c0.7,2.4,1.7,3.1,4.1,3.1
	c81.7-0.1,163.4-0.1,245.1-0.1c0.7,0,1.5-0.1,2.5-0.1c0.3-0.9,0.7-1.7,1-2.7c3.8-13.8,12.8-22.6,26.5-26.4c2.1-0.6,2.8-1.2,2.8-3.4
	c-0.1-34.7-0.1-69.5-0.1-104.2c0-0.5-0.1-1-0.2-1.7c-16.1-3.7-26.1-13.7-29.9-30.1h-25.9c-9.1,0-18.2-0.1-27.3,0.1
	c-1.3,0-3.3,0.8-3.8,1.9c-5.9,12.2-14.9,22.6-26.1,30.3c-0.4,0.3-0.9,0.5-1.4,0.8c7.8,10.5,12.9,22.8,14.9,35.7
	c3.8,25.6-0.4,49.4-17.3,69.7c-21.7,26-56.2,25.5-77.6-0.6c-11.3-13.8-16.8-29.9-17.9-47.6c-1.2-20.7,3.5-39.9,15.7-56.9
	c-3.5-2.9-7-5.5-10.2-8.4c-6.8-6.1-12.3-13.5-16.3-21.8c-1.1-2.3-2.3-3.3-5-3.3c-17.4,0.2-34.9,0.1-52.7,0.1
	c-3.8,16.1-13.6,26.3-30.1,30.1v4c0,12,0,24,0,36c0,4.2-2.3,7-5.6,7s-5.8-2.7-5.8-6.8c0-14.9,0-29.7,0-44.6c0-4.6,1.9-6.9,6.5-7
	c13.4-0.3,23.5-11.8,23.7-23.4c0.1-5.1,2.2-6.8,7.3-6.8c17.2,0,34.4,0,51.7,0h4.3c-0.7-4.5-1.4-8.6-2.2-13.2h-4
	c-29.4,0-58.9,0-88.3,0c-8.5,0-12.3,3.8-12.3,12.4V287c0,9.2,3.5,12.7,12.6,12.7c63,0,126,0,189,0c1.9-0.1,3.7,0.1,5.6,0.5
	c2.6,0.5,4.3,3,3.9,5.6c-0.3,2.8-1.8,4.6-4.6,5.1c-1.2,0.2-2.5,0.2-3.7,0.2c-63.5,0-127,0-190.5,0C8.8,311.1,0,302.3,0,287.6
	c0-64.7,0-129.5,0-194.3C0,78.9,8.9,70.1,23.3,70c29.4,0,58.9,0,88.3,0h4.5c2.7-24.6,13.8-44.1,34.4-57.8
	c13.1-8.7,28.6-13,44.3-12.1c18.5,0.6,36.2,8.2,49.3,21.3c13.6,13.2,21,29.5,22.8,48.6h59c0.9,0,1.8,0,2.6,0c3.7,0.2,6,2.4,6.1,5.7
	c0.1,3.2-2.4,5.6-6.1,5.6c-9,0.1-18,0-27,0h-34.2C266.6,85.8,265.9,89.9,265.1,94.7z"/>
<path d="M237.3,191.3c-0.3-16-3.8-30.4-12.7-43.3c-1.6-2.4-2.9-2.8-5.7-1.8c-17.6,7-37.2,7-54.7-0.1c-2.8-1.1-3.9-0.4-5.4,1.7
	c-7.2,10.4-11.5,22.6-12.4,35.3c-1.6,20.1,2.5,38.9,15.9,54.6c16.6,19.4,41.6,19.4,58.5,0.2C232.5,224.4,236.8,208.3,237.3,191.3z"
	/>
<path d="M255.2,74.7c0-2.7-0.1-5.3-0.4-8c-5-27.2-20.7-45-47.3-52.9c-6.5-1.9-12.8-2.9-19.3,1.3c-21.4,13.5-33.7,32.7-34.5,57.9
	c-0.9,28.3,11.9,49.6,36.2,64c3,1.8,6.5,2.5,9.9,1.9C231.7,134.7,255.2,107.9,255.2,74.7z"/>
<path class="st0" d="M108,190.6c0,14.2-11.5,25.6-25.7,25.6s-25.6-11.5-25.6-25.7c0-14.1,11.5-25.6,25.6-25.6
	C96.5,164.9,108,176.4,108,190.6z M82.5,176.6c-7.7-0.1-14.1,6.1-14.3,13.8c-0.3,7.8,5.8,14.3,13.6,14.6s14.3-5.8,14.6-13.6
	c0-0.2,0-0.5,0-0.7C96.5,182.9,90.3,176.6,82.5,176.6C82.6,176.6,82.5,176.6,82.5,176.6L82.5,176.6z"/>
<path class="st0" d="M275.3,190.6c0-14.2,11.4-25.7,25.6-25.7s25.7,11.4,25.7,25.6s-11.4,25.7-25.6,25.7
	C286.8,216.2,275.3,204.8,275.3,190.6z M300.9,176.6c-7.7,0-14,6.2-14.1,13.9l0,0c0,7.8,6.3,14.2,14.1,14.3h0.1
	c7.7-0.2,13.9-6.5,14-14.2C314.9,182.8,308.6,176.5,300.9,176.6z"/>
<path class="st0" d="M36,280.7c0.1,3.2-2.4,5.8-5.6,5.8s-5.8-2.4-5.8-5.6c-0.2-3.1,2.1-5.9,5.3-6.1c3.1-0.2,5.9,2.1,6.1,5.3
	C36,280.3,36,280.5,36,280.7z"/>
<path class="st0" d="M358.6,280.7c0.1,3.2-2.4,5.8-5.5,5.9s-5.8-2.4-5.9-5.5c-0.3-3.1,2.1-5.9,5.2-6.2c3.1-0.3,5.9,2.1,6.2,5.2
	C358.6,280.3,358.7,280.5,358.6,280.7z"/>
<path class="st0" d="M36,100.3c0,3.2-2.5,5.7-5.7,5.8s-5.7-2.5-5.8-5.7c0-3.2,2.5-5.7,5.7-5.8h0.1C33.4,94.7,36,97.2,36,100.3z"/>
<path class="st0" d="M358.6,100.6c-0.1,3.2-2.7,5.6-5.9,5.5c-3.2-0.1-5.6-2.7-5.5-5.9s2.7-5.6,5.9-5.5h0.1
	C356.3,94.8,358.7,97.5,358.6,100.6z"/>
<path class="st1" d="M237.3,191.3c-0.5,16.9-4.8,33.1-16.5,46.5c-16.8,19.3-41.8,19.3-58.5-0.2c-13.4-15.7-17.5-34.4-15.9-54.6
	c0.9-12.7,5.1-24.8,12.4-35.3c1.5-2.1,2.6-2.8,5.4-1.7c17.5,7.1,37.1,7.1,54.7,0.1c2.8-1.1,4.1-0.6,5.7,1.8
	C233.4,160.9,237,175.4,237.3,191.3z"/>
<path class="st1" d="M255.2,74.7c0,33.3-23.6,60-55.4,64.3c-3.4,0.6-6.9-0.1-9.9-1.9c-24.3-14.4-37.1-35.7-36.2-64
	c0.8-25.3,13.1-44.4,34.5-57.9c6.5-4.1,12.8-3.2,19.3-1.3c26.6,7.9,42.3,25.6,47.3,52.9C255.1,69.3,255.3,72,255.2,74.7z
	 M211.4,62.2c0-6.8,0.1-13.5,0-20.2c-0.1-11.3-9-20.3-19.9-20.2c-10.9,0.2-19.6,9.1-19.6,20c-0.1,13.5-0.3,27,0.1,40.5
	c0.3,3.8,1.4,7.5,3.3,10.9c1.2,2.3,1.3,3.6-0.1,5.9c-4.4,6.8-4.4,13.9-0.3,20.8c4,6.5,10.1,9.9,17.6,9.4c16-1.1,23.9-17.6,15.1-31
	c-1.1-1.7-0.7-2.6-0.1-4.3c1.6-4.1,3.3-8.3,3.7-12.7C211.8,75,211.4,68.6,211.4,62.2z"/>
<path class="st1" d="M82.5,176.6c7.7,0,14,6.3,13.9,14.1l0,0c0,7.8-6.3,14.1-14.1,14.1s-14.1-6.3-14.1-14.1s6.3-14.1,14.1-14.1
	C82.4,176.6,82.5,176.6,82.5,176.6z"/>
<path class="st1" d="M300.9,176.6c7.8,0,14.1,6.2,14.1,14c-0.1,7.7-6.3,14-14,14.2c-7.8,0-14.2-6.3-14.2-14.1v-0.1
	C286.8,182.8,293.1,176.5,300.9,176.6C300.8,176.6,300.8,176.6,300.9,176.6z"/>
<path class="st0" d="M211.4,62.2c0,6.4,0.5,12.8-0.1,19.1c-0.4,4.3-2.1,8.6-3.7,12.7c-0.6,1.7-1,2.6,0.1,4.3
	c8.8,13.4,0.9,29.9-15.1,31c-7.4,0.5-13.6-2.8-17.6-9.4c-4.2-6.9-4.1-14.1,0.3-20.8c1.4-2.2,1.3-3.5,0.1-5.9c-1.9-3.3-3-7-3.3-10.9
	c-0.4-13.5-0.2-27-0.1-40.5c0-10.9,8.7-19.8,19.6-20c10.9-0.1,19.7,8.8,19.9,20.2C211.4,48.7,211.4,55.5,211.4,62.2z M183.9,62.2
	c0,6.4,0,12.7,0,19.1c0.1,5.7,3,9,7.8,8.9c4.6-0.1,7.5-3.3,7.5-8.8c0.1-12.9,0.1-25.7,0-38.6c0-5.8-2.9-8.9-7.8-8.9
	c-4.7,0.1-7.4,3.2-7.5,8.8C183.9,49.3,184,55.8,183.9,62.2L183.9,62.2z M199.2,109.7c0.1-4.2-3.2-7.7-7.4-7.8
	c-4.2-0.1-7.7,3.2-7.8,7.4s3.2,7.7,7.4,7.8C195.7,117.2,199.1,113.9,199.2,109.7L199.2,109.7z"/>
<path class="st1" d="M184,62.3c0-6.5,0-13,0-19.5c0.1-5.5,2.8-8.7,7.5-8.8c4.9-0.1,7.8,3.1,7.8,8.9c0.1,12.9,0.1,25.7,0,38.6
	c0,5.5-2.9,8.7-7.5,8.8c-4.8,0.1-7.7-3.2-7.8-8.9C183.9,75,184,68.6,184,62.3z"/>
<path class="st1" d="M199.2,109.7c-0.1,4.2-3.6,7.5-7.8,7.4s-7.5-3.6-7.4-7.8l0,0c0.1-4.2,3.6-7.5,7.8-7.4
	C196,102,199.3,105.5,199.2,109.7z"/>
</svg>
