<svg id="Capa_1" data-name="Capa 1" xmlns="http://www.w3.org/2000/svg" viewBox="0 0 383.25 311.16">
  <defs>
    <style>
      .cls-1 {
        fill: #ddd;
      }

      .cls-2 {
        fill: #15202b;
      }
    </style>
  </defs>
  <title>dinero_problema</title>
  <path class="cls-1" d="M383.25,293.56c-1.52,3.1-2.64,6.51-4.65,9.24-4.37,5.94-10.59,8.37-17.92,8.36q-44.34-.07-88.68,0H243.56c-3,0-5.4-1.25-5.82-4.17a8.06,8.06,0,0,1,1.67-5.61c.9-1.11,3.08-1.45,4.74-1.61,2.73-.25,5.49-.08,8.23-.08H359c9.43,0,12.87-3.43,12.87-12.83q0-96.36,0-192.72c0-9-3.66-12.68-12.71-12.7a27.13,27.13,0,0,1-4.86-.14c-2.71-.5-4.57-2.22-4.73-5a5.51,5.51,0,0,1,4.14-6c10.28-3.06,22.77,2.45,27.34,12,.79,1.65,1.45,3.37,2.17,5Z"/>
  <path class="cls-1" d="M265.11,94.66h26.11c10,0,20,0,29.94,0,5.1,0,6.9,1.71,7.38,6.85,1.26,13.54,9.94,22.22,23.32,23.31,5,.41,6.8,2.33,6.8,7.44q0,58.32,0,116.62c0,5.19-1.69,7-6.8,7.33-12.92.95-22.23,10.16-23.3,23.06-.49,5.9-2.23,7.36-8.89,7.36H79.4c-5.74,0-11.48,0-17.22,0-5.14-.06-7-1.81-7.46-6.88-1.33-13.9-10-22.42-24-23.55-4.15-.34-6.13-2.29-6.14-6.45q-.08-22.68,0-45.37c0-4,2.29-6.35,5.8-6.35s5.65,2.41,5.66,6.47c0,12.37.11,24.75,0,37.12,0,2.64.79,3.5,3.31,4.2,13.43,3.77,22.17,12.48,25.89,26,.66,2.41,1.68,3.09,4.08,3.09q122.57-.09,245.14-.06c.74,0,1.48-.07,2.47-.13.33-.87.74-1.74,1-2.66,3.84-13.83,12.77-22.58,26.49-26.37,2.06-.57,2.82-1.21,2.82-3.41q-.1-52.11-.06-104.24c0-.5-.09-1-.16-1.71-16.07-3.74-26.13-13.67-29.92-30.1H291.23c-9.11,0-18.22-.08-27.32.09-1.31,0-3.3.85-3.8,1.88A77.6,77.6,0,0,1,234,138.47c-.41.29-.87.51-1.4.81A79.62,79.62,0,0,1,247.48,175c3.83,25.58-.37,49.43-17.32,69.72-21.68,25.95-56.18,25.53-77.65-.58-11.34-13.8-16.82-29.9-17.86-47.55-1.22-20.72,3.46-39.9,15.72-56.92-3.5-2.9-7-5.53-10.2-8.45a70.12,70.12,0,0,1-16.25-21.78c-1.08-2.25-2.28-3.29-5-3.27-17.45.15-34.91.08-52.68.08-3.77,16.13-13.6,26.29-30.14,30.09v4c0,12,0,24,0,36,0,4.24-2.27,7-5.65,7s-5.82-2.67-5.83-6.82q0-22.3,0-44.62c0-4.6,1.88-6.86,6.46-7,13.4-.29,23.49-11.83,23.72-23.42.1-5.12,2.22-6.81,7.35-6.81q25.83,0,51.65,0h4.32c-.73-4.46-1.41-8.6-2.18-13.24h-4q-44.17,0-88.33,0c-8.49,0-12.26,3.81-12.27,12.39V286.93c0,9.18,3.5,12.73,12.6,12.73q94.5,0,189,0a20.92,20.92,0,0,1,5.55.51,4.91,4.91,0,0,1,3.86,5.63c-.27,2.81-1.76,4.65-4.59,5.14a22,22,0,0,1-3.73.17q-95.25,0-190.5,0C8.79,311.13,0,302.34,0,287.63Q0,190.51,0,93.38C0,78.9,8.86,70.05,23.33,70q44.16,0,88.32,0h4.47c2.66-24.59,13.8-44.13,34.4-57.81A72.53,72.53,0,0,1,194.85.08a73.4,73.4,0,0,1,49.33,21.29C257.81,34.56,265.2,50.87,267,70H326c.87,0,1.75,0,2.62,0,3.66.15,6,2.36,6.1,5.71.08,3.19-2.38,5.59-6.13,5.62-9,.09-18,0-27,0H267.37C266.63,85.79,265.92,89.93,265.11,94.66Z"/>
  <path d="M237.28,191.32c-.26-16-3.83-30.38-12.69-43.28-1.61-2.35-2.9-2.83-5.7-1.76a73.48,73.48,0,0,1-54.7-.1c-2.76-1.07-3.93-.42-5.41,1.7a70.2,70.2,0,0,0-12.37,35.25c-1.6,20.15,2.48,38.86,15.93,54.55,16.65,19.43,41.65,19.43,58.46.17C232.52,224.41,236.81,208.26,237.28,191.32Z"/>
  <path d="M255.22,74.68a56,56,0,0,0-.45-8c-5-27.24-20.67-45-47.25-52.87-6.48-1.91-12.78-2.88-19.29,1.25C166.87,28.61,154.55,47.74,153.74,73c-.89,28.27,11.93,49.59,36.19,64a14.36,14.36,0,0,0,9.89,1.95C231.66,134.68,255.2,107.94,255.22,74.68Z"/>
  <path class="cls-1" d="M108,190.59a25.63,25.63,0,1,1-25.61-25.7A25.71,25.71,0,0,1,108,190.59Zm-25.46-14a14.09,14.09,0,0,0-14.26,13.79,14.1,14.1,0,1,0,28.19.28A14,14,0,0,0,82.54,176.57Z"/>
  <path class="cls-1" d="M275.25,190.64a25.63,25.63,0,1,1,51.26-.1,25.63,25.63,0,1,1-51.26.1Zm25.63-14.07a14,14,0,0,0-14.09,13.91A14.19,14.19,0,0,0,301,204.74a14.34,14.34,0,0,0,14-14.22A14.07,14.07,0,0,0,300.88,176.57Z"/>
  <path class="cls-1" d="M36,280.73a5.71,5.71,0,0,1-11.42.25A5.72,5.72,0,1,1,36,280.73Z"/>
  <path class="cls-1" d="M358.65,280.68a5.71,5.71,0,0,1-11.42.35,5.72,5.72,0,1,1,11.42-.35Z"/>
  <path class="cls-1" d="M36,100.35a5.72,5.72,0,1,1-5.69-5.67A5.72,5.72,0,0,1,36,100.35Z"/>
  <path class="cls-1" d="M358.65,100.58a5.72,5.72,0,1,1-5.46-5.89A5.72,5.72,0,0,1,358.65,100.58Z"/>
  <path class="cls-2" d="M237.28,191.32c-.47,16.94-4.76,33.09-16.48,46.53-16.81,19.26-41.81,19.26-58.46-.17-13.45-15.69-17.53-34.4-15.93-54.55a70.2,70.2,0,0,1,12.37-35.25c1.48-2.12,2.65-2.77,5.41-1.7a73.48,73.48,0,0,0,54.7.1c2.8-1.07,4.09-.59,5.7,1.76C233.45,160.94,237,175.36,237.28,191.32Z"/>
  <path class="cls-2" d="M255.22,74.68c0,33.26-23.56,60-55.4,64.29a14.36,14.36,0,0,1-9.89-1.95c-24.26-14.42-37.08-35.74-36.19-64,.81-25.27,13.13-44.4,34.49-57.94,6.51-4.13,12.81-3.16,19.29-1.25,26.58,7.85,42.25,25.63,47.25,52.87A56,56,0,0,1,255.22,74.68ZM211.37,62.23c0-6.75.07-13.49,0-20.24-.15-11.34-9-20.27-19.85-20.16a19.94,19.94,0,0,0-19.6,20c-.11,13.49-.25,27,.12,40.47a26.89,26.89,0,0,0,3.27,10.89c1.18,2.34,1.32,3.62-.13,5.86-4.37,6.78-4.45,13.91-.25,20.83,4,6.53,10.11,9.9,17.56,9.38,16-1.12,23.88-17.6,15.08-31-1.09-1.67-.73-2.61-.08-4.28,1.6-4.09,3.31-8.34,3.74-12.65C211.84,75,211.38,68.6,211.37,62.23Z"/>
  <path class="cls-2" d="M82.54,176.57a14,14,0,0,1,13.93,14.07,14.1,14.1,0,1,1-13.93-14.07Z"/>
  <path class="cls-2" d="M300.88,176.57a14.07,14.07,0,0,1,14.1,14,14.34,14.34,0,0,1-14,14.22,14.19,14.19,0,0,1-14.23-14.26A14,14,0,0,1,300.88,176.57Z"/>
  <path class="cls-1" d="M211.37,62.23c0,6.37.47,12.78-.15,19.09-.43,4.31-2.14,8.56-3.74,12.65-.65,1.67-1,2.61.08,4.28,8.8,13.43.91,29.91-15.08,31-7.45.52-13.6-2.85-17.56-9.38-4.2-6.92-4.12-14.05.25-20.83,1.45-2.24,1.31-3.52.13-5.86A26.89,26.89,0,0,1,172,82.32c-.37-13.48-.23-27-.12-40.47a19.94,19.94,0,0,1,19.6-20c10.86-.11,19.7,8.82,19.85,20.16C211.44,48.74,211.37,55.48,211.37,62.23Zm-27.42,0c0,6.37,0,12.73,0,19.1.06,5.71,3,9,7.8,8.91,4.62-.08,7.48-3.31,7.51-8.82q.1-19.29,0-38.57c0-5.76-2.92-8.93-7.8-8.86-4.67.06-7.45,3.22-7.51,8.77C183.9,49.27,184,55.76,184,62.25Zm15.28,47.46a7.6,7.6,0,1,0-15.2-.34,7.6,7.6,0,1,0,15.2.34Z"/>
  <path class="cls-2" d="M184,62.25c0-6.49,0-13,0-19.47.06-5.55,2.84-8.71,7.51-8.77,4.88-.07,7.78,3.1,7.8,8.86q.09,19.29,0,38.57c0,5.51-2.89,8.74-7.51,8.82-4.8.08-7.74-3.2-7.8-8.91C183.9,75,184,68.62,184,62.25Z"/>
  <path class="cls-2" d="M199.23,109.71a7.6,7.6,0,1,1-15.2-.34,7.6,7.6,0,1,1,15.2.34Z"/>
</svg>
