<?xml version="1.0" encoding="utf-8"?>
<!-- Generator: Adobe Illustrator 24.0.2, SVG Export Plug-In . SVG Version: 6.00 Build 0)  -->
<svg version="1.1" id="Capa_1" xmlns="http://www.w3.org/2000/svg" xmlns:xlink="http://www.w3.org/1999/xlink" x="0px" y="0px"
	 viewBox="0 0 35 35" style="enable-background:new 0 0 35 35;" xml:space="preserve">
<style type="text/css">
	.st0{opacity:0.6;}
	.st1{fill:none;stroke:#DDDDDD;stroke-miterlimit:10;}
	.st2{opacity:0.6;fill:none;stroke:#DDDDDD;stroke-miterlimit:10;enable-background:new    ;}
</style>
<g class="st0">
	<path class="st1" d="M7.2,10.9h20.6c0.4,0,0.6,0.3,0.6,0.6v12c0,0.4-0.3,0.6-0.6,0.6H7.2c-0.4,0-0.6-0.3-0.6-0.6v-12
		C6.6,11.1,6.8,10.9,7.2,10.9z"/>
	<path class="st1" d="M6.8,11l10.1,7.2c0.4,0.3,0.9,0.3,1.3,0L28.3,11"/>
	<line class="st1" x1="6.7" y1="23.9" x2="14.3" y2="16.4"/>
	<line class="st1" x1="28.2" y1="23.9" x2="20.7" y2="16.4"/>
</g>
<path class="st2" d="M0.5,18.7c0-0.8,0-1.6,0-2.4c0.1-0.5,0.1-1.1,0.2-1.6C1.4,10.9,3.2,7.6,6,5c2.4-2.2,5.3-3.6,8.5-4.2
	c0.7-0.1,1.2-0.2,1.8-0.3c0.8,0,1.6,0,2.4,0c0.5,0.1,1.1,0.1,1.6,0.2c4.4,0.8,7.9,2.9,10.6,6.4c3.2,4.2,4.3,9,3.1,14.2
	c-0.9,3.9-2.9,7.1-6.1,9.6c-3.9,3-8.3,4.1-13.2,3.4c-3.3-0.5-6.2-2-8.7-4.2c-2.8-2.6-4.6-5.8-5.2-9.5C0.7,19.9,0.6,19.3,0.5,18.7z"
	/>
</svg>
