<?xml version="1.0" encoding="utf-8"?>
<!-- Generator: Adobe Illustrator 24.0.2, SVG Export Plug-In . SVG Version: 6.00 Build 0)  -->
<svg version="1.1" id="Capa_1" xmlns="http://www.w3.org/2000/svg" xmlns:xlink="http://www.w3.org/1999/xlink" x="0px" y="0px"
	 viewBox="0 0 510.6 83.3" style="enable-background:new 0 0 510.6 83.3;" xml:space="preserve">
<style type="text/css">
	.st0{fill:none;stroke:#DDDDDD;stroke-miterlimit:10;}
</style>
<path class="st0" d="M476.1,44.5c-14.8,0-33.1-19.2-33.9-20.1c-8.3-9.7-16.8-18.3-29.1-18.3c-13.6,0-29.6,18-29.7,18.2l-1.4,1.5
	c-8.8,9.6-17.1,18.6-31.9,18.6c-14.8,0-33.1-19.2-33.9-20.1c-8.3-9.7-16.8-18.3-29.1-18.3c-13.6,0-29.6,18-29.7,18.2l-1.3,1.4
	c-10,10.5-18,18.8-32,18.8c-14.8,0-33.1-19.2-33.9-20.1c-8.3-9.7-16.8-18.3-29.1-18.3c-13.6,0-29.5,18-29.7,18.2l-1.4,1.5
	c-8.8,9.6-17.1,18.6-31.9,18.6c-14.8,0-33.1-19.2-33.9-20.1C55.9,14.7,47.5,6.1,35.1,6.1c-12.3,0-23.6,6.8-29.3,17.7
	C5.1,25.2,3.4,25.7,2,25c-1.4-0.7-1.9-2.4-1.2-3.8C7.6,8.4,20.7,0.5,35.1,0.5c14.8,0,24.5,10,33.3,20.2c4.7,5,19.4,18.2,29.7,18.2
	c12.3,0,19.1-7.4,27.8-16.8l1.4-1.5c0.7-0.8,17.8-20.1,33.9-20.1c14.8,0,24.5,10,33.3,20.2c4.7,5,19.4,18.2,29.7,18.2
	c11.6,0,18.1-6.8,27.9-17l1.2-1.3c0.6-0.7,17.7-20,33.8-20c14.8,0,24.5,10,33.3,20.2c4.7,5,19.4,18.2,29.7,18.2
	c12.3,0,19.1-7.4,27.8-16.8l1.4-1.5c0.7-0.8,17.8-20.1,33.9-20.1c14.8,0,24.5,10,33.3,20.2c4.7,5,19.4,18.2,29.7,18.2
	c11.8,0,22.8-6.4,28.8-16.6c0.8-1.3,2.5-1.8,3.8-1c1.3,0.8,1.8,2.5,1,3.8C502.8,37,489.9,44.5,476.1,44.5L476.1,44.5z"/>
<path class="st0" d="M476.1,63.7c-14.8,0-33.1-19.2-33.9-20.1c-8.3-9.7-16.8-18.3-29.1-18.3c-13.6,0-29.6,18-29.7,18.2L382,45
	c-8.8,9.6-17.1,18.6-31.9,18.6c-14.8,0-33.1-19.2-33.9-20.1c-8.3-9.7-16.8-18.3-29.1-18.3c-13.6,0-29.6,18-29.7,18.2l-1.3,1.4
	c-10,10.5-18,18.8-32,18.8c-14.8,0-33.1-19.2-33.9-20.1c-8.3-9.7-16.8-18.3-29.1-18.3c-13.6,0-29.5,18-29.7,18.2L130,45
	c-8.8,9.6-17.1,18.6-31.9,18.6c-14.8,0-33.1-19.2-33.9-20.1c-8.3-9.7-16.8-18.3-29.1-18.3c-12.3,0-23.6,6.8-29.3,17.7
	c-0.7,1.4-2.4,1.9-3.8,1.2c-1.4-0.7-1.9-2.4-1.2-3.8c6.7-12.8,19.9-20.7,34.3-20.7c14.8,0,24.5,10,33.3,20.2
	c4.7,5,19.4,18.2,29.7,18.2c12.3,0,19.2-7.4,27.8-16.8l1.3-1.5c0.7-0.8,17.8-20.1,33.9-20.1c14.8,0,24.5,10,33.3,20.2
	c4.7,5,19.4,18.2,29.7,18.2c11.6,0,18.1-6.8,27.9-17l1.2-1.3c0.6-0.7,17.7-20,33.8-20c14.8,0,24.5,10,33.3,20.2
	c4.7,5,19.4,18.2,29.7,18.2c12.3,0,19.1-7.4,27.8-16.8l1.3-1.5c0.7-0.8,17.8-20.1,33.9-20.1c14.8,0,24.5,10,33.3,20.2
	c4.7,5,19.4,18.2,29.7,18.2c11.8,0,22.8-6.4,28.8-16.6c0.8-1.3,2.5-1.8,3.8-1c1.3,0.8,1.8,2.5,1,3.8
	C502.8,56.2,489.9,63.7,476.1,63.7L476.1,63.7z"/>
<path class="st0" d="M476.1,82.8c-14.8,0-33.1-19.3-33.9-20.1c-8.3-9.7-16.8-18.3-29.1-18.3c-13.6,0-29.6,18-29.7,18.2l-1.4,1.5
	c-8.8,9.6-17.1,18.6-31.9,18.6c-14.8,0-33.1-19.3-33.9-20.1c-8.3-9.7-16.8-18.3-29.1-18.3c-13.6,0-29.6,18-29.7,18.2l-1.3,1.4
	c-10,10.5-18,18.8-32,18.8c-14.8,0-33.1-19.3-33.9-20.1c-8.3-9.7-16.8-18.3-29.1-18.3c-13.6,0-29.5,18-29.7,18.2l-1.4,1.5
	c-8.8,9.6-17.1,18.6-31.9,18.6c-14.8,0-33.1-19.3-33.9-20.1c-8.3-9.7-16.8-18.3-29.1-18.3c-12.3,0-23.6,6.8-29.3,17.7
	C5.1,63.5,3.4,64,2,63.3c-1.4-0.7-1.9-2.4-1.2-3.8c6.7-12.8,19.9-20.7,34.3-20.7c14.8,0,24.5,10,33.3,20.2
	c4.7,5,19.4,18.2,29.7,18.2c12.3,0,19.2-7.4,27.8-16.8l1.3-1.5c0.7-0.8,17.8-20.1,33.9-20.1c14.8,0,24.5,10,33.3,20.2
	c4.7,5,19.4,18.2,29.7,18.2c11.6,0,18.1-6.8,27.9-17l1.2-1.3c0.6-0.7,17.7-20,33.8-20c14.8,0,24.5,10,33.3,20.2
	c4.7,5,19.4,18.2,29.7,18.2c12.3,0,19.1-7.4,27.8-16.8l1.4-1.5c0.7-0.8,17.8-20.1,33.9-20.1c14.7,0,24.5,10,33.3,20.2
	c4.7,5,19.4,18.2,29.7,18.2c11.8,0,22.8-6.4,28.8-16.6c0.8-1.3,2.5-1.8,3.8-1c1.3,0.8,1.8,2.5,1,3.8
	C502.8,75.4,489.9,82.8,476.1,82.8L476.1,82.8z"/>
</svg>
