<?xml version="1.0" encoding="utf-8"?>
<!-- Generator: Adobe Illustrator 24.0.2, SVG Export Plug-In . SVG Version: 6.00 Build 0)  -->
<svg version="1.1" id="Capa_1" xmlns="http://www.w3.org/2000/svg" xmlns:xlink="http://www.w3.org/1999/xlink" x="0px" y="0px"
	 viewBox="0 0 344.8 404" style="enable-background:new 0 0 344.8 404;" xml:space="preserve">
<style type="text/css">
	.st0{fill:#15202B;}
	.st1{fill:#15202B;stroke:#DDDDDD;stroke-width:5;stroke-miterlimit:10;}
</style>
<title>laura_graduacion</title>
<path class="st0" d="M75.3,369.5c-12.3,1.4-22.8-2.1-32.6-9c-4.6-3.1-9.8-5.5-15.2-6.9c-22.9-6.3-33.6-28-24.1-49.8
	c3.2-7.1,7.8-13.4,13.7-18.5c2.2-2.1,4.5-4,6.9-5.8c10.9-7.7,13.7-18.3,11.7-30.9c-1.7-10.4-3.1-21-4.2-31.5
	c-1.9-18.9,4-35.3,15.9-49.9c5-6.2,9.9-12.6,14.3-19.1c4.3-6.4,6.5-13.6,8-21.2c6.2-30.3,23.8-51.2,53.5-60.1
	c32.3-9.7,63.8-7.5,93,11.3c15.6,10.1,28.3,24.1,36.8,40.6c7.8,15.1,18.3,28.6,31,39.9c12.1,10.6,17.9,24.8,20.5,40.2
	c2,11.8,3.1,23.7,4.6,35.6c0.7,5.9,2.8,11.1,7.2,15.2c4.7,4.5,9.1,9.2,14,13.5c16.9,14.7,19.4,40.5,5.7,60.1
	c-5.4,7.7-12.3,13.4-21.4,16.1c-12.4,3.7-24.1,9.6-34.5,17.4c-1.1,0.9-2.2,1.6-3.4,2.3c-3.4,1.9-6.1,3.6-6.3,8.5
	c-0.2,4.6-4.3,7.6-8,10.4c-9.7,7.4-21.1,11.1-32.6,14.5c-28.9,8.6-58.3,13.1-88.6,11.4c-16.3-0.9-32.6-2.6-47.9-8.8
	c-2.4-1-4.8-2.1-7.1-3.4C76.3,385.9,73.9,381,75.3,369.5z M85.3,160.1c3.7-0.5,7.1-1.3,10.5-1.3c3.6,0.2,7.2,0.7,10.7,1.5
	c2.2,0.4,4.3,1.4,3.4,4.2s-3.2,2-5.3,1.4c-6-1.9-12.5-1.6-18.3,0.8c-1.1,0.5-2,1.5-2.3,2.7c-0.6,3.6-0.8,7.2-0.6,10.8
	c1,15,2.3,30.1,3.5,45.1c0.9,11.1,3.1,21.6,11.1,30.2c15.9,17,35,23,57.6,17.6c4.6-1.1,9-2.8,13.6-3.8c1.3-0.3,2.9,0.9,4.4,1.4
	c-0.6,1.4-1.4,2.7-2.3,4c-0.6,0.6-1.8,0.8-2.8,1c-6,1.6-12,3.2-18.1,4.9c0.1,0.9,0.2,1.9,0.4,2.9c2.9,15.6-2.3,27.6-15.4,36.3
	c-1.6,1.2-3.2,2.5-4.8,3.8l0.3,1.2c4.3,0.9,8.7,2,13.1,2.5c3,0.4,4.5,1.5,4.6,4.6c0,3.4,0.4,6.7,0.6,10.1c1.3-1.6,2.4-3.4,3-5.4
	c1.5-5.3,4.9-7.3,10.4-8.1c8.3-1.3,16.3-3.9,24.7-6c-1.7-9.5,0.6-17.6,3.5-25.7c3.5-9.1,3.4-19.1-0.1-28.2c-2-5.1-4.9-9.8-7.6-14.5
	c-6.8-12.2-7.5-24.8-3.1-37.9c2.7-8,5.4-16.1,7.4-24.3c2.9-11.8,1.6-22.7-6.9-32.5c-7.6-8.7-12.1-19.4-15.8-30.3
	c-1.8-5.4-4-10.7-6.5-15.9c-2.6-5.3-7.4-7.4-13.1-6.3c-4.9,0.9-9.6,2.7-14.4,3.9c-1.6,0.4-3.3,0.3-4.8-0.3
	c-8.9-5.1-16.1-4.4-22.5,3.6c-3.9,5-7.1,10.5-9.6,16.3C89.7,139.9,86.8,149.9,85.3,160.1L85.3,160.1z M126,329.1
	c-3.1,4.9-6.6,10-9.6,15.5c-7,12.8-17.1,21.2-31.7,23.8c-1.1,0.2-2.1,0.9-2.8,1.9c-2.6,4.7-1.1,10.7,3.5,13.5
	c3.3,2.2,6.8,4.1,10.5,5.6c10.9,4.5,22.5,6.3,34.2,7.4c36.8,3.6,72.6-1.6,107.4-13.5c7.7-2.6,14.8-7,21.9-11
	c2.3-1.3,3.8-3.8,5.6-5.8l-0.7-0.9c-15.6,6.3-30.9,6.7-45.7-1.8c-14.4-8.2-24-20.6-30.1-35.2c-9.3,2.2-18.3,4.2-27.1,6.5
	c-1.4,0.5-2.6,1.6-3.3,3c-2.8,5.8-5.3,11.8-8.1,17.6c-0.7,1.4-2.6,2.1-3.9,3.2c-0.8-1.5-2.3-2.9-2.4-4.4c-0.6-6.9-0.8-13.9-1.2-20.5
	L126,329.1z"/>
<path class="st0" d="M98.3,181c-2.1,1-4.2,1.9-6.4,2.6c-1.4,0.3-3-0.5-4.4-0.8c0.4-1.4,0.4-3.3,1.3-4.1c4.9-4.3,14.2-4.3,19-0.1
	c0.9,0.9,1.5,2.1,1.5,3.4c-0.1,3.4-0.8,6.7-1,10c-0.3,4.5-1.8,6.3-6,6.3s-5.8-1.7-5.8-6.3C96.3,184.9,96.3,184.9,98.3,181z"/>
<path class="st0" d="M159.6,182c-1.2,0.8-2.4,1.3-3.8,1.7c-1.3,0.2-2.8-0.4-4.3-0.6c0.3-1.4,0.2-3.3,1.1-4.1
	c4.7-4.4,14.7-4.4,19.4,0c0.9,0.8,1.5,3.4,1.1,3.7c-3.4,2.5-2.1,6-2.2,9.1c-0.2,5.4-3.2,7.8-8.3,6.1c-1.2-0.4-2.9-1.8-3-2.9
	C159.3,190.8,159.5,186.5,159.6,182z"/>
<path class="st0" d="M172.6,165.7c-3.8-0.7-6.6-1.7-9.4-1.7c-4.4,0-8.7,0.9-13.1,1.1c-1.3,0.1-2.6-0.6-3.9-1
	c0.4-1.4,0.4-3.5,1.3-4.1c1.8-1.3,4-2,6.2-2c6.3,0.3,12.5,0.9,18.7,1.9c1,0.1,2.2,2.2,2.3,3.5C174.8,164.3,173,165.3,172.6,165.7z"
	/>
<path class="st0" d="M131.8,240.5c0.1,0,0.1,0,0.2,0c4.5,0.1,6.6-1.6,10.2-4.8c1.6-1.4,3-3,1.2-5.1s-3.4-0.8-5.2,0.6
	c-5.1,4.2-9.6,4.2-15,0.7c-0.2-0.1-0.4-0.2-0.6-0.2c-1.7-0.3-3.3,0.7-3.6,2.4c-0.1,0.4-0.1,0.7,0,1.1c0,0.4,0.2,0.8,0.5,1.1l5.2,2.4
	h0.1L131.8,240.5z"/>
<path class="st0" d="M125,222c-5.1,0-8.6-2.9-8.6-6.5c0-1.3,1.3-2.6,2-3.9c1.2,0.7,2.5,1.4,3.7,2.2c0.8,0.6,1.4,2,2,2
	c2.3-0.1,4.5,0.4,3.9,3C127.8,220.2,125.6,221.3,125,222z"/>
<path class="st1" d="M139.8,44.6l-10.1,32.1c-0.9,2.7,0.1,5.7,2.5,7.3c11.3,7.8,47.5,29,109.7,28.8c2.8,0,5.3-1.8,6.2-4.6l9-28.9
	c1.1-3.4-0.8-7-4.2-8.1c0,0-0.1,0-0.1,0L147.8,40.4C144.4,39.4,140.8,41.3,139.8,44.6z"/>
<path class="st1" d="M301.5,72l-103.3,2.6c-1.5,0-2.9-0.4-4.2-1.2l-86.8-57.7c-3.3-2.2-4.2-6.7-2-10c1.3-2,3.6-3.2,6-3.2H221
	c1.4,0,2.8,0.5,4,1.3l80.4,55.1c3.3,2.2,4.1,6.7,1.9,10C305.9,70.8,303.8,71.9,301.5,72z"/>
</svg>
