<svg id="Capa_1" data-name="Capa 1" xmlns="http://www.w3.org/2000/svg" viewBox="0 0 369.44 420.12">
  <defs>
    <style>
      .cls-1 {
        fill: #ddd;
      }

      .cls-2 {
        fill: none;
        stroke: #ddd;
        stroke-linecap: round;
        stroke-miterlimit: 10;
        stroke-width: 5px;
      }
    </style>
  </defs>
  <title>laura</title>
  <path class="cls-1" d="M97.44,385.65c-12.31,1.42-22.79-2.08-32.62-9a49.54,49.54,0,0,0-15.16-6.92c-22.89-6.27-33.58-28-24.11-49.8a53.39,53.39,0,0,1,13.69-18.49,78.36,78.36,0,0,1,6.84-5.81C57,288,59.76,277.37,57.74,264.73c-1.67-10.46-3.13-21-4.19-31.49-1.91-18.87,4-35.32,15.91-49.92,5-6.17,9.86-12.54,14.31-19.13,4.3-6.36,6.48-13.61,8-21.16,6.19-30.3,23.78-51.17,53.47-60.12,32.34-9.74,63.86-7.53,93,11.23a107,107,0,0,1,36.8,40.59,138.35,138.35,0,0,0,31.05,39.87c12.06,10.58,17.88,24.77,20.53,40.19,2,11.78,3.1,23.71,4.56,35.57.72,5.88,2.8,11.06,7.19,15.21,4.7,4.46,9.14,9.22,14,13.47,16.86,14.68,19.39,40.45,5.72,60.12-5.36,7.71-12.29,13.39-21.39,16.1a109,109,0,0,0-34.5,17.44,28.65,28.65,0,0,1-3.4,2.31c-3.42,1.85-6.1,3.62-6.27,8.49-.16,4.64-4.34,7.6-8,10.36-9.71,7.41-21.11,11.11-32.59,14.51-28.89,8.56-58.34,13.1-88.56,11.39-16.34-.93-32.57-2.62-47.95-8.8a61.9,61.9,0,0,1-7.08-3.36C98.42,402,96,397.2,97.44,385.65Zm10-209.36c3.73-.5,7.14-1.34,10.54-1.3a65.67,65.67,0,0,1,10.66,1.46c2.24.4,4.34,1.41,3.45,4.21s-3.18,2-5.29,1.41a26.33,26.33,0,0,0-18.28.82,4.27,4.27,0,0,0-2.34,2.69,55.37,55.37,0,0,0-.62,10.82c1,15,2.24,30.07,3.45,45.1.9,11.09,3.09,21.59,11.15,30.19,15.91,17,35,23.05,57.63,17.56,4.59-1.11,9-2.81,13.64-3.83,1.29-.28,2.9.92,4.36,1.44a22,22,0,0,1-2.33,4c-.56.65-1.8.76-2.76,1-6,1.62-12,3.21-18.14,4.86.12.94.2,1.91.38,2.86,2.87,15.58-2.27,27.62-15.43,36.32a59.37,59.37,0,0,0-4.75,3.83l.25,1.19c4.35.87,8.67,2,13.06,2.53,3,.39,4.53,1.45,4.58,4.61,0,3.37.4,6.73.61,10.1a15.55,15.55,0,0,0,3-5.37c1.53-5.32,4.93-7.25,10.44-8.09,8.27-1.27,16.33-3.94,24.65-6.06-1.67-9.54.63-17.58,3.53-25.65a39.47,39.47,0,0,0-.06-28.19c-2-5.07-4.94-9.76-7.62-14.53-6.81-12.17-7.52-24.75-3.08-37.87,2.71-8,5.4-16,7.44-24.25,2.94-11.82,1.59-22.71-6.92-32.51-7.58-8.72-12.11-19.35-15.77-30.32a124,124,0,0,0-6.46-15.86c-2.62-5.28-7.46-7.39-13.16-6.31-4.86.92-9.54,2.72-14.37,3.87a7.23,7.23,0,0,1-4.79-.34c-8.9-5.14-16.11-4.43-22.49,3.63A78.56,78.56,0,0,0,116,146.64,112.27,112.27,0,0,0,107.44,176.29Zm40.7,169c-3.06,4.91-6.61,10-9.56,15.46-7,12.83-17.12,21.17-31.71,23.77a4.26,4.26,0,0,0-2.77,1.88c-2.47,5-1.18,10.41,3.52,13.54a62,62,0,0,0,10.52,5.6c10.92,4.54,22.52,6.27,34.19,7.43,36.84,3.63,72.63-1.58,107.46-13.52,7.66-2.63,14.75-7.05,21.88-11,2.26-1.27,3.77-3.84,5.63-5.81l-.69-.93c-15.56,6.26-30.94,6.67-45.72-1.77-14.36-8.21-24-20.64-30.16-35.19-9.28,2.19-18.25,4.21-27.15,6.5a6,6,0,0,0-3.26,3c-2.82,5.82-5.26,11.84-8.14,17.63-.69,1.37-2.58,2.14-3.92,3.18-.82-1.46-2.25-2.88-2.38-4.41-.59-6.93-.82-13.9-1.16-20.5Z"/>
  <path class="cls-1" d="M120.4,197.13a38.37,38.37,0,0,1-6.41,2.55c-1.35.3-2.95-.47-4.44-.77.41-1.38.38-3.25,1.3-4,4.89-4.3,14.21-4.28,19-.06a4.9,4.9,0,0,1,1.49,3.45c-.13,3.35-.84,6.67-1,10-.26,4.54-1.8,6.29-6,6.28s-5.77-1.69-5.84-6.32C118.41,201.09,118.41,201.09,120.4,197.13Z"/>
  <path class="cls-1" d="M181.67,198.17a13.76,13.76,0,0,1-3.76,1.73c-1.34.24-2.83-.37-4.26-.6.33-1.41.19-3.33,1.07-4.15,4.71-4.41,14.73-4.4,19.34,0,.85.8,1.48,3.42,1.1,3.7-3.41,2.5-2.07,6-2.19,9.1-.19,5.4-3.2,7.78-8.33,6.06-1.22-.41-2.89-1.82-3-2.88C181.37,206.92,181.62,202.71,181.67,198.17Z"/>
  <path class="cls-1" d="M194.71,181.85c-3.8-.74-6.59-1.74-9.38-1.71-4.37,0-8.73.88-13.1,1.15-1.28.08-2.6-.65-3.9-1,.4-1.4.38-3.46,1.3-4.05a11.4,11.4,0,0,1,6.23-2,186,186,0,0,1,18.69,1.89c1,.15,2.22,2.24,2.29,3.48C196.89,180.45,195.14,181.42,194.71,181.85Z"/>
  <path class="cls-1" d="M153.94,256.64a.64.64,0,0,0,.2,0c4.49.06,6.64-1.57,10.21-4.77,1.57-1.41,3-3.05,1.18-5.08s-3.45-.83-5.15.58c-5.09,4.19-9.62,4.21-15,.71a1.81,1.81,0,0,0-.57-.24,3.06,3.06,0,0,0-3.63,3.45,1.5,1.5,0,0,0,.47,1.08l5.18,2.39.14.05Z"/>
  <path class="cls-1" d="M147.12,238.12c-5.07,0-8.6-2.93-8.6-6.54,0-1.29,1.31-2.58,2-3.88,1.23.74,2.51,1.41,3.66,2.24.78.56,1.39,2,2.05,2,2.3-.07,4.45.42,3.94,3C149.88,236.37,147.73,237.51,147.12,238.12Z"/>
  <line class="cls-2" x1="173.66" y1="41.71" x2="173.66" y2="2.5"/>
  <line class="cls-2" x1="84.64" y1="84.13" x2="56.91" y2="56.4"/>
  <line class="cls-2" x1="41.71" y1="172.33" x2="2.5" y2="172.33"/>
  <line class="cls-2" x1="284.8" y1="84.13" x2="312.52" y2="56.4"/>
  <line class="cls-2" x1="327.73" y1="172.33" x2="366.94" y2="172.33"/>
</svg>
