<svg id="Capa_1" data-name="Capa 1" xmlns="http://www.w3.org/2000/svg" viewBox="0 0 344.83 403.95">
  <defs>
    <style>
      .cls-1, .cls-2 {
        fill: #ddd;
      }

      .cls-2 {
        stroke: #15202b;
        stroke-miterlimit: 10;
        stroke-width: 5px;
      }
    </style>
  </defs>
  <title>laura_graduacion</title>
  <g>
    <path class="cls-1" d="M75.34,369.48c-12.32,1.42-22.79-2.08-32.62-9a49.7,49.7,0,0,0-15.17-6.92c-22.88-6.27-33.57-28-24.1-49.8a53.14,53.14,0,0,1,13.69-18.49A75.52,75.52,0,0,1,24,279.5c10.9-7.71,13.68-18.3,11.66-30.94-1.67-10.45-3.13-21-4.2-31.49-1.91-18.86,4-35.32,15.91-49.91,5-6.18,9.86-12.55,14.32-19.14,4.29-6.35,6.48-13.61,8-21.16,6.19-30.3,23.77-51.17,53.46-60.12C155.5,57,187,59.22,216.16,78A107,107,0,0,1,253,118.56a138.18,138.18,0,0,0,31,39.88c12.06,10.57,17.88,24.76,20.52,40.18,2,11.78,3.11,23.71,4.57,35.58.72,5.87,2.8,11.05,7.18,15.2,4.7,4.46,9.14,9.22,14,13.47,16.86,14.68,19.4,40.45,5.73,60.12-5.36,7.71-12.3,13.39-21.39,16.1a108.79,108.79,0,0,0-34.5,17.44,28.77,28.77,0,0,1-3.41,2.31c-3.42,1.85-6.1,3.62-6.27,8.49-.16,4.64-4.34,7.6-8,10.36-9.72,7.41-21.11,11.11-32.59,14.51-28.9,8.56-58.34,13.1-88.57,11.39-16.34-.93-32.56-2.61-47.94-8.8a61.9,61.9,0,0,1-7.08-3.36C76.31,385.86,73.87,381,75.34,369.48Zm10-209.36c3.73-.5,7.14-1.34,10.54-1.3a65.82,65.82,0,0,1,10.66,1.46c2.23.4,4.33,1.41,3.44,4.21s-3.17,2-5.28,1.41a26.33,26.33,0,0,0-18.28.82,4.27,4.27,0,0,0-2.34,2.7,56,56,0,0,0-.63,10.81c1,15,2.25,30.07,3.46,45.11.89,11.08,3.08,21.58,11.14,30.18,15.92,17,35,23,57.64,17.56,4.59-1.11,9-2.81,13.64-3.83,1.28-.28,2.9.92,4.36,1.44a23.23,23.23,0,0,1-2.33,4c-.57.65-1.81.76-2.77,1-6,1.61-12,3.2-18.14,4.85.12.94.21,1.91.38,2.86,2.87,15.58-2.27,27.62-15.42,36.32a59.37,59.37,0,0,0-4.75,3.83l.25,1.19c4.34.87,8.66,2,13.05,2.53,3,.39,4.54,1.45,4.59,4.61,0,3.37.39,6.73.61,10.1a15.73,15.73,0,0,0,3-5.36c1.53-5.33,4.94-7.26,10.44-8.1,8.27-1.27,16.33-3.94,24.66-6.05-1.67-9.55.62-17.59,3.52-25.66a39.47,39.47,0,0,0-.06-28.19c-2-5.07-4.94-9.76-7.61-14.53-6.82-12.17-7.53-24.75-3.08-37.87,2.71-8,5.4-16.05,7.44-24.25,2.94-11.81,1.59-22.71-6.93-32.51-7.58-8.72-12.1-19.35-15.76-30.31a125.67,125.67,0,0,0-6.47-15.87c-2.62-5.28-7.45-7.39-13.15-6.31-4.86.92-9.55,2.72-14.37,3.87a7.16,7.16,0,0,1-4.79-.34c-8.9-5.14-16.12-4.43-22.5,3.63a79.27,79.27,0,0,0-9.63,16.31A112.74,112.74,0,0,0,85.34,160.12Zm40.7,169c-3.06,4.91-6.62,10-9.57,15.46-7,12.83-17.11,21.17-31.7,23.77A4.27,4.27,0,0,0,82,370.25a10.19,10.19,0,0,0,3.51,13.54A62.77,62.77,0,0,0,96,389.39c10.93,4.54,22.52,6.28,34.2,7.43,36.83,3.63,72.63-1.58,107.45-13.52,7.67-2.62,14.76-7.05,21.89-11,2.25-1.27,3.77-3.84,5.62-5.81l-.69-.93c-15.55,6.26-30.93,6.67-45.72-1.77-14.36-8.21-24-20.63-30.15-35.19-9.29,2.19-18.26,4.21-27.15,6.5a6,6,0,0,0-3.26,3c-2.82,5.83-5.26,11.84-8.15,17.63-.68,1.37-2.57,2.14-3.91,3.18-.83-1.46-2.25-2.88-2.38-4.41-.59-6.93-.82-13.9-1.16-20.5Z"/>
    <path class="cls-1" d="M98.29,181a39.56,39.56,0,0,1-6.4,2.56c-1.36.29-3-.48-4.44-.77.41-1.38.38-3.26,1.29-4.06,4.89-4.3,14.22-4.28,19.05-.06a4.9,4.9,0,0,1,1.49,3.45c-.14,3.35-.84,6.67-1,10-.26,4.54-1.8,6.29-6,6.28s-5.78-1.69-5.84-6.32C96.3,184.92,96.3,184.92,98.29,181Z"/>
    <path class="cls-1" d="M159.57,182a14,14,0,0,1-3.76,1.73c-1.34.24-2.84-.37-4.26-.6.33-1.41.18-3.33,1.06-4.15,4.71-4.41,14.73-4.4,19.35,0,.85.81,1.47,3.42,1.1,3.7-3.41,2.5-2.08,6-2.19,9.11-.2,5.4-3.2,7.77-8.33,6.05-1.22-.41-2.9-1.82-3-2.88C159.27,190.76,159.52,186.54,159.57,182Z"/>
    <path class="cls-1" d="M172.6,165.68c-3.79-.74-6.59-1.74-9.37-1.71-4.37,0-8.73.88-13.11,1.15-1.27.08-2.6-.65-3.9-1,.41-1.4.39-3.46,1.31-4.05a11.37,11.37,0,0,1,6.22-2,186,186,0,0,1,18.69,1.89c1,.15,2.23,2.24,2.3,3.49C174.79,164.28,173,165.25,172.6,165.68Z"/>
    <path class="cls-1" d="M131.83,240.47a.76.76,0,0,0,.21,0c4.48.06,6.63-1.57,10.2-4.77,1.58-1.41,3-3,1.19-5.08s-3.45-.82-5.16.58c-5.09,4.19-9.61,4.22-15,.71a1.81,1.81,0,0,0-.57-.24,3.05,3.05,0,0,0-3.62,3.46,1.49,1.49,0,0,0,.46,1.07l5.19,2.4.13,0Z"/>
    <path class="cls-1" d="M125,222c-5.07,0-8.61-2.93-8.6-6.54,0-1.29,1.31-2.58,2-3.88,1.22.74,2.5,1.41,3.66,2.24.77.56,1.39,2,2,2,2.31-.07,4.45.42,3.94,3C127.78,220.2,125.63,221.34,125,222Z"/>
    <path class="cls-2" d="M139.77,44.63,129.64,76.7A6.48,6.48,0,0,0,132.11,84c11.29,7.84,47.5,29,109.69,28.81a6.5,6.5,0,0,0,6.19-4.55l9-28.87a6.47,6.47,0,0,0-4.35-8.14L147.77,40.37A6.47,6.47,0,0,0,139.77,44.63Z"/>
    <path class="cls-2" d="M301.47,72,198.18,74.6A7.29,7.29,0,0,1,194,73.4L107.23,15.66a7.18,7.18,0,0,1,4-13.16H221A7.19,7.19,0,0,1,225,3.76L305.35,58.9A7.18,7.18,0,0,1,301.47,72Z"/>
  </g>
</svg>
