<?xml version="1.0" encoding="utf-8"?>
<!-- Generator: Adobe Illustrator 24.0.2, SVG Export Plug-In . SVG Version: 6.00 Build 0)  -->
<svg version="1.1" id="Capa_1" xmlns="http://www.w3.org/2000/svg" xmlns:xlink="http://www.w3.org/1999/xlink" x="0px" y="0px"
	 viewBox="0 0 369.4 420.1" style="enable-background:new 0 0 369.4 420.1;" xml:space="preserve">
<style type="text/css">
	.st0{fill:#15202B;}
	.st1{fill:none;stroke:#15202B;stroke-width:5;stroke-linecap:round;stroke-miterlimit:10;}
</style>
<title>laura</title>
<path class="st0" d="M97.4,385.6c-12.3,1.4-22.8-2.1-32.6-9c-4.6-3.1-9.8-5.5-15.2-6.9c-22.9-6.3-33.6-28-24.1-49.8
	c3.2-7.1,7.8-13.4,13.7-18.5c2.2-2.1,4.5-4,6.8-5.8c10.9-7.6,13.7-18.3,11.7-30.9c-1.7-10.5-3.1-21-4.2-31.5
	c-1.9-18.9,4-35.3,15.9-49.9c5-6.2,9.9-12.5,14.3-19.1c4.3-6.4,6.5-13.6,8-21.2c6.2-30.3,23.8-51.2,53.5-60.1
	c32.3-9.7,63.9-7.5,93,11.2c15.6,10.1,28.3,24.1,36.8,40.6c7.8,15.1,18.3,28.6,31,39.9c12.1,10.6,17.9,24.8,20.5,40.2
	c2,11.8,3.1,23.7,4.6,35.6c0.7,5.9,2.8,11.1,7.2,15.2c4.7,4.5,9.1,9.2,14,13.5c16.9,14.7,19.4,40.5,5.7,60.1
	c-5.4,7.7-12.3,13.4-21.4,16.1c-12.4,3.7-24.1,9.6-34.5,17.4c-1.1,0.9-2.2,1.6-3.4,2.3c-3.4,1.9-6.1,3.6-6.3,8.5
	c-0.2,4.6-4.3,7.6-8,10.4c-9.7,7.4-21.1,11.1-32.6,14.5c-28.9,8.6-58.3,13.1-88.6,11.4c-16.3-0.9-32.6-2.6-47.9-8.8
	c-2.4-1-4.8-2.1-7.1-3.4C98.4,402,96,397.2,97.4,385.6z M107.4,176.3c3.7-0.5,7.1-1.3,10.5-1.3c3.6,0.2,7.2,0.7,10.7,1.5
	c2.2,0.4,4.3,1.4,3.4,4.2s-3.2,2-5.3,1.4c-6-1.9-12.5-1.6-18.3,0.8c-1.1,0.5-2,1.5-2.3,2.7c-0.6,3.6-0.8,7.2-0.6,10.8
	c1,15,2.2,30.1,3.4,45.1c0.9,11.1,3.1,21.6,11.2,30.2c15.9,17,35,23,57.6,17.6c4.6-1.1,9-2.8,13.6-3.8c1.3-0.3,2.9,0.9,4.4,1.4
	c-0.6,1.4-1.4,2.8-2.3,4c-0.6,0.6-1.8,0.8-2.8,1c-6,1.6-12,3.2-18.1,4.9c0.1,0.9,0.2,1.9,0.4,2.9c2.9,15.6-2.3,27.6-15.4,36.3
	c-1.6,1.2-3.2,2.5-4.8,3.8l0.3,1.2c4.4,0.9,8.7,2,13.1,2.5c3,0.4,4.5,1.5,4.6,4.6c0,3.4,0.4,6.7,0.6,10.1c1.3-1.6,2.4-3.4,3-5.4
	c1.5-5.3,4.9-7.3,10.4-8.1c8.3-1.3,16.3-3.9,24.6-6.1c-1.7-9.5,0.6-17.6,3.5-25.6c3.5-9.1,3.4-19.1-0.1-28.2
	c-2-5.1-4.9-9.8-7.6-14.5c-6.8-12.2-7.5-24.8-3.1-37.9c2.7-8,5.4-16,7.4-24.3c2.9-11.8,1.6-22.7-6.9-32.5
	c-7.6-8.7-12.1-19.4-15.8-30.3c-1.8-5.4-3.9-10.7-6.5-15.9c-2.6-5.3-7.5-7.4-13.2-6.3c-4.9,0.9-9.5,2.7-14.4,3.9
	c-1.6,0.4-3.3,0.3-4.8-0.3c-8.9-5.1-16.1-4.4-22.5,3.6c-3.8,5-7.1,10.5-9.6,16.3C111.8,156.1,108.9,166.1,107.4,176.3z M148.1,345.3
	c-3.1,4.9-6.6,10-9.6,15.5c-7,12.8-17.1,21.2-31.7,23.8c-1.1,0.2-2.1,0.9-2.8,1.9c-2.5,5-1.2,10.4,3.5,13.5
	c3.3,2.2,6.8,4.1,10.5,5.6c10.9,4.5,22.5,6.3,34.2,7.4c36.8,3.6,72.6-1.6,107.5-13.5c7.7-2.6,14.8-7,21.9-11
	c2.3-1.3,3.8-3.8,5.6-5.8l-0.7-0.9c-15.6,6.3-30.9,6.7-45.7-1.8c-14.4-8.2-24-20.6-30.2-35.2c-9.3,2.2-18.3,4.2-27.1,6.5
	c-1.4,0.5-2.6,1.6-3.3,3c-2.8,5.8-5.3,11.8-8.1,17.6c-0.7,1.4-2.6,2.1-3.9,3.2c-0.8-1.5-2.3-2.9-2.4-4.4c-0.6-6.9-0.8-13.9-1.2-20.5
	L148.1,345.3z"/>
<path class="st0" d="M120.4,197.1c-2.1,1-4.2,1.9-6.4,2.6c-1.3,0.3-2.9-0.5-4.4-0.8c0.4-1.4,0.4-3.3,1.3-4c4.9-4.3,14.2-4.3,19-0.1
	c0.9,0.9,1.5,2.1,1.5,3.4c-0.1,3.4-0.8,6.7-1,10c-0.3,4.5-1.8,6.3-6,6.3s-5.8-1.7-5.8-6.3C118.4,201.1,118.4,201.1,120.4,197.1z"/>
<path class="st0" d="M181.7,198.2c-1.2,0.8-2.4,1.3-3.8,1.7c-1.3,0.2-2.8-0.4-4.3-0.6c0.3-1.4,0.2-3.3,1.1-4.1
	c4.7-4.4,14.7-4.4,19.3,0c0.9,0.8,1.5,3.4,1.1,3.7c-3.4,2.5-2.1,6-2.2,9.1c-0.2,5.4-3.2,7.8-8.3,6.1c-1.2-0.4-2.9-1.8-3-2.9
	C181.4,206.9,181.6,202.7,181.7,198.2z"/>
<path class="st0" d="M194.7,181.9c-3.8-0.7-6.6-1.7-9.4-1.7c-4.4,0-8.7,0.9-13.1,1.1c-1.3,0.1-2.6-0.6-3.9-1
	c0.4-1.4,0.4-3.5,1.3-4.1c1.8-1.3,4-2,6.2-2c6.3,0.3,12.5,0.9,18.7,1.9c1,0.1,2.2,2.2,2.3,3.5C196.9,180.4,195.1,181.4,194.7,181.9z
	"/>
<path class="st0" d="M153.9,256.6c0.1,0,0.1,0,0.2,0c4.5,0.1,6.6-1.6,10.2-4.8c1.6-1.4,3-3.1,1.2-5.1s-3.4-0.8-5.1,0.6
	c-5.1,4.2-9.6,4.2-15,0.7c-0.2-0.1-0.4-0.2-0.6-0.2c-1.7-0.3-3.3,0.7-3.6,2.4c-0.1,0.3-0.1,0.7,0,1.1c0,0.4,0.2,0.8,0.5,1.1l5.2,2.4
	l0.1,0.1L153.9,256.6z"/>
<path class="st0" d="M147.1,238.1c-5.1,0-8.6-2.9-8.6-6.5c0-1.3,1.3-2.6,2-3.9c1.2,0.7,2.5,1.4,3.7,2.2c0.8,0.6,1.4,2,2.1,2
	c2.3-0.1,4.4,0.4,3.9,3C149.9,236.4,147.7,237.5,147.1,238.1z"/>
<line class="st1" x1="173.7" y1="41.7" x2="173.7" y2="2.5"/>
<line class="st1" x1="84.6" y1="84.1" x2="56.9" y2="56.4"/>
<line class="st1" x1="41.7" y1="172.3" x2="2.5" y2="172.3"/>
<line class="st1" x1="284.8" y1="84.1" x2="312.5" y2="56.4"/>
<line class="st1" x1="327.7" y1="172.3" x2="366.9" y2="172.3"/>
</svg>
