<svg id="Capa_1" data-name="Capa 1" xmlns="http://www.w3.org/2000/svg" viewBox="0 0 383.24 377.68">
  <defs>
    <style>
      .cls-1 {
        fill: #ddd;
      }
    </style>
  </defs>
  <title>libros</title>
  <path class="cls-1" d="M324.11,377.68H15.71c-.92-.34-1.85-.68-2.77-1C5.23,373.65.8,368,.07,359.8a18.88,18.88,0,0,1,10.85-18.56c20.72-10.13,27.37-36.81,14-56-1.67-2.4-3.39-3.68-6.6-3.74a19.09,19.09,0,0,1,.18-38.16c6.11-.15,12.23,0,18.34-.07.89,0,1.77-.17,3.1-.31-19.34-15.76-29-35.53-26.79-60.06s15.22-42.47,36.76-54.33c-.77-1-1.38-1.83-1.93-2.65-6.45-9.65-3.15-23,7.38-27.76,19.49-8.84,28.62-36,14.06-56.51a7,7,0,0,0-6.09-3.32C49.47,37.65,40.83,24,46.36,11.6,50.1,3.2,57,0,66,0Q167.75.11,269.55.06A65.13,65.13,0,0,1,280,.6C308.23,5.22,327.68,21,335.63,48.49S335.58,100,314,119a17.75,17.75,0,0,1-2.65,1.63l.84,1h4.06c12.1,0,24.2-.15,36.3.13,9.49.22,17.07,7.88,17.93,17.43.82,9.23-5.38,18.12-14.46,20.07-3.61.77-7.45.34-11.14.84a7.71,7.71,0,0,0-4.61,2.22c-12.54,15.62-10.14,39.46,5.32,52.21a15,15,0,0,0,7.61,3.1c11.05,1.12,19.2,11.79,16.91,22.68-1.79,8.45-7.24,13.31-15.36,15.41.11.38.1.7.25.84.65.58,1.35,1.11,2,1.66a70.9,70.9,0,0,1,23,34.35c1.45,4.73,2.2,9.68,3.26,14.53v13.5a10.13,10.13,0,0,0-.62,1.72c-4.42,27.63-20.63,44.74-47,52.72C331.88,376.24,328,376.84,324.11,377.68ZM33.6,339.33h4.2q138.09,0,276.19,0a58.22,58.22,0,0,0,8.94-.68c10.92-1.73,19.31-9.51,21.4-19.35,3.71-17.39-10.83-37.88-30.58-37.79-90.44.42-180.89.18-271.33.18H38C48.19,301.81,46.65,320.76,33.6,339.33ZM330.67,217.72c-6.59-8.79-10.33-17.86-11.1-28a52.2,52.2,0,0,1,6.63-29.6H82.49c-1.62,0-3.24,0-4.86.07-16,.88-28.53,16.24-26.28,32.11,2.2,15.58,14,25.43,30.53,25.44q122.15,0,244.31,0ZM78.32,96.05h4.42q93,0,185.94,0a61,61,0,0,0,6.34-.33c16-1.66,27.71-17.48,24.74-33.29C297,47.8,285.67,38.51,270.26,38.5q-91.84-.06-183.7,0c-1.09,0-2.17.1-3.69.17C92.72,58.56,91.47,77.43,78.32,96.05Zm91.6,160.05H22.46c-1.24,0-2.5-.06-3.74,0a6.35,6.35,0,0,0-5.94,6.12,6.43,6.43,0,0,0,5.57,6.5,31.85,31.85,0,0,0,4.48.11q145,0,290-.05c19.85,0,33.09,9.62,41,27,8.63,19,2.62,39.65-13.86,49.78-8,4.93-16.86,6.49-26.13,6.48q-145.75,0-291.53,0c-6.29,0-9.62,2.24-9.58,6.41s3.2,6.37,9.56,6.37H313.89c1.62,0,3.25.06,4.86,0,21.53-1.54,38.45-10.59,47.5-31,15.41-34.68-12.52-77.66-50.38-77.76C267.22,256,218.57,256.1,169.92,256.1Zm42.93-121.6v0c-44.9,0-89.81-.31-134.72.1-33.49.31-58.46,32.42-51.43,65.18,5.58,26,27.37,43.47,54.44,43.48q133.77.06,267.56,0a22.88,22.88,0,0,0,3-.07,6.59,6.59,0,0,0,6-6.53c-.07-3.31-2.69-5.89-6.32-6.14-1.37-.1-2.75,0-4.12,0H83.44c-1.87,0-3.75,0-5.61-.12-28.77-2.1-46.79-29.91-36.68-56.57,6.26-16.48,21.48-26.51,40.44-26.52q133.23,0,266.45,0c6.4,0,9.54-2.06,9.66-6.31s-3-6.49-9.75-6.49ZM171.05,12.87H67.4a29.05,29.05,0,0,0-4.48.16,5.75,5.75,0,0,0-5.32,5.79,5.75,5.75,0,0,0,4.57,6.42,20.82,20.82,0,0,0,5.19.43H237.24c12,0,23.95-.24,35.92.14,29.66.94,48.77,32.51,35.72,59.2-8.05,16.47-21.89,23.88-40,23.87q-100.66,0-201.32,0a17.93,17.93,0,0,0-4.82.32c-3.1.87-5.37,2.64-5.16,6.35.18,3.24,2.48,5.63,6,6.05a33.35,33.35,0,0,0,3.74.08h81.57c40.54,0,81.08.1,121.62,0,36.29-.12,62.06-32.75,53.59-67.59C318.19,29.64,296.65,13,270.58,12.89,237.41,12.8,204.23,12.87,171.05,12.87Z"/>
</svg>
