<?xml version="1.0" encoding="utf-8"?>
<!-- Generator: Adobe Illustrator 24.0.2, SVG Export Plug-In . SVG Version: 6.00 Build 0)  -->
<svg version="1.1" id="Capa_1" xmlns="http://www.w3.org/2000/svg" xmlns:xlink="http://www.w3.org/1999/xlink" x="0px" y="0px"
	 viewBox="0 0 383.2 377.7" style="enable-background:new 0 0 383.2 377.7;" xml:space="preserve">
<style type="text/css">
	.st0{fill:#15202B;}
</style>
<title>libros</title>
<path class="st0" d="M324.1,377.7H15.7c-0.9-0.3-1.9-0.7-2.8-1c-7.7-3-12.1-8.7-12.9-16.9c-0.6-7.8,3.7-15.2,10.9-18.6
	c20.7-10.1,27.4-36.8,14-56c-1.7-2.4-3.4-3.7-6.6-3.7c-10.5-0.4-18.8-9.2-18.4-19.8c0.4-10.1,8.5-18.1,18.6-18.4
	c6.1-0.1,12.2,0,18.3-0.1c0.9,0,1.8-0.2,3.1-0.3c-19.3-15.8-29-35.5-26.8-60.1s15.2-42.5,36.8-54.3c-0.8-1-1.4-1.8-1.9-2.7
	c-6.5-9.7-3.2-23,7.4-27.8c19.5-8.8,28.6-36,14.1-56.5c-1.3-2.1-3.6-3.4-6.1-3.3c-13.9-0.7-22.5-14.3-17-26.7C50.1,3.2,57,0,66,0
	c67.8,0.1,135.7,0.1,203.5,0.1c3.5-0.1,7,0.1,10.5,0.5c28.2,4.6,47.7,20.4,55.6,47.9S335.6,100,314,119c-0.8,0.6-1.7,1.2-2.6,1.6
	l0.8,1h4.1c12.1,0,24.2-0.2,36.3,0.1c9.5,0.2,17.1,7.9,17.9,17.4c0.8,9.2-5.4,18.1-14.5,20.1c-3.6,0.8-7.5,0.3-11.1,0.8
	c-1.7,0.2-3.4,1-4.6,2.2c-12.5,15.6-10.1,39.5,5.3,52.2c2.2,1.7,4.8,2.8,7.6,3.1c11,1.1,19.2,11.8,16.9,22.7
	c-1.8,8.4-7.2,13.3-15.4,15.4c0.1,0.4,0.1,0.7,0.3,0.8c0.6,0.6,1.4,1.1,2,1.7c10.9,8.9,18.9,20.9,23,34.4c1.5,4.7,2.2,9.7,3.3,14.5
	v13.5c-0.3,0.6-0.5,1.1-0.6,1.7c-4.4,27.6-20.6,44.7-47,52.7C331.9,376.2,328,376.8,324.1,377.7z M33.6,339.3h4.2
	c92.1,0,184.1,0,276.2,0c3,0,6-0.2,8.9-0.7c10.9-1.7,19.3-9.5,21.4-19.4c3.7-17.4-10.8-37.9-30.6-37.8
	c-90.4,0.4-180.9,0.2-271.3,0.2H38C48.2,301.8,46.7,320.8,33.6,339.3z M330.7,217.7c-6.6-8.8-10.3-17.9-11.1-28
	c-0.8-10.3,1.5-20.6,6.6-29.6H82.5c-1.6,0-3.2,0-4.9,0.1c-16,0.9-28.5,16.2-26.3,32.1c2.2,15.6,14,25.4,30.5,25.4
	c81.4,0,162.9,0,244.3,0L330.7,217.7z M78.3,96.1h4.4c62,0,124,0,185.9,0c2.1,0,4.2-0.1,6.3-0.3c16-1.7,27.7-17.5,24.7-33.3
	c-2.8-14.6-14.1-23.9-29.5-23.9c-61.2,0-122.5,0-183.7,0c-1.1,0-2.2,0.1-3.7,0.2C92.7,58.6,91.5,77.4,78.3,96.1z M169.9,256.1H22.5
	c-1.2,0-2.5-0.1-3.7,0c-3.3,0.2-5.8,2.9-5.9,6.1c-0.1,3.3,2.3,6.1,5.6,6.5c1.5,0.1,3,0.2,4.5,0.1c96.7,0,193.3,0,290,0
	c19.9,0,33.1,9.6,41,27c8.6,19,2.6,39.6-13.9,49.8c-8,4.9-16.9,6.5-26.1,6.5c-97.2,0-194.3,0-291.5,0c-6.3,0-9.6,2.2-9.6,6.4
	s3.2,6.4,9.6,6.4h291.6c1.6,0,3.3,0.1,4.9,0c21.5-1.5,38.5-10.6,47.5-31c15.4-34.7-12.5-77.7-50.4-77.8
	C267.2,256,218.6,256.1,169.9,256.1z M212.9,134.5L212.9,134.5c-44.9,0-89.8-0.3-134.7,0.1c-33.5,0.3-58.5,32.4-51.4,65.2
	c5.6,26,27.4,43.5,54.4,43.5c89.2,0,178.4,0,267.6,0c1,0,2,0,3-0.1c3.4-0.3,6-3.1,6-6.5c-0.1-3.3-2.7-5.9-6.3-6.1
	c-1.4-0.1-2.8,0-4.1,0H83.4c-1.9,0-3.8,0-5.6-0.1c-28.8-2.1-46.8-29.9-36.7-56.6c6.3-16.5,21.5-26.5,40.4-26.5
	c88.8,0,177.6,0,266.5,0c6.4,0,9.5-2.1,9.7-6.3s-3-6.5-9.8-6.5L212.9,134.5z M171.1,12.9H67.4c-1.5-0.1-3,0-4.5,0.2
	c-3,0.2-5.3,2.8-5.3,5.8c-0.4,3,1.6,5.8,4.6,6.4c1.7,0.4,3.4,0.5,5.2,0.4h169.9c12,0,23.9-0.2,35.9,0.1
	c29.7,0.9,48.8,32.5,35.7,59.2c-8,16.5-21.9,23.9-40,23.9c-67.1,0-134.2,0-201.3,0c-1.6-0.1-3.2,0-4.8,0.3c-3.1,0.9-5.4,2.6-5.2,6.3
	c0.2,3.2,2.5,5.6,6,6.1c1.2,0.1,2.5,0.1,3.7,0.1h81.6c40.5,0,81.1,0.1,121.6,0c36.3-0.1,62.1-32.8,53.6-67.6
	c-5.9-24.5-27.5-41.1-53.5-41.2C237.4,12.8,204.2,12.9,171.1,12.9z"/>
</svg>
