<?xml version="1.0" encoding="utf-8"?>
<!-- Generator: Adobe Illustrator 24.0.2, SVG Export Plug-In . SVG Version: 6.00 Build 0)  -->
<svg version="1.1" id="Capa_1" xmlns="http://www.w3.org/2000/svg" xmlns:xlink="http://www.w3.org/1999/xlink" x="0px" y="0px"
	 viewBox="0 0 35 35" style="enable-background:new 0 0 35 35;" xml:space="preserve">
<style type="text/css">
	.st0{opacity:0.6;fill:none;stroke:#DDDDDD;stroke-miterlimit:10;enable-background:new    ;}
	.st1{fill:#232328;}
	.st2{fill:#6E6B70;}
</style>
<path class="st0" d="M0.5,18.7c0-0.8,0-1.6,0-2.4c0.1-0.5,0.1-1.1,0.2-1.6C1.4,10.9,3.2,7.6,6,5c2.4-2.2,5.3-3.6,8.5-4.2
	c0.7-0.1,1.2-0.2,1.8-0.3c0.8,0,1.6,0,2.4,0c0.5,0.1,1.1,0.1,1.6,0.2c4.4,0.8,7.9,2.9,10.6,6.4c3.2,4.2,4.3,9,3.1,14.2
	c-0.9,3.9-2.9,7.1-6.1,9.6c-3.9,3-8.3,4.1-13.2,3.4c-3.3-0.5-6.2-2-8.7-4.2c-2.8-2.6-4.6-5.8-5.2-9.5C0.7,19.9,0.6,19.3,0.5,18.7z"
	/>
<path class="st0" d="M14.9,14.5c0,4,0,7.9,0,11.9c1.2,0,2.4,0,3.6,0c0-0.1,0-0.3,0-0.4c0-1.8,0-3.5,0-5.3c0-0.4,0-0.8,0.1-1.3
	c0.2-1.5,1.1-2.2,2.6-2c0.7,0.1,1.1,0.5,1.3,1.1c0.1,0.5,0.2,1,0.2,1.5c0,2,0,3.9,0,5.9c0,0.1,0,0.2,0,0.4c0.1,0,0.2,0,0.3,0
	c1,0,2,0,3,0c0.3,0,0.4-0.1,0.3-0.4c0-2,0-4.1,0-6.1c0-0.8-0.1-1.6-0.2-2.3c-0.2-1.6-1-2.8-2.6-3.2c-0.5-0.1-1.1-0.2-1.6-0.2
	c-1.5,0-2.7,0.5-3.5,1.8c0,0-0.1,0.1-0.1,0.2c0-0.6,0-1.1,0-1.6C17.2,14.5,16.1,14.5,14.9,14.5z"/>
<path class="st0" d="M8.9,26.4c1.2,0,2.4,0,3.6,0c0-4,0-7.9,0-11.9c-1.2,0-2.4,0-3.6,0C8.9,18.5,8.9,22.4,8.9,26.4z"/>
<path class="st0" d="M10.7,12.9c1.2,0,2.1-1,2.1-2.1c0-1.2-1-2.1-2.2-2.1s-2.1,1-2.1,2.2C8.6,11.9,9.5,12.9,10.7,12.9z"/>
<path class="st0" d="M14.9,14.5c1.2,0,2.3,0,3.5,0c0,0.5,0,1,0,1.6c0.1-0.1,0.1-0.1,0.1-0.2c0.8-1.3,2-1.8,3.5-1.8
	c0.5,0,1.1,0.1,1.6,0.2c1.6,0.4,2.4,1.7,2.6,3.2c0.1,0.8,0.2,1.6,0.2,2.3c0,2,0,4.1,0,6.1c0,0.3-0.1,0.4-0.3,0.4c-1,0-2,0-3,0
	c-0.1,0-0.2,0-0.3,0c0-0.1,0-0.2,0-0.4c0-2,0-3.9,0-5.9c0-0.5-0.1-1-0.2-1.5c-0.2-0.6-0.6-1-1.3-1.1c-1.5-0.2-2.5,0.5-2.6,2
	c0,0.4-0.1,0.8-0.1,1.3c0,1.8,0,3.5,0,5.3c0,0.1,0,0.2,0,0.4c-1.2,0-2.4,0-3.6,0C14.9,22.4,14.9,18.5,14.9,14.5z"/>
<path class="st0" d="M8.9,26.4c0-4,0-7.9,0-11.9c1.2,0,2.4,0,3.6,0c0,3.9,0,7.9,0,11.9C11.3,26.4,10.1,26.4,8.9,26.4z"/>
<path class="st0" d="M10.7,12.9c-1.2,0-2.2-1-2.2-2.1c0.1-1.3,1-2.2,2.2-2.2s2.2,1,2.2,2.1C12.9,11.9,11.9,12.8,10.7,12.9z"/>
<path class="st1" d="M15.1,27.9c0.1-0.1,0.3-0.1,0.4,0C15.4,27.9,15.3,27.9,15.1,27.9z"/>
<path class="st1" d="M16.4,27.9c0.1-0.1,0.2-0.1,0.3,0C16.7,27.9,16.6,27.9,16.4,27.9z"/>
<path class="st2" d="M6.8,17c0,0-0.1,0-0.1,0.1c-0.1,0-0.1-0.1-0.1-0.1C6.6,16.9,6.7,16.9,6.8,17z"/>
</svg>
