<?xml version="1.0" encoding="utf-8"?>
<!-- Generator: Adobe Illustrator 24.0.2, SVG Export Plug-In . SVG Version: 6.00 Build 0)  -->
<svg version="1.1" id="Capa_1" xmlns="http://www.w3.org/2000/svg" xmlns:xlink="http://www.w3.org/1999/xlink" x="0px" y="0px"
	 viewBox="0 0 451 117.1" style="enable-background:new 0 0 451 117.1;" xml:space="preserve">
<style type="text/css">
	.st0{opacity:0.9;fill:#FBD59A;enable-background:new    ;}
	.st1{opacity:0.9;fill:#D0884C;enable-background:new    ;}
	.st2{enable-background:new    ;}
	.st3{fill:#DDDDDD;}
	.st4{fill:none;stroke:#DDDDDD;stroke-width:0.5;stroke-miterlimit:10;}
</style>
<title>scrollama_barcelona</title>
<g>
	<g>
		<g>
			<g>
				<rect x="3.6" y="73.3" class="st0" width="304.5" height="23.9"/>
				<rect x="3.6" y="73.4" class="st1" width="209.3" height="23.9"/>
			</g>
		</g>
		<g class="st2">
			<path class="st3" d="M378.7,112.7v0.7h-5.6v-0.7h2.4v-6.2c-0.7,0.7-1.4,1.3-2.2,1.7v-1c1.1-0.6,1.9-1.2,2.4-2h0.7v7.4H378.7z"/>
		</g>
		<g class="st2">
			<path class="st3" d="M381.7,113.4h-1c0-1.3,0.3-2.6,0.8-3.9s1.2-2.3,2-3.2h-4.3l0.1-0.9h5.3v0.6c-1,1.1-1.7,2.3-2.1,3.6
				s-0.7,2.4-0.7,3.5C381.7,113.2,381.7,113.3,381.7,113.4z"/>
			<path class="st3" d="M391.7,112.6v0.8H386v-0.8c2.2-1.7,3.6-2.8,4-3.3s0.6-1.1,0.6-1.6c0-0.5-0.2-0.9-0.5-1.2s-0.8-0.5-1.3-0.5
				c-0.5,0-0.9,0.2-1.3,0.5s-0.6,0.8-0.6,1.3l-0.9-0.3c0.4-1.6,1.3-2.3,2.9-2.3c0.8,0,1.5,0.2,2,0.7s0.8,1,0.8,1.7
				c0,0.5-0.1,0.9-0.4,1.3s-0.7,0.9-1.4,1.5s-1.6,1.3-2.6,2H391.7z"/>
			<path class="st3" d="M395.9,113.6c-0.9,0-1.7-0.4-2.2-1.2c-0.6-0.8-0.8-1.8-0.8-3c0-1.2,0.3-2.1,0.8-2.9c0.5-0.8,1.3-1.2,2.2-1.2
				c1,0,1.8,0.4,2.3,1.3s0.8,1.8,0.8,2.9c0,1.1-0.3,2.1-0.8,2.9C397.6,113.2,396.9,113.6,395.9,113.6z M395.9,112.8
				c0.7,0,1.2-0.3,1.5-0.9s0.5-1.4,0.5-2.3c0-1-0.2-1.9-0.5-2.5s-0.8-1-1.5-1c-0.7,0-1.2,0.3-1.5,0.9s-0.5,1.4-0.5,2.4
				c0,1,0.2,1.9,0.5,2.5S395.3,112.8,395.9,112.8z"/>
		</g>
		<g class="st2">
			<path class="st3" d="M3.5,113.6c-0.9,0-1.7-0.4-2.2-1.2c-0.6-0.8-0.8-1.8-0.8-3c0-1.2,0.3-2.1,0.8-2.9c0.5-0.8,1.3-1.2,2.2-1.2
				c1,0,1.8,0.4,2.3,1.3s0.8,1.8,0.8,2.9c0,1.1-0.3,2.1-0.8,2.9C5.2,113.2,4.5,113.6,3.5,113.6z M3.5,112.8c0.7,0,1.2-0.3,1.5-0.9
				s0.5-1.4,0.5-2.3c0-1-0.2-1.9-0.5-2.5s-0.8-1-1.5-1c-0.7,0-1.2,0.3-1.5,0.9s-0.5,1.4-0.5,2.4c0,1,0.2,1.9,0.5,2.5
				S2.9,112.8,3.5,112.8z"/>
		</g>
	</g>
	<g class="st2">
		<path class="st3" d="M252.4,13.3V2.7h3.6c1.5,0,2.7,0.5,3.5,1.5c0.8,1,1.3,2.3,1.3,3.8c0,1.5-0.4,2.8-1.2,3.8
			c-0.8,1-1.9,1.6-3.1,1.6H252.4z M253.8,12.2h2.2c1.1,0,2-0.4,2.6-1.2s0.9-1.8,0.9-3.1c0-1.1-0.3-2-0.8-2.8
			c-0.6-0.8-1.4-1.3-2.7-1.3h-2.2V12.2z"/>
		<path class="st3" d="M267.9,11l1.1,0.2c-0.2,0.7-0.6,1.2-1.2,1.7c-0.6,0.4-1.3,0.7-2.1,0.7c-1.1,0-2-0.4-2.6-1.1
			c-0.7-0.8-1-1.8-1-3c0-1.3,0.3-2.3,1-3c0.7-0.8,1.6-1.2,2.6-1.2c1,0,1.9,0.4,2.5,1.1c0.6,0.7,0.9,1.8,1,3.2h-5.7
			c0,1.2,0.3,2,0.8,2.4s1,0.6,1.6,0.6C266.8,12.5,267.5,12,267.9,11z M267.8,8.6c0-0.4-0.1-0.8-0.2-1.2c-0.1-0.3-0.4-0.6-0.7-0.9
			c-0.3-0.2-0.7-0.4-1.2-0.4c-0.6,0-1.1,0.2-1.6,0.7c-0.4,0.4-0.7,1-0.7,1.8H267.8z"/>
		<path class="st3" d="M270,11.3l1.2-0.2c0.3,1,1.1,1.5,2.5,1.5c0.5,0,0.9-0.1,1.3-0.3c0.4-0.2,0.5-0.6,0.5-1c0-0.6-0.5-1-1.4-1.2
			l-1.7-0.3c-0.7-0.1-1.2-0.4-1.6-0.7c-0.4-0.4-0.6-0.8-0.6-1.4c0-0.7,0.3-1.2,0.8-1.7c0.5-0.4,1.2-0.7,2.1-0.7c1.7,0,2.8,0.7,3.2,2
			l-1.1,0.2c-0.3-0.8-1-1.2-2-1.2c-0.5,0-0.9,0.1-1.2,0.3c-0.3,0.2-0.5,0.5-0.5,0.9c0,0.6,0.4,0.9,1.2,1.1l1.5,0.3
			c1.6,0.3,2.4,1.1,2.4,2.3c0,0.7-0.3,1.3-0.9,1.8c-0.6,0.4-1.4,0.7-2.4,0.7C271.6,13.6,270.4,12.8,270,11.3z"/>
		<path class="st3" d="M279.7,16h-1.2V5.4h1.1V7c0.6-1.2,1.4-1.8,2.5-1.8c0.9,0,1.7,0.4,2.3,1.2s0.9,1.8,0.9,3
			c0,1.3-0.3,2.3-0.9,3.1c-0.6,0.8-1.3,1.1-2.3,1.1c-1,0-1.8-0.5-2.3-1.4V16z M279.7,8.3v2.2c0.1,0.6,0.3,1.1,0.8,1.5
			c0.4,0.4,0.9,0.6,1.3,0.6c0.5,0,1-0.2,1.4-0.7s0.6-1.3,0.6-2.4c0-1-0.2-1.8-0.6-2.3s-0.9-0.8-1.5-0.8c-0.5,0-0.9,0.2-1.3,0.6
			C280,7.3,279.8,7.7,279.7,8.3z"/>
		<path class="st3" d="M293.2,13.3h-1.1v-1.5c-0.6,1.2-1.4,1.7-2.5,1.7c-0.8,0-1.4-0.3-1.9-0.8c-0.5-0.5-0.7-1.3-0.7-2.3v-5h1.2v5
			c0,0.8,0.2,1.3,0.5,1.6c0.3,0.3,0.7,0.4,1.1,0.4c0.4,0,0.8-0.1,1.1-0.3s0.6-0.5,0.8-1c0.2-0.4,0.3-0.9,0.3-1.4V5.4h1.2V13.3z"/>
		<path class="st3" d="M300.9,11l1.1,0.2c-0.2,0.7-0.6,1.2-1.2,1.7c-0.6,0.4-1.3,0.7-2.1,0.7c-1.1,0-2-0.4-2.6-1.1
			c-0.7-0.8-1-1.8-1-3c0-1.3,0.3-2.3,1-3c0.7-0.8,1.6-1.2,2.6-1.2c1,0,1.9,0.4,2.5,1.1c0.6,0.7,0.9,1.8,1,3.2h-5.7
			c0,1.2,0.3,2,0.8,2.4s1,0.6,1.6,0.6C299.7,12.5,300.4,12,300.9,11z M300.8,8.6c0-0.4-0.1-0.8-0.2-1.2c-0.1-0.3-0.4-0.6-0.7-0.9
			c-0.3-0.2-0.7-0.4-1.2-0.4c-0.6,0-1.1,0.2-1.6,0.7c-0.4,0.4-0.7,1-0.7,1.8H300.8z M301.1,2.7l-3.2,1.5l-0.3-0.6l3.1-1.8L301.1,2.7
			z"/>
		<path class="st3" d="M302.9,11.3l1.2-0.2c0.3,1,1.1,1.5,2.5,1.5c0.5,0,0.9-0.1,1.3-0.3c0.4-0.2,0.5-0.6,0.5-1c0-0.6-0.5-1-1.4-1.2
			l-1.7-0.3c-0.7-0.1-1.2-0.4-1.6-0.7c-0.4-0.4-0.6-0.8-0.6-1.4c0-0.7,0.3-1.2,0.8-1.7c0.5-0.4,1.2-0.7,2.1-0.7c1.7,0,2.8,0.7,3.2,2
			l-1.1,0.2c-0.3-0.8-1-1.2-2-1.2c-0.5,0-0.9,0.1-1.2,0.3c-0.3,0.2-0.5,0.5-0.5,0.9c0,0.6,0.4,0.9,1.2,1.1l1.5,0.3
			c1.6,0.3,2.4,1.1,2.4,2.3c0,0.7-0.3,1.3-0.9,1.8c-0.6,0.4-1.4,0.7-2.4,0.7C304.5,13.6,303.4,12.8,302.9,11.3z"/>
		<path class="st3" d="M321.6,2.7v10.7h-1.1V12c-0.6,1-1.4,1.6-2.5,1.6c-0.9,0-1.7-0.4-2.3-1.2s-0.9-1.8-0.9-2.9
			c0-1.2,0.3-2.2,0.9-3c0.6-0.8,1.4-1.2,2.3-1.2c0.9,0,1.7,0.4,2.3,1.3V2.7H321.6z M320.3,8.5c0-0.7-0.2-1.2-0.6-1.7
			s-0.9-0.6-1.5-0.6c-0.6,0-1.1,0.3-1.5,0.8c-0.4,0.5-0.6,1.3-0.6,2.3c0,1.1,0.2,1.9,0.5,2.4c0.4,0.6,0.9,0.8,1.5,0.8
			c0.6,0,1.1-0.2,1.5-0.7s0.7-1,0.7-1.7V8.5z"/>
		<path class="st3" d="M329.2,11l1.1,0.2c-0.2,0.7-0.6,1.2-1.2,1.7c-0.6,0.4-1.3,0.7-2.1,0.7c-1.1,0-2-0.4-2.6-1.1
			c-0.7-0.8-1-1.8-1-3c0-1.3,0.3-2.3,1-3c0.7-0.8,1.6-1.2,2.6-1.2c1,0,1.9,0.4,2.5,1.1c0.6,0.7,0.9,1.8,1,3.2h-5.7
			c0,1.2,0.3,2,0.8,2.4s1,0.6,1.6,0.6C328.1,12.5,328.8,12,329.2,11z M329.2,8.6c0-0.4-0.1-0.8-0.2-1.2c-0.1-0.3-0.4-0.6-0.7-0.9
			c-0.3-0.2-0.7-0.4-1.2-0.4c-0.6,0-1.1,0.2-1.6,0.7c-0.4,0.4-0.7,1-0.7,1.8H329.2z"/>
		<path class="st3" d="M337.6,16h-1.2V5.4h1.1V7c0.6-1.2,1.4-1.8,2.5-1.8c0.9,0,1.7,0.4,2.3,1.2s0.9,1.8,0.9,3
			c0,1.3-0.3,2.3-0.9,3.1c-0.6,0.8-1.3,1.1-2.3,1.1c-1,0-1.8-0.5-2.3-1.4V16z M337.6,8.3v2.2c0.1,0.6,0.3,1.1,0.8,1.5
			c0.4,0.4,0.9,0.6,1.3,0.6c0.5,0,1-0.2,1.4-0.7s0.6-1.3,0.6-2.4c0-1-0.2-1.8-0.6-2.3s-0.9-0.8-1.5-0.8c-0.5,0-0.9,0.2-1.3,0.6
			C338,7.3,337.7,7.7,337.6,8.3z"/>
		<path class="st3" d="M351.1,13.3h-1.2c0-0.3-0.1-0.7-0.1-1.4c-0.5,1.1-1.5,1.6-2.8,1.6c-0.9,0-1.6-0.2-2-0.7
			c-0.5-0.5-0.7-1-0.7-1.7c0-0.8,0.3-1.5,1-2c0.7-0.5,1.8-0.8,3.5-0.8c0.2,0,0.6,0,1,0c0-0.6,0-1.1-0.1-1.4
			c-0.1-0.3-0.3-0.5-0.6-0.7s-0.7-0.3-1.2-0.3c-1.2,0-2,0.5-2.2,1.4l-1.1-0.2c0.3-1.5,1.4-2.2,3.5-2.2c1.1,0,1.9,0.2,2.3,0.7
			c0.5,0.5,0.7,1.3,0.7,2.5v3.4C350.9,12.4,351,12.9,351.1,13.3z M349.7,9.4c-0.5,0-0.9,0-1.1,0c-1,0-1.7,0.2-2.3,0.5
			c-0.5,0.3-0.8,0.8-0.8,1.4c0,0.4,0.1,0.7,0.4,1s0.7,0.4,1.3,0.4c0.7,0,1.3-0.3,1.8-0.8s0.7-1.2,0.7-1.9
			C349.7,9.8,349.7,9.6,349.7,9.4z"/>
		<path class="st3" d="M359.8,4.2v1c-0.6,0-0.9,0.1-1.1,0.2c-0.2,0.1-0.3,0.4-0.4,0.7c0.5,0.6,0.8,1.2,0.8,1.9
			c0,0.7-0.3,1.3-0.8,1.9c-0.5,0.5-1.3,0.8-2.2,0.8c-0.2,0-0.4,0-0.5,0c-0.3-0.1-0.5-0.1-0.5-0.1c-0.1,0-0.3,0.1-0.5,0.2
			c-0.2,0.1-0.3,0.3-0.3,0.5c0,0.3,0.1,0.5,0.4,0.6c0.3,0.1,1,0.2,2,0.2c0.9,0,1.6,0.1,2,0.2s0.8,0.3,1.1,0.6s0.4,0.7,0.4,1.2
			c0,1.5-1.3,2.3-4,2.3c-1.3,0-2.2-0.2-2.7-0.6c-0.6-0.4-0.9-0.9-0.9-1.5c0-0.8,0.4-1.3,1.2-1.6c-0.5-0.3-0.8-0.8-0.8-1.3
			c0-0.6,0.4-1.1,1.1-1.4c-0.7-0.6-1-1.2-1-2.1c0-0.8,0.3-1.4,0.9-1.9c0.6-0.5,1.3-0.8,2.1-0.8c0.6,0,1.1,0.1,1.6,0.3
			c0.1-0.5,0.3-0.9,0.5-1.1c0.3-0.2,0.7-0.3,1.3-0.3C359.5,4.2,359.7,4.2,359.8,4.2z M354.6,13c-0.6,0.3-0.9,0.6-0.9,1.1
			c0,0.4,0.2,0.7,0.7,0.9c0.5,0.2,1.1,0.3,1.8,0.3c0.7,0,1.3-0.1,1.9-0.3s0.8-0.5,0.8-1c0-0.2-0.1-0.4-0.3-0.6
			c-0.2-0.2-0.4-0.3-0.7-0.3s-0.8-0.1-1.5-0.1C355.6,13.1,355,13.1,354.6,13z M356,9.7c0.5,0,0.9-0.2,1.3-0.5s0.5-0.7,0.5-1.2
			c0-0.5-0.2-0.9-0.5-1.3c-0.3-0.3-0.8-0.5-1.2-0.5c-0.5,0-0.9,0.2-1.2,0.5s-0.5,0.8-0.5,1.3c0,0.5,0.2,0.9,0.5,1.2
			C355.1,9.5,355.5,9.7,356,9.7z"/>
		<path class="st3" d="M367.4,13.3h-1.2c0-0.3-0.1-0.7-0.1-1.4c-0.5,1.1-1.5,1.6-2.8,1.6c-0.9,0-1.6-0.2-2-0.7
			c-0.5-0.5-0.7-1-0.7-1.7c0-0.8,0.3-1.5,1-2c0.7-0.5,1.8-0.8,3.5-0.8c0.2,0,0.6,0,1,0c0-0.6,0-1.1-0.1-1.4
			c-0.1-0.3-0.3-0.5-0.6-0.7s-0.7-0.3-1.2-0.3c-1.2,0-2,0.5-2.2,1.4l-1.1-0.2c0.3-1.5,1.4-2.2,3.5-2.2c1.1,0,1.9,0.2,2.3,0.7
			c0.5,0.5,0.7,1.3,0.7,2.5v3.4C367.2,12.4,367.3,12.9,367.4,13.3z M366,9.4c-0.5,0-0.9,0-1.1,0c-1,0-1.7,0.2-2.3,0.5
			c-0.5,0.3-0.8,0.8-0.8,1.4c0,0.4,0.1,0.7,0.4,1s0.7,0.4,1.3,0.4c0.7,0,1.3-0.3,1.8-0.8s0.7-1.2,0.7-1.9C366.1,9.8,366,9.6,366,9.4
			z"/>
		<path class="st3" d="M370.9,13.3h-1.2V5.4h1.1v1.8c0.4-0.9,0.8-1.4,1.1-1.7s0.8-0.4,1.2-0.4c0.1,0,0.3,0,0.5,0v1.2h-0.3
			c-0.7,0-1.2,0.3-1.7,0.8c-0.4,0.5-0.7,1.2-0.7,2V13.3z"/>
		<path class="st3" d="M384.2,11l1.1,0.2c-0.2,0.7-0.6,1.2-1.2,1.7c-0.6,0.4-1.3,0.7-2.1,0.7c-1.1,0-2-0.4-2.6-1.1
			c-0.7-0.8-1-1.8-1-3c0-1.3,0.3-2.3,1-3c0.7-0.8,1.6-1.2,2.6-1.2c1,0,1.9,0.4,2.5,1.1c0.6,0.7,0.9,1.8,1,3.2h-5.7
			c0,1.2,0.3,2,0.8,2.4s1,0.6,1.6,0.6C383,12.5,383.7,12,384.2,11z M384.1,8.6c0-0.4-0.1-0.8-0.2-1.2c-0.1-0.3-0.4-0.6-0.7-0.9
			c-0.3-0.2-0.7-0.4-1.2-0.4c-0.6,0-1.1,0.2-1.6,0.7c-0.4,0.4-0.7,1-0.7,1.8H384.1z"/>
		<path class="st3" d="M388.5,13.3h-1.2V2.7h1.2V13.3z"/>
		<path class="st3" d="M401.1,13.3h-1.2c0-0.3-0.1-0.7-0.1-1.4c-0.5,1.1-1.5,1.6-2.8,1.6c-0.9,0-1.6-0.2-2-0.7
			c-0.5-0.5-0.7-1-0.7-1.7c0-0.8,0.3-1.5,1-2c0.7-0.5,1.8-0.8,3.5-0.8c0.2,0,0.6,0,1,0c0-0.6,0-1.1-0.1-1.4
			c-0.1-0.3-0.3-0.5-0.6-0.7s-0.7-0.3-1.2-0.3c-1.2,0-2,0.5-2.2,1.4l-1.1-0.2c0.3-1.5,1.4-2.2,3.5-2.2c1.1,0,1.9,0.2,2.3,0.7
			c0.5,0.5,0.7,1.3,0.7,2.5v3.4C401,12.4,401,12.9,401.1,13.3z M399.8,9.4c-0.5,0-0.9,0-1.1,0c-1,0-1.7,0.2-2.3,0.5
			c-0.5,0.3-0.8,0.8-0.8,1.4c0,0.4,0.1,0.7,0.4,1s0.7,0.4,1.3,0.4c0.7,0,1.3-0.3,1.8-0.8s0.7-1.2,0.7-1.9
			C399.8,9.8,399.8,9.6,399.8,9.4z"/>
		<path class="st3" d="M404.6,13.3h-1.2V2.7h1.2V13.3z"/>
	</g>
	<g class="st2">
		<path class="st3" d="M413.2,5.3V16H412v-4.1c-0.5,1.1-1.3,1.6-2.4,1.6c-0.9,0-1.6-0.4-2.2-1.1s-0.9-1.7-0.9-3c0-1.2,0.3-2.2,0.9-3
			c0.6-0.8,1.4-1.2,2.3-1.2c0.5,0,0.9,0.1,1.3,0.3c0.4,0.2,0.8,0.6,1.1,1.2l0.5-1.4H413.2z M412,8.8c-0.1-0.9-0.3-1.6-0.7-2
			s-0.9-0.6-1.4-0.6c-0.6,0-1.1,0.3-1.5,0.9c-0.4,0.6-0.6,1.3-0.6,2.3c0,0.9,0.2,1.7,0.5,2.2c0.4,0.6,0.9,0.9,1.5,0.9
			c0.6,0,1.1-0.3,1.5-0.8c0.4-0.5,0.6-1.2,0.6-1.9V8.8z"/>
	</g>
	<g class="st2">
		<path class="st3" d="M421.7,13.3h-1.1v-1.5c-0.6,1.2-1.4,1.7-2.5,1.7c-0.8,0-1.4-0.3-1.9-0.8c-0.5-0.5-0.7-1.3-0.7-2.3v-5h1.2v5
			c0,0.8,0.2,1.3,0.5,1.6c0.3,0.3,0.7,0.4,1.1,0.4c0.4,0,0.8-0.1,1.1-0.3s0.6-0.5,0.8-1c0.2-0.4,0.3-0.9,0.3-1.4V5.4h1.2V13.3z"/>
		<path class="st3" d="M425.4,2.7V4h-1.3V2.7H425.4z M425.4,5.4v7.9h-1.2V5.4H425.4z"/>
		<path class="st3" d="M429.1,13.3h-1.2V2.7h1.2V13.3z"/>
		<path class="st3" d="M436.7,11l1.1,0.2c-0.2,0.7-0.6,1.2-1.2,1.7c-0.6,0.4-1.3,0.7-2.1,0.7c-1.1,0-2-0.4-2.6-1.1
			c-0.7-0.8-1-1.8-1-3c0-1.3,0.3-2.3,1-3c0.7-0.8,1.6-1.2,2.6-1.2c1,0,1.9,0.4,2.5,1.1c0.6,0.7,0.9,1.8,1,3.2h-5.7
			c0,1.2,0.3,2,0.8,2.4s1,0.6,1.6,0.6C435.6,12.5,436.3,12,436.7,11z M436.7,8.6c0-0.4-0.1-0.8-0.2-1.2c-0.1-0.3-0.4-0.6-0.7-0.9
			c-0.3-0.2-0.7-0.4-1.2-0.4c-0.6,0-1.1,0.2-1.6,0.7c-0.4,0.4-0.7,1-0.7,1.8H436.7z"/>
	</g>
	<g class="st2">
		<path class="st3" d="M441.1,13.3h-1.2V5.4h1.1v1.8c0.4-0.9,0.8-1.4,1.1-1.7s0.8-0.4,1.2-0.4c0.1,0,0.3,0,0.5,0v1.2h-0.3
			c-0.7,0-1.2,0.3-1.7,0.8s-0.7,1.2-0.7,2V13.3z"/>
	</g>
	<g class="st2">
		<path class="st3" d="M445.9,11.6v1.6l-1.2,2.2h-0.7l0.9-2h-0.8v-1.8H445.9z"/>
	</g>
	<g class="st2">
		<path class="st3" d="M258.5,24.5v10.7h-1.2v-4.1c-0.5,1.1-1.3,1.6-2.4,1.6c-0.9,0-1.6-0.4-2.2-1.1s-0.9-1.7-0.9-3
			c0-1.2,0.3-2.2,0.9-3c0.6-0.8,1.4-1.2,2.3-1.2c0.5,0,0.9,0.1,1.3,0.3c0.4,0.2,0.8,0.6,1.1,1.2l0.5-1.4H258.5z M257.2,28
			c-0.1-0.9-0.3-1.6-0.7-2s-0.9-0.6-1.4-0.6c-0.6,0-1.1,0.3-1.5,0.9c-0.4,0.6-0.6,1.3-0.6,2.3c0,0.9,0.2,1.7,0.5,2.2
			c0.4,0.6,0.9,0.9,1.5,0.9c0.6,0,1.1-0.3,1.5-0.8c0.4-0.5,0.6-1.2,0.6-1.9V28z"/>
	</g>
	<g class="st2">
		<path class="st3" d="M267,32.5h-1.1V31c-0.6,1.2-1.4,1.7-2.5,1.7c-0.8,0-1.4-0.3-1.9-0.8c-0.5-0.5-0.7-1.3-0.7-2.3v-5h1.2v5
			c0,0.8,0.2,1.3,0.5,1.6c0.3,0.3,0.7,0.4,1.1,0.4c0.4,0,0.8-0.1,1.1-0.3s0.6-0.5,0.8-1c0.2-0.4,0.3-0.9,0.3-1.4v-4.4h1.2V32.5z"/>
		<path class="st3" d="M274.6,30.2l1.1,0.2c-0.2,0.7-0.6,1.2-1.2,1.7c-0.6,0.4-1.3,0.7-2.1,0.7c-1.1,0-2-0.4-2.6-1.1
			c-0.7-0.8-1-1.8-1-3c0-1.3,0.3-2.3,1-3c0.7-0.8,1.6-1.2,2.6-1.2c1,0,1.9,0.4,2.5,1.1c0.6,0.7,0.9,1.8,1,3.2h-5.7
			c0,1.2,0.3,2,0.8,2.4s1,0.6,1.6,0.6C273.5,31.7,274.2,31.2,274.6,30.2z M274.6,27.8c0-0.4-0.1-0.8-0.2-1.2
			c-0.1-0.3-0.4-0.6-0.7-0.9c-0.3-0.2-0.7-0.4-1.2-0.4c-0.6,0-1.1,0.2-1.6,0.7c-0.4,0.4-0.7,1-0.7,1.8H274.6z"/>
		<path class="st3" d="M283.9,21.9v10.7h-1.1v-1.4c-0.6,1-1.4,1.6-2.5,1.6c-0.9,0-1.7-0.4-2.3-1.2c-0.6-0.8-0.9-1.8-0.9-2.9
			c0-1.2,0.3-2.2,0.9-3c0.6-0.8,1.4-1.2,2.3-1.2c0.9,0,1.7,0.4,2.3,1.3v-3.9H283.9z M282.7,27.7c0-0.7-0.2-1.2-0.6-1.7
			s-0.9-0.6-1.5-0.6c-0.6,0-1.1,0.3-1.5,0.8c-0.4,0.5-0.6,1.3-0.6,2.3c0,1.1,0.2,1.9,0.5,2.4c0.4,0.6,0.9,0.8,1.5,0.8
			c0.6,0,1.1-0.2,1.5-0.7s0.7-1,0.7-1.7V27.7z"/>
		<path class="st3" d="M292.5,32.5h-1.2c0-0.3-0.1-0.7-0.1-1.4c-0.5,1.1-1.5,1.6-2.8,1.6c-0.9,0-1.6-0.2-2-0.7
			c-0.5-0.5-0.7-1-0.7-1.7c0-0.8,0.3-1.5,1-2c0.7-0.5,1.8-0.8,3.5-0.8c0.2,0,0.6,0,1,0c0-0.6,0-1.1-0.1-1.4
			c-0.1-0.3-0.3-0.5-0.6-0.7s-0.7-0.3-1.2-0.3c-1.2,0-2,0.5-2.2,1.4l-1.1-0.2c0.3-1.5,1.4-2.2,3.5-2.2c1.1,0,1.9,0.2,2.3,0.7
			c0.5,0.5,0.7,1.3,0.7,2.5V31C292.4,31.6,292.4,32.1,292.5,32.5z M291.2,28.6c-0.5,0-0.9,0-1.1,0c-1,0-1.7,0.2-2.3,0.5
			c-0.5,0.3-0.8,0.8-0.8,1.4c0,0.4,0.1,0.7,0.4,1s0.7,0.4,1.3,0.4c0.7,0,1.3-0.3,1.8-0.8s0.7-1.2,0.7-1.9
			C291.2,29,291.2,28.8,291.2,28.6z"/>
		<path class="st3" d="M296,32.5h-1.2v-7.9h1.1v1.8c0.4-0.9,0.8-1.4,1.1-1.7s0.8-0.4,1.2-0.4c0.1,0,0.3,0,0.5,0v1.2h-0.3
			c-0.7,0-1.2,0.3-1.7,0.8c-0.4,0.5-0.7,1.2-0.7,2V32.5z"/>
		<path class="st3" d="M303.4,21.9l-3.2,1.5l-0.3-0.6L303,21L303.4,21.9z M301.3,24.6v7.9h-1.2v-7.9H301.3z"/>
		<path class="st3" d="M309.9,32.5h-1.2c0-0.3-0.1-0.7-0.1-1.4c-0.5,1.1-1.5,1.6-2.8,1.6c-0.9,0-1.6-0.2-2-0.7
			c-0.5-0.5-0.7-1-0.7-1.7c0-0.8,0.3-1.5,1-2c0.7-0.5,1.8-0.8,3.5-0.8c0.2,0,0.6,0,1,0c0-0.6,0-1.1-0.1-1.4
			c-0.1-0.3-0.3-0.5-0.6-0.7s-0.7-0.3-1.2-0.3c-1.2,0-2,0.5-2.2,1.4l-1.1-0.2c0.3-1.5,1.4-2.2,3.5-2.2c1.1,0,1.9,0.2,2.3,0.7
			c0.5,0.5,0.7,1.3,0.7,2.5V31C309.8,31.6,309.8,32.1,309.9,32.5z M308.6,28.6c-0.5,0-0.9,0-1.1,0c-1,0-1.7,0.2-2.3,0.5
			c-0.5,0.3-0.8,0.8-0.8,1.4c0,0.4,0.1,0.7,0.4,1s0.7,0.4,1.3,0.4c0.7,0,1.3-0.3,1.8-0.8s0.7-1.2,0.7-1.9
			C308.6,29,308.6,28.8,308.6,28.6z"/>
		<path class="st3" d="M322.4,32.5h-1.1V31c-0.6,1.2-1.4,1.7-2.5,1.7c-0.8,0-1.4-0.3-1.9-0.8c-0.5-0.5-0.7-1.3-0.7-2.3v-5h1.2v5
			c0,0.8,0.2,1.3,0.5,1.6c0.3,0.3,0.7,0.4,1.1,0.4c0.4,0,0.8-0.1,1.1-0.3s0.6-0.5,0.8-1c0.2-0.4,0.3-0.9,0.3-1.4v-4.4h1.2V32.5z"/>
		<path class="st3" d="M331.1,32.5H330v-5.1c0-0.7-0.2-1.2-0.5-1.5c-0.3-0.3-0.7-0.4-1.2-0.4c-0.6,0-1.1,0.3-1.6,0.8
			c-0.4,0.5-0.6,1.2-0.6,2v4.3h-1.2v-7.9h1.1v1.5c0.6-1.1,1.5-1.7,2.5-1.7c0.6,0,1.1,0.2,1.5,0.5s0.7,0.6,0.9,1
			c0.2,0.4,0.2,1.1,0.2,2.1V32.5z"/>
	</g>
	<g class="st2">
		<path class="st3" d="M344.7,31.4v1.1h-7.6v-1.1c3-2.2,4.8-3.7,5.3-4.4s0.9-1.4,0.9-2.1c0-0.7-0.2-1.2-0.7-1.6s-1-0.6-1.7-0.6
			c-0.7,0-1.2,0.2-1.7,0.7s-0.8,1-0.8,1.8l-1.2-0.4c0.5-2.1,1.8-3.1,3.8-3.1c1.1,0,2,0.3,2.7,0.9s1,1.4,1,2.3c0,0.6-0.2,1.2-0.5,1.8
			s-0.9,1.3-1.8,2.1s-2.1,1.7-3.5,2.7H344.7z"/>
		<path class="st3" d="M350.4,32.8c-1.2,0-2.2-0.5-2.9-1.6s-1.1-2.4-1.1-4c0-1.6,0.3-2.9,1-3.9s1.7-1.6,3-1.6c1.3,0,2.3,0.6,3,1.7
			s1,2.4,1,3.9c0,1.5-0.4,2.8-1.1,3.9S351.7,32.8,350.4,32.8z M350.4,31.7c0.9,0,1.6-0.4,2-1.2s0.6-1.8,0.6-3.1
			c0-1.3-0.2-2.5-0.7-3.4s-1.1-1.3-2-1.3c-0.9,0-1.6,0.4-2,1.2s-0.7,1.9-0.7,3.2c0,1.4,0.2,2.5,0.7,3.3S349.5,31.7,350.4,31.7z"/>
		<path class="st3" d="M358,30.8v1.6l-1.2,2.2h-0.7l0.9-2h-0.8v-1.8H358z"/>
		<path class="st3" d="M360,30.6l1.1-0.4c0.4,1,1.2,1.5,2.2,1.5c1,0,1.8-0.4,2.3-1.3s0.8-2,0.8-3.5c-0.7,1.3-1.7,1.9-3.1,1.9
			c-1,0-1.8-0.3-2.5-1s-1-1.5-1-2.5c0-1,0.4-1.9,1.1-2.6s1.6-1.1,2.7-1.1c1.3,0,2.4,0.5,3.1,1.4s1.1,2.2,1.1,3.9
			c0,1.7-0.4,3.1-1.1,4.2s-1.8,1.6-3.2,1.6C361.7,32.8,360.6,32,360,30.6z M363.6,27.8c0.7,0,1.4-0.3,1.8-0.8s0.7-1.1,0.7-1.8
			c0-0.7-0.2-1.2-0.7-1.7c-0.5-0.5-1.1-0.7-1.9-0.7c-0.8,0-1.4,0.2-1.9,0.7s-0.7,1.1-0.7,1.8c0,0.8,0.3,1.4,0.8,1.8
			S362.9,27.8,363.6,27.8z"/>
		<path class="st3" d="M375.5,32.5h-1.3V30h-5.3v-0.9l4.9-7.4h1.7v7.3h1.7V30h-1.7V32.5z M374.2,28.9v-5c0-0.4,0-0.8,0-1.2
			c-0.2,0.4-0.4,0.7-0.6,1l-3.3,5.2H374.2z"/>
		<path class="st3" d="M380.6,27.3c-0.7,0-1.2-0.3-1.6-0.8s-0.6-1.2-0.6-2c0-0.8,0.2-1.4,0.6-2s0.9-0.8,1.6-0.8
			c0.7,0,1.3,0.3,1.7,0.8s0.6,1.2,0.6,2c0,0.7-0.2,1.4-0.6,1.9S381.3,27.3,380.6,27.3z M380.6,26.7c0.4,0,0.8-0.2,1-0.6
			s0.3-0.9,0.3-1.5c0-0.7-0.1-1.2-0.3-1.6s-0.6-0.6-1-0.6c-0.9,0-1.3,0.7-1.3,2.1C379.2,26,379.7,26.7,380.6,26.7z M380.8,32.5h-1
			l6.5-10.7h1L380.8,32.5z M386.5,32.6c-0.7,0-1.2-0.3-1.6-0.8s-0.6-1.2-0.6-2c0-0.8,0.2-1.4,0.6-2s0.9-0.8,1.6-0.8
			c0.7,0,1.3,0.3,1.6,0.8s0.6,1.2,0.6,2c0,0.7-0.2,1.4-0.6,1.9S387.2,32.6,386.5,32.6z M386.6,32c0.4,0,0.8-0.2,1-0.6
			s0.3-0.9,0.3-1.5c0-0.6-0.1-1.2-0.3-1.6c-0.2-0.4-0.6-0.7-1-0.7c-0.9,0-1.3,0.7-1.3,2.1C385.2,31.3,385.6,32,386.6,32z"/>
		<path class="st3" d="M400.7,21.9v10.7h-1.1v-1.4c-0.6,1-1.4,1.6-2.5,1.6c-0.9,0-1.7-0.4-2.3-1.2c-0.6-0.8-0.9-1.8-0.9-2.9
			c0-1.2,0.3-2.2,0.9-3s1.4-1.2,2.3-1.2c0.9,0,1.7,0.4,2.3,1.3v-3.9H400.7z M399.5,27.7c0-0.7-0.2-1.2-0.6-1.7s-0.9-0.6-1.5-0.6
			c-0.6,0-1.1,0.3-1.5,0.8s-0.6,1.3-0.6,2.3c0,1.1,0.2,1.9,0.5,2.4s0.9,0.8,1.5,0.8c0.6,0,1.1-0.2,1.5-0.7s0.7-1,0.7-1.7V27.7z"/>
		<path class="st3" d="M408.4,30.2l1.1,0.2c-0.2,0.7-0.6,1.2-1.2,1.7s-1.3,0.7-2.1,0.7c-1.1,0-2-0.4-2.6-1.1s-1-1.8-1-3
			c0-1.3,0.3-2.3,1-3s1.6-1.2,2.6-1.2c1,0,1.9,0.4,2.5,1.1s0.9,1.8,1,3.2h-5.7c0,1.2,0.3,2,0.8,2.4s1,0.6,1.6,0.6
			C407.3,31.7,408,31.2,408.4,30.2z M408.3,27.8c0-0.4-0.1-0.8-0.2-1.2s-0.4-0.6-0.7-0.9s-0.7-0.4-1.2-0.4c-0.6,0-1.1,0.2-1.6,0.7
			s-0.7,1-0.7,1.8H408.3z"/>
		<path class="st3" d="M412.7,32.5h-1.2V21.9h1.2V32.5z"/>
	</g>
	<g class="st2">
		<path class="st3" d="M251.3,49.7l1.2-0.2c0.3,1,1.1,1.5,2.5,1.5c0.5,0,0.9-0.1,1.3-0.3c0.4-0.2,0.5-0.6,0.5-1c0-0.6-0.5-1-1.4-1.2
			l-1.7-0.3c-0.7-0.1-1.2-0.4-1.6-0.7c-0.4-0.4-0.6-0.8-0.6-1.4c0-0.7,0.3-1.2,0.8-1.7c0.5-0.4,1.2-0.7,2.1-0.7c1.7,0,2.8,0.7,3.2,2
			l-1.1,0.2c-0.3-0.8-1-1.2-2-1.2c-0.5,0-0.9,0.1-1.2,0.3c-0.3,0.2-0.5,0.5-0.5,0.9c0,0.6,0.4,0.9,1.2,1.1l1.5,0.3
			c1.6,0.3,2.4,1.1,2.4,2.3c0,0.7-0.3,1.3-0.9,1.8c-0.6,0.4-1.4,0.7-2.4,0.7C252.9,52,251.7,51.2,251.3,49.7z"/>
		<path class="st3" d="M266,51.7h-1.1v-1.5c-0.6,1.2-1.4,1.7-2.5,1.7c-0.8,0-1.4-0.3-1.9-0.8c-0.5-0.5-0.7-1.3-0.7-2.3v-5h1.2v5
			c0,0.8,0.2,1.3,0.5,1.6c0.3,0.3,0.7,0.4,1.1,0.4c0.4,0,0.8-0.1,1.1-0.3s0.6-0.5,0.8-1c0.2-0.4,0.3-0.9,0.3-1.4v-4.4h1.2V51.7z"/>
		<path class="st3" d="M273.6,49.4l1.1,0.2c-0.2,0.7-0.6,1.2-1.2,1.7c-0.6,0.4-1.3,0.7-2.1,0.7c-1.1,0-2-0.4-2.6-1.1
			c-0.7-0.8-1-1.8-1-3c0-1.3,0.3-2.3,1-3c0.7-0.8,1.6-1.2,2.6-1.2c1,0,1.9,0.4,2.5,1.1c0.6,0.7,0.9,1.8,1,3.2h-5.7
			c0,1.2,0.3,2,0.8,2.4s1,0.6,1.6,0.6C272.5,50.9,273.2,50.4,273.6,49.4z M273.6,47c0-0.4-0.1-0.8-0.2-1.2c-0.1-0.3-0.4-0.6-0.7-0.9
			c-0.3-0.2-0.7-0.4-1.2-0.4c-0.6,0-1.1,0.2-1.6,0.7c-0.4,0.4-0.7,1-0.7,1.8H273.6z"/>
		<path class="st3" d="M278,51.7h-1.2V41.1h1.2V51.7z"/>
		<path class="st3" d="M286.6,41.1v10.7h-1.1v-1.4c-0.6,1-1.4,1.6-2.5,1.6c-0.9,0-1.7-0.4-2.3-1.2s-0.9-1.8-0.9-2.9
			c0-1.2,0.3-2.2,0.9-3c0.6-0.8,1.4-1.2,2.3-1.2c0.9,0,1.7,0.4,2.3,1.3v-3.9H286.6z M285.4,46.9c0-0.7-0.2-1.2-0.6-1.7
			s-0.9-0.6-1.5-0.6c-0.6,0-1.1,0.3-1.5,0.8c-0.4,0.5-0.6,1.3-0.6,2.3c0,1.1,0.2,1.9,0.5,2.4c0.4,0.6,0.9,0.8,1.5,0.8
			c0.6,0,1.1-0.2,1.5-0.7s0.7-1,0.7-1.7V46.9z"/>
		<path class="st3" d="M291.9,52c-1.1,0-1.9-0.4-2.5-1.2c-0.6-0.8-0.9-1.8-0.9-3c0-1.3,0.3-2.3,1-3c0.7-0.8,1.5-1.1,2.5-1.1
			c1.1,0,1.9,0.4,2.6,1.2c0.6,0.8,0.9,1.8,0.9,3c0,1.2-0.3,2.2-1,3C293.8,51.6,292.9,52,291.9,52z M292,50.9c0.6,0,1.1-0.3,1.6-0.8
			s0.6-1.3,0.6-2.4c0-1.1-0.2-1.9-0.7-2.4c-0.4-0.5-1-0.7-1.6-0.7c-0.6,0-1.1,0.2-1.5,0.7s-0.6,1.3-0.6,2.4c0,1.1,0.2,2,0.6,2.4
			S291.3,50.9,292,50.9z"/>
	</g>
	<g class="st2">
		<path class="st3" d="M302.8,54.4h-1.2V43.8h1.1v1.5c0.6-1.2,1.4-1.8,2.5-1.8c0.9,0,1.7,0.4,2.3,1.2c0.6,0.8,0.9,1.8,0.9,3
			c0,1.3-0.3,2.3-0.9,3.1s-1.3,1.1-2.3,1.1c-1,0-1.8-0.5-2.3-1.4V54.4z M302.8,46.7v2.2c0.1,0.6,0.3,1.1,0.8,1.5
			c0.4,0.4,0.9,0.6,1.3,0.6c0.5,0,1-0.2,1.4-0.7s0.6-1.3,0.6-2.4c0-1-0.2-1.8-0.6-2.3s-0.9-0.8-1.5-0.8c-0.5,0-0.9,0.2-1.3,0.6
			S303,46.1,302.8,46.7z"/>
		<path class="st3" d="M316.3,51.7h-1.2c0-0.3-0.1-0.7-0.1-1.4c-0.5,1.1-1.5,1.6-2.8,1.6c-0.9,0-1.6-0.2-2-0.7s-0.7-1-0.7-1.7
			c0-0.8,0.3-1.5,1-2s1.8-0.8,3.5-0.8c0.2,0,0.6,0,1,0c0-0.6,0-1.1-0.1-1.4s-0.3-0.5-0.6-0.7s-0.7-0.3-1.2-0.3c-1.2,0-2,0.5-2.2,1.4
			l-1.1-0.2c0.3-1.5,1.4-2.2,3.5-2.2c1.1,0,1.9,0.2,2.3,0.7s0.7,1.3,0.7,2.5v3.4C316.2,50.8,316.2,51.3,316.3,51.7z M315,47.8
			c-0.5,0-0.9,0-1.1,0c-1,0-1.7,0.2-2.3,0.5s-0.8,0.8-0.8,1.4c0,0.4,0.1,0.7,0.4,1s0.7,0.4,1.3,0.4c0.7,0,1.3-0.3,1.8-0.8
			s0.7-1.2,0.7-1.9C315,48.2,315,48,315,47.8z"/>
		<path class="st3" d="M319.9,51.7h-1.2v-7.9h1.1v1.8c0.4-0.9,0.8-1.4,1.1-1.7s0.8-0.4,1.2-0.4c0.1,0,0.3,0,0.5,0v1.2h-0.3
			c-0.7,0-1.2,0.3-1.7,0.8s-0.7,1.2-0.7,2V51.7z"/>
		<path class="st3" d="M330.1,51.7h-1.2c0-0.3-0.1-0.7-0.1-1.4c-0.5,1.1-1.5,1.6-2.8,1.6c-0.9,0-1.6-0.2-2-0.7s-0.7-1-0.7-1.7
			c0-0.8,0.3-1.5,1-2s1.8-0.8,3.5-0.8c0.2,0,0.6,0,1,0c0-0.6,0-1.1-0.1-1.4s-0.3-0.5-0.6-0.7s-0.7-0.3-1.2-0.3c-1.2,0-2,0.5-2.2,1.4
			l-1.1-0.2c0.3-1.5,1.4-2.2,3.5-2.2c1.1,0,1.9,0.2,2.3,0.7s0.7,1.3,0.7,2.5v3.4C329.9,50.8,330,51.3,330.1,51.7z M328.7,47.8
			c-0.5,0-0.9,0-1.1,0c-1,0-1.7,0.2-2.3,0.5s-0.8,0.8-0.8,1.4c0,0.4,0.1,0.7,0.4,1s0.7,0.4,1.3,0.4c0.7,0,1.3-0.3,1.8-0.8
			s0.7-1.2,0.7-1.9C328.7,48.2,328.7,48,328.7,47.8z"/>
	</g>
	<g class="st2">
		<path class="st3" d="M339.2,52c-1.1,0-1.9-0.4-2.5-1.2s-0.9-1.8-0.9-3c0-1.3,0.3-2.3,1-3s1.5-1.1,2.5-1.1c1.1,0,1.9,0.4,2.6,1.2
			s0.9,1.8,0.9,3c0,1.2-0.3,2.2-1,3S340.3,52,339.2,52z M339.3,50.9c0.6,0,1.1-0.3,1.6-0.8s0.6-1.3,0.6-2.4c0-1.1-0.2-1.9-0.7-2.4
			s-1-0.7-1.6-0.7c-0.6,0-1.1,0.2-1.5,0.7s-0.6,1.3-0.6,2.4c0,1.1,0.2,2,0.6,2.4S338.7,50.9,339.3,50.9z"/>
	</g>
	<g class="st2">
		<path class="st3" d="M348.1,50.9v1c-0.4,0.1-0.8,0.1-1.1,0.1c-1.5,0-2.3-0.8-2.3-2.4v-4.8h-1.4v-1h1.4l0.1-2l1.1-0.1v2.1h1.8v1
			h-1.8v5c0,0.8,0.4,1.2,1.3,1.2C347.5,51,347.8,51,348.1,50.9z"/>
	</g>
	<g class="st2">
		<path class="st3" d="M350.7,51.7h-1.2v-7.9h1.1v1.8c0.4-0.9,0.8-1.4,1.1-1.7s0.8-0.4,1.2-0.4c0.1,0,0.3,0,0.5,0v1.2h-0.3
			c-0.7,0-1.2,0.3-1.7,0.8c-0.4,0.5-0.7,1.2-0.7,2V51.7z"/>
	</g>
	<g class="st2">
		<path class="st3" d="M357.3,52c-1.1,0-1.9-0.4-2.5-1.2c-0.6-0.8-0.9-1.8-0.9-3c0-1.3,0.3-2.3,1-3c0.7-0.8,1.5-1.1,2.5-1.1
			c1.1,0,1.9,0.4,2.6,1.2c0.6,0.8,0.9,1.8,0.9,3c0,1.2-0.3,2.2-1,3C359.2,51.6,358.4,52,357.3,52z M357.4,50.9
			c0.6,0,1.1-0.3,1.6-0.8s0.6-1.3,0.6-2.4c0-1.1-0.2-1.9-0.7-2.4c-0.4-0.5-1-0.7-1.6-0.7c-0.6,0-1.1,0.2-1.5,0.7s-0.6,1.3-0.6,2.4
			c0,1.1,0.2,2,0.6,2.4S356.8,50.9,357.4,50.9z"/>
		<path class="st3" d="M361.7,49.7l1.2-0.2c0.3,1,1.1,1.5,2.5,1.5c0.5,0,0.9-0.1,1.3-0.3c0.4-0.2,0.5-0.6,0.5-1c0-0.6-0.5-1-1.4-1.2
			l-1.7-0.3c-0.7-0.1-1.2-0.4-1.6-0.7c-0.4-0.4-0.6-0.8-0.6-1.4c0-0.7,0.3-1.2,0.8-1.7c0.5-0.4,1.2-0.7,2.1-0.7c1.7,0,2.8,0.7,3.2,2
			l-1.1,0.2c-0.3-0.8-1-1.2-2-1.2c-0.5,0-0.9,0.1-1.2,0.3c-0.3,0.2-0.5,0.5-0.5,0.9c0,0.6,0.4,0.9,1.2,1.1l1.5,0.3
			c1.6,0.3,2.4,1.1,2.4,2.3c0,0.7-0.3,1.3-0.9,1.8c-0.6,0.4-1.4,0.7-2.4,0.7C363.3,52,362.1,51.2,361.7,49.7z"/>
		<path class="st3" d="M380.6,42.6v1c-0.6,0-0.9,0.1-1.1,0.2c-0.2,0.1-0.3,0.4-0.4,0.7c0.5,0.6,0.8,1.2,0.8,1.9
			c0,0.7-0.3,1.3-0.8,1.9c-0.6,0.5-1.3,0.8-2.2,0.8c-0.2,0-0.4,0-0.5,0c-0.3-0.1-0.5-0.1-0.5-0.1c-0.1,0-0.3,0.1-0.5,0.2
			c-0.2,0.1-0.3,0.3-0.3,0.5c0,0.3,0.1,0.5,0.4,0.6c0.3,0.1,1,0.2,2,0.2c0.9,0,1.6,0.1,2,0.2s0.8,0.3,1.1,0.6s0.4,0.7,0.4,1.2
			c0,1.5-1.3,2.3-4,2.3c-1.3,0-2.2-0.2-2.7-0.6c-0.6-0.4-0.9-0.9-0.9-1.5c0-0.8,0.4-1.3,1.2-1.6c-0.5-0.3-0.8-0.8-0.8-1.3
			c0-0.6,0.4-1.1,1.1-1.4c-0.7-0.6-1-1.2-1-2.1c0-0.8,0.3-1.4,0.9-1.9c0.6-0.5,1.3-0.8,2.1-0.8c0.6,0,1.1,0.1,1.6,0.3
			c0.1-0.5,0.3-0.9,0.5-1.1c0.3-0.2,0.7-0.3,1.3-0.3C380.4,42.6,380.5,42.6,380.6,42.6z M375.4,51.4c-0.6,0.3-0.9,0.6-0.9,1.1
			c0,0.4,0.2,0.7,0.7,0.9c0.5,0.2,1.1,0.3,1.8,0.3c0.7,0,1.3-0.1,1.9-0.3s0.8-0.5,0.8-1c0-0.2-0.1-0.4-0.3-0.6
			c-0.2-0.2-0.4-0.3-0.7-0.3s-0.8-0.1-1.5-0.1C376.5,51.5,375.8,51.5,375.4,51.4z M376.9,48.1c0.5,0,0.9-0.2,1.3-0.5
			s0.5-0.7,0.5-1.2c0-0.5-0.2-0.9-0.5-1.3c-0.3-0.3-0.8-0.5-1.2-0.5c-0.5,0-0.9,0.2-1.2,0.5s-0.5,0.8-0.5,1.3c0,0.5,0.2,0.9,0.5,1.2
			C375.9,47.9,376.4,48.1,376.9,48.1z"/>
		<path class="st3" d="M388.2,51.7H387c0-0.3-0.1-0.7-0.1-1.4c-0.5,1.1-1.5,1.6-2.8,1.6c-0.9,0-1.6-0.2-2-0.7
			c-0.5-0.5-0.7-1-0.7-1.7c0-0.8,0.3-1.5,1-2c0.7-0.5,1.8-0.8,3.5-0.8c0.2,0,0.6,0,1,0c0-0.6,0-1.1-0.1-1.4
			c-0.1-0.3-0.3-0.5-0.6-0.7s-0.7-0.3-1.2-0.3c-1.2,0-2,0.5-2.2,1.4l-1.1-0.2c0.3-1.5,1.4-2.2,3.5-2.2c1.1,0,1.9,0.2,2.3,0.7
			c0.5,0.5,0.7,1.3,0.7,2.5v3.4C388.1,50.8,388.1,51.3,388.2,51.7z M386.9,47.8c-0.5,0-0.9,0-1.1,0c-1,0-1.7,0.2-2.3,0.5
			c-0.5,0.3-0.8,0.8-0.8,1.4c0,0.4,0.1,0.7,0.4,1s0.7,0.4,1.3,0.4c0.7,0,1.3-0.3,1.8-0.8s0.7-1.2,0.7-1.9
			C386.9,48.2,386.9,48,386.9,47.8z"/>
		<path class="st3" d="M389.4,49.7l1.2-0.2c0.3,1,1.1,1.5,2.5,1.5c0.5,0,0.9-0.1,1.3-0.3c0.4-0.2,0.5-0.6,0.5-1c0-0.6-0.5-1-1.4-1.2
			l-1.7-0.3c-0.7-0.1-1.2-0.4-1.6-0.7c-0.4-0.4-0.6-0.8-0.6-1.4c0-0.7,0.3-1.2,0.8-1.7c0.5-0.4,1.2-0.7,2.1-0.7c1.7,0,2.8,0.7,3.2,2
			l-1.1,0.2c-0.3-0.8-1-1.2-2-1.2c-0.5,0-0.9,0.1-1.2,0.3c-0.3,0.2-0.5,0.5-0.5,0.9c0,0.6,0.4,0.9,1.2,1.1l1.5,0.3
			c1.6,0.3,2.4,1.1,2.4,2.3c0,0.7-0.3,1.3-0.9,1.8c-0.6,0.4-1.4,0.7-2.4,0.7C391,52,389.9,51.2,389.4,49.7z"/>
	</g>
	<g class="st2">
		<path class="st3" d="M401.5,50.9v1c-0.4,0.1-0.8,0.1-1.1,0.1c-1.5,0-2.3-0.8-2.3-2.4v-4.8h-1.4v-1h1.4l0.1-2l1.1-0.1v2.1h1.8v1
			h-1.8v5c0,0.8,0.4,1.2,1.3,1.2C400.8,51,401.2,51,401.5,50.9z"/>
	</g>
	<g class="st2">
		<path class="st3" d="M405.4,52c-1.1,0-1.9-0.4-2.5-1.2s-0.9-1.8-0.9-3c0-1.3,0.3-2.3,1-3s1.5-1.1,2.5-1.1c1.1,0,1.9,0.4,2.6,1.2
			s0.9,1.8,0.9,3c0,1.2-0.3,2.2-1,3S406.5,52,405.4,52z M405.5,50.9c0.6,0,1.1-0.3,1.6-0.8s0.6-1.3,0.6-2.4c0-1.1-0.2-1.9-0.7-2.4
			s-1-0.7-1.6-0.7c-0.6,0-1.1,0.2-1.5,0.7s-0.6,1.3-0.6,2.4c0,1.1,0.2,2,0.6,2.4S404.9,50.9,405.5,50.9z"/>
		<path class="st3" d="M409.9,49.7l1.2-0.2c0.3,1,1.1,1.5,2.5,1.5c0.5,0,0.9-0.1,1.3-0.3c0.4-0.2,0.5-0.6,0.5-1c0-0.6-0.5-1-1.4-1.2
			l-1.7-0.3c-0.7-0.1-1.2-0.4-1.6-0.7s-0.6-0.8-0.6-1.4c0-0.7,0.3-1.2,0.8-1.7s1.2-0.7,2.1-0.7c1.7,0,2.8,0.7,3.2,2l-1.1,0.2
			c-0.3-0.8-1-1.2-2-1.2c-0.5,0-0.9,0.1-1.2,0.3c-0.3,0.2-0.5,0.5-0.5,0.9c0,0.6,0.4,0.9,1.2,1.1l1.5,0.3c1.6,0.3,2.4,1.1,2.4,2.3
			c0,0.7-0.3,1.3-0.9,1.8s-1.4,0.7-2.4,0.7C411.5,52,410.3,51.2,409.9,49.7z"/>
	</g>
	<line class="st4" x1="349.5" y1="73.4" x2="349.5" y2="61"/>
	<polyline class="st4" points="3.6,73.3 389.1,73.3 389.1,97.9 	"/>
</g>
</svg>
