<?xml version="1.0" encoding="utf-8"?>
<!-- Generator: Adobe Illustrator 24.0.2, SVG Export Plug-In . SVG Version: 6.00 Build 0)  -->
<svg version="1.1" id="Capa_1" xmlns="http://www.w3.org/2000/svg" xmlns:xlink="http://www.w3.org/1999/xlink" x="0px" y="0px"
	 viewBox="0 0 399.4 117.1" style="enable-background:new 0 0 399.4 117.1;" xml:space="preserve">
<style type="text/css">
	.st0{opacity:0.9;fill:#FBD59A;enable-background:new    ;}
	.st1{opacity:0.9;fill:#D0884C;enable-background:new    ;}
	.st2{fill:none;stroke:#DDDDDD;stroke-width:0.5;stroke-miterlimit:10;}
	.st3{enable-background:new    ;}
	.st4{fill:#DDDDDD;}
</style>
<title>scrollama_valencia</title>
<g>
	<g>
		<rect x="3.6" y="73.2" class="st0" width="152.6" height="23.9"/>
		<rect x="3.6" y="73.4" class="st1" width="95.2" height="23.9"/>
	</g>
	<polyline class="st2" points="3.6,73.3 389.1,73.3 389.1,97.9 	"/>
	<g class="st3">
		<path class="st4" d="M378.9,113.4h-6.1v-1.2h2.4v-5.1c-0.8,0.7-1.5,1.2-2.2,1.4v-1.4c0.7-0.3,1.1-0.4,1.3-0.5s0.4-0.3,0.7-0.6
			s0.6-0.6,0.7-0.8h1v7h2.3V113.4z"/>
	</g>
	<g class="st3">
		<path class="st4" d="M379.1,105.4h5.7v1c-1,1.3-1.6,2.4-2,3.3s-0.5,2.2-0.6,3.7h-1.6c0.1-2.6,1.1-4.8,3-6.8h-4.6L379.1,105.4z"/>
		<path class="st4" d="M391.8,112.2v1.2h-5.9V112l2.4-1.6c0.8-0.5,1.3-1,1.5-1.4s0.4-0.8,0.4-1.1c0-0.4-0.1-0.7-0.4-1
			s-0.6-0.4-1-0.4c-0.9,0-1.4,0.6-1.6,1.7l-1.4-0.3c0.1-0.7,0.4-1.3,0.9-1.8s1.2-0.8,2.1-0.8c0.9,0,1.6,0.3,2.1,0.8s0.8,1.1,0.8,1.9
			c0,0.7-0.2,1.3-0.7,1.8s-1.6,1.3-3.5,2.4H391.8z"/>
		<path class="st4" d="M395.9,113.5c-1,0-1.7-0.4-2.3-1.1s-0.8-1.7-0.8-2.9c0-1.3,0.3-2.3,0.8-3.1s1.3-1.2,2.2-1.2
			c0.7,0,1.2,0.2,1.7,0.5s0.8,0.9,1,1.5s0.3,1.2,0.3,1.8c0,0.9-0.1,1.7-0.3,2.3s-0.6,1.1-1,1.5S396.6,113.5,395.9,113.5z
			 M395.9,112.4c0.4,0,0.7-0.1,1-0.4s0.4-0.6,0.5-1s0.1-1.1,0.1-1.9c0-0.7-0.1-1.3-0.3-1.9s-0.6-0.9-1.3-0.9c-1.1,0-1.6,1-1.6,3
			c0,0.9,0.1,1.6,0.3,2.2S395.3,112.4,395.9,112.4z"/>
	</g>
	<g class="st3">
		<path class="st4" d="M3.5,113.5c-1,0-1.7-0.4-2.3-1.1s-0.8-1.7-0.8-2.9c0-1.3,0.3-2.3,0.8-3.1s1.3-1.2,2.2-1.2
			c0.7,0,1.2,0.2,1.7,0.5s0.8,0.9,1,1.5s0.3,1.2,0.3,1.8c0,0.9-0.1,1.7-0.3,2.3s-0.6,1.1-1,1.5S4.2,113.5,3.5,113.5z M3.5,112.4
			c0.4,0,0.7-0.1,1-0.4s0.4-0.6,0.5-1s0.1-1.1,0.1-1.9c0-0.7-0.1-1.3-0.3-1.9s-0.6-0.9-1.3-0.9c-1.1,0-1.6,1-1.6,3
			c0,0.9,0.1,1.6,0.3,2.2S2.9,112.4,3.5,112.4z"/>
	</g>
	<g class="st3">
		<path class="st4" d="M195.4,13.3V2.7h3.6c1.5,0,2.7,0.5,3.5,1.5c0.8,1,1.3,2.3,1.3,3.8c0,1.5-0.4,2.8-1.2,3.8
			c-0.8,1-1.9,1.6-3.1,1.6H195.4z M196.8,12.2h2.2c1.1,0,2-0.4,2.6-1.2c0.6-0.8,0.9-1.8,0.9-3.1c0-1.1-0.3-2-0.8-2.8
			c-0.6-0.8-1.4-1.3-2.7-1.3h-2.2V12.2z"/>
		<path class="st4" d="M210.9,11l1.1,0.2c-0.2,0.7-0.6,1.2-1.2,1.7c-0.6,0.4-1.3,0.7-2.1,0.7c-1.1,0-2-0.4-2.6-1.1
			c-0.7-0.8-1-1.8-1-3c0-1.3,0.3-2.3,1-3c0.7-0.8,1.6-1.2,2.6-1.2c1,0,1.9,0.4,2.5,1.1c0.6,0.7,0.9,1.8,1,3.2h-5.7
			c0,1.2,0.3,2,0.8,2.4s1,0.6,1.6,0.6C209.8,12.5,210.5,12,210.9,11z M210.8,8.6c0-0.4-0.1-0.8-0.2-1.2c-0.1-0.3-0.4-0.6-0.7-0.9
			c-0.3-0.2-0.7-0.4-1.2-0.4c-0.6,0-1.1,0.2-1.6,0.7c-0.4,0.4-0.7,1-0.7,1.8H210.8z"/>
		<path class="st4" d="M213,11.3l1.2-0.2c0.3,1,1.1,1.5,2.5,1.5c0.5,0,0.9-0.1,1.3-0.3c0.4-0.2,0.5-0.6,0.5-1c0-0.6-0.5-1-1.4-1.2
			l-1.7-0.3c-0.7-0.1-1.2-0.4-1.6-0.7c-0.4-0.4-0.6-0.8-0.6-1.4c0-0.7,0.3-1.2,0.8-1.7c0.5-0.4,1.2-0.7,2.1-0.7c1.7,0,2.8,0.7,3.2,2
			l-1.1,0.2c-0.3-0.8-1-1.2-2-1.2c-0.5,0-0.9,0.1-1.2,0.3c-0.3,0.2-0.5,0.5-0.5,0.9c0,0.6,0.4,0.9,1.2,1.1l1.5,0.3
			c1.6,0.3,2.4,1.1,2.4,2.3c0,0.7-0.3,1.3-0.9,1.8c-0.6,0.4-1.4,0.7-2.4,0.7C214.6,13.6,213.4,12.8,213,11.3z"/>
		<path class="st4" d="M222.7,16h-1.2V5.4h1.1V7c0.6-1.2,1.4-1.8,2.5-1.8c0.9,0,1.7,0.4,2.3,1.2s0.9,1.8,0.9,3
			c0,1.3-0.3,2.3-0.9,3.1c-0.6,0.8-1.3,1.1-2.3,1.1c-1,0-1.8-0.5-2.3-1.4V16z M222.7,8.3v2.2c0.1,0.6,0.3,1.1,0.8,1.5
			c0.4,0.4,0.9,0.6,1.3,0.6c0.5,0,1-0.2,1.4-0.7s0.6-1.3,0.6-2.4c0-1-0.2-1.8-0.6-2.3s-0.9-0.8-1.5-0.8c-0.5,0-0.9,0.2-1.3,0.6
			C223,7.3,222.8,7.7,222.7,8.3z"/>
		<path class="st4" d="M236.2,13.3h-1.1v-1.5c-0.6,1.2-1.4,1.7-2.5,1.7c-0.8,0-1.4-0.3-1.9-0.8c-0.5-0.5-0.7-1.3-0.7-2.3v-5h1.2v5
			c0,0.8,0.2,1.3,0.5,1.6c0.3,0.3,0.7,0.4,1.1,0.4c0.4,0,0.8-0.1,1.1-0.3s0.6-0.5,0.8-1c0.2-0.4,0.3-0.9,0.3-1.4V5.4h1.2V13.3z"/>
		<path class="st4" d="M243.9,11l1.1,0.2c-0.2,0.7-0.6,1.2-1.2,1.7c-0.6,0.4-1.3,0.7-2.1,0.7c-1.1,0-2-0.4-2.6-1.1
			c-0.7-0.8-1-1.8-1-3c0-1.3,0.3-2.3,1-3c0.7-0.8,1.6-1.2,2.6-1.2c1,0,1.9,0.4,2.5,1.1c0.6,0.7,0.9,1.8,1,3.2h-5.7
			c0,1.2,0.3,2,0.8,2.4s1,0.6,1.6,0.6C242.7,12.5,243.4,12,243.9,11z M243.8,8.6c0-0.4-0.1-0.8-0.2-1.2c-0.1-0.3-0.4-0.6-0.7-0.9
			c-0.3-0.2-0.7-0.4-1.2-0.4c-0.6,0-1.1,0.2-1.6,0.7c-0.4,0.4-0.7,1-0.7,1.8H243.8z M244.1,2.7l-3.2,1.5l-0.3-0.6l3.1-1.8L244.1,2.7
			z"/>
		<path class="st4" d="M245.9,11.3l1.2-0.2c0.3,1,1.1,1.5,2.5,1.5c0.5,0,0.9-0.1,1.3-0.3c0.4-0.2,0.5-0.6,0.5-1c0-0.6-0.5-1-1.4-1.2
			l-1.7-0.3c-0.7-0.1-1.2-0.4-1.6-0.7c-0.4-0.4-0.6-0.8-0.6-1.4c0-0.7,0.3-1.2,0.8-1.7c0.5-0.4,1.2-0.7,2.1-0.7c1.7,0,2.8,0.7,3.2,2
			l-1.1,0.2c-0.3-0.8-1-1.2-2-1.2c-0.5,0-0.9,0.1-1.2,0.3c-0.3,0.2-0.5,0.5-0.5,0.9c0,0.6,0.4,0.9,1.2,1.1l1.5,0.3
			c1.6,0.3,2.4,1.1,2.4,2.3c0,0.7-0.3,1.3-0.9,1.8c-0.6,0.4-1.4,0.7-2.4,0.7C247.5,13.6,246.4,12.8,245.9,11.3z"/>
		<path class="st4" d="M264.6,2.7v10.7h-1.1V12c-0.6,1-1.4,1.6-2.5,1.6c-0.9,0-1.7-0.4-2.3-1.2s-0.9-1.8-0.9-2.9
			c0-1.2,0.3-2.2,0.9-3c0.6-0.8,1.4-1.2,2.3-1.2c0.9,0,1.7,0.4,2.3,1.3V2.7H264.6z M263.3,8.5c0-0.7-0.2-1.2-0.6-1.7
			s-0.9-0.6-1.5-0.6c-0.6,0-1.1,0.3-1.5,0.8c-0.4,0.5-0.6,1.3-0.6,2.3c0,1.1,0.2,1.9,0.5,2.4c0.4,0.6,0.9,0.8,1.5,0.8
			c0.6,0,1.1-0.2,1.5-0.7s0.7-1,0.7-1.7V8.5z"/>
		<path class="st4" d="M272.2,11l1.1,0.2c-0.2,0.7-0.6,1.2-1.2,1.7c-0.6,0.4-1.3,0.7-2.1,0.7c-1.1,0-2-0.4-2.6-1.1
			c-0.7-0.8-1-1.8-1-3c0-1.3,0.3-2.3,1-3c0.7-0.8,1.6-1.2,2.6-1.2c1,0,1.9,0.4,2.5,1.1c0.6,0.7,0.9,1.8,1,3.2h-5.7
			c0,1.2,0.3,2,0.8,2.4s1,0.6,1.6,0.6C271.1,12.5,271.8,12,272.2,11z M272.2,8.6c0-0.4-0.1-0.8-0.2-1.2c-0.1-0.3-0.4-0.6-0.7-0.9
			c-0.3-0.2-0.7-0.4-1.2-0.4c-0.6,0-1.1,0.2-1.6,0.7c-0.4,0.4-0.7,1-0.7,1.8H272.2z"/>
		<path class="st4" d="M280.6,16h-1.2V5.4h1.1V7c0.6-1.2,1.4-1.8,2.5-1.8c0.9,0,1.7,0.4,2.3,1.2s0.9,1.8,0.9,3
			c0,1.3-0.3,2.3-0.9,3.1c-0.6,0.8-1.3,1.1-2.3,1.1c-1,0-1.8-0.5-2.3-1.4V16z M280.6,8.3v2.2c0.1,0.6,0.3,1.1,0.8,1.5
			c0.4,0.4,0.9,0.6,1.3,0.6c0.5,0,1-0.2,1.4-0.7s0.6-1.3,0.6-2.4c0-1-0.2-1.8-0.6-2.3s-0.9-0.8-1.5-0.8c-0.5,0-0.9,0.2-1.3,0.6
			C281,7.3,280.7,7.7,280.6,8.3z"/>
		<path class="st4" d="M294.1,13.3h-1.2c0-0.3-0.1-0.7-0.1-1.4c-0.5,1.1-1.5,1.6-2.8,1.6c-0.9,0-1.6-0.2-2-0.7
			c-0.5-0.5-0.7-1-0.7-1.7c0-0.8,0.3-1.5,1-2c0.7-0.5,1.8-0.8,3.5-0.8c0.2,0,0.6,0,1,0c0-0.6,0-1.1-0.1-1.4
			c-0.1-0.3-0.3-0.5-0.6-0.7s-0.7-0.3-1.2-0.3c-1.2,0-2,0.5-2.2,1.4l-1.1-0.2c0.3-1.5,1.4-2.2,3.5-2.2c1.1,0,1.9,0.2,2.3,0.7
			c0.5,0.5,0.7,1.3,0.7,2.5v3.4C293.9,12.4,294,12.9,294.1,13.3z M292.7,9.4c-0.5,0-0.9,0-1.1,0c-1,0-1.7,0.2-2.3,0.5
			c-0.5,0.3-0.8,0.8-0.8,1.4c0,0.4,0.1,0.7,0.4,1s0.7,0.4,1.3,0.4c0.7,0,1.3-0.3,1.8-0.8s0.7-1.2,0.7-1.9
			C292.7,9.8,292.7,9.6,292.7,9.4z"/>
		<path class="st4" d="M302.8,4.2v1c-0.6,0-0.9,0.1-1.1,0.2c-0.2,0.1-0.3,0.4-0.4,0.7c0.5,0.6,0.8,1.2,0.8,1.9
			c0,0.7-0.3,1.3-0.8,1.9c-0.5,0.5-1.3,0.8-2.2,0.8c-0.2,0-0.4,0-0.5,0c-0.3-0.1-0.5-0.1-0.5-0.1c-0.1,0-0.3,0.1-0.5,0.2
			c-0.2,0.1-0.3,0.3-0.3,0.5c0,0.3,0.1,0.5,0.4,0.6c0.3,0.1,1,0.2,2,0.2c0.9,0,1.6,0.1,2,0.2s0.8,0.3,1.1,0.6s0.4,0.7,0.4,1.2
			c0,1.5-1.3,2.3-4,2.3c-1.3,0-2.2-0.2-2.7-0.6c-0.6-0.4-0.9-0.9-0.9-1.5c0-0.8,0.4-1.3,1.2-1.6c-0.5-0.3-0.8-0.8-0.8-1.3
			c0-0.6,0.4-1.1,1.1-1.4c-0.7-0.6-1-1.2-1-2.1c0-0.8,0.3-1.4,0.9-1.9c0.6-0.5,1.3-0.8,2.1-0.8c0.6,0,1.1,0.1,1.6,0.3
			c0.1-0.5,0.3-0.9,0.5-1.1c0.3-0.2,0.7-0.3,1.3-0.3C302.5,4.2,302.7,4.2,302.8,4.2z M297.6,13c-0.6,0.3-0.9,0.6-0.9,1.1
			c0,0.4,0.2,0.7,0.7,0.9c0.5,0.2,1.1,0.3,1.8,0.3c0.7,0,1.3-0.1,1.9-0.3s0.8-0.5,0.8-1c0-0.2-0.1-0.4-0.3-0.6
			c-0.2-0.2-0.4-0.3-0.7-0.3s-0.8-0.1-1.5-0.1C298.6,13.1,298,13.1,297.6,13z M299,9.7c0.5,0,0.9-0.2,1.3-0.5s0.5-0.7,0.5-1.2
			c0-0.5-0.2-0.9-0.5-1.3c-0.3-0.3-0.8-0.5-1.2-0.5c-0.5,0-0.9,0.2-1.2,0.5s-0.5,0.8-0.5,1.3c0,0.5,0.2,0.9,0.5,1.2
			C298.1,9.5,298.5,9.7,299,9.7z"/>
		<path class="st4" d="M310.4,13.3h-1.2c0-0.3-0.1-0.7-0.1-1.4c-0.5,1.1-1.5,1.6-2.8,1.6c-0.9,0-1.6-0.2-2-0.7
			c-0.5-0.5-0.7-1-0.7-1.7c0-0.8,0.3-1.5,1-2c0.7-0.5,1.8-0.8,3.5-0.8c0.2,0,0.6,0,1,0c0-0.6,0-1.1-0.1-1.4
			c-0.1-0.3-0.3-0.5-0.6-0.7s-0.7-0.3-1.2-0.3c-1.2,0-2,0.5-2.2,1.4l-1.1-0.2c0.3-1.5,1.4-2.2,3.5-2.2c1.1,0,1.9,0.2,2.3,0.7
			c0.5,0.5,0.7,1.3,0.7,2.5v3.4C310.2,12.4,310.3,12.9,310.4,13.3z M309,9.4c-0.5,0-0.9,0-1.1,0c-1,0-1.7,0.2-2.3,0.5
			c-0.5,0.3-0.8,0.8-0.8,1.4c0,0.4,0.1,0.7,0.4,1s0.7,0.4,1.3,0.4c0.7,0,1.3-0.3,1.8-0.8s0.7-1.2,0.7-1.9C309.1,9.8,309,9.6,309,9.4
			z"/>
		<path class="st4" d="M313.9,13.3h-1.2V5.4h1.1v1.8c0.4-0.9,0.8-1.4,1.1-1.7s0.8-0.4,1.2-0.4c0.1,0,0.3,0,0.5,0v1.2h-0.3
			c-0.7,0-1.2,0.3-1.7,0.8c-0.4,0.5-0.7,1.2-0.7,2V13.3z"/>
		<path class="st4" d="M327.2,11l1.1,0.2c-0.2,0.7-0.6,1.2-1.2,1.7c-0.6,0.4-1.3,0.7-2.1,0.7c-1.1,0-2-0.4-2.6-1.1
			c-0.7-0.8-1-1.8-1-3c0-1.3,0.3-2.3,1-3c0.7-0.8,1.6-1.2,2.6-1.2c1,0,1.9,0.4,2.5,1.1c0.6,0.7,0.9,1.8,1,3.2h-5.7
			c0,1.2,0.3,2,0.8,2.4s1,0.6,1.6,0.6C326,12.5,326.7,12,327.2,11z M327.1,8.6c0-0.4-0.1-0.8-0.2-1.2c-0.1-0.3-0.4-0.6-0.7-0.9
			c-0.3-0.2-0.7-0.4-1.2-0.4c-0.6,0-1.1,0.2-1.6,0.7c-0.4,0.4-0.7,1-0.7,1.8H327.1z"/>
		<path class="st4" d="M331.5,13.3h-1.2V2.7h1.2V13.3z"/>
		<path class="st4" d="M344.1,13.3h-1.2c0-0.3-0.1-0.7-0.1-1.4c-0.5,1.1-1.5,1.6-2.8,1.6c-0.9,0-1.6-0.2-2-0.7
			c-0.5-0.5-0.7-1-0.7-1.7c0-0.8,0.3-1.5,1-2c0.7-0.5,1.8-0.8,3.5-0.8c0.2,0,0.6,0,1,0c0-0.6,0-1.1-0.1-1.4
			c-0.1-0.3-0.3-0.5-0.6-0.7s-0.7-0.3-1.2-0.3c-1.2,0-2,0.5-2.2,1.4l-1.1-0.2c0.3-1.5,1.4-2.2,3.5-2.2c1.1,0,1.9,0.2,2.3,0.7
			c0.5,0.5,0.7,1.3,0.7,2.5v3.4C344,12.4,344,12.9,344.1,13.3z M342.8,9.4c-0.5,0-0.9,0-1.1,0c-1,0-1.7,0.2-2.3,0.5
			c-0.5,0.3-0.8,0.8-0.8,1.4c0,0.4,0.1,0.7,0.4,1s0.7,0.4,1.3,0.4c0.7,0,1.3-0.3,1.8-0.8s0.7-1.2,0.7-1.9
			C342.8,9.8,342.8,9.6,342.8,9.4z"/>
		<path class="st4" d="M347.6,13.3h-1.2V2.7h1.2V13.3z"/>
	</g>
	<g class="st3">
		<path class="st4" d="M356.2,5.3V16H355v-4.1c-0.5,1.1-1.3,1.6-2.4,1.6c-0.9,0-1.6-0.4-2.2-1.1s-0.9-1.7-0.9-3c0-1.2,0.3-2.2,0.9-3
			c0.6-0.8,1.4-1.2,2.3-1.2c0.5,0,0.9,0.1,1.3,0.3c0.4,0.2,0.8,0.6,1.1,1.2l0.5-1.4H356.2z M355,8.8c-0.1-0.9-0.3-1.6-0.7-2
			s-0.9-0.6-1.4-0.6c-0.6,0-1.1,0.3-1.5,0.9c-0.4,0.6-0.6,1.3-0.6,2.3c0,0.9,0.2,1.7,0.5,2.2c0.4,0.6,0.9,0.9,1.5,0.9
			c0.6,0,1.1-0.3,1.5-0.8c0.4-0.5,0.6-1.2,0.6-1.9V8.8z"/>
	</g>
	<g class="st3">
		<path class="st4" d="M364.7,13.3h-1.1v-1.5c-0.6,1.2-1.4,1.7-2.5,1.7c-0.8,0-1.4-0.3-1.9-0.8c-0.5-0.5-0.7-1.3-0.7-2.3v-5h1.2v5
			c0,0.8,0.2,1.3,0.5,1.6c0.3,0.3,0.7,0.4,1.1,0.4c0.4,0,0.8-0.1,1.1-0.3s0.6-0.5,0.8-1c0.2-0.4,0.3-0.9,0.3-1.4V5.4h1.2V13.3z"/>
		<path class="st4" d="M368.4,2.7V4h-1.3V2.7H368.4z M368.4,5.4v7.9h-1.2V5.4H368.4z"/>
		<path class="st4" d="M372.1,13.3h-1.2V2.7h1.2V13.3z"/>
		<path class="st4" d="M379.7,11l1.1,0.2c-0.2,0.7-0.6,1.2-1.2,1.7c-0.6,0.4-1.3,0.7-2.1,0.7c-1.1,0-2-0.4-2.6-1.1
			c-0.7-0.8-1-1.8-1-3c0-1.3,0.3-2.3,1-3c0.7-0.8,1.6-1.2,2.6-1.2c1,0,1.9,0.4,2.5,1.1c0.6,0.7,0.9,1.8,1,3.2h-5.7
			c0,1.2,0.3,2,0.8,2.4s1,0.6,1.6,0.6C378.6,12.5,379.3,12,379.7,11z M379.7,8.6c0-0.4-0.1-0.8-0.2-1.2c-0.1-0.3-0.4-0.6-0.7-0.9
			c-0.3-0.2-0.7-0.4-1.2-0.4c-0.6,0-1.1,0.2-1.6,0.7c-0.4,0.4-0.7,1-0.7,1.8H379.7z"/>
	</g>
	<g class="st3">
		<path class="st4" d="M384.1,13.3h-1.2V5.4h1.1v1.8c0.4-0.9,0.8-1.4,1.1-1.7s0.8-0.4,1.2-0.4c0.1,0,0.3,0,0.5,0v1.2h-0.3
			c-0.7,0-1.2,0.3-1.7,0.8s-0.7,1.2-0.7,2V13.3z"/>
	</g>
	<g class="st3">
		<path class="st4" d="M388.9,11.6v1.6l-1.2,2.2h-0.7l0.9-2h-0.8v-1.8H388.9z"/>
	</g>
	<g class="st3">
		<path class="st4" d="M201.5,24.5v10.7h-1.2v-4.1c-0.5,1.1-1.3,1.6-2.4,1.6c-0.9,0-1.6-0.4-2.2-1.1s-0.9-1.7-0.9-3
			c0-1.2,0.3-2.2,0.9-3c0.6-0.8,1.4-1.2,2.3-1.2c0.5,0,0.9,0.1,1.3,0.3c0.4,0.2,0.8,0.6,1.1,1.2l0.5-1.4H201.5z M200.2,28
			c-0.1-0.9-0.3-1.6-0.7-2s-0.9-0.6-1.4-0.6c-0.6,0-1.1,0.3-1.5,0.9c-0.4,0.6-0.6,1.3-0.6,2.3c0,0.9,0.2,1.7,0.5,2.2
			c0.4,0.6,0.9,0.9,1.5,0.9c0.6,0,1.1-0.3,1.5-0.8c0.4-0.5,0.6-1.2,0.6-1.9V28z"/>
	</g>
	<g class="st3">
		<path class="st4" d="M210,32.5h-1.1V31c-0.6,1.2-1.4,1.7-2.5,1.7c-0.8,0-1.4-0.3-1.9-0.8c-0.5-0.5-0.7-1.3-0.7-2.3v-5h1.2v5
			c0,0.8,0.2,1.3,0.5,1.6c0.3,0.3,0.7,0.4,1.1,0.4c0.4,0,0.8-0.1,1.1-0.3s0.6-0.5,0.8-1c0.2-0.4,0.3-0.9,0.3-1.4v-4.4h1.2V32.5z"/>
		<path class="st4" d="M217.6,30.2l1.1,0.2c-0.2,0.7-0.6,1.2-1.2,1.7c-0.6,0.4-1.3,0.7-2.1,0.7c-1.1,0-2-0.4-2.6-1.1
			c-0.7-0.8-1-1.8-1-3c0-1.3,0.3-2.3,1-3c0.7-0.8,1.6-1.2,2.6-1.2c1,0,1.9,0.4,2.5,1.1c0.6,0.7,0.9,1.8,1,3.2h-5.7
			c0,1.2,0.3,2,0.8,2.4s1,0.6,1.6,0.6C216.5,31.7,217.2,31.2,217.6,30.2z M217.6,27.8c0-0.4-0.1-0.8-0.2-1.2
			c-0.1-0.3-0.4-0.6-0.7-0.9c-0.3-0.2-0.7-0.4-1.2-0.4c-0.6,0-1.1,0.2-1.6,0.7c-0.4,0.4-0.7,1-0.7,1.8H217.6z"/>
		<path class="st4" d="M226.9,21.9v10.7h-1.1v-1.4c-0.6,1-1.4,1.6-2.5,1.6c-0.9,0-1.7-0.4-2.3-1.2c-0.6-0.8-0.9-1.8-0.9-2.9
			c0-1.2,0.3-2.2,0.9-3c0.6-0.8,1.4-1.2,2.3-1.2c0.9,0,1.7,0.4,2.3,1.3v-3.9H226.9z M225.7,27.7c0-0.7-0.2-1.2-0.6-1.7
			s-0.9-0.6-1.5-0.6c-0.6,0-1.1,0.3-1.5,0.8c-0.4,0.5-0.6,1.3-0.6,2.3c0,1.1,0.2,1.9,0.5,2.4c0.4,0.6,0.9,0.8,1.5,0.8
			c0.6,0,1.1-0.2,1.5-0.7s0.7-1,0.7-1.7V27.7z"/>
		<path class="st4" d="M235.5,32.5h-1.2c0-0.3-0.1-0.7-0.1-1.4c-0.5,1.1-1.5,1.6-2.8,1.6c-0.9,0-1.6-0.2-2-0.7
			c-0.5-0.5-0.7-1-0.7-1.7c0-0.8,0.3-1.5,1-2c0.7-0.5,1.8-0.8,3.5-0.8c0.2,0,0.6,0,1,0c0-0.6,0-1.1-0.1-1.4
			c-0.1-0.3-0.3-0.5-0.6-0.7s-0.7-0.3-1.2-0.3c-1.2,0-2,0.5-2.2,1.4l-1.1-0.2c0.3-1.5,1.4-2.2,3.5-2.2c1.1,0,1.9,0.2,2.3,0.7
			c0.5,0.5,0.7,1.3,0.7,2.5V31C235.4,31.6,235.4,32.1,235.5,32.5z M234.2,28.6c-0.5,0-0.9,0-1.1,0c-1,0-1.7,0.2-2.3,0.5
			c-0.5,0.3-0.8,0.8-0.8,1.4c0,0.4,0.1,0.7,0.4,1s0.7,0.4,1.3,0.4c0.7,0,1.3-0.3,1.8-0.8s0.7-1.2,0.7-1.9
			C234.2,29,234.2,28.8,234.2,28.6z"/>
		<path class="st4" d="M239,32.5h-1.2v-7.9h1.1v1.8c0.4-0.9,0.8-1.4,1.1-1.7s0.8-0.4,1.2-0.4c0.1,0,0.3,0,0.5,0v1.2h-0.3
			c-0.7,0-1.2,0.3-1.7,0.8c-0.4,0.5-0.7,1.2-0.7,2V32.5z"/>
		<path class="st4" d="M246.4,21.9l-3.2,1.5l-0.3-0.6L246,21L246.4,21.9z M244.3,24.6v7.9h-1.2v-7.9H244.3z"/>
		<path class="st4" d="M252.9,32.5h-1.2c0-0.3-0.1-0.7-0.1-1.4c-0.5,1.1-1.5,1.6-2.8,1.6c-0.9,0-1.6-0.2-2-0.7
			c-0.5-0.5-0.7-1-0.7-1.7c0-0.8,0.3-1.5,1-2c0.7-0.5,1.8-0.8,3.5-0.8c0.2,0,0.6,0,1,0c0-0.6,0-1.1-0.1-1.4
			c-0.1-0.3-0.3-0.5-0.6-0.7s-0.7-0.3-1.2-0.3c-1.2,0-2,0.5-2.2,1.4l-1.1-0.2c0.3-1.5,1.4-2.2,3.5-2.2c1.1,0,1.9,0.2,2.3,0.7
			c0.5,0.5,0.7,1.3,0.7,2.5V31C252.8,31.6,252.8,32.1,252.9,32.5z M251.6,28.6c-0.5,0-0.9,0-1.1,0c-1,0-1.7,0.2-2.3,0.5
			c-0.5,0.3-0.8,0.8-0.8,1.4c0,0.4,0.1,0.7,0.4,1s0.7,0.4,1.3,0.4c0.7,0,1.3-0.3,1.8-0.8s0.7-1.2,0.7-1.9
			C251.6,29,251.6,28.8,251.6,28.6z"/>
		<path class="st4" d="M265.4,32.5h-1.1V31c-0.6,1.2-1.4,1.7-2.5,1.7c-0.8,0-1.4-0.3-1.9-0.8c-0.5-0.5-0.7-1.3-0.7-2.3v-5h1.2v5
			c0,0.8,0.2,1.3,0.5,1.6c0.3,0.3,0.7,0.4,1.1,0.4c0.4,0,0.8-0.1,1.1-0.3s0.6-0.5,0.8-1c0.2-0.4,0.3-0.9,0.3-1.4v-4.4h1.2V32.5z"/>
		<path class="st4" d="M274.1,32.5H273v-5.1c0-0.7-0.2-1.2-0.5-1.5c-0.3-0.3-0.7-0.4-1.2-0.4c-0.6,0-1.1,0.3-1.6,0.8
			c-0.4,0.5-0.6,1.2-0.6,2v4.3h-1.2v-7.9h1.1v1.5c0.6-1.1,1.5-1.7,2.5-1.7c0.6,0,1.1,0.2,1.5,0.5s0.7,0.6,0.9,1
			c0.2,0.4,0.2,1.1,0.2,2.1V32.5z"/>
	</g>
	<g class="st3">
		<path class="st4" d="M287.8,24.3l-1.6,0.3c-0.3-1-0.9-1.5-1.9-1.5c-0.9,0-1.5,0.4-1.9,1.2s-0.5,1.6-0.5,2.5c0,0.2,0,0.3,0,0.5
			c0.5-1.1,1.4-1.6,2.8-1.6c1,0,1.9,0.3,2.5,1s1,1.4,1,2.4c0,1-0.4,1.9-1.1,2.6s-1.6,1-2.7,1c-1.4,0-2.4-0.5-3.2-1.4s-1.2-2.3-1.2-4
			c0-1.7,0.4-3,1.2-4s1.8-1.5,3.1-1.5C286.1,21.7,287.4,22.6,287.8,24.3z M284.3,31.3c0.6,0,1.1-0.2,1.4-0.5s0.6-0.9,0.6-1.6
			c0-0.5-0.2-0.9-0.6-1.4s-0.9-0.6-1.6-0.6c-0.6,0-1.1,0.2-1.5,0.6s-0.6,0.9-0.6,1.5c0,0.6,0.2,1.1,0.6,1.5S283.7,31.3,284.3,31.3z"
			/>
		<path class="st4" d="M293.4,32.7c-1.3,0-2.3-0.5-3-1.5s-1.1-2.3-1.1-3.9c0-1.7,0.4-3,1.1-4.1s1.7-1.5,3-1.5c0.9,0,1.7,0.2,2.3,0.7
			s1.1,1.2,1.4,2s0.5,1.7,0.5,2.4c0,1.3-0.1,2.3-0.4,3.1s-0.7,1.5-1.4,2S294.3,32.7,293.4,32.7z M293.4,31.2c0.5,0,1-0.2,1.3-0.5
			s0.6-0.8,0.7-1.4s0.2-1.4,0.2-2.5c0-0.9-0.1-1.7-0.4-2.5s-0.9-1.2-1.7-1.2c-1.4,0-2.2,1.3-2.2,4c0,1.2,0.2,2.2,0.5,2.9
			S292.6,31.2,293.4,31.2z"/>
		<path class="st4" d="M301,30.5v1.8l-1.3,2.5h-0.7l0.9-2.3h-0.9v-2H301z"/>
	</g>
	<g class="st3">
		<path class="st4" d="M309.2,32.5h-2v-2.4h-4.7v-1.4l4.7-7.1h2v6.8h1.6v1.6h-1.6V32.5z M307.4,23.7l-3,4.8h2.9v-2.9
			c0-0.3,0-0.6,0-0.8L307.4,23.7z"/>
	</g>
	<g class="st3">
		<path class="st4" d="M311.4,21.9h7.6v1.4c-1.3,1.7-2.2,3.2-2.6,4.4s-0.7,2.9-0.8,4.9h-2.2c0.2-3.5,1.5-6.5,4-9h-6.1L311.4,21.9z"
			/>
		<path class="st4" d="M322.8,27.7c-0.8,0-1.4-0.3-1.8-0.9s-0.7-1.3-0.7-2.1c0-0.8,0.2-1.5,0.7-2.1s1.1-0.8,1.8-0.8
			c0.8,0,1.5,0.3,1.9,0.9s0.6,1.3,0.6,2c0,0.9-0.2,1.7-0.7,2.2S323.5,27.7,322.8,27.7z M322.8,26.6c0.7,0,1.1-0.6,1.1-1.9
			c0-1.2-0.3-1.8-1-1.8c-0.7,0-1.1,0.6-1.1,1.8C321.8,25.9,322.2,26.6,322.8,26.6z M329.9,21.9l-6.6,10.7h-1.2l6.6-10.7H329.9z
			 M329.1,32.6c-0.7,0-1.3-0.3-1.7-0.8s-0.7-1.2-0.7-2.1c0-1,0.3-1.7,0.8-2.3s1.1-0.8,1.8-0.8c0.6,0,1.2,0.3,1.7,0.8
			s0.8,1.3,0.8,2.3c0,0.9-0.2,1.6-0.7,2.1S329.9,32.6,329.1,32.6z M329.2,31.5c0.4,0,0.6-0.2,0.8-0.5s0.3-0.8,0.3-1.2
			c0-0.7-0.1-1.2-0.2-1.4s-0.4-0.4-0.8-0.4c-0.7,0-1.1,0.6-1.1,1.8S328.5,31.5,329.2,31.5z"/>
		<path class="st4" d="M343.8,32.5h-1.7v-1.6c-0.5,1.2-1.2,1.8-2.3,1.8c-1,0-1.7-0.4-2.2-1.2s-0.8-1.8-0.8-3c0-1.1,0.3-2.1,0.8-2.9
			s1.3-1.2,2.3-1.2c1,0,1.7,0.5,2.1,1.4v-3.8h1.8V32.5z M342,27.9c0-0.6-0.2-1.1-0.5-1.5s-0.7-0.5-1.2-0.5c-0.5,0-0.9,0.2-1.2,0.7
			s-0.4,1.1-0.4,2.1c0,1.8,0.6,2.6,1.7,2.6c0.4,0,0.8-0.2,1.2-0.6s0.5-0.9,0.5-1.4V27.9z"/>
		<path class="st4" d="M350.9,30l1.6,0.2c-0.2,0.7-0.6,1.3-1.2,1.8s-1.4,0.7-2.3,0.7c-1.1,0-2-0.4-2.6-1.1s-1-1.7-1-3
			c0-1.2,0.3-2.2,1-3s1.6-1.2,2.7-1.2c1.1,0,2,0.4,2.6,1.2s0.9,1.8,0.9,3l0,0.2h-5.4c0,0.5,0.1,1,0.2,1.3s0.3,0.6,0.6,0.8
			s0.7,0.4,1.1,0.4C350,31.3,350.6,30.9,350.9,30z M350.8,27.7c0-0.6-0.2-1-0.5-1.4s-0.8-0.5-1.2-0.5c-0.5,0-0.9,0.2-1.2,0.5
			s-0.5,0.8-0.6,1.4H350.8z"/>
		<path class="st4" d="M356,32.5h-1.8V21.9h1.8V32.5z"/>
	</g>
	<g class="st3">
		<path class="st4" d="M194.2,49.9l1.7-0.3c0.3,0.6,0.8,1,1.7,1c1.1,0,1.7-0.3,1.7-1c0-0.2-0.1-0.4-0.3-0.5s-0.4-0.2-0.6-0.3
			l-1.4-0.3c-1.6-0.3-2.4-1.1-2.4-2.3c0-0.7,0.3-1.3,0.8-1.8c0.5-0.5,1.3-0.7,2.3-0.7c1.7,0,2.7,0.6,3.1,1.8l-1.6,0.3
			c-0.2-0.6-0.6-0.9-1.4-0.9c-0.9,0-1.4,0.3-1.4,0.9c0,0.4,0.4,0.7,1.1,0.9L199,47c1.3,0.3,2,1,2,2.3c0,0.9-0.3,1.5-1,1.9
			c-0.7,0.4-1.5,0.6-2.4,0.6c-0.8,0-1.5-0.2-2.1-0.5C194.8,51.1,194.4,50.6,194.2,49.9z"/>
		<path class="st4" d="M208.9,51.7h-1.7V50c-0.4,1.2-1.3,1.9-2.5,1.9c-0.7,0-1.3-0.2-1.7-0.7s-0.6-1.1-0.6-1.9v-5.5h1.8V49
			c0,0.6,0.1,0.9,0.4,1.1s0.5,0.3,0.7,0.3c0.4,0,0.8-0.2,1.2-0.5c0.4-0.3,0.6-1.1,0.6-2.2v-3.8h1.8V51.7z"/>
		<path class="st4" d="M216.1,49.2l1.6,0.2c-0.2,0.7-0.6,1.3-1.2,1.8c-0.6,0.5-1.4,0.7-2.3,0.7c-1.1,0-2-0.4-2.6-1.1
			c-0.7-0.7-1-1.7-1-3c0-1.2,0.3-2.2,1-3s1.6-1.2,2.7-1.2c1.1,0,2,0.4,2.6,1.2c0.6,0.8,0.9,1.8,0.9,3l0,0.2h-5.4
			c0,0.5,0.1,1,0.2,1.3s0.3,0.6,0.6,0.8c0.3,0.2,0.7,0.4,1.1,0.4C215.2,50.5,215.8,50.1,216.1,49.2z M216,46.9c0-0.6-0.2-1-0.5-1.4
			s-0.8-0.5-1.2-0.5c-0.5,0-0.9,0.2-1.2,0.5s-0.5,0.8-0.6,1.4H216z"/>
		<path class="st4" d="M221.2,51.7h-1.8V41.1h1.8V51.7z"/>
		<path class="st4" d="M229.9,51.7h-1.7v-1.6c-0.5,1.2-1.2,1.8-2.3,1.8c-1,0-1.7-0.4-2.2-1.2s-0.8-1.8-0.8-3c0-1.1,0.3-2.1,0.8-2.9
			c0.5-0.8,1.3-1.2,2.3-1.2c1,0,1.7,0.5,2.1,1.4v-3.8h1.8V51.7z M228.1,47.1c0-0.6-0.2-1.1-0.5-1.5s-0.7-0.5-1.2-0.5
			c-0.5,0-0.9,0.2-1.2,0.7s-0.4,1.1-0.4,2.1c0,1.8,0.6,2.6,1.7,2.6c0.4,0,0.8-0.2,1.2-0.6s0.5-0.9,0.5-1.4V47.1z"/>
		<path class="st4" d="M235.1,51.9c-1.2,0-2.1-0.4-2.7-1.3c-0.6-0.8-0.9-1.8-0.9-2.9c0-1.2,0.3-2.1,1-2.9s1.6-1.2,2.7-1.2
			c1.1,0,1.9,0.4,2.6,1.1s1,1.7,1,2.9c0,1.2-0.4,2.2-1.1,3C237.1,51.5,236.2,51.9,235.1,51.9z M235.1,50.4c1.2,0,1.8-0.9,1.8-2.7
			c0-0.8-0.1-1.4-0.4-1.9c-0.3-0.5-0.7-0.7-1.3-0.7c-0.6,0-1.1,0.2-1.4,0.7s-0.4,1.1-0.4,1.9c0,0.9,0.2,1.5,0.5,2
			C234.2,50.2,234.6,50.4,235.1,50.4z"/>
	</g>
	<g class="st3">
		<path class="st4" d="M245.8,54.4h-1.2V43.8h1.1v1.5c0.6-1.2,1.4-1.8,2.5-1.8c0.9,0,1.7,0.4,2.3,1.2c0.6,0.8,0.9,1.8,0.9,3
			c0,1.3-0.3,2.3-0.9,3.1s-1.3,1.1-2.3,1.1c-1,0-1.8-0.5-2.3-1.4V54.4z M245.8,46.7v2.2c0.1,0.6,0.3,1.1,0.8,1.5
			c0.4,0.4,0.9,0.6,1.3,0.6c0.5,0,1-0.2,1.4-0.7s0.6-1.3,0.6-2.4c0-1-0.2-1.8-0.6-2.3s-0.9-0.8-1.5-0.8c-0.5,0-0.9,0.2-1.3,0.6
			S246,46.1,245.8,46.7z"/>
		<path class="st4" d="M259.3,51.7h-1.2c0-0.3-0.1-0.7-0.1-1.4c-0.5,1.1-1.5,1.6-2.8,1.6c-0.9,0-1.6-0.2-2-0.7s-0.7-1-0.7-1.7
			c0-0.8,0.3-1.5,1-2s1.8-0.8,3.5-0.8c0.2,0,0.6,0,1,0c0-0.6,0-1.1-0.1-1.4s-0.3-0.5-0.6-0.7s-0.7-0.3-1.2-0.3c-1.2,0-2,0.5-2.2,1.4
			l-1.1-0.2c0.3-1.5,1.4-2.2,3.5-2.2c1.1,0,1.9,0.2,2.3,0.7s0.7,1.3,0.7,2.5v3.4C259.2,50.8,259.2,51.3,259.3,51.7z M258,47.8
			c-0.5,0-0.9,0-1.1,0c-1,0-1.7,0.2-2.3,0.5s-0.8,0.8-0.8,1.4c0,0.4,0.1,0.7,0.4,1s0.7,0.4,1.3,0.4c0.7,0,1.3-0.3,1.8-0.8
			s0.7-1.2,0.7-1.9C258,48.2,258,48,258,47.8z"/>
		<path class="st4" d="M262.9,51.7h-1.2v-7.9h1.1v1.8c0.4-0.9,0.8-1.4,1.1-1.7s0.8-0.4,1.2-0.4c0.1,0,0.3,0,0.5,0v1.2h-0.3
			c-0.7,0-1.2,0.3-1.7,0.8s-0.7,1.2-0.7,2V51.7z"/>
		<path class="st4" d="M273.1,51.7h-1.2c0-0.3-0.1-0.7-0.1-1.4c-0.5,1.1-1.5,1.6-2.8,1.6c-0.9,0-1.6-0.2-2-0.7s-0.7-1-0.7-1.7
			c0-0.8,0.3-1.5,1-2s1.8-0.8,3.5-0.8c0.2,0,0.6,0,1,0c0-0.6,0-1.1-0.1-1.4s-0.3-0.5-0.6-0.7s-0.7-0.3-1.2-0.3c-1.2,0-2,0.5-2.2,1.4
			l-1.1-0.2c0.3-1.5,1.4-2.2,3.5-2.2c1.1,0,1.9,0.2,2.3,0.7s0.7,1.3,0.7,2.5v3.4C272.9,50.8,273,51.3,273.1,51.7z M271.7,47.8
			c-0.5,0-0.9,0-1.1,0c-1,0-1.7,0.2-2.3,0.5s-0.8,0.8-0.8,1.4c0,0.4,0.1,0.7,0.4,1s0.7,0.4,1.3,0.4c0.7,0,1.3-0.3,1.8-0.8
			s0.7-1.2,0.7-1.9C271.7,48.2,271.7,48,271.7,47.8z"/>
	</g>
	<g class="st3">
		<path class="st4" d="M282.2,52c-1.1,0-1.9-0.4-2.5-1.2s-0.9-1.8-0.9-3c0-1.3,0.3-2.3,1-3s1.5-1.1,2.5-1.1c1.1,0,1.9,0.4,2.6,1.2
			s0.9,1.8,0.9,3c0,1.2-0.3,2.2-1,3S283.3,52,282.2,52z M282.3,50.9c0.6,0,1.1-0.3,1.6-0.8s0.6-1.3,0.6-2.4c0-1.1-0.2-1.9-0.7-2.4
			s-1-0.7-1.6-0.7c-0.6,0-1.1,0.2-1.5,0.7s-0.6,1.3-0.6,2.4c0,1.1,0.2,2,0.6,2.4S281.7,50.9,282.3,50.9z"/>
	</g>
	<g class="st3">
		<path class="st4" d="M291.1,50.9v1c-0.4,0.1-0.8,0.1-1.1,0.1c-1.5,0-2.3-0.8-2.3-2.4v-4.8h-1.4v-1h1.4l0.1-2l1.1-0.1v2.1h1.8v1
			h-1.8v5c0,0.8,0.4,1.2,1.3,1.2C290.5,51,290.8,51,291.1,50.9z"/>
	</g>
	<g class="st3">
		<path class="st4" d="M293.7,51.7h-1.2v-7.9h1.1v1.8c0.4-0.9,0.8-1.4,1.1-1.7s0.8-0.4,1.2-0.4c0.1,0,0.3,0,0.5,0v1.2h-0.3
			c-0.7,0-1.2,0.3-1.7,0.8c-0.4,0.5-0.7,1.2-0.7,2V51.7z"/>
	</g>
	<g class="st3">
		<path class="st4" d="M300.3,52c-1.1,0-1.9-0.4-2.5-1.2c-0.6-0.8-0.9-1.8-0.9-3c0-1.3,0.3-2.3,1-3c0.7-0.8,1.5-1.1,2.5-1.1
			c1.1,0,1.9,0.4,2.6,1.2c0.6,0.8,0.9,1.8,0.9,3c0,1.2-0.3,2.2-1,3C302.2,51.6,301.4,52,300.3,52z M300.4,50.9
			c0.6,0,1.1-0.3,1.6-0.8s0.6-1.3,0.6-2.4c0-1.1-0.2-1.9-0.7-2.4c-0.4-0.5-1-0.7-1.6-0.7c-0.6,0-1.1,0.2-1.5,0.7s-0.6,1.3-0.6,2.4
			c0,1.1,0.2,2,0.6,2.4S299.8,50.9,300.4,50.9z"/>
		<path class="st4" d="M304.7,49.7l1.2-0.2c0.3,1,1.1,1.5,2.5,1.5c0.5,0,0.9-0.1,1.3-0.3c0.4-0.2,0.5-0.6,0.5-1c0-0.6-0.5-1-1.4-1.2
			l-1.7-0.3c-0.7-0.1-1.2-0.4-1.6-0.7c-0.4-0.4-0.6-0.8-0.6-1.4c0-0.7,0.3-1.2,0.8-1.7c0.5-0.4,1.2-0.7,2.1-0.7c1.7,0,2.8,0.7,3.2,2
			l-1.1,0.2c-0.3-0.8-1-1.2-2-1.2c-0.5,0-0.9,0.1-1.2,0.3c-0.3,0.2-0.5,0.5-0.5,0.9c0,0.6,0.4,0.9,1.2,1.1l1.5,0.3
			c1.6,0.3,2.4,1.1,2.4,2.3c0,0.7-0.3,1.3-0.9,1.8c-0.6,0.4-1.4,0.7-2.4,0.7C306.3,52,305.1,51.2,304.7,49.7z"/>
		<path class="st4" d="M323.6,42.6v1c-0.6,0-0.9,0.1-1.1,0.2c-0.2,0.1-0.3,0.4-0.4,0.7c0.5,0.6,0.8,1.2,0.8,1.9
			c0,0.7-0.3,1.3-0.8,1.9c-0.6,0.5-1.3,0.8-2.2,0.8c-0.2,0-0.4,0-0.5,0c-0.3-0.1-0.5-0.1-0.5-0.1c-0.1,0-0.3,0.1-0.5,0.2
			c-0.2,0.1-0.3,0.3-0.3,0.5c0,0.3,0.1,0.5,0.4,0.6c0.3,0.1,1,0.2,2,0.2c0.9,0,1.6,0.1,2,0.2s0.8,0.3,1.1,0.6s0.4,0.7,0.4,1.2
			c0,1.5-1.3,2.3-4,2.3c-1.3,0-2.2-0.2-2.7-0.6c-0.6-0.4-0.9-0.9-0.9-1.5c0-0.8,0.4-1.3,1.2-1.6c-0.5-0.3-0.8-0.8-0.8-1.3
			c0-0.6,0.4-1.1,1.1-1.4c-0.7-0.6-1-1.2-1-2.1c0-0.8,0.3-1.4,0.9-1.9c0.6-0.5,1.3-0.8,2.1-0.8c0.6,0,1.1,0.1,1.6,0.3
			c0.1-0.5,0.3-0.9,0.5-1.1c0.3-0.2,0.7-0.3,1.3-0.3C323.4,42.6,323.5,42.6,323.6,42.6z M318.4,51.4c-0.6,0.3-0.9,0.6-0.9,1.1
			c0,0.4,0.2,0.7,0.7,0.9c0.5,0.2,1.1,0.3,1.8,0.3c0.7,0,1.3-0.1,1.9-0.3s0.8-0.5,0.8-1c0-0.2-0.1-0.4-0.3-0.6
			c-0.2-0.2-0.4-0.3-0.7-0.3s-0.8-0.1-1.5-0.1C319.5,51.5,318.8,51.5,318.4,51.4z M319.9,48.1c0.5,0,0.9-0.2,1.3-0.5
			s0.5-0.7,0.5-1.2c0-0.5-0.2-0.9-0.5-1.3c-0.3-0.3-0.8-0.5-1.2-0.5c-0.5,0-0.9,0.2-1.2,0.5s-0.5,0.8-0.5,1.3c0,0.5,0.2,0.9,0.5,1.2
			C318.9,47.9,319.4,48.1,319.9,48.1z"/>
		<path class="st4" d="M331.2,51.7H330c0-0.3-0.1-0.7-0.1-1.4c-0.5,1.1-1.5,1.6-2.8,1.6c-0.9,0-1.6-0.2-2-0.7
			c-0.5-0.5-0.7-1-0.7-1.7c0-0.8,0.3-1.5,1-2c0.7-0.5,1.8-0.8,3.5-0.8c0.2,0,0.6,0,1,0c0-0.6,0-1.1-0.1-1.4
			c-0.1-0.3-0.3-0.5-0.6-0.7s-0.7-0.3-1.2-0.3c-1.2,0-2,0.5-2.2,1.4l-1.1-0.2c0.3-1.5,1.4-2.2,3.5-2.2c1.1,0,1.9,0.2,2.3,0.7
			c0.5,0.5,0.7,1.3,0.7,2.5v3.4C331.1,50.8,331.1,51.3,331.2,51.7z M329.9,47.8c-0.5,0-0.9,0-1.1,0c-1,0-1.7,0.2-2.3,0.5
			c-0.5,0.3-0.8,0.8-0.8,1.4c0,0.4,0.1,0.7,0.4,1s0.7,0.4,1.3,0.4c0.7,0,1.3-0.3,1.8-0.8s0.7-1.2,0.7-1.9
			C329.9,48.2,329.9,48,329.9,47.8z"/>
		<path class="st4" d="M332.4,49.7l1.2-0.2c0.3,1,1.1,1.5,2.5,1.5c0.5,0,0.9-0.1,1.3-0.3c0.4-0.2,0.5-0.6,0.5-1c0-0.6-0.5-1-1.4-1.2
			l-1.7-0.3c-0.7-0.1-1.2-0.4-1.6-0.7c-0.4-0.4-0.6-0.8-0.6-1.4c0-0.7,0.3-1.2,0.8-1.7c0.5-0.4,1.2-0.7,2.1-0.7c1.7,0,2.8,0.7,3.2,2
			l-1.1,0.2c-0.3-0.8-1-1.2-2-1.2c-0.5,0-0.9,0.1-1.2,0.3c-0.3,0.2-0.5,0.5-0.5,0.9c0,0.6,0.4,0.9,1.2,1.1l1.5,0.3
			c1.6,0.3,2.4,1.1,2.4,2.3c0,0.7-0.3,1.3-0.9,1.8c-0.6,0.4-1.4,0.7-2.4,0.7C334,52,332.9,51.2,332.4,49.7z"/>
	</g>
	<g class="st3">
		<path class="st4" d="M344.5,50.9v1c-0.4,0.1-0.8,0.1-1.1,0.1c-1.5,0-2.3-0.8-2.3-2.4v-4.8h-1.4v-1h1.4l0.1-2l1.1-0.1v2.1h1.8v1
			h-1.8v5c0,0.8,0.4,1.2,1.3,1.2C343.8,51,344.2,51,344.5,50.9z"/>
	</g>
	<g class="st3">
		<path class="st4" d="M348.4,52c-1.1,0-1.9-0.4-2.5-1.2s-0.9-1.8-0.9-3c0-1.3,0.3-2.3,1-3s1.5-1.1,2.5-1.1c1.1,0,1.9,0.4,2.6,1.2
			s0.9,1.8,0.9,3c0,1.2-0.3,2.2-1,3S349.5,52,348.4,52z M348.5,50.9c0.6,0,1.1-0.3,1.6-0.8s0.6-1.3,0.6-2.4c0-1.1-0.2-1.9-0.7-2.4
			s-1-0.7-1.6-0.7c-0.6,0-1.1,0.2-1.5,0.7s-0.6,1.3-0.6,2.4c0,1.1,0.2,2,0.6,2.4S347.9,50.9,348.5,50.9z"/>
		<path class="st4" d="M352.9,49.7l1.2-0.2c0.3,1,1.1,1.5,2.5,1.5c0.5,0,0.9-0.1,1.3-0.3c0.4-0.2,0.5-0.6,0.5-1c0-0.6-0.5-1-1.4-1.2
			l-1.7-0.3c-0.7-0.1-1.2-0.4-1.6-0.7s-0.6-0.8-0.6-1.4c0-0.7,0.3-1.2,0.8-1.7s1.2-0.7,2.1-0.7c1.7,0,2.8,0.7,3.2,2l-1.1,0.2
			c-0.3-0.8-1-1.2-2-1.2c-0.5,0-0.9,0.1-1.2,0.3c-0.3,0.2-0.5,0.5-0.5,0.9c0,0.6,0.4,0.9,1.2,1.1l1.5,0.3c1.6,0.3,2.4,1.1,2.4,2.3
			c0,0.7-0.3,1.3-0.9,1.8s-1.4,0.7-2.4,0.7C354.5,52,353.3,51.2,352.9,49.7z"/>
	</g>
	<line class="st2" x1="292.5" y1="73.4" x2="292.5" y2="61"/>
</g>
</svg>
