<?xml version="1.0" encoding="utf-8"?>
<!-- Generator: Adobe Illustrator 24.0.2, SVG Export Plug-In . SVG Version: 6.00 Build 0)  -->
<svg version="1.1" id="Capa_1" xmlns="http://www.w3.org/2000/svg" xmlns:xlink="http://www.w3.org/1999/xlink" x="0px" y="0px"
	 viewBox="0 0 401 117.1" style="enable-background:new 0 0 401 117.1;" xml:space="preserve">
<style type="text/css">
	.st0{opacity:0.9;fill:#FBD59A;enable-background:new    ;}
	.st1{opacity:0.9;fill:#D0884C;enable-background:new    ;}
	.st2{fill:none;stroke:#DDDDDD;stroke-width:0.5;stroke-miterlimit:10;}
	.st3{enable-background:new    ;}
	.st4{fill:#DDDDDD;}
</style>
<title>scrollama_malaga</title>
<g>
	<g>
		<rect x="3.6" y="73" class="st0" width="190.4" height="23.9"/>
		<rect x="3.6" y="73.2" class="st1" width="133.7" height="23.9"/>
	</g>
	<polyline class="st2" points="3.6,73.3 389.1,73.3 389.1,97.9 	"/>
	<g class="st3">
		<path class="st4" d="M378.9,113.4h-6.1v-1.2h2.4v-5.1c-0.8,0.7-1.5,1.2-2.2,1.4v-1.4c0.7-0.3,1.1-0.4,1.3-0.5s0.4-0.3,0.7-0.6
			s0.6-0.6,0.7-0.8h1v7h2.3V113.4z"/>
	</g>
	<g class="st3">
		<path class="st4" d="M379.1,105.4h5.7v1c-1,1.3-1.6,2.4-2,3.3s-0.5,2.2-0.6,3.7h-1.6c0.1-2.6,1.1-4.8,3-6.8h-4.6L379.1,105.4z"/>
		<path class="st4" d="M391.8,112.2v1.2h-5.9V112l2.4-1.6c0.8-0.5,1.3-1,1.5-1.4s0.4-0.8,0.4-1.1c0-0.4-0.1-0.7-0.4-1
			s-0.6-0.4-1-0.4c-0.9,0-1.4,0.6-1.6,1.7l-1.4-0.3c0.1-0.7,0.4-1.3,0.9-1.8s1.2-0.8,2.1-0.8c0.9,0,1.6,0.3,2.1,0.8s0.8,1.1,0.8,1.9
			c0,0.7-0.2,1.3-0.7,1.8s-1.6,1.3-3.5,2.4H391.8z"/>
		<path class="st4" d="M395.9,113.5c-1,0-1.7-0.4-2.3-1.1s-0.8-1.7-0.8-2.9c0-1.3,0.3-2.3,0.8-3.1s1.3-1.2,2.2-1.2
			c0.7,0,1.2,0.2,1.7,0.5s0.8,0.9,1,1.5s0.3,1.2,0.3,1.8c0,0.9-0.1,1.7-0.3,2.3s-0.6,1.1-1,1.5S396.6,113.5,395.9,113.5z
			 M395.9,112.4c0.4,0,0.7-0.1,1-0.4s0.4-0.6,0.5-1s0.1-1.1,0.1-1.9c0-0.7-0.1-1.3-0.3-1.9s-0.6-0.9-1.3-0.9c-1.1,0-1.6,1-1.6,3
			c0,0.9,0.1,1.6,0.3,2.2S395.3,112.4,395.9,112.4z"/>
	</g>
	<g class="st3">
		<path class="st4" d="M3.5,113.5c-1,0-1.7-0.4-2.3-1.1s-0.8-1.7-0.8-2.9c0-1.3,0.3-2.3,0.8-3.1s1.3-1.2,2.2-1.2
			c0.7,0,1.2,0.2,1.7,0.5s0.8,0.9,1,1.5s0.3,1.2,0.3,1.8c0,0.9-0.1,1.7-0.3,2.3s-0.6,1.1-1,1.5S4.2,113.5,3.5,113.5z M3.5,112.4
			c0.4,0,0.7-0.1,1-0.4s0.4-0.6,0.5-1s0.1-1.1,0.1-1.9c0-0.7-0.1-1.3-0.3-1.9s-0.6-0.9-1.3-0.9c-1.1,0-1.6,1-1.6,3
			c0,0.9,0.1,1.6,0.3,2.2S2.9,112.4,3.5,112.4z"/>
	</g>
	<g class="st3">
		<path class="st4" d="M202.4,13.3V2.7h3.6c1.5,0,2.7,0.5,3.5,1.5c0.8,1,1.3,2.3,1.3,3.8c0,1.5-0.4,2.8-1.2,3.8
			c-0.8,1-1.9,1.6-3.1,1.6H202.4z M203.8,12.2h2.2c1.1,0,2-0.4,2.6-1.2s0.9-1.8,0.9-3.1c0-1.1-0.3-2-0.8-2.8
			c-0.6-0.8-1.4-1.3-2.7-1.3h-2.2V12.2z"/>
		<path class="st4" d="M217.9,11l1.1,0.2c-0.2,0.7-0.6,1.2-1.2,1.7c-0.6,0.4-1.3,0.7-2.1,0.7c-1.1,0-2-0.4-2.6-1.1
			c-0.7-0.8-1-1.8-1-3c0-1.3,0.3-2.3,1-3c0.7-0.8,1.6-1.2,2.6-1.2c1,0,1.9,0.4,2.5,1.1c0.6,0.7,0.9,1.8,1,3.2h-5.7
			c0,1.2,0.3,2,0.8,2.4s1,0.6,1.6,0.6C216.8,12.5,217.5,12,217.9,11z M217.8,8.6c0-0.4-0.1-0.8-0.2-1.2c-0.1-0.3-0.4-0.6-0.7-0.9
			c-0.3-0.2-0.7-0.4-1.2-0.4c-0.6,0-1.1,0.2-1.6,0.7c-0.4,0.4-0.7,1-0.7,1.8H217.8z"/>
		<path class="st4" d="M220,11.3l1.2-0.2c0.3,1,1.1,1.5,2.5,1.5c0.5,0,0.9-0.1,1.3-0.3c0.4-0.2,0.5-0.6,0.5-1c0-0.6-0.5-1-1.4-1.2
			l-1.7-0.3c-0.7-0.1-1.2-0.4-1.6-0.7c-0.4-0.4-0.6-0.8-0.6-1.4c0-0.7,0.3-1.2,0.8-1.7c0.5-0.4,1.2-0.7,2.1-0.7c1.7,0,2.8,0.7,3.2,2
			l-1.1,0.2c-0.3-0.8-1-1.2-2-1.2c-0.5,0-0.9,0.1-1.2,0.3c-0.3,0.2-0.5,0.5-0.5,0.9c0,0.6,0.4,0.9,1.2,1.1l1.5,0.3
			c1.6,0.3,2.4,1.1,2.4,2.3c0,0.7-0.3,1.3-0.9,1.8c-0.6,0.4-1.4,0.7-2.4,0.7C221.6,13.6,220.4,12.8,220,11.3z"/>
		<path class="st4" d="M229.7,16h-1.2V5.4h1.1V7c0.6-1.2,1.4-1.8,2.5-1.8c0.9,0,1.7,0.4,2.3,1.2s0.9,1.8,0.9,3
			c0,1.3-0.3,2.3-0.9,3.1c-0.6,0.8-1.3,1.1-2.3,1.1c-1,0-1.8-0.5-2.3-1.4V16z M229.7,8.3v2.2c0.1,0.6,0.3,1.1,0.8,1.5
			c0.4,0.4,0.9,0.6,1.3,0.6c0.5,0,1-0.2,1.4-0.7s0.6-1.3,0.6-2.4c0-1-0.2-1.8-0.6-2.3s-0.9-0.8-1.5-0.8c-0.5,0-0.9,0.2-1.3,0.6
			C230,7.3,229.8,7.7,229.7,8.3z"/>
		<path class="st4" d="M243.2,13.3h-1.1v-1.5c-0.6,1.2-1.4,1.7-2.5,1.7c-0.8,0-1.4-0.3-1.9-0.8c-0.5-0.5-0.7-1.3-0.7-2.3v-5h1.2v5
			c0,0.8,0.2,1.3,0.5,1.6c0.3,0.3,0.7,0.4,1.1,0.4c0.4,0,0.8-0.1,1.1-0.3s0.6-0.5,0.8-1c0.2-0.4,0.3-0.9,0.3-1.4V5.4h1.2V13.3z"/>
		<path class="st4" d="M250.9,11l1.1,0.2c-0.2,0.7-0.6,1.2-1.2,1.7c-0.6,0.4-1.3,0.7-2.1,0.7c-1.1,0-2-0.4-2.6-1.1
			c-0.7-0.8-1-1.8-1-3c0-1.3,0.3-2.3,1-3c0.7-0.8,1.6-1.2,2.6-1.2c1,0,1.9,0.4,2.5,1.1c0.6,0.7,0.9,1.8,1,3.2h-5.7
			c0,1.2,0.3,2,0.8,2.4s1,0.6,1.6,0.6C249.7,12.5,250.4,12,250.9,11z M250.8,8.6c0-0.4-0.1-0.8-0.2-1.2c-0.1-0.3-0.4-0.6-0.7-0.9
			c-0.3-0.2-0.7-0.4-1.2-0.4c-0.6,0-1.1,0.2-1.6,0.7c-0.4,0.4-0.7,1-0.7,1.8H250.8z M251.1,2.7l-3.2,1.5l-0.3-0.6l3.1-1.8L251.1,2.7
			z"/>
		<path class="st4" d="M252.9,11.3l1.2-0.2c0.3,1,1.1,1.5,2.5,1.5c0.5,0,0.9-0.1,1.3-0.3c0.4-0.2,0.5-0.6,0.5-1c0-0.6-0.5-1-1.4-1.2
			l-1.7-0.3c-0.7-0.1-1.2-0.4-1.6-0.7c-0.4-0.4-0.6-0.8-0.6-1.4c0-0.7,0.3-1.2,0.8-1.7c0.5-0.4,1.2-0.7,2.1-0.7c1.7,0,2.8,0.7,3.2,2
			l-1.1,0.2c-0.3-0.8-1-1.2-2-1.2c-0.5,0-0.9,0.1-1.2,0.3c-0.3,0.2-0.5,0.5-0.5,0.9c0,0.6,0.4,0.9,1.2,1.1l1.5,0.3
			c1.6,0.3,2.4,1.1,2.4,2.3c0,0.7-0.3,1.3-0.9,1.8c-0.6,0.4-1.4,0.7-2.4,0.7C254.5,13.6,253.4,12.8,252.9,11.3z"/>
		<path class="st4" d="M271.6,2.7v10.7h-1.1V12c-0.6,1-1.4,1.6-2.5,1.6c-0.9,0-1.7-0.4-2.3-1.2s-0.9-1.8-0.9-2.9
			c0-1.2,0.3-2.2,0.9-3c0.6-0.8,1.4-1.2,2.3-1.2c0.9,0,1.7,0.4,2.3,1.3V2.7H271.6z M270.3,8.5c0-0.7-0.2-1.2-0.6-1.7
			s-0.9-0.6-1.5-0.6c-0.6,0-1.1,0.3-1.5,0.8c-0.4,0.5-0.6,1.3-0.6,2.3c0,1.1,0.2,1.9,0.5,2.4c0.4,0.6,0.9,0.8,1.5,0.8
			c0.6,0,1.1-0.2,1.5-0.7s0.7-1,0.7-1.7V8.5z"/>
		<path class="st4" d="M279.2,11l1.1,0.2c-0.2,0.7-0.6,1.2-1.2,1.7c-0.6,0.4-1.3,0.7-2.1,0.7c-1.1,0-2-0.4-2.6-1.1
			c-0.7-0.8-1-1.8-1-3c0-1.3,0.3-2.3,1-3c0.7-0.8,1.6-1.2,2.6-1.2c1,0,1.9,0.4,2.5,1.1c0.6,0.7,0.9,1.8,1,3.2h-5.7
			c0,1.2,0.3,2,0.8,2.4s1,0.6,1.6,0.6C278.1,12.5,278.8,12,279.2,11z M279.2,8.6c0-0.4-0.1-0.8-0.2-1.2c-0.1-0.3-0.4-0.6-0.7-0.9
			c-0.3-0.2-0.7-0.4-1.2-0.4c-0.6,0-1.1,0.2-1.6,0.7c-0.4,0.4-0.7,1-0.7,1.8H279.2z"/>
		<path class="st4" d="M287.6,16h-1.2V5.4h1.1V7c0.6-1.2,1.4-1.8,2.5-1.8c0.9,0,1.7,0.4,2.3,1.2s0.9,1.8,0.9,3
			c0,1.3-0.3,2.3-0.9,3.1c-0.6,0.8-1.3,1.1-2.3,1.1c-1,0-1.8-0.5-2.3-1.4V16z M287.6,8.3v2.2c0.1,0.6,0.3,1.1,0.8,1.5
			c0.4,0.4,0.9,0.6,1.3,0.6c0.5,0,1-0.2,1.4-0.7s0.6-1.3,0.6-2.4c0-1-0.2-1.8-0.6-2.3s-0.9-0.8-1.5-0.8c-0.5,0-0.9,0.2-1.3,0.6
			C288,7.3,287.7,7.7,287.6,8.3z"/>
		<path class="st4" d="M301.1,13.3h-1.2c0-0.3-0.1-0.7-0.1-1.4c-0.5,1.1-1.5,1.6-2.8,1.6c-0.9,0-1.6-0.2-2-0.7
			c-0.5-0.5-0.7-1-0.7-1.7c0-0.8,0.3-1.5,1-2c0.7-0.5,1.8-0.8,3.5-0.8c0.2,0,0.6,0,1,0c0-0.6,0-1.1-0.1-1.4
			c-0.1-0.3-0.3-0.5-0.6-0.7s-0.7-0.3-1.2-0.3c-1.2,0-2,0.5-2.2,1.4l-1.1-0.2c0.3-1.5,1.4-2.2,3.5-2.2c1.1,0,1.9,0.2,2.3,0.7
			c0.5,0.5,0.7,1.3,0.7,2.5v3.4C300.9,12.4,301,12.9,301.1,13.3z M299.7,9.4c-0.5,0-0.9,0-1.1,0c-1,0-1.7,0.2-2.3,0.5
			c-0.5,0.3-0.8,0.8-0.8,1.4c0,0.4,0.1,0.7,0.4,1s0.7,0.4,1.3,0.4c0.7,0,1.3-0.3,1.8-0.8s0.7-1.2,0.7-1.9
			C299.7,9.8,299.7,9.6,299.7,9.4z"/>
		<path class="st4" d="M309.8,4.2v1c-0.6,0-0.9,0.1-1.1,0.2c-0.2,0.1-0.3,0.4-0.4,0.7c0.5,0.6,0.8,1.2,0.8,1.9
			c0,0.7-0.3,1.3-0.8,1.9c-0.5,0.5-1.3,0.8-2.2,0.8c-0.2,0-0.4,0-0.5,0c-0.3-0.1-0.5-0.1-0.5-0.1c-0.1,0-0.3,0.1-0.5,0.2
			c-0.2,0.1-0.3,0.3-0.3,0.5c0,0.3,0.1,0.5,0.4,0.6c0.3,0.1,1,0.2,2,0.2c0.9,0,1.6,0.1,2,0.2s0.8,0.3,1.1,0.6s0.4,0.7,0.4,1.2
			c0,1.5-1.3,2.3-4,2.3c-1.3,0-2.2-0.2-2.7-0.6c-0.6-0.4-0.9-0.9-0.9-1.5c0-0.8,0.4-1.3,1.2-1.6c-0.5-0.3-0.8-0.8-0.8-1.3
			c0-0.6,0.4-1.1,1.1-1.4c-0.7-0.6-1-1.2-1-2.1c0-0.8,0.3-1.4,0.9-1.9c0.6-0.5,1.3-0.8,2.1-0.8c0.6,0,1.1,0.1,1.6,0.3
			c0.1-0.5,0.3-0.9,0.5-1.1c0.3-0.2,0.7-0.3,1.3-0.3C309.5,4.2,309.7,4.2,309.8,4.2z M304.6,13c-0.6,0.3-0.9,0.6-0.9,1.1
			c0,0.4,0.2,0.7,0.7,0.9c0.5,0.2,1.1,0.3,1.8,0.3c0.7,0,1.3-0.1,1.9-0.3s0.8-0.5,0.8-1c0-0.2-0.1-0.4-0.3-0.6
			c-0.2-0.2-0.4-0.3-0.7-0.3s-0.8-0.1-1.5-0.1C305.6,13.1,305,13.1,304.6,13z M306,9.7c0.5,0,0.9-0.2,1.3-0.5s0.5-0.7,0.5-1.2
			c0-0.5-0.2-0.9-0.5-1.3c-0.3-0.3-0.8-0.5-1.2-0.5c-0.5,0-0.9,0.2-1.2,0.5s-0.5,0.8-0.5,1.3c0,0.5,0.2,0.9,0.5,1.2
			C305.1,9.5,305.5,9.7,306,9.7z"/>
		<path class="st4" d="M317.4,13.3h-1.2c0-0.3-0.1-0.7-0.1-1.4c-0.5,1.1-1.5,1.6-2.8,1.6c-0.9,0-1.6-0.2-2-0.7
			c-0.5-0.5-0.7-1-0.7-1.7c0-0.8,0.3-1.5,1-2c0.7-0.5,1.8-0.8,3.5-0.8c0.2,0,0.6,0,1,0c0-0.6,0-1.1-0.1-1.4
			c-0.1-0.3-0.3-0.5-0.6-0.7s-0.7-0.3-1.2-0.3c-1.2,0-2,0.5-2.2,1.4l-1.1-0.2c0.3-1.5,1.4-2.2,3.5-2.2c1.1,0,1.9,0.2,2.3,0.7
			c0.5,0.5,0.7,1.3,0.7,2.5v3.4C317.2,12.4,317.3,12.9,317.4,13.3z M316,9.4c-0.5,0-0.9,0-1.1,0c-1,0-1.7,0.2-2.3,0.5
			c-0.5,0.3-0.8,0.8-0.8,1.4c0,0.4,0.1,0.7,0.4,1s0.7,0.4,1.3,0.4c0.7,0,1.3-0.3,1.8-0.8s0.7-1.2,0.7-1.9C316.1,9.8,316,9.6,316,9.4
			z"/>
		<path class="st4" d="M320.9,13.3h-1.2V5.4h1.1v1.8c0.4-0.9,0.8-1.4,1.1-1.7s0.8-0.4,1.2-0.4c0.1,0,0.3,0,0.5,0v1.2h-0.3
			c-0.7,0-1.2,0.3-1.7,0.8c-0.4,0.5-0.7,1.2-0.7,2V13.3z"/>
		<path class="st4" d="M334.2,11l1.1,0.2c-0.2,0.7-0.6,1.2-1.2,1.7c-0.6,0.4-1.3,0.7-2.1,0.7c-1.1,0-2-0.4-2.6-1.1
			c-0.7-0.8-1-1.8-1-3c0-1.3,0.3-2.3,1-3c0.7-0.8,1.6-1.2,2.6-1.2c1,0,1.9,0.4,2.5,1.1c0.6,0.7,0.9,1.8,1,3.2h-5.7
			c0,1.2,0.3,2,0.8,2.4s1,0.6,1.6,0.6C333,12.5,333.7,12,334.2,11z M334.1,8.6c0-0.4-0.1-0.8-0.2-1.2c-0.1-0.3-0.4-0.6-0.7-0.9
			c-0.3-0.2-0.7-0.4-1.2-0.4c-0.6,0-1.1,0.2-1.6,0.7c-0.4,0.4-0.7,1-0.7,1.8H334.1z"/>
		<path class="st4" d="M338.5,13.3h-1.2V2.7h1.2V13.3z"/>
		<path class="st4" d="M351.1,13.3h-1.2c0-0.3-0.1-0.7-0.1-1.4c-0.5,1.1-1.5,1.6-2.8,1.6c-0.9,0-1.6-0.2-2-0.7
			c-0.5-0.5-0.7-1-0.7-1.7c0-0.8,0.3-1.5,1-2c0.7-0.5,1.8-0.8,3.5-0.8c0.2,0,0.6,0,1,0c0-0.6,0-1.1-0.1-1.4
			c-0.1-0.3-0.3-0.5-0.6-0.7s-0.7-0.3-1.2-0.3c-1.2,0-2,0.5-2.2,1.4l-1.1-0.2c0.3-1.5,1.4-2.2,3.5-2.2c1.1,0,1.9,0.2,2.3,0.7
			c0.5,0.5,0.7,1.3,0.7,2.5v3.4C351,12.4,351,12.9,351.1,13.3z M349.8,9.4c-0.5,0-0.9,0-1.1,0c-1,0-1.7,0.2-2.3,0.5
			c-0.5,0.3-0.8,0.8-0.8,1.4c0,0.4,0.1,0.7,0.4,1s0.7,0.4,1.3,0.4c0.7,0,1.3-0.3,1.8-0.8s0.7-1.2,0.7-1.9
			C349.8,9.8,349.8,9.6,349.8,9.4z"/>
		<path class="st4" d="M354.6,13.3h-1.2V2.7h1.2V13.3z"/>
	</g>
	<g class="st3">
		<path class="st4" d="M363.2,5.3V16H362v-4.1c-0.5,1.1-1.3,1.6-2.4,1.6c-0.9,0-1.6-0.4-2.2-1.1s-0.9-1.7-0.9-3c0-1.2,0.3-2.2,0.9-3
			c0.6-0.8,1.4-1.2,2.3-1.2c0.5,0,0.9,0.1,1.3,0.3c0.4,0.2,0.8,0.6,1.1,1.2l0.5-1.4H363.2z M362,8.8c-0.1-0.9-0.3-1.6-0.7-2
			s-0.9-0.6-1.4-0.6c-0.6,0-1.1,0.3-1.5,0.9c-0.4,0.6-0.6,1.3-0.6,2.3c0,0.9,0.2,1.7,0.5,2.2c0.4,0.6,0.9,0.9,1.5,0.9
			c0.6,0,1.1-0.3,1.5-0.8c0.4-0.5,0.6-1.2,0.6-1.9V8.8z"/>
	</g>
	<g class="st3">
		<path class="st4" d="M371.7,13.3h-1.1v-1.5c-0.6,1.2-1.4,1.7-2.5,1.7c-0.8,0-1.4-0.3-1.9-0.8c-0.5-0.5-0.7-1.3-0.7-2.3v-5h1.2v5
			c0,0.8,0.2,1.3,0.5,1.6c0.3,0.3,0.7,0.4,1.1,0.4c0.4,0,0.8-0.1,1.1-0.3s0.6-0.5,0.8-1c0.2-0.4,0.3-0.9,0.3-1.4V5.4h1.2V13.3z"/>
		<path class="st4" d="M375.4,2.7V4h-1.3V2.7H375.4z M375.4,5.4v7.9h-1.2V5.4H375.4z"/>
		<path class="st4" d="M379.1,13.3h-1.2V2.7h1.2V13.3z"/>
		<path class="st4" d="M386.7,11l1.1,0.2c-0.2,0.7-0.6,1.2-1.2,1.7c-0.6,0.4-1.3,0.7-2.1,0.7c-1.1,0-2-0.4-2.6-1.1
			c-0.7-0.8-1-1.8-1-3c0-1.3,0.3-2.3,1-3c0.7-0.8,1.6-1.2,2.6-1.2c1,0,1.9,0.4,2.5,1.1c0.6,0.7,0.9,1.8,1,3.2h-5.7
			c0,1.2,0.3,2,0.8,2.4s1,0.6,1.6,0.6C385.6,12.5,386.3,12,386.7,11z M386.7,8.6c0-0.4-0.1-0.8-0.2-1.2c-0.1-0.3-0.4-0.6-0.7-0.9
			c-0.3-0.2-0.7-0.4-1.2-0.4c-0.6,0-1.1,0.2-1.6,0.7c-0.4,0.4-0.7,1-0.7,1.8H386.7z"/>
	</g>
	<g class="st3">
		<path class="st4" d="M391.1,13.3h-1.2V5.4h1.1v1.8c0.4-0.9,0.8-1.4,1.1-1.7s0.8-0.4,1.2-0.4c0.1,0,0.3,0,0.5,0v1.2h-0.3
			c-0.7,0-1.2,0.3-1.7,0.8s-0.7,1.2-0.7,2V13.3z"/>
	</g>
	<g class="st3">
		<path class="st4" d="M395.9,11.6v1.6l-1.2,2.2h-0.7l0.9-2h-0.8v-1.8H395.9z"/>
	</g>
	<g class="st3">
		<path class="st4" d="M208.5,24.5v10.7h-1.2v-4.1c-0.5,1.1-1.3,1.6-2.4,1.6c-0.9,0-1.6-0.4-2.2-1.1s-0.9-1.7-0.9-3
			c0-1.2,0.3-2.2,0.9-3c0.6-0.8,1.4-1.2,2.3-1.2c0.5,0,0.9,0.1,1.3,0.3c0.4,0.2,0.8,0.6,1.1,1.2l0.5-1.4H208.5z M207.2,28
			c-0.1-0.9-0.3-1.6-0.7-2s-0.9-0.6-1.4-0.6c-0.6,0-1.1,0.3-1.5,0.9c-0.4,0.6-0.6,1.3-0.6,2.3c0,0.9,0.2,1.7,0.5,2.2
			c0.4,0.6,0.9,0.9,1.5,0.9c0.6,0,1.1-0.3,1.5-0.8c0.4-0.5,0.6-1.2,0.6-1.9V28z"/>
	</g>
	<g class="st3">
		<path class="st4" d="M217,32.5h-1.1V31c-0.6,1.2-1.4,1.7-2.5,1.7c-0.8,0-1.4-0.3-1.9-0.8c-0.5-0.5-0.7-1.3-0.7-2.3v-5h1.2v5
			c0,0.8,0.2,1.3,0.5,1.6c0.3,0.3,0.7,0.4,1.1,0.4c0.4,0,0.8-0.1,1.1-0.3s0.6-0.5,0.8-1c0.2-0.4,0.3-0.9,0.3-1.4v-4.4h1.2V32.5z"/>
		<path class="st4" d="M224.6,30.2l1.1,0.2c-0.2,0.7-0.6,1.2-1.2,1.7c-0.6,0.4-1.3,0.7-2.1,0.7c-1.1,0-2-0.4-2.6-1.1
			c-0.7-0.8-1-1.8-1-3c0-1.3,0.3-2.3,1-3c0.7-0.8,1.6-1.2,2.6-1.2c1,0,1.9,0.4,2.5,1.1c0.6,0.7,0.9,1.8,1,3.2h-5.7
			c0,1.2,0.3,2,0.8,2.4s1,0.6,1.6,0.6C223.5,31.7,224.2,31.2,224.6,30.2z M224.6,27.8c0-0.4-0.1-0.8-0.2-1.2
			c-0.1-0.3-0.4-0.6-0.7-0.9c-0.3-0.2-0.7-0.4-1.2-0.4c-0.6,0-1.1,0.2-1.6,0.7c-0.4,0.4-0.7,1-0.7,1.8H224.6z"/>
		<path class="st4" d="M233.9,21.9v10.7h-1.1v-1.4c-0.6,1-1.4,1.6-2.5,1.6c-0.9,0-1.7-0.4-2.3-1.2c-0.6-0.8-0.9-1.8-0.9-2.9
			c0-1.2,0.3-2.2,0.9-3c0.6-0.8,1.4-1.2,2.3-1.2c0.9,0,1.7,0.4,2.3,1.3v-3.9H233.9z M232.7,27.7c0-0.7-0.2-1.2-0.6-1.7
			s-0.9-0.6-1.5-0.6c-0.6,0-1.1,0.3-1.5,0.8c-0.4,0.5-0.6,1.3-0.6,2.3c0,1.1,0.2,1.9,0.5,2.4c0.4,0.6,0.9,0.8,1.5,0.8
			c0.6,0,1.1-0.2,1.5-0.7s0.7-1,0.7-1.7V27.7z"/>
		<path class="st4" d="M242.5,32.5h-1.2c0-0.3-0.1-0.7-0.1-1.4c-0.5,1.1-1.5,1.6-2.8,1.6c-0.9,0-1.6-0.2-2-0.7
			c-0.5-0.5-0.7-1-0.7-1.7c0-0.8,0.3-1.5,1-2c0.7-0.5,1.8-0.8,3.5-0.8c0.2,0,0.6,0,1,0c0-0.6,0-1.1-0.1-1.4
			c-0.1-0.3-0.3-0.5-0.6-0.7s-0.7-0.3-1.2-0.3c-1.2,0-2,0.5-2.2,1.4l-1.1-0.2c0.3-1.5,1.4-2.2,3.5-2.2c1.1,0,1.9,0.2,2.3,0.7
			c0.5,0.5,0.7,1.3,0.7,2.5V31C242.4,31.6,242.4,32.1,242.5,32.5z M241.2,28.6c-0.5,0-0.9,0-1.1,0c-1,0-1.7,0.2-2.3,0.5
			c-0.5,0.3-0.8,0.8-0.8,1.4c0,0.4,0.1,0.7,0.4,1s0.7,0.4,1.3,0.4c0.7,0,1.3-0.3,1.8-0.8s0.7-1.2,0.7-1.9
			C241.2,29,241.2,28.8,241.2,28.6z"/>
		<path class="st4" d="M246,32.5h-1.2v-7.9h1.1v1.8c0.4-0.9,0.8-1.4,1.1-1.7s0.8-0.4,1.2-0.4c0.1,0,0.3,0,0.5,0v1.2h-0.3
			c-0.7,0-1.2,0.3-1.7,0.8c-0.4,0.5-0.7,1.2-0.7,2V32.5z"/>
		<path class="st4" d="M253.4,21.9l-3.2,1.5l-0.3-0.6L253,21L253.4,21.9z M251.3,24.6v7.9h-1.2v-7.9H251.3z"/>
		<path class="st4" d="M259.9,32.5h-1.2c0-0.3-0.1-0.7-0.1-1.4c-0.5,1.1-1.5,1.6-2.8,1.6c-0.9,0-1.6-0.2-2-0.7
			c-0.5-0.5-0.7-1-0.7-1.7c0-0.8,0.3-1.5,1-2c0.7-0.5,1.8-0.8,3.5-0.8c0.2,0,0.6,0,1,0c0-0.6,0-1.1-0.1-1.4
			c-0.1-0.3-0.3-0.5-0.6-0.7s-0.7-0.3-1.2-0.3c-1.2,0-2,0.5-2.2,1.4l-1.1-0.2c0.3-1.5,1.4-2.2,3.5-2.2c1.1,0,1.9,0.2,2.3,0.7
			c0.5,0.5,0.7,1.3,0.7,2.5V31C259.8,31.6,259.8,32.1,259.9,32.5z M258.6,28.6c-0.5,0-0.9,0-1.1,0c-1,0-1.7,0.2-2.3,0.5
			c-0.5,0.3-0.8,0.8-0.8,1.4c0,0.4,0.1,0.7,0.4,1s0.7,0.4,1.3,0.4c0.7,0,1.3-0.3,1.8-0.8s0.7-1.2,0.7-1.9
			C258.6,29,258.6,28.8,258.6,28.6z"/>
		<path class="st4" d="M272.4,32.5h-1.1V31c-0.6,1.2-1.4,1.7-2.5,1.7c-0.8,0-1.4-0.3-1.9-0.8c-0.5-0.5-0.7-1.3-0.7-2.3v-5h1.2v5
			c0,0.8,0.2,1.3,0.5,1.6c0.3,0.3,0.7,0.4,1.1,0.4c0.4,0,0.8-0.1,1.1-0.3s0.6-0.5,0.8-1c0.2-0.4,0.3-0.9,0.3-1.4v-4.4h1.2V32.5z"/>
		<path class="st4" d="M281.1,32.5H280v-5.1c0-0.7-0.2-1.2-0.5-1.5c-0.3-0.3-0.7-0.4-1.2-0.4c-0.6,0-1.1,0.3-1.6,0.8
			c-0.4,0.5-0.6,1.2-0.6,2v4.3h-1.2v-7.9h1.1v1.5c0.6-1.1,1.5-1.7,2.5-1.7c0.6,0,1.1,0.2,1.5,0.5s0.7,0.6,0.9,1
			c0.2,0.4,0.2,1.1,0.2,2.1V32.5z"/>
	</g>
	<g class="st3">
		<path class="st4" d="M288,21.9h6.6l-0.2,1.6h-5.1l-0.3,3.1c0.6-0.8,1.5-1.2,2.5-1.2c1,0,1.9,0.4,2.6,1.1s1.1,1.5,1.1,2.5
			c0,1-0.4,1.9-1.1,2.6s-1.8,1.1-3,1.1c-1,0-1.9-0.2-2.7-0.7s-1.3-1.2-1.5-2.2l1.8-0.3c0.4,1.1,1.1,1.6,2.2,1.6
			c0.7,0,1.2-0.2,1.6-0.6s0.6-0.9,0.6-1.5c0-0.6-0.2-1.1-0.6-1.5s-0.9-0.6-1.5-0.6c-0.9,0-1.6,0.4-2.1,1.2l-1.7-0.3L288,21.9z"/>
		<path class="st4" d="M300.4,32.7c-1.3,0-2.3-0.5-3-1.5s-1.1-2.3-1.1-3.9c0-1.7,0.4-3,1.1-4.1s1.7-1.5,3-1.5c0.9,0,1.7,0.2,2.3,0.7
			s1.1,1.2,1.4,2s0.5,1.7,0.5,2.4c0,1.3-0.1,2.3-0.4,3.1s-0.7,1.5-1.4,2S301.3,32.7,300.4,32.7z M300.4,31.2c0.5,0,1-0.2,1.3-0.5
			s0.6-0.8,0.7-1.4s0.2-1.4,0.2-2.5c0-0.9-0.1-1.7-0.4-2.5s-0.9-1.2-1.7-1.2c-1.4,0-2.2,1.3-2.2,4c0,1.2,0.2,2.2,0.5,2.9
			S299.6,31.2,300.4,31.2z"/>
		<path class="st4" d="M308,30.5v1.8l-1.3,2.5h-0.7l0.9-2.3h-0.9v-2H308z"/>
		<path class="st4" d="M310.7,21.9h6.6l-0.2,1.6h-5.1l-0.3,3.1c0.6-0.8,1.5-1.2,2.5-1.2c1,0,1.9,0.4,2.6,1.1s1.1,1.5,1.1,2.5
			c0,1-0.4,1.9-1.1,2.6s-1.8,1.1-3,1.1c-1,0-1.9-0.2-2.7-0.7s-1.3-1.2-1.5-2.2l1.8-0.3c0.4,1.1,1.1,1.6,2.2,1.6
			c0.7,0,1.2-0.2,1.6-0.6s0.6-0.9,0.6-1.5c0-0.6-0.2-1.1-0.6-1.5s-0.9-0.6-1.5-0.6c-0.9,0-1.6,0.4-2.1,1.2l-1.7-0.3L310.7,21.9z"/>
		<path class="st4" d="M321.1,27.3c-1.3-0.6-1.9-1.4-1.9-2.6c0-0.9,0.3-1.6,1-2.2s1.7-0.8,2.9-0.8c1.1,0,2,0.3,2.7,0.8s1,1.2,1,2
			c0,1-0.6,1.8-1.9,2.3c1.5,0.7,2.3,1.6,2.3,2.8c0,0.9-0.4,1.6-1.2,2.2s-1.8,0.9-3.1,0.9c-1.4,0-2.4-0.3-3.1-0.8s-1.1-1.2-1.1-2.1
			C318.8,28.7,319.5,27.8,321.1,27.3z M322.4,27.9c-0.5,0.2-0.9,0.4-1.3,0.8s-0.5,0.7-0.5,1.1c0,0.4,0.2,0.7,0.6,1.1s1,0.5,1.8,0.5
			c0.7,0,1.2-0.1,1.6-0.4s0.6-0.6,0.6-1c0-0.4-0.2-0.7-0.5-0.9S323.7,28.3,322.4,27.9z M323.6,26.2c1-0.4,1.5-1,1.5-1.7
			c0-0.5-0.2-0.8-0.6-1.1s-0.9-0.4-1.4-0.4c-0.5,0-1,0.1-1.4,0.4s-0.6,0.6-0.6,1c0,0.5,0.2,0.8,0.6,1.1S322.8,26,323.6,26.2z"/>
		<path class="st4" d="M330.7,27.7c-0.8,0-1.4-0.3-1.8-0.9s-0.7-1.3-0.7-2.1c0-0.8,0.2-1.5,0.7-2.1s1.1-0.8,1.8-0.8
			c0.8,0,1.5,0.3,1.9,0.9s0.6,1.3,0.6,2c0,0.9-0.2,1.7-0.7,2.2S331.4,27.7,330.7,27.7z M330.7,26.6c0.7,0,1.1-0.6,1.1-1.9
			c0-1.2-0.3-1.8-1-1.8c-0.7,0-1.1,0.6-1.1,1.8C329.7,25.9,330,26.6,330.7,26.6z M337.8,21.9l-6.6,10.7H330l6.6-10.7H337.8z
			 M337,32.6c-0.7,0-1.3-0.3-1.7-0.8s-0.7-1.2-0.7-2.1c0-1,0.3-1.7,0.8-2.3s1.1-0.8,1.8-0.8c0.6,0,1.2,0.3,1.7,0.8s0.8,1.3,0.8,2.3
			c0,0.9-0.2,1.6-0.7,2.1S337.7,32.6,337,32.6z M337.1,31.5c0.4,0,0.6-0.2,0.8-0.5s0.3-0.8,0.3-1.2c0-0.7-0.1-1.2-0.2-1.4
			s-0.4-0.4-0.8-0.4c-0.7,0-1.1,0.6-1.1,1.8S336.4,31.5,337.1,31.5z"/>
		<path class="st4" d="M351.6,32.5H350v-1.6c-0.5,1.2-1.2,1.8-2.3,1.8c-1,0-1.7-0.4-2.2-1.2s-0.8-1.8-0.8-3c0-1.1,0.3-2.1,0.8-2.9
			s1.3-1.2,2.3-1.2c1,0,1.7,0.5,2.1,1.4v-3.8h1.8V32.5z M349.8,27.9c0-0.6-0.2-1.1-0.5-1.5s-0.7-0.5-1.2-0.5c-0.5,0-0.9,0.2-1.2,0.7
			s-0.4,1.1-0.4,2.1c0,1.8,0.6,2.6,1.7,2.6c0.4,0,0.8-0.2,1.2-0.6s0.5-0.9,0.5-1.4V27.9z"/>
		<path class="st4" d="M358.8,30l1.6,0.2c-0.2,0.7-0.6,1.3-1.2,1.8s-1.4,0.7-2.3,0.7c-1.1,0-2-0.4-2.6-1.1s-1-1.7-1-3
			c0-1.2,0.3-2.2,1-3s1.6-1.2,2.7-1.2c1.1,0,2,0.4,2.6,1.2s0.9,1.8,0.9,3l0,0.2h-5.4c0,0.5,0.1,1,0.2,1.3s0.3,0.6,0.6,0.8
			s0.7,0.4,1.1,0.4C357.9,31.3,358.5,30.9,358.8,30z M358.7,27.7c0-0.6-0.2-1-0.5-1.4s-0.8-0.5-1.2-0.5c-0.5,0-0.9,0.2-1.2,0.5
			s-0.5,0.8-0.6,1.4H358.7z"/>
		<path class="st4" d="M363.9,32.5h-1.8V21.9h1.8V32.5z"/>
	</g>
	<g class="st3">
		<path class="st4" d="M201.2,49.9l1.7-0.3c0.3,0.6,0.8,1,1.7,1c1.1,0,1.7-0.3,1.7-1c0-0.2-0.1-0.4-0.3-0.5s-0.4-0.2-0.6-0.3
			l-1.4-0.3c-1.6-0.3-2.4-1.1-2.4-2.3c0-0.7,0.3-1.3,0.8-1.8c0.5-0.5,1.3-0.7,2.3-0.7c1.7,0,2.7,0.6,3.1,1.8l-1.6,0.3
			c-0.2-0.6-0.6-0.9-1.4-0.9c-0.9,0-1.4,0.3-1.4,0.9c0,0.4,0.4,0.7,1.1,0.9L206,47c1.3,0.3,2,1,2,2.3c0,0.9-0.3,1.5-1,1.9
			c-0.7,0.4-1.5,0.6-2.4,0.6c-0.8,0-1.5-0.2-2.1-0.5C201.8,51.1,201.4,50.6,201.2,49.9z"/>
		<path class="st4" d="M215.9,51.7h-1.7V50c-0.4,1.2-1.3,1.9-2.5,1.9c-0.7,0-1.3-0.2-1.7-0.7s-0.6-1.1-0.6-1.9v-5.5h1.8V49
			c0,0.6,0.1,0.9,0.4,1.1s0.5,0.3,0.7,0.3c0.4,0,0.8-0.2,1.2-0.5c0.4-0.3,0.6-1.1,0.6-2.2v-3.8h1.8V51.7z"/>
		<path class="st4" d="M223.1,49.2l1.6,0.2c-0.2,0.7-0.6,1.3-1.2,1.8c-0.6,0.5-1.4,0.7-2.3,0.7c-1.1,0-2-0.4-2.6-1.1
			c-0.7-0.7-1-1.7-1-3c0-1.2,0.3-2.2,1-3s1.6-1.2,2.7-1.2c1.1,0,2,0.4,2.6,1.2c0.6,0.8,0.9,1.8,0.9,3l0,0.2h-5.4
			c0,0.5,0.1,1,0.2,1.3s0.3,0.6,0.6,0.8c0.3,0.2,0.7,0.4,1.1,0.4C222.2,50.5,222.8,50.1,223.1,49.2z M223,46.9c0-0.6-0.2-1-0.5-1.4
			s-0.8-0.5-1.2-0.5c-0.5,0-0.9,0.2-1.2,0.5s-0.5,0.8-0.6,1.4H223z"/>
		<path class="st4" d="M228.2,51.7h-1.8V41.1h1.8V51.7z"/>
		<path class="st4" d="M236.9,51.7h-1.7v-1.6c-0.5,1.2-1.2,1.8-2.3,1.8c-1,0-1.7-0.4-2.2-1.2s-0.8-1.8-0.8-3c0-1.1,0.3-2.1,0.8-2.9
			c0.5-0.8,1.3-1.2,2.3-1.2c1,0,1.7,0.5,2.1,1.4v-3.8h1.8V51.7z M235.1,47.1c0-0.6-0.2-1.1-0.5-1.5s-0.7-0.5-1.2-0.5
			c-0.5,0-0.9,0.2-1.2,0.7s-0.4,1.1-0.4,2.1c0,1.8,0.6,2.6,1.7,2.6c0.4,0,0.8-0.2,1.2-0.6s0.5-0.9,0.5-1.4V47.1z"/>
		<path class="st4" d="M242.1,51.9c-1.2,0-2.1-0.4-2.7-1.3c-0.6-0.8-0.9-1.8-0.9-2.9c0-1.2,0.3-2.1,1-2.9s1.6-1.2,2.7-1.2
			c1.1,0,1.9,0.4,2.6,1.1s1,1.7,1,2.9c0,1.2-0.4,2.2-1.1,3C244.1,51.5,243.2,51.9,242.1,51.9z M242.1,50.4c1.2,0,1.8-0.9,1.8-2.7
			c0-0.8-0.1-1.4-0.4-1.9c-0.3-0.5-0.7-0.7-1.3-0.7c-0.6,0-1.1,0.2-1.4,0.7s-0.4,1.1-0.4,1.9c0,0.9,0.2,1.5,0.5,2
			C241.2,50.2,241.6,50.4,242.1,50.4z"/>
	</g>
	<g class="st3">
		<path class="st4" d="M252.8,54.4h-1.2V43.8h1.1v1.5c0.6-1.2,1.4-1.8,2.5-1.8c0.9,0,1.7,0.4,2.3,1.2c0.6,0.8,0.9,1.8,0.9,3
			c0,1.3-0.3,2.3-0.9,3.1s-1.3,1.1-2.3,1.1c-1,0-1.8-0.5-2.3-1.4V54.4z M252.8,46.7v2.2c0.1,0.6,0.3,1.1,0.8,1.5
			c0.4,0.4,0.9,0.6,1.3,0.6c0.5,0,1-0.2,1.4-0.7s0.6-1.3,0.6-2.4c0-1-0.2-1.8-0.6-2.3s-0.9-0.8-1.5-0.8c-0.5,0-0.9,0.2-1.3,0.6
			S253,46.1,252.8,46.7z"/>
		<path class="st4" d="M266.3,51.7h-1.2c0-0.3-0.1-0.7-0.1-1.4c-0.5,1.1-1.5,1.6-2.8,1.6c-0.9,0-1.6-0.2-2-0.7s-0.7-1-0.7-1.7
			c0-0.8,0.3-1.5,1-2s1.8-0.8,3.5-0.8c0.2,0,0.6,0,1,0c0-0.6,0-1.1-0.1-1.4s-0.3-0.5-0.6-0.7s-0.7-0.3-1.2-0.3c-1.2,0-2,0.5-2.2,1.4
			l-1.1-0.2c0.3-1.5,1.4-2.2,3.5-2.2c1.1,0,1.9,0.2,2.3,0.7s0.7,1.3,0.7,2.5v3.4C266.2,50.8,266.2,51.3,266.3,51.7z M265,47.8
			c-0.5,0-0.9,0-1.1,0c-1,0-1.7,0.2-2.3,0.5s-0.8,0.8-0.8,1.4c0,0.4,0.1,0.7,0.4,1s0.7,0.4,1.3,0.4c0.7,0,1.3-0.3,1.8-0.8
			s0.7-1.2,0.7-1.9C265,48.2,265,48,265,47.8z"/>
		<path class="st4" d="M269.9,51.7h-1.2v-7.9h1.1v1.8c0.4-0.9,0.8-1.4,1.1-1.7s0.8-0.4,1.2-0.4c0.1,0,0.3,0,0.5,0v1.2h-0.3
			c-0.7,0-1.2,0.3-1.7,0.8s-0.7,1.2-0.7,2V51.7z"/>
		<path class="st4" d="M280.1,51.7h-1.2c0-0.3-0.1-0.7-0.1-1.4c-0.5,1.1-1.5,1.6-2.8,1.6c-0.9,0-1.6-0.2-2-0.7s-0.7-1-0.7-1.7
			c0-0.8,0.3-1.5,1-2s1.8-0.8,3.5-0.8c0.2,0,0.6,0,1,0c0-0.6,0-1.1-0.1-1.4s-0.3-0.5-0.6-0.7s-0.7-0.3-1.2-0.3c-1.2,0-2,0.5-2.2,1.4
			l-1.1-0.2c0.3-1.5,1.4-2.2,3.5-2.2c1.1,0,1.9,0.2,2.3,0.7s0.7,1.3,0.7,2.5v3.4C279.9,50.8,280,51.3,280.1,51.7z M278.7,47.8
			c-0.5,0-0.9,0-1.1,0c-1,0-1.7,0.2-2.3,0.5s-0.8,0.8-0.8,1.4c0,0.4,0.1,0.7,0.4,1s0.7,0.4,1.3,0.4c0.7,0,1.3-0.3,1.8-0.8
			s0.7-1.2,0.7-1.9C278.7,48.2,278.7,48,278.7,47.8z"/>
	</g>
	<g class="st3">
		<path class="st4" d="M289.2,52c-1.1,0-1.9-0.4-2.5-1.2s-0.9-1.8-0.9-3c0-1.3,0.3-2.3,1-3s1.5-1.1,2.5-1.1c1.1,0,1.9,0.4,2.6,1.2
			s0.9,1.8,0.9,3c0,1.2-0.3,2.2-1,3S290.3,52,289.2,52z M289.3,50.9c0.6,0,1.1-0.3,1.6-0.8s0.6-1.3,0.6-2.4c0-1.1-0.2-1.9-0.7-2.4
			s-1-0.7-1.6-0.7c-0.6,0-1.1,0.2-1.5,0.7s-0.6,1.3-0.6,2.4c0,1.1,0.2,2,0.6,2.4S288.7,50.9,289.3,50.9z"/>
	</g>
	<g class="st3">
		<path class="st4" d="M298.1,50.9v1c-0.4,0.1-0.8,0.1-1.1,0.1c-1.5,0-2.3-0.8-2.3-2.4v-4.8h-1.4v-1h1.4l0.1-2l1.1-0.1v2.1h1.8v1
			h-1.8v5c0,0.8,0.4,1.2,1.3,1.2C297.5,51,297.8,51,298.1,50.9z"/>
	</g>
	<g class="st3">
		<path class="st4" d="M300.7,51.7h-1.2v-7.9h1.1v1.8c0.4-0.9,0.8-1.4,1.1-1.7s0.8-0.4,1.2-0.4c0.1,0,0.3,0,0.5,0v1.2h-0.3
			c-0.7,0-1.2,0.3-1.7,0.8c-0.4,0.5-0.7,1.2-0.7,2V51.7z"/>
	</g>
	<g class="st3">
		<path class="st4" d="M307.3,52c-1.1,0-1.9-0.4-2.5-1.2c-0.6-0.8-0.9-1.8-0.9-3c0-1.3,0.3-2.3,1-3c0.7-0.8,1.5-1.1,2.5-1.1
			c1.1,0,1.9,0.4,2.6,1.2c0.6,0.8,0.9,1.8,0.9,3c0,1.2-0.3,2.2-1,3C309.2,51.6,308.4,52,307.3,52z M307.4,50.9
			c0.6,0,1.1-0.3,1.6-0.8s0.6-1.3,0.6-2.4c0-1.1-0.2-1.9-0.7-2.4c-0.4-0.5-1-0.7-1.6-0.7c-0.6,0-1.1,0.2-1.5,0.7s-0.6,1.3-0.6,2.4
			c0,1.1,0.2,2,0.6,2.4S306.8,50.9,307.4,50.9z"/>
		<path class="st4" d="M311.7,49.7l1.2-0.2c0.3,1,1.1,1.5,2.5,1.5c0.5,0,0.9-0.1,1.3-0.3c0.4-0.2,0.5-0.6,0.5-1c0-0.6-0.5-1-1.4-1.2
			l-1.7-0.3c-0.7-0.1-1.2-0.4-1.6-0.7c-0.4-0.4-0.6-0.8-0.6-1.4c0-0.7,0.3-1.2,0.8-1.7c0.5-0.4,1.2-0.7,2.1-0.7c1.7,0,2.8,0.7,3.2,2
			l-1.1,0.2c-0.3-0.8-1-1.2-2-1.2c-0.5,0-0.9,0.1-1.2,0.3c-0.3,0.2-0.5,0.5-0.5,0.9c0,0.6,0.4,0.9,1.2,1.1l1.5,0.3
			c1.6,0.3,2.4,1.1,2.4,2.3c0,0.7-0.3,1.3-0.9,1.8c-0.6,0.4-1.4,0.7-2.4,0.7C313.3,52,312.1,51.2,311.7,49.7z"/>
		<path class="st4" d="M330.6,42.6v1c-0.6,0-0.9,0.1-1.1,0.2c-0.2,0.1-0.3,0.4-0.4,0.7c0.5,0.6,0.8,1.2,0.8,1.9
			c0,0.7-0.3,1.3-0.8,1.9c-0.6,0.5-1.3,0.8-2.2,0.8c-0.2,0-0.4,0-0.5,0c-0.3-0.1-0.5-0.1-0.5-0.1c-0.1,0-0.3,0.1-0.5,0.2
			c-0.2,0.1-0.3,0.3-0.3,0.5c0,0.3,0.1,0.5,0.4,0.6c0.3,0.1,1,0.2,2,0.2c0.9,0,1.6,0.1,2,0.2s0.8,0.3,1.1,0.6s0.4,0.7,0.4,1.2
			c0,1.5-1.3,2.3-4,2.3c-1.3,0-2.2-0.2-2.7-0.6c-0.6-0.4-0.9-0.9-0.9-1.5c0-0.8,0.4-1.3,1.2-1.6c-0.5-0.3-0.8-0.8-0.8-1.3
			c0-0.6,0.4-1.1,1.1-1.4c-0.7-0.6-1-1.2-1-2.1c0-0.8,0.3-1.4,0.9-1.9c0.6-0.5,1.3-0.8,2.1-0.8c0.6,0,1.1,0.1,1.6,0.3
			c0.1-0.5,0.3-0.9,0.5-1.1c0.3-0.2,0.7-0.3,1.3-0.3C330.4,42.6,330.5,42.6,330.6,42.6z M325.4,51.4c-0.6,0.3-0.9,0.6-0.9,1.1
			c0,0.4,0.2,0.7,0.7,0.9c0.5,0.2,1.1,0.3,1.8,0.3c0.7,0,1.3-0.1,1.9-0.3s0.8-0.5,0.8-1c0-0.2-0.1-0.4-0.3-0.6
			c-0.2-0.2-0.4-0.3-0.7-0.3s-0.8-0.1-1.5-0.1C326.5,51.5,325.8,51.5,325.4,51.4z M326.9,48.1c0.5,0,0.9-0.2,1.3-0.5
			s0.5-0.7,0.5-1.2c0-0.5-0.2-0.9-0.5-1.3c-0.3-0.3-0.8-0.5-1.2-0.5c-0.5,0-0.9,0.2-1.2,0.5s-0.5,0.8-0.5,1.3c0,0.5,0.2,0.9,0.5,1.2
			C325.9,47.9,326.4,48.1,326.9,48.1z"/>
		<path class="st4" d="M338.2,51.7H337c0-0.3-0.1-0.7-0.1-1.4c-0.5,1.1-1.5,1.6-2.8,1.6c-0.9,0-1.6-0.2-2-0.7
			c-0.5-0.5-0.7-1-0.7-1.7c0-0.8,0.3-1.5,1-2c0.7-0.5,1.8-0.8,3.5-0.8c0.2,0,0.6,0,1,0c0-0.6,0-1.1-0.1-1.4
			c-0.1-0.3-0.3-0.5-0.6-0.7s-0.7-0.3-1.2-0.3c-1.2,0-2,0.5-2.2,1.4l-1.1-0.2c0.3-1.5,1.4-2.2,3.5-2.2c1.1,0,1.9,0.2,2.3,0.7
			c0.5,0.5,0.7,1.3,0.7,2.5v3.4C338.1,50.8,338.1,51.3,338.2,51.7z M336.9,47.8c-0.5,0-0.9,0-1.1,0c-1,0-1.7,0.2-2.3,0.5
			c-0.5,0.3-0.8,0.8-0.8,1.4c0,0.4,0.1,0.7,0.4,1s0.7,0.4,1.3,0.4c0.7,0,1.3-0.3,1.8-0.8s0.7-1.2,0.7-1.9
			C336.9,48.2,336.9,48,336.9,47.8z"/>
		<path class="st4" d="M339.4,49.7l1.2-0.2c0.3,1,1.1,1.5,2.5,1.5c0.5,0,0.9-0.1,1.3-0.3c0.4-0.2,0.5-0.6,0.5-1c0-0.6-0.5-1-1.4-1.2
			l-1.7-0.3c-0.7-0.1-1.2-0.4-1.6-0.7c-0.4-0.4-0.6-0.8-0.6-1.4c0-0.7,0.3-1.2,0.8-1.7c0.5-0.4,1.2-0.7,2.1-0.7c1.7,0,2.8,0.7,3.2,2
			l-1.1,0.2c-0.3-0.8-1-1.2-2-1.2c-0.5,0-0.9,0.1-1.2,0.3c-0.3,0.2-0.5,0.5-0.5,0.9c0,0.6,0.4,0.9,1.2,1.1l1.5,0.3
			c1.6,0.3,2.4,1.1,2.4,2.3c0,0.7-0.3,1.3-0.9,1.8c-0.6,0.4-1.4,0.7-2.4,0.7C341,52,339.9,51.2,339.4,49.7z"/>
	</g>
	<g class="st3">
		<path class="st4" d="M351.5,50.9v1c-0.4,0.1-0.8,0.1-1.1,0.1c-1.5,0-2.3-0.8-2.3-2.4v-4.8h-1.4v-1h1.4l0.1-2l1.1-0.1v2.1h1.8v1
			h-1.8v5c0,0.8,0.4,1.2,1.3,1.2C350.8,51,351.2,51,351.5,50.9z"/>
	</g>
	<g class="st3">
		<path class="st4" d="M355.4,52c-1.1,0-1.9-0.4-2.5-1.2s-0.9-1.8-0.9-3c0-1.3,0.3-2.3,1-3s1.5-1.1,2.5-1.1c1.1,0,1.9,0.4,2.6,1.2
			s0.9,1.8,0.9,3c0,1.2-0.3,2.2-1,3S356.5,52,355.4,52z M355.5,50.9c0.6,0,1.1-0.3,1.6-0.8s0.6-1.3,0.6-2.4c0-1.1-0.2-1.9-0.7-2.4
			s-1-0.7-1.6-0.7c-0.6,0-1.1,0.2-1.5,0.7s-0.6,1.3-0.6,2.4c0,1.1,0.2,2,0.6,2.4S354.9,50.9,355.5,50.9z"/>
		<path class="st4" d="M359.9,49.7l1.2-0.2c0.3,1,1.1,1.5,2.5,1.5c0.5,0,0.9-0.1,1.3-0.3c0.4-0.2,0.5-0.6,0.5-1c0-0.6-0.5-1-1.4-1.2
			l-1.7-0.3c-0.7-0.1-1.2-0.4-1.6-0.7s-0.6-0.8-0.6-1.4c0-0.7,0.3-1.2,0.8-1.7s1.2-0.7,2.1-0.7c1.7,0,2.8,0.7,3.2,2l-1.1,0.2
			c-0.3-0.8-1-1.2-2-1.2c-0.5,0-0.9,0.1-1.2,0.3c-0.3,0.2-0.5,0.5-0.5,0.9c0,0.6,0.4,0.9,1.2,1.1l1.5,0.3c1.6,0.3,2.4,1.1,2.4,2.3
			c0,0.7-0.3,1.3-0.9,1.8s-1.4,0.7-2.4,0.7C361.5,52,360.3,51.2,359.9,49.7z"/>
	</g>
	<line class="st2" x1="299.5" y1="73.4" x2="299.5" y2="61"/>
</g>
</svg>
