<?xml version="1.0" encoding="utf-8"?>
<!-- Generator: Adobe Illustrator 24.0.2, SVG Export Plug-In . SVG Version: 6.00 Build 0)  -->
<svg version="1.1" id="Capa_1" xmlns="http://www.w3.org/2000/svg" xmlns:xlink="http://www.w3.org/1999/xlink" x="0px" y="0px"
	 viewBox="0 0 35 35" style="enable-background:new 0 0 35 35;" xml:space="preserve">
<style type="text/css">
	.st0{opacity:0.6;fill:none;stroke:#DDDDDD;stroke-miterlimit:10;enable-background:new    ;}
</style>
<g>
	<circle class="st0" cx="17.5" cy="17.5" r="17"/>
	<path class="st0" d="M7.8,23.8c2.1,0.1,4-0.4,5.7-1.7c-1.9-0.2-3.1-1.1-3.8-2.8c0.6,0.1,1.2,0.1,1.8-0.1c-1-0.3-1.8-0.7-2.4-1.5
		c-0.6-0.7-0.9-1.6-0.9-2.6c0.6,0.3,1.2,0.5,1.9,0.5c-1.8-1.5-2.2-3.3-1.3-5.5c0.8,0.9,1.6,1.7,2.6,2.3c1.7,1.2,3.7,1.8,5.7,2
		c0.2,0,0.2,0,0.2-0.2c-0.3-2.3,1-4.3,3.3-4.8c1.3-0.3,2.5,0.1,3.5,1c0.2,0.1,0.3,0.2,0.5,0.1c0.8-0.2,1.5-0.5,2.3-0.9
		c-0.3,1-0.9,1.6-1.8,2.2c0.8-0.1,1.5-0.3,2.3-0.6c-0.5,0.7-1,1.3-1.7,1.8c-0.3,0.4-0.3,0.6-0.3,0.9c-0.1,4.5-2,8-6,10.4
		c-1.9,1.1-3.9,1.4-6,1.4C11.3,25.6,9.5,25,7.7,24C7.6,23.8,7.7,23.8,7.8,23.8z"/>
</g>
</svg>
